<?xml version="1.0" encoding="utf-8"?>
<!-- Generator: Adobe Illustrator 27.2.0, SVG Export Plug-In . SVG Version: 6.00 Build 0)  -->
<svg version="1.1" id="Layer_1" xmlns="http://www.w3.org/2000/svg" xmlns:xlink="http://www.w3.org/1999/xlink" x="0px" y="0px"
	 viewBox="0 0 310.74 50.53" style="enable-background:new 0 0 310.74 50.53;" xml:space="preserve">
<path d="M18.74,20.32C17.82,19.77,8.32,14.8,8.32,10.19c0-1.42,0.53-2.59,1.44-3.49c0.87-0.85,1.98-1.29,3.33-1.33
	c1.74-0.06,3.34,0.16,4.82,0.63c1.43,0.43,3.65,1.19,4.48,1.49c0.83,0.3,0.95-0.05,0.79-0.47c-0.38-0.98-1.32-5.69-2.41-6.11
	c-1.1-0.41-1.39,0.61-2.82,0.88c-0.99,0.19-1.98-0.09-2.93-0.3c-0.95-0.26-1.93-0.38-2.93-0.38c-1.31,0.01-2.57,0.22-3.79,0.64
	C7.11,2.17,6.02,2.78,5.02,3.6C4.07,4.46,3.3,5.5,2.74,6.7c-0.57,1.21-0.91,2.58-0.91,4.11c0,11.97,16.87,12.82,16.79,22.51
	c-0.02,2.67-0.92,4.9-2.43,6.7c-1.56,1.81-3.62,3.08-6.18,3.77c-1.28,0.34-2.4,0.46-3.33,0.34c-0.94-0.12-1.79-0.28-2.56-0.5
	c-0.77-0.31-1.45-0.58-2.05-0.81c-0.6-0.22-2.36-1.4-2.01-0.45c0.84,2.73,2.18,6.44,2.64,7.75c0.47,1.31,1.33-0.98,2.11-1.21
	c0.78-0.23,3.69-0.12,6.01-0.68c1.83-0.44,9.31-3.59,12.86-11.09C28.93,26.26,21.23,22.21,18.74,20.32z M87.03,25.65
	c-0.38,0.25-0.88,0.42-1.32,0.67c-0.48,0.2-0.97,0.4-1.45,0.61c-0.48,0.2-1.05,0.35-1.71,0.42c-1.02,0.11-7.95,0.94-10.96,1.37
	c-0.76,0.11-1.4-0.08-1.55-0.64C70.01,27.92,70,27.76,70,27.59c0-0.01,0-0.03,0-0.04c0.08-4.23,0.17-8.45,0.25-12.68
	c0.01-0.25,0.51-0.49,0.82-0.57c0.39-0.12,4.66-0.37,5.75-0.44c2.61-0.16,4.05,0.91,4.36,1.04c0.3,0.13,0.58,0.18,0.85,0.17
	c0.43-0.03,0.85-0.28,1.26-0.75c0.44-0.47,0.8-1.01,1.08-1.62c0.27-0.61,0.5-1.19,0.69-1.76c0.18-0.57,0.28-0.98,0.29-1.25
	c0.04-0.42-1.64,0.71-9.95,1.14c-1.41,0.07-2.81,0.15-4.22,0.22c-0.52,0.03-0.69-0.2-0.82-0.37c0.03-1.64,0.06-3.27,0.1-4.91
	c0.01-0.74,0.74-1.26,3.51-1.32c3.56-0.08,5.31-0.16,6.27-0.06c0.95,0.13,4.06,0.66,4.62,0.8c0.56,0.11,0.89,0.16,0.98,0.15
	c0.35-0.01,0.61-0.1,0.79-0.28c0.18-0.21,0.27-0.41,0.27-0.62c0-0.16-2.36-3.92-3.51-4.17c-1.05-0.21-1.14,0.49-3.59,0.5
	C73.77,0.78,67.8,0.8,61.82,0.83c-0.57,0-0.92,0.49-0.6,0.85c1.01,1.1,2.59,3,2.57,4.3c-0.14,7.63-0.29,15.26-0.43,22.89
	c-0.03,1.47-1.49,3.29-2.53,4.43c-0.38,0.42-0.06,0.88,0.54,0.78c-0.01-0.08,17.01-2.8,17.85-2.83c5.41-0.75,6.71,1.06,7.12,0.31
	c0.13-0.21,2.74-5.3,2.79-5.43C89.33,25.51,89.15,24.25,87.03,25.65z M56.91,0.85c-3.59,0.02-7.18,0.03-10.77,0.05
	c-0.58,0-0.92,0.54-0.6,0.92c1.01,1.2,2.6,3.26,2.57,4.68c-0.03,1.86-0.06,3.71-0.09,5.57c-3.72-0.01-7.46,0.23-11.19,0.78
	c0.03-1.99,0.05-3.98,0.08-5.97c0.02-1.86,1.59-3.84,2.69-4.97c0.39-0.4,0.06-0.98-0.54-0.98C35.48,0.96,31.89,0.98,28.3,1
	c-0.58,0-0.92,0.6-0.59,1.02c1.02,1.33,2.61,3.6,2.59,5.17c-0.11,9.17-0.21,18.35-0.32,27.52c-0.02,1.77-1.46,3.99-2.49,5.39
	c-0.38,0.51-0.06,1.06,0.54,0.92c3.4-0.82,6.81-1.61,10.22-2.36c0.58-0.13,0.92-0.76,0.58-1.09c-0.94-0.91-2.29-2.6-2.27-4.58
	c0.07-4.93,0.13-9.85,0.2-14.78c3.73-0.63,7.46-0.98,11.18-1.11c-0.08,4.76-0.16,9.52-0.23,14.28c-0.03,1.6-1.48,3.59-2.52,4.85
	c-0.38,0.46-0.06,0.96,0.54,0.84c3.42-0.71,6.85-1.38,10.28-2.02c0.58-0.11,0.93-0.68,0.59-0.98c-0.94-0.84-2.3-2.39-2.27-4.18
	c0.14-7.88,0.28-15.77,0.42-23.65c0.03-1.68,1.6-3.47,2.7-4.5C57.83,1.38,57.51,0.85,56.91,0.85z M216.9,9.33
	c-0.6-1.28-1.34-2.49-2.24-3.62c-0.9-1.13-1.99-2.11-3.28-2.93c-1.33-0.86-2.88-1.53-4.65-2.04c-1.72-0.47-3.7-0.71-5.94-0.71
	c-1.71,0-3.4,0.11-5.06,0.32c-1.67,0.19-2.01,0.25-4.66,0.3c-0.45,0-0.89,0-1.34,0c-0.57,0-0.91,0.38-0.57,0.67
	c1.04,0.87,2.69,2.43,2.7,3.49c0.08,6.13,0.17,12.27,0.25,18.4c0.02,1.19-1.41,2.37-2.43,3.06c-0.38,0.25-0.04,0.69,0.57,0.73
	c3.47,0.22,6.94,0.48,10.4,0.77c0.58,0.05,0.92-0.33,0.57-0.64c-0.99-0.89-2.41-2.39-2.43-3.79c-0.09-6.15-0.19-12.31-0.28-18.46
	c-0.01-0.64,0.16-1.02,0.39-1.23c1.42-1.06,3.9-0.37,5.13,0.05c1.24,0.43,2.3,1.01,3.19,1.74c0.93,0.74,1.7,1.56,2.28,2.47
	c0.59,0.94,1.04,1.9,1.37,2.9c0.41,1,0.67,1.99,0.78,2.98c0.15,0.96,0.23,1.85,0.25,2.67c-0.02,1.6-0.29,3.25-0.83,4.95
	c-0.54,1.67-1.44,3.17-2.7,4.5c-1.21,1.28-2.85,2.27-4.91,2.98c-2.06,0.71-4.65,0.92-7.75,0.67c-1.06-0.09-2.13-0.23-3.19-0.44
	c-1.06-0.24-2.02-0.54-2.87-0.91c-0.85-0.4-1.52-0.86-2.01-1.38c-0.54-0.53-0.81-1.14-0.82-1.85c0-0.47,0.3-0.83,0.92-1.09
	c0.57-0.28,2.42-1.02,1.23-2.02c-0.63-0.55-2.21-0.94-3.78-0.34c-0.57,0.24-1.05,0.54-1.45,0.91c-0.44,0.4-0.74,0.82-0.91,1.28
	c-0.22,0.46-0.32,0.87-0.32,1.23c0,0.05,0,0.1,0,0.16c0.01,0.73,0.37,1.48,1.09,2.27c0.76,0.87,1.66,1.6,2.68,2.18
	c0.67,0.41,1.45,0.76,2.34,1.06c0.93,0.27,1.89,0.53,2.87,0.76c1.02,0.21,2.04,0.37,3.06,0.48c1.02,0.14,1.97,0.25,2.86,0.33
	c3.77,0.34,6.99,0.18,9.67-0.55c2.64-0.71,4.8-1.78,6.49-3.24c1.69-1.49,2.93-3.23,3.73-5.22c0.75-1.99,1.13-4.05,1.14-6.16
	c0-0.2-0.01-0.4-0.01-0.61c-0.02-1.01-0.13-2.07-0.32-3.17C217.84,11.88,217.45,10.58,216.9,9.33z M310.58,2.42
	c0.38-0.49,0.05-1.24-0.55-1.25c-3.59-0.03-7.18-0.05-10.77-0.07c-0.57,0-0.91,0.64-0.58,1.11c1.04,1.47,2.67,4.13,2.67,5.92
	c0.01,1.89,0.01,3.77,0.02,5.66c-3.72-0.63-7.44-0.91-11.16-0.89c-0.01-1.78-0.03-3.56-0.04-5.34c-0.02-2.03,1.5-4.13,2.57-5.4
	c0.38-0.44,0.04-1.12-0.56-1.12c-3.59-0.02-7.18-0.04-10.77-0.06c-0.57,0-0.91,0.58-0.57,1c1.04,1.32,2.69,3.72,2.71,5.33
	c0.1,9.34,0.2,18.68,0.3,28.02c0.02,1.81-1.37,3.43-2.38,4.34c-0.37,0.33-0.03,1.03,0.56,1.17c3.4,0.82,6.8,1.67,10.19,2.55
	c0.57,0.15,0.9-0.4,0.56-0.94c-0.96-1.52-2.35-4.02-2.37-6.18c-0.05-5.42-0.09-10.84-0.14-16.26c3.72,0.18,7.43,0.62,11.13,1.38
	c0.02,5.96,0.05,11.91,0.07,17.87c0.01,2.02-1.39,3.81-2.39,4.8c-0.37,0.37-0.04,1.14,0.55,1.31c3.38,0.93,6.75,1.9,10.12,2.9
	c0.57,0.17,0.9-0.44,0.56-1.04c-0.95-1.69-2.31-4.48-2.31-6.88c-0.01-10.65-0.03-21.29-0.04-31.94
	C307.97,6.17,309.5,3.83,310.58,2.42z M121.77,0.65c-3.59,0.01-7.18,0.01-10.77,0.02c-0.57,0-0.92,0.4-0.59,0.69
	c1.02,0.9,2.61,2.46,2.6,3.52c-0.04,2.76-0.08,5.53-0.13,8.29c-1.28-1.1-8.64-5.16-9.96-6.58c-1.08-1.13-1.31-2.28-1.33-2.39
	c0.45-1.09,1.61-2.14,2.49-2.8c0.38-0.29,0.06-0.73-0.54-0.72c-3.59,0.01-7.18,0.02-10.77,0.03c-0.57,0-0.92,0.43-0.6,0.73
	c1.01,0.96,2.6,2.61,2.58,3.75c-0.12,6.63-0.25,13.26-0.37,19.89c-0.02,1.28-1.49,2.81-2.54,3.76c-0.38,0.35-0.06,0.76,0.54,0.69
	c3.46-0.4,6.92-0.77,10.38-1.11c0.58-0.06,0.93-0.5,0.59-0.76c-0.96-0.73-2.33-2.05-2.3-3.5c0.07-4.08,0.15-8.17,0.22-12.25
	c1.8,1.51,6.39,4.24,8.63,5.82c1.83,1.3,2.57,2.83,2.86,3.64c-0.01,0.73-0.02,1.47-0.03,2.2c-0.02,1.2-1.48,2.6-2.53,3.47
	c-0.38,0.32-0.06,0.71,0.55,0.66c3.47-0.29,6.93-0.54,10.4-0.76c0.58-0.04,0.93-0.45,0.59-0.71c-0.96-0.72-2.34-2.01-2.33-3.38
	c0.08-6.03,0.16-12.07,0.24-18.1c0.02-1.28,1.57-2.64,2.67-3.43C122.7,1.07,122.37,0.65,121.77,0.65z M154.01,0.59
	c-3.59,0-7.18,0-10.77,0c-0.02,0-0.03,0.01-0.05,0.01c-3.46,0-7.69,0-8.33,0c-2.36,0-4.05-0.6-4.98-0.6c-0.39,0-0.74,0.14-1.05,0.42
	c-0.35,0.28-1.72,2.86-1.8,3.01c-0.16,0.34,0.13,0.7,0.58,0.77c0.45,0.07,0.77-0.08,1.24-0.24c1.47-0.49,3.08-0.83,3.87-0.98
	c0.7-0.12,2.29-0.29,4.34-0.1c-0.88,0.82-2.41,2.47-4.92,5.89c-4.67,6.35-5.92,12.56-6.37,13.86c0,0.01,0.01,0.03,0.01,0.04
	c0,0-0.01,0-0.01,0c0,0-0.33,1.58-2.52,3.48c-0.35,0.31-0.05,0.69,0.55,0.65c3.47-0.2,6.94-0.37,10.42-0.51
	c0.59-0.02,0.93-0.42,0.59-0.68c-0.97-0.73-2.36-2.01-2.35-3.34c0-0.04,0-0.08,0-0.12c0,0-0.01,0-0.01,0c0-0.01,0.02-0.03,0.01-0.04
	c-0.13-0.93,1.55-6.03,1.96-6.61c0.41-0.59,2.01-0.88,4.75-0.3c2.74,0.57,6.06,0.48,6.06,0.48c-0.01,2.17-0.02,4.34-0.03,6.51
	c0,1.14-1.45,2.38-2.49,3.14c-0.38,0.28-0.05,0.67,0.56,0.65c3.47-0.08,6.95-0.12,10.42-0.13c0.59,0,0.93-0.38,0.58-0.65
	c-0.98-0.75-2.38-2.05-2.37-3.36c0.01-5.77,0.02-11.54,0.02-17.31c0-1.23,1.54-2.52,2.63-3.27C154.94,0.99,154.61,0.59,154.01,0.59z
	 M145.26,11.81c-0.44,0.82-4.02,0.35-5.48,0.12c-1.46-0.23-3.52-0.57-3.52-0.57c0-0.02,4.87-8.07,7.49-8.08
	c1.12-0.01,1.43,0.64,1.48,0.75c0.04,0.17,0.06,0.35,0.06,0.54C145.28,6.98,145.27,9.39,145.26,11.81z M276.7,33.64
	C276.7,33.64,276.69,33.64,276.7,33.64c-0.01-0.02,0-0.04,0-0.06c-0.45-1.95-1.73-11.42-6.44-20.88c-2.54-5.06-4.09-7.43-4.98-8.62
	c2.05-0.24,5.38,0.4,6.08,0.59c0.79,0.24,2.4,0.77,3.87,1.53c0.48,0.25,0.8,0.48,1.24,0.39c0.45-0.09,0.73-0.63,0.57-1.13
	c-0.07-0.23-1.46-4.1-1.82-4.51c-0.31-0.42-0.66-0.63-1.05-0.63c-0.92,0-4.36,0.55-6.72,0.53c-0.63,0-4.87-0.02-8.32-0.03
	c-0.02,0-0.03-0.01-0.05-0.01c-3.59-0.02-7.18-0.03-10.77-0.05c-0.6,0-0.92,0.52-0.54,0.87c1.1,0.99,2.67,2.73,2.7,4.37
	c0.14,7.66,0.28,15.32,0.43,22.97c0.03,1.74-1.32,3.25-2.27,4.07c-0.34,0.29,0.01,0.84,0.59,0.95c3.44,0.6,6.87,1.24,10.29,1.91
	c0.59,0.12,0.92-0.37,0.54-0.81c-1.04-1.21-2.5-3.14-2.52-4.69c-0.05-2.97-0.1-5.95-0.16-8.92c0,0,3.29,0.47,6-0.08
	c2.71-0.56,4.29-0.02,4.71,0.87c0.42,0.86,2.15,8.4,2.03,9.74c0,0.02,0.01,0.04,0.01,0.06c0,0-0.01,0-0.01,0c0,0.06,0,0.12,0,0.18
	c0.03,1.93-1.32,3.59-2.27,4.48c-0.34,0.32,0.01,0.94,0.59,1.06c3.42,0.73,6.83,1.49,10.24,2.28c0.59,0.14,0.89-0.39,0.54-0.9
	C277.05,36.01,276.7,33.65,276.7,33.64z M262.73,16.76c-1.45,0.22-4.99,0.58-5.45-0.58c-0.06-3.31-0.12-6.62-0.17-9.92
	c0-0.26,0.02-0.5,0.05-0.74c0.04-0.15,0.34-1.03,1.46-0.99c2.62-0.02,7.59,11.59,7.59,11.68C266.21,16.2,264.18,16.54,262.73,16.76z
	 M234.13,0.04c-7.83,0.08-14.07,5.33-13.88,15.18c0.19,9.85,6.67,15.86,14.52,17.13c7.85,1.28,14.07-3.71,13.86-14.98
	C248.42,6.09,241.95-0.06,234.13,0.04z M234.7,28.86c-4.01-0.57-7.35-5.21-7.51-13.19c-0.16-7.98,3.01-12.18,7.01-12.15
	c4,0.03,7.34,4.75,7.5,13.24C241.86,25.26,238.71,29.44,234.7,28.86z M181.3,24.87c0-0.43,0.12-0.9,0.36-1.41
	c0.18-0.5,0.54-1,1.05-1.46c0.34-0.32,0.77-0.59,1.24-0.83c-0.06-5.49-0.12-10.98-0.18-16.47c-0.01-1.26,1.51-2.58,2.58-3.36
	c0.38-0.27,0.04-0.69-0.56-0.69c-3.59,0-7.18-0.01-10.77-0.01c-0.58,0-0.91,0.37-0.58,0.65c1.04,0.85,2.67,2.36,2.68,3.38
	c0.02,2.64,0.05,5.28,0.07,7.92c-1.31-1.17-8.78-5.26-10.13-6.55c-1.11-1.06-1.36-2.11-1.38-2.2c0.43-0.98,1.56-1.93,2.43-2.53
	c0.38-0.27,0.04-0.67-0.56-0.67c-3.59,0-7.18,0-10.77,0c-0.58,0-0.91,0.37-0.58,0.64c1.03,0.84,2.66,2.31,2.66,3.32
	c0.01,5.85,0.02,11.71,0.03,17.56c0,1.13-1.44,2.34-2.48,3.07c-0.38,0.27-0.04,0.66,0.56,0.66c3.48,0.01,6.95,0.05,10.43,0.13
	c0.59,0.01,0.93-0.36,0.58-0.64c-0.98-0.78-2.39-2.12-2.39-3.43c-0.02-3.71-0.03-7.42-0.05-11.12c1.83,1.44,6.5,4.23,8.78,5.9
	c1.87,1.36,2.65,2.89,2.95,3.7c0.01,0.7,0.01,1.4,0.02,2.1c0.01,1.15-1.42,2.33-2.45,3.03c-0.38,0.26-0.04,0.67,0.56,0.69
	c2.12,0.08,4.23,0.17,6.35,0.27c-0.28-0.51-0.43-1.01-0.44-1.49C181.3,24.97,181.3,24.92,181.3,24.87z"/>
</svg>
