<?xml version="1.0" encoding="utf-8"?>
<!-- Generator: Adobe Illustrator 27.2.0, SVG Export Plug-In . SVG Version: 6.00 Build 0)  -->
<svg version="1.1" id="Layer_1" xmlns="http://www.w3.org/2000/svg" xmlns:xlink="http://www.w3.org/1999/xlink" x="0px" y="0px"
	 viewBox="0 0 228.66 232.84" style="enable-background:new 0 0 228.66 232.84;" xml:space="preserve">
<style type="text/css">
	.st0{fill:none;stroke:#000000;stroke-width:0;stroke-linecap:round;stroke-linejoin:round;}
	.st1{fill:#CE0E2D;}
	.st2{fill:#FFFFFF;}
</style>
<g>
	<path d="M4.35,99.46c3.12,0.63,4.64-1.44,5.99-3.59c1.19-1.85,2.16-3.73,3.93-3.37c1.4,0.28,1.91,1.69,1.55,3.46
		c-0.33,1.64-1.28,2.93-2.41,2.71l-1.3-0.26l-0.59,2.92l1.99,0.4c2.63,0.53,4.55-2.3,5.14-5.2c0.67-3.29-0.37-6.62-3.93-7.34
		c-3.27-0.66-4.82,1.73-6.28,4.15c-1.06,1.68-1.95,3.18-3.54,2.86c-1.33-0.27-1.68-1.57-1.39-2.99c0.26-1.3,0.99-2.51,1.88-2.33
		l1.18,0.24l0.59-2.92l-2.28-0.46c-2.01-0.41-3.63,2.15-4.19,4.9C0.07,95.63,0.84,98.75,4.35,99.46z"/>
	<polygon points="6.41,80.81 18.35,85.57 17.56,87.55 19.84,88.45 22.64,81.43 20.36,80.52 19.56,82.52 14.84,80.64 17.83,73.12 
		22.56,75 21.76,77 24.04,77.91 26.84,70.89 24.56,69.98 23.77,71.96 11.83,67.2 12.62,65.22 10.32,64.3 7.52,71.33 9.82,72.25 
		10.62,70.25 15.39,72.15 12.4,79.66 7.63,77.76 8.42,75.76 6.12,74.85 3.32,81.87 5.62,82.79 	"/>
	<polygon points="16.06,59.46 26.92,66.32 25.78,68.12 27.86,69.43 35.1,57.95 31.18,55.48 29.69,57.85 31.38,58.92 28.52,63.45 
		24.29,60.78 27.41,55.82 25.19,54.42 22.06,59.37 17.93,56.77 20.59,52.55 22.24,53.59 23.74,51.22 19.87,48.78 12.82,59.94 
		14.92,61.26 	"/>
	<path d="M26.14,44.52l9.45,8.7l-1.44,1.57l1.8,1.66l5.16-5.6l-1.8-1.66l-1.49,1.62l-6.47-5.96c-0.46-0.46-1.3-1.03-1.3-1.03
		l0.07-0.07c0,0,0.87,0.39,1.55,0.54l13.46,2.21l2.22-2.41L36.09,33.72l1.44-1.57l-1.82-1.68l-5.16,5.6l1.82,1.68l1.49-1.62
		l6.47,5.95c0.46,0.46,1.3,1.06,1.3,1.06l-0.05,0.06c0,0-0.89-0.41-1.55-0.54l-13.49-2.25l-3.67,3.98l1.82,1.68L26.14,44.52z"/>
	<path d="M47.59,40.4l1.46,1.97l5.36-3.96l-1.46-1.97l-1.41,1.04l-1.1-3.33l4.51-3.34l2.87,2.02l-1.41,1.04l1.46,1.97l5.38-3.98
		l-1.46-1.97l-1.31,0.97l-13.41-9.15l-3,2.22l4.83,15.49L47.59,40.4z M47.9,26.59c-0.32-0.85-0.66-1.44-0.66-1.44l0.06-0.04
		c0,0,0.44,0.51,1.18,1.05l4.34,3.05l-3.3,2.44L47.9,26.59z"/>
	<path d="M59.25,16.68l5.52,11.61l-1.92,0.91l1.05,2.22l6.88-3.27l-1.05-2.22l-1.99,0.95l-3.77-7.94c-0.26-0.6-0.82-1.44-0.82-1.44
		l0.09-0.04c0,0,0.66,0.69,1.23,1.08l11.66,7.08l2.96-1.41L72.5,10.38l1.92-0.91l-1.06-2.24l-6.88,3.27l1.06,2.24l1.99-0.95
		l3.77,7.94c0.26,0.6,0.81,1.47,0.81,1.47l-0.07,0.03c0,0-0.67-0.71-1.23-1.08l-11.68-7.12l-4.89,2.32l1.06,2.24L59.25,16.68z"/>
	<path d="M80.81,7.52L83.9,20l-2.07,0.51l0.59,2.38l7.49-1.85c1.43-0.36,2.63-0.75,3.69-1.46c3.01-1.91,4.35-5.36,3.34-9.44
		c-1.05-4.25-4.03-6.67-7.63-6.83c-1.2-0.06-2.32,0.13-3.7,0.48l-7.46,1.85l0.6,2.41L80.81,7.52z M86.12,6.36
		c1.02-0.25,1.84-0.4,2.79-0.28c2.21,0.28,4.02,1.95,4.74,4.86c0.7,2.82-0.04,5.15-1.81,6.44c-0.77,0.55-1.62,0.87-2.71,1.14
		l-2.09,0.52L84.03,6.88L86.12,6.36z"/>
	<path d="M109.68,18.38c5.26-0.25,9.02-4.51,8.77-9.74c-0.24-5.08-4.38-8.87-9.63-8.63c-5.26,0.25-9.02,4.41-8.78,9.49
		C100.28,14.73,104.43,18.63,109.68,18.38z M108.96,2.89c3.2-0.15,5.96,2.4,6.12,5.91c0.17,3.65-2.33,6.55-5.53,6.7
		c-3.2,0.15-5.96-2.5-6.13-6.16C103.25,5.84,105.75,3.04,108.96,2.89z"/>
	<path d="M126.09,16.17l-1.74-0.24l1.55-3.15l5.55,0.77L132.1,17l-1.74-0.24l-0.34,2.43l6.62,0.92l0.34-2.43l-1.61-0.22l-3.18-15.91
		l-3.7-0.51l-7.39,14.45l-1.61-0.22l-0.34,2.43l6.6,0.91L126.09,16.17z M129.38,5.61c0.37-0.83,0.54-1.49,0.54-1.49l0.07,0.01
		c0,0-0.04,0.68,0.11,1.58l0.97,5.22L127,10.36L129.38,5.61z"/>
	<polygon points="145.37,20.39 143.33,19.69 145,14.88 152.64,17.53 150.98,22.33 148.94,21.63 148.14,23.95 155.28,26.42 
		156.09,24.1 154.07,23.41 158.28,11.27 160.29,11.96 161.1,9.62 153.95,7.15 153.14,9.49 155.18,10.19 153.5,15.04 145.86,12.4 
		147.54,7.55 149.57,8.25 150.38,5.91 143.24,3.44 142.42,5.78 144.44,6.47 140.23,18.61 138.22,17.92 137.42,20.24 144.56,22.71 	
		"/>
	<polygon points="179.98,35.82 177.7,34.19 176.1,36.44 171.82,33.38 179.08,23.19 180.84,24.44 182.36,22.3 176.21,17.91 
		174.68,20.05 176.41,21.28 169.04,31.62 167.31,30.38 165.88,32.38 176.85,40.21 	"/>
	<path d="M183.96,47.48c3.69,3.75,9.37,3.71,13.1,0.04c3.63-3.56,3.69-9.17,0.01-12.92c-3.69-3.75-9.3-3.78-12.92-0.22
		C180.41,38.04,180.27,43.72,183.96,47.48z M186.51,36.79c2.5-2.46,6.25-2.46,8.5-0.17c2.25,2.29,2.18,6.04-0.32,8.5
		c-2.61,2.56-6.43,2.63-8.68,0.35C183.76,43.17,183.9,39.35,186.51,36.79z"/>
	<path d="M194.67,55.39l-1.17-1.78l-2.05,1.35l4.24,6.44c0.81,1.23,1.58,2.22,2.6,2.99c2.8,2.2,6.5,2.32,10.02,0
		c3.66-2.41,4.94-6.01,3.9-9.47c-0.34-1.15-0.9-2.14-1.68-3.33l-4.23-6.42l-2.07,1.36l1.17,1.78L194.67,55.39z M207.08,51.15
		l1.18,1.8c0.58,0.88,0.99,1.6,1.19,2.54c0.47,2.18-0.5,4.44-3.01,6.09c-2.43,1.6-4.86,1.67-6.67,0.43
		c-0.77-0.54-1.35-1.24-1.97-2.18l-1.18-1.8L207.08,51.15z"/>
	<path d="M204.87,79.35c1.01,2.43,3.7,6.46,6.2,5.43l4.95-2.05l-2.38-5.74l-2.27,0.94l1.24,2.99l-1.76,0.73
		c-1.37,0.56-2.73-1.74-3.27-3.06c-1.5-3.63,0.16-6.87,3.68-8.33c3.49-1.45,6.62-0.19,8.06,3.3c0.73,1.76,0.89,3.78-0.25,4.25
		l-1.2,0.5l1.14,2.75l2.27-0.94c2.08-0.86,1.79-4.83,0.58-7.77c-2.12-5.11-7.13-7.21-12.01-5.19
		C204.94,69.18,202.78,74.3,204.87,79.35z"/>
	<polygon points="211.29,89.51 210.83,87.43 208.44,87.97 211.38,101.22 215.9,100.22 215.29,97.48 213.34,97.91 212.18,92.68 
		217.07,91.59 218.34,97.32 220.9,96.75 219.63,91.02 224.4,89.96 225.48,94.83 223.58,95.25 224.18,97.99 228.66,97 225.8,84.11 
		223.38,84.65 223.84,86.73 	"/>
	<path d="M11.4,149.14c4.96-1.14,7.95-5.89,6.77-11.02c-1.18-5.13-5.95-8.09-10.91-6.95c-5.1,1.18-8.19,5.95-7.01,11.08
		C1.43,147.37,6.3,150.31,11.4,149.14z M3.06,141.6c-0.72-3.12,1.4-6.31,4.96-7.13c3.42-0.79,6.62,1.17,7.34,4.3
		c0.72,3.12-1.3,6.29-4.72,7.08C7.08,146.66,3.78,144.73,3.06,141.6z"/>
	<path d="M12.34,168.11c-0.24-0.55-0.26-0.92,0.05-1.33l2.59-3.36c0.46-0.58,0.5-1.17,0.5-1.17l0.05-0.02
		c1.46,1.61,3.58,2.11,5.86,1.12c2.3-0.99,3.26-2.82,3.07-4.9c-0.12-1.04-0.48-2.06-1-3.25l-3.11-7.2l-2.28,0.98l0.84,1.95
		l-11.8,5.09l-0.84-1.95l-2.25,0.97l2.96,6.85l2.25-0.97l-0.82-1.89l4-1.73l0.65,1.49c0.41,0.94,0.33,1.33-0.14,1.94l-3.21,4.14
		c-0.72,0.91-0.82,1.45-0.24,2.8l0.82,1.91l2.25-0.97L12.34,168.11z M20.09,154.01l0.95,2.21c0.33,0.76,0.5,1.42,0.5,1.97
		c0.02,1.06-0.64,1.8-1.7,2.26c-1.75,0.75-3.14,0.13-3.82-1.46l-1.17-2.71L20.09,154.01z"/>
	<path d="M32.92,173.02c-0.34-1.15-0.9-2.14-1.69-3.33l-4.24-6.41l-2.07,1.37l1.17,1.78l-10.72,7.09l-1.17-1.78l-2.05,1.35
		l4.26,6.43c0.81,1.23,1.59,2.22,2.61,2.99c2.8,2.2,6.51,2.3,10.02-0.02C32.7,180.08,33.97,176.47,32.92,173.02z M27.18,179.67
		c-2.42,1.6-4.86,1.68-6.67,0.45c-0.78-0.54-1.36-1.23-1.98-2.17l-1.19-1.8l10.44-6.91l1.19,1.8c0.58,0.88,0.99,1.59,1.2,2.54
		C30.65,175.75,29.68,178.01,27.18,179.67z"/>
	<polygon points="35.03,195.24 33.56,196.61 29.91,192.69 33.57,189.27 37.57,193.56 39.49,191.76 35.49,187.48 39.07,184.15 
		42.47,187.79 41.04,189.12 42.95,191.18 46.3,188.05 37.3,178.4 35.49,180.09 36.94,181.64 27.54,190.41 26.09,188.85 24.3,190.53 
		33.55,200.45 36.94,197.29 	"/>
	<path d="M53.71,194.12l-6.19-4.81L46,191.27l1.68,1.31l-7.89,10.14l-1.68-1.31l-1.51,1.94l5.89,4.58l1.51-1.94l-1.62-1.26
		l2.68-3.44l1.29,1c0.81,0.63,0.93,1.01,0.81,1.77l-0.82,5.17c-0.2,1.15-0.02,1.66,1.14,2.57l1.64,1.28l1.51-1.94l-0.46-0.35
		c-0.47-0.37-0.67-0.68-0.59-1.19l0.65-4.19c0.12-0.73-0.12-1.27-0.12-1.27l0.03-0.04c2.05,0.71,4.16,0.12,5.68-1.83
		c1.54-1.98,1.49-4.04,0.33-5.77C55.55,195.64,54.74,194.92,53.71,194.12z M53.06,200.47c-1.17,1.5-2.69,1.62-4.05,0.56l-2.33-1.81
		l3.51-4.51l1.9,1.48c0.65,0.51,1.12,1,1.38,1.49C53.99,198.59,53.77,199.56,53.06,200.47z"/>
	<path d="M74.13,206.03c-4.8-2.15-10.04-0.12-12.11,4.52c-2.14,4.78-0.19,10.12,4.61,12.27c4.8,2.15,10.08,0.03,12.21-4.74
		C80.92,213.42,78.93,208.17,74.13,206.03z M75.76,216.68c-1.49,3.34-5.03,4.8-7.95,3.49c-2.93-1.31-4.19-4.92-2.7-8.26
		c1.43-3.2,4.93-4.57,7.85-3.27C75.88,209.96,77.19,213.48,75.76,216.68z"/>
	<polygon points="82.86,212.55 84.92,213.08 81.7,225.52 79.64,224.99 79.02,227.37 86.54,229.31 87.15,226.94 84.88,226.35 
		86.08,221.69 91.68,223.14 92.34,220.6 86.74,219.14 88.02,214.2 92.36,215.32 91.9,217.09 94.62,217.8 95.78,213.33 83.48,210.15 
			"/>
	<polygon points="101.75,219.7 104.52,219.82 104.65,217.15 108,217.3 107.42,229.98 105.3,229.89 105.19,232.34 112.74,232.68 
		112.85,230.23 110.7,230.13 111.28,217.45 114.65,217.6 114.53,220.28 117.31,220.4 117.55,215.1 101.99,214.39 	"/>
	<polygon points="136.93,228.18 135.22,215.44 137.33,215.16 136.99,212.7 129.5,213.71 129.83,216.17 131.96,215.88 132.65,220.97 
		124.63,222.05 123.95,216.96 126.08,216.67 125.75,214.21 118.26,215.22 118.59,217.68 120.7,217.4 122.41,230.13 120.3,230.41 
		120.63,232.84 128.12,231.84 127.79,229.4 125.66,229.69 124.98,224.65 133,223.57 133.68,228.61 131.54,228.9 131.87,231.33 
		139.36,230.32 139.04,227.89 	"/>
	<polygon points="152.52,221.4 153.14,223.31 148.04,224.95 146.5,220.18 152.08,218.39 151.27,215.88 145.7,217.68 144.2,213.03 
		148.94,211.5 149.54,213.36 152.21,212.5 150.81,208.14 138.24,212.18 139,214.54 141.03,213.89 144.97,226.12 142.94,226.77 
		143.69,229.11 156.61,224.95 155.19,220.54 	"/>
	<path d="M178.56,210.71l-12.38-10.49l-3.21,1.9l3.2,15.91l-1.4,0.83l1.25,2.11l5.74-3.39l-1.25-2.11l-1.51,0.89l-0.74-3.43
		l4.83-2.85l2.64,2.31l-1.51,0.89l1.25,2.11l5.76-3.4l-1.25-2.11L178.56,210.71z M167.59,210.35l-1.09-5.2
		c-0.23-0.88-0.51-1.5-0.51-1.5l0.07-0.04c0,0,0.39,0.56,1.07,1.17l4,3.48L167.59,210.35z"/>
	<path d="M194.01,198.17c-0.46,0.39-0.81,0.52-1.29,0.34l-3.96-1.5c-0.69-0.27-1.27-0.14-1.27-0.14l-0.03-0.04
		c1.11-1.86,0.97-4.04-0.63-5.93c-1.62-1.91-3.65-2.29-5.58-1.51c-0.96,0.42-1.83,1.06-2.82,1.9l-5.98,5.07l1.6,1.89l1.62-1.38
		l8.32,9.8l-1.62,1.38l1.59,1.87l5.69-4.83l-1.59-1.87l-1.57,1.33l-2.82-3.32l1.24-1.05c0.78-0.66,1.18-0.7,1.9-0.43l4.89,1.86
		c1.09,0.43,1.62,0.36,2.75-0.59l1.58-1.35l-1.59-1.87L194.01,198.17z M184.22,197.31l-2.25,1.91l-3.7-4.35l1.83-1.56
		c0.63-0.53,1.21-0.9,1.74-1.05c1-0.33,1.91,0.09,2.66,0.96C185.73,194.68,185.54,196.19,184.22,197.31z"/>
	<path d="M206.67,183.68c-0.39,0.46-0.71,0.65-1.22,0.55l-4.16-0.82c-0.72-0.15-1.27,0.07-1.27,0.07l-0.04-0.03
		c0.79-2.02,0.28-4.15-1.61-5.74c-1.92-1.61-3.98-1.65-5.75-0.56c-0.87,0.57-1.63,1.35-2.47,2.34l-5.05,5.99l1.9,1.6l1.37-1.63
		l9.83,8.27l-1.37,1.63l1.88,1.58l4.81-5.71l-1.88-1.58l-1.32,1.57l-3.33-2.81l1.05-1.24c0.66-0.79,1.04-0.89,1.8-0.74l5.13,1.02
		c1.14,0.24,1.66,0.09,2.61-1.04l1.34-1.59l-1.88-1.58L206.67,183.68z M196.87,184.46l-1.9,2.26l-4.37-3.68l1.55-1.84
		c0.53-0.63,1.04-1.08,1.54-1.32c0.94-0.49,1.9-0.23,2.78,0.51C197.93,181.62,197.98,183.14,196.87,184.46z"/>
	<path d="M212.47,161.34c-4.41-2.53-9.83-1.07-12.44,3.49c-2.61,4.56-1.12,9.97,3.29,12.5c4.54,2.6,10.05,1.2,12.66-3.37
		C218.59,169.4,217.01,163.94,212.47,161.34z M213.48,172.54c-1.59,2.78-5.31,3.68-8.48,1.86c-3.04-1.74-4.06-5.35-2.47-8.14
		c1.59-2.78,5.22-3.73,8.27-1.99C213.96,166.09,215.07,169.76,213.48,172.54z"/>
	<path d="M214.86,134.44l-2.37-0.74l-2.07,6.62l2.37,0.74l0.62-1.98l8.99,5.23c0.65,0.36,1.42,0.66,1.42,0.66l-0.03,0.1
		c0,0-0.81-0.18-1.56-0.2l-13.04-0.59l-0.79,2.51l11.05,6.95c0.63,0.41,1.4,0.73,1.4,0.73l-0.03,0.1c0,0-0.8-0.2-1.54-0.27
		l-10.37-0.83l0.62-1.98l-2.37-0.74l-2.07,6.62l2.37,0.74l0.49-1.55l15.73,0.96l1.1-3.51l-9.82-6.2c-0.63-0.41-1.47-0.75-1.47-0.75
		l0.02-0.07c0,0,0.88,0.2,1.64,0.22l11.6,0.51l1.1-3.51L214.37,136L214.86,134.44z"/>
	<path d="M114.07,209.11c33.49,0,60.64-22.32,60.64-41.24c-0.16-0.57-3.26-3.18-3.44-3.69c-0.14-0.41-5.43-1.18-5.74-1.54
		c-0.95-1.08-2.28,0.24-3.49-0.1c-1.66-0.45-0.67-1.76-0.76-2.91c-1.3-0.37-1.31-2.45-1.67-3.44c-0.39-1.07-1.68-1.63-1.25-2.86
		c1.17-0.15,1.1,1.93,2.28,2.06c0.08-1.43,0.25-2.79-0.09-4.19c-0.33-1.36-0.86-2.75-0.32-4.21c0.73-1.96,1.11-3.19-1.11-4.32
		c-0.94-0.48-3.12-1.23-3.2-2.49c-0.81-0.36-0.91-0.81-1.89-0.87c-1.24-0.08-2.38,0.09-3.24-0.95c-0.78-0.95-0.85-1.8-2.03-2.39
		c-0.96-0.48-2.2,0.5-3.05-0.18c-0.8-0.64-0.24-2.49,0.17-3.22c1.23-2.16,4.43-2.33,3.39-5.3c-0.51-1.47-2.25-3.15-3.69-3.78
		c-0.8-0.34-2.07-0.61-2.5-1.45c-0.37-0.73,0.05-1.61-0.4-2.34c-0.56-0.92-1.93-1.43-2.97-1.34c-1.46,0.11-1.16,0.96-2.08,1.71
		c-1.26,1.04-3.69-2.92-4.61-3.78c-2.41-2.25-2.66,1.61-3.11,3.05c-0.35,1.12-0.84,2.09-1.46,3.07c-0.53,0.84-0.76,1.91-1.47,2.6
		c-0.66,0.64-1.6,1.18-2.3,1.79c-0.5,0.44-1.04,1.33-1.7,1.44c-0.04-0.61-1.23,0.07-1.63,0.37c-1.91,1.43-1.85,5.3-4.08,6.06
		c-0.66,0.22-1.72,0.15-2.34-0.12c-0.68-0.29-0.92-1-1.52-1.28c-1.8-0.81-2.62,2.59-3.09,3.73c-0.85,2.09-2.03,3.82-3.19,5.75
		c-0.77,1.29-1.26,2.68-2.14,3.89c-0.72,0.99-1.66,1.67-1.79,2.75c-0.09,0.79,0.05,1.38-0.35,2c-0.73,1.1-1.5,1.37-2.66,1.57
		c-0.99,0.18-1.81,0.68-2.75,0.94c-0.73,0.21-1.56,0.11-2.24,0.47c-0.73,0.38-0.87,1.09-1.6,1.4c-0.58,0.25-1.46,0.33-2.07,0.44
		c-0.64,0.12-1.68,0.39-2.33,0.22c-0.63-0.16-1.01-0.86-1.78-0.74c-0.59,0.09-1.35,0.85-1.94,1.1c-0.83,0.34-1.7,0.6-2.59,0.38
		c-1.07-0.26-1.91-1-2.57-1.74c-0.41-0.45-0.87-0.96-1.11-1.52c-0.16-0.39-0.09-1.16-0.42-1.48c-0.94-0.91-2.91,1.12-3.71,1.68
		c-1.58,1.13-2.93,2.23-4.71,3.03c-1.11,0.5-2.5,0.8-3.04,1.97c-0.31,0.68-0.04,0.92-0.77,1.42c-0.43,0.3-1.23,0.26-1.53,0.76
		c-0.28,0.46,0.09,1.01-0.33,1.51c-0.41,0.48-0.94,0.33-1.48,0.47c-1.26,0.33-1.51,1.13-2.34,1.98c-1.93,1.97-5.55,0.75-7.44,2.6
		C53.44,186.79,80.59,209.11,114.07,209.11z M55.18,170.59c0-0.41,13.75-5.65,13.98-5.42c0.23,0.23-2.2,3.74-1.91,3.74
		c0.09,0,7.59,0.01,18.07,0.03c-0.02-0.2-0.04-0.4-0.02-0.6c0-1.26,0.27-2.46,0.81-3.53c0.49-1.06,1.2-1.99,2.08-2.76
		c0.92-0.8,1.97-1.44,3.12-1.87c1.15-0.44,2.39-0.66,3.7-0.66c1.51,0,2.92,0.2,4.18,0.6c1.27,0.4,2.38,1,3.3,1.77
		c0.6,0.5,1.12,1.11,1.56,1.79c0.2-1.25,1.81-10.59,2.02-11.33c0.2-0.81,0.75-1.39,1.58-1.65c0.85-0.28,9.2,2.04,15.54-1.06
		c1.28-0.63,1.67,0.77,1.43,1.75c-0.08,0.34-2.27,5.5-2.44,5.76c-0.12,0.18-0.36,0.25-0.56,0.17c-0.83-0.33-1.17-2.09-2.83-2.09
		c-1.71,0-4.77-0.04-7.21-0.04c0,0-0.77,5.17-0.79,5.47c3.51,1.16,6.54,2.56,7.86,3.57c1.78,1.39,3.23,3,4.32,4.79
		c1.1,0,2.18,0,3.25,0.01c-0.29-0.88-0.49-1.9-0.49-3.09c0-0.71,0.88-8.69,10-8.69c5.25,0,8.53,3.89,8.53,7.52
		c0,1.89-0.79,3.27-1.83,4.3c5.39,0.01,8.76,0.02,8.76,0.02l4.99-4.22h0.81l-1.34,2.44l3.2-2.44h5l-0.82,2.08l3.15-2.08h5
		l-3.87,4.53c0,0,0.63-0.1,0.63,0.69s-0.04,1.27-0.39,1.27c0,0,4.48,4.78,4.04,4.78c-0.58,0-8.49,0-8.49,0l-2.85-2.07l1.04,2.07
		h-4.84l-5.27-4.23h-13.74c-0.09,0.05-0.17,0.1-0.18,0.13c7.04,3.06,8.15,9.31,8.15,11.47c0,2.16,0.33,11.31-11.19,11.31
		c-8.15,0-9.8-8.14-9.9-8.54c-0.14,0.38-0.29,0.76-0.46,1.14c-1.17,2.53-2.76,4.77-4.71,6.68c-1.9,1.95-4.14,3.53-6.66,4.7
		c-2.53,1.18-5.22,1.83-8.01,1.77c-7.48-0.15-7.64-4.25-0.9-3.47c7.81,0,10.59-5.08,11.67-6.48c1.03-1.44,1.85-3.04,2.43-4.74
		c0.58-1.74,0.89-3.6,0.94-5.5c0.04-1.87-0.19-3.66-0.68-5.31c-0.34-1.15-0.8-2.2-1.37-3.14h-8.24v0h-3.45
		c-0.08,0.26-0.17,0.53-0.27,0.79c-0.53,1.26-1.19,2.54-1.97,3.82c-0.82,1.25-1.72,2.49-2.69,3.69c-0.97,1.24-1.96,2.48-2.94,3.66
		c-0.95,1.19-1.88,2.36-2.76,3.49c-0.64,0.88-1.21,1.75-1.71,2.6c0.26-0.05,6.99,0.18,10.75,0.18c10.26,0,7.1-4.66,6.73-5.02
		c-0.48-0.55-2.43-2.2-0.81-3.97c1.51-1.28,3.4-0.28,3.96,0.22c0.5,0.48,0.9,1.05,1.21,1.71c0.33,0.68,0.54,1.4,0.63,2.14
		c0.12,0.73,0.15,1.39,0.1,1.96l-0.02,0.23c-0.12,1.13-0.56,2.26-1.31,3.36c-0.78,1.18-1.68,2.13-2.66,2.82
		c-0.64,0.49-1.39,0.88-2.22,1.16c-0.85,0.23-1.7,0.41-2.56,0.56c-0.61,0.07-1.2,0.1-1.79,0.1c-0.31,0-18.67-0.22-19.03-0.26
		c-0.35-0.04-0.68-0.15-0.99-0.31c-0.19-0.08-0.59-0.33-0.59-0.96c0-0.05,0.01-0.1,0.03-0.15c0.48-1.03,1.2-2.26,2.13-3.65
		c0.96-1.38,2.01-2.82,3.12-4.3c1.15-1.52,2.31-3.07,3.49-4.66c1.17-1.56,2.24-3.11,3.2-4.59c0.99-1.47,1.8-2.86,2.42-4.14
		c0.08-0.16,0.13-0.3,0.2-0.45H67.3c0,0,2.15,3.09,1.86,3.41C68.87,175.62,55.18,171,55.18,170.59z"/>
	<path d="M54.13,154.5c0.16,0.21,0.45,0.24,0.69,0.42c-0.13-0.51-0.16-1.33,0.05-1.86c0.32-0.47,0.72-0.8,1.38-0.8
		c0.69,0,1.16,0.48,1.49,0.98c0.16,0.45,0.35,0.8,0.4,1.3c-0.28,0.11-0.57,0.3-0.52,0.79c0.03,0.67,0.63,0.81,0.63,0.81
		c-0.08,0.32-0.34,0.56-0.64,0.64c-0.32,0.06-0.58-0.05-0.8-0.21c-0.24-0.26-0.29-0.66-0.26-1.06c-0.64,0.4-1.2,0.98-1.35,1.76
		c-0.05,0.45,0.02,0.9,0.26,1.22c0.32,0.51,0.98,0.68,1.57,0.67c0.61-0.06,1.17-0.35,1.57-0.74c0.42,0.82,1.04,1.46,1.7,2.15
		c0.67-0.69,1.27-1.33,1.7-2.15c0.4,0.4,0.96,0.69,1.57,0.74c0.59,0.01,1.25-0.16,1.57-0.67c0.24-0.32,0.32-0.77,0.27-1.22
		c-0.16-0.77-0.72-1.35-1.35-1.75c0.03,0.4-0.03,0.8-0.27,1.06c-0.21,0.16-0.48,0.27-0.8,0.21c-0.3-0.08-0.56-0.32-0.64-0.64
		c0,0,0.6-0.14,0.63-0.81c0.05-0.48-0.25-0.68-0.53-0.79c0.06-0.5,0.24-0.85,0.4-1.3c0.33-0.5,0.8-0.98,1.49-0.98
		c0.66,0,1.06,0.32,1.38,0.8c0.22,0.53,0.19,1.36,0.06,1.86c0.24-0.19,0.53-0.22,0.69-0.43c1.28-0.74,2.07-1.99,1.97-3.59
		c0.02-1.35-0.88-2.55-2.08-3.05c-0.95-0.24-2.2-0.16-2.89,0.43c-0.24-2.58-2.51-4.18-3.18-6.54c-0.66,2.37-2.91,3.97-3.15,6.54
		c-0.69-0.58-1.94-0.66-2.9-0.43c-1.19,0.51-2.1,1.7-2.07,3.06C52.06,152.5,52.86,153.75,54.13,154.5z"/>
	<path d="M100.59,75.18c0.68,11.55,7.68,19.67,15.62,18.14c7.94-1.53,12.59-11.19,11.91-22.74c-0.68-11.55-7.68-19.67-15.62-18.14
		C104.55,53.97,99.9,63.63,100.59,75.18z"/>
	<path d="M120.19,49.49c1.33-11.19-6.32-26.82-6.32-26.82c-6.68,18.15-5.42,27.22-5.42,27.22
		C114.92,45.89,120.19,49.49,120.19,49.49z"/>
	<path d="M151.88,66.47c-8.09-0.46-15.12,8.05-17.49,19.8c-2.37,11.75,2.27,21.65,10.36,22.11c8.09,0.46,15.12-8.05,17.49-19.8
		C164.6,76.83,159.97,66.93,151.88,66.47z"/>
	<path d="M167.42,139.7c7.7,0.15,13.92-7.97,15.52-18.9c1.6-10.94-3.34-19.92-11.04-20.07c-7.7-0.14-13.91,7.97-15.52,18.91
		C154.78,130.58,159.72,139.56,167.42,139.7z"/>
	<path d="M160.51,66.7c-0.05-22.04-14.35-29.39-14.35-29.39c7.73,17.56,3.86,26.38,3.86,26.38C157.91,63.44,160.51,66.7,160.51,66.7
		z"/>
	<path d="M181.77,102.41c2.78-21.13-10.5-31.11-10.5-31.11c4.71,18.85,0.68,26.58,0.68,26.58
		C180.06,98.57,181.77,102.41,181.77,102.41z"/>
	<path d="M66.46,88.58c2.37,11.75,9.4,20.26,17.49,19.8c8.09-0.46,12.72-10.36,10.36-22.11c-2.37-11.75-9.4-20.26-17.49-19.8
		C68.73,66.93,64.09,76.83,66.46,88.58z"/>
	<path d="M45.75,120.8c1.6,10.94,7.82,19.05,15.52,18.9c7.7-0.14,12.65-9.13,11.04-20.06c-1.6-10.94-7.81-19.05-15.52-18.91
		C49.09,100.88,44.15,109.86,45.75,120.8z"/>
	<path d="M68.18,66.7c0,0,2.6-3.26,10.48-3.01c0,0-3.87-8.82,3.86-26.38C82.53,37.3,68.23,44.66,68.18,66.7z"/>
	<path d="M46.92,102.41c0,0,1.72-3.84,9.82-4.53c0,0-4.03-7.73,0.68-26.58C57.42,71.3,44.14,81.28,46.92,102.41z"/>
	<path class="st0" d="M74.93,147.53c0,0.01,0,0.01,0.01,0.02"/>
	<path d="M98.45,96.8c0.21,0.95,0.1,1.38,0,2.31c-0.11,0.99,0.09,1.84-0.34,2.82c-0.47,1.06-0.8,1.52-1,2.71
		c-0.17,1-0.12,1.49-0.61,2.43c-0.27,0.52-0.34,0.93-0.34,1.53c0,0.71-0.22,1.16-0.42,1.81c-0.05,0.18,0.01,0.44-0.04,0.59
		c-0.28,0.79-1.34,1.63-1.98,2.17c-1.26,1.06-2.19,2.36-3.52,3.3c-0.42,0.29-1.01,1.11-1.58,0.78c-0.21-0.12-0.41-0.7-0.63-0.89
		c-1.17-1.04-1.46,0.98-2.24,1.51c-0.72,0.49-1.75,0.54-2.39,1.2c-0.52,0.53-0.99,1.38-1,2.11c0,0.18,0.14,0.6,0.13,0.71
		c-0.03,0.19-0.24,0.3-0.26,0.45c-0.06,0.45,0.11,0.81,0.06,1.26c-0.06,0.58-0.53,1.06-1.09,0.78c-0.12-0.06-0.34-0.57-0.56-0.7
		c-0.21-0.13-0.46-0.24-0.71-0.22c-0.95,0.08-1.67,1.93-2.26,2.63c-0.41,0.48-0.97,0.89-1.23,1.48c-0.34,0.76-0.05,1.42-0.08,2.2
		c-0.02,0.63-0.22,0.61-0.71,1.1c-0.45,0.46-0.74,1.03-1.08,1.59c-0.69,1.17,0.12,1.41-0.93,2.09c-0.89,0.58-0.4,2.86-1.62,2.87
		c-0.91,0.01-1.08,2.24-0.98,3.14c0.11,1.01,0.37,1.12,0.62,2.16c0.08,0.34,0.4,0.34,0.51,0.65c0.14,0.39,0.75,0.72,1.05,1.02
		c0.55,0.58,1.07,1.43,1.36,2.18c0.11,0.27,0.19,0.63,0.32,0.94c0-0.02,0.02-0.04,0.03-0.06c0.19,0.49,1.88,1.58,2.3,1.92
		c0.5,0.41,0.82,0.26,1.36,0.47c0.47,0.19,0.55,0.47,0.51,0.86c0.39,0.15,0.67,0.37,0.83,0.53c0.63,0.6,0.73,1.38,0.8,1.9
		c0.01,0.06,0.02,0.14,0.03,0.2c0.14,0.28,0.48,0.66,0.76,0.97l0.02,0.02c0.64,0.71,1.18,1.1,1.71,1.23
		c0.36,0.09,0.83-0.01,1.54-0.3c0.09-0.04,0.33-0.21,0.5-0.32c0.52-0.36,1.11-0.77,1.84-0.89c1.14-0.18,1.92,0.37,2.34,0.67
		c0.05,0.03,0.11,0.08,0.15,0.11c0.27,0.01,0.88-0.11,1.18-0.17c0.14-0.03,0.26-0.05,0.38-0.08c0.19-0.04,0.39-0.07,0.58-0.1
		c0.37-0.06,0.88-0.13,1.12-0.23c0.04-0.04,0.13-0.15,0.2-0.23c0.26-0.31,0.64-0.78,1.3-1.12c0.69-0.36,1.38-0.44,1.94-0.5
		c0.24-0.03,0.48-0.05,0.63-0.1c0.3-0.09,0.62-0.22,0.95-0.35c0.57-0.23,1.21-0.49,1.96-0.63c0.96-0.17,1.19-0.3,1.55-0.84
		c0.02-0.06,0.03-0.3,0.04-0.47c0.01-0.22,0.02-0.5,0.05-0.81c0.15-1.28,0.92-2.15,1.53-2.85c0.21-0.24,0.41-0.46,0.58-0.7
		c0.44-0.6,0.78-1.3,1.15-2.03c0.28-0.56,0.56-1.14,0.91-1.73c0.25-0.41,0.5-0.82,0.74-1.21c0.88-1.43,1.71-2.79,2.33-4.31
		c0.05-0.13,0.13-0.34,0.2-0.56c0.48-1.36,1.2-3.43,2.82-4.12c0.75-0.32,1.55-0.3,2.33,0.05c0.62,0.28,1,0.71,1.28,1.03
		c0.08,0.09,0.18,0.2,0.23,0.25c0.29,0.11,0.9,0.14,1.11,0.07c0.47-0.16,0.89-1.21,1.27-2.14c0.51-1.28,1.09-2.73,2.34-3.67
		c0.45-0.34,1.47-1,2.49-0.95c0.04-0.05,0.08-0.09,0.11-0.13c0.2-0.22,0.4-0.45,0.64-0.66c0.37-0.32,0.77-0.61,1.15-0.88
		c0.41-0.3,0.8-0.58,1.08-0.85c0.2-0.2,0.38-0.6,0.58-1.04c0.17-0.39,0.37-0.83,0.64-1.25c0.6-0.94,0.99-1.76,1.27-2.68
		c0.06-0.18,0.12-0.48,0.19-0.79c0.33-1.47,0.78-3.49,2.5-4.02c1.04-0.32,2.11,0.03,3.18,1.03c0.32,0.3,0.67,0.74,1.11,1.3
		c0.36,0.46,1.09,1.37,1.63,1.89c0.3-0.48,0.81-1.19,1.99-1.47c-0.03-0.05-0.06-0.11-0.1-0.17c-0.36-0.7-0.51-1.55-0.69-2.31
		c-0.14-0.58-0.26-1.43-0.81-1.77c-0.38-0.23-0.74-0.06-1.15-0.13c-0.64-0.12-0.96-0.62-1.51-0.88c-0.59-0.27-1.33-0.19-1.95-0.05
		c-0.65,0.15-1.3,0.44-1.9,0.72c-0.84,0.39-1.1,0.75-1.67,1.38c-0.39,0.43-0.84,0.5-1.44,0.45c-0.43-0.04-1.13-0.2-1.49-0.48
		c-0.47-0.36-0.48-1.17-0.93-1.49c-1.62-1.18-2.08,1.86-2.73,2.64c-0.65,0.78-1.39,0.37-2.24,0.7c-0.5,0.2-0.8,0.76-1.12,1.18
		c-0.55,0.72-1.15,1.45-1.8,2.07c-0.3,0.29-1.85,1.67-2.42,1.39c-0.4-0.2-0.26-1.39-0.25-1.74c0.02-1.16,0.5-2.62,0.29-3.79
		c-0.14-0.81,0.09-1.45,0.05-2.31c-0.04-0.76,0.03-0.98,0.03-1.73c-0.01-0.11-0.26-0.23-0.52-0.13c-0.78-0.17-1.42-0.28-2-0.18
		c-1.45,0.25-3.18,0.06-4.68,0.06c-1.24,0-2.49-0.15-3.74-0.07c-1.33,0.08-1.57,0.37-2.88,0.05c-0.96-0.23-1.07-0.46-0.92-1.36
		c0.19-1.15,0.13-2.55,0-3.7c-0.14-1.27,0.11-2.55,0.14-3.83c0.06-2.08,0.01-4.16,0.32-6.2c0.07-0.44,0.95-2.03-0.05-1.78
		c-0.59,0.26-1.86,0.23-2.21,0.53c-0.62,0.54-0.36,0.56-0.45,1.37C98.04,95.85,98.32,96.23,98.45,96.8z"/>
	<path d="M170.23,141.94c-0.59,0.34-1.68,0.62-2.05,1.26c-0.5,0.86,0.38,1.57,0.14,2.42c-0.35,1.27-2.13,1.92-2.56,3.05
		c-0.5,1.34-0.48,3.42-0.47,4.87c0.01,1.24-0.38,2.48-0.21,3.71c0.18,1.33,0.94,1.55,1.78,0.35c1.26-1.79,1.87-4.34,2.6-6.41
		c0.47-1.34,0.93-2.57,1.3-3.88c0.37-1.32,1.01-1.63,1.98-2.4c1.06-0.84,1.41-2.11,1.98-3.29
		C173.83,140.72,171.12,141.66,170.23,141.94z"/>
	<path d="M129.19,183.68c0,3.03,2.46,6.36,5.49,6.36s5.49-3.32,5.49-6.36c0-3.03-2.46-6.92-5.49-6.92S129.19,180.64,129.19,183.68z"
		/>
	<path d="M129.4,173.73c0.18-0.12-0.69-0.67-1.62-1.84h-2.62l0,0h-0.82c0.78,2.1,1.22,4.35,1.27,6.74
		C125.53,177.78,128.78,174.14,129.4,173.73z"/>
	<path d="M98.87,167.42c-0.28-0.56-0.64-1.04-1.08-1.43c-0.43-0.44-0.93-0.79-1.51-1.05c-0.57-0.26-1.13-0.39-1.66-0.39
		c-0.96,0-1.78,0.16-2.42,0.48c-0.62,0.3-1.11,0.67-1.48,1.12c-0.39,0.44-0.73,0.94-1.01,1.47c-0.2,0.44-0.39,0.88-0.58,1.32
		c3.21,0.01,6.61,0.01,10.12,0.02C99.26,168.44,99.13,167.92,98.87,167.42z"/>
	<path d="M140.26,162.24c-0.84-0.74-2.11-1.11-3.8-1.11c-2.99,0-4.61,2.26-4.89,2.85c-1.03,2.21-0.16,4.03,0.73,5.05
		c0.53,0,1.05,0,1.56,0c1.15-1.89,2.93-5.08,4.2-5.08c1.5,0,0.47,3.13-0.29,4.81c3.13-0.73,3.51-2.37,3.65-3.44
		C141.56,164.25,141.03,162.86,140.26,162.24z"/>
	<path d="M114.11,169c-0.64-0.53-1.34-1-2.1-1.38c-1.42-0.73-3.12-1.1-5.04-1.1c-0.53,0-1.02-0.02-1.46-0.07
		c-0.11-0.01-0.22-0.03-0.33-0.05c0.16,0.76,0.24,1.57,0.22,2.45c0,0.04-0.01,0.09-0.01,0.13
		C108.29,168.99,111.21,168.99,114.11,169z"/>
	<path class="st1" d="M69.16,175.3c0.29-0.32-1.86-3.41-1.86-3.41h31.21c0.49-1.1,0.76-2.07,0.76-2.89c0-0.01,0-0.02,0-0.03
		c-3.51-0.01-6.92-0.01-10.12-0.02c-0.04,0.1-0.09,0.2-0.13,0.3c-0.2,0.49-0.41,0.89-0.65,1.23c-0.29,0.42-0.72,0.65-1.22,0.65
		c-0.81,0-1.36-0.36-1.6-1.05c-0.13-0.37-0.19-0.75-0.22-1.13c-10.48-0.02-17.99-0.03-18.07-0.03c-0.29,0,2.15-3.51,1.91-3.74
		c-0.23-0.23-13.98,5.02-13.98,5.42C55.18,171,68.87,175.62,69.16,175.3z"/>
	<path class="st1" d="M133.32,169.9c0.16-0.23,0.34-0.53,0.54-0.86c-0.51,0-1.03,0-1.56,0C132.7,169.49,133.09,169.79,133.32,169.9z
		"/>
	<path class="st1" d="M137.43,171.89h13.74l5.27,4.23h4.84l-1.04-2.07l2.85,2.07c0,0,7.91,0,8.49,0c0.43,0-4.04-4.78-4.04-4.78
		c0.35,0,0.39-0.48,0.39-1.27s-0.63-0.69-0.63-0.69l3.87-4.53h-5l-3.15,2.08l0.82-2.08h-5l-3.2,2.44l1.34-2.44h-0.81l-4.99,4.22
		c0,0-3.37-0.01-8.76-0.02C140.63,170.81,138.11,171.53,137.43,171.89z"/>
	<path class="st2" d="M127.78,171.89c0.93,1.17,1.8,1.72,1.62,1.84c-0.62,0.41-3.86,4.05-3.79,4.9c-0.05-2.38-0.48-4.64-1.27-6.74
		h-7.78c0.57,0.94,1.03,1.99,1.37,3.14c0.5,1.65,0.73,3.44,0.68,5.31c-0.04,1.91-0.36,3.76-0.94,5.5c-0.58,1.7-1.4,3.3-2.43,4.74
		c-1.08,1.41-3.85,6.48-11.67,6.48c-6.74-0.78-6.58,3.33,0.9,3.47c2.79,0.05,5.48-0.6,8.01-1.77c2.51-1.17,4.76-2.76,6.66-4.7
		c1.95-1.91,3.53-4.16,4.71-6.68c0.17-0.38,0.32-0.75,0.46-1.14c0.1,0.41,1.75,8.54,9.9,8.54c11.52,0,11.19-9.15,11.19-11.31
		c0-2.16-1.11-8.42-8.15-11.47c0.02-0.04,0.09-0.08,0.18-0.13c0.68-0.36,3.21-1.08,4.99-2.84c1.04-1.03,1.83-2.41,1.83-4.3
		c0-3.62-3.28-7.52-8.53-7.52c-9.12,0-10,7.98-10,8.69c0,1.19,0.2,2.21,0.49,3.09C126.62,170.24,127.21,171.18,127.78,171.89z
		 M141.42,165.33c-0.14,1.08-0.52,2.71-3.65,3.44c0.76-1.68,1.79-4.81,0.29-4.81c-1.27,0-3.05,3.18-4.2,5.08
		c-0.2,0.33-0.39,0.63-0.54,0.86c-0.23-0.1-0.62-0.4-1.02-0.86c-0.88-1.02-1.76-2.84-0.73-5.05c0.28-0.59,1.9-2.85,4.89-2.85
		c1.69,0,2.96,0.37,3.8,1.11C141.03,162.86,141.56,164.25,141.42,165.33z M140.18,183.68c0,3.03-2.46,6.36-5.49,6.36
		s-5.49-3.32-5.49-6.36c0-3.03,2.46-6.92,5.49-6.92S140.18,180.64,140.18,183.68z"/>
	<path class="st2" d="M85.54,170.07c0.24,0.69,0.79,1.05,1.6,1.05c0.5,0,0.93-0.22,1.22-0.65c0.24-0.34,0.45-0.75,0.65-1.23
		c0.04-0.1,0.09-0.2,0.13-0.3c0.19-0.43,0.37-0.87,0.58-1.32c0.28-0.54,0.62-1.03,1.01-1.47c0.37-0.45,0.86-0.82,1.48-1.12
		c0.64-0.32,1.45-0.48,2.42-0.48c0.53,0,1.08,0.13,1.66,0.39c0.58,0.26,1.08,0.61,1.51,1.05c0.44,0.39,0.8,0.87,1.08,1.43
		c0.26,0.5,0.39,1.02,0.4,1.55c0,0.01,0,0.02,0,0.03c0,0.82-0.26,1.79-0.76,2.89c-0.07,0.15-0.13,0.3-0.2,0.45
		c-0.62,1.28-1.43,2.68-2.42,4.14c-0.96,1.48-2.04,3.02-3.2,4.59c-1.18,1.59-2.35,3.14-3.49,4.66c-1.11,1.48-2.15,2.93-3.12,4.3
		c-0.93,1.39-1.65,2.62-2.13,3.65c-0.02,0.05-0.03,0.1-0.03,0.15c0,0.63,0.39,0.89,0.59,0.96c0.3,0.17,0.63,0.27,0.99,0.31
		c0.36,0.04,18.72,0.26,19.03,0.26c0.59,0,1.19-0.03,1.79-0.1c0.85-0.14,1.7-0.33,2.56-0.56c0.83-0.28,1.58-0.67,2.22-1.16
		c0.98-0.7,1.88-1.65,2.66-2.82c0.75-1.1,1.2-2.23,1.31-3.36l0.02-0.23c0.06-0.57,0.03-1.23-0.1-1.96c-0.09-0.74-0.3-1.47-0.63-2.14
		c-0.3-0.66-0.7-1.23-1.21-1.71c-0.56-0.5-2.46-1.5-3.96-0.22c-1.62,1.76,0.33,3.42,0.81,3.97c0.37,0.36,3.53,5.02-6.73,5.02
		c-3.77,0-10.5-0.23-10.75-0.18c0.5-0.85,1.07-1.72,1.71-2.6c0.89-1.13,1.81-2.29,2.76-3.49c0.98-1.18,1.98-2.42,2.94-3.66
		c0.96-1.2,1.87-2.44,2.69-3.69c0.78-1.28,1.44-2.56,1.97-3.82c0.1-0.26,0.19-0.52,0.27-0.79c0.3-0.97,0.48-1.94,0.52-2.91
		c0-0.04,0.01-0.09,0.01-0.13c0.02-0.88-0.06-1.69-0.22-2.45c0.11,0.01,0.22,0.04,0.33,0.05c0.44,0.04,0.93,0.07,1.46,0.07
		c1.92,0,3.62,0.37,5.04,1.1c0.77,0.38,1.47,0.85,2.1,1.38c0,0,0.01,0.01,0.01,0.01l8.85,0.01c0,0,0,0,0-0.01
		c-1.09-1.79-2.54-3.39-4.32-4.79c-1.32-1.01-4.35-2.41-7.86-3.57c0.02-0.3,0.79-5.47,0.79-5.47c2.43,0,5.5,0.04,7.21,0.04
		c1.66,0,2,1.76,2.83,2.09c0.2,0.08,0.44,0.01,0.56-0.17c0.17-0.26,2.36-5.42,2.44-5.76c0.24-0.98-0.15-2.38-1.43-1.75
		c-6.34,3.1-14.68,0.78-15.54,1.06c-0.83,0.26-1.38,0.84-1.58,1.65c-0.22,0.74-1.83,10.09-2.02,11.33
		c-0.44-0.68-0.96-1.28-1.56-1.79c-0.92-0.77-2.03-1.37-3.3-1.77c-1.26-0.4-2.66-0.6-4.18-0.6c-1.3,0-2.55,0.22-3.7,0.66
		c-1.15,0.44-2.2,1.07-3.12,1.87c-0.89,0.77-1.59,1.71-2.08,2.76c-0.54,1.07-0.81,2.26-0.81,3.53c-0.01,0.2,0.01,0.4,0.02,0.6
		C85.35,169.32,85.41,169.7,85.54,170.07z"/>
	<path class="st1" d="M114.12,169.01c0,0-0.01-0.01-0.01-0.01c-2.9-0.01-5.82-0.01-8.73-0.02c-0.04,0.97-0.22,1.94-0.52,2.91h3.45v0
		h8.24h7.78h0.82l0,0h2.62c-0.57-0.71-1.16-1.66-1.56-2.87c-1.07,0-2.15,0-3.25-0.01c0,0,0,0,0,0.01L114.12,169.01z"/>
</g>
</svg>
