<?xml version="1.0" encoding="utf-8"?>
<!-- Generator: Adobe Illustrator 27.2.0, SVG Export Plug-In . SVG Version: 6.00 Build 0)  -->
<svg version="1.1" id="Layer_1" xmlns="http://www.w3.org/2000/svg" xmlns:xlink="http://www.w3.org/1999/xlink" x="0px" y="0px"
	 viewBox="0 0 400.51 79.51" style="enable-background:new 0 0 400.51 79.51;" xml:space="preserve">
<style type="text/css">
	.st0{fill:#CE0E2D;}
</style>
<g>
	<g>
		<path d="M38.34,66.76c3.65,0,6.39,2.76,6.39,6.29c0,3.63-2.74,6.46-6.39,6.46c-3.65,0-6.39-2.83-6.39-6.46
			C31.95,69.52,34.7,66.76,38.34,66.76z M38.34,77.51c2.22,0,4.05-1.93,4.05-4.46c0-2.43-1.82-4.29-4.05-4.29
			c-2.22,0-4.05,1.86-4.05,4.29C34.3,75.58,36.12,77.51,38.34,77.51z"/>
		<path d="M53.87,77.6h1.48v-8.91h-1.48v-1.72h5.44c0.9,0,1.65,0.05,2.34,0.26c1.37,0.45,2.27,1.56,2.27,3.3
			c0,1.72-0.9,2.93-2.33,3.42v0.03c0,0,0.36,0.19,0.61,0.64l1.42,2.57c0.17,0.31,0.42,0.4,0.83,0.4h0.4v1.7h-1.44
			c-1.02,0-1.34-0.21-1.72-0.92l-1.75-3.18c-0.26-0.47-0.49-0.62-1.2-0.62h-1.13v3.02h1.42v1.7h-5.17V77.6z M59.67,72.75
			c1.2,0,1.98-0.71,1.98-2.03c0-0.8-0.3-1.42-0.97-1.7c-0.35-0.16-0.82-0.23-1.39-0.23h-1.67v3.96H59.67z"/>
		<path d="M73.87,77.6h1.48v-8.91h-1.48v-1.72h5.33c0.99,0,1.77,0.05,2.57,0.3c2.4,0.71,3.99,2.83,3.99,5.87
			c0,2.92-1.48,5.02-3.82,5.8c-0.83,0.3-1.7,0.36-2.73,0.36h-5.35V77.6z M79.11,77.48c0.78,0,1.41-0.07,2.01-0.31
			c1.41-0.57,2.29-2.01,2.29-4.03c0-2.08-0.94-3.51-2.38-4.06c-0.62-0.24-1.2-0.28-1.93-0.28h-1.49v8.68H79.11z"/>
		<path d="M94.99,77.6h1.48v-8.91h-1.48v-1.72h9.15v3.18h-1.94v-1.35h-3.46v3.39h4.06V74h-4.06v3.47h3.72v-1.39h1.94v3.21h-9.41
			V77.6z"/>
		<path d="M113.74,77.6h1.48v-8.91h-1.48v-1.72h5.44c0.9,0,1.65,0.05,2.34,0.26c1.37,0.45,2.27,1.56,2.27,3.3
			c0,1.72-0.9,2.93-2.33,3.42v0.03c0,0,0.36,0.19,0.61,0.64l1.42,2.57c0.17,0.31,0.42,0.4,0.83,0.4h0.4v1.7h-1.44
			c-1.02,0-1.34-0.21-1.72-0.92l-1.75-3.18c-0.26-0.47-0.49-0.62-1.2-0.62h-1.13v3.02h1.42v1.7h-5.17V77.6z M119.54,72.75
			c1.2,0,1.98-0.71,1.98-2.03c0-0.8-0.3-1.42-0.97-1.7c-0.35-0.16-0.82-0.23-1.39-0.23h-1.67v3.96H119.54z"/>
		<path d="M152.06,66.76c3.65,0,6.39,2.76,6.39,6.29c0,3.63-2.74,6.46-6.39,6.46c-3.65,0-6.39-2.83-6.39-6.46
			C145.67,69.52,148.42,66.76,152.06,66.76z M152.06,77.51c2.22,0,4.05-1.93,4.05-4.46c0-2.43-1.82-4.29-4.05-4.29
			c-2.22,0-4.05,1.86-4.05,4.29C148.02,75.58,149.84,77.51,152.06,77.51z"/>
		<path d="M167.59,77.6h1.48v-8.91h-1.48v-1.72h8.8v3.2h-1.94V68.9h-3.11v3.54h4.01v1.82h-4.01v3.33h1.63v1.7h-5.38V77.6z"/>
		<path d="M199.8,77.6h1.48v-8.8h-2.33v1.86h-1.93v-3.68h10.8v3.68h-1.93v-1.86h-2.34v8.8h1.49v1.7h-5.24V77.6z"/>
		<path d="M216.8,77.6h1.48v-8.91h-1.48v-1.72h5.24v1.72h-1.49v3.56h5.61v-3.56h-1.49v-1.72h5.24v1.72h-1.48v8.91h1.48v1.7h-5.24
			v-1.7h1.49v-3.52h-5.61v3.52h1.49v1.7h-5.24V77.6z"/>
		<path d="M239.28,77.6h1.48v-8.91h-1.48v-1.72h9.15v3.18h-1.94v-1.35h-3.46v3.39h4.06V74h-4.06v3.47h3.72v-1.39h1.94v3.21h-9.41
			V77.6z"/>
		<path d="M269.36,77.6h1.13l3.7-10.63h2.59l3.7,10.63h1.13v1.7h-4.64v-1.7h1.22l-0.76-2.31h-3.89l-0.76,2.31h1.22v1.7h-4.62V77.6z
			 M276.89,73.52l-1.16-3.49c-0.19-0.61-0.23-1.08-0.23-1.08h-0.05c0,0-0.05,0.47-0.23,1.08l-1.18,3.49H276.89z"/>
		<path d="M290.32,77.6h1.48v-8.91h-1.48v-1.72h5.44c0.9,0,1.65,0.05,2.34,0.26c1.37,0.45,2.27,1.56,2.27,3.3
			c0,1.72-0.9,2.93-2.33,3.42v0.03c0,0,0.36,0.19,0.61,0.64l1.42,2.57c0.17,0.31,0.42,0.4,0.83,0.4h0.4v1.7h-1.44
			c-1.02,0-1.34-0.21-1.72-0.92l-1.75-3.18c-0.26-0.47-0.49-0.62-1.2-0.62h-1.13v3.02h1.42v1.7h-5.17V77.6z M296.12,72.75
			c1.2,0,1.98-0.71,1.98-2.03c0-0.8-0.3-1.42-0.97-1.7c-0.35-0.16-0.82-0.23-1.39-0.23h-1.67v3.96H296.12z"/>
		<path d="M310.32,77.6h1.48v-8.91h-1.48v-1.72h5.44c0.9,0,1.65,0.05,2.34,0.26c1.37,0.45,2.27,1.56,2.27,3.3
			c0,1.72-0.9,2.93-2.33,3.42v0.03c0,0,0.36,0.19,0.61,0.64l1.42,2.57c0.17,0.31,0.42,0.4,0.83,0.4h0.4v1.7h-1.44
			c-1.02,0-1.34-0.21-1.72-0.92l-1.75-3.18c-0.26-0.47-0.49-0.62-1.2-0.62h-1.13v3.02h1.42v1.7h-5.17V77.6z M316.12,72.75
			c1.2,0,1.98-0.71,1.98-2.03c0-0.8-0.3-1.42-0.97-1.7c-0.35-0.16-0.82-0.23-1.39-0.23h-1.67v3.96H316.12z"/>
		<path d="M336.54,66.76c3.65,0,6.39,2.76,6.39,6.29c0,3.63-2.74,6.46-6.39,6.46c-3.65,0-6.39-2.83-6.39-6.46
			C330.15,69.52,332.9,66.76,336.54,66.76z M336.54,77.51c2.22,0,4.05-1.93,4.05-4.46c0-2.43-1.82-4.29-4.05-4.29
			c-2.22,0-4.05,1.86-4.05,4.29C332.5,75.58,334.32,77.51,336.54,77.51z"/>
		<path d="M351.39,66.97h4.81v1.72h-1.44l1.6,7.03c0.1,0.5,0.14,1.08,0.14,1.08h0.07c0,0,0.05-0.57,0.19-1.08l2.31-8.75h1.82
			l2.31,8.75c0.14,0.5,0.19,1.08,0.19,1.08h0.07c0,0,0.03-0.57,0.14-1.08l1.6-7.03h-1.44v-1.72h4.81v1.72h-1.13l-2.62,10.61h-2.55
			l-2.07-7.78c-0.14-0.5-0.19-1.13-0.19-1.13h-0.05c0,0-0.05,0.62-0.19,1.13l-2.07,7.78h-2.55l-2.62-10.61h-1.13V66.97z"/>
	</g>
	<path d="M12.9,1.17c1.07,0,2.11,0.14,3.14,0.43c1.02,0.24,2.08,0.55,3.14,0.36C20.7,1.68,21,0.54,22.18,1s2.22,5.82,2.64,6.96
		c0.18,0.49,0.06,0.88-0.84,0.5c-0.9-0.38-3.28-1.33-4.81-1.86c-1.58-0.57-3.3-0.86-5.16-0.86c-1.44,0-2.63,0.43-3.55,1.29
		c-0.98,0.91-1.53,2.1-1.53,3.57c0,4.65,10.26,11.07,11.25,11.91c2.69,2.26,11.03,8.48,5.47,19.9C21.9,50.13,13.78,51.1,11.79,51
		c-2.53-0.13-5.71-1.14-6.55-1.14s-1.79,2.04-2.3,0.57c-0.51-1.47-1.97-5.57-2.89-8.48c-0.38-1.03,1.54,0.59,2.19,0.97
		c0.65,0.38,1.39,0.83,2.23,1.36c0.84,0.43,1.76,0.83,2.79,1.21c1.02,0.38,2.23,0.57,3.62,0.57c2.79,0,5.02-0.79,6.69-2.36
		c1.63-1.57,2.58-3.83,2.58-6.79c0-10.97-18.19-14.36-18.19-26.09c0-1.53,0.37-2.88,0.98-4.07c0.6-1.19,1.42-2.22,2.44-3.07
		C6.44,2.86,7.6,2.24,8.86,1.81C10.16,1.38,11.51,1.17,12.9,1.17z"/>
	<path d="M93.46,40.82c-0.4,0.33-0.93,0.51-1.39,0.84c-0.51,0.23-1.02,0.47-1.53,0.7c-0.51,0.23-1.11,0.35-1.81,0.35
		c-1.09,0-8.46-0.08-11.68-0.08c-0.81,0-1.5-0.41-1.67-1.27c-0.03-0.24-0.05-0.48-0.05-0.72c0-0.02,0-0.04,0-0.06
		c0-0.98,0-10.18,0-18.67c0-0.37,0.53-0.67,0.86-0.76c0.42-0.14,4.97-0.08,6.13-0.08c2.79,0,4.35,1.8,4.67,2.03
		c0.32,0.23,0.63,0.35,0.91,0.35c0.46,0,0.91-0.35,1.32-1.05c0.46-0.7,0.84-1.51,1.11-2.44c0.28-0.93,0.51-1.84,0.7-2.72
		c0.19-0.88,0.28-1.53,0.28-1.95c0.04-0.67-1.74,1.05-10.6,1.05c-2.09,0-3.43,0-4.5,0c-0.56,0-0.74-0.34-0.89-0.62
		c0-3.14,0-5.77,0-7.23c0-1.09,0.77-1.83,3.72-1.83c3.8,0,5.67-0.08,6.69,0.1c1.02,0.23,4.34,1.16,4.95,1.39
		c0.6,0.19,0.95,0.28,1.05,0.28c0.37,0,0.65-0.14,0.84-0.42c0.19-0.32,0.28-0.65,0.28-0.98c0-0.28-2.61-6.25-3.83-6.62
		c-1.13-0.34-1.2,0.77-3.83,0.77c-2.16,0-5.93,0-7.65,0h-11.5c-0.61,0-0.98,0.69-0.62,1.19c1.1,1.55,2.83,4.3,2.83,6.16
		c0,2.74,0,29.32,0,32.61c0,2.1-1.53,4.36-2.62,5.71c-0.4,0.49-0.05,1.23,0.59,1.23c0,0,18.15,0,19.04,0c5.76,0,7.17,3.11,7.6,2.02
		c0.14-0.28,2.8-7.93,2.86-8.15C95.91,40.98,95.69,38.94,93.46,40.82z"/>
	<path d="M61.38,2.4c0.41-0.49,0.05-1.23-0.59-1.23h-11.5c-0.61,0-0.98,0.69-0.62,1.19c1.1,1.55,2.83,4.3,2.83,6.16
		c0,0.69,0,4.3,0,7.29c-3.99-0.34-7.98-0.34-11.97,0c0-2.88,0-6.47,0-7.34c0-2.28,1.64-4.67,2.8-6.08c0.41-0.49,0.05-1.23-0.59-1.23
		h-11.5c-0.61,0-0.98,0.69-0.62,1.19c1.1,1.55,2.83,4.3,2.83,6.16c0,2.74,0,29.32,0,32.61c0,2.1-1.53,4.36-2.62,5.71
		c-0.4,0.49-0.05,1.23,0.59,1.23h11.01c0.62,0,0.98-0.7,0.61-1.2c-1.03-1.4-2.51-3.83-2.51-6.26c0-2.04,0-10.44,0-18.19
		c4-0.29,7.99-0.29,11.97,0c0,8.06,0,16.91,0,18.71c0,2.1-1.53,4.36-2.62,5.71c-0.4,0.49-0.05,1.23,0.59,1.23h11.01
		c0.62,0,0.98-0.7,0.61-1.2c-1.03-1.4-2.51-3.83-2.51-6.26c0-3.73,0-28.63,0-32.14C58.58,6.2,60.22,3.8,61.38,2.4z"/>
	<path d="M232.61,21.5c-0.24-2.15-0.63-4.24-1.19-6.26c-0.61-2.06-1.38-4.01-2.32-5.83c-0.94-1.83-2.09-3.42-3.44-4.78
		c-1.41-1.41-3.05-2.53-4.92-3.37c-1.83-0.8-3.94-1.2-6.33-1.2c-1.83,0-3.63,0.19-5.41,0.56c-1.78,0.33-2.15,0.44-4.98,0.54h-1.43
		c-0.61,0-0.98,0.69-0.62,1.19c1.1,1.55,2.83,4.3,2.83,6.16v32.61c0,2.1-1.53,4.36-2.62,5.71c-0.4,0.49-0.05,1.23,0.59,1.23h11.01
		c0.62,0,0.98-0.7,0.61-1.2c-1.03-1.4-2.51-3.83-2.51-6.26V8.47c0-1.11,0.19-1.79,0.43-2.15c1.53-1.86,4.16-0.71,5.47-0.01
		c1.31,0.7,2.44,1.66,3.37,2.88c0.98,1.22,1.78,2.58,2.39,4.08c0.61,1.55,1.08,3.14,1.41,4.78c0.42,1.64,0.68,3.28,0.77,4.92
		c0.14,1.59,0.21,3.07,0.21,4.43c-0.05,2.67-0.38,5.46-0.98,8.36c-0.61,2.86-1.59,5.51-2.95,7.94c-1.31,2.34-3.07,4.29-5.27,5.83
		c-2.2,1.55-4.94,2.32-8.22,2.32c-1.12,0-2.25-0.12-3.37-0.35c-1.12-0.28-2.13-0.7-3.02-1.27c-0.89-0.61-1.59-1.36-2.11-2.25
		c-0.56-0.89-0.84-1.97-0.84-3.23c0-0.84,0.33-1.52,0.98-2.04c0.61-0.56,2.58-2.05,1.34-3.72c-0.66-0.93-2.33-1.5-4.01-0.28
		c-0.61,0.47-1.12,1.05-1.55,1.76c-0.47,0.75-0.8,1.55-0.98,2.39c-0.24,0.84-0.35,1.59-0.35,2.25v0.28c0,1.31,0.37,2.65,1.12,4.01
		c0.8,1.5,1.73,2.72,2.81,3.65c0.7,0.66,1.52,1.2,2.46,1.62c0.98,0.38,1.99,0.7,3.02,0.98c1.08,0.23,2.15,0.38,3.23,0.42
		c1.08,0.09,2.08,0.14,3.02,0.14c3.98,0,7.4-0.87,10.26-2.6c2.81-1.69,5.13-3.89,6.96-6.61c1.83-2.76,3.19-5.83,4.08-9.21
		c0.84-3.37,1.29-6.77,1.34-10.19v-0.98C232.89,24.99,232.8,23.28,232.61,21.5z"/>
	<path d="M331.64,2.4c0.41-0.49,0.05-1.23-0.59-1.23h-11.5c-0.61,0-0.98,0.69-0.62,1.19c1.1,1.55,2.83,4.3,2.83,6.16
		c0,0.69,0,2.93,0,5.92c-3.99-0.34-7.98-0.34-11.97,0c0-2.88,0-5.1,0-5.97c0-2.28,1.64-4.67,2.8-6.08c0.41-0.49,0.05-1.23-0.59-1.23
		h-11.5c-0.61,0-0.98,0.69-0.62,1.19c1.1,1.55,2.83,4.3,2.83,6.16c0,2.74,0,29.32,0,32.61c0,2.1-1.53,4.36-2.62,5.71
		c-0.4,0.49-0.05,1.23,0.59,1.23h11.01c0.62,0,0.98-0.7,0.61-1.2c-1.03-1.4-2.51-3.83-2.51-6.26c0-2.04,0-10.44,0-18.19
		c4-0.29,7.99-0.29,11.97,0c0,8.06,0,16.91,0,18.71c0,2.1-1.53,4.36-2.62,5.71c-0.4,0.49-0.05,1.23,0.59,1.23h11.01
		c0.62,0,0.98-0.7,0.61-1.2c-1.03-1.4-2.51-3.83-2.51-6.26c0-3.73,0-28.63,0-32.14C328.84,6.2,330.49,3.8,331.64,2.4z"/>
	<path d="M130.63,2.4c0.41-0.49,0.05-1.23-0.59-1.23h-11.5c-0.61,0-0.98,0.69-0.62,1.19c1.1,1.55,2.83,4.3,2.83,6.16
		c0,1.27,0,7.65,0,14.47c-1.38-2.05-9.29-9.44-10.73-11.83c-1.18-1.96-1.44-3.89-1.46-4.07c0.46-1.82,1.68-3.57,2.6-4.69
		c0.41-0.49,0.05-1.23-0.59-1.23h-11.5c-0.61,0-0.98,0.69-0.62,1.19c1.1,1.55,2.83,4.3,2.83,6.16c0,2.74,0,29.32,0,32.61
		c0,2.1-1.53,4.36-2.62,5.71c-0.4,0.49-0.05,1.23,0.59,1.23h11.01c0.62,0,0.98-0.7,0.61-1.2c-1.03-1.4-2.51-3.83-2.51-6.26
		c0-2.25,0-12.26,0-20.59c1.94,2.65,6.89,7.69,9.29,10.64c1.97,2.42,2.78,5.17,3.1,6.62c0,1.86,0,3.24,0,3.84
		c0,2.1-1.53,4.36-2.62,5.71c-0.4,0.49-0.05,1.23,0.59,1.23h11.01c0.62,0,0.98-0.7,0.61-1.2c-1.03-1.4-2.51-3.83-2.51-6.26
		c0-3.73,0-28.63,0-32.14C127.83,6.2,129.47,3.8,130.63,2.4z"/>
	<path d="M165.04,2.33c0.41-0.49,0.05-1.23-0.59-1.23h-11.5c-0.02,0-0.03,0.01-0.05,0.01c-3.69-0.01-8.21-0.01-8.89-0.01
		c-2.52,0-4.33-1.09-5.32-1.09c-0.42,0-0.79,0.26-1.12,0.77c-0.37,0.51-1.81,5.17-1.88,5.44c-0.16,0.6,0.15,1.27,0.63,1.39
		c0.48,0.13,0.81-0.14,1.32-0.42c1.56-0.86,3.28-1.46,4.11-1.74c0.75-0.21,2.43-0.52,4.63-0.16c-0.94,1.5-2.55,4.53-5.19,10.69
		c-4.9,11.44-6.15,22.47-6.61,24.78c-0.01,0.03,0.01,0.05,0.01,0.07c0,0-0.01,0-0.01,0c0,0-0.34,2.83-2.62,6.02
		c-0.37,0.52-0.05,1.23,0.59,1.23h11.01c0.62,0,0.98-0.7,0.61-1.2c-1.03-1.4-2.51-3.83-2.51-6.26v-0.22c0,0-0.01,0-0.01,0
		c0-0.02,0.02-0.05,0.01-0.07c-0.15-1.7,1.59-10.91,2.02-11.97c0.43-1.06,2.12-1.53,5.04-0.38c2.91,1.15,6.43,1.04,6.43,1.04
		c0,5.73,0,10.74,0,12.05c0,2.1-1.53,4.36-2.62,5.71c-0.4,0.49-0.05,1.23,0.59,1.23h11.01c0.62,0,0.98-0.7,0.61-1.2
		c-1.03-1.4-2.51-3.83-2.51-6.26c0-3.73,0-28.63,0-32.14C162.24,6.13,163.89,3.73,165.04,2.33z M149.34,21.97
		c-1.55-0.46-3.74-1.13-3.74-1.13s5.12-14.73,7.92-14.78c1.2-0.02,1.53,1.18,1.58,1.39c0.04,0.32,0.07,0.64,0.07,1c0,1.2,0,7,0,13.4
		C154.69,23.37,150.89,22.43,149.34,21.97z"/>
	<path d="M267.34,8.4c0,3.51,0,28.41,0,32.14c0,2.43-1.48,4.86-2.51,6.26c-0.37,0.5,0,1.2,0.61,1.2h11.01
		c0.64,0,0.99-0.73,0.59-1.23c-1.1-1.35-2.62-3.61-2.62-5.71c0-1.31,0-6.32,0-12.05c0,0,3.52,0.11,6.43-1.04
		c2.91-1.15,4.6-0.68,5.04,0.38c0.44,1.06,2.17,10.28,2.02,11.97c0,0.03,0.01,0.05,0.01,0.07c0,0-0.01,0-0.01,0v0.22
		c0,2.43-1.48,4.86-2.51,6.26c-0.37,0.5,0,1.2,0.61,1.2h11.01c0.64,0,0.96-0.71,0.59-1.23c-2.29-3.19-2.62-6.02-2.62-6.02
		c0,0-0.01,0-0.01,0c0-0.02,0.02-0.05,0.01-0.07c-0.46-2.31-1.71-13.34-6.61-24.78c-2.64-6.16-4.26-9.19-5.19-10.69
		c2.2-0.36,5.75,0.35,6.49,0.56c0.84,0.28,2.55,0.88,4.11,1.74c0.51,0.28,0.84,0.55,1.32,0.42c0.48-0.13,0.79-0.79,0.63-1.39
		c-0.07-0.27-1.51-4.92-1.88-5.44c-0.32-0.51-0.7-0.77-1.12-0.77c-0.99,0-4.67,0.7-7.18,0.7c-0.68,0-5.2,0.01-8.89,0.01
		c-0.02,0-0.03-0.01-0.05-0.01h-11.5c-0.64,0-0.99,0.74-0.59,1.23C265.7,3.73,267.34,6.13,267.34,8.4z M274.43,21.85
		c0-6.41,0-12.2,0-13.4c0-0.35,0.03-0.68,0.07-1c0.05-0.21,0.38-1.41,1.58-1.39c2.8,0.05,7.92,14.78,7.92,14.78
		s-2.19,0.68-3.74,1.13C278.7,22.43,274.9,23.37,274.43,21.85z"/>
	<path d="M250,49.03c-8.36,0-15.14-8.47-15.14-24.49S241.64,0.06,250,0.06c8.36,0,15.14,8.73,15.14,24.49S258.36,49.03,250,49.03z
		 M257.74,24.55c0-12.36-3.47-19.2-7.74-19.2c-4.27,0-7.74,6.64-7.74,19.2s3.47,19.2,7.74,19.2
		C254.27,43.75,257.74,36.91,257.74,24.55z"/>
	<path d="M193.32,45.4v-0.28c0-0.77,0.13-1.64,0.4-2.59c0.2-0.91,0.59-1.85,1.13-2.72c0.36-0.61,0.82-1.13,1.33-1.6V8.47
		c0-2.28,1.64-4.67,2.8-6.08c0.41-0.49,0.05-1.23-0.59-1.23h-11.5c-0.61,0-0.98,0.69-0.62,1.19c1.1,1.55,2.83,4.3,2.83,6.16v14.47
		c-1.38-2.05-9.29-9.44-10.73-11.83c-1.18-1.96-1.44-3.89-1.46-4.07c0.46-1.82,1.68-3.57,2.6-4.69c0.41-0.49,0.05-1.23-0.59-1.23
		h-11.5c-0.61,0-0.98,0.69-0.62,1.19c1.1,1.55,2.83,4.3,2.83,6.16v32.61c0,2.1-1.53,4.36-2.62,5.71c-0.4,0.49-0.05,1.23,0.59,1.23
		h11.01c0.62,0,0.98-0.7,0.61-1.2c-1.03-1.4-2.51-3.83-2.51-6.26V20.02c1.94,2.65,6.89,7.69,9.29,10.64
		c1.97,2.42,2.78,5.17,3.1,6.62v3.84c0,2.1-1.53,4.36-2.62,5.71c-0.4,0.49-0.05,1.23,0.59,1.23h6.71
		C193.48,47.18,193.32,46.28,193.32,45.4z"/>
	<path class="st0" d="M400.46,70.67c-1.02,0-14.87,0-14.87,0l-4.99-3.61l1.83,3.61h-8.48l-7.07-7.4H21.23c0,0,3.77,5.4,3.26,5.96
		C23.98,69.79,0,61.71,0,61s24.08-9.87,24.49-9.48c0.41,0.39-3.86,6.54-3.35,6.54s345.21,0.28,345.21,0.28l7.11-7.38h1.43
		l-2.34,4.27h1.43l4.18-4.27h8.76l-1.43,3.63l5.52-3.63h8.75l-6.77,7.92c0,0,1.1-0.17,1.1,1.21c0,1.38-0.08,2.22-0.69,2.22
		C393.38,62.31,401.22,70.67,400.46,70.67z"/>
	<g>
		<path d="M12.9,1.17c1.07,0,2.11,0.14,3.14,0.43c1.02,0.24,2.08,0.55,3.14,0.36C20.7,1.68,21,0.54,22.18,1s2.22,5.82,2.64,6.96
			c0.18,0.49,0.06,0.88-0.84,0.5c-0.9-0.38-3.28-1.33-4.81-1.86c-1.58-0.57-3.3-0.86-5.16-0.86c-1.44,0-2.63,0.43-3.55,1.29
			c-0.98,0.91-1.53,2.1-1.53,3.57c0,4.65,10.26,11.07,11.25,11.91c2.69,2.26,11.03,8.48,5.47,19.9C21.9,50.13,13.78,51.1,11.79,51
			c-2.53-0.13-5.71-1.14-6.55-1.14s-1.79,2.04-2.3,0.57c-0.51-1.47-1.97-5.57-2.89-8.48c-0.38-1.03,1.54,0.59,2.19,0.97
			c0.65,0.38,1.39,0.83,2.23,1.36c0.84,0.43,1.76,0.83,2.79,1.21c1.02,0.38,2.23,0.57,3.62,0.57c2.79,0,5.02-0.79,6.69-2.36
			c1.63-1.57,2.58-3.83,2.58-6.79c0-10.97-18.19-14.36-18.19-26.09c0-1.53,0.37-2.88,0.98-4.07c0.6-1.19,1.42-2.22,2.44-3.07
			C6.44,2.86,7.6,2.24,8.86,1.81C10.16,1.38,11.51,1.17,12.9,1.17z"/>
		<path d="M93.46,40.82c-0.4,0.33-0.93,0.51-1.39,0.84c-0.51,0.23-1.02,0.47-1.53,0.7c-0.51,0.23-1.11,0.35-1.81,0.35
			c-1.09,0-8.46-0.08-11.68-0.08c-0.81,0-1.5-0.41-1.67-1.27c-0.03-0.24-0.05-0.48-0.05-0.72c0-0.02,0-0.04,0-0.06
			c0-0.98,0-10.18,0-18.67c0-0.37,0.53-0.67,0.86-0.76c0.42-0.14,4.97-0.08,6.13-0.08c2.79,0,4.35,1.8,4.67,2.03
			c0.32,0.23,0.63,0.35,0.91,0.35c0.46,0,0.91-0.35,1.32-1.05c0.46-0.7,0.84-1.51,1.11-2.44c0.28-0.93,0.51-1.84,0.7-2.72
			c0.19-0.88,0.28-1.53,0.28-1.95c0.04-0.67-1.74,1.05-10.6,1.05c-2.09,0-3.43,0-4.5,0c-0.56,0-0.74-0.34-0.89-0.62
			c0-3.14,0-5.77,0-7.23c0-1.09,0.77-1.83,3.72-1.83c3.8,0,5.67-0.08,6.69,0.1c1.02,0.23,4.34,1.16,4.95,1.39
			c0.6,0.19,0.95,0.28,1.05,0.28c0.37,0,0.65-0.14,0.84-0.42c0.19-0.32,0.28-0.65,0.28-0.98c0-0.28-2.61-6.25-3.83-6.62
			c-1.13-0.34-1.2,0.77-3.83,0.77c-2.16,0-5.93,0-7.65,0h-11.5c-0.61,0-0.98,0.69-0.62,1.19c1.1,1.55,2.83,4.3,2.83,6.16
			c0,2.74,0,29.32,0,32.61c0,2.1-1.53,4.36-2.62,5.71c-0.4,0.49-0.05,1.23,0.59,1.23c0,0,18.15,0,19.04,0c5.76,0,7.17,3.11,7.6,2.02
			c0.14-0.28,2.8-7.93,2.86-8.15C95.91,40.98,95.69,38.94,93.46,40.82z"/>
		<path d="M61.38,2.4c0.41-0.49,0.05-1.23-0.59-1.23h-11.5c-0.61,0-0.98,0.69-0.62,1.19c1.1,1.55,2.83,4.3,2.83,6.16
			c0,0.69,0,4.3,0,7.29c-3.99-0.34-7.98-0.34-11.97,0c0-2.88,0-6.47,0-7.34c0-2.28,1.64-4.67,2.8-6.08
			c0.41-0.49,0.05-1.23-0.59-1.23h-11.5c-0.61,0-0.98,0.69-0.62,1.19c1.1,1.55,2.83,4.3,2.83,6.16c0,2.74,0,29.32,0,32.61
			c0,2.1-1.53,4.36-2.62,5.71c-0.4,0.49-0.05,1.23,0.59,1.23h11.01c0.62,0,0.98-0.7,0.61-1.2c-1.03-1.4-2.51-3.83-2.51-6.26
			c0-2.04,0-10.44,0-18.19c4-0.29,7.99-0.29,11.97,0c0,8.06,0,16.91,0,18.71c0,2.1-1.53,4.36-2.62,5.71
			c-0.4,0.49-0.05,1.23,0.59,1.23h11.01c0.62,0,0.98-0.7,0.61-1.2c-1.03-1.4-2.51-3.83-2.51-6.26c0-3.73,0-28.63,0-32.14
			C58.58,6.2,60.22,3.8,61.38,2.4z"/>
		<path d="M232.61,21.5c-0.24-2.15-0.63-4.24-1.19-6.26c-0.61-2.06-1.38-4.01-2.32-5.83c-0.94-1.83-2.09-3.42-3.44-4.78
			c-1.41-1.41-3.05-2.53-4.92-3.37c-1.83-0.8-3.94-1.2-6.33-1.2c-1.83,0-3.63,0.19-5.41,0.56c-1.78,0.33-2.15,0.44-4.98,0.54h-1.43
			c-0.61,0-0.98,0.69-0.62,1.19c1.1,1.55,2.83,4.3,2.83,6.16v32.61c0,2.1-1.53,4.36-2.62,5.71c-0.4,0.49-0.05,1.23,0.59,1.23h11.01
			c0.62,0,0.98-0.7,0.61-1.2c-1.03-1.4-2.51-3.83-2.51-6.26V8.47c0-1.11,0.19-1.79,0.43-2.15c1.53-1.86,4.16-0.71,5.47-0.01
			c1.31,0.7,2.44,1.66,3.37,2.88c0.98,1.22,1.78,2.58,2.39,4.08c0.61,1.55,1.08,3.14,1.41,4.78c0.42,1.64,0.68,3.28,0.77,4.92
			c0.14,1.59,0.21,3.07,0.21,4.43c-0.05,2.67-0.38,5.46-0.98,8.36c-0.61,2.86-1.59,5.51-2.95,7.94c-1.31,2.34-3.07,4.29-5.27,5.83
			c-2.2,1.55-4.94,2.32-8.22,2.32c-1.12,0-2.25-0.12-3.37-0.35c-1.12-0.28-2.13-0.7-3.02-1.27c-0.89-0.61-1.59-1.36-2.11-2.25
			c-0.56-0.89-0.84-1.97-0.84-3.23c0-0.84,0.33-1.52,0.98-2.04c0.61-0.56,2.58-2.05,1.34-3.72c-0.66-0.93-2.33-1.5-4.01-0.28
			c-0.61,0.47-1.12,1.05-1.55,1.76c-0.47,0.75-0.8,1.55-0.98,2.39c-0.24,0.84-0.35,1.59-0.35,2.25v0.28c0,1.31,0.37,2.65,1.12,4.01
			c0.8,1.5,1.73,2.72,2.81,3.65c0.7,0.66,1.52,1.2,2.46,1.62c0.98,0.38,1.99,0.7,3.02,0.98c1.08,0.23,2.15,0.38,3.23,0.42
			c1.08,0.09,2.08,0.14,3.02,0.14c3.98,0,7.4-0.87,10.26-2.6c2.81-1.69,5.13-3.89,6.96-6.61c1.83-2.76,3.19-5.83,4.08-9.21
			c0.84-3.37,1.29-6.77,1.34-10.19v-0.98C232.89,24.99,232.8,23.28,232.61,21.5z"/>
		<path d="M331.64,2.4c0.41-0.49,0.05-1.23-0.59-1.23h-11.5c-0.61,0-0.98,0.69-0.62,1.19c1.1,1.55,2.83,4.3,2.83,6.16
			c0,0.69,0,2.93,0,5.92c-3.99-0.34-7.98-0.34-11.97,0c0-2.88,0-5.1,0-5.97c0-2.28,1.64-4.67,2.8-6.08
			c0.41-0.49,0.05-1.23-0.59-1.23h-11.5c-0.61,0-0.98,0.69-0.62,1.19c1.1,1.55,2.83,4.3,2.83,6.16c0,2.74,0,29.32,0,32.61
			c0,2.1-1.53,4.36-2.62,5.71c-0.4,0.49-0.05,1.23,0.59,1.23h11.01c0.62,0,0.98-0.7,0.61-1.2c-1.03-1.4-2.51-3.83-2.51-6.26
			c0-2.04,0-10.44,0-18.19c4-0.29,7.99-0.29,11.97,0c0,8.06,0,16.91,0,18.71c0,2.1-1.53,4.36-2.62,5.71
			c-0.4,0.49-0.05,1.23,0.59,1.23h11.01c0.62,0,0.98-0.7,0.61-1.2c-1.03-1.4-2.51-3.83-2.51-6.26c0-3.73,0-28.63,0-32.14
			C328.84,6.2,330.49,3.8,331.64,2.4z"/>
		<path d="M130.63,2.4c0.41-0.49,0.05-1.23-0.59-1.23h-11.5c-0.61,0-0.98,0.69-0.62,1.19c1.1,1.55,2.83,4.3,2.83,6.16
			c0,1.27,0,7.65,0,14.47c-1.38-2.05-9.29-9.44-10.73-11.83c-1.18-1.96-1.44-3.89-1.46-4.07c0.46-1.82,1.68-3.57,2.6-4.69
			c0.41-0.49,0.05-1.23-0.59-1.23h-11.5c-0.61,0-0.98,0.69-0.62,1.19c1.1,1.55,2.83,4.3,2.83,6.16c0,2.74,0,29.32,0,32.61
			c0,2.1-1.53,4.36-2.62,5.71c-0.4,0.49-0.05,1.23,0.59,1.23h11.01c0.62,0,0.98-0.7,0.61-1.2c-1.03-1.4-2.51-3.83-2.51-6.26
			c0-2.25,0-12.26,0-20.59c1.94,2.65,6.89,7.69,9.29,10.64c1.97,2.42,2.78,5.17,3.1,6.62c0,1.86,0,3.24,0,3.84
			c0,2.1-1.53,4.36-2.62,5.71c-0.4,0.49-0.05,1.23,0.59,1.23h11.01c0.62,0,0.98-0.7,0.61-1.2c-1.03-1.4-2.51-3.83-2.51-6.26
			c0-3.73,0-28.63,0-32.14C127.83,6.2,129.47,3.8,130.63,2.4z"/>
		<path d="M165.04,2.33c0.41-0.49,0.05-1.23-0.59-1.23h-11.5c-0.02,0-0.03,0.01-0.05,0.01c-3.69-0.01-8.21-0.01-8.89-0.01
			c-2.52,0-4.33-1.09-5.32-1.09c-0.42,0-0.79,0.26-1.12,0.77c-0.37,0.51-1.81,5.17-1.88,5.44c-0.16,0.6,0.15,1.27,0.63,1.39
			c0.48,0.13,0.81-0.14,1.32-0.42c1.56-0.86,3.28-1.46,4.11-1.74c0.75-0.21,2.43-0.52,4.63-0.16c-0.94,1.5-2.55,4.53-5.19,10.69
			c-4.9,11.44-6.15,22.47-6.61,24.78c-0.01,0.03,0.01,0.05,0.01,0.07c0,0-0.01,0-0.01,0c0,0-0.34,2.83-2.62,6.02
			c-0.37,0.52-0.05,1.23,0.59,1.23h11.01c0.62,0,0.98-0.7,0.61-1.2c-1.03-1.4-2.51-3.83-2.51-6.26v-0.22c0,0-0.01,0-0.01,0
			c0-0.02,0.02-0.05,0.01-0.07c-0.15-1.7,1.59-10.91,2.02-11.97c0.43-1.06,2.12-1.53,5.04-0.38c2.91,1.15,6.43,1.04,6.43,1.04
			c0,5.73,0,10.74,0,12.05c0,2.1-1.53,4.36-2.62,5.71c-0.4,0.49-0.05,1.23,0.59,1.23h11.01c0.62,0,0.98-0.7,0.61-1.2
			c-1.03-1.4-2.51-3.83-2.51-6.26c0-3.73,0-28.63,0-32.14C162.24,6.13,163.89,3.73,165.04,2.33z M149.34,21.97
			c-1.55-0.46-3.74-1.13-3.74-1.13s5.12-14.73,7.92-14.78c1.2-0.02,1.53,1.18,1.58,1.39c0.04,0.32,0.07,0.64,0.07,1
			c0,1.2,0,7,0,13.4C154.69,23.37,150.89,22.43,149.34,21.97z"/>
		<path d="M267.34,8.4c0,3.51,0,28.41,0,32.14c0,2.43-1.48,4.86-2.51,6.26c-0.37,0.5,0,1.2,0.61,1.2h11.01
			c0.64,0,0.99-0.73,0.59-1.23c-1.1-1.35-2.62-3.61-2.62-5.71c0-1.31,0-6.32,0-12.05c0,0,3.52,0.11,6.43-1.04
			c2.91-1.15,4.6-0.68,5.04,0.38c0.44,1.06,2.17,10.28,2.02,11.97c0,0.03,0.01,0.05,0.01,0.07c0,0-0.01,0-0.01,0v0.22
			c0,2.43-1.48,4.86-2.51,6.26c-0.37,0.5,0,1.2,0.61,1.2h11.01c0.64,0,0.96-0.71,0.59-1.23c-2.29-3.19-2.62-6.02-2.62-6.02
			c0,0-0.01,0-0.01,0c0-0.02,0.02-0.05,0.01-0.07c-0.46-2.31-1.71-13.34-6.61-24.78c-2.64-6.16-4.26-9.19-5.19-10.69
			c2.2-0.36,5.75,0.35,6.49,0.56c0.84,0.28,2.55,0.88,4.11,1.74c0.51,0.28,0.84,0.55,1.32,0.42c0.48-0.13,0.79-0.79,0.63-1.39
			c-0.07-0.27-1.51-4.92-1.88-5.44c-0.32-0.51-0.7-0.77-1.12-0.77c-0.99,0-4.67,0.7-7.18,0.7c-0.68,0-5.2,0.01-8.89,0.01
			c-0.02,0-0.03-0.01-0.05-0.01h-11.5c-0.64,0-0.99,0.74-0.59,1.23C265.7,3.73,267.34,6.13,267.34,8.4z M274.43,21.85
			c0-6.41,0-12.2,0-13.4c0-0.35,0.03-0.68,0.07-1c0.05-0.21,0.38-1.41,1.58-1.39c2.8,0.05,7.92,14.78,7.92,14.78
			s-2.19,0.68-3.74,1.13C278.7,22.43,274.9,23.37,274.43,21.85z"/>
		<path d="M250,49.03c-8.36,0-15.14-8.47-15.14-24.49S241.64,0.06,250,0.06c8.36,0,15.14,8.73,15.14,24.49S258.36,49.03,250,49.03z
			 M257.74,24.55c0-12.36-3.47-19.2-7.74-19.2c-4.27,0-7.74,6.64-7.74,19.2s3.47,19.2,7.74,19.2
			C254.27,43.75,257.74,36.91,257.74,24.55z"/>
		<path d="M193.32,45.4v-0.28c0-0.77,0.13-1.64,0.4-2.59c0.2-0.91,0.59-1.85,1.13-2.72c0.36-0.61,0.82-1.13,1.33-1.6V8.47
			c0-2.28,1.64-4.67,2.8-6.08c0.41-0.49,0.05-1.23-0.59-1.23h-11.5c-0.61,0-0.98,0.69-0.62,1.19c1.1,1.55,2.83,4.3,2.83,6.16v14.47
			c-1.38-2.05-9.29-9.44-10.73-11.83c-1.18-1.96-1.44-3.89-1.46-4.07c0.46-1.82,1.68-3.57,2.6-4.69c0.41-0.49,0.05-1.23-0.59-1.23
			h-11.5c-0.61,0-0.98,0.69-0.62,1.19c1.1,1.55,2.83,4.3,2.83,6.16v32.61c0,2.1-1.53,4.36-2.62,5.71c-0.4,0.49-0.05,1.23,0.59,1.23
			h11.01c0.62,0,0.98-0.7,0.61-1.2c-1.03-1.4-2.51-3.83-2.51-6.26V20.02c1.94,2.65,6.89,7.69,9.29,10.64
			c1.97,2.42,2.78,5.17,3.1,6.62v3.84c0,2.1-1.53,4.36-2.62,5.71c-0.4,0.49-0.05,1.23,0.59,1.23h6.71
			C193.48,47.18,193.32,46.28,193.32,45.4z"/>
		<path d="M391.86,23.88c0.22-0.51,7.44-1.82,7.44-7.72c0-3.85-3.48-7.98-9.06-7.98c-9.69,0-10.62,8.48-10.62,9.23
			c0,5.84,4.29,8.02,3.9,8.29c-0.65,0.44-4.1,4.31-4.03,5.2c-0.06-2.91-0.63-5.66-1.73-8.17c-1.21-2.74-3.11-5.14-5.66-7.13
			c-1.4-1.07-4.62-2.56-8.35-3.8c0.03-0.32,0.84-5.81,0.84-5.81c2.59,0,5.84,0.04,7.66,0.04c1.76,0,2.12,1.87,3.01,2.22
			c0.22,0.09,0.47,0.01,0.6-0.18c0.18-0.28,2.51-5.76,2.6-6.12c0.26-1.04-0.02-2.06-1.51-1.86c-1,0.14-1.79,0.96-4.7,0.96
			c-2.42,0-10.9-0.14-11.8,0.16c-0.88,0.28-1.47,0.89-1.68,1.76c-0.23,0.79-1.94,10.71-2.15,12.04c-0.47-0.72-1.02-1.36-1.66-1.9
			c-0.98-0.82-2.16-1.45-3.5-1.88c-1.33-0.42-2.83-0.64-4.43-0.64c-1.38,0-2.71,0.24-3.93,0.7c-1.22,0.47-2.33,1.14-3.31,1.99
			c-0.94,0.82-1.69,1.81-2.21,2.93c-0.57,1.14-0.87,2.4-0.86,3.74c-0.04,0.61,0.04,1.23,0.26,1.84c0.25,0.73,0.84,1.12,1.7,1.12
			c0.54,0,0.98-0.24,1.3-0.69c0.25-0.36,0.48-0.79,0.69-1.31c0.23-0.56,0.49-1.14,0.75-1.71c0.3-0.57,0.65-1.09,1.07-1.56
			c0.39-0.47,0.92-0.87,1.57-1.19c0.68-0.34,1.54-0.51,2.57-0.51c0.56,0,1.15,0.14,1.76,0.41c0.61,0.28,1.14,0.64,1.6,1.11
			c0.47,0.41,0.85,0.92,1.15,1.52c0.28,0.54,0.43,1.11,0.43,1.68c0,0.99-0.34,2.18-1.02,3.55c-0.66,1.36-1.52,2.84-2.57,4.4
			c-1.02,1.57-2.16,3.21-3.4,4.87c-1.26,1.69-2.49,3.34-3.71,4.95c-1.18,1.57-2.29,3.11-3.31,4.57c-0.99,1.48-1.75,2.78-2.27,3.88
			c-0.02,0.05-0.04,0.11-0.04,0.16c0,0.67,0.42,0.94,0.62,1.02c0.32,0.18,0.67,0.29,1.05,0.33c0.38,0.04,19.88,0.28,20.21,0.28
			c0.63,0,1.26-0.04,1.9-0.11c0.91-0.15,1.81-0.35,2.71-0.59c0.88-0.29,1.68-0.71,2.36-1.23c1.04-0.74,1.99-1.75,2.82-3
			c0.8-1.16,1.27-2.36,1.39-3.57l0.02-0.24c0.06-0.61,0.03-1.31-0.1-2.08c-0.09-0.79-0.32-1.56-0.67-2.28
			c-0.32-0.7-0.75-1.3-1.28-1.81c-0.6-0.53-2.61-1.59-4.21-0.23c-1.72,1.87,0.36,3.63,0.86,4.22c0.39,0.38,3.75,5.33-7.15,5.33
			c-4,0-11.15-0.24-11.42-0.19c0.53-0.9,1.14-1.83,1.82-2.76c0.94-1.2,1.92-2.44,2.94-3.7c1.05-1.26,2.1-2.57,3.13-3.89
			c1.02-1.28,1.98-2.6,2.86-3.92c0.83-1.36,1.53-2.72,2.09-4.06c0.52-1.35,0.81-2.71,0.85-4.07c0.02-0.93-0.06-1.8-0.23-2.6
			c0.12,0.02,0.23,0.04,0.35,0.05c0.47,0.05,0.99,0.07,1.55,0.07c2.04,0,3.84,0.39,5.35,1.17c1.56,0.78,2.87,1.86,3.92,3.2
			c1.04,1.31,1.84,2.88,2.36,4.67c0.53,1.76,0.77,3.65,0.73,5.64c-0.04,2.03-0.38,4-0.99,5.85c-0.62,1.81-1.49,3.51-2.58,5.04
			c-1.14,1.5-4.09,6.89-12.39,6.89c-7.16-0.83-6.99,3.53,0.95,3.69c2.96,0.06,5.82-0.63,8.51-1.88c2.67-1.25,5.05-2.93,7.07-5
			c2.07-2.03,3.75-4.41,5-7.1c0.18-0.4,0.34-0.8,0.49-1.21c0.11,0.43,1.86,9.08,10.52,9.08c12.23,0,11.88-9.72,11.88-12.01
			C400.51,33.77,399.33,27.12,391.86,23.88z M385.84,15.33c0.29-0.62,2.02-3.02,5.19-3.02c1.79,0,3.15,0.39,4.04,1.18
			c0.81,0.65,1.38,2.14,1.22,3.28s-0.55,2.88-3.88,3.66c0.81-1.79,1.9-5.11,0.31-5.11c-1.58,0-3.92,4.68-5.04,6.3
			C386.91,21.26,384.24,18.73,385.84,15.33z M389.14,43c-3.22,0-5.83-3.53-5.83-6.75c0-3.22,2.61-7.35,5.83-7.35
			c3.22,0,5.83,4.13,5.83,7.35C394.97,39.47,392.36,43,389.14,43z"/>
	</g>
</g>
</svg>
