<?xml version="1.0" encoding="utf-8"?>
<!-- Generator: Adobe Illustrator 27.2.0, SVG Export Plug-In . SVG Version: 6.00 Build 0)  -->
<svg version="1.1" id="Layer_1" xmlns="http://www.w3.org/2000/svg" xmlns:xlink="http://www.w3.org/1999/xlink" x="0px" y="0px"
	 viewBox="0 0 253.97 130.48" style="enable-background:new 0 0 253.97 130.48;" xml:space="preserve">
<style type="text/css">
	.st0{fill:#CE0E2D;}
	.st1{fill:#BC955C;}
	.st2{fill:#6F7271;}
	.st3{fill:#FFFFFF;}
</style>
<g>
	<path class="st0" d="M253.91,130.48c-1.17,0-17.11,0-17.11,0l-5.74-4.15l2.1,4.15h-9.76l-9.88-8.51H24.43c0,0,4.33,6.22,3.75,6.86
		C27.6,129.47,0,120.17,0,119.35c0-0.82,27.71-11.36,28.18-10.9c0.47,0.45-4.44,7.52-3.85,7.52s188.59,0.32,188.59,0.32l9.92-8.49
		h1.64l-2.7,4.91h1.64l4.81-4.91h10.08l-1.65,4.18l6.35-4.18h10.07l-7.79,9.12c0,0,1.26-0.19,1.26,1.39c0,1.58-0.09,2.55-0.79,2.55
		C245.76,120.86,254.78,130.48,253.91,130.48z"/>
	<g>
		<path d="M246.64,52.78c-1.26-3.29-7.8-9.06-9.93-12.9c-2.13-3.84-3.43-6.48-6.92-9.66c-2.24-2.04-6-4.16-9.53-6.04
			c0.04-0.58-0.01-1.16-0.06-1.47c-0.08-0.49-0.28,1.29-0.36,1.02c-0.08-0.26,0.04-1.2,0.06-1.7c0.02-0.5-0.12-2.06-0.27-2.4
			s-0.04,0.93-0.15,0.64c-0.12-0.29-0.16-1.42-0.2-1.76c-0.05-0.34-0.12-0.91-0.25-0.97s0.14,1.14-0.03,0.67
			c-0.17-0.47-0.5-1.76-0.67-2.13s0.06,0.76-0.08,0.59c-0.14-0.17-0.27-0.99-0.38-1.15c-0.11-0.16-0.11,0.42-0.13,0.4
			c-0.05-0.21-0.06-0.73-0.16-0.88c-0.1-0.15-0.1,0.51-0.2,0.48c-0.1-0.03-0.03-0.4-0.09-0.5c-0.06-0.1-0.13,0.29-0.21,0.18
			c-0.08-0.11,0.09-0.69,0.1-0.81c0.01-0.13-0.31,0.58-0.37,0.55s0.01-0.34,0-0.41c-0.02-0.08-0.26,0.21-0.32,0.21
			c-0.06,0,0.19-0.35,0.1-0.37c-0.08-0.02-0.39,0.36-0.49,0.35c-0.1-0.01,0.12-0.39,0.13-0.43c-0.36,0.12-0.8,0.71-1.01,0.89
			c-0.21,0.18,0.08-0.26,0-0.29c-0.08-0.03-0.64,0.47-0.78,0.68s-0.38,1.04-0.53,1.22s0.06-0.59-0.12-0.46
			c-0.17,0.12-0.28,0.73-0.28,1.06c0,0.32-0.36-0.49-0.39-0.44c-0.22,0.37-0.37,0.72-0.47,1.07c-0.02,0-0.03-0.01-0.04-0.05
			c-0.1-0.3,0.41-1.51,0.26-1.81c-0.15-0.3-0.16,0.78-0.32,0.45c-0.16-0.33,0.1-1.75,0.1-2.2c0.01-0.45-0.17-1.54-0.43-1.64
			s0,1.7-0.29,1.4c-0.28-0.29-0.5-2.5-0.7-3.02s-0.68-1.87-0.96-1.92s0.36,1.51,0.06,1.32c-0.3-0.19-0.82-1.33-1.06-1.56
			c-0.24-0.22-0.82-0.9-0.95-0.83c-0.13,0.07,0.07,0.64-0.09,0.59c-0.16-0.05-0.29-0.68-0.48-0.65s0,0.66-0.22,0.66
			c-0.23,0-0.78-0.78-0.98-0.74s0.03,0.7-0.11,0.73c-0.14,0.03-0.39-0.5-0.5-0.39c-0.1,0.11,0.37,0.78,0.19,0.82
			c-0.17,0.04-0.36-0.52-0.52-0.51c-0.16,0.01-0.03,0.41-0.12,0.38c-0.1-0.03-0.12-0.34-0.25-0.28c-0.13,0.06-0.12,0.35-0.23,0.38
			c-0.11,0.02,0-0.41-0.16-0.25c-0.16,0.16-0.41,1.02-0.58,1.12c-0.17,0.1,0.1-0.4-0.04-0.33c-0.15,0.06-0.16,0.32-0.3,0.38
			c-0.14,0.06,0.16-0.28-0.11-0.18c-0.26,0.1-0.96,0.9-1.08,1.23s-0.3,0.98-0.49,1.1c-0.19,0.11,0.23-0.6-0.01-0.43
			c-0.24,0.17-0.51,1.12-0.61,1.38c-0.1,0.26-0.01-0.49-0.22-0.27c-0.14,0.15-0.27,0.63-0.35,1.05c-2.84-1.55-1.77-1.5-3.73-3.23
			c-0.01,0.61-0.23,1.05-0.08,1.64c-1.44-0.31-2.4-0.57-3.67-1.6c-1.27-1.03-2.93-2.67-4.39-3.57c0.01,0.4,1.11,1.73-0.32,1.43
			c-1.43-0.3-3.49-1.03-4.8-2.34c-1.3-1.31-2.92-2.86-4.49-3.85c0.02,0.47,0.67,1.08-0.59,0.84c-1.25-0.24-2.65-0.99-4.44-1.26
			s-4.46-0.74-6.56-1.17c-2.1-0.43-4.88-0.51-7-0.24c0.04,0.39,1.81,0.91-0.26,0.95c-2.07,0.03-4.88,0.21-7.68,0.8
			c-2.8,0.59-4.06,0.73-8.18,0.74c-4.12,0.01-12.51-0.34-17.6-0.73c-5.1-0.39-14.51-0.36-18.4-1.04c-3.89-0.68-2.28-0.68-5.06-1.3
			c0.22,0.21,2.11,1.14,0.99,1.48c-1.12,0.33-3.95-0.29-5.27-0.35c-1.32-0.06-2.25,0.06-3.4,0.41c0.09,0.05,2.09,0.34,0.88,0.67
			c-1.22,0.33-3.99,0.49-5.18,1.02c-1.19,0.53-1.69,1.55-2.77,1.67c-1.08,0.12-2.02,0.52-2.93,0.97c-0.16,0.11,1.63-0.17,0.65,0.45
			c-0.97,0.62-4.27,0.47-5.71,0.68c-1.44,0.22-2.8,0.72-4.08,1.31c0.43,0.17,1.99,0.42,0.57,0.96c-1.42,0.55-3.66,1.29-5.14,2.01
			c-1.48,0.71-2.76,1.49-4.07,2.36c0.09,0.12,2.61-0.2,1.05,0.52c-1.57,0.73-4.42,2.65-6.15,3.33c-1.73,0.68-2.78,1.32-4.19,2.26
			c0.31,0.02,1.73-0.21,1.11,0.62c-0.62,0.83-2.45,1.4-3.29,2.06c-0.84,0.66-1.3,1.42-1.92,2.21c0.26-0.12,2.4-1.01,1.38,0.07
			c-1.02,1.08-2.81,1.9-3.71,3.33c-0.9,1.42-1.66,3.98-2.47,5.15s-1.26,1.04-2.27,1.39c0.7,0.51,1.75,0.6,1.46,1.96
			c-0.3,1.36-1.78,3.39-2.63,4.64c1.42-0.38,1.54,0.44,1.23,2.01c-0.31,1.57-1.17,5.76-2.16,6.79c-0.98,1.03-0.95,0.61-1.83,1.11
			c0.6-0.02,1.7-0.35,1.96,0.46c0.26,0.81,0.09,1.84-0.48,2.6c-0.57,0.77-1.48,1.59-2.18,2.26c-0.69,0.67-1.08,1.56-1.48,2.33
			c0.51,0.34,1.34-2.19,1.99-0.44c0.64,1.76,0.73,5.02-0.49,7.6c-1.22,2.58-2.83,6.3-3.49,9.55c-0.65,3.25-1.59,9.11-2.45,11.76
			c-0.86,2.65-1.82,2.45-3.51,3.14c0.47,0.91,1.18,2.24,1.23,3.31c0.05,1.07-0.87,1.54-1.56,2.01c0.25,0.81,0.74,0.99,0.51,2.08
			c-0.23,1.09-0.45,3.32,0.02,4.5c0.48,1.18,0.26,2.43,0.14,3.36c-0.12,0.94-0.11,1.91-0.98,1.54c0.26,1.07,0.37,1.55,1.26,2.47
			c0.89,0.92,1.5,2.92,2.54,3.92c1.05,1,2.26,1.29,3.58,1.83c1.32,0.54,2.73,0.53,4.1,0.53c1.32,0,2.85,0,3.88,0
			c1.05,0,1.09-1.12,1.85-1.33c0.76-0.22,0.93,0.09,1.48,0.38c0.23-0.52,0.19-1.01-0.14-1.49c0.61-0.07,1.23-0.1,1.8,0.19
			c-0.66-1.25-1.58-1.82-2.84-2.51c-1.25-0.69-3.98-1.29-5.19-1.23c-0.66,0.03-0.69-0.09-1.39-0.7c-0.69-0.61-0.92-1.97-0.68-2.6
			c0.24-0.63,0.69,0.03,0.87,0.28c0.67-0.81,0.9-1.49,0.89-2.67c-0.02-1.18-0.15-2.85-0.2-4.12c0.6,0.94,1.15,1.96,1.38,3.08
			c0.48-1.07,0.78-2.16,0.73-3.35c-0.05-1.19,1.78-1.9,2.55-1.4s0.56,1.41,0.9,2.08c0.12-0.97,0.14-2.21,0.73-3.03
			c0.59-0.81,1.55-1.08,1.92-2.1s1.35-2.14,2.24-2.32s0.89,0.23,1.1,0.8c0.56-0.67,1.11-1.15,1.26-2.15c0.15-1,0.38-2.3,1.29-3.11
			s2.11-2.54,2.46-3.68c0.35-1.14,0.21,1.82,0.18,2.03c0.85-0.92,1.67-1.91,2.25-3.08c0.58-1.17,0.9-3.04,1.27-4.12
			c0.37-1.08,0.56-1.07,1.43-1.62c0.87-0.55,2.03-1.67,2.81-2.51c-0.5,1.02-0.71,2.16-0.72,3.28c0.49-0.29,1.56-1.59,2.18-1.06
			c0.62,0.54-1.23,3.08-1.37,3.83c0.79-0.42,1.87-0.96,2.6-0.11c0.73,0.85,0.77,2.44,0.43,3.35c-0.34,0.91-0.67,1.24-1.06,1.97
			c0.55-0.41,1.81-1.51,2.37-0.59c0.56,0.91-0.3,2.5-0.68,3.4c1.01-0.37,2.46-0.82,3.23,0.21c0.77,1.03,1.09,2.18,0.76,3.39
			c-0.32,1.21-0.59,2.29-0.73,3.49c0.5-0.28,1.12-1.1,1.73-0.34c0.6,0.76,0.81,2.36,0.45,3.37c-0.36,1.01,1.18,3.92,1.36,5.03
			c0.19,1.11,0.75,3.11,0.46,4.36c-0.29,1.25,0.48,2.51,1.24,3.19c0.76,0.68-0.52,0.56-0.87,0.64c0.94,0.57,0.69,0.63,2.07,0.91
			c1.38,0.28,1.98,2.03,4.03,2.03c2.12,0,5.47,0,8.1,0c2.69,0,8.39,0.06,10.81-0.07c2.42-0.14,2.38-1.1,3.33-2.46
			c0.49,0.13,1.07,0.38,1.32,0.95c-0.08-0.84-0.08-1.66-0.77-2.29c-0.68-0.63-1.22-1.2-2.28-1.44c-1.06-0.25-2.79-0.14-3.95-0.11
			c-1.17,0.03-2.27-0.01-3.4-0.17c-2.53-0.38-2.65-2.61-3.58-3.23c0.37-0.09,0.72-0.15,1.09,0.01c-0.41-0.88-0.66-1.14-1.29-2.02
			c-0.63-0.88-0.96-3.51-1.09-4.81c-0.12-1.31-0.25-2.54-0.53-4.1c-0.28-1.56-0.04-5.27,0.32-6.62c0.36-1.35,0.48,0.7,0.56,0.62
			c0.36-0.94,0.48-1.46,0.55-2.66c0.07-1.2,0.3-3.31-0.12-4.61c0.32,0.08,0.57,0.28,0.74,0.58c0.15-1.52,0.4-3.13,0.11-4.65
			c-0.29-1.52-0.65-3.63-0.31-4.99c0.34-1.36,0.63-1.89,0.57-3.14c-0.06-1.25-0.63-2.44-1.01-3.61c0.54,0.02,1.3,0.43,1.59,0.76
			c0.29,0.33,1.02-1.19,1.5-1.34c0.49-0.15,1.76-0.1,2.04,0.5c0.27,0.6-0.14,0.91-0.36,1.36c0.9-0.05,1.75-0.34,2.52-0.86
			c0.77-0.52,1.67-0.65,2.36-0.2c0.69,0.45,0.27,0.92,0.2,1.47c1.33-0.07,2.85-0.25,4.1-0.64c1.25-0.38,2.31-0.41,3.52-0.25
			c1.22,0.17,2.7,0.51,3.79,0.53c1.09,0.02,1.58-0.23,2.37-0.79c-0.56,0.9-1.15,1.75-1.94,2.43c1.84-1,3.91-2.02,5.27-3.69
			c-0.08,1.15-0.17,2.39-0.89,3.32c1.01-0.64,1.57-1.26,2.47-2.14c0.9-0.89,2.91-0.58,4.08,0.01c1.17,0.59,2.73,0.16,3.83-0.56
			c1.1-0.71,2.1-1.53,3.15-2.31c-0.25,0.64-0.53,1.29-0.89,1.87c0.73-0.54,1.68-1.28,2.28-1.89c0.6-0.61,1.08-1.2,1.82-1.3
			c0.73-0.1,1.48,0.48,1.45,1.15s-0.49,1.08-0.76,1.61c0.59-0.14,0.99-0.09,1.16,0.67c0.18,0.76-0.24,2.42-0.7,2.93
			c-0.46,0.5,0.75-0.26,1.04,0.32c0.29,0.58,0.25,2.58-0.32,3.07c-0.57,0.48-1.01,0.07-1.53-0.04c0.52,0.56,1.55,0.79,1.51,1.84
			c-0.04,1.05-1.87,2.27-2.7,2.86c1.03,0.41,2.63,0.75,3.22,1.79c0.59,1.05-0.8,1.84-1.44,2.32c1.03,0.6,3.1,1.65,3.06,3.03
			c-0.03,1.38-1.77,1.53-2.67,1.84c0.67,0.65,2.54,1.95,2.12,3.08s-2.4,0.73-3.27,0.72c1.07,0.83,2.75,1.27,3.18,2.89
			c0.43,1.62,0.28,4.08,1.28,5.51c1.01,1.43,1.42,1.95,1.94,3.63c0.52,1.68,1.77,5.74,2.59,7.2c0.82,1.46,0.75,2.4,1.56,3.66
			c0.81,1.26,2,2.61,3.51,2.61c1.53,0,3.7,0.03,5.2,0.03c1.52,0,3.45,0.03,4.62,0.04c1.17,0.01,1.4-0.06,2.26-0.18
			c0.86-0.11,1.61-0.35,2.17-1.03c0.44-0.15,0.89-0.19,1.28,0.1c0.16-0.63-0.02-1.16-0.38-1.67c0.46-0.19,0.91-0.33,1.39-0.08
			c-0.2-1.16-0.54-1.63-1.62-2.38c-1.08-0.76-3.83-1.39-5.01-1.56c-1.18-0.16-1.28,0.6-2.17,0.14c-0.89-0.47-1.14-1.69-1.97-2.7
			c-0.83-1.01-1.83-4.06-1.81-5.74c0.02-1.68-0.08-4.57,0.01-6.21c0.08-1.65-0.13-2.09,0.55-3.53c0.69-1.44,1.43-3.35,1.4-5.09
			c0.31,0.38,0.47,0.82,0.57,1.3c0.54-1.26,1.13-2.68,1.26-4.04c0.11-1.21,0.02-2.3-0.02-3.46c0.08-0.02,0.16-0.05,0.23-0.07
			c0.34,0.49,0.63,1.01,0.77,1.61c0.1-0.63,0.17-1.26,0.19-1.9c0.67-0.18,1.33-0.3,1.91-0.22c1.3,0.18-1.17,1.31-0.85,1.44
			c0.32,0.12,1.85-1.36,2.41-0.71s-1.26,2.21-1.74,2.64c0.78-0.51,1.84-1.29,2.74-1.37c0.9-0.09,0.65,0.46,0.94,1.03
			c0.68-0.14,1.48-0.35,2.15-0.19s0.67,0.45,1.42,0.66c0.75,0.21,1.84-0.68,2.7-0.55c0.86,0.14-0.45,2.69-0.91,3.02
			c0.92-0.5,2.51-1.04,3.39-1.15c0.89-0.11,1-0.07,1.74-0.23c-1.18,0.78-2.31,1.51-3.6,2.05c1.23-0.19,2.42-0.47,3.6-0.89
			c-0.89,0.76-1.8,1.51-2.77,2.13c0.63-0.04,3.15,0.13,2.84,0.44c0.53,0.41,1,0.52,1.68,0.62s0.5,1.42,0.79,1.79
			s2.86-0.02,2.43,0.43c-0.43,0.45-1.45,1.07-1.82,1.51c-0.09,0.1,0.58-0.3,0.61,0.06c0.03,0.36-0.67,0.72-0.65,0.89
			c0.02,0.21,0.44-0.04,0.41,0.46c-0.03,0.5-0.18,0.99-0.08,1.58s0.74,0.95,0.88,1.64c0.13,0.7-0.22,0.97,0.2,1.84
			c0.43,0.88,1,2.29,1.83,3.24c0.83,0.94,1.43,1.18,2.34,1.46c0.91,0.28,0.27,0.59,0.53,1.02c0.62-0.04,0.84-0.25,1.48-0.52
			c0.64-0.28,2.2,1.15,2.24,1.9c0.53-0.53,0.96-0.44,1.19-1.33c0.23-0.89,0.41-1.69,0-2.76c-0.41-1.07,0.29-1.65,0.01-3.1
			c-0.28-1.45-0.17-3.08,0.15-4.82c0.32-1.74-0.83-1.59,0.33-3.93c1.17-2.33,1.33-7.28,1.09-10.42c-0.24-3.15-2.39-6.29-3.89-8.16
			s-1.85-1.98-3.21-3.44c0.7,0.31,1.33,0.39,2.02,0.52c-1.5-0.87-3.13-1.59-4.5-2.67c-0.98-0.77-2.13-1.71-3.05-2.67
			c5.99-3.93,9.24-9.1,9.61-9.71c0.49-0.81,0.59-0.69,1.21-0.96c0.62-0.27,1.55,0.13,1.46,0.89c0.84-0.24,0.96-0.55,2.02-0.3
			c1.06,0.25,2.47,0.37,3.78-0.26c1.31-0.63,4.29,0.49,5.47,0.55c1.19,0.06,1.17-0.06,2.11-0.12c-0.27,0.49-0.48,1-0.93,1.33
			c0.87,0.06,1.55,0.17,2.45-0.11c0.9-0.27,2.74-0.19,3.42,0.43c0.69,0.62,0.49,1.1,0.68,1.81c0.3-0.34,0.92-1.02,1.39-0.83
			c0.47,0.19,0.37,0.88,0.39,1.27c0.52-0.39,1.28-1.17,1.98-0.92s0.64,1.36,0.68,1.97c0.44-0.29,0.83-0.7,1.38-0.83
			c1.06-0.24,1.35,0.74,1.26,1.69c1.43-0.82,2.07-1.57,3.98-1.63c1.91-0.06,5.58,0.6,7.47,1.11c1.89,0.51,4.08,0.92,5.48,1
			c1.39,0.08,3.33,0.11,3.5-1.11c0.83,0.08,2.03-0.02,2.75-0.44c0.72-0.42,0.82-1.01,1.15-1.58
			C244.28,54.68,247.9,56.07,246.64,52.78z M227.94,40.25c0.18,0.8,0.45,1.5,1.47,2.01c-0.37-0.08-0.63-0.13-0.95-0.41
			c-0.58-0.49-0.78-1.01-0.73-1.36C227.75,40.26,227.91,40.15,227.94,40.25z M229.64,39.24c0.39-0.06,0.65,0.46,0.34,0.53
			c0,0,0,0-0.01,0c0.05,0.04,0.09,0.08,0.11,0.14c0.11,0.37-0.27,0.55-0.56,0.64c-0.01,0.06-0.02,0.12-0.02,0.19
			c-0.01,0.47,0.59,0.58,0.98,0.55c0.38-0.03,0.05,0.57-0.36,0.66c-0.05,0.01-0.16,0.02-0.25,0.01c-0.77-0.08-1.2-0.73-1.24-1.45
			S229.07,39.32,229.64,39.24z M232.75,42.57c0.01,0.01-0.42-0.13-0.48-0.19c-0.06-0.06,0.09-0.29,0.12-0.32
			c0.02-0.03,0.06-0.03,0.09,0.03C232.52,42.15,232.7,42.48,232.75,42.57z M231.98,41.46c0.32-0.27,0.27,0.15,0.2,0.31
			c-0.05,0.24-0.45,0.54-0.68,0.56c-0.23,0.01-0.93,0.06-1.24-0.02c0,0,0-0.02,0.01-0.06C231.25,42.05,231.61,41.82,231.98,41.46z
			 M233.83,39.6c0.01,0.11,0.08,1.3-0.2,1.08c-0.28-0.23-0.25-1.59-0.48-2.07C233.11,38.53,233.82,39.49,233.83,39.6z M232.64,38.52
			c0.13,0.15,0.5,1.42,0.27,1.16S232,38,231.61,37.62C231.97,37.63,232.5,38.37,232.64,38.52z M242.26,56.73
			c-0.55,0.41-1.07,0.51-1.89,0.44c-0.82-0.06-2.07-0.21-2.99-0.43c-0.93-0.21-2.4-0.39-3.13-0.88c-0.73-0.5-0.8-0.88-1.19-1.53
			c0.08,0.24,0.08,0.68-0.14,0.78s-0.31-0.47-0.36-0.6c-0.05-0.14-0.27-0.7-0.45-0.57s-0.02,0.4-0.01,0.57
			c-0.21-0.24-0.31-0.37-0.47-0.69c-0.16-0.32-0.65-0.22-0.78,0.04c-0.08,0.16-0.03,0.47-0.02,0.71c0.16,0.18,0.32,0.34,0.48,0.39
			c0.32,0.11,0.4,0.1,0.69,0.13c0,0.39,0.03,0.79,0.32,1.07s0.64,0.03,0.96,0.27c0.26,0.19,0.49,0.59,0.97,0.76
			c0.47,0.18,1.69,0.69,2.13,0.74c0.44,0.06,0.47,0.06,0.7,0.1c0.23,0.04,1.23-0.14,1.14,0.17s-1.2,0.48-1.62,0.47
			s-1.05,0-1.48,0.02c-0.04-0.32-0.26-0.35-0.66-0.33c-0.39,0.02-1.31-0.08-1.68-0.41c-0.37-0.32-0.66-0.44-1.03-0.65
			c0.17-0.11,0.4-0.11,0.25-0.46s-0.86-0.75-1.24-1.01c-0.3-0.21-0.62-0.83-0.72-1.24c-0.2,0.02-0.41,0.02-0.57-0.17
			c-0.27-0.31-0.39-0.94-0.12-1.39c0.28-0.45,0.88-0.43,1.37-0.57c0.49-0.14,0.54-0.8,0.43-1.51c-0.11-0.71,0.68-1.63,1.56-1.77
			c0.89-0.14,0.37-1,0.84-1.45c0.47-0.45,1.12-1.32,1.16-1.75c0.15-1.34-0.53-1.65-1.5-1.94c0.53-0.91,1.67-1.39,2.56-1.45
			s0.77-0.74,0.86-1.38c2.29,2.73,4.64,5.47,6.88,8.25c-0.74,0.84-1.09,1.48-1.14,2.71c-0.05,1.23-0.73,1,0.29,2.5
			C242.9,55.06,242.8,56.33,242.26,56.73z M244.53,55.02c-0.58,0.34-1.39-0.27-1.56-0.57c-0.17-0.3-0.15-0.61-0.02-0.69
			c0.32-0.19,0.89,0.04,1.12-0.47c0.23-0.51-0.02-0.87-0.79-1.01c-0.77-0.14,0.13-2.18,0.6-2.47c0.69,0.85,2.16,2.19,2.32,3.25
			C246.35,54.12,245.11,54.68,244.53,55.02z"/>
		<path class="st1" d="M242.38,52.2c0.05-1.23,0.4-1.86,1.14-2.71c-2.24-2.78-4.59-5.52-6.88-8.25c-0.09,0.64,0.03,1.32-0.86,1.38
			s-2.03,0.55-2.56,1.45c0.97,0.29,1.65,0.59,1.5,1.94c-0.05,0.43-0.7,1.3-1.16,1.75c-0.47,0.45,0.05,1.31-0.84,1.45
			c-0.89,0.14-1.67,1.06-1.56,1.77c0.11,0.71,0.06,1.36-0.43,1.51c-0.49,0.14-1.1,0.13-1.37,0.57c-0.28,0.45-0.15,1.08,0.12,1.39
			c0.16,0.19,0.37,0.18,0.57,0.17c0.1,0.41,0.42,1.04,0.72,1.24c0.37,0.26,1.08,0.66,1.24,1.01s-0.08,0.35-0.25,0.46
			c0.38,0.21,0.66,0.33,1.03,0.65c0.37,0.32,1.29,0.43,1.68,0.41c0.39-0.02,0.62,0.01,0.66,0.33c0.43-0.02,1.06-0.03,1.48-0.02
			s1.52-0.15,1.62-0.47s-0.9-0.14-1.14-0.17c-0.23-0.04-0.27-0.04-0.7-0.1c-0.44-0.06-1.66-0.57-2.13-0.74
			c-0.47-0.18-0.71-0.57-0.97-0.76c-0.32-0.24-0.67,0.01-0.96-0.27S232,55.48,232,55.09c-0.28-0.03-0.37-0.02-0.69-0.13
			c-0.16-0.05-0.32-0.21-0.48-0.39c-0.01-0.24-0.06-0.55,0.02-0.71c0.13-0.26,0.62-0.36,0.78-0.04c0.16,0.32,0.26,0.46,0.47,0.69
			c-0.01-0.16-0.17-0.44,0.01-0.57s0.4,0.44,0.45,0.57c0.05,0.14,0.13,0.7,0.36,0.6s0.22-0.54,0.14-0.78
			c0.39,0.64,0.46,1.03,1.19,1.53c0.73,0.5,2.2,0.67,3.13,0.88c0.93,0.21,2.17,0.36,2.99,0.43c0.82,0.06,1.34-0.04,1.89-0.44
			c0.55-0.41,0.65-1.68,0.41-2.03C241.65,53.2,242.33,53.42,242.38,52.2z"/>
		<path class="st2" d="M243.27,52.27c0.77,0.14,1.01,0.5,0.79,1.01c-0.23,0.51-0.8,0.28-1.12,0.47c-0.13,0.08-0.15,0.39,0.02,0.69
			c0.17,0.3,0.98,0.91,1.56,0.57c0.58-0.34,1.83-0.9,1.66-1.97c-0.16-1.06-1.63-2.4-2.32-3.25C243.4,50.09,242.5,52.13,243.27,52.27
			z"/>
		<path class="st2" d="M229.88,41.95c0.09,0.01,0.2,0.01,0.25-0.01c0.41-0.09,0.74-0.68,0.36-0.66c-0.38,0.03-0.99-0.08-0.98-0.55
			c0-0.06,0.01-0.12,0.02-0.19c-0.01,0-0.01,0.01-0.02,0.01c-0.29,0.09-0.6-0.1-0.46-0.49c0.12-0.33,0.67-0.48,0.92-0.3
			c0,0,0,0,0.01,0c0.3-0.07,0.04-0.59-0.34-0.53c-0.57,0.08-1.03,0.55-1,1.27S229.1,41.87,229.88,41.95z"/>
		<path class="st3" d="M229.05,40.07c-0.14,0.39,0.17,0.58,0.46,0.49c0.01,0,0.01-0.01,0.02-0.01c0.29-0.09,0.67-0.27,0.56-0.64
			c-0.02-0.06-0.06-0.11-0.11-0.14C229.73,39.59,229.17,39.74,229.05,40.07z"/>
		<path class="st3" d="M229.41,42.26c-1.02-0.51-1.29-1.21-1.47-2.01c-0.02-0.1-0.18,0.01-0.21,0.25c-0.05,0.35,0.16,0.87,0.73,1.36
			C228.78,42.13,229.04,42.18,229.41,42.26z"/>
		<path class="st3" d="M230.28,42.24c-0.02,0.04-0.02,0.06-0.01,0.06c0.31,0.08,1.01,0.03,1.24,0.02c0.23-0.01,0.63-0.31,0.68-0.56
			c0.06-0.16,0.11-0.58-0.2-0.31C231.61,41.82,231.25,42.05,230.28,42.24z"/>
		<path class="st3" d="M232.39,42.06c-0.02,0.03-0.17,0.26-0.12,0.32c0.06,0.06,0.48,0.2,0.48,0.19c-0.05-0.09-0.23-0.41-0.27-0.47
			C232.45,42.04,232.42,42.04,232.39,42.06z"/>
		<path class="st1" d="M232.91,39.68c0.23,0.26-0.14-1.01-0.27-1.16c-0.13-0.15-0.67-0.89-1.03-0.91
			C232,38,232.68,39.42,232.91,39.68z"/>
		<path class="st1" d="M233.63,40.68c0.28,0.23,0.21-0.97,0.2-1.08c-0.01-0.11-0.72-1.07-0.68-0.99
			C233.37,39.08,233.35,40.45,233.63,40.68z"/>
	</g>
</g>
</svg>
