<?xml version="1.0" encoding="utf-8"?>
<!-- Generator: Adobe Illustrator 27.2.0, SVG Export Plug-In . SVG Version: 6.00 Build 0)  -->
<svg version="1.1" id="Layer_1" xmlns="http://www.w3.org/2000/svg" xmlns:xlink="http://www.w3.org/1999/xlink" x="0px" y="0px"
	 viewBox="0 0 191.8 234.71" style="enable-background:new 0 0 191.8 234.71;" xml:space="preserve">
<style type="text/css">
	.st0{fill:#CE0E2D;}
</style>
<g>
	<g>
		<path class="st0" d="M177.24,107.37c-12.81-28.82-16.44-39.74-17.99-44.41c-1.93-5.8-6.45-10.44-10.82-14.91
			c-0.87-0.89-1.75-1.79-2.6-2.7c-3.96-4.2-8.84-13.42-11.82-20.04c-2.42-5.37-8.01-8.16-13.93-11.1l-1-0.5
			c-1.6-0.8-3.52-2.58-5.54-4.45C109.09,5.13,103.55,0,95.9,0c-7.65,0-13.19,5.13-17.64,9.26c-2.03,1.88-3.94,3.65-5.54,4.45l-1,0.5
			c-5.92,2.95-11.51,5.73-13.93,11.1c-2.98,6.62-7.86,15.84-11.82,20.04c-0.86,0.91-1.73,1.8-2.6,2.7
			c-4.37,4.48-8.89,9.11-10.82,14.91c-1.55,4.66-5.18,15.59-17.99,44.41C2.18,135.22,0,144.64,0,154.14
			c0,11.82,8.49,24.39,24.22,24.39h20.14c0.18,0,0.67,0,0.87,0c1.07,0,5.55-0.23,8.08,1.94c1.86,1.6,2.81,4.23,2.81,7.84
			c0,6.09-2.41,7.9-5.74,10.42c-3.8,2.86-8.52,6.42-8.52,16.07c0,19.92,17.76,19.92,24.44,19.92H95.9h29.58
			c6.69,0,24.44,0,24.44-19.92c0-9.64-4.72-13.2-8.52-16.07c-3.33-2.51-5.74-4.33-5.74-10.42c0-3.59,1.06-6.09,2.79-7.82
			c2.4-2.4,8.41-2.02,8.45-2.01c0.18,0.03,0.36,0.04,0.54,0.04h20.14c15.73,0,24.22-12.56,24.22-24.39
			C191.8,144.64,189.62,135.22,177.24,107.37z M167.58,171.73h-19.92c-1.67,0-8.52-0.75-13.59,3.57c-3.45,2.94-5.2,7.32-5.2,13.01
			c0,9.47,4.68,13,8.44,15.84c3.38,2.55,5.82,4.39,5.82,10.64c0,10.98-6.47,13.13-17.65,13.13H95.9H66.32
			c-11.18,0-17.65-2.15-17.65-13.13c0-6.26,2.44-8.1,5.82-10.64c3.76-2.84,8.44-6.36,8.44-15.84c0-5.69-1.75-10.07-5.2-13.01
			c-5.06-4.32-11.96-3.57-13.59-3.57H24.22c-12.79,0-17.43-10.52-17.43-17.6c0-8.52,2.09-17.28,13.97-44.01
			c11.41-25.66,15.61-37.16,18.23-45.02c1.44-4.32,5.23-8.2,9.24-12.31c0.9-0.92,1.8-1.85,2.68-2.78
			c5.85-6.2,11.92-19.34,13.08-21.91c1.42-3.16,5.75-5.32,10.76-7.81l1.01-0.5c2.47-1.24,4.73-3.33,7.12-5.55
			c3.95-3.66,8.03-7.45,13.02-7.45c4.99,0,9.07,3.79,13.02,7.45c2.39,2.22,4.65,4.31,7.12,5.55l1.01,0.5
			c5.01,2.5,9.34,4.65,10.76,7.81c1.16,2.57,7.22,15.71,13.07,21.91c0.88,0.93,1.78,1.86,2.68,2.78c4.01,4.11,7.8,7.99,9.24,12.31
			c2.61,7.86,6.82,19.36,18.23,45.02c11.88,26.73,13.97,35.48,13.97,44.01C185.01,161.21,180.36,171.73,167.58,171.73z"/>
		<path d="M110.12,165.96h-3.27c-0.31,0-0.48-0.34-0.29-0.57c0.53-0.63,1.28-1.68,1.28-2.66v-1.79c-0.15-0.68-0.55-1.96-1.51-3.09
			c-1.17-1.38-3.58-3.73-4.52-4.97v9.61c0,1.13,0.72,2.27,1.22,2.92c0.18,0.23,0,0.56-0.3,0.56h-5.36c-0.31,0-0.48-0.34-0.29-0.57
			c0.53-0.63,1.28-1.68,1.28-2.66v-15.21c0-0.87-0.84-2.15-1.38-2.88c-0.17-0.23,0-0.55,0.3-0.55h5.6c0.31,0,0.48,0.34,0.29,0.57
			c-0.45,0.52-1.04,1.34-1.27,2.19c0.01,0.08,0.14,0.98,0.71,1.9c0.7,1.12,4.56,4.56,5.23,5.52v-6.75c0-0.87-0.84-2.15-1.38-2.88
			c-0.17-0.23,0-0.55,0.3-0.55h5.6c0.31,0,0.48,0.34,0.29,0.57c-0.56,0.66-1.36,1.77-1.36,2.84v13.87
			c-0.24,0.22-0.47,0.46-0.65,0.75c-0.27,0.41-0.45,0.84-0.55,1.27c-0.13,0.44-0.19,0.85-0.19,1.21v0.13
			C109.9,165.13,109.98,165.55,110.12,165.96z"/>
		<path d="M79.23,165.41c0.18,0.23,0,0.56-0.3,0.56h-5.36c-0.31,0-0.48-0.34-0.29-0.57c0.53-0.63,1.28-1.68,1.28-2.66
			c0-0.28,0-0.92,0-1.79c-0.15-0.68-0.55-1.96-1.51-3.09c-1.17-1.38-3.58-3.73-4.52-4.97c0,3.89,0,8.55,0,9.61
			c0,1.13,0.72,2.27,1.22,2.92c0.18,0.23,0,0.56-0.3,0.56h-5.36c-0.31,0-0.48-0.34-0.29-0.57c0.53-0.63,1.28-1.68,1.28-2.66
			c0-1.53,0-13.94,0-15.21c0-0.87-0.84-2.15-1.38-2.88c-0.17-0.23,0-0.55,0.3-0.55h5.6c0.31,0,0.48,0.34,0.29,0.57
			c-0.45,0.52-1.04,1.34-1.27,2.19c0.01,0.08,0.14,0.98,0.71,1.9c0.7,1.12,4.56,4.56,5.23,5.52c0-3.18,0-6.16,0-6.75
			c0-0.87-0.84-2.15-1.38-2.88c-0.17-0.23,0-0.55,0.3-0.55h5.6c0.31,0,0.48,0.34,0.29,0.57c-0.56,0.66-1.36,1.77-1.36,2.84
			c0,1.64,0,13.26,0,14.99C78.01,163.62,78.73,164.75,79.23,165.41z"/>
		<path d="M28.26,163.33c-1.83,3.6-5.78,4.05-6.75,4c-1.23-0.06-2.78-0.53-3.19-0.53s-0.87,0.95-1.12,0.27
			c-0.25-0.69-0.96-2.6-1.41-3.96c-0.18-0.48,0.75,0.28,1.07,0.45c0.32,0.18,0.68,0.39,1.09,0.63c0.41,0.2,0.86,0.39,1.36,0.57
			c0.5,0.18,1.09,0.27,1.76,0.27c1.36,0,2.44-0.37,3.26-1.1c0.79-0.73,1.26-1.79,1.26-3.17c0-5.12-8.86-6.7-8.86-12.17
			c0-0.71,0.18-1.34,0.48-1.9c0.29-0.56,0.69-1.03,1.19-1.43c0.52-0.38,1.09-0.67,1.7-0.87c0.63-0.2,1.29-0.3,1.97-0.3
			c0.52,0,1.03,0.07,1.53,0.2c0.5,0.11,1.01,0.26,1.53,0.17c0.74-0.13,0.89-0.66,1.46-0.45c0.57,0.22,1.08,2.71,1.29,3.25
			c0.09,0.23,0.03,0.41-0.41,0.23c-0.44-0.18-1.59-0.62-2.34-0.87c-0.77-0.27-1.61-0.4-2.51-0.4c-0.7,0-1.28,0.2-1.73,0.6
			c-0.47,0.42-0.75,0.98-0.75,1.67c0,2.17,4.99,5.16,5.48,5.56C26.9,155.1,30.96,158,28.26,163.33z"/>
		<path d="M45.65,144.66c-0.56,0.66-1.36,1.77-1.36,2.84c0,1.64,0,13.26,0,14.99c0,1.13,0.72,2.27,1.22,2.92
			c0.18,0.23,0,0.56-0.3,0.56h-5.36c-0.31,0-0.48-0.34-0.29-0.57c0.53-0.63,1.28-1.68,1.28-2.66c0-0.84,0-4.97,0-8.73
			c-1.94-0.14-3.88-0.13-5.83,0c0,3.62,0,7.54,0,8.49c0,1.13,0.72,2.27,1.22,2.92c0.18,0.23,0,0.56-0.3,0.56h-5.36
			c-0.31,0-0.48-0.34-0.29-0.57c0.53-0.63,1.28-1.68,1.28-2.66c0-1.53,0-13.94,0-15.21c0-0.87-0.84-2.15-1.38-2.88
			c-0.17-0.23,0-0.55,0.3-0.55h5.6c0.31,0,0.48,0.34,0.29,0.57c-0.56,0.66-1.36,1.77-1.36,2.84c0,0.41,0,2.08,0,3.43
			c1.94-0.16,3.89-0.16,5.83,0c0-1.4,0-3.08,0-3.4c0-0.87-0.84-2.15-1.38-2.88c-0.17-0.23,0-0.55,0.3-0.55h5.6
			C45.68,144.08,45.85,144.43,45.65,144.66z"/>
		<path d="M62.36,163.1c-0.03,0.11-1.32,3.67-1.39,3.8c-0.21,0.51-0.9-0.94-3.7-0.94c-0.43,0-9.27,0-9.27,0
			c-0.31,0-0.48-0.34-0.29-0.57c0.53-0.63,1.28-1.68,1.28-2.66c0-1.53,0-13.94,0-15.21c0-0.87-0.84-2.15-1.38-2.88
			c-0.17-0.23,0-0.55,0.3-0.55h5.6c0.84,0,2.67,0,3.72,0c1.28,0,1.32-0.51,1.86-0.36c0.6,0.17,1.87,2.96,1.87,3.09
			c0,0.15-0.05,0.3-0.14,0.46c-0.09,0.13-0.23,0.2-0.41,0.2c-0.05,0-0.22-0.04-0.51-0.13c-0.29-0.11-1.91-0.54-2.41-0.65
			c-0.5-0.09-1.41-0.05-3.26-0.05c-1.44,0-1.81,0.35-1.81,0.86c0,0.68,0,1.91,0,3.37c0.07,0.13,0.16,0.29,0.43,0.29
			c0.52,0,1.17,0,2.19,0c4.31,0,5.18-0.8,5.16-0.49c0,0.2-0.05,0.5-0.14,0.91c-0.09,0.41-0.2,0.83-0.34,1.27
			c-0.14,0.43-0.32,0.81-0.54,1.14c-0.2,0.33-0.42,0.49-0.64,0.49c-0.14,0-0.28-0.05-0.44-0.16c-0.16-0.11-0.92-0.95-2.28-0.95
			c-0.57,0-2.78-0.03-2.99,0.04c-0.16,0.04-0.42,0.18-0.42,0.36c0,3.96,0,8.25,0,8.71c0,0.01,0,0.02,0,0.03
			c0,0.11,0.01,0.22,0.03,0.34c0.09,0.4,0.42,0.59,0.81,0.59c1.57,0,5.16,0.04,5.69,0.04c0.34,0,0.63-0.05,0.88-0.16
			c0.25-0.11,0.5-0.22,0.75-0.33c0.23-0.15,0.48-0.23,0.68-0.39C62.36,161.71,62.47,162.66,62.36,163.1z"/>
		<path d="M129.17,156.42c-0.02,1.6-0.24,3.18-0.65,4.75c-0.43,1.57-1.1,3.01-1.99,4.3c-0.89,1.27-2.02,2.3-3.39,3.08
			c-1.39,0.81-3.06,1.21-5,1.21c-0.46,0-0.95-0.02-1.47-0.07c-0.53-0.02-1.05-0.09-1.57-0.2c-0.5-0.13-0.99-0.28-1.47-0.46
			c-0.46-0.2-0.86-0.45-1.2-0.75c-0.53-0.44-0.98-1.01-1.37-1.71c-0.37-0.63-0.55-1.26-0.55-1.87v-0.13c0-0.31,0.06-0.66,0.17-1.05
			c0.09-0.39,0.25-0.77,0.48-1.11c0.21-0.33,0.46-0.6,0.75-0.82c0.82-0.57,1.63-0.3,1.95,0.13c0.61,0.78-0.35,1.48-0.65,1.74
			c-0.32,0.24-0.48,0.56-0.48,0.95c0,0.59,0.14,1.09,0.41,1.51c0.25,0.42,0.59,0.76,1.03,1.05c0.43,0.26,0.92,0.46,1.47,0.59
			c0.55,0.11,1.1,0.16,1.64,0.16c1.6,0,2.93-0.36,4-1.08c1.07-0.72,1.93-1.63,2.57-2.72c0.66-1.14,1.14-2.37,1.44-3.71
			c0.3-1.35,0.46-2.66,0.48-3.9c0-0.63-0.03-1.32-0.1-2.07c-0.05-0.77-0.17-1.53-0.38-2.3c-0.16-0.77-0.39-1.51-0.68-2.23
			c-0.3-0.7-0.68-1.33-1.16-1.9c-0.46-0.57-1-1.02-1.64-1.34c-0.64-0.33-1.92-0.86-2.66,0c-0.12,0.17-0.21,0.48-0.21,1v14.99
			c0,1.13,0.72,2.27,1.22,2.92c0.18,0.23,0,0.56-0.3,0.56h-5.36c-0.31,0-0.48-0.34-0.29-0.57c0.53-0.63,1.28-1.68,1.28-2.66v-15.21
			c0-0.87-0.84-2.15-1.38-2.88c-0.17-0.23,0-0.55,0.3-0.55h0.7c1.38-0.05,1.56-0.1,2.43-0.25c0.87-0.18,1.75-0.26,2.64-0.26
			c1.16,0,2.19,0.19,3.08,0.56c0.91,0.39,1.71,0.92,2.4,1.57c0.66,0.63,1.22,1.38,1.68,2.23c0.46,0.85,0.83,1.76,1.13,2.72
			c0.27,0.94,0.47,1.91,0.58,2.92c0.09,0.83,0.14,1.63,0.14,2.39V156.42z"/>
		<path d="M177.25,144.66c-0.56,0.66-1.36,1.77-1.36,2.84c0,1.64,0,13.26,0,14.99c0,1.13,0.72,2.27,1.22,2.92
			c0.18,0.23,0,0.56-0.3,0.56h-5.36c-0.31,0-0.48-0.34-0.29-0.57c0.53-0.63,1.28-1.68,1.28-2.66c0-0.84,0-4.97,0-8.73
			c-1.94-0.14-3.88-0.13-5.83,0c0,3.62,0,7.54,0,8.49c0,1.13,0.72,2.27,1.22,2.92c0.18,0.23,0,0.56-0.3,0.56h-5.36
			c-0.31,0-0.48-0.34-0.29-0.57c0.53-0.63,1.28-1.68,1.28-2.66c0-1.53,0-13.94,0-15.21c0-0.87-0.84-2.15-1.38-2.88
			c-0.17-0.23,0-0.55,0.3-0.55h5.6c0.31,0,0.48,0.34,0.29,0.57c-0.56,0.66-1.36,1.77-1.36,2.84c0,0.41,0,1.44,0,2.79
			c1.94-0.16,3.89-0.16,5.83,0c0-1.4,0-2.44,0-2.76c0-0.87-0.84-2.15-1.38-2.88c-0.17-0.23,0-0.55,0.3-0.55h5.6
			C177.28,144.08,177.45,144.43,177.25,144.66z"/>
		<path d="M84.99,43.49c-0.08-0.31-0.24-0.62-0.48-0.91c-0.9,0-1.62,0-2.14,0c-0.23,0-0.46,0.02-0.69,0.06
			c-0.23,0.04-0.47,0.1-0.72,0.2c0.15,0.15,0.3,0.28,0.47,0.39c0.17,0.13,0.33,0.27,0.5,0.42c0.17,0.13,0.31,0.28,0.44,0.45
			c0.13,0.15,0.19,0.31,0.19,0.48s-0.05,0.51-0.16,1.04c-0.08,0.52-0.19,1.14-0.31,1.85c-0.1,0.71-0.23,1.47-0.38,2.27
			c-0.15,0.8-0.29,1.57-0.44,2.3c-0.15,0.71-0.27,1.33-0.38,1.88c-0.12,0.54-0.22,0.91-0.28,1.12c-0.31-0.3-0.62-0.8-0.91-1.51
			c-0.27-0.69-0.55-1.44-0.84-2.24c-0.27-0.84-0.57-1.63-0.91-2.38c-0.33-0.75-0.72-1.32-1.16-1.74c-0.17,0.15-0.37,0.41-0.59,0.78
			c-0.23,0.35-0.48,0.78-0.75,1.29c-0.23,0.49-0.47,1.02-0.72,1.6c-0.27,0.56-0.52,1.1-0.75,1.62c-0.21,0.5-0.4,0.97-0.56,1.4
			c-0.17,0.43-0.3,0.77-0.41,1.01c-0.15,0-0.26,0-0.35,0c-0.15-1.49-0.39-3.03-0.72-4.62c-0.33-1.59-0.65-3.12-0.94-4.59
			c-0.02-0.07-0.04-0.14-0.06-0.2c0-0.06,0-0.13,0-0.22c0-0.24,0.09-0.46,0.28-0.64c0.19-0.19,0.41-0.38,0.66-0.59
			c0.23-0.19,0.45-0.38,0.66-0.59c0.19-0.19,0.3-0.41,0.34-0.67c-0.71-0.13-1.48-0.2-2.31-0.2c-0.67,0-1.33,0.02-2,0.06
			c-0.67,0.02-1.32,0-1.97-0.06c-0.04,0.09-0.08,0.2-0.13,0.31c-0.06,0.11-0.09,0.22-0.09,0.34c0,0.09,0.09,0.22,0.28,0.39
			c0.17,0.15,0.34,0.34,0.53,0.56c0.21,0.21,0.42,0.42,0.63,0.64c0.19,0.22,0.31,0.46,0.38,0.7c0.23,1.03,0.44,2.05,0.63,3.08
			c0.21,1.05,0.43,2.08,0.66,3.11c0.06,0.26,0.17,0.76,0.31,1.48c0.15,0.71,0.29,1.47,0.44,2.27c0.19,0.78,0.35,1.51,0.47,2.18
			c0.13,0.67,0.19,1.09,0.19,1.26c0,0.24-0.08,0.46-0.25,0.64c-0.17,0.19-0.34,0.36-0.53,0.53c-0.17,0.15-0.33,0.32-0.5,0.5
			c-0.17,0.19-0.27,0.4-0.31,0.64c0.46,0.15,0.97,0.22,1.53,0.22c0.04,0,0.07,0,0.09,0c0.63-0.02,1.18-0.03,1.66-0.03
			c0.44,0,0.92-0.01,1.44-0.03c0.52-0.02,0.97-0.11,1.34-0.28c-0.17-0.35-0.42-0.62-0.75-0.81c-0.33-0.21-0.62-0.47-0.84-0.78
			c-0.02-0.09-0.03-0.17-0.03-0.22c0-0.17,0.12-0.58,0.38-1.23c0.25-0.67,0.52-1.4,0.81-2.18c0.31-0.78,0.61-1.52,0.91-2.21
			c0.29-0.69,0.5-1.16,0.63-1.4c0.17,0,0.28,0,0.34,0c0.19,0.5,0.39,1.05,0.63,1.65c0.23,0.58,0.46,1.18,0.69,1.79
			c0.25,0.6,0.48,1.19,0.69,1.79c0.23,0.58,0.45,1.12,0.66,1.62c-0.02,0.21-0.09,0.4-0.22,0.59c-0.13,0.17-0.26,0.34-0.41,0.5
			c-0.15,0.15-0.29,0.29-0.44,0.42c-0.12,0.11-0.19,0.22-0.19,0.34c0,0.15,0.1,0.25,0.31,0.31c0.21,0.06,0.38,0.1,0.5,0.14
			c0.83-0.06,1.68-0.07,2.53-0.03c0.85,0.04,1.71-0.02,2.56-0.17c-0.08-0.15-0.22-0.33-0.41-0.53c-0.17-0.21-0.33-0.4-0.5-0.59
			c-0.17-0.21-0.31-0.41-0.44-0.62c-0.13-0.19-0.19-0.34-0.19-0.45c0-0.13,0.06-0.56,0.19-1.29c0.12-0.73,0.27-1.6,0.44-2.6
			c0.19-1.03,0.4-2.11,0.63-3.25c0.23-1.16,0.45-2.25,0.66-3.28c0.21-1.01,0.4-1.88,0.56-2.6c0.1-0.44,0.17-0.76,0.24-0.99
			C85.18,44.48,85.1,43.98,84.99,43.49z"/>
		<path d="M106.62,45.76c0.2,0.93,0.4,1.86,0.57,2.78c0.21,1.05,0.43,2.08,0.66,3.11c0.06,0.26,0.17,0.76,0.31,1.48
			c0.15,0.71,0.29,1.47,0.44,2.27c0.19,0.78,0.35,1.51,0.47,2.18c0.13,0.67,0.19,1.09,0.19,1.26c0,0.24-0.08,0.46-0.25,0.64
			c-0.17,0.19-0.34,0.36-0.53,0.53c-0.17,0.15-0.33,0.32-0.5,0.5c-0.17,0.19-0.27,0.4-0.31,0.64c0.46,0.15,0.97,0.22,1.53,0.22
			c0.04,0,0.07,0,0.09,0c0.63-0.02,1.18-0.03,1.66-0.03c0.44,0,0.92-0.01,1.44-0.03c0.52-0.02,0.97-0.11,1.34-0.28
			c-0.17-0.35-0.42-0.62-0.75-0.81c-0.33-0.21-0.62-0.47-0.84-0.78c-0.02-0.09-0.03-0.17-0.03-0.22c0-0.17,0.12-0.58,0.38-1.23
			c0.25-0.67,0.52-1.4,0.81-2.18c0.31-0.78,0.61-1.52,0.91-2.21c0.29-0.69,0.5-1.16,0.63-1.4c0.17,0,0.28,0,0.34,0
			c0.19,0.5,0.4,1.05,0.63,1.65c0.23,0.58,0.46,1.18,0.69,1.79c0.25,0.6,0.48,1.19,0.69,1.79c0.23,0.58,0.45,1.12,0.66,1.62
			c-0.02,0.21-0.09,0.4-0.22,0.59c-0.13,0.17-0.26,0.34-0.41,0.5c-0.15,0.15-0.29,0.29-0.44,0.42c-0.12,0.11-0.19,0.22-0.19,0.34
			c0,0.15,0.1,0.25,0.31,0.31c0.21,0.06,0.38,0.1,0.5,0.14c0.83-0.06,1.68-0.07,2.53-0.03c0.85,0.04,1.71-0.02,2.56-0.17
			c-0.08-0.15-0.22-0.33-0.41-0.53c-0.17-0.21-0.33-0.4-0.5-0.59c-0.17-0.21-0.31-0.41-0.44-0.62c-0.13-0.19-0.19-0.34-0.19-0.45
			c0-0.13,0.06-0.56,0.19-1.29c0.12-0.73,0.27-1.6,0.44-2.6c0.19-1.03,0.4-2.11,0.63-3.25c0.23-1.16,0.45-2.25,0.66-3.28
			c0.21-1.01,0.39-1.88,0.56-2.6c0.17-0.75,0.28-1.19,0.34-1.34c0.33-0.24,0.66-0.5,0.97-0.78c0.33-0.26,0.56-0.6,0.69-1.01
			c-0.23-0.09-0.47-0.16-0.72-0.2c-0.23-0.04-0.46-0.06-0.69-0.06c-1.46,0-2.55,0-3.28,0c-0.23,0-0.46,0.02-0.69,0.06
			c-0.23,0.04-0.47,0.1-0.72,0.2c0.15,0.15,0.3,0.28,0.47,0.39c0.17,0.13,0.33,0.27,0.5,0.42c0.17,0.13,0.31,0.28,0.44,0.45
			c0.13,0.15,0.19,0.31,0.19,0.48s-0.05,0.51-0.16,1.04c-0.08,0.52-0.19,1.14-0.31,1.85c-0.1,0.71-0.23,1.47-0.38,2.27
			c-0.15,0.8-0.29,1.57-0.44,2.3c-0.15,0.71-0.27,1.33-0.38,1.88c-0.12,0.54-0.22,0.91-0.28,1.12c-0.31-0.3-0.62-0.8-0.91-1.51
			c-0.27-0.69-0.55-1.44-0.84-2.24c-0.27-0.84-0.57-1.63-0.91-2.38c-0.33-0.75-0.72-1.32-1.16-1.74c-0.17,0.15-0.37,0.41-0.59,0.78
			c-0.23,0.35-0.48,0.78-0.75,1.29c-0.23,0.49-0.47,1.02-0.72,1.6c-0.27,0.56-0.52,1.1-0.75,1.62c-0.21,0.5-0.4,0.97-0.56,1.4
			c-0.17,0.43-0.3,0.77-0.41,1.01c-0.15,0-0.26,0-0.35,0c-0.15-1.49-0.39-3.03-0.72-4.62c-0.33-1.59-0.65-3.12-0.94-4.59
			c-0.02-0.07-0.04-0.14-0.06-0.2c0-0.06,0-0.13,0-0.22c0-0.24,0.09-0.46,0.28-0.64c0.19-0.19,0.41-0.38,0.66-0.59
			c0.23-0.19,0.45-0.38,0.66-0.59c0.19-0.19,0.3-0.41,0.34-0.67c-0.71-0.13-1.48-0.2-2.31-0.2c-0.52,0-1.05,0.02-1.57,0.04
			c-0.09,0.28-0.22,0.8-0.39,1.58C106.86,44.63,106.74,45.17,106.62,45.76z"/>
		<path d="M82.62,40.49c0,0.12,0.12,0.29,0.37,0.51c0.22,0.2,0.45,0.44,0.69,0.73c0.27,0.27,0.54,0.55,0.82,0.84
			c0,0,0,0.01,0.01,0.01c0.24,0.29,0.4,0.59,0.48,0.91c0.11,0.5,0.2,1,0.3,1.49c0.18,0.84,0.36,1.68,0.51,2.52
			c0.27,1.36,0.56,2.72,0.86,4.05c0.08,0.34,0.22,0.99,0.41,1.94c0.19,0.93,0.38,1.91,0.57,2.96c0.24,1.02,0.45,1.97,0.61,2.85
			c0.16,0.88,0.24,1.42,0.24,1.64c0,0.32-0.11,0.6-0.33,0.84c-0.22,0.24-0.45,0.47-0.69,0.69c-0.22,0.19-0.44,0.41-0.65,0.66
			c-0.22,0.24-0.35,0.52-0.41,0.84c0.6,0.2,1.26,0.29,2,0.29c0.05,0,0.1,0,0.12,0c0.82-0.02,1.54-0.04,2.16-0.04
			c0.57,0,1.2-0.01,1.88-0.04c0.68-0.02,1.26-0.15,1.75-0.36c-0.22-0.46-0.55-0.82-0.98-1.06c-0.44-0.27-0.8-0.61-1.1-1.02
			c-0.03-0.12-0.04-0.22-0.04-0.29c0-0.22,0.16-0.75,0.49-1.61c0.33-0.88,0.68-1.83,1.06-2.85c0.41-1.02,0.8-1.98,1.18-2.88
			c0.38-0.9,0.65-1.51,0.82-1.83c0.22,0,0.37,0,0.45,0c0.24,0.66,0.52,1.38,0.82,2.15c0.3,0.76,0.6,1.53,0.9,2.34
			c0.33,0.78,0.62,1.56,0.9,2.34c0.3,0.76,0.58,1.46,0.86,2.12c-0.03,0.27-0.12,0.52-0.28,0.77c-0.16,0.22-0.34,0.44-0.53,0.66
			c-0.19,0.2-0.38,0.38-0.57,0.55c-0.16,0.15-0.24,0.29-0.24,0.44c0,0.2,0.14,0.33,0.41,0.4c0.27,0.07,0.49,0.13,0.65,0.18
			c1.09-0.07,2.19-0.08,3.3-0.04c1.11,0.05,2.23-0.02,3.35-0.22c-0.11-0.19-0.29-0.43-0.53-0.69c-0.22-0.27-0.43-0.52-0.65-0.77
			c-0.22-0.27-0.41-0.54-0.57-0.8c-0.16-0.24-0.24-0.44-0.24-0.58c0-0.17,0.08-0.73,0.24-1.68c0.16-0.95,0.35-2.08,0.57-3.4
			c0.24-1.34,0.52-2.75,0.82-4.24c0.3-1.51,0.58-2.93,0.86-4.27c0.13-0.64,0.26-1.23,0.37-1.78c0.13-0.59,0.25-1.13,0.36-1.62
			c0.17-0.78,0.3-1.29,0.39-1.58c0.02-0.07,0.04-0.14,0.06-0.18c0.43-0.32,0.86-0.66,1.26-1.02c0.43-0.34,0.73-0.78,0.9-1.31
			c-0.3-0.12-0.61-0.21-0.94-0.26c-0.3-0.05-0.6-0.07-0.9-0.07c-1.9,0-3.33,0-4.28,0c-0.3,0-0.6,0.02-0.9,0.07
			c-0.3,0.05-0.61,0.13-0.94,0.26c0.19,0.2,0.39,0.36,0.61,0.51c0.22,0.17,0.43,0.35,0.65,0.55c0.22,0.17,0.41,0.36,0.57,0.58
			c0.16,0.2,0.24,0.4,0.24,0.62c0,0.22-0.07,0.67-0.2,1.35c-0.11,0.68-0.24,1.49-0.41,2.41c-0.14,0.93-0.3,1.91-0.49,2.96
			c-0.19,1.05-0.38,2.05-0.57,2.99c-0.19,0.93-0.35,1.74-0.49,2.45c-0.16,0.71-0.28,1.19-0.37,1.46c-0.41-0.39-0.8-1.05-1.18-1.97
			c-0.35-0.9-0.72-1.87-1.1-2.92c-0.35-1.1-0.75-2.13-1.18-3.1c-0.44-0.97-0.94-1.73-1.51-2.26c-0.22,0.19-0.48,0.54-0.78,1.02
			c-0.3,0.46-0.62,1.02-0.98,1.68c-0.3,0.63-0.61,1.33-0.94,2.08c-0.35,0.73-0.68,1.44-0.98,2.12c-0.27,0.66-0.52,1.27-0.73,1.83
			c-0.22,0.56-0.39,1-0.53,1.31c-0.19,0-0.34,0-0.45,0c-0.19-1.95-0.5-3.96-0.94-6.03c-0.43-2.07-0.84-4.07-1.22-5.99
			c-0.03-0.1-0.06-0.18-0.08-0.26c0-0.07,0-0.17,0-0.29c0-0.32,0.12-0.6,0.37-0.84c0.24-0.24,0.53-0.5,0.86-0.77
			c0.3-0.24,0.59-0.5,0.86-0.77c0.24-0.24,0.39-0.54,0.45-0.88c-0.93-0.17-1.93-0.26-3.02-0.26c-0.87,0-1.74,0.03-2.61,0.07
			c-0.87,0.02-1.73,0-2.57-0.07c-0.06,0.12-0.11,0.26-0.16,0.4C82.66,40.2,82.62,40.35,82.62,40.49z"/>
		<g>
			<path d="M86.59,30.51c0.24,0.32,0.69,0.36,1.04,0.64c-0.2-0.77-0.24-2.01,0.08-2.81c0.48-0.72,1.08-1.2,2.09-1.2
				c1.05,0,1.76,0.73,2.24,1.49c0.24,0.68,0.52,1.21,0.61,1.97c-0.42,0.16-0.87,0.46-0.79,1.19c0.05,1,0.96,1.22,0.96,1.22
				c-0.12,0.48-0.51,0.84-0.97,0.96c-0.48,0.08-0.88-0.08-1.2-0.32c-0.36-0.4-0.44-1-0.4-1.6c-0.97,0.6-1.81,1.49-2.04,2.65
				c-0.08,0.68,0.04,1.36,0.4,1.84c0.48,0.76,1.48,1.02,2.37,1.01c0.92-0.09,1.76-0.52,2.37-1.12c0.64,1.24,1.57,2.2,2.57,3.25
				c1.01-1.05,1.92-2.01,2.56-3.25c0.6,0.6,1.45,1.04,2.37,1.12c0.89,0.01,1.89-0.25,2.37-1.01c0.36-0.48,0.48-1.16,0.4-1.85
				c-0.24-1.16-1.08-2.04-2.04-2.65c0.04,0.61-0.04,1.21-0.4,1.61c-0.32,0.24-0.72,0.4-1.2,0.32c-0.46-0.12-0.84-0.48-0.96-0.96
				c0,0,0.9-0.22,0.95-1.22c0.08-0.73-0.38-1.03-0.8-1.19c0.09-0.76,0.36-1.29,0.6-1.97c0.49-0.76,1.21-1.49,2.24-1.49
				c1,0,1.61,0.48,2.08,1.2c0.33,0.8,0.28,2.05,0.09,2.81c0.36-0.28,0.8-0.33,1.04-0.65c1.92-1.12,3.13-3.01,2.97-5.41
				c0.04-2.04-1.33-3.85-3.13-4.61c-1.44-0.36-3.33-0.24-4.37,0.64c-0.36-3.89-3.79-6.31-4.79-9.87c-1,3.57-4.4,5.98-4.75,9.87
				c-1.05-0.88-2.93-1-4.37-0.64c-1.8,0.76-3.17,2.57-3.13,4.62C83.46,27.49,84.67,29.38,86.59,30.51z"/>
		</g>
		<path d="M25.59,154.04c-0.49-0.39-5.48-3.39-5.48-5.56c0-0.69,0.27-1.24,0.75-1.67c0.45-0.4,1.03-0.6,1.73-0.6
			c0.9,0,1.74,0.13,2.51,0.4c0.75,0.24,1.9,0.69,2.34,0.87c0.44,0.18,0.49,0,0.41-0.23c-0.2-0.53-0.71-3.03-1.29-3.25
			c-0.57-0.22-0.72,0.32-1.46,0.45c-0.52,0.09-1.03-0.06-1.53-0.17c-0.5-0.13-1.01-0.2-1.53-0.2c-0.68,0-1.34,0.1-1.97,0.3
			c-0.61,0.2-1.18,0.49-1.7,0.87c-0.5,0.4-0.89,0.88-1.19,1.43c-0.29,0.56-0.48,1.19-0.48,1.9c0,5.47,8.86,7.06,8.86,12.17
			c0,1.38-0.46,2.43-1.26,3.17c-0.81,0.73-1.9,1.1-3.26,1.1c-0.68,0-1.27-0.09-1.76-0.27c-0.5-0.18-0.95-0.37-1.36-0.57
			c-0.41-0.24-0.77-0.46-1.09-0.63c-0.32-0.18-1.25-0.93-1.07-0.45c0.45,1.36,1.16,3.27,1.41,3.96c0.25,0.69,0.71-0.27,1.12-0.27
			s1.96,0.47,3.19,0.53c0.97,0.05,4.92-0.4,6.75-4C30.96,158,26.9,155.1,25.59,154.04z"/>
		<path d="M61.28,162.58c-0.19,0.16-0.45,0.24-0.68,0.39c-0.25,0.11-0.5,0.22-0.75,0.33c-0.25,0.11-0.54,0.16-0.88,0.16
			c-0.53,0-4.12-0.04-5.69-0.04c-0.39,0-0.73-0.19-0.81-0.59c-0.01-0.11-0.02-0.22-0.03-0.34c0-0.01,0-0.02,0-0.03
			c0-0.46,0-4.75,0-8.71c0-0.17,0.26-0.31,0.42-0.36c0.2-0.07,2.42-0.04,2.99-0.04c1.36,0,2.12,0.84,2.28,0.95
			c0.16,0.11,0.31,0.16,0.44,0.16c0.23,0,0.44-0.16,0.64-0.49c0.23-0.33,0.41-0.7,0.54-1.14c0.14-0.43,0.25-0.86,0.34-1.27
			c0.09-0.41,0.14-0.72,0.14-0.91c0.02-0.31-0.85,0.49-5.16,0.49c-1.02,0-1.67,0-2.19,0c-0.27,0-0.36-0.16-0.43-0.29
			c0-1.47,0-2.69,0-3.37c0-0.51,0.37-0.86,1.81-0.86c1.85,0,2.76-0.04,3.26,0.05c0.5,0.11,2.12,0.54,2.41,0.65
			c0.29,0.09,0.46,0.13,0.51,0.13c0.18,0,0.32-0.07,0.41-0.2c0.09-0.15,0.14-0.3,0.14-0.46c0-0.13-1.27-2.92-1.87-3.09
			c-0.55-0.16-0.59,0.36-1.86,0.36c-1.05,0-2.89,0-3.72,0h-5.6c-0.3,0-0.48,0.32-0.3,0.55c0.54,0.73,1.38,2,1.38,2.88
			c0,1.28,0,13.68,0,15.21c0,0.98-0.74,2.03-1.28,2.66c-0.2,0.23-0.02,0.57,0.29,0.57c0,0,8.84,0,9.27,0c2.8,0,3.49,1.45,3.7,0.94
			c0.07-0.13,1.37-3.7,1.39-3.8C62.47,162.66,62.36,161.71,61.28,162.58z"/>
		<path d="M45.36,144.08h-5.6c-0.3,0-0.48,0.32-0.3,0.55c0.54,0.73,1.38,2,1.38,2.88c0,0.32,0,2.01,0,3.4
			c-1.94-0.16-3.89-0.16-5.83,0c0-1.34,0-3.02,0-3.43c0-1.06,0.8-2.18,1.36-2.84c0.2-0.23,0.02-0.57-0.29-0.57h-5.6
			c-0.3,0-0.48,0.32-0.3,0.55c0.54,0.73,1.38,2,1.38,2.88c0,1.28,0,13.68,0,15.21c0,0.98-0.74,2.03-1.28,2.66
			c-0.2,0.23-0.02,0.57,0.29,0.57h5.36c0.3,0,0.48-0.33,0.3-0.56c-0.5-0.65-1.22-1.79-1.22-2.92c0-0.95,0-4.87,0-8.49
			c1.95-0.14,3.89-0.14,5.83,0c0,3.76,0,7.89,0,8.73c0,0.98-0.74,2.03-1.28,2.66c-0.2,0.23-0.02,0.57,0.29,0.57h5.36
			c0.3,0,0.48-0.33,0.3-0.56c-0.5-0.65-1.22-1.79-1.22-2.92c0-1.74,0-13.35,0-14.99c0-1.06,0.8-2.18,1.36-2.84
			C45.85,144.43,45.68,144.08,45.36,144.08z"/>
		<path d="M128.45,150.65c-0.3-0.96-0.67-1.87-1.13-2.72c-0.46-0.85-1.02-1.6-1.68-2.23c-0.68-0.66-1.48-1.18-2.4-1.57
			c-0.89-0.37-1.92-0.56-3.08-0.56c-0.89,0-1.77,0.09-2.64,0.26c-0.87,0.15-1.05,0.21-2.43,0.25h-0.7c-0.3,0-0.48,0.32-0.3,0.55
			c0.54,0.73,1.38,2,1.38,2.88v15.21c0,0.98-0.74,2.03-1.28,2.66c-0.2,0.23-0.02,0.57,0.29,0.57h5.36c0.3,0,0.48-0.33,0.3-0.56
			c-0.5-0.65-1.22-1.79-1.22-2.92v-14.99c0-0.52,0.09-0.83,0.21-1c0.74-0.87,2.03-0.33,2.66,0c0.64,0.33,1.19,0.78,1.64,1.34
			c0.48,0.57,0.87,1.2,1.16,1.9c0.3,0.72,0.52,1.46,0.68,2.23c0.21,0.77,0.33,1.53,0.38,2.3c0.07,0.74,0.1,1.43,0.1,2.07
			c-0.02,1.25-0.18,2.55-0.48,3.9c-0.3,1.33-0.78,2.57-1.44,3.71c-0.64,1.09-1.49,2-2.57,2.72c-1.07,0.72-2.41,1.08-4,1.08
			c-0.55,0-1.1-0.05-1.64-0.16c-0.55-0.13-1.04-0.33-1.47-0.59c-0.43-0.28-0.78-0.63-1.03-1.05c-0.27-0.41-0.41-0.92-0.41-1.51
			c0-0.39,0.16-0.71,0.48-0.95c0.3-0.26,1.26-0.96,0.65-1.74c-0.32-0.43-1.13-0.7-1.95-0.13c-0.3,0.22-0.55,0.49-0.75,0.82
			c-0.23,0.35-0.39,0.72-0.48,1.11c-0.11,0.39-0.17,0.74-0.17,1.05v0.13c0,0.61,0.18,1.23,0.55,1.87c0.39,0.7,0.84,1.27,1.37,1.71
			c0.34,0.31,0.74,0.56,1.2,0.75c0.48,0.18,0.97,0.33,1.47,0.46c0.52,0.11,1.05,0.18,1.57,0.2c0.52,0.04,1.02,0.07,1.47,0.07
			c1.94,0,3.61-0.4,5-1.21c1.37-0.79,2.5-1.81,3.39-3.08c0.89-1.29,1.55-2.72,1.99-4.3c0.41-1.57,0.63-3.16,0.65-4.75v-0.46
			c0-0.76-0.05-1.56-0.14-2.39C128.92,152.56,128.72,151.59,128.45,150.65z"/>
		<path d="M176.97,144.08h-5.6c-0.3,0-0.48,0.32-0.3,0.55c0.54,0.73,1.38,2,1.38,2.88c0,0.32,0,1.37,0,2.76
			c-1.94-0.16-3.89-0.16-5.83,0c0-1.34,0-2.38,0-2.79c0-1.06,0.8-2.18,1.36-2.84c0.2-0.23,0.02-0.57-0.29-0.57h-5.6
			c-0.3,0-0.48,0.32-0.3,0.55c0.54,0.73,1.38,2,1.38,2.88c0,1.28,0,13.68,0,15.21c0,0.98-0.74,2.03-1.28,2.66
			c-0.2,0.23-0.02,0.57,0.29,0.57h5.36c0.3,0,0.48-0.33,0.3-0.56c-0.5-0.65-1.22-1.79-1.22-2.92c0-0.95,0-4.87,0-8.49
			c1.95-0.14,3.89-0.14,5.83,0c0,3.76,0,7.89,0,8.73c0,0.98-0.74,2.03-1.28,2.66c-0.2,0.23-0.02,0.57,0.29,0.57h5.36
			c0.3,0,0.48-0.33,0.3-0.56c-0.5-0.65-1.22-1.79-1.22-2.92c0-1.74,0-13.35,0-14.99c0-1.06,0.8-2.18,1.36-2.84
			C177.45,144.43,177.28,144.08,176.97,144.08z"/>
		<path d="M79.37,144.66c0.2-0.23,0.02-0.57-0.29-0.57h-5.6c-0.3,0-0.48,0.32-0.3,0.55c0.54,0.73,1.38,2,1.38,2.88
			c0,0.59,0,3.57,0,6.75c-0.67-0.96-4.52-4.4-5.23-5.52c-0.57-0.91-0.7-1.82-0.71-1.9c0.22-0.85,0.82-1.67,1.27-2.19
			c0.2-0.23,0.02-0.57-0.29-0.57H64c-0.3,0-0.48,0.32-0.3,0.55c0.54,0.73,1.38,2,1.38,2.88c0,1.28,0,13.68,0,15.21
			c0,0.98-0.74,2.03-1.28,2.66c-0.2,0.23-0.02,0.57,0.29,0.57h5.36c0.3,0,0.48-0.33,0.3-0.56c-0.5-0.65-1.22-1.79-1.22-2.92
			c0-1.05,0-5.72,0-9.61c0.95,1.24,3.35,3.59,4.52,4.97c0.96,1.13,1.36,2.41,1.51,3.09c0,0.87,0,1.51,0,1.79
			c0,0.98-0.74,2.03-1.28,2.66c-0.2,0.23-0.02,0.57,0.29,0.57h5.36c0.3,0,0.48-0.33,0.3-0.56c-0.5-0.65-1.22-1.79-1.22-2.92
			c0-1.74,0-13.35,0-14.99C78.01,146.43,78.81,145.31,79.37,144.66z"/>
		<path d="M96.13,144.62c0.2-0.23,0.02-0.57-0.29-0.57h-5.6c-0.01,0-0.02,0.01-0.02,0.01c-1.8,0-4-0.01-4.33-0.01
			c-1.22,0-2.11-0.51-2.59-0.51c-0.2,0-0.38,0.12-0.54,0.36c-0.18,0.24-0.88,2.41-0.92,2.54c-0.08,0.28,0.07,0.59,0.31,0.65
			s0.4-0.06,0.64-0.2c0.76-0.4,1.59-0.68,2-0.81c0.36-0.1,1.19-0.24,2.26-0.07c-0.46,0.7-1.24,2.11-2.53,4.99
			c-2.39,5.34-3,10.48-3.22,11.56c0,0.01,0,0.02,0,0.03c0,0,0,0,0,0c0,0-0.16,1.32-1.28,2.81c-0.18,0.24-0.02,0.57,0.29,0.57h5.36
			c0.3,0,0.48-0.33,0.3-0.56c-0.5-0.65-1.22-1.79-1.22-2.92v-0.1c0,0,0,0-0.01,0c0-0.01,0.01-0.02,0.01-0.03
			c-0.07-0.79,0.77-5.09,0.98-5.59c0.21-0.5,1.03-0.71,2.45-0.18c1.42,0.54,3.13,0.49,3.13,0.49c0,2.67,0,5.01,0,5.62
			c0,0.98-0.74,2.03-1.28,2.66c-0.2,0.23-0.02,0.57,0.29,0.57h5.36c0.3,0,0.48-0.33,0.3-0.56c-0.5-0.65-1.22-1.79-1.22-2.92
			c0-1.74,0-13.35,0-14.99C94.77,146.4,95.57,145.28,96.13,144.62z M91.32,153.73c-0.23,0.71-2.08,0.27-2.84,0.06
			c-0.76-0.21-1.82-0.53-1.82-0.53s2.49-6.87,3.86-6.89c0.58-0.01,0.75,0.55,0.77,0.65c0.02,0.15,0.03,0.3,0.03,0.47
			C91.32,148.04,91.32,150.75,91.32,153.73z"/>
		<path d="M159.41,162.58C159.41,162.58,159.41,162.58,159.41,162.58c0-0.01,0-0.02,0-0.03c-0.22-1.08-0.83-6.22-3.22-11.56
			c-1.29-2.87-2.07-4.29-2.53-4.99c1.07-0.17,2.8,0.16,3.16,0.26c0.41,0.13,1.24,0.41,2,0.81c0.25,0.13,0.41,0.26,0.64,0.2
			c0.23-0.06,0.38-0.37,0.31-0.65c-0.04-0.13-0.73-2.3-0.92-2.54c-0.16-0.24-0.34-0.36-0.54-0.36c-0.48,0-2.27,0.32-3.5,0.32
			c-0.33,0-2.53,0-4.33,0.01c-0.01,0-0.01-0.01-0.02-0.01h-5.6c-0.31,0-0.48,0.34-0.29,0.57c0.56,0.66,1.36,1.77,1.36,2.84
			c0,1.64,0,13.26,0,14.99c0,1.13-0.72,2.27-1.22,2.92c-0.18,0.23,0,0.56,0.3,0.56h5.36c0.31,0,0.48-0.34,0.29-0.57
			c-0.53-0.63-1.28-1.68-1.28-2.66c0-0.61,0-2.95,0-5.62c0,0,1.71,0.05,3.13-0.49c1.42-0.54,2.24-0.32,2.45,0.18
			c0.21,0.5,1.06,4.8,0.98,5.59c0,0.01,0.01,0.02,0.01,0.03c0,0,0,0-0.01,0v0.1c0,1.13-0.72,2.27-1.22,2.92
			c-0.18,0.23,0,0.56,0.3,0.56h5.36c0.31,0,0.47-0.33,0.29-0.57C159.58,163.9,159.41,162.58,159.41,162.58z M152.23,153.79
			c-0.76,0.21-2.61,0.65-2.84-0.06c0-2.99,0-5.69,0-6.25c0-0.17,0.01-0.32,0.03-0.47c0.02-0.1,0.19-0.66,0.77-0.65
			c1.36,0.02,3.86,6.89,3.86,6.89S152.99,153.58,152.23,153.79z"/>
		<path d="M137.5,143.57c-4.07,0-7.37,3.95-7.37,11.42c0,7.47,3.3,11.42,7.37,11.42s7.37-4.07,7.37-11.42
			C144.87,147.64,141.57,143.57,137.5,143.57z M137.5,163.95c-2.08,0-3.77-3.1-3.77-8.96c0-5.86,1.69-8.96,3.77-8.96
			s3.77,3.19,3.77,8.96C141.27,160.76,139.58,163.95,137.5,163.95z"/>
		<path d="M110.09,163.38c0.1-0.43,0.29-0.86,0.55-1.27c0.18-0.28,0.4-0.53,0.65-0.75v-13.87c0-1.06,0.8-2.18,1.36-2.84
			c0.2-0.23,0.02-0.57-0.29-0.57h-5.6c-0.3,0-0.48,0.32-0.3,0.55c0.54,0.73,1.38,2,1.38,2.88v6.75c-0.67-0.96-4.52-4.4-5.23-5.52
			c-0.57-0.91-0.7-1.82-0.71-1.9c0.22-0.85,0.82-1.67,1.27-2.19c0.2-0.23,0.02-0.57-0.29-0.57h-5.6c-0.3,0-0.48,0.32-0.3,0.55
			c0.54,0.73,1.38,2,1.38,2.88v15.21c0,0.98-0.74,2.03-1.28,2.66c-0.2,0.23-0.02,0.57,0.29,0.57h5.36c0.3,0,0.48-0.33,0.3-0.56
			c-0.5-0.65-1.22-1.79-1.22-2.92v-9.61c0.95,1.24,3.35,3.59,4.52,4.97c0.96,1.13,1.36,2.41,1.51,3.09v1.79
			c0,0.98-0.74,2.03-1.28,2.66c-0.2,0.23-0.02,0.57,0.29,0.57h3.27c-0.14-0.42-0.22-0.83-0.22-1.25v-0.13
			C109.9,164.23,109.97,163.82,110.09,163.38z"/>
		<path class="st0" d="M189.38,201.79c-1.06,0-13.28,0-13.28,0l-7.27-3.74l1.89,3.74h-8.77l-9.56-7.67H24.33c0,0,3.9,5.6,3.37,6.18
			c-0.52,0.58-25.34-7.8-25.34-8.53c0-0.74,24.92-10.23,25.34-9.82c0.42,0.41-3.47,7.07-3.47,7.07h128.17l9.03-7.65h1.48l-2.43,4.43
			h1.48l4.32-4.43h9.07l-1.48,3.76l5.71-3.76h9.05l-7,8.21c0,0,1.13-0.17,1.13,1.25s-0.08,2.3-0.71,2.3
			C182.06,193.12,190.17,201.79,189.38,201.79z"/>
		<path d="M117.24,189.73c0.21-0.47,6.86-1.68,6.86-7.11c0-3.54-3.21-7.35-8.34-7.35c-8.92,0-9.78,7.81-9.78,8.5
			c0,5.38,3.95,7.39,3.59,7.63c-0.6,0.4-3.78,3.97-3.71,4.79c-0.05-2.68-0.58-5.21-1.59-7.52c-1.11-2.52-2.86-4.73-5.21-6.57
			c-1.29-0.99-4.26-2.36-7.69-3.5c0.02-0.29,0.77-5.35,0.77-5.35c2.38,0,5.38,0.04,7.05,0.04c1.62,0,1.95,1.72,2.77,2.04
			c0.2,0.08,0.43,0.01,0.55-0.17c0.17-0.26,2.31-5.31,2.39-5.64c0.24-0.96-0.01-1.9-1.39-1.71c-0.92,0.13-1.64,0.89-4.33,0.89
			c-2.23,0-10.04-0.13-10.87,0.15c-0.81,0.26-1.35,0.82-1.55,1.62c-0.21,0.73-1.79,9.87-1.98,11.09c-0.43-0.66-0.94-1.26-1.53-1.75
			c-0.9-0.75-1.99-1.34-3.23-1.73c-1.23-0.39-2.6-0.59-4.08-0.59c-1.28,0-2.49,0.22-3.62,0.65c-1.12,0.43-2.15,1.05-3.05,1.83
			c-0.87,0.76-1.55,1.67-2.04,2.7c-0.53,1.05-0.8,2.21-0.8,3.45c-0.04,0.56,0.04,0.7,0.24,1.27c0.23,0.67,0.78,1.03,1.57,1.03
			c0.49,0,1.08-0.11,1.37-0.52c0.23-0.33,0.26-0.41,0.46-0.89c0.22-0.51,0.45-1.05,0.69-1.58c0.27-0.52,0.6-1.01,0.99-1.44
			c0.36-0.44,0.84-0.8,1.45-1.09c0.63-0.31,1.42-0.47,2.36-0.47c0.51,0,1.06,0.13,1.62,0.38c0.57,0.25,1.05,0.59,1.47,1.02
			c0.43,0.38,0.78,0.85,1.06,1.4c0.26,0.5,0.39,1.02,0.39,1.55c0,0.91-0.32,2.01-0.94,3.27c-0.6,1.26-1.4,2.62-2.36,4.05
			c-0.94,1.45-1.99,2.96-3.13,4.49c-1.16,1.55-2.3,3.07-3.42,4.56c-1.08,1.45-2.11,2.86-3.05,4.21c-0.91,1.36-1.61,2.56-2.09,3.57
			c-0.02,0.05-0.03,0.1-0.03,0.15c0,0.62,0.39,0.87,0.57,0.94c0.3,0.16,0.62,0.27,0.97,0.31c0.35,0.04,18.32,0.26,18.62,0.26
			c0.58,0,1.16-0.03,1.75-0.1c0.84-0.14,1.67-0.32,2.5-0.54c0.81-0.27,1.55-0.65,2.17-1.13c0.96-0.68,1.84-1.61,2.6-2.76
			c0.74-1.07,1.17-2.18,1.28-3.29l0.02-0.22c0.06-0.56,0.03-1.2-0.09-1.92c-0.08-0.73-0.29-1.44-0.61-2.1
			c-0.3-0.64-0.69-1.2-1.18-1.67c-0.55-0.49-2.4-1.46-3.88-0.21c-1.58,1.73,0.33,3.35,0.8,3.88c0.36,0.35,3.45,4.91-6.59,4.91
			c-3.69,0-10.27-0.22-10.52-0.17c0.49-0.83,1.05-1.68,1.67-2.54c0.87-1.1,1.77-2.24,2.7-3.41c0.96-1.16,1.93-2.36,2.88-3.58
			c0.94-1.18,1.83-2.39,2.63-3.61c0.77-1.25,1.41-2.51,1.93-3.74c0.48-1.24,0.75-2.5,0.78-3.74c0.02-0.86-0.06-1.66-0.21-2.4
			c0.11,0.01,0.21,0.04,0.32,0.05c0.43,0.04,0.91,0.07,1.42,0.07c1.88,0,3.54,0.36,4.93,1.08c1.43,0.72,2.65,1.71,3.61,2.95
			c0.96,1.2,1.69,2.65,2.18,4.3c0.48,1.62,0.71,3.36,0.67,5.19c-0.04,1.87-0.35,3.68-0.92,5.39c-0.57,1.67-1.37,3.23-2.38,4.64
			c-1.05,1.38-3.77,6.34-11.41,6.34c-6.6-0.76-6.44,3.26,0.88,3.4c2.73,0.05,5.36-0.58,7.84-1.74c2.46-1.15,4.65-2.7,6.51-4.6
			c1.91-1.87,3.46-4.07,4.61-6.54c0.16-0.37,0.31-0.74,0.45-1.11c0.1,0.4,1.71,8.36,9.69,8.36c11.27,0,10.95-8.95,10.95-11.06
			C125.21,198.84,124.12,192.72,117.24,189.73z M111.69,181.86c0.27-0.58,1.86-2.79,4.78-2.79c1.65,0,2.9,0.36,3.72,1.09
			c0.75,0.6,1.27,1.97,1.13,3.02c-0.14,1.05-0.51,2.65-3.57,3.37c0.75-1.65,1.75-4.71,0.29-4.71c-1.46,0-3.61,4.31-4.64,5.81
			C112.68,187.32,110.22,184.98,111.69,181.86z M114.73,207.34c-2.97,0-5.37-3.25-5.37-6.22c0-2.97,2.41-6.77,5.37-6.77
			c2.97,0,5.37,3.8,5.37,6.77C120.1,204.09,117.7,207.34,114.73,207.34z"/>
		<rect x="86.92" y="189.01" class="st0" width="19.41" height="5.11"/>
	</g>
	<path d="M164.03,100.36c-0.84-2.19-5.18-6.02-6.59-8.57c-1.41-2.55-2.28-4.31-4.6-6.42c-1.49-1.36-3.99-2.77-6.34-4.01
		c0.03-0.38,0-0.77-0.03-0.97c-0.05-0.33-0.18,0.86-0.24,0.68c-0.05-0.18,0.03-0.8,0.04-1.13c0.01-0.33-0.08-1.37-0.18-1.59
		c-0.1-0.22-0.03,0.62-0.1,0.43c-0.08-0.19-0.11-0.95-0.14-1.17c-0.03-0.23-0.08-0.6-0.17-0.65c-0.09-0.04,0.09,0.76-0.02,0.44
		c-0.11-0.31-0.33-1.17-0.44-1.41c-0.11-0.24,0.04,0.5-0.05,0.39c-0.09-0.11-0.18-0.66-0.25-0.77c-0.07-0.11-0.07,0.28-0.08,0.26
		c-0.03-0.14-0.04-0.49-0.1-0.58s-0.07,0.34-0.13,0.32c-0.06-0.02-0.02-0.27-0.06-0.33c-0.04-0.07-0.09,0.19-0.14,0.12
		c-0.05-0.07,0.06-0.46,0.07-0.54c0.01-0.08-0.2,0.39-0.25,0.36c-0.04-0.02,0.01-0.22,0-0.27c-0.01-0.05-0.17,0.14-0.21,0.14
		c-0.04,0,0.12-0.23,0.07-0.25c-0.06-0.01-0.26,0.24-0.32,0.23c-0.06-0.01,0.08-0.26,0.09-0.29c-0.24,0.08-0.53,0.47-0.67,0.59
		c-0.14,0.12,0.05-0.18,0-0.2c-0.05-0.02-0.43,0.31-0.52,0.45c-0.09,0.14-0.25,0.69-0.35,0.81c-0.1,0.12,0.04-0.39-0.08-0.31
		c-0.12,0.08-0.18,0.49-0.18,0.7c0,0.21-0.24-0.33-0.26-0.29c-0.15,0.24-0.24,0.48-0.31,0.71c-0.01,0-0.02-0.01-0.03-0.03
		c-0.07-0.2,0.27-1,0.17-1.2c-0.1-0.2-0.11,0.52-0.21,0.3c-0.1-0.22,0.06-1.16,0.07-1.46c0-0.3-0.11-1.03-0.29-1.09
		c-0.17-0.06,0,1.13-0.19,0.93c-0.19-0.2-0.34-1.66-0.47-2.01c-0.13-0.35-0.45-1.24-0.64-1.27c-0.19-0.03,0.24,1,0.04,0.88
		s-0.54-0.89-0.71-1.03c-0.16-0.15-0.54-0.6-0.63-0.55c-0.09,0.05,0.05,0.42-0.06,0.39c-0.11-0.03-0.19-0.45-0.32-0.44
		c-0.13,0.01,0,0.44-0.15,0.44c-0.15,0-0.52-0.52-0.65-0.49c-0.14,0.03,0.02,0.46-0.07,0.48s-0.26-0.33-0.33-0.26
		c-0.07,0.07,0.24,0.52,0.13,0.54s-0.24-0.35-0.35-0.34s-0.02,0.27-0.08,0.26c-0.06-0.02-0.08-0.22-0.17-0.19
		c-0.09,0.04-0.08,0.23-0.15,0.25s0-0.27-0.11-0.17c-0.11,0.11-0.27,0.68-0.39,0.74c-0.12,0.07,0.07-0.26-0.03-0.22
		c-0.1,0.04-0.11,0.21-0.2,0.25c-0.1,0.04,0.1-0.19-0.07-0.12c-0.18,0.07-0.64,0.6-0.72,0.82c-0.08,0.22-0.2,0.65-0.32,0.73
		c-0.12,0.07,0.16-0.4-0.01-0.28c-0.16,0.12-0.34,0.75-0.4,0.92c-0.06,0.17-0.01-0.32-0.14-0.18c-0.09,0.1-0.18,0.42-0.23,0.7
		c-1.89-1.03-1.18-1-2.48-2.15c0,0.4-0.15,0.7-0.05,1.09c-0.96-0.2-1.6-0.38-2.44-1.06c-0.84-0.68-1.95-1.77-2.92-2.37
		c0,0.26,0.74,1.15-0.21,0.95c-0.95-0.2-2.32-0.68-3.19-1.55c-0.87-0.87-1.94-1.9-2.98-2.56c0.01,0.31,0.44,0.72-0.39,0.56
		c-0.83-0.16-1.76-0.65-2.95-0.84c-1.19-0.18-2.96-0.49-4.36-0.78c-1.39-0.29-3.24-0.34-4.65-0.16c0.03,0.26,1.2,0.61-0.17,0.63
		c-1.37,0.02-3.24,0.14-5.11,0.53c-1.86,0.39-2.7,0.49-5.44,0.49c-2.74,0.01-8.31-0.23-11.7-0.49c-3.39-0.26-9.64-0.24-12.22-0.69
		c-2.58-0.45-1.52-0.45-3.36-0.86c0.14,0.14,1.4,0.76,0.66,0.98c-0.75,0.22-2.62-0.19-3.5-0.23c-0.87-0.04-1.5,0.04-2.26,0.27
		c0.06,0.03,1.39,0.23,0.58,0.45c-0.81,0.22-2.65,0.33-3.44,0.68c-0.79,0.35-1.12,1.03-1.84,1.11c-0.72,0.08-1.34,0.35-1.95,0.64
		c-0.1,0.07,1.08-0.11,0.43,0.3c-0.65,0.41-2.84,0.31-3.79,0.46s-1.86,0.48-2.71,0.87c0.29,0.11,1.32,0.28,0.38,0.64
		c-0.94,0.36-2.43,0.86-3.41,1.33c-0.98,0.47-1.83,0.99-2.7,1.57c0.06,0.08,1.73-0.14,0.69,0.35c-1.04,0.48-2.94,1.76-4.09,2.21
		c-1.15,0.45-1.84,0.87-2.79,1.5c0.2,0.01,1.15-0.14,0.74,0.41s-1.63,0.93-2.19,1.37c-0.56,0.44-0.87,0.94-1.27,1.47
		c0.17-0.08,1.6-0.67,0.92,0.05c-0.68,0.72-1.87,1.26-2.47,2.21c-0.6,0.95-1.1,2.64-1.64,3.42c-0.54,0.78-0.84,0.69-1.51,0.92
		c0.47,0.34,1.16,0.4,0.97,1.3c-0.2,0.9-1.19,2.25-1.75,3.08c0.95-0.25,1.02,0.29,0.82,1.34c-0.2,1.04-0.78,3.83-1.43,4.51
		c-0.65,0.69-0.63,0.41-1.21,0.74c0.4-0.01,1.13-0.23,1.3,0.31c0.17,0.54,0.06,1.22-0.32,1.73c-0.38,0.51-0.98,1.06-1.45,1.5
		c-0.46,0.44-0.72,1.03-0.98,1.55c0.34,0.22,0.89-1.46,1.32-0.29c0.43,1.17,0.48,3.34-0.32,5.05c-0.81,1.71-1.88,4.18-2.32,6.35
		c-0.43,2.16-1.06,6.05-1.63,7.81c-0.57,1.76-1.21,1.63-2.33,2.09c0.31,0.61,0.79,1.49,0.82,2.2c0.03,0.71-0.58,1.02-1.04,1.33
		c0.17,0.54,0.49,0.66,0.34,1.38c-0.15,0.72-0.3,2.2,0.01,2.99c0.32,0.78,0.18,1.61,0.09,2.24c-0.08,0.62-0.07,1.27-0.65,1.02
		c0.17,0.71,0.25,1.03,0.84,1.64c0.59,0.61,0.99,1.94,1.69,2.6c0.7,0.67,1.5,0.86,2.38,1.22c0.88,0.36,1.82,0.35,2.72,0.35
		c0.87,0,1.89,0,2.58,0c0.7,0,0.73-0.74,1.23-0.88c0.5-0.14,0.62,0.06,0.98,0.25c0.15-0.35,0.13-0.67-0.09-0.99
		c0.41-0.05,0.81-0.07,1.2,0.12c-0.44-0.83-1.05-1.21-1.88-1.67c-0.83-0.46-2.64-0.85-3.45-0.82c-0.44,0.02-0.46-0.06-0.92-0.47
		c-0.46-0.4-0.61-1.31-0.45-1.73c0.16-0.42,0.46,0.02,0.58,0.19c0.44-0.54,0.6-0.99,0.59-1.77c-0.01-0.78-0.1-1.89-0.13-2.74
		c0.4,0.63,0.76,1.3,0.91,2.05c0.32-0.71,0.52-1.44,0.49-2.23c-0.03-0.79,1.18-1.26,1.69-0.93c0.51,0.33,0.37,0.94,0.6,1.38
		c0.08-0.65,0.09-1.47,0.48-2.01c0.4-0.54,1.03-0.72,1.28-1.4c0.25-0.68,0.89-1.42,1.49-1.54c0.59-0.12,0.59,0.15,0.73,0.53
		c0.37-0.44,0.74-0.77,0.84-1.43c0.1-0.66,0.25-1.53,0.86-2.06c0.6-0.54,1.4-1.69,1.63-2.45c0.23-0.76,0.14,1.21,0.12,1.35
		c0.56-0.61,1.11-1.27,1.49-2.05c0.38-0.78,0.6-2.02,0.84-2.74c0.24-0.72,0.37-0.71,0.95-1.08c0.58-0.37,1.35-1.11,1.86-1.66
		c-0.33,0.68-0.48,1.44-0.48,2.18c0.32-0.19,1.04-1.06,1.45-0.7c0.41,0.36-0.82,2.05-0.91,2.54c0.52-0.28,1.24-0.64,1.73-0.07
		c0.48,0.56,0.51,1.62,0.29,2.22c-0.22,0.6-0.45,0.82-0.7,1.31c0.36-0.27,1.2-1,1.57-0.39c0.37,0.61-0.2,1.66-0.45,2.26
		c0.67-0.24,1.64-0.54,2.15,0.14c0.51,0.68,0.72,1.45,0.51,2.25c-0.22,0.81-0.39,1.52-0.49,2.32c0.34-0.18,0.75-0.73,1.15-0.23
		c0.4,0.5,0.54,1.57,0.3,2.24c-0.24,0.67,0.78,2.61,0.91,3.34c0.13,0.74,0.5,2.06,0.31,2.9c-0.19,0.83,0.32,1.67,0.82,2.12
		c0.5,0.46-0.35,0.37-0.58,0.42c0.62,0.38,0.46,0.42,1.38,0.6c0.92,0.18,1.31,1.35,2.68,1.35c1.41,0,3.64,0,5.38,0
		c1.79,0,5.57,0.04,7.18-0.05c1.61-0.09,1.58-0.73,2.22-1.63c0.32,0.08,0.71,0.25,0.88,0.63c-0.05-0.56-0.06-1.11-0.51-1.52
		c-0.45-0.42-0.81-0.8-1.52-0.96c-0.7-0.16-1.85-0.09-2.62-0.07c-0.77,0.02-1.51,0-2.26-0.11c-1.68-0.25-1.76-1.73-2.38-2.15
		c0.24-0.06,0.48-0.1,0.72,0.01c-0.27-0.58-0.44-0.76-0.85-1.34c-0.42-0.58-0.64-2.33-0.72-3.2c-0.08-0.87-0.17-1.69-0.35-2.73
		c-0.19-1.04-0.03-3.5,0.21-4.4c0.24-0.9,0.32,0.47,0.37,0.41c0.24-0.63,0.32-0.97,0.36-1.76c0.05-0.8,0.2-2.2-0.08-3.07
		c0.21,0.05,0.38,0.19,0.49,0.39c0.1-1.01,0.27-2.08,0.07-3.09c-0.2-1.01-0.43-2.41-0.21-3.31c0.23-0.9,0.42-1.26,0.38-2.09
		c-0.04-0.83-0.42-1.62-0.67-2.4c0.36,0.01,0.86,0.29,1.06,0.5c0.19,0.22,0.68-0.79,1-0.89c0.32-0.1,1.17-0.07,1.35,0.33
		c0.18,0.4-0.09,0.6-0.24,0.9c0.6-0.04,1.16-0.23,1.68-0.57c0.51-0.35,1.11-0.43,1.57-0.13c0.46,0.3,0.18,0.61,0.14,0.98
		c0.88-0.05,1.89-0.17,2.73-0.42c0.83-0.25,1.53-0.28,2.34-0.16c0.81,0.11,1.79,0.34,2.52,0.35c0.72,0.01,1.05-0.15,1.58-0.53
		c-0.37,0.6-0.76,1.16-1.29,1.61c1.22-0.66,2.6-1.34,3.5-2.45c-0.05,0.76-0.11,1.59-0.59,2.2c0.67-0.42,1.04-0.83,1.64-1.42
		c0.6-0.59,1.93-0.38,2.71,0.01c0.77,0.39,1.82,0.1,2.55-0.37c0.73-0.47,1.4-1.02,2.09-1.54c-0.17,0.43-0.35,0.86-0.59,1.24
		c0.49-0.36,1.12-0.85,1.52-1.25c0.4-0.4,0.72-0.8,1.21-0.86c0.49-0.06,0.99,0.32,0.96,0.76c-0.02,0.45-0.32,0.72-0.51,1.07
		c0.39-0.09,0.66-0.06,0.77,0.44c0.12,0.5-0.16,1.61-0.47,1.94c-0.3,0.33,0.5-0.17,0.69,0.21c0.19,0.38,0.17,1.72-0.21,2.04
		c-0.38,0.32-0.67,0.04-1.01-0.03c0.35,0.37,1.03,0.52,1,1.22c-0.03,0.7-1.24,1.51-1.79,1.9c0.68,0.27,1.75,0.5,2.14,1.19
		c0.39,0.69-0.53,1.22-0.96,1.54c0.68,0.4,2.06,1.1,2.04,2.01s-1.18,1.01-1.77,1.22c0.45,0.43,1.68,1.3,1.41,2.04
		c-0.28,0.75-1.59,0.49-2.18,0.48c0.71,0.55,1.83,0.84,2.11,1.92c0.28,1.07,0.19,2.71,0.85,3.66s0.94,1.3,1.29,2.41
		c0.35,1.12,1.18,3.81,1.72,4.78c0.54,0.97,0.5,1.59,1.04,2.43c0.54,0.83,1.33,1.73,2.33,1.73c1.02,0,2.46,0.02,3.46,0.02
		c1.01,0,2.29,0.02,3.07,0.02c0.78,0,0.93-0.04,1.5-0.12c0.57-0.07,1.07-0.23,1.44-0.68c0.29-0.1,0.59-0.13,0.85,0.07
		c0.11-0.42-0.01-0.77-0.25-1.11c0.3-0.13,0.6-0.22,0.92-0.05c-0.13-0.77-0.36-1.08-1.08-1.58c-0.72-0.5-2.54-0.93-3.33-1.03
		c-0.78-0.11-0.85,0.4-1.44,0.09c-0.59-0.31-0.76-1.12-1.31-1.79c-0.55-0.67-1.21-2.7-1.2-3.82c0.01-1.12-0.05-3.03,0-4.13
		c0.06-1.09-0.09-1.39,0.37-2.35c0.46-0.96,0.95-2.23,0.93-3.38c0.2,0.25,0.31,0.55,0.38,0.86c0.36-0.84,0.75-1.78,0.83-2.68
		c0.08-0.8,0.02-1.53-0.01-2.3c0.05-0.02,0.1-0.03,0.16-0.05c0.23,0.33,0.42,0.67,0.51,1.07c0.06-0.42,0.11-0.84,0.13-1.26
		c0.44-0.12,0.88-0.2,1.27-0.14c0.87,0.12-0.78,0.87-0.56,0.95c0.22,0.08,1.23-0.91,1.6-0.47c0.37,0.43-0.84,1.47-1.16,1.75
		c0.52-0.34,1.22-0.86,1.82-0.91c0.6-0.06,0.43,0.31,0.63,0.68c0.45-0.09,0.98-0.23,1.43-0.12c0.45,0.11,0.45,0.3,0.94,0.44
		s1.22-0.45,1.79-0.36c0.57,0.09-0.3,1.79-0.6,2c0.61-0.33,1.66-0.69,2.25-0.76c0.59-0.07,0.67-0.05,1.16-0.16
		c-0.79,0.52-1.54,1.01-2.39,1.36c0.82-0.13,1.61-0.31,2.39-0.59c-0.59,0.5-1.2,1.01-1.84,1.41c0.42-0.03,2.09,0.09,1.88,0.29
		c0.36,0.28,0.66,0.34,1.11,0.42c0.45,0.07,0.33,0.94,0.53,1.19c0.19,0.25,1.9-0.01,1.61,0.29c-0.29,0.3-0.96,0.71-1.21,1
		c-0.06,0.07,0.39-0.2,0.41,0.04c0.02,0.24-0.44,0.48-0.43,0.59c0.01,0.14,0.29-0.03,0.27,0.3c-0.02,0.33-0.12,0.66-0.05,1.05
		c0.07,0.39,0.49,0.63,0.58,1.09c0.09,0.46-0.15,0.64,0.14,1.23c0.28,0.58,0.67,1.52,1.22,2.15s0.95,0.78,1.55,0.97
		c0.6,0.19,0.18,0.39,0.35,0.68c0.41-0.03,0.56-0.16,0.98-0.35c0.43-0.18,1.46,0.77,1.49,1.27c0.35-0.35,0.63-0.29,0.79-0.88
		c0.15-0.59,0.27-1.12,0-1.83c-0.27-0.71,0.19-1.1,0.01-2.06c-0.18-0.96-0.12-2.05,0.1-3.2c0.21-1.15-0.55-1.06,0.22-2.61
		c0.77-1.55,0.88-4.83,0.72-6.92c-0.16-2.09-1.59-4.18-2.59-5.42c-1-1.24-1.23-1.32-2.14-2.29c0.47,0.2,0.88,0.26,1.34,0.35
		c-0.99-0.58-2.08-1.06-2.99-1.77c-0.65-0.51-1.41-1.14-2.03-1.78c3.98-2.61,6.14-6.04,6.39-6.45c0.32-0.54,0.39-0.46,0.8-0.64
		c0.41-0.18,1.03,0.08,0.97,0.59c0.56-0.16,0.64-0.36,1.35-0.2c0.71,0.17,1.64,0.25,2.51-0.17c0.87-0.42,2.85,0.33,3.64,0.37
		c0.79,0.04,0.77-0.04,1.4-0.08c-0.18,0.32-0.32,0.67-0.62,0.88c0.58,0.04,1.03,0.11,1.63-0.07c0.6-0.18,1.82-0.13,2.27,0.28
		c0.46,0.41,0.33,0.73,0.45,1.2c0.2-0.23,0.61-0.68,0.92-0.55c0.32,0.13,0.24,0.58,0.26,0.84c0.34-0.26,0.85-0.78,1.31-0.61
		c0.46,0.16,0.42,0.9,0.45,1.31c0.29-0.19,0.55-0.46,0.92-0.55c0.7-0.16,0.9,0.49,0.84,1.13c0.95-0.54,1.37-1.04,2.64-1.08
		c1.27-0.04,3.71,0.4,4.96,0.74c1.25,0.34,2.71,0.61,3.64,0.67c0.93,0.06,2.21,0.07,2.33-0.74c0.55,0.05,1.35-0.01,1.83-0.29
		c0.48-0.28,0.54-0.67,0.77-1.05C162.47,101.62,164.87,102.54,164.03,100.36z M141.26,78.57C141.26,78.57,141.26,78.57,141.26,78.57
		L141.26,78.57C141.26,78.57,141.26,78.57,141.26,78.57z"/>
</g>
</svg>
