<?xml version="1.0" encoding="utf-8"?>
<!-- Generator: Adobe Illustrator 27.2.0, SVG Export Plug-In . SVG Version: 6.00 Build 0)  -->
<svg version="1.1" id="Layer_1" xmlns="http://www.w3.org/2000/svg" xmlns:xlink="http://www.w3.org/1999/xlink" x="0px" y="0px"
	 viewBox="0 0 244.46 248.34" style="enable-background:new 0 0 244.46 248.34;" xml:space="preserve">
<style type="text/css">
	.st0{fill:#CE0E2D;}
	.st1{fill:#FFFFFF;}
	.st2{fill:#3D3935;}
	.st3{fill:#BC955C;}
	.st4{fill:#6F7271;}
	.st5{fill:#010101;}
</style>
<g>
	<path class="st0" d="M10.93,239.58c2.51,0,4.39,1.9,4.39,4.32c0,2.49-1.89,4.44-4.39,4.44s-4.39-1.95-4.39-4.44
		C6.54,241.48,8.42,239.58,10.93,239.58z M10.93,246.97c1.53,0,2.78-1.33,2.78-3.07c0-1.67-1.25-2.95-2.78-2.95
		s-2.78,1.28-2.78,2.95C8.15,245.64,9.4,246.97,10.93,246.97z"/>
	<path class="st0" d="M21.6,247.03h1.01v-6.12H21.6v-1.18h3.74c0.62,0,1.13,0.04,1.61,0.18c0.94,0.31,1.56,1.07,1.56,2.27
		c0,1.18-0.62,2.02-1.6,2.35v0.02c0,0,0.25,0.13,0.42,0.44l0.98,1.77c0.12,0.21,0.29,0.27,0.57,0.27h0.27v1.17h-0.99
		c-0.7,0-0.92-0.14-1.18-0.63l-1.21-2.18c-0.18-0.32-0.33-0.43-0.82-0.43h-0.78v2.08h0.98v1.17H21.6V247.03z M25.59,243.7
		c0.82,0,1.36-0.49,1.36-1.4c0-0.55-0.2-0.98-0.67-1.17c-0.24-0.11-0.56-0.16-0.95-0.16h-1.15v2.72H25.59z"/>
	<path class="st0" d="M35.35,247.03h1.01v-6.12h-1.01v-1.18h3.66c0.68,0,1.22,0.04,1.77,0.2c1.65,0.49,2.75,1.95,2.75,4.03
		c0,2.01-1.01,3.45-2.63,3.99c-0.57,0.2-1.17,0.25-1.87,0.25h-3.68V247.03z M38.96,246.94c0.54,0,0.97-0.05,1.38-0.21
		c0.97-0.39,1.58-1.38,1.58-2.77c0-1.43-0.64-2.41-1.64-2.79c-0.43-0.17-0.82-0.19-1.32-0.19h-1.03v5.97H38.96z"/>
	<path class="st0" d="M49.87,247.03h1.01v-6.12h-1.01v-1.18h6.29v2.18h-1.34v-0.93h-2.38v2.33h2.79v1.25h-2.79v2.39H55v-0.95h1.34
		v2.21h-6.47V247.03z"/>
	<path class="st0" d="M62.76,247.03h1.01v-6.12h-1.01v-1.18h3.74c0.62,0,1.13,0.04,1.61,0.18c0.94,0.31,1.56,1.07,1.56,2.27
		c0,1.18-0.62,2.02-1.6,2.35v0.02c0,0,0.25,0.13,0.42,0.44l0.98,1.77c0.12,0.21,0.29,0.27,0.57,0.27h0.27v1.17h-0.99
		c-0.7,0-0.92-0.14-1.18-0.63l-1.21-2.18c-0.18-0.32-0.33-0.43-0.82-0.43h-0.78v2.08h0.98v1.17h-3.56V247.03z M66.74,243.7
		c0.82,0,1.36-0.49,1.36-1.4c0-0.55-0.2-0.98-0.67-1.17c-0.24-0.11-0.56-0.16-0.95-0.16h-1.15v2.72H66.74z"/>
	<path class="st0" d="M89.1,239.58c2.51,0,4.39,1.9,4.39,4.32c0,2.49-1.89,4.44-4.39,4.44c-2.51,0-4.39-1.95-4.39-4.44
		C84.71,241.48,86.6,239.58,89.1,239.58z M89.1,246.97c1.53,0,2.78-1.33,2.78-3.07c0-1.67-1.25-2.95-2.78-2.95
		c-1.53,0-2.78,1.28-2.78,2.95C86.32,245.64,87.57,246.97,89.1,246.97z"/>
	<path class="st0" d="M99.77,247.03h1.01v-6.12h-1.01v-1.18h6.05v2.2h-1.34v-0.87h-2.14v2.44h2.76v1.25h-2.76v2.29h1.12v1.17h-3.7
		V247.03z"/>
	<path class="st0" d="M121.92,247.03h1.01v-6.05h-1.6v1.28h-1.32v-2.53h7.42v2.53h-1.33v-1.28h-1.61v6.05h1.03v1.17h-3.6V247.03z"/>
	<path class="st0" d="M133.6,247.03h1.01v-6.12h-1.01v-1.18h3.6v1.18h-1.03v2.45h3.86v-2.45h-1.03v-1.18h3.6v1.18h-1.01v6.12h1.01
		v1.17h-3.6v-1.17h1.03v-2.42h-3.86v2.42h1.03v1.17h-3.6V247.03z"/>
	<path class="st0" d="M149.06,247.03h1.01v-6.12h-1.01v-1.18h6.29v2.18h-1.34v-0.93h-2.38v2.33h2.79v1.25h-2.79v2.39h2.55v-0.95
		h1.34v2.21h-6.47V247.03z"/>
	<path class="st0" d="M169.73,247.03h0.78l2.54-7.31h1.78l2.54,7.31h0.78v1.17h-3.19v-1.17h0.84l-0.53-1.59h-2.67l-0.53,1.59h0.84
		v1.17h-3.18V247.03z M174.92,244.22l-0.8-2.4c-0.13-0.42-0.16-0.74-0.16-0.74h-0.04c0,0-0.04,0.32-0.16,0.74l-0.81,2.4H174.92z"/>
	<path class="st0" d="M184.14,247.03h1.01v-6.12h-1.01v-1.18h3.74c0.62,0,1.13,0.04,1.61,0.18c0.94,0.31,1.56,1.07,1.56,2.27
		c0,1.18-0.62,2.02-1.6,2.35v0.02c0,0,0.25,0.13,0.42,0.44l0.98,1.77c0.12,0.21,0.29,0.27,0.57,0.27h0.27v1.17h-0.99
		c-0.7,0-0.92-0.14-1.18-0.63l-1.21-2.18c-0.18-0.32-0.33-0.43-0.82-0.43h-0.78v2.08h0.98v1.17h-3.56V247.03z M188.13,243.7
		c0.82,0,1.36-0.49,1.36-1.4c0-0.55-0.2-0.98-0.67-1.17c-0.24-0.11-0.56-0.16-0.95-0.16h-1.15v2.72H188.13z"/>
	<path class="st0" d="M197.89,247.03h1.01v-6.12h-1.01v-1.18h3.74c0.62,0,1.13,0.04,1.61,0.18c0.94,0.31,1.56,1.07,1.56,2.27
		c0,1.18-0.62,2.02-1.6,2.35v0.02c0,0,0.25,0.13,0.42,0.44l0.98,1.77c0.12,0.21,0.29,0.27,0.57,0.27h0.27v1.17h-0.99
		c-0.7,0-0.92-0.14-1.18-0.63l-1.21-2.18c-0.18-0.32-0.33-0.43-0.82-0.43h-0.78v2.08h0.98v1.17h-3.56V247.03z M201.88,243.7
		c0.82,0,1.36-0.49,1.36-1.4c0-0.55-0.2-0.98-0.67-1.17c-0.24-0.11-0.56-0.16-0.95-0.16h-1.15v2.72H201.88z"/>
	<path class="st0" d="M215.92,239.58c2.51,0,4.39,1.9,4.39,4.32c0,2.49-1.89,4.44-4.39,4.44c-2.51,0-4.39-1.95-4.39-4.44
		C211.53,241.48,213.41,239.58,215.92,239.58z M215.92,246.97c1.53,0,2.78-1.33,2.78-3.07c0-1.67-1.25-2.95-2.78-2.95
		s-2.78,1.28-2.78,2.95C213.14,245.64,214.39,246.97,215.92,246.97z"/>
	<path class="st0" d="M226.12,239.72h3.31v1.18h-0.99l1.1,4.83c0.07,0.35,0.1,0.74,0.1,0.74h0.05c0,0,0.04-0.39,0.13-0.74l1.59-6.02
		h1.25l1.59,6.02c0.1,0.35,0.13,0.74,0.13,0.74h0.05c0,0,0.02-0.39,0.1-0.74l1.1-4.83h-0.99v-1.18h3.31v1.18h-0.78l-1.8,7.29h-1.75
		l-1.42-5.35c-0.1-0.35-0.13-0.78-0.13-0.78h-0.04c0,0-0.04,0.43-0.13,0.78l-1.42,5.35h-1.75l-1.8-7.29h-0.78V239.72z"/>
</g>
<g>
	<path d="M9.5,197.64c0.79,0,1.56,0.11,2.31,0.32c0.75,0.18,1.53,0.4,2.31,0.26c1.12-0.2,1.35-1.04,2.21-0.7
		c0.87,0.34,1.64,4.29,1.95,5.13c0.13,0.36,0.04,0.65-0.62,0.37s-2.41-0.98-3.54-1.37c-1.16-0.42-2.43-0.63-3.8-0.63
		c-1.06,0-1.93,0.32-2.62,0.95c-0.72,0.67-1.13,1.55-1.13,2.63c0,3.43,7.56,8.16,8.29,8.78c1.98,1.67,8.13,6.25,4.03,14.66
		c-2.77,5.69-8.75,6.39-10.22,6.32c-1.86-0.09-4.2-0.84-4.83-0.84s-1.32,1.51-1.69,0.42s-1.45-4.11-2.13-6.25
		c-0.28-0.76,1.13,0.44,1.61,0.72c0.48,0.28,1.03,0.61,1.64,1c0.62,0.32,1.3,0.61,2.05,0.9c0.75,0.28,1.64,0.42,2.67,0.42
		c2.05,0,3.7-0.58,4.93-1.74c1.2-1.16,1.9-2.82,1.9-5c0-8.08-13.4-10.58-13.4-19.23c0-1.12,0.27-2.12,0.72-3
		c0.44-0.88,1.04-1.63,1.8-2.27c0.79-0.6,1.64-1.05,2.57-1.37C7.48,197.8,8.48,197.64,9.5,197.64z"/>
	<path d="M68.86,226.86c-0.29,0.25-0.69,0.38-1.03,0.62c-0.38,0.17-0.75,0.34-1.13,0.51c-0.38,0.17-0.82,0.26-1.33,0.26
		c-0.8,0-6.24-0.06-8.6-0.06c-0.59,0-1.1-0.3-1.23-0.94c-0.02-0.18-0.04-0.35-0.04-0.53c0-0.02,0-0.03,0-0.05c0-0.73,0-7.5,0-13.76
		c0-0.27,0.39-0.49,0.63-0.56c0.31-0.1,3.66-0.06,4.52-0.06c2.05,0,3.2,1.33,3.44,1.5c0.24,0.17,0.46,0.26,0.67,0.26
		c0.34,0,0.67-0.26,0.98-0.77c0.34-0.51,0.62-1.11,0.82-1.8c0.21-0.68,0.38-1.35,0.51-2c0.14-0.65,0.21-1.13,0.21-1.44
		c0.03-0.49-1.28,0.77-7.81,0.77c-1.54,0-2.53,0-3.32,0c-0.41,0-0.55-0.25-0.65-0.46c0-2.31,0-4.25,0-5.33
		c0-0.8,0.56-1.35,2.74-1.35c2.8,0,4.18-0.06,4.93,0.07c0.75,0.17,3.2,0.86,3.65,1.03c0.44,0.14,0.7,0.21,0.77,0.21
		c0.27,0,0.48-0.1,0.62-0.31c0.14-0.24,0.21-0.48,0.21-0.72c0-0.21-1.92-4.61-2.82-4.88c-0.83-0.25-0.89,0.56-2.82,0.56
		c-1.59,0-4.37,0-5.63,0h-8.47c-0.45,0-0.72,0.51-0.46,0.88c0.81,1.15,2.09,3.17,2.09,4.54c0,2.02,0,21.6,0,24.02
		c0,1.55-1.12,3.21-1.93,4.21c-0.3,0.36-0.03,0.91,0.44,0.91c0,0,13.37,0,14.02,0c4.24,0,5.29,2.29,5.6,1.49
		c0.1-0.21,2.07-5.84,2.11-6.01C70.67,226.98,70.5,225.48,68.86,226.86z"/>
	<path d="M45.22,198.55c0.3-0.36,0.04-0.91-0.43-0.91h-8.47c-0.45,0-0.72,0.51-0.46,0.88c0.81,1.15,2.09,3.17,2.09,4.54
		c0,0.51,0,3.17,0,5.37c-2.94-0.25-5.88-0.25-8.82,0c0-2.12,0-4.76,0-5.41c0-1.68,1.21-3.44,2.06-4.48c0.3-0.36,0.04-0.91-0.43-0.91
		h-8.47c-0.45,0-0.72,0.51-0.46,0.88c0.81,1.15,2.09,3.17,2.09,4.54c0,2.02,0,21.6,0,24.02c0,1.55-1.12,3.21-1.93,4.21
		c-0.3,0.36-0.03,0.91,0.44,0.91h8.12c0.46,0,0.72-0.52,0.45-0.88c-0.76-1.03-1.85-2.82-1.85-4.61c0-1.5,0-7.69,0-13.4
		c2.95-0.21,5.89-0.22,8.82,0c0,5.94,0,12.46,0,13.79c0,1.55-1.12,3.21-1.93,4.21c-0.3,0.36-0.03,0.91,0.44,0.91h8.12
		c0.46,0,0.72-0.52,0.45-0.88c-0.76-1.03-1.85-2.82-1.85-4.61c0-2.74,0-21.09,0-23.68C43.16,201.35,44.37,199.59,45.22,198.55z"/>
	<path d="M171.38,212.63c-0.17-1.59-0.47-3.12-0.88-4.61c-0.45-1.52-1.02-2.95-1.71-4.3c-0.69-1.35-1.54-2.52-2.54-3.52
		c-1.04-1.04-2.24-1.86-3.62-2.49c-1.35-0.59-2.9-0.88-4.66-0.88c-1.35,0-2.68,0.14-3.99,0.41c-1.31,0.24-1.59,0.33-3.67,0.4h-1.05
		c-0.45,0-0.72,0.51-0.46,0.88c0.81,1.15,2.09,3.17,2.09,4.54v24.02c0,1.55-1.12,3.21-1.93,4.21c-0.3,0.36-0.03,0.91,0.44,0.91h8.12
		c0.46,0,0.72-0.52,0.45-0.88c-0.76-1.03-1.85-2.82-1.85-4.61v-23.68c0-0.82,0.14-1.32,0.32-1.58c1.13-1.37,3.07-0.52,4.03-0.01
		c0.97,0.52,1.79,1.23,2.49,2.12c0.72,0.9,1.31,1.9,1.76,3c0.45,1.14,0.79,2.31,1.04,3.52c0.31,1.21,0.5,2.42,0.57,3.62
		c0.1,1.17,0.16,2.26,0.16,3.26c-0.04,1.97-0.28,4.02-0.72,6.16c-0.45,2.11-1.17,4.06-2.17,5.85c-0.97,1.73-2.26,3.16-3.88,4.3
		c-1.62,1.14-3.64,1.71-6.06,1.71c-0.83,0-1.66-0.09-2.49-0.26c-0.83-0.21-1.57-0.52-2.23-0.93c-0.66-0.45-1.17-1-1.55-1.66
		c-0.41-0.65-0.62-1.45-0.62-2.38c0-0.62,0.24-1.12,0.72-1.5c0.45-0.41,1.9-1.51,0.98-2.74c-0.49-0.68-1.72-1.11-2.95-0.21
		c-0.45,0.35-0.83,0.78-1.14,1.3c-0.35,0.55-0.59,1.14-0.72,1.76c-0.17,0.62-0.26,1.17-0.26,1.66v0.21c0,0.97,0.28,1.95,0.83,2.95
		c0.59,1.1,1.28,2,2.07,2.69c0.52,0.48,1.12,0.88,1.81,1.19c0.72,0.28,1.47,0.52,2.23,0.72c0.79,0.17,1.59,0.28,2.38,0.31
		c0.79,0.07,1.54,0.1,2.23,0.1c2.93,0,5.45-0.64,7.56-1.92c2.07-1.24,3.78-2.87,5.13-4.87c1.35-2.04,2.35-4.3,3-6.78
		c0.62-2.49,0.95-4.99,0.98-7.51v-0.72C171.59,215.2,171.52,213.94,171.38,212.63z"/>
	<path d="M244.34,198.55c0.3-0.36,0.04-0.91-0.43-0.91h-8.47c-0.45,0-0.72,0.51-0.46,0.88c0.81,1.15,2.09,3.17,2.09,4.54
		c0,0.51,0,2.16,0,4.36c-2.94-0.25-5.88-0.25-8.82,0c0-2.12,0-3.75,0-4.4c0-1.68,1.21-3.44,2.06-4.48c0.3-0.36,0.04-0.91-0.43-0.91
		h-8.47c-0.45,0-0.72,0.51-0.46,0.88c0.81,1.15,2.09,3.17,2.09,4.54c0,2.02,0,21.6,0,24.02c0,1.55-1.12,3.21-1.93,4.21
		c-0.3,0.36-0.03,0.91,0.44,0.91h8.12c0.46,0,0.72-0.52,0.45-0.88c-0.76-1.03-1.85-2.82-1.85-4.61c0-1.5,0-7.69,0-13.4
		c2.95-0.21,5.89-0.22,8.82,0c0,5.94,0,12.46,0,13.79c0,1.55-1.12,3.21-1.93,4.21c-0.3,0.36-0.03,0.91,0.44,0.91h8.12
		c0.46,0,0.72-0.52,0.45-0.88c-0.76-1.03-1.85-2.82-1.85-4.61c0-2.74,0-21.09,0-23.68C242.28,201.35,243.49,199.59,244.34,198.55z"
		/>
	<path d="M96.24,198.55c0.3-0.36,0.04-0.91-0.43-0.91h-8.47c-0.45,0-0.72,0.51-0.46,0.88c0.81,1.15,2.09,3.17,2.09,4.54
		c0,0.93,0,5.64,0,10.66c-1.01-1.51-6.84-6.95-7.91-8.72c-0.87-1.44-1.06-2.87-1.07-3c0.34-1.34,1.24-2.63,1.92-3.46
		c0.3-0.36,0.04-0.91-0.43-0.91h-8.47c-0.45,0-0.72,0.51-0.46,0.88c0.81,1.15,2.09,3.17,2.09,4.54c0,2.02,0,21.6,0,24.02
		c0,1.55-1.12,3.21-1.93,4.21c-0.3,0.36-0.03,0.91,0.44,0.91h8.12c0.46,0,0.72-0.52,0.45-0.88c-0.76-1.03-1.85-2.82-1.85-4.61
		c0-1.66,0-9.03,0-15.17c1.43,1.95,5.08,5.67,6.85,7.84c1.45,1.79,2.05,3.81,2.28,4.88c0,1.37,0,2.39,0,2.83
		c0,1.55-1.12,3.21-1.93,4.21c-0.3,0.36-0.03,0.91,0.44,0.91h8.12c0.46,0,0.72-0.52,0.45-0.88c-0.76-1.03-1.85-2.82-1.85-4.61
		c0-2.74,0-21.09,0-23.68C94.18,201.35,95.39,199.59,96.24,198.55z"/>
	<path d="M121.59,198.5c0.3-0.36,0.04-0.91-0.43-0.91h-8.47c-0.01,0-0.02,0.01-0.04,0.01c-2.72,0-6.05-0.01-6.55-0.01
		c-1.85,0-3.19-0.81-3.92-0.81c-0.31,0-0.58,0.19-0.82,0.56c-0.27,0.38-1.33,3.81-1.39,4c-0.12,0.44,0.11,0.93,0.46,1.03
		c0.35,0.09,0.6-0.1,0.98-0.31c1.15-0.64,2.41-1.08,3.03-1.28c0.55-0.15,1.79-0.38,3.41-0.11c-0.69,1.11-1.88,3.34-3.82,7.87
		c-3.61,8.43-4.53,16.55-4.87,18.26c0,0.02,0.01,0.03,0.01,0.05c0,0-0.01,0-0.01,0c0,0-0.25,2.08-1.93,4.44
		c-0.27,0.38-0.03,0.91,0.44,0.91h8.12c0.46,0,0.72-0.52,0.45-0.88c-0.76-1.03-1.85-2.82-1.85-4.61v-0.16c0,0-0.01,0-0.01,0
		c0-0.02,0.01-0.03,0.01-0.05c-0.11-1.25,1.17-8.04,1.49-8.82c0.32-0.78,1.56-1.13,3.71-0.28c2.15,0.85,4.74,0.77,4.74,0.77
		c0,4.22,0,7.92,0,8.88c0,1.55-1.12,3.21-1.93,4.21c-0.3,0.36-0.03,0.91,0.44,0.91h8.12c0.46,0,0.72-0.52,0.45-0.88
		c-0.76-1.03-1.85-2.82-1.85-4.61c0-2.74,0-21.09,0-23.68C119.53,201.3,120.74,199.53,121.59,198.5z M110.02,212.97
		c-1.14-0.34-2.76-0.84-2.76-0.84s3.77-10.85,5.83-10.89c0.88-0.01,1.13,0.87,1.16,1.02c0.03,0.23,0.05,0.47,0.05,0.73
		c0,0.89,0,5.16,0,9.88C113.97,214,111.17,213.31,110.02,212.97z"/>
	<path d="M196.97,202.98c0,2.59,0,20.93,0,23.68c0,1.79-1.09,3.58-1.85,4.61c-0.27,0.37,0,0.88,0.45,0.88h8.12
		c0.47,0,0.73-0.54,0.44-0.91c-0.81-0.99-1.93-2.66-1.93-4.21c0-0.96,0-4.66,0-8.88c0,0,2.59,0.08,4.74-0.77
		c2.15-0.85,3.39-0.5,3.71,0.28c0.32,0.78,1.6,7.57,1.49,8.82c0,0.02,0.01,0.03,0.01,0.05c0,0-0.01,0-0.01,0v0.16
		c0,1.79-1.09,3.58-1.85,4.61c-0.27,0.37,0,0.88,0.45,0.88h8.12c0.47,0,0.71-0.52,0.44-0.91c-1.68-2.35-1.93-4.44-1.93-4.44
		c0,0-0.01,0-0.01,0c0-0.02,0.01-0.03,0.01-0.05c-0.34-1.7-1.26-9.83-4.87-18.26c-1.94-4.54-3.14-6.77-3.82-7.87
		c1.62-0.27,4.23,0.26,4.78,0.41c0.62,0.21,1.88,0.65,3.03,1.28c0.38,0.21,0.62,0.4,0.98,0.31c0.35-0.09,0.58-0.58,0.46-1.03
		c-0.05-0.2-1.11-3.63-1.39-4c-0.24-0.38-0.51-0.56-0.82-0.56c-0.73,0-3.44,0.51-5.29,0.51c-0.5,0-3.83,0.01-6.55,0.01
		c-0.01,0-0.02-0.01-0.04-0.01h-8.47c-0.47,0-0.73,0.54-0.43,0.91C195.76,199.53,196.97,201.3,196.97,202.98z M202.19,212.89
		c0-4.72,0-8.99,0-9.88c0-0.26,0.02-0.5,0.05-0.73c0.04-0.15,0.28-1.04,1.16-1.02c2.06,0.03,5.83,10.89,5.83,10.89
		s-1.61,0.5-2.76,0.84C205.33,213.31,202.53,214,202.19,212.89z"/>
	<path d="M184.19,232.91c-6.16,0-11.15-6.24-11.15-18.04s4.99-18.04,11.15-18.04s11.15,6.43,11.15,18.04
		C195.34,226.48,190.35,232.91,184.19,232.91z M189.89,214.87c0-9.1-2.55-14.15-5.7-14.15s-5.7,4.89-5.7,14.15s2.55,14.15,5.7,14.15
		S189.89,223.98,189.89,214.87z"/>
	<path d="M142.43,230.23v-0.21c0-0.57,0.1-1.21,0.29-1.91c0.15-0.67,0.43-1.36,0.83-2c0.27-0.45,0.61-0.83,0.98-1.18v-21.91
		c0-1.68,1.21-3.44,2.06-4.48c0.3-0.36,0.04-0.91-0.43-0.91h-8.47c-0.45,0-0.72,0.51-0.46,0.88c0.81,1.15,2.09,3.17,2.09,4.54v10.66
		c-1.01-1.51-6.84-6.95-7.91-8.72c-0.87-1.44-1.06-2.87-1.07-3c0.34-1.34,1.24-2.63,1.92-3.46c0.3-0.36,0.04-0.91-0.43-0.91h-8.47
		c-0.45,0-0.72,0.51-0.46,0.88c0.81,1.15,2.09,3.17,2.09,4.54v24.02c0,1.55-1.12,3.21-1.93,4.21c-0.3,0.36-0.03,0.91,0.44,0.91h8.12
		c0.46,0,0.72-0.52,0.45-0.88c-0.76-1.03-1.85-2.82-1.85-4.61v-15.17c1.43,1.95,5.08,5.67,6.85,7.84c1.45,1.79,2.05,3.81,2.28,4.88
		v2.83c0,1.55-1.12,3.21-1.93,4.21c-0.3,0.36-0.03,0.91,0.44,0.91h4.94C142.55,231.54,142.43,230.88,142.43,230.23z"/>
</g>
<g>
	<g>
		<path class="st1" d="M212.18,123.17c-6.97-41.06-54.81-93.78-54.81-93.78S132.13,3.37,122.72,3.37c-0.17,0-0.81,0-0.98,0
			c-9.41,0-34.65,26.02-34.65,26.02s-47.84,52.72-54.81,93.78s3.64,49.12,10.01,46.89c6.37-2.23,41.1-13.84,42.24-7.93
			c1.14,5.92-10.3,22.58-6.58,22.58c2.64,0,26.12,0,39.59,0c0,0,3.86,0,9.4,0c13.47,0,36.95,0,39.59,0c3.72,0-7.73-16.66-6.58-22.58
			c1.14-5.92,35.88,5.69,42.24,7.93C208.54,172.29,219.15,164.23,212.18,123.17z"/>
		<path class="st0" d="M166.52,188.09H77.95c-1.44,0-2.69-0.67-3.44-1.84c-1.64-2.56-0.12-5.87,2.64-11.88
			c1.33-2.9,3.66-7.96,4.05-10.55c-4.73-0.46-21.17,3.58-37.79,9.41c-3.24,1.14-6.71,0.43-9.51-1.93c-5.27-4.45-10.4-16.5-4.94-48.7
			c7.05-41.55,53.66-93.3,55.64-95.48l0.08-0.08C89.05,22.53,111.43,0,121.74,0h0.98c10.31,0,32.69,22.53,37.07,27.05l0.08,0.08
			c1.98,2.18,48.59,53.93,55.64,95.48l0,0c5.46,32.2,0.33,44.26-4.94,48.7c-2.8,2.36-6.26,3.07-9.51,1.93
			c-16.62-5.83-33.06-9.87-37.79-9.41c0.39,2.59,2.72,7.64,4.05,10.54c2.76,6.01,4.28,9.32,2.64,11.88
			C169.21,187.42,167.96,188.09,166.52,188.09z M81.42,181.34h81.62c-0.55-1.31-1.26-2.86-1.85-4.15
			c-3.13-6.82-5.29-11.94-4.57-15.7c0.27-1.4,1.14-2.59,2.45-3.35c2.32-1.33,6.88-2.11,23.1,2.21c10.2,2.72,20.03,6.14,21.11,6.52
			c0.97,0.34,1.96,0.1,2.93-0.72c2.02-1.7,8.18-9.8,2.64-42.42l0,0c-2.77-16.3-12.95-37.36-29.46-60.92
			c-12.22-17.44-23.76-30.31-24.49-31.12C138.2,14.49,126.03,6.75,122.72,6.75h-0.98c-3.31,0-15.48,7.74-32.19,24.96
			c-0.73,0.81-12.31,13.73-24.54,31.19c-16.48,23.52-26.65,44.56-29.41,60.85c-5.54,32.62,0.62,40.72,2.64,42.42
			c0.97,0.82,1.96,1.06,2.93,0.72c1.09-0.38,10.91-3.8,21.11-6.52c16.22-4.32,20.78-3.54,23.1-2.21c1.31,0.75,2.18,1.94,2.45,3.35
			c0.73,3.76-1.44,8.88-4.57,15.7C82.68,178.49,81.97,180.04,81.42,181.34z"/>
	</g>
	<g>
		<g>
			<path d="M110.28,17.51c0.76,0.06,1.52,0.07,2.3,0.06c0.78-0.04,1.56-0.06,2.34-0.06c0.97,0,1.87,0.06,2.7,0.19
				c-0.05,0.26-0.18,0.48-0.4,0.66c-0.24,0.2-0.5,0.39-0.77,0.58c-0.29,0.2-0.55,0.39-0.77,0.58c-0.22,0.18-0.33,0.39-0.33,0.63
				c0,0.09,0,0.16,0,0.22c0.02,0.06,0.05,0.12,0.07,0.19c0.34,1.45,0.71,2.95,1.1,4.5c0.39,1.56,0.67,3.06,0.84,4.53
				c0.1,0,0.23,0,0.4,0c0.12-0.24,0.28-0.57,0.47-0.99c0.2-0.42,0.41-0.88,0.66-1.37c0.27-0.51,0.56-1.04,0.88-1.59
				c0.29-0.57,0.57-1.09,0.84-1.56c0.32-0.49,0.61-0.91,0.88-1.26c0.27-0.37,0.5-0.62,0.7-0.77c0.51,0.4,0.96,0.97,1.35,1.7
				c0.39,0.73,0.74,1.51,1.06,2.33c0.34,0.79,0.67,1.52,0.99,2.2c0.34,0.7,0.69,1.19,1.06,1.48c0.07-0.2,0.18-0.57,0.33-1.1
				c0.12-0.53,0.27-1.14,0.44-1.84c0.17-0.71,0.34-1.46,0.51-2.25c0.17-0.79,0.32-1.53,0.44-2.22c0.15-0.69,0.27-1.3,0.37-1.81
				c0.12-0.51,0.18-0.85,0.18-1.02s-0.07-0.32-0.22-0.47c-0.15-0.16-0.32-0.31-0.51-0.44c-0.2-0.15-0.39-0.28-0.58-0.41
				c-0.2-0.11-0.38-0.24-0.55-0.38c0.29-0.09,0.57-0.16,0.84-0.19c0.27-0.04,0.54-0.05,0.8-0.05c0.85,0,2.13,0,3.84,0
				c0.27,0,0.54,0.02,0.8,0.05c0.29,0.04,0.57,0.1,0.84,0.19c-0.15,0.4-0.41,0.73-0.8,0.99c-0.37,0.27-0.74,0.53-1.13,0.77
				c-0.07,0.15-0.21,0.59-0.4,1.32c-0.2,0.71-0.41,1.56-0.66,2.55c-0.25,1.01-0.5,2.08-0.77,3.21c-0.27,1.12-0.51,2.18-0.73,3.18
				c-0.2,0.99-0.37,1.84-0.51,2.55c-0.15,0.71-0.22,1.13-0.22,1.26c0,0.11,0.07,0.26,0.22,0.44c0.15,0.2,0.32,0.4,0.51,0.6
				c0.2,0.18,0.39,0.38,0.58,0.58c0.22,0.2,0.38,0.37,0.48,0.52c-1,0.15-2,0.2-3,0.16c-1-0.04-1.99-0.03-2.96,0.03
				c-0.15-0.04-0.34-0.08-0.58-0.14c-0.24-0.05-0.37-0.15-0.37-0.3c0-0.11,0.07-0.22,0.22-0.33c0.17-0.13,0.34-0.26,0.51-0.41
				c0.17-0.16,0.33-0.33,0.48-0.49c0.15-0.18,0.23-0.37,0.25-0.58c-0.24-0.49-0.5-1.02-0.77-1.59c-0.25-0.59-0.51-1.17-0.8-1.76
				c-0.27-0.6-0.54-1.19-0.8-1.76c-0.27-0.59-0.51-1.13-0.73-1.62c-0.07,0-0.21,0-0.4,0c-0.15,0.24-0.39,0.7-0.73,1.37
				c-0.34,0.68-0.7,1.4-1.06,2.17c-0.34,0.77-0.66,1.48-0.95,2.14c-0.29,0.64-0.44,1.04-0.44,1.21c0,0.05,0.01,0.13,0.04,0.22
				c0.27,0.31,0.6,0.57,0.99,0.77c0.39,0.18,0.68,0.45,0.88,0.8c-0.44,0.16-0.96,0.26-1.57,0.27c-0.61,0.02-1.17,0.03-1.68,0.03
				c-0.56,0-1.21,0.01-1.94,0.03c-0.02,0-0.06,0-0.11,0c-0.66,0-1.26-0.07-1.79-0.22c0.05-0.24,0.17-0.45,0.36-0.63
				c0.2-0.18,0.39-0.35,0.59-0.49c0.22-0.16,0.43-0.34,0.62-0.52c0.2-0.18,0.29-0.39,0.29-0.63c0-0.16-0.07-0.58-0.22-1.23
				c-0.15-0.66-0.33-1.37-0.55-2.14c-0.17-0.79-0.34-1.53-0.51-2.22c-0.17-0.71-0.29-1.2-0.36-1.45c-0.27-1.01-0.52-2.02-0.77-3.05
				c-0.22-1.01-0.46-2.01-0.73-3.02c-0.07-0.24-0.22-0.47-0.44-0.69c-0.24-0.22-0.49-0.43-0.73-0.63c-0.22-0.22-0.43-0.4-0.62-0.55
				c-0.22-0.16-0.33-0.29-0.33-0.38c0-0.11,0.04-0.22,0.11-0.33C110.18,17.71,110.23,17.61,110.28,17.51z"/>
		</g>
	</g>
	<g>
		<g>
			<g>
				<path d="M36.17,136.76c0.76,0.06,1.52,0.07,2.3,0.06c0.78-0.04,1.56-0.06,2.34-0.06c0.97,0,1.87,0.06,2.7,0.19
					c-0.05,0.26-0.18,0.48-0.4,0.66c-0.24,0.2-0.5,0.39-0.77,0.58c-0.29,0.2-0.55,0.39-0.77,0.58c-0.22,0.18-0.33,0.39-0.33,0.63
					c0,0.09,0,0.16,0,0.22c0.02,0.06,0.05,0.12,0.07,0.19c0.34,1.45,0.71,2.95,1.1,4.5c0.39,1.56,0.67,3.06,0.84,4.53
					c0.1,0,0.23,0,0.4,0c0.12-0.24,0.28-0.57,0.47-0.99c0.2-0.42,0.41-0.88,0.66-1.37c0.27-0.51,0.56-1.04,0.88-1.59
					c0.29-0.57,0.57-1.09,0.84-1.56c0.32-0.49,0.61-0.91,0.88-1.26c0.27-0.37,0.5-0.62,0.7-0.77c0.51,0.4,0.96,0.97,1.35,1.7
					c0.39,0.73,0.74,1.51,1.06,2.33c0.34,0.79,0.67,1.52,0.99,2.2c0.34,0.7,0.69,1.19,1.06,1.48c0.07-0.2,0.18-0.57,0.33-1.1
					c0.12-0.53,0.27-1.14,0.44-1.84c0.17-0.71,0.34-1.46,0.51-2.25c0.17-0.79,0.32-1.53,0.44-2.22c0.15-0.69,0.27-1.3,0.37-1.81
					c0.12-0.51,0.18-0.85,0.18-1.02s-0.07-0.32-0.22-0.47c-0.15-0.16-0.32-0.31-0.51-0.44c-0.2-0.15-0.39-0.28-0.58-0.41
					c-0.2-0.11-0.38-0.24-0.55-0.38c0.29-0.09,0.57-0.16,0.84-0.19c0.27-0.04,0.54-0.05,0.8-0.05c0.85,0,2.13,0,3.84,0
					c0.27,0,0.54,0.02,0.8,0.05c0.29,0.04,0.57,0.1,0.84,0.19c-0.15,0.4-0.41,0.73-0.8,0.99c-0.37,0.27-0.74,0.53-1.13,0.77
					c-0.07,0.15-0.21,0.59-0.4,1.32c-0.2,0.71-0.41,1.56-0.66,2.55c-0.25,1.01-0.5,2.08-0.77,3.21c-0.27,1.12-0.51,2.18-0.73,3.18
					c-0.2,0.99-0.37,1.84-0.51,2.55c-0.15,0.71-0.22,1.13-0.22,1.26c0,0.11,0.07,0.26,0.22,0.44c0.15,0.2,0.32,0.4,0.51,0.6
					c0.2,0.18,0.39,0.38,0.58,0.58c0.22,0.2,0.38,0.37,0.48,0.52c-1,0.15-2,0.2-3,0.16c-1-0.04-1.99-0.03-2.96,0.03
					c-0.15-0.04-0.34-0.08-0.58-0.14c-0.24-0.05-0.37-0.15-0.37-0.3c0-0.11,0.07-0.22,0.22-0.33c0.17-0.13,0.34-0.26,0.51-0.41
					c0.17-0.16,0.33-0.33,0.48-0.49c0.15-0.18,0.23-0.37,0.26-0.58c-0.24-0.49-0.5-1.02-0.77-1.59c-0.25-0.59-0.51-1.17-0.8-1.76
					c-0.27-0.6-0.54-1.19-0.8-1.76c-0.27-0.59-0.51-1.13-0.73-1.62c-0.07,0-0.21,0-0.4,0c-0.15,0.24-0.39,0.7-0.73,1.37
					c-0.34,0.68-0.7,1.4-1.06,2.17c-0.34,0.77-0.66,1.48-0.95,2.14c-0.29,0.64-0.44,1.04-0.44,1.21c0,0.05,0.01,0.13,0.04,0.22
					c0.27,0.31,0.6,0.57,0.99,0.77c0.39,0.18,0.68,0.45,0.88,0.8c-0.44,0.16-0.96,0.26-1.57,0.27c-0.61,0.02-1.17,0.03-1.68,0.03
					c-0.56,0-1.21,0.01-1.94,0.03c-0.02,0-0.06,0-0.11,0c-0.66,0-1.26-0.07-1.79-0.22c0.05-0.24,0.17-0.45,0.36-0.63
					c0.2-0.18,0.39-0.35,0.59-0.49c0.22-0.16,0.43-0.34,0.62-0.52c0.2-0.18,0.29-0.39,0.29-0.63c0-0.16-0.07-0.58-0.22-1.23
					c-0.15-0.66-0.33-1.37-0.55-2.14c-0.17-0.79-0.34-1.53-0.51-2.22c-0.17-0.71-0.29-1.2-0.36-1.45c-0.27-1.01-0.52-2.02-0.77-3.05
					c-0.22-1.01-0.46-2.01-0.73-3.02c-0.07-0.24-0.22-0.47-0.44-0.69c-0.24-0.22-0.49-0.43-0.73-0.63c-0.22-0.22-0.43-0.4-0.62-0.55
					c-0.22-0.16-0.33-0.29-0.33-0.38c0-0.11,0.04-0.22,0.11-0.33C36.07,136.95,36.12,136.85,36.17,136.76z"/>
			</g>
		</g>
		<g>
			<g>
				<path d="M183.63,136.76c0.76,0.06,1.52,0.07,2.3,0.06c0.78-0.04,1.56-0.06,2.34-0.06c0.97,0,1.87,0.06,2.7,0.19
					c-0.05,0.26-0.18,0.48-0.4,0.66c-0.24,0.2-0.5,0.39-0.77,0.58c-0.29,0.2-0.55,0.39-0.77,0.58c-0.22,0.18-0.33,0.39-0.33,0.63
					c0,0.09,0,0.16,0,0.22c0.02,0.06,0.05,0.12,0.07,0.19c0.34,1.45,0.71,2.95,1.1,4.5c0.39,1.56,0.67,3.06,0.84,4.53
					c0.1,0,0.23,0,0.4,0c0.12-0.24,0.28-0.57,0.47-0.99c0.2-0.42,0.41-0.88,0.66-1.37c0.27-0.51,0.56-1.04,0.88-1.59
					c0.29-0.57,0.57-1.09,0.84-1.56c0.32-0.49,0.61-0.91,0.88-1.26c0.27-0.37,0.5-0.62,0.7-0.77c0.51,0.4,0.96,0.97,1.35,1.7
					c0.39,0.73,0.74,1.51,1.06,2.33c0.34,0.79,0.67,1.52,0.99,2.2c0.34,0.7,0.69,1.19,1.06,1.48c0.07-0.2,0.18-0.57,0.33-1.1
					c0.12-0.53,0.27-1.14,0.44-1.84c0.17-0.71,0.34-1.46,0.51-2.25c0.17-0.79,0.32-1.53,0.44-2.22c0.15-0.69,0.27-1.3,0.37-1.81
					c0.12-0.51,0.18-0.85,0.18-1.02s-0.07-0.32-0.22-0.47c-0.15-0.16-0.32-0.31-0.51-0.44c-0.2-0.15-0.39-0.28-0.58-0.41
					c-0.2-0.11-0.38-0.24-0.55-0.38c0.29-0.09,0.57-0.16,0.84-0.19c0.27-0.04,0.54-0.05,0.8-0.05c0.85,0,2.13,0,3.84,0
					c0.27,0,0.54,0.02,0.8,0.05c0.29,0.04,0.57,0.1,0.84,0.19c-0.15,0.4-0.41,0.73-0.8,0.99c-0.37,0.27-0.74,0.53-1.13,0.77
					c-0.07,0.15-0.21,0.59-0.4,1.32c-0.2,0.71-0.41,1.56-0.66,2.55c-0.25,1.01-0.5,2.08-0.77,3.21c-0.27,1.12-0.51,2.18-0.73,3.18
					c-0.2,0.99-0.37,1.84-0.51,2.55c-0.15,0.71-0.22,1.13-0.22,1.26c0,0.11,0.07,0.26,0.22,0.44c0.15,0.2,0.32,0.4,0.51,0.6
					c0.2,0.18,0.39,0.38,0.58,0.58c0.22,0.2,0.38,0.37,0.48,0.52c-1,0.15-2,0.2-3,0.16c-1-0.04-1.99-0.03-2.96,0.03
					c-0.15-0.04-0.34-0.08-0.58-0.14c-0.24-0.05-0.37-0.15-0.37-0.3c0-0.11,0.07-0.22,0.22-0.33c0.17-0.13,0.34-0.26,0.51-0.41
					c0.17-0.16,0.33-0.33,0.48-0.49c0.15-0.18,0.23-0.37,0.25-0.58c-0.24-0.49-0.5-1.02-0.77-1.59c-0.25-0.59-0.51-1.17-0.8-1.76
					c-0.27-0.6-0.54-1.19-0.8-1.76c-0.27-0.59-0.51-1.13-0.73-1.62c-0.07,0-0.21,0-0.4,0c-0.15,0.24-0.39,0.7-0.73,1.37
					c-0.34,0.68-0.7,1.4-1.06,2.17c-0.34,0.77-0.66,1.48-0.95,2.14c-0.29,0.64-0.44,1.04-0.44,1.21c0,0.05,0.01,0.13,0.04,0.22
					c0.27,0.31,0.6,0.57,0.99,0.77c0.39,0.18,0.68,0.45,0.88,0.8c-0.44,0.16-0.96,0.26-1.57,0.27c-0.61,0.02-1.17,0.03-1.68,0.03
					c-0.56,0-1.21,0.01-1.94,0.03c-0.02,0-0.06,0-0.11,0c-0.66,0-1.26-0.07-1.79-0.22c0.05-0.24,0.17-0.45,0.36-0.63
					c0.2-0.18,0.39-0.35,0.59-0.49c0.22-0.16,0.43-0.34,0.62-0.52c0.2-0.18,0.29-0.39,0.29-0.63c0-0.16-0.07-0.58-0.22-1.23
					c-0.15-0.66-0.33-1.37-0.55-2.14c-0.17-0.79-0.34-1.53-0.51-2.22c-0.17-0.71-0.29-1.2-0.36-1.45c-0.27-1.01-0.52-2.02-0.77-3.05
					c-0.22-1.01-0.46-2.01-0.73-3.02c-0.07-0.24-0.22-0.47-0.44-0.69c-0.24-0.22-0.49-0.43-0.73-0.63c-0.22-0.22-0.43-0.4-0.62-0.55
					c-0.22-0.16-0.33-0.29-0.33-0.38c0-0.11,0.04-0.22,0.11-0.33C183.53,136.95,183.58,136.85,183.63,136.76z"/>
			</g>
		</g>
	</g>
	<g>
		<g>
			<g>
				<path d="M155.52,145.78c-2.25-1.14-5.25-0.35-7.65-1.05c-1.01-0.3-2.04-0.59-3.06-0.84c-1.97-0.46-3.99-0.59-6-0.51
					c-3.26,0.13-6.22-1.58-9.4-0.85c-1.18,0.27-1.97,0.33-3.1,0.81c-0.39,0.17-2.6-0.25-2.98,0.02c0.11,18.45,0.5,32.54,0.75,33.64
					c0.09,0.41,0.45,2.49,1.03,3.69c0.45,0.94,1.03,3.66,1.22,3.98s0.23-0.99,0.38-2c0.16-1.01,0.9-3.67,1.88-4.88
					c0.97-1.21,4.11-3.64,4.52-3.89c0.41-0.24-0.32,1.09-0.84,1.83c-0.52,0.75-2.73,2.66-3.3,3.93c-0.56,1.28-0.43,2.92-0.34,2.61
					c0.09-0.31,1.83-3.23,3.3-4.05c1.47-0.82,5.53-2.9,7.09-4.22c1.56-1.33,2.82-4.49,2.96-4.68c0.14-0.19,2.39,0.75,1.95,2.01
					c-0.58,1.68-3.77,3.42-3.61,3.47c0.16,0.05,6.19,0.37,10.54-4.31c0.44-0.48-0.82,2.23-0.25,1.82c1.34-0.98,5.42-4.31,7.04-7.83
					c1.71-3.71-0.5-11.82-0.36-11.66c2.61,3,1.72,9.64,1.99,9.69s2.67-7.93,0.86-13.63C159.11,147.21,157.09,146.58,155.52,145.78z"
					/>
				<path d="M129.51,184.7c0.23,0.19,1.6-2.01,2.5-2.88c0.89-0.87,2.01-1.96,1.86-1.52s-1.6,2.67-1.32,2.8s2.34-2.42,3.34-3.54
					c0.99-1.12,4-4.24,3.72-4.24s-1.38,0.95-2.98,1.74c-1.6,0.79-3.49,1.99-4.58,3.16C130.94,181.39,129.51,184.7,129.51,184.7z"/>
				<path d="M123.27,46.49c0,0-7.37-2.33-9.76-2.42c-2.39-0.09-3.05,0.28-3.05,0.28s1.44,0.68,0.96,0.78
					c-0.48,0.1-2.13-0.64-4.18-0.55c-2.05,0.09-4.4,0.98-4.09,1.02s2.09,0.23,1.44,0.37c-0.65,0.14-4.23,0.27-4.63,0.52
					c-0.41,0.26,1.82,0.28,1.82,0.72c0,0.43-0.67,0.31-1.53,0.28c-0.86-0.03-2.1-0.16-2.89,0.04s-7.81,4.1-11.18,8.51
					c-3.38,4.41-11.26,14.36-12.35,16.01c-1.09,1.65-2.4,4.16-2,3.85c0.4-0.31,3.44-3.55,3.03-2.81c-0.4,0.73-3.31,4.81-2.79,4.45
					c0.52-0.36,2.97-2.54,2.56-1.9c-0.41,0.63-2.78,2.93-4.31,4.68c-1.52,1.75-3.23,4.52-2.67,4.05s4.05-4.28,3.68-3.61
					c-0.37,0.67-5.79,7.5-5.42,7.26c0.37-0.24,5.23-5.39,4.68-4.68c-0.56,0.71-5.72,8.61-5.46,9.12c0.26,0.52,1.71-2.02,2.34-2.42
					s-2.26,3.25-1.78,3.01c0.48-0.24,3.68-3.49,3.42-2.93c-0.26,0.56-3.29,3.57-3.98,5.63c-0.7,2.06-0.36,4.2-0.18,3.85
					s1.93-4.09,2-3.65c0.07,0.44-0.41,2.22-0.89,3.13c-0.48,0.91-2.3,2.62-2.19,2.82s2.19-1.59,2.49-2.26
					c0.3-0.67-1.78,3.85-2.3,4.36c-0.52,0.52,1.82-1.51,2.3-2.58c0.48-1.07-1.13,5.49-1.49,6.45c-0.36,0.96-0.84,1.76-0.69,1.74
					s1.55-1.72,1.94-2.83s-0.92,3.44-1.61,5.53s-0.56,5.62-0.42,5.35c0.15-0.27,0.9-3.61,1.32-3.99c0,0-1.02,5.11-0.84,7.7
					c0.19,2.59,0.52-1.61,1.23-4.02c0.71-2.41,1.63-3.79,1.71-3.77c0.08,0.02-0.77,3.93-0.81,8.37c-0.04,4.44,0.63,6.07,0.67,5.73
					c0.04-0.33,1.04-5.89,1.61-7.76c0.56-1.87,2.51-5.13,2.23-4.33c-0.27,0.8-1.82,5.49-2.26,9.97c-0.44,4.48,0.19,10.24,0.33,10.35
					s0.84-5.29,1.13-6.78c0.29-1.49,0.61-2.61,0.63-1.72c0.02,0.89,0.23,3.99,0.36,7.43c0.13,3.44-0.27,8.81-0.19,8.9
					s0.84-1.87,1.17-3.55c0.33-1.67,0.77-4.89,0.9-4.95c0.13-0.07-0.56,4.22,0.33,9.19c0.9,4.98,4.13,7.25,4.2,7.07
					c0.06-0.18-0.4-2.99-0.44-4.48c-0.04-1.49,0.48-4.37,0.5-3.66c0.02,0.71,0.13,5.35,0.98,8.28c0.86,2.92,1.88,4.51,1.8,3.97
					c-0.08-0.54-0.5-4.95-0.25-6.94c0.25-1.99,0.77-3.01,0.75-2.59c-0.02,0.42-0.06,5.51,0.58,8.01c0.65,2.5,1.36,3.64,1.27,3.06
					c-0.08-0.58-0.38-4.98-0.08-4.95s0.21,2.89,1.21,5.1c1,2.22,1.67,2.77,1.59,2.28c-0.08-0.49-0.71-2.48-0.81-4.44
					c-0.1-1.96,0.02-2.63,0.17-2.61c0.15,0.02-0.16,2.37,1.36,4.42c1.67,2.26,1.07,4.45,1.17,4.32c0.1-0.13,1.09-2.06-0.04-4.36
					c-0.8-1.62-0.81-4.75-0.63-4.6c0.19,0.16,0.52,3.19,1.67,4.95c0.39,0.6,0.41,0.52,0.98,1.16c1.06,1.2-0.48,3.6-0.12,3.47
					c1.99-0.71,1.89-2.56,1.89-2.56c0.79,0.59-1.05,4.08-3.66,5.79c-3.18,2.08-1.46,8.45-1.44,8.2c0.72-9.76,11.66-11.15,13.66-8.59
					s1.46,7.81,0.19,10.28c-0.65,1.28,4.34-5.02,3.25-7c-1.09-1.99-1.92-3.66-1.8-3.79c0.13-0.13,1.4,1.76,2.32,3.21
					c0.92,1.45-1.59,6.09-1.04,7.91c0.71,2.37,3.14,2.84,3.28,2.7c0,0-1.82-1.4-1.66-2.95c0.15-1.51,2.78-6.88,2.97-6.91
					c0.19-0.02,0.13,6.08,1.59,9.2c1.46,3.12,4.64,3.42,4.81,3.28s-5.02-3.79-2.12-7.55c0.2-0.26,1.4,2.63,1.5,2.54
					c0.1-0.09-0.13-2.36,0-2.45c0.13-0.09,0.3,3.8,2.24,6.09c1.94,2.29,5.36,4.26,5.59,4.04c0.23-0.22-4.41-4.71-2.13-6.22
					c0.17-0.11,2.4,3.52,2.66,3.35s-0.58-2.61-0.42-2.71c0.16-0.1,2.47,3.82,2.73,3.62s-1.76-5.91-1.56-6.05s1.11,2.96,1.3,2.82
					s-0.88-4.83-0.59-4.87c0.29-0.03,1.27,5.63,1.53,5.67L123.27,46.49z"/>
				<path d="M97.8,47.8c0,0-3.33-5.33-3.55-5.37c-0.22-0.04,0.16,1.67,0,1.89c-0.16,0.22-2.76-4-3.07-3.85
					c-0.31,0.15,0.76,1.59,0.49,1.67c-0.28,0.07-2.5-2.81-4.06-4.15c-1.56-1.33-3.85-2.19-3.92-2s2.81,3.19,2.57,3.3
					c-0.24,0.11-3.4-2.67-7.28-4.11c-3.88-1.44-5.2-1.56-5.27-1.37s3.36,2.26,2.88,2.26s-2.57-0.81-5.06-0.74
					c-2.5,0.07-3.22,0.19-3.09,0.41c0.14,0.22,1.21,1.15,1.01,1.19c-0.21,0.04-2.11-0.44-2.18-0.3c-0.07,0.15,1.11,1.48,1.01,1.63
					s-3.36,0.41-3.36,0.59s1.46,1.48,1.32,1.52c-0.14,0.04-1.77,0.04-1.73,0.22s2.22,0.89,2.01,1.07s-1.84-0.15-2.01,0.07
					c-0.17,0.22,0.73,0.89,0.56,0.93c-0.17,0.04-0.9-0.33-1.01-0.04c-0.1,0.3,0.45,1,0.31,1.11s-0.76-0.56-0.8-0.22
					c-0.03,0.33,1.21,3.07,1.07,3.22c-0.14,0.15-0.65-0.85-0.74-0.63c-0.09,0.22,0.25,1.15,0.19,1.26
					c-0.07,0.11-0.38-0.41-0.52-0.26c-0.14,0.15-0.23,3.15,0.34,4.37c0.57,1.22,1.29,2.7,1.16,2.85c-0.14,0.15-0.73-1.26-0.87-0.93
					c-0.14,0.33,1.39,3.44,1.56,3.7s-0.9-0.52-0.97-0.26s0.8,2,2.25,3.7c1.46,1.7,3.02,3.07,2.84,3.15s-0.9-0.22-0.97,0
					s1.63,2.19,2.91,3.56c1.28,1.37,3.88,3.59,3.88,3.59L97.8,47.8z"/>
				<path d="M147.85,47.8c0,0,3.33-5.33,3.55-5.37c0.22-0.04-0.16,1.67,0,1.89c0.16,0.22,2.76-4,3.07-3.85
					c0.31,0.15-0.76,1.59-0.49,1.67c0.28,0.07,2.5-2.81,4.06-4.15c1.56-1.33,3.85-2.19,3.92-2s-2.81,3.19-2.57,3.3
					c0.24,0.11,3.4-2.67,7.28-4.11c3.88-1.44,5.2-1.56,5.27-1.37s-3.36,2.26-2.88,2.26s2.57-0.81,5.06-0.74s3.22,0.19,3.09,0.41
					c-0.14,0.22-1.21,1.15-1.01,1.19c0.21,0.04,2.11-0.44,2.18-0.3c0.07,0.15-1.11,1.48-1.01,1.63s3.36,0.41,3.36,0.59
					s-1.46,1.48-1.32,1.52s1.77,0.04,1.73,0.22s-2.22,0.89-2.01,1.07s1.84-0.15,2.01,0.07c0.17,0.22-0.73,0.89-0.56,0.93
					c0.17,0.04,0.9-0.33,1.01-0.04c0.1,0.3-0.45,1-0.31,1.11s0.76-0.56,0.8-0.22c0.03,0.33-1.21,3.07-1.07,3.22
					c0.14,0.15,0.65-0.85,0.74-0.63c0.09,0.22-0.25,1.15-0.19,1.26c0.07,0.11,0.38-0.41,0.52-0.26c0.14,0.15,0.23,3.15-0.34,4.37
					c-0.57,1.22-1.29,2.7-1.16,2.85c0.14,0.15,0.73-1.26,0.87-0.93c0.14,0.33-1.39,3.44-1.56,3.7s0.9-0.52,0.97-0.26
					s-0.8,2-2.25,3.7c-1.46,1.7-3.02,3.07-2.84,3.15s0.9-0.22,0.97,0s-1.63,2.19-2.91,3.56c-1.28,1.37-3.88,3.59-3.88,3.59
					L147.85,47.8z"/>
				<path d="M180.42,106.08c0.4,1.12,1.8,2.81,1.94,2.83c0.15,0.02-0.33-0.78-0.69-1.74c-0.36-0.96-1.97-7.52-1.49-6.45
					c0.48,1.07,2.82,3.09,2.3,2.58c-0.44-0.44-1.99-3.72-2.28-4.33c0.35,0.7,2.35,2.42,2.46,2.22c0.11-0.2-1.71-1.9-2.19-2.82
					s-0.97-2.7-0.89-3.13c0.07-0.44,1.82,3.29,2,3.65c0.19,0.36,0.52-1.78-0.18-3.85c-0.7-2.06-3.72-5.08-3.98-5.63
					c-0.26-0.56,2.93,2.7,3.42,2.94c0.48,0.24-2.41-3.41-1.78-3.01c0.63,0.4,2.08,2.93,2.34,2.42c0.26-0.52-4.9-8.41-5.46-9.12
					c-0.56-0.71,4.31,4.44,4.68,4.68c0.37,0.24-5.05-6.58-5.42-7.26c-0.37-0.67,3.12,3.13,3.68,3.61c0.56,0.48-1.15-2.3-2.67-4.05
					c-1.52-1.75-3.9-4.05-4.31-4.68c-0.41-0.63,2.04,1.55,2.56,1.9c0.52,0.36-2.39-3.71-2.79-4.45s2.63,2.51,3.03,2.81
					c0.4,0.31-0.92-2.2-2-3.85c-1.09-1.65-8.98-11.6-12.35-16.01c-1.36-1.77-3.86-5.77-10.32-7.4c-0.56-0.14-3.12-0.35-3.67-0.15
					c-1.78,0.63-3.98,1.18-5.45,0.87c-7.95-1.69-15.78-2.85-18.06-2.85c-4.79,0-0.58,100.08-0.58,100.08
					c2.73-0.82,5.62-0.7,8.42-0.37c1.39,0.17,2.78,0.39,4.17,0.57c1.53,0.2,3.07,0.27,4.61,0.38c3.05,0.21,6.09,0.46,9.12,0.83
					c5.64,0.68,13.19-2.29,13.98,9.29c1.98-3.13,2.83-10.87,2.81-11.2c-0.02-0.42,0.5,0.6,0.75,2.59c0.13,1,0.08,2.61,0,4.03
					c0.03,0.12,0.02,0.25-0.02,0.36c-0.08,1.25-0.19,2.3-0.23,2.55c-0.08,0.54,0.94-1.05,1.8-3.97c0.86-2.92,0.96-7.56,0.98-8.28
					c0.02-0.71,0.54,2.16,0.5,3.66c-0.04,1.49-0.5,4.31-0.44,4.48c0.06,0.18,3.3-2.1,4.2-7.07c0.9-4.98,0.21-9.26,0.33-9.19
					c0.13,0.07,0.56,3.28,0.9,4.95c0.33,1.67,1.09,3.64,1.17,3.55c0.08-0.09-0.31-5.47-0.19-8.9c0.13-3.44,0.33-6.54,0.36-7.43
					c0.02-0.89,0.33,0.22,0.63,1.72c0.29,1.49,0.98,6.89,1.13,6.78c0.15-0.11,0.77-5.87,0.33-10.35c-0.44-4.48-1.98-9.17-2.26-9.97
					c-0.27-0.8,1.67,2.45,2.23,4.33c0.56,1.87,1.57,7.43,1.61,7.76c0.04,0.33,0.71-1.29,0.67-5.73c-0.04-4.44-0.9-8.34-0.81-8.37
					c0.08-0.02,1,1.36,1.71,3.77c0.71,2.41,1.04,6.6,1.23,4.02c0.19-2.59-0.84-7.7-0.84-7.7c0.42,0.38,1.17,3.73,1.32,3.99
					c0.15,0.27,0.27-3.26-0.42-5.35C181.34,109.52,180.02,104.96,180.42,106.08z"/>
				<path d="M178.43,126.07c-0.2,0,0.36,5.08,0.13,8.16c-0.23,3.08-1.17,4.86-0.99,4.94c0.18,0.08,1.69-2.75,1.82-6.22
					C179.52,129.48,178.69,126.07,178.43,126.07z"/>
				<path d="M175.96,133.49c-0.27-0.11-0.13,7.74,0.47,7.74S176.43,133.68,175.96,133.49z"/>
				<path d="M134.96,50.86c1.63-0.55,11.91-2.2,13.33-3.11c0,0-3.96-1.41-6.57-0.67c-0.51,0.3-1.12,0.45-1.21,0.47
					c-0.7,0.17-1.5,0.21-1.62,0.04c-0.12-0.17,3.49-1.69,3.31-1.85c-0.18-0.16-5.25,0.96-5.64,0.86s2.33-1.26,2.33-1.42
					s-1.81,0.49-3.37,0.16c-2.47-0.52-4.76,0.98-4.31-0.58c0.44-1.5-5.66,1.78-11.49,0.16c0,0-0.61-0.34,0.23,1.06
					c0.7,1.16-0.66,4.03,1.35,7.74C125.91,52.98,130.6,52.34,134.96,50.86z"/>
			</g>
			<path d="M68.51,125.41c0.2,0-0.36,5.08-0.13,8.16c0.23,3.08,1.17,4.86,0.99,4.94s-1.69-2.75-1.82-6.22
				C67.42,128.82,68.25,125.41,68.51,125.41z"/>
			<path d="M70.64,134.79c0.27-0.11,0.13,7.74-0.47,7.74S70.17,134.98,70.64,134.79z"/>
		</g>
		<path class="st2" d="M82.92,97.89c0,0,2.56-3.91,5.49-7.79c2.93-3.89,6.6-5.99,6.6-5.99s-2.85,2.78-5.17,5.89
			c-3.23,4.34-6.23,9.45-6.19,9.59c0.06,0.24,2.64-3.48,5.09-5.96s7.05-6.73,7.14-6.53c0.09,0.2-3.45,4.64-5.44,6.13
			c-3.76,2.8-5.27,6.7-5.27,6.7s1.71-2.88,3.59-4.57s3.13-2.68,4.09-3.74s2.62-3.17,2.77-3.05s-2.24,3.38-3.58,4.55
			c-1.34,1.17-3.72,3.48-5.05,6.75c0,0,3.87-5.11,4.87-5.85c1-0.75,4.84-6.13,5.01-5.9s-4.16,5.66-4.97,6.88
			c-0.81,1.21-2.12,4.17-1.63,3.52s2.68-3.88,3.77-5.37c1.09-1.49,4.03-5.23,3.94-4.76c-0.09,0.47-3.29,5.6-4.47,8.12
			c-1.19,2.52-1.96,5.27-1.31,3.87c0.65-1.41,3.63-6.94,4.68-8.81c1.05-1.87,2.6-4.29,2.54-3.83c-0.05,0.46-8.74,14.86-8.4,22.74
			c0,0,1.56-6.29,3.47-11.07c1.87-4.7,4.08-7.89,4.04-7.78c-7.17,20.43-5.51,27.8-5.51,27.8s0.27-12.97,7.21-29.47
			c0.07-0.16-2.92,10.36-2.57,9.76c0.35-0.6,2.8-7.12,3.22-8.92c0.43-1.8,0.76-4.12,0.96-4.21c0.2-0.09-0.18,4.3-0.86,7.25
			c-0.68,2.95-4.48,11.37-4.04,10.87c1.85-2.11,4.28-9.39,4.95-11.85c0.67-2.46,1.24-7.26,1.49-7.25c0.25,0.01-0.25,4.87-0.99,7.9
			c-0.36,1.48-2.97,8.46-4.44,15.44c-1.52,7.27-0.52,15.53-0.37,15.32c0.14-0.2,0.08-8.07,1.76-15.32c1.7-7.3,3.24-9.4,3.42-9.07
			c0.08,0.14-0.62,3.48-0.69,5.56c-0.09,2.72,1,5.81,1,5.81c-0.06-0.92-0.61-3.74-0.34-5.87c0.22-1.72,0.88-3.68,0.94-3.64
			c0.07,0.04-0.28,2.61-0.23,4.7c0.06,2.43,0.52,4.42,0.63,4.05c0.1-0.33-0.16-3.07,0.03-5.22c0.21-2.39,0.85-4.2,1-4.24
			c0.27-0.07-0.4,9.62,2.17,11.83c0,0-2.17-6.25,0.15-9.51c0.1-0.14-3.09-5.33,0-11.13c3.77-7.06,1.46-8.52,2.65-9.92
			c3.49-4.11,2.46-8.2,2.46-8.2C107.51,84.22,99.4,81,97.97,77.62c0,0-7.69,7.07-10.15,10.81C85.86,91.41,82.92,97.89,82.92,97.89z"
			/>
		<path class="st3" d="M138.82,96.52c-0.03-1.27-1.11-3.59-1.78-4.24s-1.67-3.5-1.67-3.5c0.22,0.26,1.03,0.17,1.03,0.17
			s-0.86-0.49-0.97-1.22c-0.11-0.73,0.28-1.9,0.06-2.77c-0.22-0.87-1-1.67-1-1.67c0.28,0.23,1.13,0,1.13,0s-0.59,0.02-1.13-0.93
			c-0.88-1.54-3.52-2.5-4.16-3.13c-3.4-3.32-6.75-10.96-6.78-11.57c-0.04,0.62-2.46,7.13-7.05,11.57c-0.65,0.63-3.59,2.21-4.16,3.13
			c-0.58,0.93-1.13,0.93-1.13,0.93s0.85,0.23,1.13,0c0,0-0.78,0.8-1,1.67c-0.22,0.87,0.17,2.04,0.06,2.77
			c-0.11,0.73-0.97,1.22-0.97,1.22s0.81,0.09,1.03-0.17c0,0-1,2.85-1.67,3.5s-1.75,2.97-1.78,4.24c-0.03,1.27,0.25,1.83,0.25,1.83
			s0-0.52,0.19-0.66c0.19-0.14,0.64,0.55,0.45,1.05c-0.19,0.5-0.19,3.69,0.33,4.58c0.53,0.89,1.45,1.97,1.42,2.61
			c-0.03,0.63-0.39,0.82-0.39,0.82s0.53,0,0.58-0.19c0,0,0.81,1.53,1.78,1.76c0.97,0.23,1.6,0.43,1.85,0.64
			c0.24,0.21,0.83,0.63,1.47,1.26c0,0-0.42,0.07-0.53,0c-0.11-0.07,0.44,0.4,0.8,0.49c0.36,0.09,1.9,0.87,2.37,1.2
			c0.47,0.33,2.09,0.66,2.26,0.92c0.17,0.26,0.06,0.7,0.06,0.7s0.36-0.38,0.36-0.59c0-0.21,0.61-0.26,0.78-0.09
			c0.17,0.16,0.58,0.28,0.92,0.21c0.33-0.07,0.6-0.07,0.93,0c0.33,0.07,0.75-0.05,0.92-0.21c0.17-0.16,0.78-0.12,0.78,0.09
			c0,0.21,0.36,0.59,0.36,0.59s-0.11-0.45,0.06-0.7c0.17-0.26,1.78-0.59,2.26-0.92c0.47-0.33,2.01-1.1,2.37-1.2
			c0.36-0.09,0.92-0.56,0.8-0.49c-0.11,0.07-0.53,0-0.53,0c0.64-0.63,1.07-1.05,1.31-1.26c0.24-0.21,1.02-0.4,2-0.64
			c0.97-0.23,1.78-1.76,1.78-1.76c0.06,0.19,0.58,0.19,0.58,0.19s-0.36-0.19-0.39-0.82c-0.03-0.63,0.89-1.71,1.42-2.61
			c0.53-0.89,0.53-4.08,0.33-4.58c-0.19-0.5,0.25-1.19,0.45-1.05c0.19,0.14,0.19,0.66,0.19,0.66S138.84,97.79,138.82,96.52z"/>
		<path class="st2" d="M82.12,92.4c0,0,4.09-4.72,5.03-5.49c1.43-1.18,4.12-2.34,5.9-4.11c1.64-1.62,5.76-4.98,5.76-4.98
			s-2.15-2.36-1.35-4.38c0.81-2.03,1.74-3.57,3.34-4.03c0,0-3.89,0.14-5.3,3.56c-1.42,3.42-1.87,3.63-2.92,5.26
			c-1.05,1.63-1.27,4.44-3.18,5.57C86.36,85.59,82.92,89.39,82.12,92.4z"/>
		<g>
			<path class="st2" d="M84.94,63.21c-0.08-0.17-3.65,1.24-3.69,0.95c-0.04-0.29,5.35-2.61,5.31-2.86
				c-0.04-0.25-3.45,0.54-3.53,0.37s4.97-2.07,4.93-2.28c-0.04-0.21-2.99,0.12-3.06,0s2.48-1.82,2.44-1.95
				c-0.04-0.12-2.13,0.17-2.21,0c-0.08-0.17,1.12-2.2,1.24-3.94c0.12-1.74-0.54-3.77-0.66-3.73c-0.12,0.04-0.27,1.95-0.43,1.99
				s-1.36-4.85-3.57-6.38c0,0,0.89,2.4,0.74,2.69c-0.16,0.29-1.28-2.24-2.75-3.48c-1.47-1.24-3.61-2.16-3.69-1.91
				s2.41,2.74,2.17,2.94c-0.23,0.21-3.06-2.74-3.26-2.53s1.24,1.95,1.05,2.07s-2.17-1.66-2.37-1.53s1.4,3.23,1.2,3.32
				c-0.19,0.08-3.41-2.86-3.57-2.69c-0.16,0.17,1.16,4.31,1.67,5.64c0.5,1.33,1.09,2.45,0.89,2.4c-0.19-0.04-2.28-3.48-2.57-4.39
				s0.05,2.11,0.94,4.48c0.89,2.36,1.36,3.27,1.01,3.11c-0.35-0.17-2.44-3.36-2.64-4.14c-0.19-0.79-0.31,2.07,0.89,4.39
				c1.2,2.32,2.52,3.61,2.33,3.69c-0.19,0.08-2.83-3.36-2.99-3.07c-0.16,0.29,0.93,2.74,2.29,4.35s3.41,2.65,3.34,2.86
				c-0.08,0.21-3.96-2.16-4.5-2.9s0.5,1.57,2.17,3.73c1.67,2.16,3.34,3.48,3.22,3.65c-0.12,0.17-4.15-2.28-4.93-3.48
				c-0.78-1.2,1.51,1.24,1.78,0.99s-3.57-3.81-4.77-5.35c-1.2-1.53-1.63-2.36-1.36-2.16c0.27,0.21,2.09,1.78,2.37,1.82
				c0.27,0.04-3.8-5.31-4.15-8.66c0,0,1.51,2.53,1.82,2.32c0.31-0.21-0.47-3.52-0.81-4.35s-1.12-3.11-1.01-3.36
				c0.12-0.25,1.51,0.37,1.78,0.21c0.27-0.17-1.28-1.37-1.28-1.37S69,44.27,69,44.15s-1.75-0.33-1.9-0.46s3.03-1.2,3.03-1.41
				c0-0.21-1.24-0.5-1.28-0.66c-0.04-0.17,1.78,0.37,1.78,0s1.12-0.5,1.47-0.5s-2.91-1.24-2.79-1.53s2.83,0.33,3.45,0
				s-0.78-0.91-0.47-0.95c0.31-0.04,2.95,0.5,3.14,0.25c0.19-0.25-1.98-0.95-1.86-1.12c0.12-0.17,2.55-0.04,3.52,0.12
				c0.98,0.17,2.8,1.2,2.99,0.99s-1.32-0.94-1.09-1.2c0.23-0.25,2.91,1.53,3.26,1.45c0.35-0.08-0.93-1.37-0.66-1.28
				c0.27,0.08,3.57,1.78,4.77,2.86c1.2,1.08,2.13,2.69,2.33,2.53c0.19-0.17-0.27-1.37,0-1.37s2.25,3.44,2.44,3.52s-0.19-1.16,0-1.16
				s1.36,2.94,1.55,2.94s0.12-1.12,0.27-0.99c0.16,0.12,0.16,1.08,0.66,1.7c0.5,0.62,2.48,2.24,1.9,2.28
				c-0.58,0.04-4.03,0.75-4.66,1.33c-0.62,0.58,2.33-0.12,2.6-0.08c0.27,0.04-1.75,0.57-2.75,1.47s-1.82,3.63-1.94,5.17
				c-0.12,1.53-0.16,3.19-0.93,4.06C87.07,62.96,84.94,63.21,84.94,63.21z"/>
			<g>
				<path class="st2" d="M87.53,85.37c-6.43,3.22-9.88,10.28-11.23,12.64c-1.35,2.36-1.35,2.36-1.35,2.36s3.87-8.28,5.63-10.87
					c1.75-2.58,5.56-6.03,5.32-6.32c-0.24-0.29-5.38,4.42-7.8,7.91s-4.31,8.78-5.88,11.65c-1.58,2.87-3.46,9.89-3.71,12.45
					c-0.25,2.56-0.04-3.3,0.86-7.28c0.9-3.98,3.45-8.45,3.2-8.61c-0.25-0.16-4.8,8.45-5.13,10.83c-0.33,2.38-0.21-2.3,1.52-5.99
					s5.79-9.19,5.66-9.47c-0.13-0.29-5.62,7.63-5.79,7.59s7.05-11,6.89-11.16s-5.38,7.1-5.64,6.92c-0.26-0.19,2.16-4.41,3.18-5.86
					s2.95-3.1,2.79-3.26c-0.16-0.16-5.18,5.09-5.97,6.23c-0.79,1.15,0.72-2.13,1.13-2.97c0.41-0.84-1.52,0.84-1.76,0.82
					c-0.25-0.02,3.12-5.03,4.1-6.09c0.98-1.07,2.28-2.83,1.92-2.62s-2.29,2.13-2.41,1.97s4.9-5.7,4.89-5.95s-3.78,2.24-6.24,4.5
					c-2.46,2.26-4.29,4.82-4.29,4.82s2.33-3.86,4.93-6.89c2.59-3.04,9.95-9.31,9.76-9.43s-5.89,4.22-6.01,4.06
					c-0.12-0.16,7.26-9.6,7.18-9.8c-0.08-0.2-6.07,5.79-6.28,5.7c-0.21-0.08,1.62-3.86,3.58-5.7c1.96-1.84,5.23-4.35,5.03-4.43
					c-0.2-0.08-4.09,1.59-4.3,1.41s5.95-3.54,6.38-3.71c0,0,0.67,0.32,1.52-1.12c2.51-4.28,6.44-6.26,8.13-6.96s3.33-1.03,3.33-1.03
					s-5.35,0.83-7.62,2.18c-2.27,1.35,1.76-1.44,4.95-2.71s5.82-2.58,8.12-2.99s5.32-0.62,5.4-0.74c0.08-0.12-1.3-1.35-4.06-2.03
					c-0.23-0.06,3.52-0.5,8.35,2.04c0.93,0.49-0.68,1.69,0.08,3.36c0.23,0.5-5.91-0.44-1.07,2.44c3.13,1.86,9.09,5.68,8.89,8.95
					c-0.3,4.95-7.73,15.55-14.38,20.62C110.25,78.65,94.2,82.02,87.53,85.37z"/>
				<path class="st2" d="M159.47,85.37c6.43,3.22,9.88,10.28,11.23,12.64c1.35,2.36,1.35,2.36,1.35,2.36s-3.87-8.28-5.63-10.87
					c-1.75-2.58-5.56-6.03-5.32-6.32c0.24-0.29,5.38,4.42,7.8,7.91c2.41,3.49,4.31,8.78,5.88,11.65c1.58,2.87,3.46,9.89,3.71,12.45
					c0.25,2.56,0.04-3.3-0.86-7.28c-0.9-3.98-3.45-8.45-3.2-8.61c0.25-0.16,4.8,8.45,5.13,10.83c0.33,2.38,0.21-2.3-1.52-5.99
					c-1.72-3.69-5.79-9.19-5.66-9.47c0.13-0.29,5.62,7.63,5.79,7.59c0.16-0.04-7.05-11-6.89-11.16s5.38,7.1,5.64,6.92
					c0.26-0.19-2.16-4.41-3.18-5.86c-1.03-1.46-2.95-3.1-2.79-3.26c0.16-0.16,5.18,5.09,5.97,6.23c0.79,1.15-0.72-2.13-1.13-2.97
					c-0.41-0.84,1.52,0.84,1.76,0.82c0.25-0.02-3.12-5.03-4.1-6.09c-0.98-1.07-2.28-2.83-1.92-2.62c0.36,0.21,2.29,2.13,2.41,1.97
					s-4.9-5.7-4.89-5.95c0.01-0.25,3.78,2.24,6.24,4.5c2.46,2.26,4.29,4.82,4.29,4.82s-2.33-3.86-4.93-6.89
					c-2.59-3.04-9.95-9.31-9.76-9.43s5.89,4.22,6.01,4.06s-7.26-9.6-7.18-9.8c0.08-0.2,6.07,5.79,6.28,5.7
					c0.21-0.08-1.62-3.86-3.58-5.7c-1.96-1.84-5.23-4.35-5.03-4.43c0.2-0.08,4.09,1.59,4.3,1.41c0.21-0.18-5.95-3.54-6.38-3.71
					c0,0-0.67,0.32-1.52-1.12c-2.51-4.28-6.44-6.26-8.13-6.96s-3.33-1.03-3.33-1.03s5.86,0.74,2.66-0.53s-7.14-0.4-9.43-0.81
					s-7.69-1.23-8.45,0.45c-0.23,0.5-11.92-1.95-16.76,0.93c-3.13,1.86,8.89,9.93,9.16,11.84c0.18,1.29,2.56,10.51,10.41,16.01
					C140.28,86.74,152.8,82.02,159.47,85.37z"/>
				<path class="st2" d="M78.09,105.89c0.08-0.28-1.27,9.38-2.13,19.28s-0.35,17.21-0.35,17.21s-1.38-7.37-1.27-12.49
					s0.58-9.67,0.58-9.67s-1.9,5.7-1.78,11.86c0,0-0.86-5.07,0.35-11.69c1.21-6.62,2.36-9.56,2.36-9.56s-0.61,5.64-0.36,6.91
					C75.73,119.01,76.99,109.86,78.09,105.89z"/>
				<path class="st2" d="M85.77,111.97c0.04-0.26-0.25,8.53-0.08,17.48s1.32,15.45,1.32,15.45s-1.94-6.47-2.32-11.07
					c-0.38-4.6-0.4-8.72-0.4-8.72s-1.16,5.29-0.47,10.79c0,0-1.25-4.46-0.8-10.5c0.46-6.05,1.21-8.78,1.21-8.78
					s-0.01,5.11,0.33,6.22C84.9,123.95,85.17,115.63,85.77,111.97z"/>
				<path class="st2" d="M78.38,118.07c0.21,0-0.64,5.21-0.68,8.03c-0.04,2.82-0.21,3.89,0,3.93c0.21,0.04,1.37-5.55,1.54-5.43
					c0.17,0.13-1.24,6.15-1.64,9.49c-0.41,3.33-0.24,5.21-0.36,5.3c-0.13,0.09-0.73-7.09-0.56-11.79
					C76.84,122.89,78.38,118.07,78.38,118.07z"/>
				<path class="st2" d="M81.76,111.36c0.25-0.35-1.2,4.34-1.41,8.18C80.13,123.38,79.25,114.84,81.76,111.36z"/>
				<path class="st2" d="M81.44,92.96c0.33,0.16-3.49,6.39-5.98,14.29s-3.59,14.77-3.75,14.77s1.1-9.57,3.42-17.46
					C77.45,96.67,81.44,92.96,81.44,92.96z"/>
				<path class="st2" d="M79.05,106.22c0.37-0.01,1.34-6.28,2.52-8.93c1.18-2.65,3.99-7.16,3.54-6.8c-0.45,0.37-3.58,4.8-4.38,7.16
					C79.94,100.01,79.05,106.22,79.05,106.22z"/>
				<path class="st2" d="M86.31,102.02c0.32,0.06-2.2,11.52-2.29,11.56c-0.09,0.04,0.34-5.05,0.7-6.86S86.31,102.02,86.31,102.02z"
					/>
				<path class="st2" d="M79.77,113.15c0.08,0,2.48-10.75,2.32-11.11c-0.16-0.37-1.75,4.44-2.08,6.51
					C79.69,110.63,79.77,113.15,79.77,113.15z"/>
				<path class="st2" d="M82.44,150.19c0.04,0-0.07-3.4,0.63-6.39c0.75-3.22,0.37-6.53,0.29-6.71c-0.16-0.37-0.29,4.17-1.02,6.79
					C81.78,145.9,82.44,150.19,82.44,150.19z"/>
				<path class="st2" d="M78.57,135.51c0.11-0.18-0.08,3.62,0.21,4.97c0.29,1.35,0.08,3.46,0,3.5c-0.08,0.04-0.08-1.69-0.42-2.57
					C78.03,140.53,78.11,136.27,78.57,135.51z"/>
				<path class="st2" d="M80.34,132.14c0.29-0.08,0.91,4.05,0.56,7.04c-0.35,2.99-0.83,7.12-0.88,7.71c-0.06,0.59-0.03-6.78,0-8.47
					C80.05,136.73,80.34,132.14,80.34,132.14z"/>
				<path class="st2" d="M81.79,138.55c0.01-0.37,0.14,3.2,0,4.09c-0.14,0.88-0.79,2.57-0.88,2.4
					C80.81,144.87,81.71,141.71,81.79,138.55z"/>
				<path class="st2" d="M74.61,101.55c0.08-0.25-1.39,5.06-2.61,7.46c-1.22,2.4-1.9,5.27-1.85,6.07s-0.51-2.7,0.88-5.65
					C72.42,106.48,74.32,102.48,74.61,101.55z"/>
				<path class="st2" d="M80.9,122.26c0.08-0.23-0.55,3.75-0.88,5.67c-0.33,1.93,0.14,4.13-0.25,4.2S79.16,126.97,80.9,122.26z"/>
				<path class="st2" d="M82.83,114.72c0.03-0.28,0.2,5.71,0,5.8c-0.2,0.09-0.04-1.67-0.41-2.45S82.71,116.05,82.83,114.72z"/>
			</g>
		</g>
		<path class="st2" d="M103.06,59.75c0,0,4.13-3.92,6.37-4.69c2.24-0.77,5.67-0.42,5.67-0.42s-2.31-1.12-3.78-1.12
			c0,0,4.55-0.42,8.18,1.54c0,0-2.8-2.59-4.97-3.01c0,0,4.34,0.07,8.32,3.08c0,0-1.26-1.82-2.8-3.08c0,0,5.46,2.03,6.23,3.85
			c0,0-0.07-2.17-1.05-2.87c0,0,3.71,3.5,3.92,3.43s-1.54-2.87-1.33-2.8c0.21,0.07,4.13,3.36,4.48,3.15
			c0.35-0.21-1.4-2.45-1.61-2.66c-0.21-0.21,4.41,3.71,4.76,3.5c0.35-0.21-3.01-5.11-2.73-5.18s4.2,5.11,4.55,5.11
			s-0.42-3.64,0-3.08c0.42,0.56,0.84,3.08,1.05,2.59c0.21-0.49,1.19-3.85,1.26-3.43c0.07,0.42-0.35,3.71,0,3.22
			c0.35-0.49,1.47-2.94,1.54-2.66c0.07,0.28-0.84,3.15-0.49,2.87c0.35-0.28,2.24-2.1,2.24-2.1s-1.61,2.8-1.19,2.52
			c0.42-0.28,1.61-1.82,3.36-2.94s5.6-2.72,6.58-2.86c0.98-0.14-1.83-0.78-3.22-0.99s-3.71-0.56-3.71-0.56s1.61-0.63,2.24-0.56
			s-1.68-0.77-2.8-0.63c-1.12,0.14,2.87-0.49,2.1-0.7c-0.77-0.21-5.32,0.07-6.23,0.49c0,0-5.05,0.2-1.99-1.51
			c2.2-1.24-2.16,0.33-4.99,0.84c-0.61,0.11-0.12-1.29,0.79-1.95c0.45-0.32-0.79-0.23-1.93,0.14c-1.03,0.33-1.96,0.94-2.07,0.7
			c-0.27-0.57,1.76-2.22-0.93-1.32c-4.61,1.55-8.4,0.03-8.32,0.35c0.11,0.41,1.8,1.64,1.53,1.56c-0.27-0.08-5.82-2.73-9.73-2.38
			c0,0,2.8,1.84,2.49,2.23c-0.31,0.39-5.09-0.72-9.69,0.73c-3.4,1.07-4.53,2.78-6.12,3.52c-1.59,0.74-6.62,12.95-2.9,11.59
			C99.85,61.91,103.06,59.75,103.06,59.75z"/>
		<path d="M90.78,76.97c0.16,0.16-3.08,3.21-6.54,5.51s-7.59,7.17-8.61,9.26c-1.01,2.09,0.72-3.75,4.35-6.96
			C83.6,81.57,90.78,76.97,90.78,76.97z"/>
		<path d="M76.51,88.81c-0.01,0.32,1.58-3.96,4.29-5.94c2.72-1.98,7.75-6.37,7.64-6.58s-4.43,2.78-6.79,4.28s-4.5,2.94-6.54,5.14
			c-2.03,2.19-3.51,4.66-2.9,4.17c0.6-0.48,4.42-5.13,6.9-6.37C79.12,83.51,76.62,85.39,76.51,88.81z"/>
		<path d="M75.63,83.53c0.03,0.16,6.65-5.21,9.6-7.48c2.95-2.26,7.6-5.78,6.75-5.46c-0.85,0.32-5.49,3.03-8.67,5.54
			C80.14,78.64,75.52,83.04,75.63,83.53z"/>
		<path d="M75.34,80.13c-0.22,0.1,6.39-5.05,8.48-6.27s4.13-2.3,3.8-1.9s-3.97,3.42-6.47,5.08C78.64,78.72,76.08,79.81,75.34,80.13z
			"/>
		<path d="M82.12,73.62c0.2,0.2,3.88-2.59,4.97-3.27c1.09-0.69,3.19-2.18,2.63-2.14s-3.31,1.51-4.79,2.71
			C83.45,72.13,82.12,73.62,82.12,73.62z"/>
		<path d="M89.03,70.92c0,0.23,3.56-1.99,3.44-2.51C92.34,67.89,89.03,70.24,89.03,70.92z"/>
		<path d="M88.14,74.59c-0.13,0.26,3.15-1.29,4.77-2.43c1.62-1.13,4.24-3.4,4.12-3.64c-0.12-0.24-1.98,1.67-3.52,2.39
			C91.98,71.64,88.75,73.38,88.14,74.59z"/>
		<path d="M97.8,69.06c-0.02,0.35,3.52-2.26,3.4-2.79C101.07,65.74,97.84,68.25,97.8,69.06z"/>
		<path d="M79.61,73.64c0.28,0.15,5.3-4.74,7.32-6.6c2.02-1.86,7.32-5.62,6.87-5.58c-0.44,0.04-7.44,4.61-9.78,6.75
			C81.67,70.35,79.61,73.64,79.61,73.64z"/>
		<path d="M93.05,59.34c0.11,0.26,4.29-2.85,5.19-3.5c0.9-0.65,2.27-1.51,2.13-1.66s-3.46,0.54-5.12,1.51s-2.34,2.45-2.2,2.56
			s2.2-1.78,2.38-1.5C95.61,57.03,92.9,59.02,93.05,59.34z"/>
		<path d="M98.77,53.2c-0.26,0.17,3.46-0.58,4.72-0.72s3.89-0.68,2.31-0.76S100.54,52.01,98.77,53.2z"/>
		<path d="M85.79,79.56c0.2,0.14,3.17-2.49,4.3-3.1c1.13-0.61,6.54-5.69,6.27-6.27c-0.27-0.58-3.89,3.55-5.42,4.69
			C89.4,76.01,85.79,79.56,85.79,79.56z"/>
		<g>
			<path d="M96.01,61.47c-0.2,0.14,0.87-1.94,6.67-3.44c0,0-1.31-0.28-2.01-0.19c-0.71,0.09,0.66-0.78,3.01-1.22
				c2.35-0.44,6.08,0.22,6.09,0.4c0.01,0.19-3.79,0.02-5.04,0.62c0,0,1.41,1.08,0.85,1.09C103.85,58.75,99.47,59.07,96.01,61.47z"/>
			<path d="M106.83,55.95c-0.41,0.03,1.63-0.64,2.5-0.52s2.67,0.9,2.51,1.05C111.67,56.62,109.25,55.8,106.83,55.95z"/>
			<path d="M110.84,55c-0.26-0.1,1.44-0.1,1.95,0.22s1.18,1.46,1.05,1.51S112.36,55.57,110.84,55z"/>
		</g>
		<path class="st2" d="M84.36,100.04c0.3,0.07-1.84,6.97-2.05,6.97c-0.21-0.01,0.35-3.28,0.81-4.6
			C83.59,101.08,84.36,100.04,84.36,100.04z"/>
		<path class="st2" d="M91.77,97.22c0,0-2.3,3.18-3.86,8.85c-1.55,5.68-0.56,12.89-0.56,12.89s0.18-8.58,1.68-13.68
			C90.53,100.18,91.77,97.22,91.77,97.22z"/>
		<path class="st2" d="M96.71,106.98c0,0-1.74,3.52-2.32,9.37c-0.58,5.86,1.61,12.8,1.61,12.8s-1.26-8.49-0.64-13.77
			C95.98,110.11,96.71,106.98,96.71,106.98z"/>
		<path class="st2" d="M89.41,98.34c0,0-2.34,2.29-2.92,8.14L89.41,98.34z"/>
		<path class="st2" d="M90.54,111.34c0.49,0.04-1.2,2.6-0.52,13.54s-2.29,11.53-2.5,11.61c-0.2,0.08,2.15-0.22,1.26-11.08
			S90.54,111.34,90.54,111.34z"/>
		<path class="st2" d="M100.4,107.57c0.37-0.09-0.27,2.21,2.82,10.16s1.03,9.08,0.9,9.19c-0.13,0.11,1.54-0.67-1.69-8.51
			C99.2,110.57,100.4,107.57,100.4,107.57z"/>
		<path class="st2" d="M145.73,107.57c-0.37-0.09,0.27,2.21-2.82,10.16c-3.1,7.95-1.03,9.08-0.9,9.19s-1.54-0.67,1.69-8.51
			C146.93,110.57,145.73,107.57,145.73,107.57z"/>
		<path class="st2" d="M164.45,92.4c0,0-4.09-4.72-5.03-5.49c-1.43-1.18-2.91-1.62-4.47-3.59c-1.56-1.97-7.19-5.51-7.19-5.51
			s2.15-2.36,1.35-4.38c-0.81-2.03-1.74-3.57-3.34-4.03c0,0,3.89,0.14,5.3,3.56s1.87,3.63,2.92,5.26c1.05,1.63,1.65,3.76,3.56,4.89
			C160.59,84.91,163.64,89.39,164.45,92.4z"/>
		<g>
			<path class="st2" d="M161.63,63.21c0.08-0.17,3.65,1.24,3.69,0.95c0.04-0.29-5.35-2.61-5.31-2.86s3.45,0.54,3.53,0.37
				c0.08-0.17-4.97-2.07-4.93-2.28s2.99,0.12,3.06,0c0.08-0.12-2.48-1.82-2.44-1.95c0.04-0.12,2.13,0.17,2.21,0
				c0.08-0.17-1.12-2.2-1.24-3.94c-0.12-1.74,0.54-3.77,0.66-3.73c0.12,0.04,0.27,1.95,0.43,1.99s1.36-4.85,3.57-6.38
				c0,0-0.89,2.4-0.74,2.69c0.16,0.29,1.28-2.24,2.75-3.48c1.47-1.24,3.61-2.16,3.69-1.91c0.08,0.25-2.41,2.74-2.17,2.94
				s3.06-2.74,3.26-2.53c0.19,0.21-1.24,1.95-1.05,2.07s2.17-1.66,2.37-1.53c0.19,0.12-1.4,3.23-1.2,3.32
				c0.19,0.08,3.41-2.86,3.57-2.69c0.16,0.17-1.16,4.31-1.67,5.64c-0.5,1.33-1.09,2.45-0.89,2.4c0.19-0.04,2.28-3.48,2.57-4.39
				s-0.05,2.11-0.94,4.48c-0.89,2.36-1.36,3.27-1.01,3.11c0.35-0.17,2.44-3.36,2.64-4.14c0.19-0.79,0.31,2.07-0.89,4.39
				s-2.52,3.61-2.33,3.69c0.19,0.08,2.83-3.36,2.99-3.07s-0.93,2.74-2.29,4.35s-3.41,2.65-3.34,2.86s3.96-2.16,4.5-2.9
				s-0.5,1.57-2.17,3.73c-1.67,2.16-3.34,3.48-3.22,3.65c0.12,0.17,4.15-2.28,4.93-3.48c0.78-1.2-1.51,1.24-1.78,0.99
				s3.57-3.81,4.77-5.35s1.63-2.36,1.36-2.16s-2.09,1.78-2.37,1.82c-0.27,0.04,3.8-5.31,4.15-8.66c0,0-1.51,2.53-1.82,2.32
				c-0.31-0.21,0.47-3.52,0.81-4.35c0.35-0.83,1.12-3.11,1.01-3.36s-1.51,0.37-1.78,0.21c-0.27-0.17,1.28-1.37,1.28-1.37
				s-2.25-0.41-2.25-0.54s1.75-0.33,1.9-0.46s-3.03-1.2-3.03-1.41c0-0.21,1.24-0.5,1.28-0.66c0.04-0.17-1.78,0.37-1.78,0
				s-1.12-0.5-1.47-0.5c-0.35,0,2.91-1.24,2.79-1.53s-2.83,0.33-3.45,0c-0.62-0.33,0.78-0.91,0.47-0.95s-2.95,0.5-3.14,0.25
				s1.98-0.95,1.86-1.12c-0.12-0.17-2.55-0.04-3.52,0.12c-0.98,0.17-2.8,1.2-2.99,0.99c-0.19-0.21,1.32-0.94,1.09-1.2
				s-2.91,1.53-3.26,1.45c-0.35-0.08,0.93-1.37,0.66-1.28c-0.27,0.08-3.57,1.78-4.77,2.86c-1.2,1.08-2.13,2.69-2.33,2.53
				c-0.19-0.17,0.27-1.37,0-1.37s-2.25,3.44-2.44,3.52c-0.19,0.08,0.19-1.16,0-1.16c-0.19,0-1.36,2.94-1.55,2.94
				c-0.19,0-0.12-1.12-0.27-0.99s-0.16,1.08-0.66,1.7c-0.5,0.62-2.48,2.24-1.9,2.28c0.58,0.04,4.03,0.75,4.66,1.33
				c0.62,0.58-3.76,0.93-3.49,0.99c1.9,0.4,3.17,1.06,4.09,2.36c0.78,1.1,0.97,3.3,1.08,4.83c0.12,1.53,0.57,1.56,1.34,2.43
				C159.49,62.96,161.63,63.21,161.63,63.21z"/>
			<g>
				<path class="st2" d="M168.48,105.89c-0.08-0.28,1.27,9.38,2.13,19.28c0.86,9.9,0.35,17.21,0.35,17.21s1.38-7.37,1.27-12.49
					s-0.58-9.67-0.58-9.67s1.9,5.7,1.78,11.86c0,0,0.86-5.07-0.35-11.69s-2.36-9.56-2.36-9.56s0.61,5.64,0.36,6.91
					C170.84,119.01,169.57,109.86,168.48,105.89z"/>
				<path class="st2" d="M160.8,111.97c-0.04-0.26,0.25,8.53,0.08,17.48c-0.16,8.95-1.32,15.45-1.32,15.45s1.94-6.47,2.32-11.07
					c0.38-4.6,0.4-8.72,0.4-8.72s1.16,5.29,0.47,10.79c0,0,1.25-4.46,0.8-10.5c-0.46-6.05-1.21-8.78-1.21-8.78s0.01,5.11-0.33,6.22
					C161.67,123.95,161.4,115.63,160.8,111.97z"/>
				<path class="st2" d="M168.19,118.07c-0.21,0,0.64,5.21,0.68,8.03c0.04,2.82,0.21,3.89,0,3.93s-1.37-5.55-1.54-5.43
					c-0.17,0.13,1.24,6.15,1.64,9.49c0.41,3.33,0.24,5.21,0.36,5.3s0.73-7.09,0.56-11.79C169.73,122.89,168.19,118.07,168.19,118.07
					z"/>
				<path class="st2" d="M164.81,111.36c-0.25-0.35,1.2,4.34,1.41,8.18C166.44,123.38,167.32,114.84,164.81,111.36z"/>
				<path class="st2" d="M165.12,92.96c-0.33,0.16,3.49,6.39,5.98,14.29c2.49,7.9,3.59,14.77,3.75,14.77s-1.1-9.57-3.42-17.46
					C169.11,96.67,165.12,92.96,165.12,92.96z"/>
				<path class="st2" d="M167.52,106.22c-0.37-0.01-1.34-6.28-2.52-8.93c-1.18-2.65-3.99-7.16-3.54-6.8s3.58,4.8,4.38,7.16
					S167.52,106.22,167.52,106.22z"/>
				<path class="st2" d="M160.26,102.02c-0.32,0.06,2.2,11.52,2.29,11.56s-0.34-5.05-0.7-6.86
					C161.49,104.9,160.26,102.02,160.26,102.02z"/>
				<path class="st2" d="M166.79,113.15c-0.08,0-2.48-10.75-2.32-11.11c0.16-0.37,1.75,4.44,2.08,6.51
					C166.87,110.63,166.79,113.15,166.79,113.15z"/>
				<path class="st2" d="M164.13,150.19c-0.04,0,0.07-3.4-0.63-6.39c-0.75-3.22-0.37-6.53-0.29-6.71c0.16-0.37,0.29,4.17,1.02,6.79
					C164.79,145.9,164.13,150.19,164.13,150.19z"/>
				<path class="st2" d="M167.99,135.51c-0.11-0.18,0.08,3.62-0.21,4.97c-0.29,1.35-0.08,3.46,0,3.5c0.08,0.04,0.08-1.69,0.42-2.57
					S168.46,136.27,167.99,135.51z"/>
				<path class="st2" d="M166.22,132.14c-0.29-0.08-0.91,4.05-0.56,7.04c0.35,2.99,0.83,7.12,0.88,7.71c0.06,0.59,0.03-6.78,0-8.47
					C166.52,136.73,166.22,132.14,166.22,132.14z"/>
				<path class="st2" d="M164.78,138.55c-0.01-0.37-0.14,3.2,0,4.09c0.14,0.88,0.79,2.57,0.88,2.4
					C165.76,144.87,164.86,141.71,164.78,138.55z"/>
				<path class="st2" d="M171.95,101.55c-0.08-0.25,1.39,5.06,2.61,7.46c1.22,2.4,1.9,5.27,1.85,6.07c-0.04,0.8,0.51-2.7-0.88-5.65
					C174.15,106.48,172.25,102.48,171.95,101.55z"/>
				<path class="st2" d="M165.67,122.26c-0.08-0.23,0.55,3.75,0.88,5.67c0.33,1.93-0.14,4.13,0.25,4.2
					C167.2,132.22,167.41,126.97,165.67,122.26z"/>
				<path class="st2" d="M163.74,114.72c-0.03-0.28-0.2,5.71,0,5.8s0.04-1.67,0.41-2.45S163.86,116.05,163.74,114.72z"/>
			</g>
		</g>
		<path class="st2" d="M163.89,97.35c0,0-2.56-3.91-5.49-7.79c-2.93-3.89-6.6-5.99-6.6-5.99s2.85,2.78,5.17,5.89
			c3.23,4.34,6.23,9.45,6.19,9.59c-0.06,0.24-2.64-3.48-5.09-5.96c-2.45-2.49-7.05-6.73-7.14-6.53c-0.09,0.2,3.45,4.64,5.44,6.13
			c3.76,2.8,5.27,6.7,5.27,6.7s-1.71-2.88-3.59-4.57c-1.88-1.69-3.13-2.68-4.09-3.74c-0.97-1.06-2.62-3.17-2.77-3.05
			c-0.15,0.12,2.24,3.38,3.58,4.55c1.34,1.17,3.72,3.48,5.05,6.75c0,0-3.87-5.11-4.87-5.85s-4.84-6.13-5.01-5.9s4.16,5.66,4.97,6.88
			c0.81,1.21,2.12,4.17,1.63,3.52s-2.68-3.88-3.77-5.37c-1.09-1.49-4.03-5.23-3.94-4.76c0.09,0.47,3.29,5.6,4.47,8.12
			s1.96,5.27,1.31,3.87c-0.65-1.41-3.63-6.94-4.68-8.81c-1.05-1.87-2.6-4.29-2.54-3.83c0.05,0.46,8.74,14.86,8.4,22.74
			c0,0-1.56-6.29-3.47-11.07c-1.87-4.7-4.08-7.89-4.04-7.78c7.17,20.43,5.51,27.8,5.51,27.8s-0.27-12.97-7.21-29.47
			c-0.07-0.16,2.92,10.36,2.57,9.76c-0.35-0.6-2.8-7.12-3.22-8.92c-0.43-1.8-0.76-4.12-0.96-4.21c-0.2-0.09,0.18,4.3,0.86,7.25
			c0.68,2.95,4.48,11.37,4.04,10.87c-1.85-2.11-4.28-9.39-4.95-11.85c-0.67-2.46-1.24-7.26-1.49-7.25s0.25,4.87,0.99,7.9
			c0.36,1.48,2.97,8.46,4.44,15.44c1.52,7.27,0.52,15.53,0.37,15.32c-0.14-0.2-0.08-8.07-1.76-15.32c-1.7-7.3-3.24-9.4-3.42-9.07
			c-0.08,0.14,0.62,3.48,0.69,5.56c0.09,2.72-1,5.81-1,5.81c0.06-0.92,0.61-3.74,0.34-5.87c-0.22-1.72-0.88-3.68-0.94-3.64
			c-0.07,0.04,0.28,2.61,0.23,4.7c-0.06,2.43-0.52,4.42-0.63,4.05c-0.1-0.33,0.16-3.07-0.03-5.22c-0.21-2.39-0.85-4.2-1-4.24
			c-0.27-0.07,0.4,9.62-2.17,11.83c0,0,2.17-6.25-0.15-9.51c-0.1-0.14,3.09-5.33,0-11.13c-3.77-7.06-1.46-8.52-2.65-9.92
			c-3.49-4.11-2.46-8.2-2.46-8.2c5.03,10.16,13.14,6.93,14.57,3.55c0,0,7.69,7.07,10.15,10.81
			C160.96,90.88,163.89,97.35,163.89,97.35z"/>
		<path d="M155.79,76.97c-0.16,0.16,3.08,3.21,6.54,5.51c3.46,2.3,7.59,7.17,8.61,9.26c1.01,2.09-0.72-3.75-4.35-6.96
			C162.96,81.57,155.79,76.97,155.79,76.97z"/>
		<path d="M170.88,89.49c0.01,0.32-1.58-3.96-4.29-5.94c-2.72-1.98-7.75-6.37-7.64-6.58c0.11-0.21,4.43,2.78,6.79,4.28
			c2.36,1.5,4.5,2.94,6.54,5.14c2.03,2.19,3.51,4.66,2.9,4.17c-0.6-0.48-4.42-5.13-6.9-6.37C168.28,84.19,170.78,86.07,170.88,89.49
			z"/>
		<path d="M170.94,83.53c-0.03,0.16-6.65-5.21-9.6-7.48c-2.95-2.26-7.6-5.78-6.75-5.46s5.49,3.03,8.67,5.54
			C166.43,78.64,171.05,83.04,170.94,83.53z"/>
		<path d="M171.23,80.13c0.22,0.1-6.39-5.05-8.48-6.27c-2.09-1.21-4.13-2.3-3.8-1.9c0.33,0.4,3.97,3.42,6.47,5.08
			C167.93,78.72,170.49,79.81,171.23,80.13z"/>
		<path d="M164.45,73.62c-0.2,0.2-3.88-2.59-4.97-3.27c-1.09-0.69-3.19-2.18-2.63-2.14c0.57,0.04,3.31,1.51,4.79,2.71
			C163.12,72.13,164.45,73.62,164.45,73.62z"/>
		<path d="M157.54,70.92c0,0.23-3.56-1.99-3.44-2.51C154.22,67.89,157.54,70.24,157.54,70.92z"/>
		<path d="M158.43,74.59c0.13,0.26-3.15-1.29-4.77-2.43c-1.62-1.13-4.24-3.4-4.12-3.64c0.12-0.24,1.98,1.67,3.52,2.39
			C154.59,71.64,157.82,73.38,158.43,74.59z"/>
		<path d="M148.77,69.06c0.02,0.35-3.52-2.26-3.4-2.79S148.73,68.25,148.77,69.06z"/>
		<path d="M166.96,73.64c-0.28,0.15-5.3-4.74-7.32-6.6s-7.32-5.62-6.87-5.58s7.44,4.61,9.78,6.75
			C164.89,70.35,166.96,73.64,166.96,73.64z"/>
		<path d="M153.52,59.34c-0.11,0.26-4.29-2.85-5.19-3.5s-2.27-1.51-2.13-1.66c0.14-0.14,3.46,0.54,5.12,1.51s2.34,2.45,2.2,2.56
			c-0.14,0.11-2.2-1.78-2.38-1.5C150.96,57.03,153.66,59.02,153.52,59.34z"/>
		<path d="M147.8,53.2c0.26,0.17-3.46-0.58-4.72-0.72s-3.89-0.68-2.31-0.76S146.03,52.01,147.8,53.2z"/>
		<path d="M160.78,79.56c-0.2,0.14-3.17-2.49-4.3-3.1c-1.13-0.61-6.54-5.69-6.27-6.27c0.27-0.58,3.89,3.55,5.42,4.69
			C157.16,76.01,160.78,79.56,160.78,79.56z"/>
		<g>
			<path d="M150.73,61.47c0.2,0.14-0.87-1.94-6.67-3.44c0,0,1.31-0.28,2.01-0.19c0.71,0.09-0.66-0.78-3.01-1.22
				c-2.35-0.44-6.08,0.22-6.09,0.4c-0.01,0.19,3.79,0.02,5.04,0.62c0,0-1.41,1.08-0.85,1.09C142.89,58.75,147.26,59.07,150.73,61.47
				z"/>
			<path d="M139.91,55.95c0.41,0.03-1.63-0.64-2.5-0.52s-2.67,0.9-2.51,1.05S137.49,55.8,139.91,55.95z"/>
			<path d="M135.9,55c0.26-0.1-1.44-0.1-1.95,0.22c-0.52,0.32-1.18,1.46-1.05,1.51S134.38,55.57,135.9,55z"/>
		</g>
		<path class="st2" d="M162.21,100.04c-0.3,0.07,1.84,6.97,2.05,6.97c0.21-0.01-0.35-3.28-0.81-4.6
			C162.98,101.08,162.21,100.04,162.21,100.04z"/>
		<path class="st2" d="M154.79,97.22c0,0,2.3,3.18,3.86,8.85s0.56,12.89,0.56,12.89s-0.18-8.58-1.68-13.68
			C156.04,100.18,154.79,97.22,154.79,97.22z"/>
		<path class="st2" d="M149.86,106.98c0,0,1.74,3.52,2.32,9.37c0.58,5.86-1.61,12.8-1.61,12.8s1.26-8.49,0.64-13.77
			C150.59,110.11,149.86,106.98,149.86,106.98z"/>
		<path class="st2" d="M157.16,98.34c0,0,2.34,2.29,2.92,8.14L157.16,98.34z"/>
		<path class="st2" d="M156.03,111.34c-0.48,0.02,1.26,2.43,0.92,12.51s2.62,10.7,2.82,10.78c0.2,0.08-2.13-0.26-1.58-10.26
			C158.74,114.38,156.03,111.34,156.03,111.34z"/>
		<g>
			<path d="M150.28,141.14c0.25-0.57,8.33-2.04,8.33-8.64c0-4.31-3.9-8.93-10.14-8.93c-10.84,0-11.89,9.49-11.89,10.33
				c0,6.53,4.8,8.98,4.36,9.27c-0.73,0.49-4.59,4.82-4.51,5.82c-0.06-3.26-0.71-6.34-1.94-9.14c-1.35-3.07-3.48-5.75-6.33-7.98
				c-1.57-1.2-5.18-2.87-9.34-4.25c0.03-0.35,0.94-6.5,0.94-6.5c2.89,0,6.54,0.05,8.57,0.05c1.97,0,2.37,2.09,3.36,2.48
				c0.24,0.1,0.52,0.01,0.67-0.21c0.2-0.31,2.81-6.45,2.91-6.85c0.29-1.17-0.02-2.31-1.69-2.08c-1.11,0.15-2,1.08-5.26,1.08
				c-2.7,0-12.2-0.16-13.21,0.18c-0.99,0.31-1.64,1-1.88,1.97c-0.26,0.88-2.17,11.99-2.41,13.47c-0.53-0.81-1.14-1.53-1.86-2.13
				c-1.09-0.92-2.41-1.62-3.92-2.1c-1.49-0.47-3.16-0.72-4.96-0.72c-1.55,0-3.03,0.27-4.4,0.79c-1.36,0.52-2.61,1.27-3.7,2.23
				c-1.05,0.92-1.89,2.03-2.48,3.28c-0.64,1.27-0.97,2.69-0.97,4.19c-0.05,0.68,0.05,1.38,0.29,2.06c0.29,0.82,0.94,1.25,1.9,1.25
				c0.6,0,1.1-0.27,1.45-0.77c0.28-0.4,0.53-0.89,0.77-1.47c0.26-0.63,0.55-1.27,0.84-1.92c0.33-0.64,0.73-1.22,1.2-1.75
				c0.44-0.53,1.03-0.98,1.76-1.33c0.76-0.38,1.73-0.58,2.87-0.58c0.63,0,1.29,0.16,1.97,0.46c0.69,0.31,1.28,0.72,1.79,1.24
				c0.52,0.46,0.95,1.03,1.28,1.7c0.32,0.61,0.48,1.24,0.48,1.88c0,1.11-0.38,2.44-1.14,3.97c-0.73,1.53-1.7,3.18-2.87,4.93
				c-1.14,1.76-2.42,3.59-3.81,5.45c-1.41,1.89-2.79,3.73-4.15,5.54c-1.32,1.76-2.56,3.48-3.7,5.12c-1.11,1.65-1.96,3.11-2.54,4.34
				c-0.03,0.06-0.04,0.12-0.04,0.18c0,0.75,0.47,1.05,0.7,1.14c0.36,0.2,0.75,0.32,1.18,0.37c0.43,0.05,22.26,0.31,22.62,0.31
				c0.7,0,1.41-0.04,2.13-0.12c1.01-0.17,2.03-0.39,3.04-0.66c0.98-0.33,1.88-0.8,2.64-1.38c1.17-0.83,2.23-1.96,3.16-3.36
				c0.9-1.3,1.42-2.65,1.56-3.99l0.03-0.27c0.07-0.68,0.03-1.46-0.11-2.33c-0.1-0.88-0.35-1.74-0.74-2.55
				c-0.36-0.78-0.84-1.46-1.44-2.03c-0.67-0.6-2.92-1.78-4.71-0.26c-1.92,2.1,0.4,4.07,0.97,4.72c0.44,0.43,4.2,5.97-8,5.97
				c-4.48,0-12.48-0.27-12.79-0.21c0.59-1.01,1.27-2.04,2.03-3.09c1.05-1.34,2.15-2.73,3.29-4.15c1.17-1.41,2.35-2.87,3.5-4.35
				c1.15-1.43,2.22-2.91,3.2-4.39c0.93-1.52,1.72-3.05,2.34-4.54c0.58-1.51,0.91-3.04,0.95-4.55c0.03-1.05-0.07-2.01-0.26-2.91
				c0.13,0.02,0.26,0.04,0.39,0.05c0.52,0.05,1.1,0.08,1.73,0.08c2.28,0,4.3,0.44,5.99,1.31c1.74,0.87,3.22,2.08,4.38,3.59
				c1.17,1.46,2.06,3.22,2.65,5.23c0.59,1.96,0.86,4.09,0.81,6.31c-0.05,2.27-0.42,4.47-1.11,6.54c-0.69,2.03-1.67,3.93-2.89,5.64
				c-1.28,1.67-4.58,7.71-13.87,7.71c-8.02-0.93-7.83,3.96,1.07,4.13c3.31,0.07,6.52-0.71,9.52-2.11c2.99-1.39,5.66-3.28,7.92-5.59
				c2.32-2.27,4.2-4.94,5.6-7.94c0.2-0.45,0.38-0.9,0.54-1.35c0.12,0.48,2.08,10.16,11.77,10.16c13.69,0,13.3-10.87,13.3-13.44
				S158.65,144.77,150.28,141.14z M143.54,131.58c0.33-0.7,2.26-3.38,5.81-3.38c2.01,0,3.52,0.44,4.52,1.32
				c0.91,0.73,1.54,2.39,1.37,3.67c-0.17,1.28-0.62,3.23-4.34,4.09c0.91-2,2.13-5.72,0.35-5.72c-1.77,0-4.39,5.23-5.64,7.06
				C144.75,138.21,141.76,135.38,143.54,131.58z M147.24,162.55c-3.61,0-6.53-3.95-6.53-7.56c0-3.61,2.92-8.23,6.53-8.23
				c3.61,0,6.53,4.62,6.53,8.23C153.77,158.6,150.85,162.55,147.24,162.55z"/>
			<path d="M111.7,177.68c-0.14,0-0.29,0-0.44,0c-4.71-0.09-7.92-1.36-9.05-3.57c-0.44-0.87-0.52-1.82-0.25-2.7
				c-6.16-0.08-13.13-0.17-13.49-0.21c-0.73-0.09-1.41-0.29-2.03-0.62c-1.33-0.61-2.18-1.96-2.18-3.51c0-0.44,0.1-0.89,0.28-1.29
				c0.64-1.36,1.56-2.94,2.74-4.7c1.19-1.71,2.46-3.46,3.78-5.23c1.37-1.81,2.75-3.65,4.15-5.54c1.35-1.81,2.59-3.6,3.71-5.32
				c1.13-1.68,2.03-3.23,2.71-4.63c0.77-1.55,0.88-2.44,0.88-2.83c0-0.22-0.06-0.43-0.18-0.66c-0.2-0.41-0.43-0.71-0.69-0.94
				l-0.15-0.14c-0.27-0.28-0.59-0.5-0.98-0.68c-0.33-0.15-0.64-0.23-0.89-0.23c-0.91,0-1.42,0.16-1.69,0.3
				c-0.43,0.21-0.72,0.42-0.91,0.65c-0.37,0.42-0.64,0.81-0.87,1.24c-0.27,0.6-0.53,1.19-0.78,1.77c-0.3,0.74-0.64,1.39-1.04,1.96
				c-0.84,1.2-2.15,1.89-3.6,1.89c-2.09,0-3.72-1.13-4.38-3.02c-0.35-0.99-0.49-2-0.43-3.01c0.01-1.89,0.43-3.67,1.25-5.29
				c0.71-1.52,1.76-2.92,3.09-4.08c1.33-1.16,2.84-2.07,4.49-2.7c1.67-0.64,3.46-0.96,5.33-0.96c2.07,0,4.01,0.28,5.76,0.84
				c1.16,0.37,2.24,0.86,3.22,1.45c0.61-3.54,1.38-7.85,1.62-8.83h0c0.46-1.86,1.79-3.26,3.65-3.84c0.86-0.29,2.78-0.38,11.76-0.31
				c0.93,0.01,1.71,0.01,2.24,0.01c1.73,0,2.5-0.29,3.23-0.58c0.47-0.18,1.01-0.39,1.67-0.48c2.09-0.28,3.26,0.64,3.78,1.21
				c0.93,1.03,1.22,2.49,0.82,4.1c-0.14,0.59-2.83,7-3.26,7.66c-0.84,1.26-2.45,1.76-3.84,1.2c-1.05-0.42-1.66-1.22-2.1-1.81
				c-0.11-0.15-0.28-0.37-0.39-0.49c-0.93,0-2.15-0.01-3.49-0.02c-0.88-0.01-1.81-0.01-2.72-0.02c-0.11,0.75-0.22,1.47-0.31,2.1
				c3.52,1.3,6.5,2.75,8.04,3.94c1.6,1.26,3,2.64,4.19,4.14c0-0.01,0-0.02,0-0.03c0-2.74,2.46-12.95,14.51-12.95
				c7.88,0,12.76,6,12.76,11.56c0,4.6-2.8,7.29-5.42,8.88c6.55,5.13,6.78,12.44,6.78,13.4v0.2c0.01,2.09,0.03,7.64-4.02,11.7
				c-2.76,2.77-6.77,4.17-11.91,4.17c-5.75,0-9.66-2.89-12.01-6.59c-1.18,1.81-2.54,3.47-4.07,4.97c-2.45,2.5-5.37,4.57-8.64,6.1
				C118.59,176.89,115.14,177.68,111.7,177.68z M113.36,131.94c0.29,0.02,0.6,0.02,0.92,0.02c2.71,0,5.13,0.54,7.2,1.6
				c2.07,1.04,3.85,2.49,5.26,4.31c1.36,1.7,2.4,3.76,3.09,6.1c0.66,2.21,0.97,4.61,0.92,7.11c-0.05,2.53-0.47,4.99-1.25,7.31
				c-0.78,2.29-1.87,4.42-3.24,6.34c-0.15,0.2-0.27,0.37-0.4,0.56c-0.58,0.82-1.51,2.14-2.92,3.48c1.43-0.95,2.75-2.03,3.94-3.26
				c2.13-2.09,3.83-4.5,5.09-7.21c0.15-0.35,0.31-0.75,0.46-1.16l2.93-7.83l2.1,8.22c0.57,2.42,2.61,8.06,9.2,8.06
				c3.7,0,6.46-0.88,8.19-2.63c2.5-2.51,2.49-6.34,2.48-7.97v-0.22c0-0.31-0.09-7.75-8.11-11.23l-2.42-1.05l0.77-1.76l-0.31,0.07
				l-0.76,1.1l-2.01-0.92c-1.24-0.57-2.9-2.25-3.68-4.36c-0.74-2.01-0.62-4.15,0.33-6.17l0,0c0.41-0.87,1.67-2.64,3.8-3.8
				c-5.43,1.65-5.74,7-5.76,7.27c0,3.75,2,5.67,3.07,6.69c0.61,0.58,1.43,1.37,1.31,2.72l-0.11,1.25l-1,0.7
				c-0.76,0.63-3.16,3.45-3.52,4.27c0,0,0.1-0.25,0.1-0.64l-5.24,0.26c0-0.05-0.01-0.11-0.01-0.16h0c-0.06-2.93-0.63-5.67-1.72-8.14
				c-1.17-2.66-3.04-5.01-5.55-6.97c-1.08-0.83-4.23-2.39-8.55-3.83l-1.95-0.65l0.16-2.05c0.02-0.29,0.35-2.54,0.96-6.68l0.33-2.24
				h2.26c1.58,0,3.38,0.01,5.03,0.03c1.37,0.01,2.62,0.02,3.54,0.02c1.25,0,2.2,0.42,2.92,0.94c0.24-0.57,0.49-1.16,0.72-1.69
				c-0.88,0.24-2.04,0.43-3.65,0.43c-0.53,0-1.33-0.01-2.28-0.01c-2.69-0.02-8.91-0.07-10.22,0.1c-0.03,0.01-0.04,0.02-0.04,0.02
				l-0.03,0.15c-0.25,0.96-2.02,11.2-2.33,13.15L113.36,131.94z M92.59,166.03c6.17,0.09,17.94,0.24,18.79,0.24
				c0.57,0,1.16-0.03,1.77-0.1c0.89-0.15,1.77-0.34,2.64-0.57c0.68-0.23,1.29-0.55,1.81-0.95c0.59-0.42,1.13-0.91,1.63-1.48
				c-2.82,2.1-7.52,2.1-9.33,2.1c-2.5,0-6-0.08-8.8-0.15c-1.53-0.04-3.1-0.07-3.65-0.07c-0.01,0-0.01,0-0.02,0L92.59,166.03z
				 M90.38,166c0.45,0.01,0.98,0.02,1.58,0.02l2.88-4.92c0.63-1.07,1.36-2.19,2.18-3.31c1.11-1.42,2.22-2.81,3.36-4.24
				c1.18-1.42,2.34-2.86,3.48-4.32c1.12-1.4,2.14-2.81,3.07-4.22c0.81-1.34,1.54-2.74,2.11-4.11c0.45-1.17,0.71-2.4,0.75-3.62
				c0.02-0.79-0.05-1.56-0.2-2.3l-0.26-1.25l-0.71-1.09c-0.4-0.62-0.85-1.13-1.34-1.54c-0.83-0.7-1.85-1.24-3.04-1.62
				c-1.23-0.39-2.64-0.59-4.17-0.59c-1.23,0-2.39,0.21-3.46,0.61c-1.07,0.41-2.05,1-2.91,1.75c-0.78,0.68-1.39,1.5-1.83,2.42
				c-0.17,0.33-0.3,0.66-0.41,0.99c0.43-0.82,0.95-1.57,1.55-2.25c0.62-0.76,1.51-1.44,2.59-1.95c1.09-0.55,2.45-0.83,4.01-0.83
				c1,0,2.02,0.23,3.04,0.69c0.96,0.43,1.81,1.02,2.53,1.74c0.74,0.67,1.36,1.49,1.82,2.43c0.49,0.93,0.75,1.97,0.75,3.04
				c0,1.51-0.48,3.24-1.42,5.14c-0.77,1.61-1.8,3.37-3.05,5.22c-1.15,1.78-2.47,3.66-3.88,5.56c-1.41,1.89-2.79,3.74-4.16,5.55
				c-1.28,1.72-2.51,3.42-3.65,5.04C91.15,164.74,90.74,165.39,90.38,166z M102.05,159.89c2.61,0.06,5.64,0.13,7.84,0.13
				c4.76,0,6.03-0.9,6.26-1.11c-0.02-0.13-0.12-0.34-0.21-0.48l-0.17-0.19c-3.62-3.8-2.04-6.68-0.77-8.06l0.23-0.22
				c2.91-2.48,6.55-1.13,8.16,0.3c0.84,0.8,1.48,1.69,1.97,2.68c0.08-0.65,0.12-1.3,0.14-1.96c0.04-1.95-0.19-3.8-0.7-5.5
				c-0.5-1.7-1.23-3.15-2.18-4.35c-0.95-1.23-2.12-2.18-3.51-2.88c-1.16-0.6-2.51-0.93-4.06-1.02c0,0.07,0,0.13,0,0.2
				c-0.06,1.83-0.43,3.65-1.13,5.44c-0.7,1.68-1.55,3.32-2.55,4.96c-1.07,1.63-2.19,3.17-3.39,4.66c-1.15,1.48-2.34,2.96-3.53,4.39
				C103.64,157.89,102.84,158.9,102.05,159.89z M116.02,158.51c0.02,0.02,0.04,0.04,0.05,0.05L116.02,158.51z M119.83,154.9
				c0.55,0.59,1.28,1.79,1.51,3.22c-0.02-0.27-0.05-0.57-0.1-0.89l-0.02-0.14c-0.07-0.59-0.23-1.16-0.5-1.7
				c-0.23-0.5-0.5-0.89-0.83-1.22c-0.1-0.06-0.57-0.37-0.98-0.33c0.18,0.27,0.51,0.62,0.66,0.78
				C119.67,154.73,119.76,154.82,119.83,154.9z M142.47,145.31l-0.06,0.04C142.43,145.34,142.45,145.33,142.47,145.31z
				 M145.91,132.72c-0.14,0.3-0.22,0.58-0.26,0.85c0.49-0.76,0.96-1.44,1.44-2.04C146.34,132.03,145.96,132.64,145.91,132.72z
				 M115.94,118.27c-0.02,0.01-0.03,0.01-0.04,0.02C115.91,118.28,115.92,118.27,115.94,118.27z M147.24,165.17
				c-5.24,0-9.16-5.38-9.16-10.18c0-5.02,4-10.85,9.16-10.85s9.15,5.83,9.15,10.85C156.4,159.8,152.48,165.17,147.24,165.17z
				 M147.24,149.39c-1.75,0-3.9,3.09-3.9,5.6c0,2.4,2.01,4.93,3.9,4.93c1.9,0,3.9-2.54,3.9-4.93
				C151.14,152.48,148.99,149.39,147.24,149.39z"/>
		</g>
		<g>
			<g>
				<path d="M181.79,152.18c-0.56,0-8.16,0-8.16,0l-2.74-1.98l1,1.98h-4.65l-5.07-4.07H73.97c0,0,2.07,2.97,1.79,3.28
					c-0.28,0.31-13.44-4.14-13.44-4.53c0-0.39,13.21-5.43,13.44-5.21c0.22,0.22-2.12,3.59-1.84,3.59s88.27,0.15,88.27,0.15
					l4.79-4.06h0.78l-1.29,2.35h0.78l2.29-2.35h4.81l-0.79,2l3.03-2h4.8l-3.71,4.36c0,0,0.6-0.09,0.6,0.66s-0.04,1.22-0.38,1.22
					C177.91,147.59,182.21,152.18,181.79,152.18z"/>
				<g>
					<path d="M181.79,153.61h-8.16c-0.3,0-0.59-0.1-0.84-0.27l-0.03-0.02c-0.25,0.19-0.55,0.29-0.87,0.29h-4.65
						c-0.33,0-0.64-0.11-0.89-0.31l-4.68-3.75H76.58c0.81,1.45,0.81,2.16,0.23,2.81c-0.72,0.79-1.17,0.72-6.15-0.88
						c-2.6-0.84-5.5-1.85-7.22-2.51c-1.7-0.66-2.56-0.98-2.56-2.09c0-1.08,0.75-1.39,2.76-2.25c1.74-0.74,4.54-1.84,7.14-2.81
						c4.94-1.83,5.21-1.89,5.95-1.18c0.83,0.8,0.46,1.66-0.44,3.2c15.37,0.02,76.95,0.14,85.36,0.15l4.39-3.72
						c0.26-0.22,0.58-0.34,0.92-0.34h0.78c0.33,0,0.64,0.11,0.89,0.32c0.25-0.2,0.57-0.32,0.89-0.32h4.81c0.41,0,0.8,0.18,1.07,0.49
						l0.38-0.25c0.23-0.15,0.51-0.24,0.79-0.24h4.8c0.56,0,1.06,0.32,1.3,0.83c0.23,0.51,0.15,1.1-0.21,1.52l-2.88,3.37
						c0.06,0.2,0.1,0.44,0.1,0.72c0,0.36-0.03,0.69-0.08,0.98c3.98,4.28,3.87,4.52,3.49,5.39
						C182.9,153.26,182.36,153.61,181.79,153.61z M174.1,150.75h4.77c-0.62-0.7-1.34-1.48-2.01-2.19c-0.39-0.42-0.49-1.02-0.27-1.54
						c0.04-0.09,0.08-0.17,0.14-0.25c-0.12-0.1-0.22-0.23-0.3-0.37c-0.29-0.52-0.23-1.17,0.16-1.62l1.71-2h-1.28l-2.67,1.76
						c-0.52,0.34-1.2,0.31-1.68-0.08c-0.48-0.39-0.66-1.05-0.43-1.63l0.02-0.05h-2.11l-1.87,1.92c-0.27,0.28-0.64,0.43-1.02,0.43
						h-0.78c-0.44,0-0.85-0.2-1.11-0.54l-2.25,1.91c-0.14,0.12-0.31,0.21-0.48,0.27c0.16,0.05,0.31,0.13,0.44,0.24l4.68,3.75h1.84
						c-0.24-0.57-0.09-1.24,0.39-1.64c0.5-0.43,1.23-0.46,1.76-0.07L174.1,150.75z M65.84,146.8c2.11,0.76,5.01,1.74,7.15,2.41
						c-0.06-0.1-0.13-0.19-0.19-0.28c-0.3-0.44-0.34-1-0.09-1.48c0.25-0.47,0.73-0.77,1.26-0.77h9.14
						c-5.67-0.01-9.13-0.01-9.19-0.01c-0.51,0-1.01-0.29-1.26-0.73c-0.33-0.59-0.26-1.03,0.18-1.85
						C70.68,144.88,67.88,145.97,65.84,146.8z M177.9,147.11C177.9,147.11,177.9,147.11,177.9,147.11
						C177.9,147.11,177.9,147.11,177.9,147.11z"/>
					<path d="M181.79,154.09h-8.16c-0.31,0-0.6-0.07-0.87-0.21c-0.27,0.14-0.57,0.21-0.87,0.21h-4.65c-0.43,0-0.86-0.15-1.19-0.42
						l-4.55-3.65H77.37c0.45,1,0.52,1.86-0.2,2.65c-0.94,1.04-1.62,0.88-6.65-0.75c-2.61-0.85-5.52-1.86-7.24-2.52
						c-1.72-0.67-2.86-1.1-2.86-2.54c0-1.39,0.96-1.8,3.05-2.69c1.73-0.73,4.54-1.84,7.17-2.82c4.95-1.84,5.46-2.03,6.45-1.08
						c0.97,0.94,0.63,2,0.05,3.06l84.35,0.15l4.26-3.6c0.34-0.29,0.78-0.45,1.23-0.45h0.78c0.31,0,0.62,0.08,0.89,0.22
						c0.27-0.15,0.58-0.22,0.89-0.22h4.81c0.41,0,0.8,0.13,1.12,0.36l0.07-0.05c0.31-0.21,0.68-0.32,1.05-0.32h4.8
						c0.74,0,1.42,0.43,1.73,1.11c0.31,0.67,0.2,1.48-0.28,2.04l-2.72,3.18c0.04,0.19,0.06,0.39,0.06,0.6
						c0,0.29-0.02,0.57-0.05,0.82c3.75,4.05,3.94,4.55,3.43,5.74C183.27,153.62,182.55,154.09,181.79,154.09z M172.76,152.71
						l0.29,0.22c0.19,0.14,0.38,0.2,0.58,0.2h8.16c0.38,0,0.74-0.24,0.89-0.58c0.26-0.6,0.36-0.82-3.41-4.87l-0.16-0.18l0.04-0.24
						c0.05-0.26,0.07-0.56,0.07-0.89c0-0.2-0.03-0.4-0.08-0.58l-0.08-0.25l3.05-3.58c0.24-0.28,0.29-0.68,0.14-1.01
						c-0.15-0.33-0.49-0.55-0.86-0.55h-4.8c-0.18,0-0.36,0.05-0.52,0.16l-0.74,0.48l-0.28-0.32c-0.18-0.2-0.43-0.32-0.71-0.32h-4.81
						c-0.21,0-0.42,0.07-0.59,0.21l-0.3,0.25l-0.3-0.24c-0.17-0.13-0.38-0.21-0.59-0.21h-0.78c-0.22,0-0.44,0.08-0.61,0.22
						l-4.53,3.83h-0.18l-86.21-0.15l0.43-0.73c0.95-1.61,1.05-2.1,0.52-2.6c-0.49-0.47-0.55-0.53-5.45,1.29
						c-2.61,0.97-5.41,2.07-7.12,2.8c-2.09,0.89-2.47,1.1-2.47,1.8c0,0.74,0.54,0.98,2.25,1.64c1.71,0.66,4.6,1.66,7.19,2.5
						c4.94,1.6,5.16,1.55,5.64,1.02c0.34-0.37,0.53-0.77-0.29-2.25l-0.4-0.72h86.09l4.81,3.86c0.17,0.13,0.38,0.21,0.59,0.21h4.65
						c0.21,0,0.41-0.07,0.57-0.19L172.76,152.71z M179.95,151.24h-6.01l-2.49-1.81c-0.36-0.26-0.83-0.24-1.17,0.05
						c-0.32,0.27-0.42,0.71-0.26,1.09l0.29,0.67h-2.74l-4.81-3.86c-0.09-0.07-0.19-0.12-0.29-0.16l-1.41-0.46l1.41-0.45
						c0.12-0.04,0.22-0.1,0.32-0.18l2.63-2.23l0.31,0.39c0.18,0.22,0.45,0.35,0.74,0.35h0.78c0.25,0,0.5-0.1,0.67-0.28l2.02-2.06
						h3.04l-0.27,0.67c-0.17,0.43-0.05,0.86,0.27,1.12c0.32,0.26,0.77,0.28,1.11,0.05l2.79-1.84h2.47l-2.39,2.8
						c-0.26,0.3-0.3,0.73-0.11,1.07c0.05,0.09,0.12,0.18,0.2,0.25l0.32,0.29l-0.25,0.35c-0.03,0.05-0.07,0.1-0.09,0.16
						c-0.15,0.34-0.08,0.74,0.18,1.02c0.67,0.71,1.39,1.5,2.01,2.2L179.95,151.24z M174.26,150.27h3.53
						c-0.42-0.46-0.86-0.94-1.27-1.38c-0.52-0.55-0.66-1.36-0.36-2.05c-0.05-0.07-0.09-0.13-0.13-0.21
						c-0.39-0.69-0.3-1.57,0.22-2.17l1.03-1.21h-0.09l-2.55,1.68c-0.7,0.46-1.6,0.42-2.25-0.11c-0.48-0.39-0.73-0.98-0.71-1.57
						h-1.31l-1.73,1.77c-0.36,0.37-0.85,0.58-1.37,0.58h-0.78c-0.41,0-0.81-0.13-1.13-0.37l-1.8,1.53l4.38,3.51h1.07
						c-0.02-0.57,0.21-1.14,0.67-1.53c0.67-0.57,1.64-0.61,2.36-0.09L174.26,150.27z M74.16,150.08l-1.31-0.41
						c-2.17-0.68-5.05-1.65-7.17-2.42l-1.18-0.43l1.16-0.47c2.03-0.83,4.85-1.92,7.02-2.71l1.19-0.44l-0.6,1.12
						c-0.4,0.75-0.4,1-0.18,1.38c0.17,0.3,0.5,0.49,0.84,0.49c0.06,0,3.52,0,9.19,0.01l0,0.97h-9.14c-0.35,0-0.67,0.19-0.84,0.51
						c-0.16,0.31-0.14,0.69,0.06,0.98L74.16,150.08z M67.2,146.77c1.55,0.55,3.33,1.14,4.88,1.64c-0.06-0.4,0-0.81,0.19-1.19
						c0.11-0.2,0.24-0.38,0.4-0.53c-0.18-0.15-0.33-0.32-0.44-0.52c-0.25-0.45-0.31-0.85-0.24-1.26
						C70.45,145.5,68.71,146.17,67.2,146.77z M177.9,147.6c-0.27,0-0.48-0.22-0.48-0.48c0-0.27,0.22-0.48,0.48-0.48
						c0.27,0,0.48,0.22,0.48,0.48C178.39,147.38,178.17,147.6,177.9,147.6z"/>
				</g>
			</g>
			<path class="st0" d="M169.55,141.35h4.81l-0.79,2l3.03-2h4.8l-3.71,4.36c0,0,0.6-0.09,0.6,0.66s-0.04,1.22-0.38,1.22
				c0,0,4.3,4.6,3.88,4.6c-0.56,0-8.16,0-8.16,0l-2.74-1.98l1,1.98h-4.65l-5.07-4.07H73.97c0,0,2.07,2.97,1.79,3.28
				c-0.28,0.31-13.44-4.14-13.44-4.53c0-0.39,13.21-5.43,13.44-5.21c0.22,0.22-2.12,3.59-1.84,3.59s88.27,0.15,88.27,0.15l4.79-4.06
				h0.78l-1.29,2.35"/>
		</g>
		<path class="st4" d="M150.28,141.14c0.25-0.57,8.33-2.04,8.33-8.64c0-4.31-3.9-8.93-10.14-8.93c-10.84,0-11.89,9.49-11.89,10.33
			c0,6.53,4.8,8.98,4.36,9.27c-0.73,0.49-4.59,4.82-4.51,5.82c-0.06-3.26-0.71-6.34-1.94-9.14c-1.35-3.07-3.48-5.75-6.33-7.98
			c-1.57-1.2-5.18-2.87-9.34-4.25c0.03-0.35,0.94-6.5,0.94-6.5c2.89,0,6.54,0.05,8.57,0.05c1.97,0,2.37,2.09,3.36,2.48
			c0.24,0.1,0.52,0.01,0.67-0.21c0.2-0.31,2.81-6.45,2.91-6.85c0.29-1.17-0.18-2.83-1.69-2.08c-7.53,3.69-17.46,0.92-18.47,1.26
			c-0.99,0.31-1.64,1-1.88,1.97c-0.26,0.88-2.17,11.99-2.41,13.47c-0.53-0.81-1.14-1.53-1.86-2.13c-1.09-0.92-2.41-1.62-3.92-2.1
			c-1.49-0.47-3.16-0.72-4.96-0.72c-1.55,0-3.03,0.27-4.4,0.79c-1.36,0.52-2.61,1.27-3.7,2.23c-1.05,0.92-1.89,2.03-2.48,3.28
			c-0.64,1.27-0.97,2.69-0.97,4.19c-0.05,0.68,0.05,1.38,0.29,2.06c0.29,0.82,0.94,1.25,1.9,1.25c0.6,0,1.1-0.27,1.45-0.77
			c0.28-0.4,0.53-0.89,0.77-1.47c0.26-0.63,0.55-1.27,0.84-1.92c0.33-0.64,0.73-1.22,1.2-1.75c0.44-0.53,1.03-0.98,1.76-1.33
			c0.76-0.38,1.73-0.58,2.87-0.58c0.63,0,1.29,0.16,1.97,0.46c0.69,0.31,1.28,0.72,1.79,1.24c0.52,0.46,0.95,1.03,1.28,1.7
			c0.32,0.61,0.48,1.24,0.48,1.88c0,1.11-0.38,2.44-1.14,3.97c-0.73,1.53-1.7,3.18-2.87,4.93c-1.14,1.76-2.42,3.59-3.81,5.45
			c-1.41,1.89-2.79,3.73-4.15,5.54c-1.32,1.76-2.56,3.48-3.7,5.12c-1.11,1.65-1.96,3.11-2.54,4.34c-0.03,0.06-0.04,0.12-0.04,0.18
			c0,0.75,0.47,1.05,0.7,1.14c0.36,0.2,0.75,0.32,1.18,0.37c0.43,0.05,22.26,0.31,22.62,0.31c0.7,0,1.41-0.04,2.13-0.12
			c1.01-0.17,2.03-0.39,3.04-0.66c0.98-0.33,1.88-0.8,2.64-1.38c1.17-0.83,2.23-1.96,3.16-3.36c0.9-1.3,1.42-2.65,1.56-3.99
			l0.03-0.27c0.07-0.68,0.03-1.46-0.11-2.33c-0.1-0.88-0.35-1.74-0.74-2.55c-0.36-0.78-0.84-1.46-1.44-2.03
			c-0.67-0.6-2.92-1.78-4.71-0.26c-1.92,2.1,0.4,4.07,0.97,4.72c0.44,0.43,4.2,5.97-8,5.97c-4.48,0-12.48-0.27-12.79-0.21
			c0.59-1.01,1.27-2.04,2.03-3.09c1.05-1.34,2.15-2.73,3.29-4.15c1.17-1.41,2.35-2.87,3.5-4.35c1.15-1.43,2.22-2.91,3.2-4.39
			c0.93-1.52,1.72-3.05,2.34-4.54c0.58-1.51,0.91-3.04,0.95-4.55c0.03-1.05-0.07-2.01-0.26-2.91c0.13,0.02,0.26,0.04,0.39,0.05
			c0.52,0.05,1.1,0.08,1.73,0.08c2.28,0,4.3,0.44,5.99,1.31c1.74,0.87,3.22,2.08,4.38,3.59c1.17,1.46,2.06,3.22,2.65,5.23
			c0.59,1.96,0.86,4.09,0.81,6.31c-0.05,2.27-0.42,4.47-1.11,6.54c-0.69,2.03-1.67,3.93-2.89,5.64c-1.28,1.67-4.58,7.71-13.87,7.71
			c-8.02-0.93-7.83,3.96,1.07,4.13c3.31,0.07,6.52-0.71,9.52-2.11c2.99-1.39,5.66-3.28,7.92-5.59c2.32-2.27,4.2-4.94,5.6-7.94
			c0.2-0.45,0.38-0.9,0.54-1.35c0.12,0.48,2.08,10.16,11.77,10.16c13.69,0,13.3-10.87,13.3-13.44S158.65,144.77,150.28,141.14z
			 M143.54,131.58c0.33-0.7,2.26-3.38,5.81-3.38c2.01,0,3.52,0.44,4.52,1.32c0.91,0.73,1.54,2.39,1.37,3.67
			c-0.17,1.28-0.62,3.23-4.34,4.09c0.91-2,2.13-5.72,0.35-5.72c-1.77,0-4.39,5.23-5.64,7.06
			C144.75,138.21,141.76,135.38,143.54,131.58z"/>
		<polygon class="st0" points="136.65,148.11 125.53,148.11 125.53,145.33 138.35,145.35 		"/>
		<g>
			<path class="st2" d="M101.5,124.46c0.24-0.07-0.68-2.09-0.88-3.13c-0.2-1.04-0.45-2.35-0.21-2.04c0.24,0.31,1.14,2.39,1.37,2.26
				c0.23-0.14-0.62-2.8-0.95-4.03c-0.33-1.23-1.14-4.84-1.27-4.64c-0.13,0.2,0.03,1.42-0.16,2.94c-0.19,1.51-0.23,3.41,0.09,4.74
				C99.81,121.89,101.5,124.46,101.5,124.46z"/>
			<path class="st2" d="M107.43,120.81c0.1-0.22-0.8-1.59-1.14-2.46s-0.76-1.97-0.57-1.82s1.09,1.6,1.16,1.34
				c0.07-0.27-0.94-2.3-1.38-3.28c-0.44-0.98-1.66-3.93-1.67-3.66c-0.01,0.27,0.35,1.34,0.61,2.9c0.26,1.56,0.69,3.39,1.15,4.47
				C106.04,119.36,107.43,120.81,107.43,120.81z"/>
		</g>
		<g>
			<path class="st2" d="M145.5,121.01c-0.19-0.05,0.58-1.64,0.77-2.45c0.18-0.81,0.41-1.84,0.21-1.59s-0.96,1.88-1.14,1.78
				s0.55-2.19,0.84-3.15c0.29-0.96,1.01-3.78,1.11-3.63c0.1,0.15-0.06,1.11,0.07,2.28c0.12,1.17,0.11,2.65-0.17,3.69
				C146.9,118.97,145.5,121.01,145.5,121.01z"/>
			<path class="st2" d="M138.55,122.04c-0.1-0.22,0.81-1.6,1.15-2.48c0.34-0.88,0.76-1.99,0.58-1.83s-1.1,1.61-1.17,1.35
				c-0.08-0.27,0.95-2.32,1.39-3.31s1.67-3.96,1.69-3.69c0.01,0.27-0.35,1.35-0.62,2.92c-0.27,1.57-0.7,3.42-1.16,4.5
				S138.55,122.04,138.55,122.04z"/>
		</g>
		<path class="st2" d="M109.58,125.24c-0.04,0.24,1.41-1.59,0.4-7.49c0,0,0.79,1.08,1,1.76c0.21,0.68,0.44-0.93-0.13-3.25
			s-2.69-5.45-2.87-5.38c-0.17,0.07,1.53,3.46,1.5,4.85c0,0-1.56-0.84-1.34-0.32C108.83,116.97,110.34,121.09,109.58,125.24z"/>
		<path class="st2" d="M136.99,127.69c0.04,0.24-1.41-1.59-0.4-7.49c0,0-0.79,1.08-1,1.76c-0.21,0.68-0.44-0.93,0.13-3.25
			s2.69-5.45,2.87-5.38c0.17,0.07-1.53,3.46-1.5,4.85c0,0,1.56-0.84,1.34-0.32C137.74,119.42,136.23,123.54,136.99,127.69z"/>
		<path d="M87.73,168.02c0,0-0.63,5.24,3.33,7.29c0,0-1.17-2.1,0.51-3.54c1.68-1.44,1.9-0.52,3.32,0.07
			c1.59,0.67-1.73,4.98-2.15,5.2c0,0,5.02-2.29,5.49-5.15c0.47-2.86-3.58-1.55-3.58-1.55l-3.72-0.09L87.73,168.02z"/>
		<rect x="122.48" y="63.27" class="st2" width="2.08" height="2.77"/>
		<path d="M94.96,65.7c0.14,0.21,1.82-1.22,2.77-1.69c0.95-0.48,2.14-1.07,1.9-0.75c-0.24,0.31-1.99,1.75-1.8,1.93
			s2.53-1.36,3.62-2.01s4.35-2.41,4.12-2.48c-0.23-0.07-1.36,0.42-2.87,0.64c-1.51,0.22-3.35,0.71-4.54,1.37
			C96.97,63.37,94.96,65.7,94.96,65.7z"/>
		<path d="M151.83,65.7c-0.14,0.21-1.82-1.22-2.77-1.69c-0.95-0.48-2.14-1.07-1.9-0.75c0.24,0.31,1.99,1.75,1.8,1.93
			s-2.53-1.36-3.62-2.01s-4.35-2.41-4.12-2.48c0.23-0.07,1.36,0.42,2.87,0.64s3.35,0.71,4.54,1.37
			C149.81,63.37,151.83,65.7,151.83,65.7z"/>
		<g>
			<path d="M107.08,52.55c0,0,10.62-0.18,11.34,10.82c0,0,0.88-1.87,0.9-3.77c0,0,1.62,3.49,1.1,8.25c0,0,3.12-7.46,0.93-14.21
				c0,0-0.14,2.93-1.07,4.27c0,0-0.32-3.47-3.33-6.53c0,0,1.47,3.33,1.03,5.57C117.99,56.97,114.8,50.88,107.08,52.55z"/>
			<path d="M112.27,63.67c0,0,4.38,2.92,4.64,7.59c0.13,2.36-0.66,4.88-3.82,8.3c0,0,1.88-0.72,3.95-2.84
				c2.47-2.53,4.91-6.7,5.94-10.12c0.04-0.14,0.54-0.12,0.54-0.26c0-0.91-0.02-1.97-0.02-2.73c0,0-2.17,5.98-3.41,7.9
				C120.11,71.52,119.51,65.84,112.27,63.67z"/>
			<path class="st3" d="M119.51,75.62c0,0,0.13-3.38-1.05-4.94c0,0,0.13,2.84-0.59,4.74c-0.69,1.82-2.32,4.24-4.14,5.69l3.94-0.99
				L119.51,75.62z"/>
		</g>
		<g>
			<path d="M139.95,52.55c0,0-10.62-0.18-11.34,10.82c0,0-0.88-1.87-0.9-3.77c0,0-1.62,3.49-1.1,8.25c0,0-3.12-7.46-0.93-14.21
				c0,0,0.14,2.93,1.07,4.27c0,0,0.32-3.47,3.33-6.53c0,0-1.47,3.33-1.03,5.57C129.04,56.97,132.23,50.88,139.95,52.55z"/>
			<path d="M134.76,63.67c0,0-4.38,2.92-4.64,7.59c-0.13,2.36,0.66,4.88,3.82,8.3c0,0-1.88-0.72-3.95-2.84
				c-2.47-2.53-4.91-6.7-5.94-10.12c-0.04-0.14-0.54-0.12-0.54-0.26c0-0.91,0.02-1.97,0.02-2.73c0,0,2.17,5.98,3.41,7.9
				C126.92,71.52,127.52,65.84,134.76,63.67z"/>
			<path class="st3" d="M127.52,75.62c0,0-0.13-3.38,1.05-4.94c0,0-0.13,2.84,0.59,4.74c0.69,1.82,2.32,4.24,4.14,5.69l-3.94-0.99
				L127.52,75.62z"/>
		</g>
		<g>
			<g>
				<g>
					<path class="st3" d="M143.09,64.49c-0.85-0.16-2.41-0.12-3.71,0.53c-1.3,0.66-2.5,2.34-2.27,2.16
						C138.09,66.43,143.09,64.49,143.09,64.49z"/>
					<path class="st3" d="M138.35,64.41c0.41-0.24-2.23,0.39-2.9,1.09c-0.68,0.7-1.51,2.68-1.19,2.73S135.93,65.83,138.35,64.41z"/>
				</g>
			</g>
			<g>
				<g>
					<path class="st5" d="M133.36,77.3c0,0-1.03-0.53-1.54-1.7c-0.84-1.95-0.33-3.72-0.33-3.72c0.27,1.61,1.75,1.73,2.13,1.84
						c2.32,0.69,11.36-5.64,11.36-5.64s4.28,1.93,6.73,5.95c-1.36-1.02-4.41-2.57-5.61-3.04c0.32,0.97,0.75,2.85-0.06,4.38
						c1.34,0.31,2.63,0.71,3.71,1.22C149.75,76.58,140.07,74.83,133.36,77.3z"/>
					<g>
						<path class="st4" d="M142.29,73.73c0-1.27-0.88-2.33-2.06-2.61c0.61-0.36,1.2-0.72,1.75-1.06c1.2,0.78,2,2.13,2,3.68
							c0,0.83-0.24,1.59-0.64,2.25c-0.73-0.02-1.5-0.02-2.29,0.01C141.79,75.52,142.29,74.68,142.29,73.73z"/>
						<path class="st4" d="M135.22,73.55c0.55-0.17,1.18-0.42,1.84-0.73c-0.11,0.29-0.17,0.6-0.17,0.92c0,1.08,0.64,2.01,1.56,2.44
							c-0.75,0.08-1.5,0.19-2.24,0.34c-0.63-0.76-1.02-1.72-1.02-2.78C135.2,73.67,135.22,73.61,135.22,73.55z"/>
						<path d="M136.89,73.73c0-0.32,0.07-0.63,0.17-0.92c1.01-0.47,2.11-1.08,3.16-1.69c1.18,0.29,2.06,1.34,2.06,2.61
							c0,0.95-0.49,1.78-1.24,2.26c-0.85,0.03-1.72,0.08-2.6,0.18C137.54,75.75,136.89,74.82,136.89,73.73z"/>
					</g>
					<g>
						<path class="st1" d="M140.66,72.76c0.1,0.44,0.54,0.71,0.98,0.61c0.05-0.01,0.11-0.03,0.15-0.05
							c0.35-0.16,0.54-0.55,0.45-0.93c-0.1-0.44-0.54-0.71-0.98-0.61c-0.01,0-0.02,0.01-0.04,0.01
							C140.81,71.91,140.55,72.33,140.66,72.76z"/>
					</g>
				</g>
				<path d="M134.13,73.76c0,0,4.98-0.37,9.85-3.71c1.61-1.1,1.01-1.98,1.01-1.98s-2.88,2.01-5.77,3.63
					C136.29,73.33,134.13,73.76,134.13,73.76z"/>
			</g>
		</g>
		<g>
			<g>
				<g>
					<path class="st3" d="M104.02,64.49c0.85-0.16,2.41-0.12,3.71,0.53s2.5,2.34,2.27,2.16C109.03,66.43,104.02,64.49,104.02,64.49z
						"/>
					<path class="st3" d="M108.76,64.41c-0.41-0.24,2.23,0.39,2.9,1.09c0.68,0.7,1.51,2.68,1.19,2.73
						C112.53,68.27,111.18,65.83,108.76,64.41z"/>
				</g>
			</g>
			<g>
				<g>
					<path class="st5" d="M113.75,77.3c0,0,1.03-0.53,1.54-1.7c0.84-1.95,0.33-3.72,0.33-3.72c-0.27,1.61-1.75,1.73-2.13,1.84
						c-2.32,0.69-11.36-5.64-11.36-5.64S97.85,70,95.4,74.03c1.36-1.02,4.41-2.57,5.61-3.04c-0.32,0.97-0.75,2.85,0.06,4.38
						c-1.34,0.31-2.63,0.71-3.71,1.22C97.36,76.58,107.04,74.83,113.75,77.3z"/>
					<g>
						<path class="st4" d="M104.82,73.73c0-1.27,0.88-2.33,2.06-2.61c-0.61-0.36-1.2-0.72-1.75-1.06c-1.2,0.78-2,2.13-2,3.68
							c0,0.83,0.24,1.59,0.64,2.25c0.73-0.02,1.5-0.02,2.29,0.01C105.32,75.52,104.82,74.68,104.82,73.73z"/>
						<path class="st4" d="M111.89,73.55c-0.55-0.17-1.18-0.42-1.84-0.73c0.11,0.29,0.17,0.6,0.17,0.92c0,1.08-0.64,2.01-1.56,2.44
							c0.75,0.08,1.5,0.19,2.24,0.34c0.63-0.76,1.02-1.72,1.02-2.78C111.91,73.67,111.89,73.61,111.89,73.55z"/>
						<path d="M110.22,73.73c0-0.32-0.07-0.63-0.17-0.92c-1.01-0.47-2.11-1.08-3.16-1.69c-1.18,0.29-2.06,1.34-2.06,2.61
							c0,0.95,0.49,1.78,1.24,2.26c0.85,0.03,1.72,0.08,2.6,0.18C109.58,75.75,110.22,74.82,110.22,73.73z"/>
					</g>
					<g>
						<path class="st1" d="M106.46,72.76c-0.1,0.44-0.54,0.71-0.98,0.61c-0.05-0.01-0.11-0.03-0.15-0.05
							c-0.35-0.16-0.54-0.55-0.45-0.93c0.1-0.44,0.54-0.71,0.98-0.61c0.01,0,0.02,0.01,0.04,0.01
							C106.3,71.91,106.56,72.33,106.46,72.76z"/>
					</g>
				</g>
				<path d="M112.98,73.76c0,0-4.98-0.37-9.85-3.71c-1.61-1.1-1.01-1.98-1.01-1.98s2.88,2.01,5.77,3.63
					C110.82,73.33,112.98,73.76,112.98,73.76z"/>
			</g>
		</g>
		<g>
			<path d="M135.94,94.74c-0.13-0.79-0.66-2.29-1-2.75c-0.33-0.46-0.8-2.06-0.73-1.95c0.07,0.11,0.47,0.15,0.47,0.15
				s-0.22-0.2-0.32-0.44c-0.1-0.25,0.18-0.72,0-1.24c-0.18-0.52-0.78-1.16-1.21-1.47c-0.43-0.31-1.15-0.77-1.15-0.77
				c0.17,0.02,0.43-0.1,0.43-0.1c-0.25,0.02-1.13-0.74-1.45-0.92c-0.32-0.18-1.49-0.43-1.89-0.27c-0.4,0.15-1.1-0.05-1.2-0.15
				c-0.1-0.1,0.37-0.23,0.22-0.25c-0.15-0.02-0.93,0.16-1.2,0.31c-0.27,0.15-0.88,0.08-1.23,0c-0.35-0.08-1.64,0-1.64,0
				c0.17-0.08-0.54-0.14-0.54-0.14s-0.71,0.06-0.54,0.14c0,0-1.29-0.08-1.64,0c-0.35,0.08-0.96,0.15-1.23,0
				c-0.27-0.15-1.05-0.33-1.2-0.31s0.32,0.15,0.22,0.25c-0.1,0.1-0.8,0.31-1.2,0.15c-0.4-0.15-1.57,0.09-1.89,0.27
				c-0.32,0.18-1.2,0.93-1.45,0.92c0,0,0.27,0.11,0.43,0.1c0,0-0.71,0.46-1.15,0.77c-0.43,0.31-1.03,0.95-1.21,1.47
				c-0.18,0.52,0.1,1,0,1.24c-0.1,0.25-0.32,0.44-0.32,0.44s0.4-0.03,0.47-0.15c0.07-0.11-0.4,1.49-0.73,1.95
				c-0.33,0.46-0.86,1.96-1,2.75c-0.13,0.79-0.12,2.16,0.13,2.7s1.01,1.28,1.1,1.62c0.08,0.34,0.05,0.65,0.05,0.65
				s0.28-0.41,0.25-0.65c-0.03-0.25,0.5-0.25,0.68-0.1c0.18,0.15,0.85,0.59,0.95,0.9c0.1,0.31,0.95,0.83,1.33,0.82
				s2.08,0.26,2.34,0.52c0.27,0.26,0.23,0.54,0.23,0.54s0.15-0.29,0.12-0.47c0,0,1.56,0.85,1.78,1.26c0.22,0.41,0.75,1.36,0.8,1.85
				c0.05,0.49,0.17,1.11,0.08,1.46s-0.28,0.75-0.48,1c-0.2,0.25-0.48,0.41-0.56,0.61c-0.08,0.2-0.12,0.05-0.27-0.11
				c-0.15-0.16-1.33,0.33-1.98,0.69c-0.65,0.36-1.03,0.2-1.21,0.1s-0.17,0.69-0.38,0.47c-0.22-0.21-0.3-0.23-0.71-0.15
				s-0.66,0.36-1.05,0.51c-0.38,0.15-0.33,0.29,0.2,0.13c0.53-0.16,1.08-0.33,1.61-0.25c0.53,0.08,0.8,0.11,1.33-0.1
				c0.53-0.21,2.31-0.43,3.19-0.43c0.88,0,2.9-0.03,2.9-0.03s2.02,0.03,2.9,0.03s2.66,0.21,3.19,0.43c0.53,0.21,0.8,0.18,1.33,0.1
				c0.53-0.08,1.08,0.08,1.61,0.25c0.53,0.16,0.58,0.02,0.2-0.13c-0.38-0.15-0.63-0.43-1.05-0.51c-0.42-0.08-0.5-0.07-0.71,0.15
				c-0.22,0.21-0.2-0.57-0.38-0.47c-0.18,0.1-0.56,0.26-1.21-0.1c-0.65-0.36-1.83-0.85-1.98-0.69c-0.15,0.16-0.18,0.31-0.27,0.11
				c-0.08-0.2-0.37-0.36-0.56-0.61s-0.4-0.65-0.48-1c-0.08-0.34,0.03-0.97,0.08-1.46c0.05-0.49,0.58-1.44,0.8-1.85
				c0.22-0.41,1.78-1.26,1.78-1.26c-0.03,0.18,0.12,0.47,0.12,0.47s-0.03-0.28,0.23-0.54c0.27-0.26,1.96-0.54,2.34-0.52
				s1.23-0.51,1.33-0.82c0.1-0.31,0.76-0.75,0.95-0.9c0.18-0.15,0.71-0.15,0.68,0.1s0.25,0.65,0.25,0.65s-0.03-0.31,0.05-0.65
				s0.85-1.08,1.1-1.62S136.07,95.52,135.94,94.74z"/>
			<g>
				<path class="st2" d="M133.86,91.09c-0.58-1.21-3.46-3.73-4.25-3.84c-0.79-0.1-4.11-0.44-6-0.44s-5.21,0.33-6,0.44
					c-0.79,0.1-3.68,2.63-4.25,3.84c-0.58,1.21-0.27,2.26-0.27,2.26s3.49-4.27,5.1-4.53c1.61-0.26,3.5-0.18,3.75-0.15
					c0.25,0.03,1.05,1.14,1.66,1.14c0.01,0,0.01,0,0.02,0c0.01,0,0.01,0,0.02,0c0.61,0,1.41-1.11,1.66-1.14
					c0.25-0.03,2.14-0.11,3.75,0.15c1.61,0.26,5.1,4.53,5.1,4.53S134.44,92.3,133.86,91.09z"/>
				<g>
					<path class="st2" d="M114.99,95.17c0.13-0.17,0.45,0.97,2.17,0.97s2.81-1.24,2.89-0.97c0.07,0.28-0.97,1.8-2.92,1.8
						S114.65,95.62,114.99,95.17z"/>
					<path class="st2" d="M132.22,95.17c-0.13-0.17-0.45,0.97-2.17,0.97c-1.72,0-2.81-1.24-2.89-0.97c-0.07,0.28,0.97,1.8,2.92,1.8
						S132.56,95.62,132.22,95.17z"/>
				</g>
			</g>
			<path class="st1" d="M118.03,87.79c0,0,1.78-0.17,5.58-0.17s5.79,0.17,5.79,0.17s-2.02-0.7-5.79-0.7
				C119.83,87.1,118.03,87.79,118.03,87.79z"/>
		</g>
	</g>
</g>
<path d="M147.79,144.5c-0.76,2.7-3.33,4.53-3.6,7.48c-0.79-0.67-2.22-0.76-3.31-0.49c-1.37,0.58-2.4,1.95-2.37,3.5
	c-0.12,1.82,0.79,3.25,2.25,4.1c0.19,0.24,0.52,0.27,0.79,0.49c-0.15-0.58-0.18-1.52,0.06-2.13c0.37-0.54,0.82-0.91,1.58-0.91
	c0.79,0,1.33,0.55,1.7,1.13c0.19,0.52,0.4,0.91,0.46,1.49c-0.32,0.12-0.66,0.35-0.6,0.9c0.03,0.76,0.72,0.92,0.72,0.92
	c-0.09,0.36-0.39,0.64-0.73,0.73c-0.36,0.06-0.67-0.06-0.91-0.24c-0.28-0.3-0.34-0.76-0.3-1.21c-0.73,0.46-1.37,1.13-1.55,2.01
	c-0.06,0.52,0.03,1.03,0.3,1.4c0.37,0.58,1.12,0.77,1.79,0.76c0.7-0.07,1.34-0.4,1.79-0.85c0.48,0.94,1.19,1.67,1.94,2.46
	c0.76-0.79,1.46-1.52,1.94-2.46c0.46,0.46,1.1,0.79,1.79,0.85c0.67,0.01,1.43-0.19,1.79-0.76c0.27-0.36,0.37-0.88,0.3-1.4
	c-0.18-0.88-0.82-1.55-1.55-2.01c0.03,0.46-0.03,0.91-0.31,1.22c-0.24,0.18-0.54,0.31-0.91,0.24c-0.35-0.09-0.63-0.36-0.73-0.73
	c0,0,0.68-0.16,0.72-0.92c0.06-0.55-0.29-0.78-0.6-0.9c0.06-0.58,0.28-0.98,0.46-1.49c0.37-0.58,0.91-1.13,1.7-1.13
	c0.76,0,1.22,0.37,1.58,0.91c0.25,0.61,0.22,1.55,0.06,2.13c0.27-0.21,0.61-0.25,0.79-0.49c1.46-0.85,2.37-2.28,2.25-4.1
	c0.03-1.55-1.01-2.92-2.37-3.49c-1.09-0.27-2.52-0.18-3.31,0.49C151.15,149.03,148.55,147.2,147.79,144.5"/>
</svg>
