<?xml version="1.0" encoding="utf-8"?>
<!-- Generator: Adobe Illustrator 27.2.0, SVG Export Plug-In . SVG Version: 6.00 Build 0)  -->
<svg version="1.1" id="Layer_1" xmlns="http://www.w3.org/2000/svg" xmlns:xlink="http://www.w3.org/1999/xlink" x="0px" y="0px"
	 viewBox="0 0 185.38 184.34" style="enable-background:new 0 0 185.38 184.34;" xml:space="preserve">
<style type="text/css">
	.st0{fill:#BC955C;}
	.st1{fill:#010101;}
	.st2{fill:#E6E6E5;}
	.st3{fill:#CE0E2D;}
	.st4{fill:#6F7271;}
	.st5{fill:#FFFFFF;}
	.st6{fill:#3D3935;}
</style>
<g>
	<path d="M113.87,100.04c-0.22,0.19-1.31,1.92-1.4,1.6c-0.06-0.22,0.48-1.41,1-2.52c-0.18-1.31-0.87-5.66-2.1-7.94
		c-0.74,3.82-0.01,9.27,0.74,13.17c0.32-0.63,0.82-1.49,1.07-2.13C113.58,101.17,114.09,99.85,113.87,100.04z"/>
	<path d="M158.27,125.56c0.22,0.1,2.01-3.27,2.16-7.4s-0.83-8.2-1.14-8.2c-0.24,0,0.43,6.05,0.15,9.72S158.06,125.46,158.27,125.56z
		"/>
	<path d="M156.91,128.02c0.71,0,0-8.99-0.56-9.22C156.03,118.67,156.19,128.02,156.91,128.02z"/>
	<path d="M28.45,109.17c-0.31,0-1.3,4.07-1.14,8.2s1.95,7.5,2.16,7.4c0.22-0.1-0.9-2.21-1.18-5.88S28.68,109.17,28.45,109.17z"/>
	<path d="M30.98,120.35c-0.56,0.23-1.27,9.22-0.56,9.22S31.3,120.21,30.98,120.35z"/>
	<path d="M52.18,50.68c-0.13-0.25-5.27,3.31-8.08,5.1c-2.81,1.78-5.36,3.51-7.78,6.12c-2.42,2.61-4.17,5.54-3.46,4.97
		c0.72-0.57,5.26-6.11,8.22-7.58c0,0-2.98,2.23-3.1,6.31c-0.01,0.38,1.88-4.72,5.11-7.07C46.32,56.16,52.31,50.94,52.18,50.68z"/>
	<path d="M56.39,43.9c-1.01,0.39-6.54,3.61-10.32,6.59c-3.78,2.98-9.27,8.23-9.15,8.81c0.04,0.19,7.92-6.21,11.43-8.9
		S57.4,43.51,56.39,43.9z"/>
	<path d="M51.2,45.54c0.39-0.48-2.03,0.82-4.52,2.26c-2.49,1.44-10.36,7.58-10.1,7.46c0.88-0.39,3.93-1.68,6.91-3.67
		C46.47,49.61,50.8,46.02,51.2,45.54z"/>
	<path d="M53.69,41.06c-0.67,0.05-3.94,1.79-5.7,3.23c-1.76,1.44-3.35,3.22-3.35,3.22c0.24,0.24,4.62-3.08,5.92-3.9
		S54.37,41.01,53.69,41.06z"/>
	<path d="M56.96,41.3c-0.14-0.63-4.09,2.18-4.09,2.99C52.87,44.56,57.11,41.93,56.96,41.3z"/>
	<path d="M51.82,48.66c-0.16,0.31,3.75-1.54,5.68-2.89c1.92-1.35,5.05-4.04,4.91-4.33s-2.36,1.98-4.19,2.85
		C56.39,45.15,52.54,47.22,51.82,48.66z"/>
	<path d="M58.55,33.02c-0.53,0.05-8.85,5.49-11.64,8.04c-2.79,2.55-5.24,6.46-5.24,6.46c0.34,0.18,6.3-5.64,8.71-7.86
		C52.78,37.45,59.08,32.97,58.55,33.02z"/>
	<path d="M72.84,21.43c-1.89-0.09-6.26,0.34-8.37,1.76c-0.3,0.2,4.12-0.69,5.62-0.86C71.59,22.16,74.72,21.51,72.84,21.43z"/>
	<path d="M61.6,43.41c-0.32-0.69-4.63,4.23-6.45,5.59s-6.13,5.58-6.13,5.58c0.24,0.16,3.77-2.96,5.11-3.69S61.92,44.1,61.6,43.41z"
		/>
	<path d="M72.56,29.77c0.67-0.01-1.01-1.3-1.01-1.3c1.49-0.71,6.01-0.52,6-0.74c-0.01-0.22-4.45-1-7.25-0.48
		c-2.8,0.52-4.43,1.56-3.59,1.45c0.84-0.11,2.4,0.23,2.4,0.23c-6.9,1.78-8.17,4.26-7.93,4.1C65.31,30.17,70.52,29.8,72.56,29.77z"/>
	<path d="M145.2,60.8c-4.32-3.82-12.85-9.31-12.85-9.31c-0.19,0.19,3.67,3.82,7.79,6.56s9.04,8.54,10.24,11.03
		S149.51,64.62,145.2,60.8z"/>
	<path d="M136.1,51.49c-0.13,0.25,5.86,5.48,9.1,7.84c3.23,2.36,5.12,7.46,5.11,7.07c-0.13-4.08-3.1-6.31-3.1-6.31
		c2.95,1.48,7.5,7.01,8.22,7.58c0.72,0.57-1.04-2.36-3.46-4.97c-2.42-2.61-4.97-4.33-7.78-6.12S136.23,51.24,136.1,51.49z"/>
	<path d="M130.91,43.9c-1.01-0.39,4.52,3.8,8.04,6.5s11.39,9.09,11.43,8.9c0.12-0.58-5.37-5.82-9.15-8.81S131.92,44.28,130.91,43.9z
		"/>
	<path d="M136.1,45.54c0.39,0.48,4.72,4.07,7.71,6.05c2.98,1.98,6.03,3.28,6.91,3.67c0.27,0.12-7.61-6.02-10.1-7.46
		C138.13,46.35,135.71,45.05,136.1,45.54z"/>
	<path d="M142.65,47.51c0,0-1.59-1.78-3.35-3.22c-1.76-1.44-5.02-3.18-5.7-3.23c-0.67-0.05,1.83,1.73,3.13,2.55
		S142.41,47.75,142.65,47.51z"/>
	<path d="M130.33,41.3c-0.14,0.63,4.09,3.26,4.09,2.99C134.42,43.48,130.48,40.67,130.33,41.3z"/>
	<path d="M129.8,45.78c1.92,1.35,5.83,3.2,5.68,2.89c-0.72-1.44-4.57-3.51-6.4-4.37c-1.83-0.86-4.04-3.13-4.19-2.85
		S127.88,44.43,129.8,45.78z"/>
	<path d="M136.92,39.66c2.41,2.21,8.37,8.04,8.71,7.86c0,0-2.45-3.91-5.24-6.46c-2.79-2.55-11.11-7.99-11.64-8.04
		C128.21,32.97,134.52,37.45,136.92,39.66z"/>
	<path d="M114.46,21.43c-1.89,0.09,1.24,0.73,2.75,0.9c1.5,0.17,5.92,1.06,5.62,0.86C120.72,21.77,116.35,21.34,114.46,21.43z"/>
	<path d="M138.28,54.57c0,0-4.3-4.22-6.13-5.58s-6.13-6.28-6.45-5.59c-0.32,0.69,6.13,6.74,7.47,7.47
		C134.5,51.61,138.04,54.74,138.28,54.57z"/>
	<path d="M118.39,28.93c0,0,1.55-0.33,2.4-0.23c0.84,0.11-0.79-0.93-3.59-1.45c-2.8-0.52-7.24,0.26-7.25,0.48
		c-0.01,0.22,4.51,0.03,6,0.74c0,0-1.68,1.29-1.01,1.3c2.04,0.03,7.25,0.4,11.38,3.26C126.56,33.2,125.28,30.72,118.39,28.93z"/>
	<path class="st0" d="M76.04,31.75c-1.59-0.68-3.45-0.6-4.44-0.35c0,0,6.09,1.92,7.31,2.75C79.2,34.34,77.63,32.43,76.04,31.75z"/>
	<path class="st0" d="M77.22,30.94c2.98,1.5,4.77,4.31,5.15,4.23c0.38-0.08-0.76-2.38-1.62-3.15
		C79.89,31.23,76.72,30.68,77.22,30.94z"/>
	<path class="st0" d="M112.68,31.75c-1.59,0.68-3.15,2.59-2.87,2.4c1.22-0.83,7.31-2.75,7.31-2.75
		C116.13,31.14,114.27,31.07,112.68,31.75z"/>
	<path class="st0" d="M107.97,32.01c-0.86,0.78-1.99,3.07-1.62,3.15c0.38,0.08,2.16-2.72,5.15-4.23
		C112,30.68,108.83,31.23,107.97,32.01z"/>
	<path d="M92.16,30.39c0.23-2.21,0.12-4.71-0.82-7.11c0,0-0.17,2.89-1.27,4.22c0,0-0.38-3.43-3.96-6.45c0,0,1.75,3.29,1.23,5.51
		c0,0-3.8-6.03-12.99-4.37c0,0,8.27-0.11,11.88,5.6C88.19,28.57,90.2,29.44,92.16,30.39z"/>
	<path d="M80.54,35.65c0,0,0.64,0.43,1.47,1.21c0.09-0.2,0.19-0.38,0.29-0.57C81.75,36.06,81.17,35.84,80.54,35.65z"/>
	<path d="M113.49,22.18c-9.19-1.66-12.99,4.37-12.99,4.37c-0.52-2.22,1.23-5.51,1.23-5.51c-3.58,3.02-3.96,6.45-3.96,6.45
		c-1.1-1.33-1.27-4.22-1.27-4.22c-0.96,2.46-1.06,5.01-0.8,7.25c1.91-0.94,3.88-1.81,5.81-2.59
		C105.07,22.07,113.49,22.18,113.49,22.18z"/>
	<path d="M107.31,35.65c-0.5,0.15-0.97,0.32-1.42,0.5c0.08,0.15,0.16,0.3,0.23,0.46C106.81,35.99,107.31,35.65,107.31,35.65z"/>
	<path class="st1" d="M84.3,102.48c0.07,0,0.12-0.01,0.19-0.01c-0.05-0.07-0.11-0.14-0.16-0.21
		C84.32,102.34,84.31,102.41,84.3,102.48z"/>
	<path class="st1" d="M90.14,102.39c0.01,0,0.02,0,0.02,0c-0.01-0.04-0.02-0.09-0.03-0.13C90.14,102.3,90.14,102.34,90.14,102.39z"
		/>
	<path class="st1" d="M110.95,109.73c-0.22,0.4-0.49,0.79-0.79,1.18c-0.42,1.02-0.9,2.15-1.35,3.2c0.4-0.33,0.78-0.66,1.13-0.97
		c0.06-0.41,0.15-0.85,0.26-1.31C110.36,111.17,110.63,110.44,110.95,109.73z"/>
	<path class="st1" d="M103.13,101.82c0.1-0.04,0.21-0.08,0.31-0.12c0.08-0.03,0.16-0.06,0.24-0.09c-0.02-0.19-0.04-0.4-0.06-0.62
		C103.46,101.29,103.29,101.57,103.13,101.82z"/>
	<path class="st1" d="M100.95,118.11c-1.28,0.73-2.15,1.16-2.15,1.16c0.89-0.27,1.71-0.56,2.5-0.87
		C101.17,118.31,101.06,118.21,100.95,118.11z"/>
	<path class="st1" d="M113.2,109.18c0,0-0.16-0.58-0.38-1.54c-0.48,1.22-0.99,2.66-0.99,3.51
		C112.78,109.98,113.2,109.18,113.2,109.18z"/>
	<path class="st1" d="M97.07,102.42c0.01,0,0.02,0,0.03,0c0-0.05,0-0.11,0-0.16C97.1,102.31,97.09,102.36,97.07,102.42z"/>
	<path class="st1" d="M95.36,102.41c0.04,0,0.08,0,0.13,0c-0.01-0.1-0.03-0.19-0.03-0.28C95.43,102.21,95.4,102.31,95.36,102.41z"/>
	<path class="st1" d="M91.76,102.39c0.04,0,0.08,0,0.12,0c-0.03-0.09-0.06-0.18-0.09-0.26C91.78,102.21,91.77,102.3,91.76,102.39z"
		/>
	<path class="st1" d="M96.64,116.12c-0.58,0-1.18-0.01-1.81-0.01c-1.11-0.01-2.29-0.02-3.44-0.02c0,0,0,0,0,0.01
		c0.85,0.35,1.74,0.68,2.68,0.96C94.99,116.76,95.83,116.44,96.64,116.12z"/>
	<path class="st1" d="M93.6,102.4c0.01,0,0.02,0,0.04,0c-0.01-0.05-0.01-0.11-0.02-0.16C93.62,102.29,93.61,102.34,93.6,102.4z"/>
	<path class="st1" d="M69.71,40.29c-2.05-2-0.28-4.79-0.28-4.79c0.11-0.18,0.48-0.14,0.87,0c-1.17-0.64-1.98-1.11-1.98-1.11
		s-3.45,1.05-5.76,4.85c1.28-0.97,4.17-2.43,5.3-2.88c-0.3,0.92-0.71,2.7,0.06,4.14c-1.27,0.3-2.49,0.67-3.5,1.15
		c0,0,3.02-0.41,6.44-0.56c-0.01,0-0.01,0-0.02,0C70.45,40.89,70.06,40.63,69.71,40.29z"/>
	<path class="st1" d="M71.3,36.03c-0.06-0.03-0.11-0.06-0.17-0.09c0.05,0.04,0.1,0.08,0.13,0.12C71.28,36.05,71.29,36.04,71.3,36.03
		z"/>
	<path class="st1" d="M72.78,41.03c0.08,0,0.16,0,0.24,0C72.94,41.03,72.86,41.03,72.78,41.03z"/>
	<path class="st1" d="M115.09,36.92c0.16-0.08,0.32-0.16,0.48-0.24C115.41,36.76,115.25,36.84,115.09,36.92z"/>
	<path class="st1" d="M115.99,36.47c0.16-0.08,0.32-0.17,0.48-0.25C116.31,36.31,116.15,36.39,115.99,36.47z"/>
	<path class="st1" d="M115.15,41.03c0.08,0,0.17,0,0.25,0C115.31,41.03,115.23,41.03,115.15,41.03z"/>
	<path class="st1" d="M118.74,35.5c0,0,1.77,2.79-0.28,4.79c-0.35,0.34-0.73,0.6-1.13,0.79c-0.03,0-0.06,0-0.09,0
		c3.43,0.15,6.48,0.56,6.48,0.56c-1.02-0.48-2.24-0.85-3.5-1.15c0.77-1.44,0.37-3.22,0.06-4.14c1.13,0.45,4.01,1.91,5.3,2.88
		c-2.31-3.8-5.76-4.85-5.76-4.85s-0.85,0.5-2.08,1.17c0.02-0.01,0.04-0.02,0.06-0.03C118.22,35.36,118.62,35.32,118.74,35.5z"/>
	<path class="st1" d="M116.91,36.06c0.05-0.05,0.11-0.1,0.18-0.15c0.09-0.05,0.17-0.09,0.25-0.14c-0.16,0.09-0.33,0.17-0.5,0.27
		c0.01,0,0.01-0.01,0.02-0.01C116.88,36.03,116.89,36.04,116.91,36.06z"/>
	<path class="st1" d="M114.16,37.36c0.16-0.08,0.32-0.15,0.48-0.23C114.48,37.21,114.32,37.29,114.16,37.36z"/>
	<path class="st1" d="M113.24,70.99c-0.23-8.91,3.44-21.3,3.44-21.3c-1.46-4.19-3.82-6.79-5.9-8.37c0.77-0.13,1.64-0.21,2.56-0.25
		c-0.05,0-0.1,0-0.14,0c-0.03-0.4,0.42-1.15,0.82-1.62c-0.26-0.28-0.45-0.62-0.54-1.01c-0.06-0.24-0.07-0.49-0.05-0.73
		c0.09-0.04,0.19-0.09,0.28-0.13c-2.19,0.99-4.34,1.74-5.22,1.36c-0.6-0.26-1.17-0.49-1.7-0.69c-0.2-0.6-0.43-1.13-0.67-1.64
		c-0.08-0.16-0.15-0.31-0.23-0.46c-1.22-2.27-2.81-3.52-4.02-4.08c1.04-1.43,4.3-4.6,13.78-7.08c6.38,0.67,12.44,4.46,12.44,4.46
		c-3.91-4.63-12.58-6.23-12.58-6.23s-6.64,1.74-14.01,4.73c-1.92,0.78-3.89,1.64-5.81,2.59c-0.36,0.18-0.72,0.36-1.07,0.54
		c-0.38,0.2-0.55,0.48-0.55,0.48s-0.17-0.26-0.55-0.48c-0.45-0.23-0.91-0.46-1.36-0.68c-1.96-0.95-3.97-1.83-5.92-2.61
		c-7.21-2.89-13.61-4.57-13.61-4.57s-8.67,1.61-12.58,6.23c0,0,6.06-3.79,12.44-4.46c9.57,2.51,12.8,5.71,13.81,7.12
		c-1.22,0.59-2.81,1.87-4,4.18c-0.1,0.19-0.2,0.37-0.29,0.57c-0.19,0.41-0.36,0.85-0.52,1.32c-0.56,0.22-1.18,0.47-1.83,0.75
		c-0.84,0.36-2.83-0.31-4.91-1.22c0.02,0.23,0.01,0.48-0.05,0.72c-0.09,0.39-0.29,0.74-0.54,1.01c0.4,0.48,0.85,1.23,0.82,1.62
		c-0.06,0-0.13,0-0.19,0c0.92,0.04,1.81,0.12,2.58,0.25c-2.08,1.58-4.45,4.18-5.9,8.37c0,0,3.67,12.39,3.44,21.3
		c-2.27,7.49-2.01,15.85-1.39,21.58c0.45,4.17,1.1,6.94,1.1,6.94s0.69-5.63,2.15-8.33c0.98,5.09-0.64,13.07-1.43,16.42
		c0.4,0.84,0.75,1.71,0.94,2.51c0.05,0.21,0.09,0.4,0.13,0.6c0.13-0.71,0.25-1.34,0.35-1.86c0-0.01-0.01-0.01-0.01-0.02
		c0.02-0.07,0.03-0.14,0.06-0.22c0.08-0.41,0.15-0.74,0.21-0.95h0c0.05-0.2,0.12-0.4,0.19-0.59c3.81-15.26-0.35-23.86-0.35-23.86
		s-1.75,7.58-2.13,8.72c-0.51-7.05-0.6-11.24,1.33-16.05c1.25,2.6,3.81,8.2,5.1,12.98c-0.48-3.75-2.05-9.01-3.35-12.95
		c2.36,3.09,4.89,7.4,6.01,12.66c0.63,2.99,0.83,5.86,0.84,8.26c1.21,1.31,2.3,1.97,2.73,2.2c0.17,0.45,0.59,1.83-0.06,3.13
		c-0.05,0.09-0.11,0.16-0.16,0.24c0.35,0,0.72-0.01,1.12-0.01c0.03-0.64,0.26-1.32,0.26-1.32s2.45,0.62,5.08,0.62
		c2.62,0,5.08-0.62,5.08-0.62s0.24,0.71,0.26,1.36c0.13,0,0.27,0,0.38,0c0.23,0,0.44-0.01,0.64-0.01c-0.06-0.08-0.12-0.16-0.17-0.25
		c-0.65-1.29-0.22-2.68-0.06-3.13c0.54-0.29,2.13-1.28,3.7-3.39c0.06-2.14,0.29-4.56,0.82-7.07c1.13-5.32,3.71-9.67,6.09-12.77
		c-1.31,3.97-2.92,9.32-3.39,13.1c1.29-4.79,3.86-10.42,5.11-13.02c1.93,4.81,1.84,8.99,1.33,16.05c-0.38-1.14-2.13-8.72-2.13-8.72
		s-3.15,6.82-1.27,19.1c0.12,0.11,0.23,0.22,0.32,0.32c1.17,1.3,1.54,3.15,1.04,5.19c-0.02,0.07-0.07,0.22-0.14,0.4
		c0.05,0.21,0.09,0.4,0.15,0.61c-0.01,0.02-0.01,0.03-0.02,0.05c0.41-0.81,0.85-1.57,1.24-2.17c-0.13-0.58-0.27-1.24-0.41-1.96
		c-0.03-0.13-0.05-0.27-0.08-0.4c-0.74-3.9-1.48-9.35-0.74-13.17c1.23,2.28,1.91,6.63,2.1,7.94c0.03,0.24,0.05,0.39,0.05,0.39
		s0.08-0.33,0.19-0.92c0.28-1.39,0.78-4.28,1.09-7.95C115.27,85.06,115.26,77.68,113.24,70.99z M87.53,34.93
		c0.84-0.12,4.36-0.5,6.37-0.5c2,0,5.53,0.38,6.37,0.5c0.84,0.12,3.9,3.03,4.51,4.42s0.29,2.6,0.29,2.6s-3.7-4.92-5.41-5.22
		c-1.71-0.3-3.71-0.21-3.98-0.17c-0.27,0.04-1.11,1.31-1.76,1.31c-0.01,0-0.01,0-0.02-0.01c-0.01,0-0.01,0.01-0.02,0.01
		c-0.65,0-1.49-1.27-1.76-1.31c-0.27-0.04-2.27-0.13-3.98,0.17c-1.71,0.3-5.41,5.22-5.41,5.22s-0.32-1.21,0.29-2.6
		C83.63,37.96,86.69,35.05,87.53,34.93z M100.78,46.12c-2.07,0-3.18-1.75-3.1-2.07s1.23,1.11,3.06,1.11c1.83,0,2.17-1.31,2.31-1.11
		C103.4,44.57,102.84,46.12,100.78,46.12z M84.76,44.05c0.14-0.2,0.48,1.11,2.31,1.11c1.83,0,2.98-1.43,3.06-1.11
		c0.08,0.32-1.03,2.07-3.1,2.07C84.96,46.12,84.4,44.57,84.76,44.05z M82.49,73.91c0,0-4.02-4.44-3.07-10.84
		c0.53-3.6,6.09-1.16,5.36,0.58C83.22,67.31,82.49,73.91,82.49,73.91z M94.59,99.49c-0.33,0.05-0.67,0.07-1.03,0.07
		s-0.71-0.02-1.03-0.07c-5.15-0.68-5.95-6.42-5.95-6.42c1.93-6.31-0.87-13.18-2.35-16.87c3.69-4.49,8.77-0.91,8.77-0.91l0.56,21.58
		l0.56-21.58c0,0,5.08-3.58,8.77,0.91c-1.48,3.7-4.28,10.56-2.35,16.87C100.53,93.08,99.74,98.81,94.59,99.49z M89.55,61.61
		c0.9,0,1.14,1.15,1.21,1.84c0.22-0.66,0.72-1.72,1.66-1.73c0.92-0.01,1.17,0.94,1.23,1.58c0.06-0.63,0.31-1.59,1.23-1.58
		c0.95,0.01,1.45,1.08,1.66,1.73c0.06-0.69,0.31-1.84,1.21-1.84c0.9,0,1.26,0.92,1.4,1.66c-0.02-0.34-0.02-0.7,0.03-0.99
		c0.24-1.39,2.79-1.55,2.9,0.51c0.05,0.94-0.41,2.11-0.41,2.11s-3.87-0.85-8.02-0.85c-4.15,0-8.02,0.85-8.02,0.85
		s-0.47-1.16-0.41-2.11c0.11-2.06,2.66-1.9,2.9-0.51c0.05,0.29,0.05,0.66,0.03,0.99C88.29,62.53,88.65,61.61,89.55,61.61z
		 M104.81,73.91c0,0-0.73-6.61-2.28-10.26c-0.74-1.74,4.82-4.18,5.36-0.58C108.82,69.47,104.81,73.91,104.81,73.91z M94.05,56.56
		c-3.09,0-12.73-0.46-16.65,5.52c-1.04-1.36-3.01-5.67-3.58-12.76c0,0,1.96-6.54,7.1-8.89c-0.12,0.63,0.31,3.86,0.31,3.86
		s2.47,5.32,5.09,6.7c5.83-0.05,7.48,2.08,7.79,2.57l0,0.1c0,0,0.01-0.02,0.03-0.05c0.02,0.03,0.03,0.05,0.03,0.05l0-0.1
		c0.3-0.49,1.96-2.62,7.79-2.57c2.61-1.38,5.09-6.7,5.09-6.7s0.43-3.18,0.32-3.8c5.05,2.4,6.97,8.83,6.97,8.83
		c-0.58,7.14-2.59,11.47-3.61,12.79C106.81,56.09,97.15,56.56,94.05,56.56z"/>
	<path class="st0" d="M82.58,93.95c0.66,1.2,1.39,2.14,2.07,2.89c-0.01-2.4-0.2-5.27-0.84-8.26c-1.11-5.26-3.64-9.57-6.01-12.66
		c1.3,3.94,2.87,9.2,3.35,12.95c0.04,0.35,0.09,0.71,0.12,1.04c0.45,6.13-1.33,12.01-1.73,13.23c0.04,0.13,0.13,0.33,0.25,0.56
		c0.55-0.37,1.16-0.68,1.84-0.89c0.46-0.15,1.16-0.26,2.66-0.33c0.01-0.07,0.02-0.14,0.03-0.22
		C83.28,100.82,81.78,97.95,82.58,93.95z"/>
	<path class="st0" d="M104.28,88.58c-0.53,2.51-0.76,4.94-0.82,7.07c0.38-0.51,0.75-1.06,1.11-1.7c0.62,3.07-0.1,5.45-0.94,7.04
		c0.02,0.22,0.04,0.43,0.06,0.62c0.54-0.2,1.15-0.41,1.87-0.51c0.99-0.13,1.81-0.05,2.49,0.14c-0.64-2.49-1.51-6.84-1.18-11.33
		c0.02-0.31,0.07-0.65,0.11-0.99c0.47-3.79,2.08-9.14,3.39-13.1C107.98,78.9,105.4,83.26,104.28,88.58z"/>
	<path class="st0" d="M110.72,62.11c1.02-1.32,3.03-5.65,3.61-12.79c0,0-1.93-6.43-6.97-8.83c0.11,0.61-0.32,3.8-0.32,3.8
		s-2.47,5.32-5.09,6.7c-5.83-0.05-7.48,2.08-7.79,2.57l0,0.1c0,0-0.01-0.02-0.03-0.05c-0.02,0.03-0.03,0.05-0.03,0.05l0-0.1
		c-0.3-0.49-1.96-2.62-7.79-2.57c-2.62-1.38-5.09-6.7-5.09-6.7s-0.43-3.23-0.31-3.86c-5.14,2.35-7.1,8.89-7.1,8.89
		c0.57,7.09,2.55,11.41,3.58,12.76c3.92-5.99,13.56-5.52,16.65-5.52C97.15,56.56,106.81,56.09,110.72,62.11z"/>
	<path class="st2" d="M79.42,63.08c-0.94,6.39,3.07,10.84,3.07,10.84s0.73-6.61,2.28-10.26C85.51,61.92,79.95,59.48,79.42,63.08z"/>
	<path class="st2" d="M102.52,63.66c1.55,3.65,2.28,10.26,2.28,10.26s4.02-4.44,3.07-10.84C107.35,59.48,101.79,61.92,102.52,63.66z
		"/>
	<path class="st2" d="M88.12,62.28c-0.24-1.39-2.79-1.55-2.9,0.51c-0.05,0.94,0.41,2.11,0.41,2.11s3.87-0.85,8.02-0.85
		c4.15,0,8.02,0.85,8.02,0.85s0.47-1.16,0.41-2.11c-0.11-2.06-2.66-1.9-2.9-0.51c-0.05,0.29-0.05,0.66-0.03,0.99
		c-0.14-0.75-0.5-1.66-1.4-1.66c-0.9,0-1.14,1.15-1.21,1.84c-0.22-0.66-0.72-1.72-1.66-1.73c-0.92-0.01-1.17,0.94-1.23,1.58
		c-0.06-0.63-0.31-1.59-1.23-1.58c-0.95,0.01-1.45,1.08-1.66,1.73c-0.06-0.69-0.3-1.84-1.21-1.84c-0.9,0-1.26,0.92-1.4,1.66
		C88.17,62.94,88.17,62.58,88.12,62.28z"/>
	<path d="M131.54,155.62c0-3.04-1.64-6.63-4.08-8.7h-8.36c-2.44,2.07-4.08,5.67-4.08,8.7c0,4.56,3.7,9.57,8.26,9.57
		S131.54,160.18,131.54,155.62z"/>
	<path d="M118.61,125.98c-2.25,4.81,1.52,8.4,2.62,8.9c1.58-2.31,4.89-8.93,7.13-8.93c2.26,0,0.71,4.71-0.44,7.24
		c4.71-1.1,5.27-3.56,5.49-5.18c0.22-1.62-0.58-3.72-1.73-4.64c-1.26-1.11-3.18-1.67-5.72-1.67
		C121.46,121.7,119.02,125.1,118.61,125.98z"/>
	<path d="M109.57,146.91c0.02,0.37,0.04,0.74,0.05,1.11c-0.02-0.24,0.14-0.63,0.42-1.11h-0.15H109.57z"/>
	<path d="M94.72,135.99c-1.48-1.91-3.34-3.43-5.55-4.54c-2.14-1.1-4.69-1.66-7.58-1.66c-0.8,0-1.53-0.03-2.19-0.1
		c-0.17-0.02-0.33-0.05-0.5-0.07c0.24,1.14,0.36,2.36,0.32,3.69c-0.06,1.92-0.46,3.85-1.2,5.76c-0.59,1.42-1.3,2.85-2.11,4.3
		c6.58,0.01,13.29,0.02,19.91,0.03v-0.01l2.45,0c-0.07-0.26-0.12-0.52-0.2-0.78C97.32,140.07,96.2,137.85,94.72,135.99z"/>
	<path d="M180.78,145.74c0.04-0.32,0.06-0.67,0.06-1.04c0-0.26-0.03-0.51-0.07-0.75l3.44-4.03c0.61-0.72,0.75-1.73,0.36-2.58
		c-0.4-0.85-1.26-1.4-2.19-1.4h-6.07c-0.47,0-0.93,0.14-1.33,0.4l-0.09,0.06c-0.41-0.3-0.9-0.46-1.42-0.46h-6.08
		c-0.4,0-0.79,0.1-1.13,0.28c-0.35-0.18-0.74-0.28-1.13-0.28h-0.99c-0.57,0-1.13,0.2-1.56,0.57l-5.38,4.56l-11.15-0.02
		c0.16-0.45,0.32-0.93,0.47-1.46c1.02-3.48,1.14-9.01,1.17-9.86c0.03-0.85,0.65,2.58,0.6,4.36c-0.05,1.78-0.6,5.13-0.52,5.34
		c0.07,0.21,3.93-2.5,5-8.42c1.07-5.92,0.25-11.03,0.4-10.95s0.67,3.91,1.07,5.9c0.4,1.99,1.29,4.33,1.39,4.22
		c0.1-0.11-0.37-6.51-0.22-10.6c0.15-4.09,0.4-7.78,0.42-8.85c0.02-1.06,0.4,0.27,0.75,2.05c0.35,1.78,1.17,8.21,1.34,8.08
		c0.17-0.13,0.92-6.99,0.4-12.33c-0.52-5.34-2.36-10.92-2.68-11.88c-0.32-0.96,1.99,2.92,2.66,5.15c0.67,2.23,1.86,8.85,1.91,9.25
		c0.05,0.4,0.85-1.54,0.8-6.83c-0.05-5.29-1.07-9.94-0.97-9.96s1.19,1.62,2.04,4.49c0.85,2.87,1.24,7.86,1.47,4.78
		c0.22-3.08-0.99-9.17-0.99-9.17c0.5,0.45,1.39,4.44,1.57,4.76s0.32-3.88-0.5-6.38c-0.82-2.5-2.39-7.92-1.91-6.59
		c0.47,1.33,2.14,3.35,2.31,3.37c0.17,0.03-0.4-0.93-0.82-2.07c-0.42-1.14-2.35-8.96-1.77-7.68c0.57,1.28,3.36,3.68,2.74,3.07
		c-0.52-0.52-2.36-4.43-2.71-5.15c0.41,0.83,2.8,2.88,2.93,2.65c0.13-0.24-2.03-2.27-2.61-3.35c-0.57-1.09-1.15-3.21-1.06-3.73
		c0.09-0.52,2.17,3.92,2.39,4.35c0.22,0.43,0.62-2.13-0.21-4.58c-0.83-2.46-4.43-6.05-4.74-6.71c-0.31-0.66,3.49,3.21,4.07,3.5
		c0.57,0.28-2.87-4.06-2.12-3.59c0.75,0.47,2.47,3.5,2.78,2.88c0.31-0.61-5.83-10.01-6.5-10.86s5.13,5.29,5.57,5.57
		c0.44,0.28-6.01-7.84-6.45-8.64c-0.44-0.8,3.71,3.73,4.37,4.3c0.66,0.57-1.37-2.74-3.18-4.82c-1.81-2.08-4.64-4.82-5.13-5.57
		c-0.49-0.76,2.43,1.84,3.05,2.27c0.62,0.43-2.85-4.42-3.33-5.3c-0.48-0.87,3.13,2.99,3.61,3.35c0.48,0.36-1.09-2.62-2.39-4.59
		c-0.25-0.38-0.8-1.12-1.55-2.12c0.97-0.87,2.15-1.96,2.92-2.78c1.53-1.63,3.55-3.97,3.47-4.23s-0.95,0.09-1.16,0
		c-0.21-0.09,1.65-1.72,3.38-3.75c1.73-2.03,2.76-4.1,2.68-4.41c-0.08-0.31-1.36,0.62-1.16,0.31c0.21-0.31,2.02-4.01,1.86-4.41
		s-0.87,1.28-1.03,1.1c-0.17-0.18,0.7-1.94,1.38-3.4c0.67-1.46,0.56-5.03,0.4-5.2c-0.16-0.18-0.54,0.44-0.62,0.31
		c-0.08-0.13,0.33-1.23,0.22-1.5c-0.11-0.26-0.72,0.93-0.88,0.75c-0.17-0.18,1.32-3.44,1.28-3.84s-0.78,0.4-0.95,0.26
		c-0.17-0.13,0.5-0.97,0.37-1.32c-0.12-0.35-0.99,0.09-1.2,0.04c-0.21-0.04,0.87-0.84,0.66-1.1s-2.15,0.13-2.39-0.09
		c-0.25-0.22,2.35-1.06,2.39-1.28c0.04-0.22-1.9-0.22-2.06-0.26c-0.17-0.04,1.57-1.59,1.57-1.81s-3.88-0.53-4-0.71
		c-0.12-0.18,1.28-1.76,1.2-1.94c-0.08-0.18-2.35,0.4-2.6,0.35c-0.25-0.04,1.03-1.15,1.2-1.41c0.17-0.26-0.7-0.4-3.67-0.49
		c-2.97-0.09-5.45,0.88-6.02,0.88c-0.58,0,3.51-2.47,3.43-2.69c-0.08-0.22-1.65-0.09-6.27,1.63c-4.62,1.72-8.38,5.03-8.67,4.9
		c-0.29-0.13,3.14-3.71,3.05-3.93c-0.08-0.22-2.81,0.79-4.66,2.38c-1.86,1.59-4.5,5.03-4.83,4.94c-0.33-0.09,0.95-1.81,0.58-1.98
		c-0.37-0.18-3.47,4.85-3.65,4.59c-0.18-0.26,0.27-2.29,0-2.25c-0.24,0.04-3.48,5.2-4.11,6.21c-1.2-0.38-4.85-1.39-7.41-0.66
		c-0.61,0.35-1.33,0.53-1.44,0.56c-0.83,0.2-1.79,0.25-1.93,0.05c-0.14-0.2,4.15-2.01,3.94-2.21c-0.21-0.19-6.25,1.14-6.71,1.03
		c-0.46-0.11,2.77-1.49,2.77-1.7s-2.11,0.19-4.01,0.19c-1.9,0-4.65-0.38-7.03-0.54c-2-0.13-6.36,0.99-9.08,1.07
		c-3.13-0.8-8.14-2.01-10.04-2.08c-2.85-0.11-3.63,0.33-3.63,0.33s1.71,0.81,1.14,0.93c-0.57,0.12-2.54-0.77-4.98-0.66
		s-5.23,1.16-4.87,1.22c0.36,0.06,2.49,0.28,1.71,0.44c-0.78,0.17-5.03,0.32-5.52,0.62c-0.48,0.3,2.16,0.33,2.16,0.85
		s-0.8,0.36-1.82,0.33c-0.95-0.03-2.26-0.15-3.2,0.01c-0.86-1.37-3.76-5.97-3.99-6.01c-0.27-0.04,0.18,1.98,0,2.25
		c-0.18,0.26-3.28-4.76-3.65-4.59c-0.37,0.18,0.91,1.9,0.58,1.98c-0.33,0.09-2.97-3.35-4.83-4.94c-1.86-1.59-4.58-2.6-4.66-2.38
		c-0.08,0.22,3.34,3.79,3.05,3.93c-0.29,0.13-4.04-3.18-8.67-4.9c-4.62-1.72-6.19-1.85-6.27-1.63c-0.08,0.22,4,2.69,3.43,2.69
		s-3.05-0.97-6.02-0.88c-2.97,0.09-3.84,0.22-3.67,0.49s1.44,1.37,1.2,1.41c-0.25,0.04-2.52-0.53-2.6-0.35
		c-0.08,0.18,1.32,1.76,1.2,1.94c-0.12,0.18-4,0.49-4,0.71s1.73,1.76,1.57,1.81c-0.17,0.04-2.1,0.04-2.06,0.26
		c0.04,0.22,2.64,1.06,2.39,1.28c-0.25,0.22-2.19-0.18-2.39,0.09s0.87,1.06,0.66,1.1c-0.21,0.04-1.07-0.4-1.2-0.04
		s0.54,1.19,0.37,1.32s-0.91-0.66-0.95-0.26s1.44,3.66,1.28,3.84c-0.17,0.18-0.77-1.01-0.88-0.75s0.3,1.37,0.22,1.5
		s-0.46-0.49-0.62-0.31c-0.16,0.18-0.27,3.75,0.4,5.2s1.54,3.22,1.38,3.4c-0.17,0.18-0.87-1.5-1.03-1.1
		c-0.17,0.4,1.65,4.1,1.86,4.41c0.21,0.31-1.07-0.62-1.16-0.31c-0.08,0.31,0.95,2.38,2.68,4.41s3.59,3.66,3.38,3.75
		c-0.21,0.09-1.07-0.26-1.16,0c-0.08,0.26,1.94,2.6,3.47,4.23c1.07,1.15,2.92,2.79,3.92,3.67c-0.71,0.94-1.23,1.65-1.47,2.01
		c-1.29,1.97-2.86,4.95-2.39,4.59s4.09-4.22,3.61-3.35s-3.94,5.72-3.33,5.3c0.62-0.43,3.54-3.02,3.05-2.27
		c-0.49,0.76-3.31,3.5-5.13,5.57c-1.81,2.08-3.84,5.38-3.18,4.82c0.66-0.57,4.82-5.1,4.37-4.3s-6.89,8.93-6.45,8.64
		c0.44-0.28,6.23-6.42,5.57-5.57c-0.66,0.85-6.8,10.25-6.5,10.86s2.03-2.41,2.78-2.88c0.75-0.47-2.7,3.87-2.12,3.59
		c0.57-0.28,4.37-4.16,4.07-3.5c-0.31,0.66-3.91,4.25-4.74,6.71c-0.83,2.46-0.43,5.01-0.21,4.58c0.22-0.43,2.3-4.86,2.39-4.35
		s-0.49,2.64-1.06,3.73c-0.57,1.09-2.74,3.12-2.61,3.35c0.13,0.23,2.52-1.82,2.93-2.65c-0.35,0.72-2.19,4.63-2.71,5.15
		c-0.62,0.61,2.17-1.79,2.74-3.07c0.57-1.28-1.35,6.54-1.77,7.68c-0.42,1.14-0.99,2.1-0.82,2.07c0.17-0.03,1.84-2.05,2.31-3.37
		s-1.09,4.09-1.91,6.59c-0.82,2.5-0.67,6.7-0.5,6.38c0.17-0.32,1.07-4.3,1.57-4.76c0,0-1.22,6.08-0.99,9.17s0.62-1.91,1.47-4.78
		c0.85-2.87,1.94-4.52,2.04-4.49c0.1,0.03-0.92,4.68-0.97,9.96c-0.05,5.29,0.75,7.23,0.8,6.83c0.05-0.4,1.24-7.01,1.91-9.25
		c0.67-2.23,2.98-6.11,2.66-5.15c-0.32,0.96-2.16,6.54-2.68,11.88c-0.52,5.34,0.22,12.2,0.4,12.33c0.17,0.13,0.99-6.3,1.34-8.08
		c0.35-1.78,0.72-3.11,0.75-2.05c0.02,1.06,0.27,4.76,0.42,8.85c0.15,4.09-0.32,10.49-0.22,10.6c0.1,0.11,0.99-2.23,1.39-4.22
		s0.92-5.82,1.07-5.9c0.15-0.08-0.67,5.02,0.4,10.95c1.07,5.92,4.92,8.63,5,8.42c0.07-0.21-0.47-3.56-0.52-5.34
		c-0.05-1.78,0.57-5.21,0.6-4.36s0.15,6.38,1.17,9.86c0.05,0.18,0.11,0.35,0.16,0.53l-19.79-0.03c0.72-1.34,1.16-2.69-0.07-3.87
		c-1.25-1.21-1.91-0.97-8.17,1.36c-3.32,1.24-6.88,2.63-9.07,3.56C1.21,143.05,0,143.57,0,145.33c0,1.81,1.44,2.37,3.62,3.21
		c2.18,0.84,5.86,2.12,9.16,3.19c6.36,2.06,7.22,2.27,8.42,0.95c0.9-1,0.82-2.09,0.25-3.35h26.8c0.5,0.74,0.77,0.86,0.71,0.5
		c-0.02-0.11-0.06-0.29-0.12-0.5h2.19c0.36,1.52,0.08,2.61,0.16,2.51c0.08-0.1,0.59-1.09,0.59-2.51H54c0.26,1.3-0.8,2.72-0.45,2.59
		c2.37-0.85,2.13-2.39,2.13-2.39c0.24,0.18,0.6,0.66,0.95,1.29c-1.49,2-2.96,3.96-4.42,5.9c-1.67,2.24-3.27,4.45-4.78,6.61
		c-1.49,2.22-2.66,4.22-3.46,5.94c-0.23,0.51-0.36,1.07-0.36,1.63c0,1.96,1.08,3.67,2.76,4.44c0.79,0.41,1.65,0.67,2.57,0.78
		c0.46,0.05,9.28,0.17,17.07,0.27c-0.34,1.11-0.24,2.32,0.32,3.41c1.42,2.79,5.49,4.4,11.45,4.51c0.18,0,0.37,0.01,0.55,0.01
		c4.35,0,8.71-1,12.96-2.99c4.14-1.93,7.84-4.55,10.94-7.72c1.94-1.9,3.66-4,5.15-6.29c2.97,4.67,7.92,8.33,15.2,8.33
		c6.51,0,11.58-1.78,15.07-5.28c5.11-5.13,5.09-12.16,5.08-14.81v-0.25c0-0.58-0.07-2.97-1.03-6.02h15.52l5.75,4.62
		c0.43,0.34,0.96,0.53,1.51,0.53h5.89c0.38,0,0.76-0.09,1.1-0.26c0.34,0.17,0.71,0.26,1.1,0.26h10.32c0.96,0,1.87-0.59,2.25-1.47
		C185.77,151.5,185.53,150.86,180.78,145.74z M122.3,95.88c0.14,1.39,0.13,3.15-0.21,4.39s-2,3.66-2,3.66
		c-0.23-0.06,0.69-1.95,0.91-2.92c0.22-0.97,0.48-2.19,0.25-1.89c-0.23,0.3-1.14,2.24-1.35,2.12c-0.21-0.12,0.66-2.61,1-3.76
		c0.34-1.15,1.2-4.5,1.32-4.32C122.34,93.35,122.16,94.49,122.3,95.88z M117.95,100.84c-3.34,8.1-2.28,9.86-2.05,10.11
		c0.01,0.01,0.03,0.02,0.03,0.02c0.02,0.02,0,0.01-0.03-0.02c-0.31-0.22-2.44-1.82,1.1-10.92c3.69-9.47,2.92-12.2,3.36-12.1
		C120.37,87.93,121.8,91.51,117.95,100.84z M126.26,112.59c0.36-2.74,1.21-10.29,0.62-15.35c-0.73-6.28-1.6-10.01-1.6-10.01
		s2.07,4.19,2.76,11.16c0.55,5.49-0.95,11.78-1.62,14.2C126.37,112.59,126.32,112.59,126.26,112.59z M133.72,107.31
		c0.4-12-1.67-14.87-1.1-14.89c0,0,3.23,3.62,2.58,15.52c-0.21,3.73-0.07,6.33,0.2,8.14c-0.38-0.31-0.78-0.6-1.2-0.87
		C133.82,113.35,133.6,110.82,133.72,107.31z M135.74,86.15c1.85,6.76,0.66,15.35,0.66,15.35s-0.22-10.22-2-16.29
		c-1.78-6.07-3.26-9.6-3.26-9.6S133.89,79.39,135.74,86.15z M133.97,76.94c0,0,2.79,2.73,3.47,9.7L133.97,76.94z M145.15,112.18
		c-0.39-2.29-1.14-7.02-1.04-6.76c2.07,5.61,1.82,11.85,1.34,11.76C144.98,117.1,145.54,114.48,145.15,112.18z M142.67,81.35
		c0.19-0.44,2.08,5.28,2.47,7.76c0.39,2.47,0.29,5.48,0.29,5.48C145.34,94.58,142.48,81.78,142.67,81.35z M144.76,102.19
		c-0.25-4.58-1.98-10.16-1.68-9.74C146.06,96.58,145.01,106.76,144.76,102.19z M143.04,124.82c0.09,3.76,1.16,7.53,1.05,7.73
		c-0.11,0.2-0.89-1.81-1.05-2.86S143.03,124.38,143.04,124.82z M144.09,125.57c-0.41-3.56,0.31-8.48,0.67-8.38
		c0,0,0.35,5.47,0.39,7.48c0.03,2.01,0.07,10.79,0,10.09C145.08,134.05,144.51,129.14,144.09,125.57z M143.3,75.69
		c-1.41-3.15-4.75-8.53-4.22-8.09s4.27,5.72,5.21,8.53c0.94,2.81,2.01,10.2,2.01,10.2C145.87,86.3,144.7,78.84,143.3,75.69z
		 M138.24,141.04c-0.08-0.99-0.23-1.97-0.45-2.91c0.65,0.75,1.2,1.7,1.64,2.91L138.24,141.04z M141.52,131.07
		c-0.9-3.83-0.44-7.77-0.35-7.99c0.19-0.44,0.35,4.97,1.21,8.09c0.67,2.41-0.12,7.51-0.12,7.51
		C142.22,138.68,142.35,134.63,141.52,131.07z M141.8,103.35c-0.23-0.11-0.03-7.24,0-6.9c0.15,1.59,0.93,3.06,0.49,3.99
		C141.84,101.36,142.03,103.45,141.8,103.35z M142.42,87.26c-0.25,0.01-2.8-8.21-2.44-8.3c0,0,0.91,1.24,1.47,2.82
		C142,83.35,142.67,87.26,142.42,87.26z M140.38,95.08c-0.11-0.04-3.11-13.69-2.73-13.76c0,0,1.47,3.43,1.9,5.59
		S140.49,95.13,140.38,95.08z M138.3,93.17c0.72,4.36,1.04,14.27,1.44,12.94c0.41-1.32,0.39-7.41,0.39-7.41s0.9,3.26,1.44,10.46
		c0.54,7.2-0.95,12.51-0.95,12.51c0.82-6.56-0.57-12.85-0.57-12.85s-0.02,4.9-0.48,10.38c-0.05,0.55-0.11,1.12-0.19,1.71
		c-0.34-0.65-0.74-1.28-1.18-1.89c0.09-1.59,0.15-3.27,0.19-5.04C138.59,103.32,138.25,92.86,138.3,93.17z M142.39,141.04
		c0.95-3.8,1.38-7.82,1.37-8.07c-0.02-0.5,0.6,0.72,0.89,3.08c0.15,1.19,0.1,3.11,0,4.8c0.01,0.06,0.02,0.12,0.02,0.19
		L142.39,141.04z M147.12,128.23c-0.4,1.05-0.4,3.11-0.5,3.06c-0.1-0.05-0.35-2.56,0-4.16c0.35-1.61,0.12-6.14,0.25-5.92
		C147.42,122.11,147.52,127.18,147.12,128.23z M148.47,125.82c-0.15-0.1,0.05-2.34-0.43-6.31c-0.49-3.97-2.16-11.14-1.96-11.3
		s1.58,6.51,1.83,6.46c0.25-0.05,0.05-1.32,0-4.68c-0.05-3.36-1.07-9.57-0.81-9.57c0,0,1.83,5.75,2.03,11.35
		S148.62,125.92,148.47,125.82z M153.34,117.12c0.14-7.33-2.12-14.12-2.12-14.12s0.55,5.42,0.69,11.52s-1.51,14.87-1.51,14.87
		s0.62-8.71-0.41-20.5c-1.03-11.79-2.63-23.3-2.54-22.96c1.3,4.73,2.81,15.63,3.1,14.12c0.29-1.51-0.43-8.23-0.43-8.23
		s1.37,3.5,2.81,11.38C154.36,111.08,153.34,117.12,153.34,117.12z M155.03,105.14c-0.19,0-1.5-8.19-4.46-17.59
		s-7.5-16.82-7.12-17.01c0,0,4.75,4.41,7.51,13.81C153.72,93.75,155.22,105.14,155.03,105.14z M156.9,96.87
		c0.05-0.95-0.75-4.37-2.21-7.23c-1.45-2.86-3.21-9.18-3.11-8.88c0.35,1.1,2.61,5.87,4.26,9.38
		C157.5,93.66,156.85,97.82,156.9,96.87z M28.44,97.01c-0.29,3.05-0.05-3.93,1.03-8.67s4.1-10.06,3.81-10.26
		c-0.29-0.2-5.71,10.06-6.1,12.89c-0.39,2.83-0.24-2.74,1.81-7.13c2.05-4.4,6.89-10.94,6.74-11.28c-0.15-0.34-6.69,9.08-6.89,9.04
		c-0.17-0.04,6.64-10.44,7.98-12.81c-0.32,0.87-0.3,1.15,0.11,0.29c1.21-2.49,6.12-8.29,10.24-11.03s7.98-6.37,7.79-6.56
		c0,0-8.54,5.48-12.85,9.31c-2.59,2.3-4.37,5.71-5.12,7.54c-0.52,0.3-6.37,8.42-6.67,8.21c-0.31-0.22,2.57-5.25,3.79-6.98
		s3.52-3.69,3.32-3.88c-0.2-0.2-6.16,6.06-7.11,7.42c-0.95,1.37,0.86-2.54,1.35-3.54s-1.81,1-2.1,0.98
		c-0.29-0.03,3.71-5.98,4.88-7.25c1.17-1.27,2.71-3.37,2.29-3.13C36.3,60.4,34,62.7,33.86,62.5c-0.15-0.2,5.84-6.79,5.82-7.08
		s-4.5,2.67-7.43,5.35c-2.93,2.69-5.1,5.74-5.1,5.74s2.78-4.59,5.87-8.21c3.09-3.61,11.84-11.09,11.61-11.23
		c-0.23-0.15-7.01,5.03-7.16,4.84c-0.15-0.2,8.64-11.43,8.54-11.68c-0.1-0.24-7.23,6.89-7.47,6.79c-0.24-0.1,1.93-4.6,4.26-6.79
		c2.28-2.14,6.03-5.03,5.99-5.25c-0.16,0.03-0.3,0.06-0.42,0.08c-1.19,0.39-4.49,1.76-4.7,1.58c-0.04-0.04,0.15-0.19,0.48-0.41
		c-0.31,0.07-0.52,0.1-0.53,0.02c-0.03-0.24,3.01-1.63,4.89-2.56c0.47-0.26,0.91-0.5,1.31-0.71c0.08-0.06,0.14-0.11,0.13-0.13
		c-0.05-0.3-4.11,0.64-4.2,0.44c-0.09-0.2,5.91-2.47,5.86-2.71c-0.05-0.25-3.56,0.15-3.65,0s2.96-2.17,2.91-2.32
		c-0.05-0.15-2.54,0.2-2.63,0c-0.09-0.2,1.34-2.62,1.48-4.69c0.14-2.07-0.65-4.49-0.78-4.44c-0.14,0.05-0.32,2.32-0.51,2.37
		c-0.18,0.05-1.62-5.77-4.25-7.6c0,0,1.06,2.86,0.88,3.21c-0.18,0.35-1.52-2.67-3.28-4.15c-1.75-1.48-4.29-2.57-4.39-2.27
		c-0.09,0.3,2.86,3.26,2.59,3.5s-3.65-3.26-3.88-3.01c-0.23,0.25,1.48,2.32,1.25,2.47c-0.23,0.15-2.59-1.97-2.82-1.83
		c-0.23,0.15,1.66,3.85,1.43,3.95c-0.23,0.1-4.06-3.41-4.25-3.21c-0.18,0.2,1.39,5.13,1.99,6.71s1.29,2.91,1.06,2.86
		c-0.23-0.05-2.71-4.15-3.06-5.23s0.06,2.52,1.12,5.33c1.06,2.81,1.62,3.9,1.2,3.7c-0.42-0.2-2.91-4-3.14-4.94
		c-0.23-0.94-0.37,2.47,1.06,5.23c1.43,2.76,3,4.29,2.77,4.39c-0.23,0.1-3.37-4-3.56-3.65c-0.18,0.35,1.11,3.26,2.72,5.18
		c1.62,1.92,4.06,3.16,3.97,3.41c-0.09,0.25-4.71-2.57-5.36-3.45c-0.65-0.89,0.6,1.88,2.59,4.44c1.99,2.57,3.97,4.15,3.83,4.34
		c-0.14,0.2-4.94-2.71-5.86-4.15c-0.92-1.43,1.8,1.48,2.12,1.18c0.32-0.3-4.25-4.54-5.68-6.37c-1.43-1.83-1.94-2.81-1.62-2.57
		c0.32,0.25,2.49,2.12,2.82,2.17c0.32,0.05-4.53-6.32-4.94-10.32c0,0,1.8,3.01,2.17,2.76s-0.55-4.2-0.97-5.18
		c-0.42-0.99-1.34-3.7-1.2-4c0.14-0.3,1.8,0.44,2.12,0.25c0.32-0.2-1.52-1.63-1.52-1.63s2.68-0.49,2.68-0.64s-2.08-0.39-2.26-0.54
		c-0.18-0.15,3.6-1.43,3.6-1.68s-1.48-0.59-1.52-0.79c-0.05-0.2,2.12,0.44,2.12,0s1.34-0.59,1.75-0.59c0.42,0-3.46-1.48-3.32-1.83
		c0.14-0.35,3.37,0.39,4.11,0c0.74-0.39-0.92-1.09-0.55-1.14s3.51,0.59,3.74,0.3c0.23-0.3-2.35-1.14-2.22-1.33
		c0.14-0.2,3.03-0.05,4.2,0.15c1.16,0.2,3.33,1.43,3.56,1.18s-1.57-1.12-1.29-1.43c0.28-0.3,3.46,1.82,3.88,1.72
		c0.42-0.1-1.11-1.63-0.78-1.53c0.32,0.1,4.25,2.12,5.68,3.41c1.43,1.28,2.54,3.21,2.77,3.01c0.23-0.2-0.32-1.63,0-1.63
		s2.68,4.1,2.91,4.2c0.23,0.1-0.23-1.38,0-1.38c0.23,0,1.62,3.5,1.85,3.5c0.23,0,0.14-1.33,0.32-1.18s0.18,1.28,0.78,2.02
		c0.6,0.74,2.96,2.67,2.26,2.71s-4.8,0.89-5.54,1.58c-0.74,0.69,2.77-0.15,3.09-0.1c0.32,0.05-2.08,0.68-3.28,1.74
		c-1.2,1.07-2.17,4.33-2.31,6.15c-0.08,1-0.13,2.04-0.31,2.95c0.24-0.21,0.51-0.51,0.8-1.01c2.99-5.1,7.67-7.45,9.68-8.28
		c0.44-0.18,0.87-0.34,1.28-0.48c0.08-0.11,0.16-0.21,0.23-0.29c-2.09,0.44-5.01,1.18-6.62,2.14c-2.7,1.61,2.09-1.71,5.9-3.22
		c2.06-0.82,3.92-1.65,5.63-2.32c0.79-0.45,1.73-0.88,2.89-1.24c2.69-0.85,5.43-0.96,7.56-0.91c0-0.21-1.62-1.6-4.82-2.39
		c-0.25-0.06,3.38-0.49,8.33,1.66c-0.85-0.8-2.49-1.89-2.49-1.89c4.66-0.42,11.26,2.75,11.58,2.84c0.32,0.09-1.69-1.37-1.82-1.86
		c-0.1-0.38,4.41,1.42,9.9-0.42c3.2-1.08,0.78,0.89,1.11,1.57c0.13,0.28,1.23-0.44,2.46-0.84c1.36-0.44,2.83-0.55,2.3-0.16
		c-1.08,0.78-1.66,2.45-0.94,2.32c3.37-0.6,8.56-2.47,5.94-1c-3.64,2.04,2.37,1.8,2.37,1.8c1.08-0.5,6.49-0.83,7.41-0.58
		c0.92,0.25-3.83,1-2.5,0.83c1.33-0.17,4.08,0.83,3.33,0.75s-2.66,0.67-2.66,0.67s2.75,0.42,4.41,0.67c1.67,0.25,5,1.01,3.84,1.18
		c-0.49,0.07-1.6,0.45-2.86,0.97c0.18,0.07,0.37,0.14,0.55,0.21c1.88,0.78,6.1,2.89,9.08,7.34c-0.15-1.7-0.43-3.71-1.21-4.81
		c-1.1-1.55-2.61-2.34-4.87-2.81c-0.32-0.07,4.9-0.48,4.16-1.18c-0.74-0.69-4.85-1.53-5.54-1.58s1.66-1.97,2.26-2.71
		c0.6-0.74,0.6-1.88,0.78-2.02s0.09,1.18,0.32,1.18c0.23,0,1.62-3.5,1.85-3.5s-0.23,1.48,0,1.38s2.59-4.2,2.91-4.2
		c0.32,0-0.23,1.43,0,1.63c0.23,0.2,1.34-1.73,2.77-3.01c1.43-1.28,5.36-3.31,5.68-3.41c0.32-0.1-1.2,1.43-0.78,1.53
		c0.42,0.1,3.6-2.02,3.88-1.72c0.28,0.3-1.52,1.18-1.29,1.43c0.23,0.25,2.4-0.99,3.56-1.18c1.16-0.2,4.06-0.35,4.2-0.15
		c0.14,0.2-2.45,1.04-2.22,1.33s3.37-0.35,3.74-0.3s-1.29,0.74-0.55,1.14c0.74,0.39,3.97-0.35,4.11,0c0.14,0.35-3.74,1.83-3.32,1.83
		s1.75,0.15,1.75,0.59s2.17-0.2,2.12,0c-0.05,0.2-1.52,0.54-1.52,0.79s3.79,1.53,3.6,1.68c-0.18,0.15-2.26,0.39-2.26,0.54
		s2.68,0.64,2.68,0.64s-1.85,1.43-1.52,1.63c0.32,0.2,1.99-0.54,2.12-0.25s-0.78,3.01-1.2,4c-0.42,0.99-1.34,4.94-0.97,5.18
		s2.17-2.76,2.17-2.76c-0.42,4-5.26,10.36-4.94,10.32c0.32-0.05,2.49-1.92,2.82-2.17c0.32-0.25-0.18,0.74-1.62,2.57
		s-6,6.07-5.68,6.37c0.32,0.3,3.05-2.62,2.12-1.18c-0.92,1.43-5.73,4.34-5.86,4.15c-0.14-0.2,1.85-1.78,3.83-4.34
		c1.99-2.57,3.23-5.33,2.59-4.44c-0.65,0.89-5.26,3.7-5.36,3.45c-0.09-0.25,2.35-1.48,3.97-3.41c1.62-1.92,2.91-4.84,2.72-5.18
		c-0.18-0.35-3.32,3.75-3.56,3.65s1.34-1.63,2.77-4.39c1.43-2.76,1.29-6.17,1.06-5.23s-2.72,4.74-3.14,4.94
		c-0.42,0.2,0.14-0.89,1.2-3.7c1.06-2.81,1.48-6.42,1.12-5.33c-0.35,1.09-2.83,5.18-3.06,5.23c-0.23,0.05,0.46-1.28,1.06-2.86
		s2.17-6.51,1.99-6.71c-0.18-0.2-4.02,3.31-4.25,3.21c-0.23-0.1,1.66-3.8,1.43-3.95s-2.59,1.97-2.82,1.83
		c-0.23-0.15,1.48-2.22,1.25-2.47s-3.6,3.26-3.88,3.01c-0.28-0.25,2.68-3.21,2.59-3.5c-0.09-0.3-2.63,0.79-4.39,2.27
		c-1.75,1.48-3.09,4.49-3.28,4.15c-0.18-0.35,0.88-3.21,0.88-3.21c-2.63,1.83-4.06,7.65-4.25,7.6c-0.18-0.05-0.37-2.32-0.51-2.37
		c-0.14-0.05-0.92,2.37-0.78,4.44c0.14,2.07,1.57,4.49,1.48,4.69c-0.09,0.2-2.59-0.15-2.63,0s3,2.17,2.91,2.32
		c-0.09,0.15-3.6-0.25-3.65,0c-0.05,0.25,5.96,2.52,5.86,2.71c-0.08,0.17-2.96-0.47-3.9-0.5c1.3,0.69,3.43,1.87,4.9,2.75
		c0.64,0.33,1.08,0.59,1.11,0.69c0.33,0.22,0.52,0.37,0.48,0.41c-0.18,0.16-2.67-0.85-4.11-1.38c-0.42-0.13-0.71-0.2-0.74-0.15
		c0,0-0.08-0.01-0.2-0.03c0.5,0.58,3.83,3.18,5.92,5.15c2.33,2.2,4.5,6.69,4.26,6.79c-0.24,0.1-7.37-7.03-7.47-6.79
		s8.69,11.48,8.54,11.68s-6.93-4.98-7.16-4.84c-0.23,0.15,8.53,7.62,11.61,11.23c3.09,3.61,5.87,8.21,5.87,8.21s-2.17-3.05-5.1-5.74
		c-2.93-2.69-7.42-5.65-7.43-5.35c-0.01,0.29,5.97,6.89,5.82,7.08c-0.15,0.2-2.44-2.1-2.87-2.34s1.11,1.86,2.29,3.13
		c1.17,1.27,5.17,7.23,4.88,7.25c-0.29,0.03-2.59-1.98-2.1-0.98c0.49,1,2.29,4.91,1.35,3.54c-0.95-1.37-6.91-7.62-7.11-7.42
		c-0.2,0.2,2.1,2.15,3.32,3.88c1.22,1.74,4.1,6.76,3.79,6.98c-0.31,0.22-6.52-8.43-6.72-8.24c-0.2,0.19,8.4,13.24,8.2,13.29
		c-0.2,0.05-6.74-9.38-6.89-9.04c-0.15,0.34,4.69,6.89,6.74,11.28c2.05,4.4,2.2,9.96,1.81,7.13s-5.81-13.09-6.1-12.89
		s2.73,5.52,3.81,10.26c1.07,4.74,1.32,11.72,1.03,8.67c-0.29-3.05-2.54-11.41-4.41-14.82c-1.88-3.42-4.13-9.72-7-13.88
		c-2.87-4.16-8.99-9.76-9.28-9.42c-0.29,0.34,4.24,4.44,6.33,7.52c2.09,3.08,6.7,12.94,6.7,12.94s0,0-1.61-2.81
		c-1.47-2.57-5.05-9.82-11.52-13.98c1.94,2.35,3.49,5.14,4.07,7.3c0,0-4.87-5.62-5.99-6.53c-0.78-0.65-1.58-1.11-2.39-1.64
		c0.87,1.02,1.63,1.98,2.17,2.81c2.33,3.55,5.83,11.26,5.83,11.26s-3.05-4.65-6.54-9.28c-3.49-4.63-7.86-7.13-7.86-7.13
		s3.39,3.31,6.15,7.01c3.84,5.17,7.42,11.25,7.37,11.42c-0.07,0.28-3.14-4.14-6.06-7.1c-2.92-2.96-8.39-8.01-8.5-7.78
		c-0.11,0.24,4.1,5.53,6.47,7.29c4.47,3.33,6.27,7.97,6.27,7.97s-2.04-3.43-4.27-5.44c-2.23-2.01-3.72-3.19-4.87-4.45
		s-3.12-3.78-3.3-3.63s2.67,4.02,4.27,5.41c1.59,1.39,4.43,4.14,6.01,8.04c0,0-4.61-6.08-5.8-6.97c-1.19-0.89-5.76-7.3-5.96-7.03
		c-0.2,0.27,4.95,6.74,5.91,8.19s2.52,4.96,1.94,4.19c-0.58-0.78-3.19-4.62-4.49-6.4s-4.8-6.23-4.7-5.67
		c0.1,0.55,3.91,6.67,5.32,9.67c1.41,3,2.33,6.28,1.56,4.6c-0.77-1.67-4.32-8.26-5.56-10.49c-1.25-2.23-3.09-5.11-3.03-4.56
		c0.06,0.55,10.4,17.69,10,27.08c0,0-1.86-7.49-4.13-13.19c-2.23-5.6-4.86-9.4-4.81-9.26c8.54,24.33,6.56,33.11,6.56,33.11
		s-0.32-15.45-8.59-35.09c-0.08-0.19,3.48,12.34,3.06,11.62c-0.42-0.72-3.33-8.48-3.84-10.63c-0.51-2.15-0.9-4.9-1.14-5.02
		s0.21,5.12,1.02,8.63s5.34,13.54,4.81,12.95c-2.21-2.51-5.09-11.18-5.89-14.11s-1.48-8.64-1.77-8.64c-0.29,0.01,0.3,5.8,1.18,9.4
		c0.43,1.77,3.54,10.07,5.28,18.39c1.81,8.66,0.62,18.5,0.44,18.24c-0.17-0.23-0.09-9.61-2.1-18.24c-2.02-8.7-3.86-11.19-4.07-10.8
		c-0.09,0.17,0.74,4.14,0.82,6.62c0.11,3.24-1.19,6.92-1.19,6.92c0.07-1.09,0.73-4.45,0.41-6.99c-0.26-2.05-1.04-4.38-1.12-4.34
		c-0.08,0.05,0.33,3.1,0.27,5.6c-0.07,2.9-0.62,5.26-0.75,4.82c-0.11-0.39,0.19-3.65-0.03-6.21c-0.25-2.85-1.02-5.01-1.19-5.05
		c-0.25-0.06,0.17,6.86-1.05,11.2c-0.31,3.67-0.81,6.55-1.09,7.95c0.15-0.33,0.3-0.64,0.41-0.89c0.53-1.17,1.99-4.72,2.01-4.4
		s-0.42,1.61-0.73,3.48c-0.32,1.87-0.83,4.07-1.38,5.36c-0.39,0.91-1.31,2.02-1.83,2.61c0.14,0.72,0.28,1.38,0.41,1.96
		c0.52-0.81,0.93-1.32,1.01-1.29c0.1,0.04-0.33,1.03-0.8,2.22c0.23,0.96,0.38,1.54,0.38,1.54s-0.41,0.8-1.37,1.97
		c0,0.01,0,0.03,0,0.05c0,0,1.86-1,1.59-0.39c-0.81,1.87-2.61,6.78-1.7,11.72c0.05,0.29-1.68-1.9-0.47-8.92c0,0-0.94,1.28-1.19,2.09
		c-0.21,0.68-0.43-0.54-0.11-2.56c-0.34,0.32-0.72,0.64-1.13,0.97c0.45-1.04,0.93-2.17,1.35-3.2c0.3-0.39,0.57-0.79,0.79-1.18
		c0.13-0.29,0.27-0.57,0.41-0.85c0.01-0.02,0.01-0.03,0.02-0.05c-0.06-0.21-0.1-0.41-0.15-0.61c0.07-0.18,0.12-0.33,0.14-0.4
		c0.5-2.04,0.13-3.89-1.04-5.19c-0.09-0.1-0.2-0.21-0.32-0.32c-1.88-12.27,1.27-19.1,1.27-19.1s1.75,7.58,2.13,8.72
		c0.51-7.05,0.6-11.24-1.33-16.05c-1.25,2.6-3.82,8.24-5.11,13.02c-0.04,0.34-0.09,0.68-0.11,0.99c-0.33,4.49,0.53,8.84,1.18,11.33
		c-0.68-0.19-1.5-0.27-2.49-0.14c-0.72,0.1-1.33,0.31-1.87,0.51c-0.08,0.03-0.17,0.06-0.24,0.09c-0.1,0.04-0.2,0.08-0.31,0.12
		c-0.48,0.73-0.92,1.2-1.12,1.39c-0.09,0.02-0.24,0.03-0.41,0.03c-0.72,0-1.25-0.29-1.61-0.82c-0.2,0.01-0.41,0.01-0.64,0.01
		c-0.11,0-0.25,0-0.38,0c0,0.06,0,0.12,0,0.18c-0.07,1.5-1.69,1.38-1.84,0.37c-0.03-0.17-0.03-0.37-0.02-0.56c-0.01,0-0.02,0-0.03,0
		c-0.11,0.51-0.34,1.05-0.86,1.05c-0.47,0-0.66-0.58-0.73-1.06c-0.04,0-0.08,0-0.13,0c-0.17,0.45-0.47,0.98-0.96,0.98
		c-0.52,0.01-0.7-0.55-0.76-0.99c-0.01,0-0.02,0-0.04,0c-0.06,0.45-0.24,1-0.76,0.99c-0.5-0.01-0.8-0.54-0.97-1
		c-0.04,0-0.08,0-0.12,0c-0.07,0.49-0.25,1.08-0.73,1.08c-0.53,0-0.76-0.57-0.86-1.08c-0.01,0-0.02,0-0.02,0
		c0.01,0.21,0,0.42-0.02,0.59c-0.15,1.01-1.77,1.13-1.84-0.37c0-0.07,0-0.14,0-0.21c-0.4,0-0.77,0.01-1.12,0.01
		c-0.37,0.54-0.9,0.83-1.62,0.83c-0.17,0-0.32-0.02-0.41-0.03c-0.12-0.12-0.36-0.37-0.64-0.73c-0.07,0-0.13,0.01-0.19,0.01
		c-1.5,0.07-2.2,0.18-2.66,0.33c-0.67,0.21-1.28,0.52-1.84,0.89c-0.12-0.24-0.21-0.44-0.25-0.56c0.4-1.22,2.18-7.11,1.73-13.23
		c-0.02-0.32-0.07-0.68-0.12-1.04c-1.29-4.78-3.85-10.38-5.1-12.98c-1.93,4.81-1.84,8.99-1.33,16.05c0.38-1.14,2.13-8.72,2.13-8.72
		s4.16,8.6,0.35,23.86c-0.07,0.2-0.14,0.39-0.19,0.59h0c-0.05,0.2-0.12,0.53-0.21,0.95c-0.02,0.07-0.03,0.14-0.06,0.22
		c0,0.01,0.01,0.01,0.01,0.02c-0.1,0.51-0.22,1.14-0.35,1.86c0.5,2.43,0.25,4.02,0.02,3.27c-0.25-0.81-1.19-2.09-1.19-2.09
		c1.21,7.02-0.53,9.21-0.47,8.92c0.91-4.94-0.89-9.84-1.7-11.72c-0.27-0.62,1.59,0.39,1.59,0.39c0.03-1.65-2-5.69-1.79-5.78
		c0.15-0.06,1.47,1.82,2.47,3.91c0.79-3.35,2.41-11.33,1.43-16.42c-1.46,2.7-2.15,8.33-2.15,8.33s-0.64-2.77-1.1-6.94
		c-1.77-4.07-1.22-12.55-1.5-12.48c-0.17,0.04-0.94,2.2-1.19,5.05c-0.22,2.56,0.08,5.83-0.03,6.21c-0.13,0.44-0.68-1.92-0.75-4.82
		c-0.06-2.49,0.35-5.55,0.27-5.6c-0.08-0.05-0.87,2.29-1.12,4.34c-0.32,2.54,0.34,5.9,0.41,6.99c0,0-1.3-3.68-1.19-6.92
		c0.08-2.48,0.91-6.45,0.82-6.62c-0.21-0.39-2.05,2.1-4.07,10.8c-2.01,8.63-1.93,18.01-2.1,18.24c-0.18,0.26-1.38-9.58,0.44-18.24
		c1.74-8.32,4.85-16.62,5.28-18.39c0.88-3.61,1.47-9.4,1.18-9.4s-0.98,5.71-1.77,8.64c-0.79,2.93-3.68,11.6-5.89,14.11
		c-0.53,0.6,4-9.43,4.81-12.95c0.81-3.52,1.26-8.74,1.02-8.63S67.5,65.77,67,67.91c-0.51,2.15-3.42,9.91-3.84,10.63
		s3.14-11.82,3.06-11.62c-8.27,19.64-8.59,35.09-8.59,35.09s-1.97-8.78,6.56-33.11c0.05-0.14-2.59,3.66-4.81,9.26
		c-2.27,5.69-4.13,13.19-4.13,13.19c-0.41-9.39,9.93-26.53,10-27.08c0.06-0.55-1.78,2.33-3.03,4.56c-1.25,2.23-4.8,8.82-5.56,10.49
		c-0.77,1.67,0.15-1.6,1.56-4.6c1.41-3,5.22-9.11,5.32-9.67c0.1-0.55-3.4,3.9-4.7,5.67c-1.3,1.78-3.91,5.62-4.49,6.4
		c-0.58,0.78,0.98-2.74,1.94-4.19c0.96-1.45,6.11-7.92,5.91-8.19c-0.2-0.27-4.77,6.14-5.96,7.03c-1.19,0.89-5.8,6.97-5.8,6.97
		c1.58-3.89,4.42-6.64,6.01-8.04c1.59-1.39,4.45-5.27,4.27-5.41c-0.18-0.15-2.15,2.37-3.3,3.63c-1.15,1.26-2.64,2.44-4.87,4.45
		c-2.23,2.01-4.27,5.44-4.27,5.44s1.8-4.64,6.27-7.97c2.37-1.77,6.58-7.06,6.47-7.29c-0.11-0.24-5.59,4.81-8.5,7.78
		c-2.92,2.96-5.98,7.39-6.06,7.1C46.43,78.25,50,72.17,53.85,67c2.76-3.71,6.15-7.01,6.15-7.01s-4.37,2.51-7.86,7.13
		c-3.49,4.63-6.54,9.28-6.54,9.28s3.5-7.71,5.83-11.26c0.93-1.42,2.49-3.24,4.19-5.06c-1.8,1.25-3.77,2.25-4.99,3.25
		c-1.11,0.92-5.99,6.53-5.99,6.53c0.68-2.53,2.92-5.53,5.47-7.84c-7.03,4.03-10.86,11.83-12.4,14.51c-1.61,2.81-1.61,2.81-1.61,2.81
		s4.61-9.87,6.7-12.94c2.09-3.08,6.62-7.18,6.33-7.52c-0.29-0.34-6.41,5.26-9.28,9.42c-2.87,4.16-5.13,10.46-7,13.88
		C30.98,85.6,28.73,93.96,28.44,97.01z M100.95,118.11c0.11,0.1,0.23,0.2,0.35,0.29c-0.79,0.31-1.61,0.6-2.5,0.87
		C98.8,119.27,99.66,118.84,100.95,118.11z M91.39,116.09C91.39,116.08,91.39,116.08,91.39,116.09c1.16,0,2.33,0.01,3.44,0.02
		c0.63,0,1.23,0.01,1.81,0.01c-0.81,0.33-1.66,0.64-2.57,0.93C93.13,116.77,92.24,116.44,91.39,116.09z M41.85,117.19
		c-0.47,0.09-0.73-6.15,1.34-11.76c0.1-0.27-0.65,4.46-1.04,6.76C41.76,114.48,42.32,117.1,41.85,117.19z M44.88,87.26
		c-0.25-0.01,0.42-3.91,0.97-5.48c0.55-1.57,1.47-2.82,1.47-2.82C47.67,79.05,45.12,87.27,44.88,87.26z M47.74,86.91
		c0.43-2.16,1.9-5.59,1.9-5.59c0.38,0.08-2.62,13.72-2.73,13.76C46.8,95.13,47.31,89.07,47.74,86.91z M46.18,128.67
		c-0.21,0.8-0.34,1.62-0.41,2.46c-0.82,3.55-0.69,7.55-0.74,7.55c0,0-0.79-5.1-0.12-7.51c0.87-3.12,1.02-8.53,1.21-8.09
		C46.2,123.25,46.5,125.74,46.18,128.67z M45.01,100.43c-0.45-0.93,0.34-2.4,0.49-3.99c0.03-0.34,0.23,6.8,0,6.9
		C45.26,103.45,45.45,101.36,45.01,100.43z M44,75.69c-1.41,3.15-2.57,10.61-3,10.63c0,0,1.07-7.38,2.01-10.2
		c0.94-2.81,4.68-8.09,5.21-8.53C48.74,67.16,45.4,72.54,44,75.69z M41.86,94.58c0,0-0.1-3.01,0.29-5.48
		c0.39-2.47,2.28-8.19,2.47-7.76S41.96,94.58,41.86,94.58z M42.54,102.19c-0.25,4.58-1.3-5.6,1.68-9.74
		C44.52,92.02,42.79,97.61,42.54,102.19z M42.15,124.67c0.03-2.01,0.39-7.48,0.39-7.48c0.35-0.1,1.08,4.82,0.67,8.38
		c-0.41,3.56-0.99,8.48-1.05,9.18C42.08,135.46,42.12,126.68,42.15,124.67z M44.25,124.82c0.01-0.44,0.16,3.81,0,4.87
		c-0.16,1.05-0.94,3.06-1.05,2.86C43.09,132.35,44.16,128.58,44.25,124.82z M47.71,119.2c-0.46-5.48-0.48-10.38-0.48-10.38
		s-1.38,6.29-0.57,12.85c0,0-1.49-5.31-0.95-12.51c0.54-7.2,1.44-10.46,1.44-10.46s-0.01,6.09,0.39,7.41
		c0.41,1.32,0.72-8.58,1.44-12.94c0.05-0.31-0.29,10.15-0.1,20.81c0.06,3.15,0.22,6.03,0.42,8.55c-0.34,0.41-0.65,0.83-0.94,1.27
		C48.08,122.23,47.83,120.64,47.71,119.2z M49.85,86.64c0.68-6.97,3.47-9.7,3.47-9.7L49.85,86.64z M56.14,75.6
		c0,0-1.48,3.53-3.26,9.6s-2,16.29-2,16.29s-1.19-8.59,0.66-15.35C53.4,79.39,56.14,75.6,56.14,75.6z M52.41,119.6
		c0.39-1.91,0.61-5.1,0.17-10.42c-1.06-12.94,2.09-16.75,2.09-16.75c0.58,0.05-1.43,3.09-0.62,16.13c0.32,5.11-0.03,8.31-0.59,10.34
		C53.11,119.11,52.75,119.34,52.41,119.6z M61.17,113.63c0,0-2.61-8.27-1.92-15.24c0.69-6.97,2.76-11.16,2.76-11.16
		s-0.87,3.72-1.6,10.01S61.17,113.63,61.17,113.63z M65.41,94.26c0.16-0.24,1.12,4.06,1.51,5.52c0.39,1.46,1.4,4.64,1.13,4.8
		c-0.27,0.16-1.35-2.32-1.63-2.69c-0.28-0.37,0.01,1.18,0.25,2.43c0.24,1.24,1.33,3.64,1.04,3.73c0,0-2.01-3.06-2.39-4.65
		c-0.38-1.58-0.34-3.85-0.11-5.65C65.45,95.96,65.26,94.5,65.41,94.26z M73.42,100.77c0.4,1.04,1.47,2.67,1.36,2.93
		c0,0-1.65-1.72-2.19-3c-0.54-1.28-1.05-3.47-1.37-5.32c-0.31-1.85-0.74-3.13-0.73-3.45c0.02-0.32,1.47,3.2,1.99,4.36
		c0.52,1.16,1.73,3.59,1.65,3.91s-1.17-1.4-1.39-1.59S73.02,99.72,73.42,100.77z M70.88,110.95c-0.04,0.04-0.05,0.04-0.03,0.02
		C70.85,110.97,70.86,110.96,70.88,110.95c0.24-0.24,1.29-2.01-2.05-10.11c-3.85-9.34-2.42-12.91-2.42-12.91
		c0.44-0.1-0.32,2.63,3.36,12.1C73.32,109.13,71.19,110.73,70.88,110.95z M30.4,96.87c0.05,0.95-0.6-3.21,1.05-6.72
		c1.66-3.51,3.91-8.28,4.26-9.38c0.1-0.3-1.66,6.02-3.11,8.88C31.15,92.5,30.35,95.92,30.4,96.87z M32.27,105.14
		c-0.19,0,1.31-11.39,4.07-20.79s7.51-13.81,7.51-13.81c0.39,0.19-4.16,7.61-7.12,17.01C33.77,96.95,32.46,105.14,32.27,105.14z
		 M36.9,129.39c0,0-1.64-8.77-1.51-14.87c0.14-6.1,0.69-11.52,0.69-11.52s-2.26,6.79-2.12,14.12c0,0-1.03-6.03,0.41-13.91
		c1.44-7.88,2.81-11.38,2.81-11.38s-0.73,6.72-0.43,8.23c0.29,1.51,1.8-9.39,3.1-14.12c0.09-0.34-1.51,11.17-2.54,22.96
		C36.29,120.68,36.9,129.39,36.9,129.39z M39.26,119.51c-0.49,3.97-0.28,6.21-0.43,6.31s-0.86-8.45-0.66-14.04
		s2.03-11.35,2.03-11.35c0.25,0-0.76,6.21-0.81,9.57c-0.05,3.36-0.25,4.63,0,4.68c0.25,0.05,1.63-6.61,1.83-6.46
		S39.74,115.54,39.26,119.51z M40.68,131.29c-0.1,0.05-0.1-2.01-0.5-3.06c-0.4-1.05-0.3-6.12,0.25-7.03
		c0.13-0.22-0.1,4.32,0.25,5.92C41.03,128.73,40.78,131.24,40.68,131.29z M42.63,136.84c0.3-2.36,0.92-3.59,0.89-3.08
		c-0.02,0.39-0.05,4.11,0.29,7.15l-1.22,0C42.52,139.41,42.5,137.86,42.63,136.84z M139.39,155.35c0,3.25,0.49,17.01-16.83,17.01
		c-12.26,0-14.74-12.24-14.9-12.86c-0.21,0.57-0.44,1.14-0.69,1.71c-1.77,3.8-4.15,7.18-7.08,10.05c-2.86,2.93-6.23,5.31-10.02,7.08
		c-3.8,1.77-7.85,2.75-12.05,2.67c-11.25-0.22-11.49-6.4-1.35-5.23c11.75,0,15.93-7.64,17.55-9.76c1.54-2.17,2.78-4.57,3.65-7.14
		c0.87-2.62,1.35-5.41,1.41-8.28c0.03-1.26-0.04-2.49-0.17-3.69h-3.11H73.61c-0.83,1.17-1.68,2.33-2.59,3.46
		c-1.45,1.87-2.95,3.73-4.43,5.51c-1.44,1.8-2.83,3.55-4.16,5.25c-0.96,1.32-1.83,2.63-2.57,3.91c0.39-0.08,10.51,0.27,16.18,0.27
		c15.44,0,10.68-7.01,10.13-7.55c-0.72-0.83-3.66-3.32-1.22-5.97c2.26-1.92,5.11-0.43,5.96,0.33c0.76,0.73,1.36,1.58,1.82,2.57
		c0.49,1.02,0.81,2.11,0.94,3.23c0.18,1.1,0.23,2.09,0.14,2.95l-0.03,0.34c-0.18,1.71-0.84,3.41-1.97,5.06
		c-1.18,1.77-2.52,3.2-4,4.25c-0.96,0.74-2.1,1.33-3.34,1.74c-1.28,0.35-2.56,0.62-3.84,0.84c-0.91,0.1-1.81,0.15-2.7,0.15
		c-0.46,0-28.08-0.34-28.62-0.39c-0.53-0.06-1.03-0.22-1.49-0.47c-0.29-0.11-0.88-0.5-0.88-1.45c0-0.08,0.02-0.16,0.05-0.23
		c0.73-1.55,1.81-3.4,3.21-5.49c1.45-2.07,3.02-4.25,4.69-6.48c1.72-2.29,3.47-4.62,5.25-7.01c1.21-1.62,2.34-3.22,3.41-4.79H17.15
		c0,0,2.61,3.76,2.26,4.15c-0.35,0.39-17-5.23-17-5.73c0-0.49,16.72-6.87,17-6.59c0.28,0.27-2.68,4.55-2.32,4.55
		c0.14,0,22.18,0.03,48.78,0.07c1.06-1.68,1.97-3.28,2.69-4.79c0.96-1.94,1.45-3.63,1.45-5.03c0-0.81-0.2-1.61-0.61-2.38
		c-0.42-0.85-0.96-1.56-1.62-2.15c-0.64-0.66-1.4-1.18-2.27-1.58c-0.86-0.39-1.7-0.58-2.49-0.58c-1.45,0-2.67,0.25-3.63,0.73
		c-0.93,0.44-1.67,1.01-2.23,1.68c-0.59,0.67-1.1,1.41-1.52,2.22c-0.37,0.82-0.73,1.64-1.06,2.43c-0.3,0.74-0.62,1.34-0.97,1.86
		c-0.44,0.64-1.08,0.97-1.84,0.97c-1.21,0-2.05-0.55-2.41-1.59c-0.3-0.86-0.42-1.74-0.36-2.6c0-1.9,0.41-3.7,1.22-5.31
		c0.74-1.59,1.8-2.99,3.13-4.16c1.38-1.21,2.96-2.16,4.69-2.82c1.73-0.66,3.6-1,5.56-1c2.28,0,4.39,0.3,6.28,0.91
		c1.91,0.61,3.58,1.51,4.96,2.66c0.91,0.76,1.68,1.67,2.35,2.69c0.3-1.88,2.72-15.94,3.04-17.05c0.3-1.22,1.13-2.09,2.38-2.49
		c1.28-0.43,13.84,3.08,23.37-1.6c1.92-0.94,2.51,1.16,2.14,2.63c-0.12,0.51-3.42,8.28-3.68,8.67c-0.18,0.27-0.54,0.38-0.85,0.26
		c-1.26-0.5-1.76-3.14-4.26-3.14c-2.57,0-7.18-0.06-10.84-0.06c0,0-1.15,7.78-1.19,8.22c5.27,1.75,9.84,3.86,11.82,5.38
		c3.61,2.83,6.3,6.22,8.01,10.11c0.96,2.2,1.64,4.52,2.03,6.96l2.77,0c0.23,0,0.45,0,0.68,0c1.15-1.34,2.27-2.5,2.67-2.77
		c0.55-0.37-5.52-3.47-5.52-11.74c0-1.06,1.32-13.07,15.04-13.07c7.89,0,12.82,5.86,12.82,11.31c0,8.36-10.22,10.22-10.54,10.94
		c3.3,1.43,5.73,3.33,7.51,5.36c13.98,0.02,23.41,0.03,23.41,0.03l6.06-5.13h0.99l-1.63,2.97l3.89-2.97h6.08l-0.99,2.53l3.83-2.53
		h6.07l-4.7,5.51c0,0,0.76-0.12,0.76,0.84s-0.05,1.54-0.48,1.54c0,0,5.44,5.82,4.91,5.82c-0.71,0-10.32,0-10.32,0l-3.47-2.51
		l1.27,2.51h-5.89l-6.41-5.15h-20.99C138.94,150.36,139.39,153.67,139.39,155.35z"/>
	<path class="st3" d="M123.28,145.2c-1.53,0-2.95,0.67-4.18,1.71h8.36C126.24,145.87,124.81,145.2,123.28,145.2z"/>
	<path class="st3" d="M137.06,146.91h20.99l6.41,5.15h5.89l-1.27-2.51l3.47,2.51c0,0,9.61,0,10.32,0c0.53,0-4.91-5.82-4.91-5.82
		c0.42,0,0.48-0.59,0.48-1.54s-0.76-0.84-0.76-0.84l4.7-5.51h-6.07l-3.83,2.53l0.99-2.53h-6.08l-3.89,2.97l1.63-2.97h-0.99
		l-6.06,5.13c0,0-9.44-0.01-23.41-0.03C135.64,144.58,136.42,145.75,137.06,146.91z"/>
	<path class="st3" d="M65.87,143.35c-26.61-0.04-48.64-0.07-48.78-0.07c-0.35,0,2.61-4.27,2.32-4.55c-0.28-0.27-17,6.1-17,6.59
		c0,0.49,16.65,6.12,17,5.73c0.35-0.39-2.26-4.15-2.26-4.15h46.37c0.48-0.71,0.96-1.42,1.41-2.11
		C65.26,144.31,65.57,143.83,65.87,143.35z"/>
	<path class="st4" d="M137.06,146.91c-0.63-1.16-1.42-2.33-2.41-3.46c-1.79-2.03-4.22-3.93-7.51-5.36
		c0.32-0.72,10.54-2.58,10.54-10.94c0-5.45-4.93-11.31-12.82-11.31c-13.72,0-15.04,12.01-15.04,13.07c0,8.27,6.07,11.37,5.52,11.74
		c-0.4,0.27-1.52,1.43-2.67,2.77c-1.02,1.19-2.06,2.52-2.62,3.49c-0.28,0.48-0.44,0.87-0.42,1.11c-0.01-0.37-0.03-0.74-0.05-1.11
		H98.92c0.14,1.2,0.2,2.43,0.17,3.69c-0.06,2.87-0.54,5.66-1.41,8.28c-0.88,2.56-2.11,4.97-3.65,7.14
		c-1.62,2.12-5.8,9.76-17.55,9.76c-10.14-1.17-9.9,5.01,1.35,5.23c4.19,0.08,8.25-0.9,12.05-2.67c3.78-1.76,7.15-4.15,10.02-7.08
		c2.93-2.87,5.32-6.25,7.08-10.05c0.25-0.57,0.47-1.14,0.69-1.71c0.16,0.61,2.63,12.86,14.9,12.86c17.32,0,16.83-13.76,16.83-17.01
		C139.39,153.67,138.94,150.36,137.06,146.91z M123.28,165.18c-4.56,0-8.26-5-8.26-9.57c0-3.04,1.64-6.63,4.08-8.7
		c1.23-1.04,2.65-1.71,4.18-1.71s2.95,0.67,4.18,1.71c2.44,2.07,4.08,5.67,4.08,8.7C131.54,160.18,127.85,165.18,123.28,165.18z
		 M125.96,121.7c2.54,0,4.46,0.56,5.72,1.67c1.15,0.92,1.95,3.02,1.73,4.64c-0.22,1.62-0.78,4.08-5.49,5.18
		c1.15-2.53,2.69-7.24,0.44-7.24c-2.24,0-5.55,6.62-7.13,8.93c-1.09-0.5-4.87-4.09-2.62-8.9C119.02,125.1,121.46,121.7,125.96,121.7
		z"/>
	<path class="st4" d="M75.91,143.37c0.81-1.44,1.52-2.88,2.11-4.3c0.74-1.91,1.15-3.84,1.2-5.76c0.03-1.32-0.09-2.55-0.32-3.69
		c0.17,0.02,0.33,0.05,0.5,0.07c0.66,0.07,1.4,0.1,2.19,0.1c2.89,0,5.44,0.56,7.58,1.66c2.2,1.1,4.07,2.63,5.55,4.54
		c1.48,1.85,2.6,4.08,3.35,6.62c0.08,0.25,0.13,0.52,0.2,0.78l10.94,0.02c-0.4-2.43-1.07-4.76-2.03-6.96
		c-1.71-3.88-4.4-7.28-8.01-10.11c-1.98-1.52-6.55-3.63-11.82-5.38c0.04-0.45,1.19-8.22,1.19-8.22c3.66,0,8.27,0.06,10.84,0.06
		c2.5,0,3,2.64,4.26,3.14c0.3,0.12,0.66,0.01,0.85-0.26c0.26-0.39,3.55-8.16,3.68-8.67c0.36-1.48-0.22-3.58-2.14-2.63
		c-9.53,4.67-22.09,1.17-23.37,1.6c-1.25,0.39-2.08,1.26-2.38,2.49c-0.33,1.12-2.75,15.18-3.04,17.05
		c-0.67-1.02-1.44-1.93-2.35-2.69c-1.38-1.16-3.05-2.06-4.96-2.66c-1.89-0.6-4-0.91-6.28-0.91c-1.96,0-3.83,0.34-5.56,1
		c-1.73,0.66-3.3,1.61-4.69,2.82c-1.33,1.16-2.39,2.57-3.13,4.16c-0.81,1.61-1.23,3.41-1.22,5.31c-0.06,0.86,0.06,1.74,0.36,2.6
		c0.36,1.04,1.19,1.59,2.41,1.59c0.76,0,1.39-0.34,1.84-0.97c0.36-0.51,0.68-1.12,0.97-1.86c0.33-0.79,0.69-1.61,1.06-2.43
		c0.42-0.81,0.93-1.55,1.52-2.22c0.55-0.67,1.3-1.24,2.23-1.68c0.96-0.48,2.18-0.73,3.63-0.73c0.79,0,1.63,0.2,2.49,0.58
		c0.87,0.39,1.62,0.91,2.27,1.58c0.66,0.58,1.21,1.3,1.62,2.15c0.4,0.77,0.61,1.57,0.61,2.38c0,1.4-0.49,3.09-1.45,5.03
		c-0.72,1.5-1.63,3.11-2.69,4.79c-0.3,0.48-0.61,0.96-0.94,1.45c-0.45,0.7-0.92,1.4-1.41,2.11c-1.07,1.57-2.2,3.17-3.41,4.79
		c-1.78,2.39-3.53,4.73-5.25,7.01c-1.67,2.23-3.24,4.41-4.69,6.48c-1.4,2.09-2.48,3.94-3.21,5.49c-0.03,0.07-0.05,0.15-0.05,0.23
		c0,0.95,0.59,1.33,0.88,1.45c0.46,0.25,0.95,0.41,1.49,0.47c0.54,0.06,28.16,0.39,28.62,0.39c0.89,0,1.79-0.05,2.7-0.15
		c1.28-0.21,2.56-0.49,3.84-0.84c1.24-0.41,2.38-1.01,3.34-1.74c1.48-1.05,2.82-2.48,4-4.25c1.13-1.65,1.8-3.35,1.97-5.06l0.03-0.34
		c0.09-0.86,0.04-1.85-0.14-2.95c-0.13-1.12-0.45-2.21-0.94-3.23c-0.46-0.99-1.06-1.84-1.82-2.57c-0.85-0.75-3.7-2.25-5.96-0.33
		c-2.44,2.65,0.5,5.15,1.22,5.97c0.55,0.54,5.31,7.55-10.13,7.55c-5.67,0-15.79-0.35-16.18-0.27c0.75-1.28,1.61-2.59,2.57-3.91
		c1.33-1.7,2.72-3.45,4.16-5.25c1.48-1.78,2.97-3.64,4.43-5.51c0.91-1.14,1.76-2.29,2.59-3.46c0.49-0.7,0.99-1.39,1.45-2.1
		C75.35,144.33,75.64,143.85,75.91,143.37z"/>
	<path class="st3" d="M109.57,146.91h0.32h0.15c0.56-0.97,1.6-2.3,2.62-3.49c-0.22,0-0.45,0-0.68,0l-2.77,0l-10.94-0.02l-2.45,0
		v0.01c-6.62-0.01-13.33-0.02-19.91-0.03c-0.27,0.48-0.56,0.97-0.85,1.45c-0.46,0.7-0.96,1.4-1.45,2.1h22.21h3.11H109.57z"/>
	<path d="M93.56,99.56c-0.36,0-0.71-0.03-1.03-0.07C92.85,99.54,93.19,99.56,93.56,99.56z"/>
	<path d="M94.59,99.49c-0.33,0.04-0.67,0.07-1.03,0.07C93.92,99.56,94.26,99.54,94.59,99.49z"/>
	<path class="st5" d="M87.38,99.03c-0.42-0.23-1.52-0.89-2.73-2.2c-0.69-0.74-1.41-1.69-2.07-2.89c-0.79,4,0.7,6.88,1.75,8.31
		c0.06,0.08,0.11,0.14,0.16,0.21c0.28,0.36,0.51,0.61,0.64,0.73c0.09,0.02,0.24,0.03,0.41,0.03c0.72,0,1.26-0.29,1.62-0.83
		c0.05-0.08,0.12-0.15,0.16-0.24C87.97,100.86,87.55,99.48,87.38,99.03z"/>
	<path class="st5" d="M104.56,93.94c-0.36,0.64-0.73,1.2-1.11,1.7c-1.56,2.11-3.16,3.1-3.7,3.39c-0.17,0.45-0.59,1.84,0.06,3.13
		c0.05,0.1,0.11,0.17,0.17,0.25c0.37,0.53,0.9,0.82,1.61,0.82c0.17,0,0.32-0.02,0.41-0.03c0.19-0.19,0.64-0.66,1.12-1.39
		c0.16-0.25,0.33-0.52,0.49-0.83C104.46,99.39,105.18,97.01,104.56,93.94z"/>
	<path class="st3" d="M102.88,76.2c-3.69-4.49-8.77-0.91-8.77-0.91l-0.56,21.58l-0.56-21.58c0,0-5.08-3.58-8.77,0.91
		c1.48,3.7,4.28,10.56,2.35,16.87c0,0,0.79,5.73,5.95,6.42c0.33,0.04,0.67,0.07,1.03,0.07s0.71-0.03,1.03-0.07
		c5.15-0.68,5.95-6.42,5.95-6.42C98.61,86.76,101.4,79.9,102.88,76.2z"/>
	<path class="st2" d="M93.62,101.69c-2.62,0-5.08-0.62-5.08-0.62s-0.24,0.68-0.26,1.32c0,0.07,0,0.14,0,0.21
		c0.07,1.5,1.69,1.38,1.84,0.37c0.03-0.18,0.03-0.39,0.02-0.59c0-0.04,0-0.09,0-0.13c0.01,0.04,0.02,0.09,0.03,0.13
		c0.1,0.51,0.34,1.08,0.86,1.08c0.48,0,0.66-0.59,0.73-1.08c0.01-0.09,0.02-0.18,0.03-0.26c0.02,0.08,0.05,0.17,0.09,0.26
		c0.17,0.46,0.47,0.99,0.97,1c0.52,0.01,0.7-0.55,0.76-0.99c0.01-0.05,0.01-0.11,0.02-0.16c0,0.05,0.01,0.1,0.02,0.16
		c0.06,0.45,0.24,1,0.76,0.99c0.49-0.01,0.79-0.53,0.96-0.98c0.04-0.1,0.07-0.19,0.09-0.28c0.01,0.09,0.02,0.18,0.03,0.28
		c0.07,0.49,0.26,1.06,0.73,1.06c0.52,0,0.75-0.55,0.86-1.05c0.01-0.05,0.02-0.11,0.03-0.16c0,0.05,0,0.11,0,0.16
		c0,0.2,0,0.4,0.02,0.56c0.15,1.01,1.77,1.13,1.84-0.37c0-0.06,0-0.12,0-0.18c-0.02-0.65-0.26-1.36-0.26-1.36
		S96.25,101.69,93.62,101.69z"/>
	<path class="st5" d="M93.9,35.36c4.03,0,6.15,0.2,6.15,0.2s-2.14-0.8-6.15-0.8c-4,0-5.92,0.8-5.92,0.8S89.87,35.36,93.9,35.36z"/>
	<path class="st4" d="M116.91,36.06c0.17,0.11,0.32,0.25,0.45,0.4c0.01,0,0.02-0.01,0.03-0.01c0.42-0.1,0.83,0.16,0.93,0.57
		c0.09,0.36-0.1,0.73-0.43,0.88c0.01,1.02-0.69,1.95-1.72,2.19c-0.81,0.19-1.62-0.08-2.15-0.65c-0.4,0.48-0.85,1.23-0.82,1.62
		c0.05,0,0.1,0,0.14,0c0.59-0.03,1.19-0.04,1.8-0.04c0.09,0,0.17,0,0.25,0c0.62,0.01,1.24,0.02,1.85,0.05c0.03,0,0.06,0,0.09,0
		c0.39-0.19,0.77-0.45,1.13-0.79c2.05-2,0.28-4.79,0.28-4.79c-0.12-0.18-0.52-0.14-0.94,0.02c-0.02,0.01-0.04,0.02-0.06,0.03
		c-0.13,0.07-0.27,0.14-0.4,0.22c-0.09,0.05-0.16,0.09-0.25,0.14C117.02,35.95,116.96,36,116.91,36.06z"/>
	<path d="M113.48,38.43c0.09,0.39,0.29,0.74,0.54,1.01c0.53,0.57,1.34,0.84,2.15,0.65c1.04-0.24,1.73-1.17,1.72-2.19
		c-0.05,0.02-0.09,0.04-0.15,0.05c-0.42,0.1-0.83-0.16-0.93-0.57c-0.1-0.4,0.15-0.81,0.54-0.92c-0.13-0.16-0.29-0.29-0.45-0.4
		c-0.02-0.01-0.03-0.02-0.05-0.03c-0.01,0-0.01,0.01-0.02,0.01c-0.12,0.06-0.25,0.13-0.37,0.19c-0.16,0.08-0.31,0.16-0.48,0.25
		c-0.14,0.07-0.28,0.14-0.42,0.21c-0.16,0.08-0.32,0.16-0.48,0.24c-0.15,0.07-0.3,0.14-0.45,0.22c-0.16,0.08-0.32,0.15-0.48,0.23
		c-0.15,0.07-0.3,0.14-0.45,0.21c-0.09,0.04-0.19,0.09-0.28,0.13C113.4,37.94,113.42,38.18,113.48,38.43z"/>
	<path class="st5" d="M118.33,37.02c-0.1-0.42-0.51-0.67-0.93-0.57c-0.01,0-0.02,0.01-0.03,0.01c-0.39,0.11-0.64,0.51-0.54,0.92
		c0.1,0.42,0.51,0.67,0.93,0.57c0.05-0.01,0.1-0.03,0.15-0.05C118.22,37.75,118.41,37.39,118.33,37.02z"/>
	<path class="st4" d="M74.15,39.44c-0.53,0.57-1.34,0.84-2.15,0.65c-1.04-0.24-1.73-1.17-1.72-2.19c-0.33-0.15-0.51-0.52-0.43-0.88
		c0.1-0.42,0.51-0.67,0.93-0.57c0.01,0,0.02,0.01,0.03,0.01c0.13-0.16,0.29-0.29,0.45-0.4c-0.04-0.04-0.09-0.08-0.13-0.12
		c-0.02-0.01-0.03-0.03-0.04-0.04c-0.25-0.13-0.49-0.26-0.71-0.38c-0.02-0.01-0.04-0.01-0.06-0.02c-0.39-0.14-0.76-0.17-0.87,0
		c0,0-1.77,2.79,0.28,4.79c0.35,0.34,0.73,0.6,1.13,0.79c0.01,0,0.01,0,0.02,0c0.63-0.03,1.28-0.05,1.93-0.05c0.08,0,0.16,0,0.24,0
		c0.6,0,1.19,0.01,1.76,0.03c0.06,0,0.13,0,0.19,0C75.01,40.67,74.55,39.92,74.15,39.44z"/>
	<path d="M70.81,36.46c0.39,0.11,0.64,0.51,0.54,0.92c-0.1,0.42-0.51,0.67-0.93,0.57c-0.05-0.01-0.1-0.03-0.15-0.05
		c-0.01,1.02,0.69,1.95,1.72,2.19c0.81,0.19,1.62-0.08,2.15-0.65c0.26-0.28,0.45-0.62,0.54-1.01c0.06-0.24,0.07-0.48,0.05-0.72
		c0,0,0-0.01,0-0.01c-1.18-0.52-2.39-1.13-3.43-1.68c0,0-0.01,0.01-0.01,0.01c-0.01,0.01-0.02,0.02-0.04,0.03
		C71.1,36.17,70.94,36.3,70.81,36.46z"/>
	<path class="st5" d="M71.35,37.38c0.1-0.4-0.15-0.81-0.54-0.92c-0.01,0-0.02-0.01-0.03-0.01c-0.42-0.1-0.83,0.16-0.93,0.57
		c-0.09,0.36,0.1,0.73,0.43,0.88c0.05,0.02,0.09,0.04,0.15,0.05C70.84,38.05,71.25,37.79,71.35,37.38z"/>
	<path class="st6" d="M39.85,68.31c2.87-4.16,8.99-9.76,9.28-9.42c0.29,0.34-4.24,4.44-6.33,7.52c-2.09,3.08-6.7,12.94-6.7,12.94
		s0,0,1.61-2.81c1.54-2.69,5.37-10.48,12.4-14.51c-2.54,2.3-4.79,5.3-5.47,7.84c0,0,4.87-5.62,5.99-6.53c1.22-1,3.19-2,4.99-3.25
		c-1.7,1.82-3.26,3.64-4.19,5.06C49.1,68.69,45.6,76.4,45.6,76.4s3.05-4.65,6.54-9.28c3.49-4.63,7.86-7.13,7.86-7.13
		S56.6,63.29,53.85,67c-3.84,5.17-7.42,11.25-7.37,11.42c0.07,0.28,3.14-4.14,6.06-7.1c2.92-2.96,8.39-8.01,8.5-7.78
		c0.11,0.24-4.1,5.53-6.47,7.29c-4.47,3.33-6.27,7.97-6.27,7.97s2.04-3.43,4.27-5.44c2.23-2.01,3.72-3.19,4.87-4.45
		c1.15-1.26,3.12-3.78,3.3-3.63c0.18,0.15-2.67,4.02-4.27,5.41c-1.59,1.39-4.43,4.14-6.01,8.04c0,0,4.61-6.08,5.8-6.97
		c1.19-0.89,5.76-7.3,5.96-7.03c0.2,0.27-4.95,6.74-5.91,8.19c-0.96,1.45-2.52,4.96-1.94,4.19c0.58-0.78,3.19-4.62,4.49-6.4
		c1.3-1.78,4.8-6.23,4.7-5.67c-0.1,0.55-3.91,6.67-5.32,9.67c-1.41,3-2.33,6.28-1.56,4.6c0.77-1.67,4.32-8.26,5.56-10.49
		c1.25-2.23,3.09-5.11,3.03-4.56c-0.06,0.55-10.4,17.69-10,27.08c0,0,1.86-7.49,4.13-13.19c2.23-5.6,4.86-9.4,4.81-9.26
		c-8.54,24.33-6.56,33.11-6.56,33.11s0.32-15.45,8.59-35.09c0.08-0.19-3.48,12.34-3.06,11.62s3.33-8.48,3.84-10.63
		c0.51-2.15,0.9-4.9,1.14-5.02s-0.21,5.12-1.02,8.63c-0.81,3.52-5.34,13.54-4.81,12.95c2.21-2.51,5.09-11.18,5.89-14.11
		c0.79-2.93,1.48-8.64,1.77-8.64s-0.3,5.8-1.18,9.4c-0.43,1.77-3.54,10.07-5.28,18.39c-1.81,8.66-0.62,18.5-0.44,18.24
		c0.17-0.23,0.09-9.61,2.1-18.24c2.02-8.7,3.86-11.19,4.07-10.8c0.09,0.17-0.74,4.14-0.82,6.62c-0.11,3.24,1.19,6.92,1.19,6.92
		c-0.07-1.09-0.73-4.45-0.41-6.99c0.26-2.05,1.04-4.38,1.12-4.34c0.08,0.05-0.33,3.1-0.27,5.6c0.07,2.9,0.62,5.26,0.75,4.82
		c0.11-0.39-0.19-3.65,0.03-6.21c0.25-2.85,1.02-5.01,1.19-5.05c0.28-0.07-0.26,8.41,1.5,12.48c-0.62-5.73-0.88-14.09,1.39-21.58
		c0.23-8.91-3.44-21.3-3.44-21.3c1.46-4.19,3.82-6.79,5.9-8.37c-0.77-0.14-1.66-0.21-2.58-0.25c-0.57-0.03-1.16-0.04-1.76-0.03
		c-0.08,0-0.16,0-0.24,0c-0.64,0.01-1.29,0.02-1.93,0.05c-3.41,0.15-6.44,0.56-6.44,0.56c1.02-0.48,2.24-0.85,3.5-1.15
		c-0.77-1.44-0.36-3.22-0.06-4.14c-1.13,0.45-4.01,1.91-5.3,2.88c2.31-3.8,5.76-4.85,5.76-4.85s0.8,0.47,1.98,1.11
		c0.02,0.01,0.04,0.01,0.06,0.02c0.23,0.12,0.46,0.25,0.71,0.38c0.02,0.01,0.03,0.03,0.04,0.04c0.06,0.03,0.11,0.06,0.17,0.09
		c0,0,0.01-0.01,0.01-0.01c1.04,0.55,2.25,1.16,3.43,1.68c0,0,0,0.01,0,0.01c2.08,0.92,4.07,1.58,4.91,1.22
		c0.66-0.28,1.27-0.53,1.83-0.75c0.16-0.47,0.33-0.91,0.52-1.32c-0.84-0.78-1.47-1.21-1.47-1.21c0.63,0.19,1.21,0.41,1.76,0.64
		c1.2-2.31,2.78-3.59,4-4.18c-1.01-1.41-4.24-4.61-13.81-7.12c-6.38,0.67-12.44,4.46-12.44,4.46c3.91-4.63,12.58-6.23,12.58-6.23
		s6.41,1.68,13.61,4.57c-3.61-5.71-11.88-5.6-11.88-5.6c9.19-1.66,12.99,4.37,12.99,4.37c0.52-2.22-1.23-5.51-1.23-5.51
		c3.58,3.02,3.96,6.45,3.96,6.45c1.1-1.33,1.27-4.22,1.27-4.22c0.94,2.41,1.05,4.9,0.82,7.11c0.46,0.22,0.91,0.45,1.36,0.68
		c0.38,0.22,0.55,0.48,0.55,0.48s0.17-0.28,0.55-0.48c0.36-0.18,0.71-0.36,1.07-0.54c-0.25-2.25-0.16-4.8,0.8-7.25
		c0,0,0.17,2.89,1.27,4.22c0,0,0.38-3.43,3.96-6.45c0,0-1.75,3.29-1.23,5.51c0,0,3.8-6.03,12.99-4.37c0,0-8.42-0.11-11.98,5.76
		c7.36-2.99,14.01-4.73,14.01-4.73s8.67,1.61,12.58,6.23c0,0-6.06-3.79-12.44-4.46c-9.47,2.48-12.74,5.65-13.78,7.08
		c1.2,0.56,2.8,1.8,4.02,4.08c0.45-0.18,0.92-0.34,1.42-0.5c0,0-0.5,0.33-1.19,0.95c0.24,0.5,0.47,1.04,0.67,1.64
		c0.53,0.21,1.09,0.44,1.7,0.69c0.88,0.38,3.03-0.37,5.22-1.36c0.15-0.07,0.3-0.14,0.45-0.21c0.16-0.07,0.32-0.15,0.48-0.23
		c0.15-0.07,0.3-0.14,0.45-0.22c0.16-0.08,0.32-0.16,0.48-0.24c0.14-0.07,0.28-0.14,0.42-0.21c0.16-0.08,0.32-0.17,0.48-0.25
		c0.12-0.06,0.25-0.13,0.37-0.19c0.17-0.09,0.34-0.18,0.5-0.27c0.14-0.07,0.27-0.15,0.4-0.22c1.23-0.67,2.08-1.17,2.08-1.17
		s3.45,1.05,5.76,4.85c-1.28-0.97-4.16-2.43-5.3-2.88c0.3,0.92,0.71,2.7-0.06,4.14c1.27,0.3,2.49,0.67,3.5,1.15
		c0,0-3.05-0.41-6.48-0.56c-0.61-0.03-1.23-0.04-1.85-0.05c-0.08,0-0.17,0-0.25,0c-0.61,0-1.22,0.01-1.8,0.04
		c-0.92,0.04-1.79,0.12-2.56,0.25c2.08,1.58,4.44,4.18,5.9,8.37c0,0-3.67,12.39-3.44,21.3c2.03,6.68,2.03,14.07,1.57,19.65
		c1.22-4.34,0.8-11.26,1.05-11.2c0.17,0.04,0.94,2.2,1.19,5.05c0.22,2.56-0.08,5.83,0.03,6.21c0.13,0.44,0.68-1.92,0.75-4.82
		c0.06-2.49-0.35-5.55-0.27-5.6c0.08-0.05,0.87,2.29,1.12,4.34c0.32,2.54-0.34,5.9-0.41,6.99c0,0,1.3-3.68,1.19-6.92
		c-0.08-2.48-0.91-6.45-0.82-6.62c0.21-0.39,2.05,2.1,4.07,10.8c2.01,8.63,1.93,18.01,2.1,18.24c0.18,0.26,1.38-9.58-0.44-18.24
		c-1.74-8.32-4.85-16.62-5.28-18.39c-0.88-3.61-1.47-9.4-1.18-9.4c0.29-0.01,0.98,5.71,1.77,8.64s3.68,11.6,5.89,14.11
		c0.53,0.6-4-9.43-4.81-12.95s-1.26-8.74-1.02-8.63s0.63,2.87,1.14,5.02c0.51,2.15,3.42,9.91,3.84,10.63
		c0.42,0.72-3.14-11.82-3.06-11.62c8.27,19.64,8.59,35.09,8.59,35.09s1.97-8.78-6.56-33.11c-0.05-0.14,2.59,3.66,4.81,9.26
		c2.27,5.69,4.13,13.19,4.13,13.19c0.41-9.39-9.93-26.53-10-27.08c-0.06-0.55,1.78,2.33,3.03,4.56c1.25,2.23,4.8,8.82,5.56,10.49
		c0.77,1.67-0.15-1.6-1.56-4.6c-1.41-3-5.22-9.11-5.32-9.67c-0.1-0.55,3.4,3.9,4.7,5.67s3.91,5.62,4.49,6.4
		c0.58,0.78-0.98-2.74-1.94-4.19s-6.11-7.92-5.91-8.19c0.2-0.27,4.77,6.14,5.96,7.03c1.19,0.89,5.8,6.97,5.8,6.97
		c-1.58-3.89-4.42-6.64-6.01-8.04c-1.59-1.39-4.45-5.27-4.27-5.41s2.15,2.37,3.3,3.63s2.64,2.44,4.87,4.45
		c2.23,2.01,4.27,5.44,4.27,5.44s-1.8-4.64-6.27-7.97c-2.37-1.77-6.58-7.06-6.47-7.29c0.11-0.24,5.59,4.81,8.5,7.78
		c2.92,2.96,5.98,7.39,6.06,7.1c0.04-0.17-3.53-6.25-7.37-11.42c-2.76-3.71-6.15-7.01-6.15-7.01s4.37,2.51,7.86,7.13
		c3.49,4.63,6.54,9.28,6.54,9.28s-3.5-7.71-5.83-11.26c-0.54-0.83-1.3-1.79-2.17-2.81c0.81,0.53,1.61,1,2.39,1.64
		c1.11,0.92,5.99,6.53,5.99,6.53c-0.58-2.16-2.13-4.95-4.07-7.3c6.47,4.15,10.04,11.41,11.52,13.98c1.61,2.81,1.61,2.81,1.61,2.81
		s-4.61-9.87-6.7-12.94c-2.09-3.08-6.62-7.18-6.33-7.52c0.29-0.34,6.41,5.26,9.28,9.42c2.87,4.16,5.13,10.46,7,13.88
		c1.88,3.42,4.12,11.77,4.41,14.82c0.29,3.05,0.05-3.93-1.03-8.67c-1.07-4.74-4.1-10.06-3.81-10.26s5.71,10.06,6.1,12.89
		s0.24-2.74-1.81-7.13c-2.05-4.4-6.89-10.94-6.74-11.28c0.15-0.34,6.69,9.08,6.89,9.04c0.2-0.05-8.4-13.1-8.2-13.29
		c0.2-0.19,6.41,8.46,6.72,8.24c0.31-0.22-2.57-5.25-3.79-6.98c-1.22-1.74-3.52-3.69-3.32-3.88c0.2-0.2,6.16,6.06,7.11,7.42
		c0.95,1.37-0.86-2.54-1.35-3.54c-0.49-1,1.81,1,2.1,0.98c0.29-0.03-3.71-5.98-4.88-7.25c-1.17-1.27-2.71-3.37-2.29-3.13
		s2.72,2.54,2.87,2.34c0.15-0.2-5.84-6.79-5.82-7.08c0.01-0.29,4.5,2.67,7.43,5.35c2.93,2.69,5.1,5.74,5.1,5.74
		s-2.78-4.59-5.87-8.21c-3.09-3.61-11.84-11.09-11.61-11.23c0.23-0.15,7.01,5.03,7.16,4.84s-8.64-11.43-8.54-11.68
		s7.23,6.89,7.47,6.79c0.24-0.1-1.93-4.6-4.26-6.79c-2.09-1.97-5.43-4.56-5.92-5.15c0.13,0.02,0.2,0.03,0.2,0.03
		c0.02-0.05,0.32,0.02,0.74,0.15c1.44,0.53,3.94,1.53,4.11,1.38c0.04-0.04-0.15-0.19-0.48-0.41c-0.03-0.11-0.47-0.36-1.11-0.69
		c-1.47-0.88-3.6-2.05-4.9-2.75c0.94,0.03,3.82,0.66,3.9,0.5c0.09-0.2-5.91-2.47-5.86-2.71c0.05-0.25,3.56,0.15,3.65,0
		c0.09-0.15-2.96-2.17-2.91-2.32s2.54,0.2,2.63,0c0.09-0.2-1.34-2.62-1.48-4.69c-0.14-2.07,0.65-4.49,0.78-4.44
		c0.14,0.05,0.32,2.32,0.51,2.37c0.18,0.05,1.62-5.77,4.25-7.6c0,0-1.06,2.86-0.88,3.21c0.18,0.35,1.52-2.67,3.28-4.15
		c1.75-1.48,4.29-2.57,4.39-2.27c0.09,0.3-2.86,3.26-2.59,3.5c0.28,0.25,3.65-3.26,3.88-3.01s-1.48,2.32-1.25,2.47
		c0.23,0.15,2.59-1.97,2.82-1.83s-1.66,3.85-1.43,3.95c0.23,0.1,4.06-3.41,4.25-3.21c0.18,0.2-1.39,5.13-1.99,6.71
		s-1.29,2.91-1.06,2.86c0.23-0.05,2.71-4.15,3.06-5.23c0.35-1.09-0.06,2.52-1.12,5.33c-1.06,2.81-1.62,3.9-1.2,3.7
		c0.42-0.2,2.91-4,3.14-4.94s0.37,2.47-1.06,5.23c-1.43,2.76-3,4.29-2.77,4.39s3.37-4,3.56-3.65c0.18,0.35-1.11,3.26-2.72,5.18
		c-1.62,1.92-4.06,3.16-3.97,3.41c0.09,0.25,4.71-2.57,5.36-3.45c0.65-0.89-0.6,1.88-2.59,4.44c-1.99,2.57-3.97,4.15-3.83,4.34
		c0.14,0.2,4.94-2.71,5.86-4.15c0.92-1.43-1.8,1.48-2.12,1.18c-0.32-0.3,4.25-4.54,5.68-6.37s1.94-2.81,1.62-2.57
		c-0.32,0.25-2.49,2.12-2.82,2.17c-0.32,0.05,4.53-6.32,4.94-10.32c0,0-1.8,3.01-2.17,2.76s0.55-4.2,0.97-5.18
		c0.42-0.99,1.34-3.7,1.2-4s-1.8,0.44-2.12,0.25c-0.32-0.2,1.52-1.63,1.52-1.63s-2.68-0.49-2.68-0.64s2.08-0.39,2.26-0.54
		c0.18-0.15-3.6-1.43-3.6-1.68s1.48-0.59,1.52-0.79c0.05-0.2-2.12,0.44-2.12,0s-1.34-0.59-1.75-0.59s3.46-1.48,3.32-1.83
		c-0.14-0.35-3.37,0.39-4.11,0c-0.74-0.39,0.92-1.09,0.55-1.14s-3.51,0.59-3.74,0.3s2.35-1.14,2.22-1.33
		c-0.14-0.2-3.03-0.05-4.2,0.15c-1.16,0.2-3.33,1.43-3.56,1.18c-0.23-0.25,1.57-1.12,1.29-1.43c-0.28-0.3-3.46,1.82-3.88,1.72
		c-0.42-0.1,1.11-1.63,0.78-1.53c-0.32,0.1-4.25,2.12-5.68,3.41c-1.43,1.28-2.54,3.21-2.77,3.01c-0.23-0.2,0.32-1.63,0-1.63
		c-0.32,0-2.68,4.1-2.91,4.2s0.23-1.38,0-1.38s-1.62,3.5-1.85,3.5c-0.23,0-0.14-1.33-0.32-1.18s-0.18,1.28-0.78,2.02
		c-0.6,0.74-2.96,2.67-2.26,2.71s4.8,0.89,5.54,1.58c0.74,0.69-4.48,1.11-4.16,1.18c2.27,0.47,3.77,1.26,4.87,2.81
		c0.78,1.1,1.06,3.11,1.21,4.81c-2.98-4.45-7.2-6.56-9.08-7.34c-0.19-0.08-0.37-0.15-0.55-0.21c1.27-0.52,2.37-0.9,2.86-0.97
		c1.17-0.17-2.17-0.93-3.84-1.18c-1.67-0.25-4.41-0.67-4.41-0.67s1.92-0.75,2.66-0.67s-2-0.92-3.33-0.75
		c-1.33,0.17,3.41-0.58,2.5-0.83c-0.92-0.25-6.33,0.08-7.41,0.58c0,0-6.01,0.24-2.37-1.8c2.62-1.47-2.57,0.4-5.94,1
		c-0.73,0.13-0.14-1.53,0.94-2.32c0.53-0.39-0.94-0.27-2.3,0.16c-1.23,0.39-2.33,1.11-2.46,0.84c-0.33-0.68,2.09-2.64-1.11-1.57
		c-5.49,1.84-10,0.04-9.9,0.42c0.13,0.49,2.14,1.95,1.82,1.86c-0.32-0.09-6.92-3.25-11.58-2.84c0,0,1.65,1.09,2.49,1.89
		c-4.95-2.16-8.58-1.72-8.33-1.66c3.2,0.79,4.83,2.18,4.82,2.39c-2.14-0.05-4.87,0.06-7.56,0.91c-1.16,0.37-2.1,0.8-2.89,1.24
		c-1.71,0.67-3.57,1.5-5.63,2.32c-3.8,1.51-8.6,4.84-5.9,3.22c1.61-0.96,4.53-1.7,6.62-2.14c-0.08,0.09-0.15,0.18-0.23,0.29
		c-0.41,0.14-0.85,0.3-1.28,0.48c-2.01,0.83-6.69,3.18-9.68,8.28c-0.29,0.49-0.56,0.8-0.8,1.01c0.18-0.91,0.23-1.95,0.31-2.95
		c0.14-1.83,1.11-5.08,2.31-6.15c1.2-1.07,3.6-1.7,3.28-1.74c-0.32-0.05-3.83,0.79-3.09,0.1c0.74-0.69,4.85-1.53,5.54-1.58
		s-1.66-1.97-2.26-2.71c-0.6-0.74-0.6-1.88-0.78-2.02s-0.09,1.18-0.32,1.18c-0.23,0-1.62-3.5-1.85-3.5c-0.23,0,0.23,1.48,0,1.38
		c-0.23-0.1-2.59-4.2-2.91-4.2s0.23,1.43,0,1.63c-0.23,0.2-1.34-1.73-2.77-3.01C48.28,7.03,44.36,5,44.04,4.9
		c-0.32-0.1,1.2,1.43,0.78,1.53c-0.42,0.1-3.6-2.02-3.88-1.72c-0.28,0.3,1.52,1.18,1.29,1.43s-2.4-0.99-3.56-1.18
		c-1.16-0.2-4.06-0.35-4.2-0.15c-0.14,0.2,2.45,1.04,2.22,1.33c-0.23,0.3-3.37-0.35-3.74-0.3s1.29,0.74,0.55,1.14
		c-0.74,0.39-3.97-0.35-4.11,0c-0.14,0.35,3.74,1.83,3.32,1.83c-0.42,0-1.75,0.15-1.75,0.59s-2.17-0.2-2.12,0
		c0.05,0.2,1.52,0.54,1.52,0.79s-3.79,1.53-3.6,1.68c0.18,0.15,2.26,0.39,2.26,0.54s-2.68,0.64-2.68,0.64s1.85,1.43,1.52,1.63
		c-0.32,0.2-1.99-0.54-2.12-0.25c-0.14,0.3,0.78,3.01,1.2,4c0.42,0.99,1.34,4.94,0.97,5.18s-2.17-2.76-2.17-2.76
		c0.42,4,5.26,10.36,4.94,10.32c-0.32-0.05-2.49-1.92-2.82-2.17c-0.32-0.25,0.18,0.74,1.62,2.57c1.43,1.83,6,6.07,5.68,6.37
		c-0.32,0.3-3.05-2.62-2.12-1.18c0.92,1.43,5.73,4.34,5.86,4.15c0.14-0.2-1.85-1.78-3.83-4.34c-1.99-2.57-3.23-5.33-2.59-4.44
		c0.65,0.89,5.26,3.7,5.36,3.45c0.09-0.25-2.35-1.48-3.97-3.41c-1.62-1.92-2.91-4.84-2.72-5.18c0.18-0.35,3.32,3.75,3.56,3.65
		c0.23-0.1-1.34-1.63-2.77-4.39c-1.43-2.76-1.29-6.17-1.06-5.23c0.23,0.94,2.72,4.74,3.14,4.94c0.42,0.2-0.14-0.89-1.2-3.7
		c-1.06-2.81-1.48-6.42-1.12-5.33s2.83,5.18,3.06,5.23c0.23,0.05-0.46-1.28-1.06-2.86s-2.17-6.51-1.99-6.71
		c0.18-0.2,4.02,3.31,4.25,3.21c0.23-0.1-1.66-3.8-1.43-3.95c0.23-0.15,2.59,1.97,2.82,1.83c0.23-0.15-1.48-2.22-1.25-2.47
		c0.23-0.25,3.6,3.26,3.88,3.01s-2.68-3.21-2.59-3.5c0.09-0.3,2.63,0.79,4.39,2.27c1.75,1.48,3.09,4.49,3.28,4.15
		c0.18-0.35-0.88-3.21-0.88-3.21c2.63,1.83,4.06,7.65,4.25,7.6c0.18-0.05,0.37-2.32,0.51-2.37c0.14-0.05,0.92,2.37,0.78,4.44
		c-0.14,2.07-1.57,4.49-1.48,4.69c0.09,0.2,2.59-0.15,2.63,0c0.05,0.15-3,2.17-2.91,2.32s3.6-0.25,3.65,0
		c0.05,0.25-5.96,2.52-5.86,2.71c0.09,0.2,4.16-0.74,4.2-0.44c0,0.03-0.05,0.07-0.13,0.13c-0.39,0.21-0.84,0.45-1.31,0.71
		c-1.88,0.94-4.92,2.32-4.89,2.56c0.01,0.07,0.22,0.05,0.53-0.02c-0.33,0.22-0.52,0.38-0.48,0.41c0.21,0.18,3.51-1.19,4.7-1.58
		c0.12-0.02,0.26-0.05,0.42-0.08c0.04,0.23-3.71,3.11-5.99,5.25c-2.33,2.2-4.5,6.69-4.26,6.79c0.24,0.1,7.37-7.03,7.47-6.79
		c0.1,0.24-8.69,11.48-8.54,11.68c0.15,0.2,6.93-4.98,7.16-4.84c0.23,0.15-8.53,7.62-11.61,11.23c-3.09,3.61-5.87,8.21-5.87,8.21
		s2.17-3.05,5.1-5.74c2.93-2.69,7.42-5.65,7.43-5.35s-5.97,6.89-5.82,7.08c0.15,0.2,2.44-2.1,2.87-2.34
		c0.43-0.24-1.11,1.86-2.29,3.13c-1.17,1.27-5.17,7.23-4.88,7.25c0.29,0.03,2.59-1.98,2.1-0.98s-2.29,4.91-1.35,3.54
		c0.95-1.37,6.91-7.62,7.11-7.42c0.2,0.2-2.1,2.15-3.32,3.88s-4.1,6.76-3.79,6.98c0.3,0.21,6.15-7.91,6.67-8.21
		c0.75-1.83,2.52-5.24,5.12-7.54c4.32-3.82,12.85-9.31,12.85-9.31c0.19,0.19-3.67,3.82-7.79,6.56s-9.04,8.54-10.24,11.03
		c-0.42,0.86-0.43,0.58-0.11-0.29c-1.33,2.37-8.15,12.76-7.98,12.81c0.2,0.05,6.74-9.38,6.89-9.04c0.15,0.34-4.69,6.89-6.74,11.28
		c-2.05,4.4-2.2,9.96-1.81,7.13c0.39-2.83,5.81-13.09,6.1-12.89c0.29,0.2-2.73,5.52-3.81,10.26s-1.32,11.72-1.03,8.67
		c0.29-3.05,2.54-11.41,4.41-14.82C34.73,78.77,36.98,72.46,39.85,68.31z M106.35,35.16c-0.38-0.08,0.76-2.38,1.62-3.15
		c0.86-0.78,4.03-1.33,3.53-1.07C108.52,32.44,106.73,35.25,106.35,35.16z M109.81,34.14c-0.29,0.19,1.28-1.71,2.87-2.4
		s3.45-0.6,4.44-0.35C117.12,31.4,111.03,33.32,109.81,34.14z M114.94,29.77c-0.67-0.01,1.01-1.3,1.01-1.3
		c-1.49-0.71-6.01-0.52-6-0.74c0.01-0.22,4.45-1,7.25-0.48c2.8,0.52,4.43,1.56,3.59,1.45c-0.84-0.11-2.4,0.23-2.4,0.23
		c6.9,1.78,8.17,4.26,7.93,4.1C122.19,30.17,116.98,29.8,114.94,29.77z M129.08,44.29c1.83,0.86,5.68,2.93,6.4,4.37
		c0.16,0.31-3.75-1.54-5.68-2.89s-5.05-4.04-4.91-4.33S127.25,43.43,129.08,44.29z M134.42,44.29c0,0.27-4.23-2.36-4.09-2.99
		S134.42,43.48,134.42,44.29z M133.6,41.06c0.67,0.05,3.94,1.79,5.7,3.23c1.76,1.44,3.35,3.22,3.35,3.22
		c-0.24,0.24-4.62-3.08-5.92-3.9S132.93,41.01,133.6,41.06z M125.7,43.41c0.32-0.69,4.63,4.23,6.45,5.59s6.13,5.58,6.13,5.58
		c-0.24,0.16-3.77-2.96-5.11-3.69C131.83,50.15,125.38,44.1,125.7,43.41z M150.38,69.08c-1.21-2.49-6.12-8.29-10.24-11.03
		s-7.98-6.37-7.79-6.56c0,0,8.54,5.48,12.85,9.31S151.58,71.57,150.38,69.08z M151.96,62.71c2.42,2.61,4.17,5.54,3.46,4.97
		c-0.72-0.57-5.26-6.11-8.22-7.58c0,0,2.98,2.23,3.1,6.31c0.01,0.38-1.88-4.72-5.11-7.07c-3.23-2.36-9.22-7.58-9.1-7.84
		c0.13-0.25,5.27,3.31,8.08,5.1S149.54,60.09,151.96,62.71z M150.38,59.3c-0.04,0.19-7.92-6.21-11.43-8.9s-9.05-6.88-8.04-6.5
		c1.01,0.39,6.54,3.61,10.32,6.59S150.5,58.72,150.38,59.3z M150.72,55.26c-0.88-0.39-3.93-1.68-6.91-3.67
		c-2.98-1.98-7.31-5.57-7.71-6.05c-0.39-0.48,2.03,0.82,4.52,2.26C143.11,49.24,150.98,55.37,150.72,55.26z M128.74,33.02
		c0.53,0.05,8.85,5.49,11.64,8.04c2.79,2.55,5.24,6.46,5.24,6.46c-0.34,0.18-6.3-5.64-8.71-7.86
		C134.52,37.45,128.21,32.97,128.74,33.02z M70.09,22.33c-1.5,0.17-5.92,1.06-5.62,0.86c2.1-1.42,6.48-1.85,8.37-1.76
		C74.72,21.51,71.59,22.16,70.09,22.33z M122.82,23.19c0.3,0.2-4.12-0.69-5.62-0.86c-1.5-0.17-4.63-0.82-2.75-0.9
		C116.35,21.34,120.72,21.77,122.82,23.19z M56.96,41.3c0.14,0.63-4.09,3.26-4.09,2.99C52.87,43.48,56.82,40.67,56.96,41.3z
		 M50.56,43.61c-1.3,0.82-5.68,4.14-5.92,3.9c0,0,1.59-1.78,3.35-3.22c1.76-1.44,5.02-3.18,5.7-3.23
		C54.37,41.01,51.86,42.79,50.56,43.61z M58.21,44.29c1.83-0.86,4.04-3.13,4.19-2.85s-2.98,2.98-4.91,4.33
		c-1.92,1.35-5.83,3.2-5.68,2.89C52.54,47.22,56.39,45.15,58.21,44.29z M78.91,34.14c-1.22-0.83-7.31-2.75-7.31-2.75
		c0.99-0.25,2.85-0.33,4.44,0.35C77.63,32.43,79.2,34.34,78.91,34.14z M82.37,35.16c-0.38,0.08-2.16-2.72-5.15-4.23
		c-0.5-0.25,2.67,0.3,3.53,1.07C81.61,32.79,82.75,35.08,82.37,35.16z M69.11,28.93c0,0-1.55-0.33-2.4-0.23
		c-0.84,0.11,0.79-0.93,3.59-1.45c2.8-0.52,7.24,0.26,7.25,0.48c0.01,0.22-4.51,0.03-6,0.74c0,0,1.68,1.29,1.01,1.3
		c-2.04,0.03-7.25,0.4-11.38,3.26C60.94,33.2,62.22,30.72,69.11,28.93z M41.66,47.52c0,0,2.45-3.91,5.24-6.46
		c2.79-2.55,11.11-7.99,11.64-8.04c0.53-0.05-5.77,4.43-8.18,6.64C47.97,41.88,42,47.7,41.66,47.52z M36.58,55.26
		c-0.27,0.12,7.61-6.02,10.1-7.46c2.49-1.44,4.91-2.74,4.52-2.26c-0.39,0.48-4.72,4.07-7.71,6.05
		C40.51,53.57,37.46,54.87,36.58,55.26z M46.07,50.49c3.78-2.98,9.31-6.21,10.32-6.59c1.01-0.39-4.52,3.8-8.04,6.5
		s-11.39,9.09-11.43,8.9C36.79,58.72,42.29,53.48,46.07,50.49z M37.97,65.6c0.13-4.08,3.1-6.31,3.1-6.31
		c-2.95,1.48-7.5,7.01-8.22,7.58c-0.72,0.57,1.04-2.36,3.46-4.97c2.42-2.61,4.97-4.33,7.78-6.12c2.81-1.78,7.96-5.35,8.08-5.1
		c0.13,0.25-5.86,5.48-9.1,7.84C39.85,60.88,37.96,65.98,37.97,65.6z M54.13,50.88c-1.34,0.73-4.87,3.86-5.11,3.69
		c0,0,4.3-4.22,6.13-5.58s6.13-6.28,6.45-5.59C61.92,44.1,55.47,50.15,54.13,50.88z"/>
	<path class="st6" d="M39.85,85.93c-1.3,4.73-2.81,15.63-3.1,14.12c-0.29-1.51,0.43-8.23,0.43-8.23s-1.37,3.5-2.81,11.38
		c-1.44,7.88-0.41,13.91-0.41,13.91c-0.14-7.33,2.12-14.12,2.12-14.12s-0.55,5.42-0.69,11.52c-0.14,6.1,1.51,14.87,1.51,14.87
		s-0.62-8.71,0.41-20.5C38.34,97.1,39.94,85.59,39.85,85.93z"/>
	<path class="st6" d="M48.9,113.98c-0.2-10.66,0.15-21.12,0.1-20.81c-0.72,4.36-1.04,14.27-1.44,12.94
		c-0.41-1.32-0.39-7.41-0.39-7.41s-0.9,3.26-1.44,10.46c-0.54,7.2,0.95,12.51,0.95,12.51c-0.82-6.56,0.57-12.85,0.57-12.85
		s0.02,4.9,0.48,10.38c0.12,1.44,0.37,3.03,0.67,4.6c0.29-0.44,0.6-0.86,0.94-1.27C49.12,120.02,48.96,117.13,48.9,113.98z"/>
	<path class="st6" d="M41.22,108.22c-0.2-0.15-1.58,6.51-1.83,6.46c-0.25-0.05-0.05-1.32,0-4.68c0.05-3.36,1.07-9.57,0.81-9.57
		c0,0-1.83,5.75-2.03,11.35s0.51,14.14,0.66,14.04s-0.05-2.34,0.43-6.31C39.74,115.54,41.42,108.37,41.22,108.22z"/>
	<path class="st6" d="M42.54,102.19c0.25-4.58,1.98-10.16,1.68-9.74C41.23,96.58,42.28,106.76,42.54,102.19z"/>
	<path class="st6" d="M43.84,70.54c0,0-4.75,4.41-7.51,13.81s-4.26,20.79-4.07,20.79s1.5-8.19,4.46-17.59
		C39.69,78.15,44.23,70.73,43.84,70.54z"/>
	<path class="st6" d="M48.21,67.59c-0.53,0.44-4.27,5.72-5.21,8.53c-0.94,2.81-2.01,10.2-2.01,10.2c0.44-0.02,1.6-7.48,3-10.63
		C45.4,72.54,48.74,67.16,48.21,67.59z"/>
	<path class="st6" d="M49.64,81.32c0,0-1.47,3.43-1.9,5.59c-0.43,2.16-0.94,8.22-0.83,8.17C47.02,95.04,50.02,81.4,49.64,81.32z"/>
	<path class="st6" d="M44.62,81.35c-0.19-0.44-2.08,5.28-2.47,7.76c-0.39,2.47-0.29,5.48-0.29,5.48
		C41.96,94.58,44.81,81.78,44.62,81.35z"/>
	<path class="st6" d="M44.91,131.17c-0.67,2.41,0.12,7.51,0.12,7.51c0.05,0-0.08-4,0.74-7.55c0.07-0.84,0.21-1.66,0.41-2.46
		c0.32-2.93,0.02-5.42-0.05-5.6C45.93,122.64,45.78,128.04,44.91,131.17z"/>
	<path class="st6" d="M40.43,121.21c-0.55,0.9-0.65,5.97-0.25,7.03c0.4,1.05,0.4,3.11,0.5,3.06c0.1-0.05,0.35-2.56,0-4.16
		C40.33,125.52,40.56,120.99,40.43,121.21z"/>
	<path class="st6" d="M42.15,134.76c0.07-0.7,0.64-5.62,1.05-9.18c0.41-3.56-0.31-8.48-0.67-8.38c0,0-0.35,5.47-0.39,7.48
		C42.12,126.68,42.08,135.46,42.15,134.76z"/>
	<path class="st6" d="M44.25,129.69c0.16-1.05,0.01-5.31,0-4.87c-0.09,3.76-1.16,7.53-1.05,7.73
		C43.31,132.75,44.09,130.74,44.25,129.69z"/>
	<path class="st6" d="M35.71,80.76c-0.35,1.1-2.61,5.87-4.26,9.38c-1.66,3.51-1,7.68-1.05,6.72c-0.05-0.95,0.75-4.37,2.21-7.23
		C34.06,86.78,35.81,80.46,35.71,80.76z"/>
	<path class="st6" d="M43.19,105.43c-2.07,5.61-1.82,11.85-1.34,11.76c0.47-0.09-0.09-2.71,0.3-5.01
		C42.54,109.89,43.29,105.16,43.19,105.43z"/>
	<path class="st6" d="M45.5,96.44c-0.15,1.59-0.93,3.06-0.49,3.99c0.45,0.93,0.25,3.02,0.49,2.91
		C45.73,103.24,45.53,96.1,45.5,96.44z"/>
	<path class="st6" d="M45.85,81.78c-0.55,1.57-1.22,5.48-0.97,5.48c0.25,0.01,2.8-8.21,2.44-8.3C47.31,78.96,46.4,80.21,45.85,81.78
		z"/>
	<path class="st6" d="M50.89,101.5c0,0,0.22-10.22,2-16.29s3.26-9.6,3.26-9.6s-2.74,3.78-4.59,10.54
		C49.7,92.9,50.89,101.5,50.89,101.5z"/>
	<path class="st6" d="M62.02,87.23c0,0-2.07,4.19-2.76,11.16c-0.69,6.97,1.92,15.24,1.92,15.24s-1.5-10.11-0.76-16.4
		S62.02,87.23,62.02,87.23z"/>
	<path class="st6" d="M53.33,76.94c0,0-2.79,2.73-3.47,9.7L53.33,76.94z"/>
	<path class="st6" d="M54.06,108.55c-0.81-13.04,1.2-16.08,0.62-16.13c0,0-3.15,3.82-2.09,16.75c0.44,5.32,0.22,8.51-0.17,10.42
		c0.34-0.25,0.7-0.48,1.06-0.71C54.02,116.86,54.37,113.65,54.06,108.55z"/>
	<path class="st6" d="M66.41,87.93c0,0-1.43,3.58,2.42,12.91c3.34,8.1,2.28,9.86,2.05,10.11c0.31-0.22,2.44-1.82-1.1-10.92
		C66.09,90.56,66.85,87.83,66.41,87.93z"/>
	<path class="st6" d="M70.88,110.95c-0.01,0.01-0.03,0.02-0.03,0.02C70.82,110.99,70.84,110.99,70.88,110.95z"/>
	<path class="st6" d="M117,100.03c-3.55,9.1-1.41,10.7-1.1,10.92c-0.24-0.24-1.29-2.01,2.05-10.11c3.85-9.34,2.42-12.91,2.42-12.91
		C119.92,87.83,120.69,90.56,117,100.03z"/>
	<path class="st6" d="M115.93,110.97c-0.01,0-0.02-0.02-0.03-0.02C115.94,110.99,115.96,110.99,115.93,110.97z"/>
	<path class="st6" d="M150.12,91.82c0,0,0.72,6.72,0.43,8.23c-0.29,1.51-1.8-9.39-3.1-14.12c-0.09-0.34,1.51,11.17,2.54,22.96
		c1.03,11.79,0.41,20.5,0.41,20.5s1.64-8.77,1.51-14.87s-0.69-11.52-0.69-11.52s2.26,6.79,2.12,14.12c0,0,1.03-6.03-0.41-13.91
		C151.49,95.32,150.12,91.82,150.12,91.82z"/>
	<path class="st6" d="M138.21,119.02c0.44,0.61,0.84,1.23,1.18,1.89c0.08-0.58,0.15-1.16,0.19-1.71c0.46-5.48,0.48-10.38,0.48-10.38
		s1.38,6.29,0.57,12.85c0,0,1.49-5.31,0.95-12.51c-0.54-7.2-1.44-10.46-1.44-10.46s0.01,6.09-0.39,7.41
		c-0.41,1.32-0.72-8.58-1.44-12.94c-0.05-0.31,0.29,10.15,0.1,20.81C138.37,115.75,138.3,117.44,138.21,119.02z"/>
	<path class="st6" d="M147.1,100.43c-0.25,0,0.76,6.21,0.81,9.57c0.05,3.36,0.25,4.63,0,4.68c-0.25,0.05-1.63-6.61-1.83-6.46
		s1.47,7.33,1.96,11.3c0.49,3.97,0.28,6.21,0.43,6.31s0.86-8.45,0.66-14.04S147.1,100.43,147.1,100.43z"/>
	<path class="st6" d="M144.76,102.19c0.25,4.58,1.3-5.6-1.68-9.74C142.78,92.02,144.5,97.61,144.76,102.19z"/>
	<path class="st6" d="M143.45,70.54c-0.39,0.19,4.16,7.61,7.12,17.01s4.27,17.59,4.46,17.59s-1.31-11.39-4.07-20.79
		C148.2,74.95,143.45,70.54,143.45,70.54z"/>
	<path class="st6" d="M146.3,86.32c0,0-1.07-7.38-2.01-10.2c-0.94-2.81-4.68-8.09-5.21-8.53s2.81,4.94,4.22,8.09
		C144.7,78.84,145.87,86.3,146.3,86.32z"/>
	<path class="st6" d="M137.66,81.32c-0.38,0.08,2.62,13.72,2.73,13.76c0.11,0.04-0.4-6.01-0.83-8.17S137.66,81.32,137.66,81.32z"/>
	<path class="st6" d="M145.15,89.1c-0.39-2.47-2.28-8.19-2.47-7.76s2.66,13.23,2.76,13.23C145.44,94.58,145.53,91.57,145.15,89.1z"
		/>
	<path class="st6" d="M142.39,131.17c-0.87-3.12-1.02-8.53-1.21-8.09c-0.1,0.22-0.55,4.16,0.35,7.99c0.83,3.56,0.7,7.61,0.75,7.61
		C142.27,138.68,143.05,133.58,142.39,131.17z"/>
	<path class="st6" d="M146.62,127.13c-0.35,1.61-0.1,4.11,0,4.16c0.1,0.05,0.1-2.01,0.5-3.06c0.4-1.05,0.3-6.12-0.25-7.03
		C146.73,120.99,146.97,125.52,146.62,127.13z"/>
	<path class="st6" d="M145.15,124.67c-0.03-2.01-0.39-7.48-0.39-7.48c-0.35-0.1-1.08,4.82-0.67,8.38c0.41,3.56,0.99,8.48,1.05,9.18
		C145.21,135.46,145.18,126.68,145.15,124.67z"/>
	<path class="st6" d="M144.09,132.55c0.11-0.2-0.96-3.96-1.05-7.73c-0.01-0.44-0.16,3.81,0,4.87S143.98,132.75,144.09,132.55z"/>
	<path class="st6" d="M151.58,80.76c-0.1-0.3,1.66,6.02,3.11,8.88c1.45,2.86,2.26,6.27,2.21,7.23c-0.05,0.95,0.6-3.21-1.05-6.72
		C154.19,86.63,151.93,81.87,151.58,80.76z"/>
	<path class="st6" d="M145.45,117.19c0.47,0.09,0.73-6.15-1.34-11.76c-0.1-0.27,0.65,4.46,1.04,6.76
		C145.54,114.48,144.98,117.1,145.45,117.19z"/>
	<path class="st6" d="M141.8,96.44c-0.03-0.34-0.23,6.8,0,6.9s0.04-1.98,0.49-2.91C142.73,99.5,141.95,98.03,141.8,96.44z"/>
	<path class="st6" d="M139.98,78.96c-0.36,0.08,2.19,8.3,2.44,8.3c0.25-0.01-0.42-3.91-0.97-5.48
		C140.9,80.21,139.98,78.96,139.98,78.96z"/>
	<path class="st6" d="M134.41,85.2c1.78,6.07,2,16.29,2,16.29s1.19-8.59-0.66-15.35c-1.85-6.76-4.59-10.54-4.59-10.54
		S132.63,79.13,134.41,85.2z"/>
	<path class="st6" d="M128.04,98.39c-0.69-6.97-2.76-11.16-2.76-11.16s0.87,3.72,1.6,10.01c0.59,5.06-0.26,12.6-0.62,15.35
		c0.05,0,0.11,0,0.16,0.01C127.08,110.17,128.58,103.89,128.04,98.39z"/>
	<path class="st6" d="M133.97,76.94l3.47,9.7C136.76,79.67,133.97,76.94,133.97,76.94z"/>
	<path class="st6" d="M135.2,107.94c0.65-11.9-2.58-15.52-2.58-15.52c-0.57,0.03,1.5,2.89,1.1,14.89c-0.12,3.5,0.1,6.04,0.47,7.89
		c0.42,0.27,0.82,0.57,1.2,0.87C135.13,114.27,134.99,111.67,135.2,107.94z"/>
	<path class="st6" d="M65.33,103.4c0.38,1.58,2.39,4.65,2.39,4.65c0.29-0.09-0.81-2.48-1.04-3.73c-0.24-1.24-0.53-2.8-0.25-2.43
		c0.28,0.37,1.36,2.85,1.63,2.69c0.27-0.16-0.74-3.34-1.13-4.8c-0.39-1.46-1.36-5.76-1.51-5.52s0.04,1.7-0.19,3.5
		C64.99,99.55,64.95,101.82,65.33,103.4z"/>
	<path class="st6" d="M74.12,100.19c0.09-0.32-1.12-2.74-1.65-3.91c-0.52-1.16-1.97-4.68-1.99-4.36c-0.02,0.32,0.41,1.6,0.73,3.45
		c0.31,1.85,0.82,4.04,1.37,5.32c0.54,1.28,2.19,3,2.19,3c0.11-0.26-0.95-1.89-1.36-2.93s-0.9-2.35-0.68-2.16
		S74.03,100.51,74.12,100.19z"/>
	<path class="st6" d="M122.22,93.17c-0.12-0.18-0.98,3.18-1.32,4.32c-0.34,1.15-1.21,3.64-1,3.76c0.21,0.12,1.12-1.83,1.35-2.12
		c0.23-0.3-0.03,0.92-0.25,1.89c-0.22,0.97-1.14,2.86-0.91,2.92c0,0,1.66-2.42,2-3.66s0.35-3,0.21-4.39
		C122.16,94.49,122.34,93.35,122.22,93.17z"/>
	<path class="st6" d="M113.47,99.12c-0.52,1.11-1.06,2.3-1,2.52c0.09,0.32,1.18-1.41,1.4-1.6c0.22-0.19-0.28,1.13-0.69,2.18
		c-0.25,0.64-0.74,1.5-1.07,2.13c0.03,0.14,0.05,0.27,0.08,0.4c0.52-0.59,1.45-1.7,1.83-2.61c0.55-1.29,1.06-3.49,1.38-5.36
		c0.32-1.87,0.75-3.15,0.73-3.48s-1.48,3.22-2.01,4.4c-0.11,0.25-0.26,0.56-0.41,0.89c-0.12,0.59-0.19,0.92-0.19,0.92
		S113.51,99.36,113.47,99.12z"/>
	<path class="st6" d="M75.34,107.6c-1-2.09-2.32-3.96-2.47-3.91c-0.21,0.08,1.83,4.12,1.79,5.78c0,0-1.86-1-1.59-0.39
		c0.81,1.87,2.61,6.78,1.7,11.72c-0.05,0.29,1.68-1.9,0.47-8.92c0,0,0.94,1.28,1.19,2.09c0.23,0.75,0.48-0.84-0.02-3.27
		c-0.04-0.19-0.08-0.39-0.13-0.6C76.09,109.32,75.74,108.44,75.34,107.6z"/>
	<path class="st6" d="M110.95,109.73c-0.32,0.71-0.59,1.43-0.75,2.1c-0.11,0.47-0.2,0.9-0.26,1.31c-0.32,2.02-0.1,3.23,0.11,2.56
		c0.25-0.81,1.19-2.09,1.19-2.09c-1.21,7.02,0.53,9.21,0.47,8.92c-0.91-4.94,0.89-9.84,1.7-11.72c0.27-0.62-1.59,0.39-1.59,0.39
		c0-0.01,0-0.03,0-0.05c0-0.85,0.51-2.29,0.99-3.51c0.47-1.19,0.9-2.18,0.8-2.22c-0.08-0.03-0.49,0.49-1.01,1.29
		c-0.39,0.6-0.83,1.36-1.24,2.17C111.22,109.16,111.08,109.45,110.95,109.73z"/>
	<path class="st6" d="M83.02,39.35c-0.61,1.39-0.29,2.6-0.29,2.6s3.7-4.92,5.41-5.22c1.71-0.3,3.71-0.21,3.98-0.17
		c0.27,0.04,1.11,1.31,1.76,1.31c0.01,0,0.01,0,0.02-0.01c0.01,0,0.01,0.01,0.02,0.01c0.65,0,1.49-1.27,1.76-1.31
		c0.27-0.04,2.27-0.13,3.98,0.17c1.71,0.3,5.41,5.22,5.41,5.22s0.32-1.21-0.29-2.6s-3.67-4.3-4.51-4.42
		c-0.84-0.12-4.36-0.5-6.37-0.5c-2,0-5.53,0.38-6.37,0.5C86.69,35.05,83.63,37.96,83.02,39.35z M93.9,34.75c4,0,6.15,0.8,6.15,0.8
		s-2.11-0.2-6.15-0.2s-5.92,0.2-5.92,0.2S89.9,34.75,93.9,34.75z"/>
	<path class="st6" d="M90.13,44.05c-0.08-0.32-1.23,1.11-3.06,1.11c-1.83,0-2.17-1.31-2.31-1.11c-0.36,0.52,0.2,2.07,2.27,2.07
		C89.09,46.12,90.21,44.37,90.13,44.05z"/>
	<path class="st6" d="M103.04,44.05c-0.14-0.2-0.48,1.11-2.31,1.11c-1.83,0-2.98-1.43-3.06-1.11s1.03,2.07,3.1,2.07
		C102.84,46.12,103.4,44.57,103.04,44.05z"/>
</g>
</svg>
