<?xml version="1.0" encoding="utf-8"?>
<!-- Generator: Adobe Illustrator 27.2.0, SVG Export Plug-In . SVG Version: 6.00 Build 0)  -->
<svg version="1.1" id="Layer_1" xmlns="http://www.w3.org/2000/svg" xmlns:xlink="http://www.w3.org/1999/xlink" x="0px" y="0px"
	 viewBox="0 0 270.26 133.42" style="enable-background:new 0 0 270.26 133.42;" xml:space="preserve">
<style type="text/css">
	.st0{fill:#CE0E2D;}
</style>
<g>
	<g>
		<path d="M10.51,77.55c0.87,0,1.72,0.12,2.55,0.35c0.83,0.19,1.69,0.45,2.55,0.29c1.24-0.23,1.49-1.15,2.45-0.78
			s1.81,4.74,2.15,5.67c0.14,0.4,0.05,0.71-0.68,0.41c-0.73-0.31-2.67-1.09-3.92-1.51c-1.29-0.47-2.69-0.7-4.2-0.7
			c-1.17,0-2.14,0.35-2.9,1.05c-0.79,0.74-1.25,1.71-1.25,2.91c0,3.79,8.35,9.02,9.17,9.7c2.19,1.84,8.98,6.91,4.46,16.21
			c-3.06,6.29-9.67,7.07-11.3,6.99c-2.06-0.1-4.65-0.93-5.34-0.93s-1.46,1.66-1.87,0.47c-0.42-1.2-1.6-4.54-2.35-6.91
			c-0.31-0.84,1.25,0.48,1.78,0.79c0.53,0.31,1.14,0.68,1.82,1.11c0.68,0.35,1.44,0.68,2.27,0.99c0.83,0.31,1.82,0.47,2.95,0.47
			c2.27,0,4.09-0.64,5.45-1.92c1.32-1.28,2.1-3.12,2.1-5.53c0-8.93-14.82-11.7-14.82-21.25c0-1.24,0.3-2.35,0.79-3.32
			c0.49-0.97,1.15-1.81,1.99-2.5c0.87-0.66,1.82-1.16,2.84-1.51C8.27,77.72,9.37,77.55,10.51,77.55z"/>
		<path d="M76.13,109.84c-0.32,0.27-0.76,0.42-1.14,0.68c-0.42,0.19-0.83,0.38-1.25,0.57c-0.42,0.19-0.91,0.28-1.48,0.28
			c-0.89,0-6.89-0.06-9.51-0.06c-0.66,0-1.22-0.34-1.36-1.03c-0.02-0.2-0.04-0.39-0.04-0.59c0-0.02,0-0.03,0-0.05
			c0-0.8,0-8.29,0-15.21c0-0.3,0.43-0.54,0.7-0.62c0.34-0.11,4.05-0.07,5-0.07c2.27,0,3.54,1.47,3.81,1.66
			c0.26,0.19,0.51,0.28,0.74,0.28c0.38,0,0.74-0.28,1.08-0.85c0.38-0.57,0.68-1.23,0.91-1.99c0.23-0.76,0.42-1.49,0.57-2.21
			c0.15-0.72,0.23-1.25,0.23-1.59c0.03-0.54-1.42,0.85-8.63,0.85c-1.7,0-2.8,0-3.67,0c-0.46,0-0.61-0.28-0.72-0.5
			c0-2.56,0-4.7,0-5.89c0-0.88,0.62-1.49,3.03-1.49c3.1,0,4.62-0.07,5.45,0.08c0.83,0.19,3.54,0.95,4.03,1.13
			c0.49,0.15,0.78,0.23,0.85,0.23c0.3,0,0.53-0.11,0.68-0.34c0.15-0.26,0.23-0.53,0.23-0.79c0-0.23-2.12-5.09-3.12-5.39
			c-0.92-0.27-0.98,0.62-3.12,0.62c-1.76,0-4.83,0-6.23,0h-9.37c-0.5,0-0.79,0.56-0.51,0.97c0.9,1.27,2.31,3.5,2.31,5.02
			c0,2.23,0,23.88,0,26.56c0,1.71-1.24,3.55-2.14,4.65c-0.33,0.4-0.04,1,0.48,1c0,0,14.78,0,15.5,0c4.69,0,5.84,2.54,6.19,1.65
			c0.11-0.23,2.28-6.46,2.33-6.64C78.12,109.97,77.94,108.32,76.13,109.84z"/>
		<path d="M49.99,78.55c0.33-0.4,0.04-1-0.48-1h-9.37c-0.5,0-0.79,0.56-0.51,0.97c0.9,1.27,2.31,3.5,2.31,5.02c0,0.57,0,3.5,0,5.94
			c-3.25-0.28-6.5-0.28-9.75,0c0-2.35,0-5.27,0-5.98c0-1.85,1.34-3.81,2.28-4.95c0.33-0.4,0.04-1-0.48-1h-9.37
			c-0.5,0-0.79,0.56-0.51,0.97c0.9,1.27,2.31,3.5,2.31,5.02c0,2.23,0,23.88,0,26.56c0,1.71-1.24,3.55-2.14,4.65
			c-0.33,0.4-0.04,1,0.48,1h8.97c0.5,0,0.8-0.57,0.5-0.98c-0.84-1.14-2.05-3.12-2.05-5.1c0-1.66,0-8.5,0-14.82
			c3.26-0.24,6.51-0.24,9.75,0c0,6.56,0,13.77,0,15.24c0,1.71-1.24,3.55-2.14,4.65c-0.33,0.4-0.04,1,0.48,1h8.97
			c0.5,0,0.8-0.57,0.5-0.98c-0.84-1.14-2.05-3.12-2.05-5.1c0-3.03,0-23.32,0-26.18C47.71,81.64,49.05,79.69,49.99,78.55z"/>
		<path d="M189.46,94.11c-0.19-1.75-0.52-3.45-0.97-5.1c-0.5-1.68-1.13-3.26-1.89-4.75c-0.76-1.49-1.7-2.79-2.81-3.89
			c-1.14-1.15-2.48-2.06-4.01-2.75c-1.49-0.65-3.21-0.97-5.15-0.97c-1.49,0-2.96,0.15-4.41,0.46c-1.45,0.27-1.75,0.36-4.06,0.44H165
			c-0.5,0-0.79,0.56-0.51,0.97c0.9,1.27,2.31,3.5,2.31,5.02v26.56c0,1.71-1.24,3.55-2.14,4.65c-0.33,0.4-0.04,1,0.48,1h8.97
			c0.5,0,0.8-0.57,0.5-0.98c-0.84-1.14-2.05-3.12-2.05-5.1V83.5c0-0.91,0.15-1.45,0.35-1.75c1.25-1.52,3.39-0.58,4.46-0.01
			c1.07,0.57,1.98,1.36,2.75,2.35c0.8,0.99,1.45,2.1,1.95,3.32c0.5,1.26,0.88,2.56,1.15,3.89c0.34,1.34,0.55,2.67,0.63,4.01
			c0.11,1.3,0.17,2.5,0.17,3.61c-0.04,2.18-0.31,4.45-0.8,6.81c-0.5,2.33-1.3,4.49-2.4,6.47c-1.07,1.91-2.5,3.49-4.29,4.75
			c-1.79,1.26-4.03,1.89-6.7,1.89c-0.92,0-1.83-0.1-2.75-0.29c-0.92-0.23-1.74-0.57-2.46-1.03c-0.73-0.5-1.3-1.11-1.72-1.83
			c-0.46-0.72-0.69-1.6-0.69-2.63c0-0.69,0.27-1.24,0.8-1.66c0.5-0.46,2.1-1.67,1.09-3.03c-0.54-0.76-1.9-1.22-3.26-0.23
			c-0.5,0.38-0.92,0.86-1.26,1.43c-0.38,0.61-0.65,1.26-0.8,1.95c-0.19,0.69-0.29,1.3-0.29,1.83v0.23c0,1.07,0.3,2.16,0.92,3.26
			c0.65,1.22,1.41,2.21,2.29,2.98c0.57,0.53,1.24,0.97,2,1.32c0.8,0.31,1.62,0.57,2.46,0.8c0.88,0.19,1.75,0.31,2.63,0.34
			c0.88,0.08,1.7,0.11,2.46,0.11c3.24,0,6.03-0.71,8.36-2.12c2.29-1.37,4.18-3.17,5.67-5.38c1.49-2.25,2.59-4.75,3.32-7.5
			c0.69-2.75,1.05-5.51,1.09-8.3v-0.8C189.69,96.95,189.61,95.56,189.46,94.11z"/>
		<path d="M270.12,78.55c0.33-0.4,0.04-1-0.48-1h-9.37c-0.5,0-0.79,0.56-0.51,0.97c0.9,1.27,2.31,3.5,2.31,5.02
			c0,0.57,0,2.39,0,4.83c-3.25-0.28-6.5-0.28-9.75,0c0-2.35,0-4.15,0-4.86c0-1.85,1.34-3.81,2.28-4.95c0.33-0.4,0.04-1-0.48-1h-9.37
			c-0.5,0-0.79,0.56-0.51,0.97c0.9,1.27,2.31,3.5,2.31,5.02c0,2.23,0,23.88,0,26.56c0,1.71-1.24,3.55-2.14,4.65
			c-0.33,0.4-0.04,1,0.48,1h8.97c0.5,0,0.8-0.57,0.5-0.98c-0.84-1.14-2.05-3.12-2.05-5.1c0-1.66,0-8.5,0-14.82
			c3.26-0.24,6.51-0.24,9.75,0c0,6.56,0,13.77,0,15.24c0,1.71-1.24,3.55-2.14,4.65c-0.33,0.4-0.04,1,0.48,1h8.97
			c0.5,0,0.8-0.57,0.5-0.98c-0.84-1.14-2.05-3.12-2.05-5.1c0-3.03,0-23.32,0-26.18C267.84,81.64,269.18,79.69,270.12,78.55z"/>
		<path d="M106.39,78.55c0.33-0.4,0.04-1-0.48-1h-9.37c-0.5,0-0.79,0.56-0.51,0.97c0.9,1.27,2.31,3.5,2.31,5.02
			c0,1.03,0,6.23,0,11.78c-1.12-1.67-7.57-7.69-8.74-9.64c-0.96-1.59-1.17-3.17-1.19-3.31c0.37-1.48,1.37-2.91,2.12-3.82
			c0.33-0.4,0.04-1-0.48-1h-9.37c-0.5,0-0.79,0.56-0.51,0.97c0.9,1.27,2.31,3.5,2.31,5.02c0,2.23,0,23.88,0,26.56
			c0,1.71-1.24,3.55-2.14,4.65c-0.33,0.4-0.04,1,0.48,1h8.97c0.5,0,0.8-0.57,0.5-0.98c-0.84-1.14-2.05-3.12-2.05-5.1
			c0-1.84,0-9.99,0-16.77c1.58,2.16,5.61,6.26,7.57,8.67c1.61,1.97,2.27,4.21,2.52,5.39c0,1.52,0,2.64,0,3.13
			c0,1.71-1.24,3.55-2.14,4.65c-0.33,0.4-0.04,1,0.48,1h8.97c0.5,0,0.8-0.57,0.5-0.98c-0.84-1.14-2.05-3.12-2.05-5.1
			c0-3.03,0-23.32,0-26.18C104.12,81.64,105.45,79.69,106.39,78.55z"/>
		<path d="M134.43,78.49c0.33-0.4,0.04-1-0.48-1h-9.37c-0.02,0-0.03,0.01-0.04,0.01c-3.01,0-6.69-0.01-7.24-0.01
			c-2.05,0-3.53-0.89-4.33-0.89c-0.34,0-0.64,0.21-0.91,0.62c-0.3,0.42-1.47,4.21-1.53,4.43c-0.13,0.49,0.12,1.03,0.51,1.14
			c0.39,0.1,0.66-0.11,1.08-0.34c1.27-0.7,2.67-1.19,3.35-1.42c0.61-0.17,1.98-0.42,3.77-0.13c-0.76,1.22-2.08,3.69-4.23,8.71
			c-3.99,9.32-5.01,18.3-5.39,20.18c0,0.02,0.01,0.04,0.01,0.06c0,0-0.01,0-0.01,0c0,0-0.27,2.3-2.14,4.91c-0.3,0.42-0.04,1,0.48,1
			h8.97c0.5,0,0.8-0.57,0.5-0.98c-0.84-1.14-2.05-3.12-2.05-5.1v-0.18c0,0-0.01,0-0.01,0c0-0.02,0.01-0.04,0.01-0.06
			c-0.12-1.38,1.29-8.89,1.65-9.75c0.35-0.86,1.73-1.25,4.1-0.31c2.37,0.94,5.24,0.85,5.24,0.85c0,4.67,0,8.75,0,9.82
			c0,1.71-1.24,3.55-2.14,4.65c-0.33,0.4-0.04,1,0.48,1h8.97c0.5,0,0.8-0.57,0.5-0.98c-0.84-1.14-2.05-3.12-2.05-5.1
			c0-3.03,0-23.32,0-26.18C132.15,81.59,133.48,79.63,134.43,78.49z M121.63,94.49c-1.27-0.37-3.05-0.92-3.05-0.92
			s4.17-12,6.45-12.03c0.97-0.02,1.25,0.96,1.29,1.13c0.03,0.26,0.06,0.52,0.06,0.81c0,0.98,0,5.7,0,10.92
			C126,95.63,122.9,94.86,121.63,94.49z"/>
		<path d="M217.75,83.44c0,2.86,0,23.14,0,26.18c0,1.98-1.21,3.96-2.05,5.1c-0.3,0.41,0,0.98,0.5,0.98h8.97c0.52,0,0.81-0.6,0.48-1
			c-0.89-1.1-2.14-2.94-2.14-4.65c0-1.07,0-5.15,0-9.82c0,0,2.86,0.09,5.24-0.85c2.37-0.94,3.75-0.55,4.1,0.31
			c0.35,0.86,1.77,8.37,1.65,9.75c0,0.02,0.01,0.04,0.01,0.06c0,0-0.01,0-0.01,0v0.18c0,1.98-1.21,3.96-2.05,5.1
			c-0.3,0.41,0,0.98,0.5,0.98h8.97c0.52,0,0.78-0.58,0.48-1c-1.86-2.6-2.14-4.91-2.14-4.91c0,0-0.01,0-0.01,0
			c0-0.02,0.01-0.04,0.01-0.06c-0.38-1.88-1.39-10.86-5.39-20.18c-2.15-5.01-3.47-7.48-4.23-8.71c1.79-0.3,4.68,0.28,5.29,0.45
			c0.68,0.23,2.08,0.72,3.35,1.42c0.42,0.23,0.69,0.45,1.08,0.34c0.39-0.1,0.64-0.64,0.51-1.14c-0.06-0.22-1.23-4.01-1.53-4.43
			c-0.26-0.42-0.57-0.62-0.91-0.62c-0.8,0-3.8,0.57-5.85,0.57c-0.55,0-4.23,0.01-7.24,0.01c-0.01,0-0.02-0.01-0.04-0.01h-9.37
			c-0.52,0-0.81,0.6-0.48,1C216.41,79.63,217.75,81.59,217.75,83.44z M223.52,94.39c0-5.22,0-9.94,0-10.92
			c0-0.29,0.02-0.56,0.06-0.81c0.04-0.17,0.31-1.15,1.29-1.13c2.28,0.04,6.45,12.03,6.45,12.03s-1.78,0.55-3.05,0.92
			C227,94.86,223.9,95.63,223.52,94.39z"/>
		<path d="M203.62,116.53c-6.81,0-12.33-6.9-12.33-19.94s5.52-19.94,12.33-19.94c6.81,0,12.33,7.11,12.33,19.94
			S210.43,116.53,203.62,116.53z M209.93,96.59c0-10.07-2.82-15.64-6.3-15.64s-6.3,5.41-6.3,15.64s2.82,15.64,6.3,15.64
			S209.93,106.66,209.93,96.59z"/>
		<path d="M157.46,113.57v-0.23c0-0.63,0.11-1.34,0.32-2.11c0.16-0.74,0.48-1.51,0.92-2.22c0.3-0.49,0.67-0.92,1.08-1.3V83.5
			c0-1.85,1.34-3.81,2.28-4.95c0.33-0.4,0.04-1-0.48-1h-9.37c-0.5,0-0.79,0.56-0.51,0.97c0.9,1.27,2.31,3.5,2.31,5.02v11.78
			c-1.12-1.67-7.57-7.69-8.74-9.64c-0.96-1.59-1.17-3.17-1.19-3.31c0.37-1.48,1.37-2.91,2.12-3.82c0.33-0.4,0.04-1-0.48-1h-9.37
			c-0.5,0-0.79,0.56-0.51,0.97c0.9,1.27,2.31,3.5,2.31,5.02v26.56c0,1.71-1.24,3.55-2.14,4.65c-0.33,0.4-0.04,1,0.48,1h8.97
			c0.5,0,0.8-0.57,0.5-0.98c-0.84-1.14-2.05-3.12-2.05-5.1V92.9c1.58,2.16,5.61,6.26,7.57,8.67c1.61,1.97,2.27,4.21,2.52,5.39v3.13
			c0,1.71-1.24,3.55-2.14,4.65c-0.33,0.4-0.04,1,0.48,1h5.47C157.59,115.02,157.46,114.29,157.46,113.57z"/>
	</g>
	<g>
		<path class="st0" d="M29.62,125.12c2.38,0,4.16,1.8,4.16,4.1c0,2.36-1.79,4.21-4.16,4.21s-4.16-1.84-4.16-4.21
			C25.45,126.92,27.24,125.12,29.62,125.12z M29.62,132.12c1.45,0,2.64-1.26,2.64-2.91c0-1.58-1.19-2.8-2.64-2.8
			s-2.64,1.21-2.64,2.8C26.98,130.87,28.17,132.12,29.62,132.12z"/>
		<path class="st0" d="M39.73,132.18h0.96v-5.8h-0.96v-1.12h3.54c0.59,0,1.07,0.03,1.53,0.17c0.89,0.29,1.48,1.02,1.48,2.15
			c0,1.12-0.59,1.91-1.52,2.23v0.02c0,0,0.24,0.12,0.4,0.42l0.93,1.67c0.11,0.2,0.27,0.26,0.54,0.26h0.26v1.11h-0.94
			c-0.67,0-0.87-0.14-1.12-0.6l-1.14-2.07c-0.17-0.31-0.32-0.41-0.78-0.41h-0.74v1.97h0.93v1.11h-3.37V132.18z M43.51,129.02
			c0.78,0,1.29-0.46,1.29-1.32c0-0.52-0.19-0.93-0.63-1.11c-0.23-0.1-0.53-0.15-0.91-0.15h-1.09v2.58H43.51z"/>
		<path class="st0" d="M52.77,132.18h0.96v-5.8h-0.96v-1.12h3.47c0.65,0,1.15,0.03,1.67,0.19c1.56,0.46,2.6,1.84,2.6,3.82
			c0,1.9-0.96,3.27-2.49,3.78c-0.54,0.19-1.11,0.24-1.78,0.24h-3.49V132.18z M56.19,132.1c0.51,0,0.92-0.05,1.31-0.2
			c0.92-0.37,1.49-1.31,1.49-2.63c0-1.36-0.61-2.29-1.55-2.65c-0.41-0.16-0.78-0.18-1.26-0.18h-0.97v5.66H56.19z"/>
		<path class="st0" d="M66.53,132.18h0.96v-5.8h-0.96v-1.12h5.96v2.07h-1.27v-0.88h-2.25v2.21h2.65v1.19h-2.65v2.26h2.42v-0.91h1.27
			v2.09h-6.13V132.18z"/>
		<path class="st0" d="M78.75,132.18h0.96v-5.8h-0.96v-1.12h3.54c0.59,0,1.07,0.03,1.53,0.17c0.89,0.29,1.48,1.02,1.48,2.15
			c0,1.12-0.59,1.91-1.52,2.23v0.02c0,0,0.24,0.12,0.4,0.42l0.93,1.67c0.11,0.2,0.27,0.26,0.54,0.26h0.26v1.11h-0.94
			c-0.67,0-0.87-0.14-1.12-0.6l-1.14-2.07c-0.17-0.31-0.32-0.41-0.78-0.41h-0.74v1.97h0.93v1.11h-3.37V132.18z M82.53,129.02
			c0.78,0,1.29-0.46,1.29-1.32c0-0.52-0.19-0.93-0.63-1.11c-0.23-0.1-0.53-0.15-0.91-0.15h-1.09v2.58H82.53z"/>
		<path class="st0" d="M103.72,125.12c2.38,0,4.16,1.8,4.16,4.1c0,2.36-1.79,4.21-4.16,4.21c-2.38,0-4.16-1.84-4.16-4.21
			C99.56,126.92,101.35,125.12,103.72,125.12z M103.72,132.12c1.45,0,2.64-1.26,2.64-2.91c0-1.58-1.19-2.8-2.64-2.8
			s-2.64,1.21-2.64,2.8C101.09,130.87,102.27,132.12,103.72,132.12z"/>
		<path class="st0" d="M113.84,132.18h0.96v-5.8h-0.96v-1.12h5.74v2.08h-1.27v-0.83h-2.03v2.31h2.61v1.19h-2.61v2.17h1.06v1.11
			h-3.51V132.18z"/>
		<path class="st0" d="M134.83,132.18h0.96v-5.74h-1.52v1.21h-1.26v-2.4h7.04v2.4h-1.26v-1.21h-1.53v5.74h0.97v1.11h-3.42V132.18z"
			/>
		<path class="st0" d="M145.91,132.18h0.96v-5.8h-0.96v-1.12h3.42v1.12h-0.97v2.32h3.65v-2.32h-0.97v-1.12h3.42v1.12h-0.96v5.8h0.96
			v1.11h-3.42v-1.11h0.97v-2.3h-3.65v2.3h0.97v1.11h-3.42V132.18z"/>
		<path class="st0" d="M160.56,132.18h0.96v-5.8h-0.96v-1.12h5.96v2.07h-1.27v-0.88h-2.25v2.21h2.65v1.19h-2.65v2.26h2.42v-0.91
			h1.27v2.09h-6.13V132.18z"/>
		<path class="st0" d="M180.16,132.18h0.74l2.41-6.93h1.69l2.41,6.93h0.74v1.11h-3.02v-1.11h0.79l-0.5-1.5h-2.53l-0.5,1.5h0.79v1.11
			h-3.01V132.18z M185.07,129.52l-0.76-2.27c-0.12-0.4-0.15-0.7-0.15-0.7h-0.03c0,0-0.03,0.31-0.15,0.7l-0.77,2.27H185.07z"/>
		<path class="st0" d="M193.82,132.18h0.96v-5.8h-0.96v-1.12h3.54c0.59,0,1.07,0.03,1.53,0.17c0.89,0.29,1.48,1.02,1.48,2.15
			c0,1.12-0.59,1.91-1.52,2.23v0.02c0,0,0.24,0.12,0.4,0.42l0.93,1.67c0.11,0.2,0.27,0.26,0.54,0.26h0.26v1.11h-0.94
			c-0.67,0-0.87-0.14-1.12-0.6l-1.14-2.07c-0.17-0.31-0.32-0.41-0.78-0.41h-0.74v1.97h0.93v1.11h-3.37V132.18z M197.6,129.02
			c0.78,0,1.29-0.46,1.29-1.32c0-0.52-0.19-0.93-0.63-1.11c-0.23-0.1-0.53-0.15-0.91-0.15h-1.09v2.58H197.6z"/>
		<path class="st0" d="M206.86,132.18h0.96v-5.8h-0.96v-1.12h3.54c0.59,0,1.08,0.03,1.53,0.17c0.89,0.29,1.48,1.02,1.48,2.15
			c0,1.12-0.59,1.91-1.52,2.23v0.02c0,0,0.24,0.12,0.4,0.42l0.93,1.67c0.11,0.2,0.27,0.26,0.54,0.26h0.26v1.11h-0.94
			c-0.67,0-0.87-0.14-1.12-0.6l-1.14-2.07c-0.17-0.31-0.32-0.41-0.78-0.41h-0.74v1.97h0.93v1.11h-3.37V132.18z M210.63,129.02
			c0.78,0,1.29-0.46,1.29-1.32c0-0.52-0.19-0.93-0.63-1.11c-0.23-0.1-0.53-0.15-0.91-0.15h-1.09v2.58H210.63z"/>
		<path class="st0" d="M223.94,125.12c2.38,0,4.16,1.8,4.16,4.1c0,2.36-1.79,4.21-4.16,4.21c-2.38,0-4.16-1.84-4.16-4.21
			C219.78,126.92,221.57,125.12,223.94,125.12z M223.94,132.12c1.45,0,2.64-1.26,2.64-2.91c0-1.58-1.19-2.8-2.64-2.8
			s-2.64,1.21-2.64,2.8C221.31,130.87,222.49,132.12,223.94,132.12z"/>
		<path class="st0" d="M233.62,125.25h3.13v1.12h-0.94l1.04,4.58c0.07,0.33,0.09,0.7,0.09,0.7h0.05c0,0,0.03-0.37,0.12-0.7l1.5-5.7
			h1.19l1.51,5.7c0.09,0.33,0.12,0.7,0.12,0.7h0.05c0,0,0.02-0.37,0.09-0.7l1.04-4.58h-0.94v-1.12h3.13v1.12h-0.74l-1.71,6.91h-1.66
			l-1.35-5.07c-0.09-0.33-0.12-0.74-0.12-0.74h-0.03c0,0-0.03,0.41-0.12,0.74l-1.35,5.07h-1.66l-1.71-6.91h-0.74V125.25z"/>
	</g>
</g>
<g>
	<g>
		<g>
			<path class="st0" d="M223.32,44.44c-0.82,0-11.89,0-11.89,0l-3.99-2.89l1.46,2.89h-6.78l-6.86-5.91H63.87
				c0,0,3.01,4.32,2.61,4.76c-0.4,0.45-19.58-6.01-19.58-6.58s19.25-7.89,19.58-7.58c0.33,0.31-3.08,5.22-2.68,5.22
				c0.41,0,131.04,0.22,131.04,0.22l6.89-5.9h1.14L201,32.09h1.14l3.34-3.41h7.01l-1.15,2.9l4.41-2.9h7l-5.41,6.33
				c0,0,0.88-0.13,0.88,0.97c0,1.1-0.06,1.77-0.55,1.77C217.66,37.75,223.93,44.44,223.32,44.44z"/>
		</g>
		<polygon class="st0" points="152.9,38.52 131.51,38.52 131.77,34.47 153.82,34.51 		"/>
	</g>
	<path d="M167.11,32.94c0.31-0.7,10.3-2.52,10.3-10.68c0-5.32-4.82-11.04-12.53-11.04c-13.4,0-14.69,11.73-14.69,12.76
		c0,8.07,5.93,11.1,5.39,11.46c-0.9,0.6-5.68,5.96-5.58,7.2c-0.08-4.03-0.88-7.83-2.39-11.29c-1.67-3.79-4.3-7.11-7.83-9.87
		c-1.93-1.49-6.4-3.54-11.55-5.25c0.03-0.44,1.16-8.03,1.16-8.03c3.58,0,8.08,0.06,10.59,0.06c2.44,0,2.93,2.58,4.16,3.07
		c0.3,0.12,0.65,0.01,0.83-0.26c0.25-0.38,3.47-7.97,3.59-8.46c0.35-1.44-0.02-2.85-2.09-2.57c-1.38,0.19-2.47,1.33-6.5,1.33
		c-3.34,0-15.08-0.19-16.33,0.22c-1.22,0.38-2.03,1.23-2.33,2.43c-0.32,1.09-2.68,14.82-2.97,16.65c-0.65-1-1.41-1.89-2.3-2.63
		c-1.35-1.13-2.98-2.01-4.85-2.6c-1.85-0.59-3.91-0.88-6.13-0.88c-1.92,0-3.74,0.33-5.43,0.97c-1.69,0.64-3.23,1.57-4.58,2.75
		c-1.3,1.14-2.34,2.51-3.06,4.06c-0.79,1.57-1.2,3.33-1.2,5.18c-0.06,0.84,0.06,1.7,0.35,2.54c0.35,1.01,1.17,1.55,2.35,1.55
		c0.74,0,1.36-0.33,1.79-0.95c0.35-0.5,0.66-1.1,0.95-1.81c0.32-0.77,0.67-1.57,1.04-2.37c0.41-0.79,0.91-1.51,1.48-2.16
		c0.54-0.66,1.27-1.21,2.17-1.64c0.94-0.47,2.13-0.71,3.55-0.71c0.77,0,1.59,0.19,2.43,0.57c0.85,0.38,1.58,0.89,2.21,1.54
		c0.65,0.57,1.18,1.27,1.59,2.1c0.39,0.75,0.59,1.53,0.59,2.32c0,1.37-0.47,3.01-1.41,4.91c-0.91,1.89-2.1,3.93-3.55,6.09
		c-1.41,2.17-2.99,4.44-4.7,6.74c-1.74,2.33-3.45,4.62-5.13,6.85c-1.63,2.18-3.16,4.3-4.58,6.32c-1.37,2.04-2.42,3.85-3.14,5.36
		c-0.03,0.07-0.05,0.15-0.05,0.22c0,0.93,0.58,1.3,0.86,1.41c0.45,0.24,0.93,0.4,1.45,0.46c0.53,0.06,27.51,0.39,27.96,0.39
		c0.87,0,1.74-0.05,2.63-0.15c1.25-0.21,2.5-0.48,3.76-0.82c1.22-0.41,2.32-0.98,3.26-1.7c1.44-1.02,2.76-2.42,3.91-4.15
		c1.11-1.61,1.76-3.27,1.93-4.94l0.03-0.33c0.09-0.84,0.04-1.81-0.14-2.88c-0.13-1.09-0.44-2.16-0.92-3.15
		c-0.44-0.96-1.03-1.8-1.77-2.51c-0.83-0.74-3.61-2.2-5.82-0.32c-2.38,2.59,0.49,5.03,1.2,5.83c0.54,0.53,5.19,7.37-9.89,7.37
		c-5.54,0-15.42-0.34-15.8-0.26c0.73-1.25,1.57-2.53,2.51-3.81c1.3-1.66,2.66-3.37,4.06-5.12c1.45-1.74,2.9-3.55,4.32-5.38
		c1.42-1.77,2.74-3.59,3.95-5.43c1.15-1.88,2.12-3.76,2.89-5.61c0.72-1.86,1.12-3.75,1.18-5.62c0.03-1.29-0.09-2.49-0.32-3.6
		c0.16,0.02,0.32,0.05,0.49,0.07c0.65,0.07,1.36,0.1,2.14,0.1c2.82,0,5.31,0.54,7.41,1.62c2.15,1.08,3.97,2.57,5.42,4.43
		c1.44,1.81,2.54,3.98,3.27,6.46c0.73,2.43,1.07,5.05,1.01,7.8c-0.06,2.8-0.52,5.53-1.37,8.09c-0.85,2.5-2.06,4.85-3.57,6.97
		c-1.58,2.07-5.66,9.53-17.14,9.53c-9.91-1.14-9.67,4.89,1.32,5.1c4.1,0.08,8.06-0.88,11.77-2.61c3.69-1.72,6.99-4.05,9.78-6.91
		c2.87-2.81,5.19-6.11,6.92-9.82c0.24-0.55,0.46-1.11,0.67-1.67c0.15,0.6,2.57,12.55,14.55,12.55c16.92,0,16.44-13.44,16.44-16.61
		C179.08,46.62,177.45,37.43,167.11,32.94z M158.78,21.12c0.4-0.86,2.79-4.18,7.18-4.18c2.48,0,4.35,0.54,5.58,1.63
		c1.12,0.9,1.9,2.95,1.69,4.53c-0.21,1.58-0.76,3.99-5.36,5.06c1.12-2.47,2.63-7.07,0.43-7.07c-2.19,0-5.42,6.47-6.97,8.72
		C160.27,29.32,156.58,25.82,158.78,21.12z M163.35,59.4c-4.46,0-8.07-4.88-8.07-9.34c0-4.46,3.61-10.17,8.07-10.17
		c4.46,0,8.07,5.71,8.07,10.17C171.42,54.51,167.81,59.4,163.35,59.4z"/>
	<polygon class="st0" points="151.7,38.52 130.32,38.52 130.57,34.47 152.63,34.51 	"/>
</g>
</svg>
