<?xml version="1.0" encoding="utf-8"?>
<!-- Generator: Adobe Illustrator 27.2.0, SVG Export Plug-In . SVG Version: 6.00 Build 0)  -->
<svg version="1.1" id="Layer_1" xmlns="http://www.w3.org/2000/svg" xmlns:xlink="http://www.w3.org/1999/xlink" x="0px" y="0px"
	 viewBox="0 0 177.75 183.15" style="enable-background:new 0 0 177.75 183.15;" xml:space="preserve">
<style type="text/css">
	.st0{fill:#BC955C;}
	.st1{fill:#3D3935;}
	.st2{fill:#010101;}
	.st3{fill:#6F7271;}
	.st4{fill:#FFFFFF;}
	.st5{fill:#CE0E2D;}
</style>
<g>
	<g>
		<path d="M105.32,173.87c-1.95,0.96-4.23,2.41-5.56,3.83c-1.33,1.42-3.06,5.45-3.06,5.45c0.28,0.23,1.95-2.44,3.03-3.5
			c1.08-1.06,2.44-2.38,2.26-1.85s-1.95,3.23-1.61,3.4c0.34,0.17,2.84-2.94,4.05-4.29c1.2-1.35,4.85-5.15,4.51-5.15
			C108.59,171.75,107.26,172.91,105.32,173.87z"/>
		<path d="M158.45,87.76c0.48,1.35,2.18,3.41,2.36,3.44c0.18,0.03-0.41-0.95-0.84-2.11c-0.43-1.16-2.39-9.12-1.81-7.82
			c0.59,1.3,3.42,3.75,2.79,3.13c-0.53-0.53-2.41-4.51-2.76-5.25c0.42,0.85,2.86,2.93,2.99,2.7c0.14-0.24-2.07-2.31-2.66-3.42
			c-0.59-1.11-1.17-3.27-1.08-3.8c0.09-0.53,2.21,3.99,2.43,4.43c0.23,0.43,0.63-2.17-0.21-4.67c-0.84-2.5-4.51-6.16-4.83-6.83
			c-0.32-0.67,3.56,3.27,4.14,3.56c0.59,0.29-2.93-4.14-2.16-3.66c0.77,0.48,2.52,3.56,2.84,2.93c0.32-0.63-5.94-10.2-6.62-11.07
			c-0.68-0.87,5.22,5.39,5.67,5.68c0.45,0.29-6.12-7.99-6.57-8.8c-0.45-0.82,3.78,3.8,4.46,4.38c0.68,0.58-1.4-2.79-3.24-4.91
			c-1.85-2.12-4.73-4.91-5.22-5.68c-0.5-0.77,2.48,1.88,3.11,2.31c0.63,0.43-2.9-4.51-3.39-5.4s3.19,3.04,3.68,3.41
			c0.49,0.37-1.11-2.67-2.43-4.67c-0.25-0.39-0.81-1.15-1.58-2.16c0.99-0.89,2.19-1.99,2.97-2.83c1.56-1.66,3.62-4.04,3.53-4.31
			s-0.97,0.09-1.18,0s1.68-1.75,3.45-3.82c1.77-2.07,2.82-4.18,2.73-4.49s-1.39,0.63-1.18,0.31s2.06-4.09,1.89-4.49
			s-0.88,1.3-1.05,1.12c-0.17-0.18,0.71-1.98,1.4-3.46c0.69-1.48,0.57-5.12,0.41-5.3c-0.17-0.18-0.55,0.45-0.63,0.31
			c-0.08-0.13,0.34-1.26,0.22-1.53c-0.11-0.27-0.73,0.94-0.9,0.76c-0.17-0.18,1.35-3.5,1.3-3.91s-0.8,0.4-0.97,0.27
			s0.5-0.99,0.38-1.35s-1.01,0.09-1.22,0.04s0.88-0.85,0.67-1.12s-2.19,0.13-2.44-0.09c-0.25-0.22,2.4-1.08,2.44-1.3
			c0.04-0.22-1.93-0.22-2.1-0.27c-0.17-0.04,1.6-1.62,1.6-1.84c0-0.22-3.95-0.54-4.08-0.72c-0.13-0.18,1.3-1.8,1.22-1.98
			c-0.08-0.18-2.4,0.4-2.65,0.36c-0.25-0.04,1.05-1.17,1.22-1.44s-0.71-0.4-3.74-0.49c-3.03-0.09-5.55,0.9-6.14,0.9
			c-0.59,0,3.57-2.52,3.49-2.74c-0.08-0.22-1.68-0.09-6.39,1.66s-8.54,5.12-8.83,4.99s3.2-3.77,3.11-4s-2.86,0.81-4.75,2.43
			c-1.89,1.62-4.58,5.12-4.92,5.03c-0.34-0.09,0.97-1.84,0.59-2.02c-0.38-0.18-3.53,4.94-3.72,4.67c-0.19-0.27,0.27-2.34,0-2.29
			c-0.25,0.04-3.55,5.3-4.19,6.33c-1.23-0.39-4.94-1.42-7.55-0.67c-0.62,0.36-1.36,0.54-1.46,0.57c-0.84,0.21-1.82,0.25-1.97,0.05
			c-0.14-0.2,4.23-2.05,4.01-2.25c-0.22-0.2-6.37,1.16-6.84,1.05c-0.47-0.12,2.82-1.52,2.82-1.73c0-0.2-2.19,0.59-4.08,0.19
			c-2.99-0.63-5.78,1.19-5.23-0.7c0.53-1.82-6.86,2.16-13.94,0.19c0,0-0.5-0.27-0.09,0.61c-2.7-0.76-5.91-1.57-7.45-1.63
			c-2.9-0.11-3.7,0.34-3.7,0.34s1.74,0.83,1.16,0.95c-0.58,0.12-2.59-0.78-5.07-0.67s-5.33,1.18-4.96,1.24
			c0.37,0.06,2.54,0.28,1.74,0.45c-0.79,0.17-5.13,0.32-5.62,0.63c-0.49,0.31,2.2,0.34,2.2,0.87c0,0.53-0.81,0.37-1.86,0.34
			c-0.94-0.03-2.23-0.14-3.18,0c-0.84-1.35-3.85-6.12-4.09-6.16c-0.27-0.04,0.19,2.02,0,2.29s-3.34-4.85-3.72-4.67
			c-0.38,0.18,0.93,1.93,0.59,2.02c-0.34,0.09-3.03-3.41-4.92-5.03c-1.89-1.62-4.67-2.65-4.75-2.43s3.41,3.86,3.11,4
			S40.11,3.5,35.4,1.75s-6.31-1.89-6.39-1.66c-0.08,0.22,4.08,2.74,3.49,2.74c-0.59,0-3.11-0.99-6.14-0.9
			c-3.03,0.09-3.91,0.22-3.74,0.49s1.47,1.39,1.22,1.44c-0.25,0.04-2.57-0.54-2.65-0.36c-0.08,0.18,1.35,1.8,1.22,1.98
			c-0.13,0.18-4.08,0.49-4.08,0.72c0,0.22,1.77,1.8,1.6,1.84c-0.17,0.04-2.14,0.04-2.1,0.27c0.04,0.22,2.69,1.08,2.44,1.3
			c-0.25,0.22-2.23-0.18-2.44,0.09s0.88,1.08,0.67,1.12s-1.09-0.4-1.22-0.04c-0.13,0.36,0.55,1.21,0.38,1.35s-0.93-0.67-0.97-0.27
			s1.47,3.73,1.3,3.91c-0.17,0.18-0.79-1.03-0.9-0.76c-0.11,0.27,0.31,1.39,0.22,1.53c-0.08,0.13-0.46-0.49-0.63-0.31
			c-0.17,0.18-0.28,3.82,0.41,5.3c0.69,1.48,1.57,3.28,1.4,3.46c-0.17,0.18-0.88-1.53-1.05-1.12c-0.17,0.4,1.68,4.18,1.89,4.49
			s-1.09-0.63-1.18-0.31s0.97,2.43,2.73,4.49c1.77,2.07,3.66,3.73,3.45,3.82s-1.09-0.27-1.18,0s1.98,2.65,3.53,4.31
			c1.09,1.16,2.96,2.83,3.99,3.73c-0.75,0.99-1.3,1.73-1.55,2.11c-1.32,2-2.92,5.05-2.43,4.67c0.49-0.37,4.17-4.3,3.68-3.41
			s-4.02,5.83-3.39,5.4c0.63-0.43,3.6-3.08,3.11-2.31c-0.5,0.77-3.38,3.56-5.22,5.68c-1.85,2.12-3.92,5.48-3.24,4.91
			s4.91-5.2,4.46-4.38c-0.45,0.82-7.02,9.09-6.57,8.8s6.35-6.54,5.67-5.68s-6.93,10.44-6.62,11.07c0.32,0.63,2.07-2.45,2.84-2.93
			c0.77-0.48-2.75,3.95-2.16,3.66c0.59-0.29,4.46-4.23,4.14-3.56c-0.32,0.67-3.99,4.33-4.83,6.83c-0.84,2.5-0.44,5.1-0.21,4.67
			c0.23-0.43,2.34-4.96,2.43-4.43c0.09,0.53-0.5,2.69-1.08,3.8s-2.79,3.18-2.66,3.42c0.13,0.24,2.57-1.85,2.99-2.7
			c-0.35,0.73-2.23,4.72-2.76,5.25c-0.63,0.63,2.21-1.83,2.79-3.13c0.59-1.3-1.38,6.66-1.81,7.82c-0.43,1.16-1.01,2.14-0.84,2.11
			c0.18-0.03,1.87-2.08,2.36-3.44c0.48-1.35-1.11,4.17-1.95,6.71c-0.84,2.54-0.68,6.82-0.51,6.5s1.09-4.38,1.6-4.84
			c0,0-1.24,6.2-1.01,9.34c0.23,3.14,0.63-1.95,1.49-4.87s1.98-4.6,2.08-4.57s-0.94,4.76-0.99,10.15c-0.05,5.39,0.76,7.36,0.81,6.96
			c0.05-0.41,1.27-7.14,1.95-9.42c0.68-2.27,3.04-6.22,2.71-5.25c-0.33,0.97-2.2,6.66-2.74,12.1c-0.53,5.44,0.23,12.42,0.41,12.56
			c0.18,0.14,1.01-6.41,1.37-8.23c0.35-1.81,0.73-3.17,0.76-2.08c0.03,1.08,0.28,4.84,0.43,9.01c0.15,4.17-0.33,10.69-0.23,10.8
			s1.01-2.27,1.42-4.3c0.41-2.03,0.94-5.93,1.09-6.01s-0.68,5.12,0.41,11.15c1.09,6.04,5.02,8.8,5.09,8.58
			c0.08-0.22-0.48-3.63-0.53-5.44c-0.05-1.81,0.58-5.3,0.61-4.44c0.03,0.87,0.15,6.5,1.19,10.04s2.28,5.47,2.18,4.82
			c-0.1-0.65-0.61-6.01-0.3-8.42c0.3-2.41,0.94-3.65,0.91-3.14s-0.08,6.68,0.71,9.72s1.65,4.41,1.55,3.71
			c-0.1-0.7-0.46-6.04-0.1-6.01c0.35,0.03,0.25,3.5,1.47,6.19c1.22,2.69,2.03,3.37,1.93,2.77c-0.1-0.6-0.86-3-0.99-5.39
			c-0.13-2.38,0.03-3.19,0.2-3.17c0.18,0.03-0.19,2.87,1.65,5.36c2.02,2.74,1.29,5.4,1.42,5.23c0.13-0.16,1.33-2.5-0.05-5.29
			c-0.97-1.96-0.99-5.76-0.76-5.58s0.63,3.87,2.03,6.01c0.47,0.73,0.5,0.63,1.19,1.41c1.28,1.46-0.58,4.37-0.14,4.21
			c2.41-0.86,2.29-3.11,2.29-3.11c0.95,0.72-1.28,4.95-4.44,7.02c-3.86,2.53-1.77,10.25-1.75,9.95
			c0.88-11.84,14.14-13.53,16.57-10.42c2.43,3.11,1.77,9.47,0.24,12.47c-0.79,1.55,5.26-6.09,3.94-8.5
			c-1.32-2.41-2.33-4.44-2.18-4.6c0.15-0.16,1.7,2.14,2.81,3.9c1.11,1.76-1.93,7.38-1.27,9.6c0.86,2.87,3.81,3.44,3.98,3.28
			c0,0-2.21-1.69-2.02-3.58c0.19-1.83,3.38-8.35,3.61-8.38c0.23-0.03,0.16,7.37,1.93,11.16s5.63,4.14,5.83,3.98
			c0.2-0.16-6.09-4.6-2.58-9.16c0.24-0.31,1.7,3.19,1.82,3.09s-0.15-2.87,0-2.98s0.36,4.6,2.72,7.39c2.36,2.78,6.5,5.17,6.78,4.9
			c0.28-0.27-5.35-5.71-2.58-7.55c0.2-0.13,2.91,4.28,3.23,4.06s-0.71-3.16-0.51-3.29s3,4.64,3.32,4.39s-2.13-7.17-1.89-7.34
			c0.24-0.17,1.34,3.58,1.58,3.42c0.24-0.17-1.07-5.86-0.71-5.9c0.31-0.04,1.28,5.34,1.71,6.6c0.2,0.82,0.47,1.72,0.79,2.38
			c0.55,1.14,1.26,4.44,1.47,4.83c0.22,0.38,0.27-1.2,0.47-2.43c0.19-1.23,1.1-4.45,2.27-5.91c1.18-1.46,4.99-4.42,5.48-4.71
			s-0.38,1.32-1.01,2.23c-0.63,0.91-3.32,3.22-4,4.77c-0.69,1.55-0.52,3.54-0.41,3.16c0.11-0.38,2.22-3.92,4-4.92
			c1.78-1,6.71-3.51,8.6-5.12c1.89-1.61,3.43-5.45,3.59-5.68c0.16-0.23,2.9,0.91,2.37,2.44c-0.7,2.04-4.57,4.15-4.38,4.2
			c0.19,0.06,7.51,0.45,12.79-5.23c0.54-0.58-0.99,2.71-0.31,2.21c1.63-1.19,6.58-5.23,8.54-9.5c2.07-4.5-0.6-14.34-0.43-14.15
			c3.17,3.64,2.08,11.69,2.41,11.75c0.31,0.06,2.96-8.68,1.33-15.49c1.41,1.64,2.39,4.23,2.67,8.33c2.4-3.79,3.43-13.19,3.41-13.59
			c-0.03-0.51,0.61,0.73,0.91,3.14c0.15,1.21,0.1,3.17,0,4.89c0.04,0.15,0.02,0.3-0.03,0.43c-0.1,1.52-0.23,2.79-0.27,3.09
			c-0.1,0.65,1.14-1.27,2.18-4.82c1.04-3.55,1.17-9.17,1.19-10.04c0.03-0.87,0.66,2.63,0.61,4.44c-0.05,1.81-0.61,5.22-0.53,5.44
			c0.08,0.22,4-2.54,5.09-8.58c1.09-6.04,0.25-11.23,0.41-11.15c0.15,0.08,0.68,3.98,1.09,6.01c0.41,2.03,1.32,4.41,1.42,4.3
			c0.1-0.11-0.38-6.63-0.23-10.8c0.15-4.17,0.41-7.93,0.43-9.01c0.03-1.08,0.41,0.27,0.76,2.08c0.35,1.81,1.19,8.36,1.37,8.23
			c0.18-0.14,0.94-7.12,0.41-12.56c-0.53-5.44-2.41-11.12-2.74-12.1c-0.33-0.97,2.03,2.98,2.71,5.25c0.68,2.27,1.9,9.01,1.95,9.42
			c0.05,0.41,0.86-1.57,0.81-6.96c-0.05-5.39-1.09-10.12-0.99-10.15c0.1-0.03,1.22,1.65,2.08,4.57c0.86,2.92,1.27,8.01,1.49,4.87
			c0.23-3.14-1.01-9.34-1.01-9.34c0.51,0.46,1.42,4.52,1.6,4.84c0.18,0.32,0.33-3.95-0.51-6.5
			C159.57,91.93,157.97,86.41,158.45,87.76z M24.69,98.68c0.05,0.97-0.61-3.27,1.07-6.85c1.69-3.58,3.99-8.43,4.34-9.56
			c0.1-0.31-1.69,6.13-3.17,9.05C25.45,94.23,24.64,97.71,24.69,98.68z M26.59,107.11c-0.2,0,1.33-11.6,4.15-21.18
			c2.81-9.58,7.65-14.07,7.65-14.07c0.39,0.2-4.23,7.75-7.25,17.33C28.12,98.76,26.79,107.11,26.59,107.11z M39.44,88.89
			c-0.25-0.01,0.42-3.98,0.99-5.59c0.56-1.6,1.49-2.87,1.49-2.87C42.29,80.52,39.69,88.9,39.44,88.89z M42.36,88.53
			c0.44-2.2,1.93-5.69,1.93-5.69c0.39,0.08-2.67,13.98-2.78,14.02C41.41,96.9,41.92,90.73,42.36,88.53z M40.07,105.27
			c-0.24,0.11-0.04-2.02-0.5-2.97s0.35-2.44,0.5-4.06C40.11,97.9,40.31,105.16,40.07,105.27z M42.84,68.85
			c0.54-0.44-2.86,5.04-4.3,8.25c-1.43,3.21-2.62,10.81-3.06,10.83c0,0,1.09-7.52,2.05-10.39C38.49,74.68,42.3,69.3,42.84,68.85z
			 M31.32,131.8c0,0-1.68-8.94-1.54-15.15c0.14-6.21,0.7-11.73,0.7-11.73s-2.3,6.91-2.16,14.38c0,0-1.05-6.14,0.42-14.17
			c1.47-8.03,2.86-11.59,2.86-11.59s-0.74,6.84-0.44,8.38c0.3,1.54,1.84-9.57,3.16-14.38c0.09-0.34-1.54,11.38-2.58,23.39
			C30.69,122.93,31.32,131.8,31.32,131.8z M35.17,133.74c-0.1,0.05-0.1-2.04-0.51-3.12c-0.41-1.07-0.31-6.24,0.26-7.16
			c0.14-0.22-0.1,4.4,0.26,6.03C35.52,131.13,35.27,133.69,35.17,133.74z M33.72,121.74c-0.49,4.04-0.29,6.32-0.44,6.43
			c-0.16,0.1-0.88-8.6-0.67-14.3c0.21-5.7,2.07-11.56,2.07-11.56c0.26,0-0.78,6.32-0.83,9.74c-0.05,3.42-0.26,4.72,0,4.77
			c0.26,0.05,1.66-6.74,1.87-6.58C35.92,110.39,34.21,117.7,33.72,121.74z M36.36,119.38c-0.48,0.09-0.74-6.27,1.37-11.98
			c0.1-0.27-0.66,4.54-1.06,6.88C36.26,116.61,36.84,119.28,36.36,119.38z M38.77,94.17c0.31-0.43-1.45,5.26-1.71,9.92
			C36.8,108.76,35.73,98.39,38.77,94.17z M36.66,137.27c-0.07,0.72-0.04-8.23,0-10.27c0.04-2.04,0.39-7.62,0.39-7.62
			c0.36-0.1,1.1,4.91,0.68,8.54S36.73,136.55,36.66,137.27z M38.81,132.11c-0.16,1.07-0.96,3.12-1.07,2.91
			c-0.12-0.2,0.98-4.04,1.07-7.87C38.82,126.7,38.97,131.03,38.81,132.11z M36.37,96.34c0,0-0.1-3.06,0.3-5.58
			c0.4-2.52,2.32-8.34,2.52-7.9C39.38,83.31,36.47,96.34,36.37,96.34z M40.36,133.51c-0.85,3.63-0.72,7.76-0.76,7.76
			c0,0-0.8-5.2-0.12-7.65c0.88-3.18,1.04-8.69,1.24-8.24C40.81,125.6,41.27,129.61,40.36,133.51z M42.33,121.42
			c-0.46-5.58-0.49-10.58-0.49-10.58s-1.41,6.41-0.58,13.09c0,0-1.52-5.41-0.97-12.74c0.55-7.33,1.47-10.66,1.47-10.66
			s-0.01,6.2,0.4,7.55c0.41,1.35,0.74-8.74,1.47-13.19c0.05-0.32-0.3,10.34-0.1,21.2c0.2,10.86,1.6,18.74,1.6,18.74
			S42.79,127.01,42.33,121.42z M44.51,88.26c0.7-7.1,3.54-9.88,3.54-9.88L44.51,88.26z M46.24,87.75
			c1.89-6.88,4.68-10.74,4.68-10.74s-1.51,3.59-3.32,9.78c-1.81,6.19-2.03,16.6-2.03,16.6S44.36,94.64,46.24,87.75z M48.8,110.57
			c0.79,12.68-2.46,13.89-2.97,14.06c-0.06,0.04-0.09,0.03-0.06,0.02c0.01,0,0.03-0.01,0.06-0.02c0.4-0.22,2.4-2.05,1.47-13.42
			c-1.08-13.18,2.13-17.07,2.13-17.07C50.02,94.19,47.97,97.29,48.8,110.57z M55.28,99.05c-0.75,6.4,0.78,16.7,0.78,16.7
			s-2.66-8.42-1.95-15.53c0.71-7.1,2.81-11.37,2.81-11.37S56.02,92.65,55.28,99.05z M63.06,106.53c-0.28,0.16-1.37-2.36-1.66-2.74
			c-0.29-0.38,0.01,1.21,0.25,2.47c0.24,1.26,1.36,3.71,1.06,3.8c0,0-2.05-3.12-2.43-4.73s-0.34-3.92-0.11-5.75
			c0.23-1.83,0.04-3.32,0.2-3.56c0.16-0.24,1.15,4.13,1.54,5.62C62.31,103.13,63.34,106.37,63.06,106.53z M65.94,113.02
			c-0.04,0.04-0.06,0.04-0.03,0.03C65.91,113.04,65.93,113.03,65.94,113.02c0.24-0.25,1.31-2.05-2.09-10.3
			c-3.92-9.51-2.46-13.15-2.46-13.15c0.45-0.1-0.33,2.68,3.43,12.32C68.43,111.17,66.25,112.79,65.94,113.02z M67.67,102.57
			c-0.56-1.31-1.07-3.53-1.39-5.42c-0.32-1.89-0.76-3.19-0.74-3.51c0.02-0.33,1.5,3.26,2.03,4.44c0.53,1.19,1.77,3.66,1.68,3.98
			c-0.09,0.32-1.19-1.43-1.41-1.62c-0.22-0.19,0.29,1.14,0.7,2.2c0.41,1.06,1.5,2.72,1.38,2.98
			C69.91,105.63,68.23,103.88,67.67,102.57z M74.22,104.05c-0.25-0.83-1.21-2.13-1.21-2.13c1.23,7.15-0.54,9.38-0.48,9.09
			c0.93-5.03-0.91-10.03-1.74-11.94c-0.27-0.63,1.62,0.39,1.62,0.39c0.04-1.68-2.03-5.8-1.83-5.88c0.21-0.08,2.79,3.71,3.48,6.53
			C74.75,102.93,74.47,104.88,74.22,104.05z M76.18,90.49c-1.18-0.28-2.16-2.14-2.16-2.14c-0.07,0.23-0.71,0.23-0.71,0.23
			s0.44-0.23,0.47-1c0.03-0.77-1.08-2.08-1.72-3.16c-0.64-1.08-0.64-4.95-0.41-5.56c0.24-0.61-0.3-1.44-0.54-1.27
			c-0.24,0.17-0.24,0.8-0.24,0.8s-0.34-0.68-0.3-2.22c0.03-1.54,1.35-4.36,2.16-5.14c0.81-0.79,2.03-4.25,2.03-4.25
			c-0.27,0.31-1.25,0.2-1.25,0.2s1.05-0.6,1.18-1.48c0.14-0.88-0.34-2.31-0.07-3.36c0.27-1.05,1.22-2.03,1.22-2.03
			c-0.34,0.28-1.37,0-1.37,0s0.67,0,1.37-1.12c0.26-0.43,0.94-0.97,1.72-1.51c2.2-1.76,4.18-4.69,5.02-6.9
			c0.87-2.3,0.71-5.74,0.71-5.74c1.44,1.88,1.28,5.99,1.28,5.99l0,0c3.17-4.53,4.84-9.11,4.87-9.67c0.02,0.53,2.14,5.48,4.86,9.71
			l-0.02-0.04c0,0-0.16-4.1,1.28-5.99c0,0-0.16,3.45,0.71,5.74c0.83,2.21,2.82,5.14,5.02,6.9l-0.03-0.01
			c0.6,0.45,1.13,0.95,1.46,1.52c0.66,1.15,1.37,1.12,1.37,1.12s-1.04,0.28-1.37,0c0,0,0.95,0.97,1.22,2.03
			c0.27,1.05-0.2,2.48-0.07,3.36c0.14,0.88,1.18,1.48,1.18,1.48s-0.98,0.11-1.25-0.2c0,0,1.22,3.46,2.03,4.25
			c0.81,0.79,2.13,3.61,2.16,5.14c0.03,1.54-0.3,2.22-0.3,2.22s0-0.63-0.24-0.8c-0.24-0.17-0.78,0.67-0.54,1.27
			c0.24,0.61,0.24,4.48-0.41,5.56c-0.64,1.08-1.76,2.39-1.72,3.16c0.03,0.77,0.47,1,0.47,1s-0.64,0-0.71-0.23
			c0,0-0.98,1.85-2.16,2.14c-1.18,0.28-2.13,0.52-2.43,0.77c-0.03,0.02-0.06,0.06-0.09,0.08c-0.31-0.17-0.58-0.39-0.96-0.47
			c-0.49-0.1-0.59-0.08-0.84,0.17c-0.25,0.25-0.23-0.67-0.45-0.56c-0.21,0.12-0.66,0.31-1.42-0.12c-0.76-0.42-2.15-1-2.32-0.81
			c-0.18,0.19-0.21,0.37-0.31,0.13c-0.1-0.23-0.43-0.42-0.66-0.71c-0.23-0.29-0.47-0.77-0.57-1.17c-0.1-0.4,0.04-1.13,0.1-1.71
			c0.06-0.58,0.68-1.69,0.94-2.17c0.25-0.48,2.09-1.48,2.09-1.48c-0.04,0.21,0.14,0.56,0.14,0.56s-0.04-0.33,0.27-0.63
			c0.31-0.31,2.3-0.63,2.75-0.62c0.45,0.02,1.44-0.6,1.56-0.96s0.9-0.88,1.11-1.06c0.21-0.17,0.84-0.17,0.8,0.12
			c-0.04,0.29,0.29,0.77,0.29,0.77s-0.04-0.37,0.06-0.77c0.1-0.4,1-1.27,1.29-1.9s0.31-2.25,0.16-3.17s-0.78-2.69-1.17-3.23
			c-0.39-0.54-0.94-2.42-0.86-2.29c0.08,0.13,0.55,0.17,0.55,0.17s-0.25-0.23-0.37-0.52c-0.12-0.29,0.21-0.85,0-1.46
			c-0.21-0.62-0.92-1.36-1.42-1.73c-0.51-0.37-1.35-0.9-1.35-0.9c0.2,0.02,0.51-0.12,0.51-0.12c-0.29,0.02-1.33-0.86-1.7-1.08
			c-0.38-0.21-1.75-0.5-2.22-0.32c-0.47,0.18-1.29-0.06-1.41-0.18c-0.12-0.12,0.43-0.27,0.25-0.29c-0.18-0.02-1.09,0.19-1.41,0.37
			c-0.31,0.17-1.03,0.1-1.44,0s-1.92,0-1.92,0c0.21-0.1-0.63-0.17-0.63-0.17s-0.84,0.07-0.63,0.17c0,0-1.51-0.1-1.92,0
			s-1.13,0.17-1.44,0c-0.31-0.17-1.23-0.38-1.41-0.37c-0.18,0.02,0.37,0.17,0.25,0.29c-0.12,0.12-0.94,0.36-1.41,0.18
			c-0.47-0.18-1.84,0.11-2.22,0.32c-0.38,0.21-1.41,1.1-1.7,1.08c0,0,0.31,0.13,0.51,0.12c0,0-0.84,0.54-1.35,0.9
			c-0.51,0.37-1.21,1.11-1.42,1.73s0.12,1.17,0,1.46c-0.12,0.29-0.37,0.52-0.37,0.52s0.47-0.04,0.55-0.17
			c0.08-0.13-0.47,1.75-0.86,2.29c-0.39,0.54-1.01,2.31-1.17,3.23s-0.14,2.54,0.16,3.17s1.19,1.5,1.29,1.9
			c0.1,0.4,0.06,0.77,0.06,0.77s0.33-0.48,0.29-0.77c-0.04-0.29,0.59-0.29,0.8-0.12c0.21,0.17,1,0.69,1.11,1.06
			c0.12,0.37,1.11,0.98,1.56,0.96c0.45-0.02,2.44,0.31,2.75,0.62c0.31,0.31,0.27,0.63,0.27,0.63s0.18-0.35,0.14-0.56
			c0,0,1.83,1,2.09,1.48c0.25,0.48,0.88,1.6,0.94,2.17c0.06,0.58,0.2,1.31,0.1,1.71c-0.1,0.4-0.33,0.88-0.57,1.17
			s-0.57,0.48-0.66,0.71c-0.1,0.23-0.14,0.06-0.31-0.13c-0.18-0.19-1.56,0.38-2.32,0.81c-0.76,0.42-1.21,0.23-1.42,0.12
			c-0.21-0.12-0.2,0.81-0.45,0.56c-0.25-0.25-0.35-0.27-0.84-0.17c-0.43,0.08-0.71,0.34-1.07,0.52c-0.06-0.05-0.13-0.1-0.17-0.14
			C78.13,91,77.36,90.77,76.18,90.49z M109.75,101.9c-0.22,0.19-1.33,1.96-1.42,1.63s1.15-2.81,1.69-4.01s2.03-4.81,2.05-4.48
			c0.02,0.33-0.42,1.64-0.75,3.54c-0.32,1.9-0.85,4.14-1.4,5.46c-0.56,1.32-2.25,3.08-2.25,3.08c-0.12-0.26,0.98-1.94,1.39-3.01
			C109.46,103.05,109.98,101.71,109.75,101.9z M118.34,97.67c0.15,1.42,0.13,3.21-0.21,4.47c-0.34,1.26-2.04,3.73-2.04,3.73
			c-0.23-0.06,0.71-1.98,0.93-2.97c0.22-0.99,0.49-2.23,0.26-1.93c-0.24,0.3-1.16,2.29-1.38,2.16c-0.22-0.12,0.67-2.66,1.02-3.83
			c0.35-1.17,1.22-4.59,1.35-4.4S118.2,96.25,118.34,97.67z M123.01,99.05c-0.75-6.4-1.63-10.19-1.63-10.19s2.11,4.27,2.81,11.37
			s-1.95,15.53-1.95,15.53S123.76,105.45,123.01,99.05z M132.04,87.75c1.89,6.88,0.68,15.64,0.68,15.64s-0.22-10.41-2.03-16.6
			c-1.81-6.19-3.32-9.78-3.32-9.78S130.16,80.87,132.04,87.75z M130.23,78.38c0,0,2.84,2.78,3.54,9.88L130.23,78.38z M128.86,94.14
			c0,0,3.29,3.68,2.63,15.8c-0.58,10.46,1.45,12.2,1.86,12.42c0.02,0.01,0.04,0.01,0.06,0.02c0.03,0.01,0.01,0.02-0.06-0.02
			c-0.51-0.17-3.76-1.39-3.37-13.06C130.39,97.09,128.28,94.17,128.86,94.14z M107.5,102.04c-0.83,1.91-2.66,6.9-1.74,11.94
			c0.05,0.29-1.71-1.93-0.48-9.09c0,0-0.96,1.3-1.21,2.13s-0.53-1.12,0.16-3.94s3.27-6.62,3.48-6.53c0.21,0.08-1.86,4.2-1.83,5.88
			C105.88,102.43,107.78,101.41,107.5,102.04z M113.91,102.72c-3.4,8.25-2.33,10.05-2.09,10.3c0.01,0.01,0.03,0.02,0.03,0.03
			c0.02,0.02,0,0.01-0.03-0.03c-0.32-0.23-2.49-1.85,1.12-11.13c3.76-9.64,2.98-12.43,3.43-12.32
			C116.37,89.57,117.83,93.21,113.91,102.72z M83.01,67.84c-1.89,0.3-5.99,5.32-5.99,5.32s-0.35-1.23,0.32-2.66
			c0.68-1.42,4.06-4.39,5-4.51c0.93-0.12,4.83-0.51,7.05-0.51s6.12,0.39,7.05,0.51c0.93,0.12,4.32,3.09,5,4.51
			c0.68,1.42,0.32,2.66,0.32,2.66s-4.1-5.02-5.99-5.32c-1.89-0.3-4.11-0.22-4.41-0.17C91.05,67.7,90.12,69,89.4,69
			c-0.01,0-0.01,0-0.02-0.01C89.37,69,89.37,69,89.36,69c-0.72,0-1.65-1.3-1.95-1.34C87.12,67.62,84.9,67.54,83.01,67.84z
			 M85.21,75.3c0.09,0.32-1.15,2.11-3.44,2.11c-2.29,0-2.91-1.58-2.51-2.11c0.15-0.2,0.53,1.14,2.55,1.14S85.12,74.97,85.21,75.3z
			 M96.99,77.41c-2.29,0-3.52-1.79-3.44-2.11s1.37,1.14,3.39,1.14s2.4-1.34,2.55-1.14C99.9,75.83,99.28,77.41,96.99,77.41z
			 M86.21,96.81c0,0,0.14-0.54-0.07-0.85s-2.16-0.71-2.74-1.11s-2.43-1.34-2.88-1.45c-0.44-0.11-1.11-0.68-0.98-0.6
			c0.14,0.09,0.64,0,0.64,0c-0.53-0.53-1.03-0.92-1.38-1.21c0.58-0.18,1.17-0.33,1.74-0.24c0.62,0.1,0.94,0.13,1.56-0.12
			s2.71-0.5,3.75-0.5s3.41-0.04,3.41-0.04s2.38,0.04,3.41,0.04s3.12,0.25,3.75,0.5s0.94,0.21,1.56,0.12
			c0.54-0.08,1.09,0.05,1.64,0.21c-0.3,0.29-0.72,0.69-1.28,1.24c0,0,0.51,0.09,0.64,0c0.14-0.09-0.53,0.48-0.98,0.6
			c-0.44,0.11-2.3,1.05-2.88,1.45c-0.57,0.4-2.53,0.8-2.74,1.11c-0.2,0.31-0.07,0.85-0.07,0.85s-0.44-0.46-0.44-0.71
			c0-0.26-0.74-0.31-0.95-0.11c-0.2,0.2-0.71,0.34-1.11,0.26c-0.41-0.09-0.72-0.09-1.13,0c-0.41,0.09-0.91-0.06-1.11-0.26
			c-0.2-0.2-0.95-0.14-0.95,0.11C86.65,96.35,86.21,96.81,86.21,96.81z M136.44,110.85c0,0-0.02,4.99-0.49,10.58
			c-0.46,5.58-2.81,13.43-2.81,13.43s1.4-7.89,1.6-18.74c0.2-10.86-0.15-21.52-0.1-21.2c0.73,4.44,1.06,14.53,1.47,13.19
			c0.41-1.35,0.4-7.55,0.4-7.55s0.91,3.32,1.47,10.66s-0.97,12.74-0.97,12.74C137.85,117.26,136.44,110.85,136.44,110.85z
			 M138.85,88.89c-0.25,0.01-2.85-8.37-2.48-8.45c0,0,0.93,1.27,1.49,2.87C138.42,84.91,139.1,88.88,138.85,88.89z M138.71,102.3
			c-0.45,0.95-0.26,3.08-0.5,2.97c-0.24-0.11-0.03-7.38,0-7.03C138.37,99.86,139.17,101.36,138.71,102.3z M136.77,96.86
			c-0.11-0.04-3.17-13.94-2.78-14.02c0,0,1.5,3.49,1.93,5.69S136.88,96.9,136.77,96.86z M138.69,141.27c-0.05,0,0.08-4.13-0.76-7.76
			c-0.91-3.91-0.45-7.92-0.35-8.14c0.2-0.44,0.35,5.06,1.24,8.24C139.49,136.07,138.69,141.27,138.69,141.27z M135.45,68.85
			c0.54,0.44,4.35,5.83,5.31,8.69s2.05,10.39,2.05,10.39c-0.44-0.02-1.63-7.62-3.06-10.83C138.31,73.89,134.91,68.41,135.45,68.85z
			 M139.11,82.86c0.2-0.44,2.12,5.38,2.52,7.9c0.4,2.52,0.3,5.58,0.3,5.58C141.82,96.34,138.91,83.31,139.11,82.86z M141.23,104.09
			c-0.26-4.66-2.02-10.35-1.71-9.92C142.56,98.39,141.49,108.76,141.23,104.09z M140.55,135.02c-0.12,0.2-0.91-1.84-1.07-2.91
			s-0.01-5.41,0-4.96C139.57,130.98,140.67,134.82,140.55,135.02z M141.62,137.27c-0.07-0.72-0.65-5.72-1.07-9.35
			s0.32-8.64,0.68-8.54c0,0,0.36,5.57,0.39,7.62C141.66,129.04,141.69,137.98,141.62,137.27z M141.93,119.38
			c-0.48-0.09,0.09-2.76-0.31-5.1c-0.4-2.34-1.16-7.16-1.06-6.88C142.67,113.11,142.41,119.47,141.93,119.38z M143.63,130.62
			c-0.41,1.07-0.41,3.17-0.51,3.12c-0.1-0.05-0.36-2.61,0-4.24c0.36-1.64,0.12-6.25,0.26-6.03
			C143.94,124.39,144.04,129.55,143.63,130.62z M145.01,128.17c-0.16-0.1,0.05-2.38-0.44-6.43c-0.49-4.04-2.2-11.35-1.99-11.51
			c0.21-0.16,1.61,6.63,1.87,6.58c0.26-0.05,0.05-1.35,0-4.77s-1.09-9.74-0.83-9.74c0,0,1.87,5.86,2.07,11.56
			C145.89,119.56,145.17,128.27,145.01,128.17z M149.97,119.3c0.14-7.47-2.16-14.38-2.16-14.38s0.56,5.52,0.7,11.73
			c0.14,6.21-1.54,15.15-1.54,15.15s0.63-8.87-0.42-20.88c-1.05-12.01-2.68-23.73-2.58-23.39c1.33,4.82,2.86,15.92,3.16,14.38
			c0.3-1.54-0.44-8.38-0.44-8.38s1.4,3.56,2.86,11.59C151.02,113.15,149.97,119.3,149.97,119.3z M151.7,107.11
			c-0.2,0-1.53-8.34-4.55-17.92s-7.65-17.13-7.25-17.33c0,0,4.84,4.49,7.65,14.07C150.36,95.5,151.9,107.11,151.7,107.11z
			 M153.6,98.68c0.05-0.97-0.77-4.45-2.25-7.36c-1.48-2.91-3.27-9.36-3.17-9.05c0.36,1.12,2.66,5.98,4.34,9.56
			C154.21,95.41,153.55,99.65,153.6,98.68z M157.42,92.67c-0.4-2.89-5.92-13.33-6.22-13.13c-0.3,0.2,2.79,5.62,3.88,10.45
			s1.34,11.94,1.04,8.83s-2.59-11.62-4.5-15.1c-1.91-3.48-4.21-9.9-7.14-14.14c-2.93-4.23-9.16-9.94-9.46-9.6
			c-0.29,0.35,4.32,4.53,6.45,7.66s6.83,13.18,6.83,13.18s0,0-1.64-2.86c-1.5-2.62-5.15-10.01-11.74-14.24
			c1.97,2.39,3.55,5.24,4.14,7.43c0,0-4.97-5.72-6.1-6.66c-1.04-0.86-2.11-1.4-3.2-2.21c1.08,1.24,2.04,2.41,2.68,3.4
			c2.38,3.62,5.94,11.47,5.94,11.47s-3.11-4.74-6.66-9.45c-2.61-3.47-5.71-5.76-7.17-6.74c-0.11,0-0.21-0.01-0.32-0.01
			c1.07,1.08,3.6,3.73,5.75,6.62c3.92,5.27,7.56,11.46,7.51,11.63c-0.08,0.29-3.2-4.22-6.17-7.24c-2.97-3.02-8.55-8.16-8.67-7.92
			c-0.11,0.24,4.18,5.63,6.6,7.43c4.56,3.39,6.39,8.12,6.39,8.12s-2.08-3.49-4.35-5.54c-2.28-2.05-3.79-3.25-4.97-4.54
			c-1.17-1.28-3.18-3.85-3.36-3.7c-0.19,0.15,2.72,4.1,4.35,5.52c1.62,1.42,4.52,4.22,6.13,8.19c0,0-4.7-6.19-5.91-7.1
			c-1.22-0.9-5.87-7.43-6.07-7.16c-0.2,0.27,5.04,6.87,6.02,8.34s2.57,5.06,1.98,4.27c-0.59-0.79-3.25-4.71-4.57-6.52
			c-1.32-1.81-4.89-6.34-4.79-5.78c0.11,0.57,3.99,6.79,5.43,9.85c1.44,3.06,2.38,6.4,1.59,4.69c-0.78-1.71-4.4-8.41-5.67-10.69
			c-1.27-2.27-3.15-5.21-3.08-4.65c0.06,0.56,10.6,18.02,10.19,27.58c0,0-1.9-7.63-4.2-13.43c-2.27-5.7-4.95-9.58-4.9-9.44
			c8.7,24.78,6.69,33.73,6.69,33.73s-0.33-15.74-8.75-35.75c-0.08-0.2,3.54,12.57,3.12,11.84c-0.43-0.73-3.4-8.64-3.91-10.82
			c-0.52-2.19-0.92-5-1.16-5.11c-0.24-0.11,0.21,5.21,1.04,8.8c0.82,3.58,5.44,13.8,4.9,13.19c-2.25-2.56-5.19-11.39-6-14.38
			c-0.81-2.98-1.5-8.81-1.8-8.8c-0.3,0.01,0.3,5.9,1.2,9.58c0.44,1.8,3.61,10.26,5.38,18.73c1.85,8.82,0.63,18.84,0.45,18.58
			c-0.17-0.24-0.09-9.79-2.14-18.58c-2.06-8.86-3.93-11.4-4.15-11c-0.09,0.17,0.75,4.22,0.83,6.74c0.11,3.3-1.22,7.05-1.22,7.05
			c0.07-1.11,0.74-4.53,0.42-7.12c-0.26-2.09-1.06-4.46-1.14-4.42c-0.08,0.05,0.34,3.16,0.28,5.7c-0.07,2.95-0.63,5.36-0.76,4.91
			c-0.12-0.4,0.19-3.72-0.03-6.33c-0.25-2.91-1.04-5.1-1.21-5.14c-0.33-0.08,0.48,11.67-2.63,14.35c0,0,2.63-7.58-0.19-11.53
			c-0.12-0.17,3.75-6.47,0-13.5c-4.41-8.27-1.97-10.2-3.09-11.85c-1.28-0.71-2.46-1.62-3.51-2.8c-3.82-4.15-4.79-7.2-4.63-10.07
			c0.31-5.67,5.63-9.21,5.63-9.21c-8.78,2.64-9.51,9.52-9.51,9.52c-1.49-2.32-4.1-9.51-4.13-9.58c0,0,0,0,0-0.01c0,0,0,0,0,0
			c0,0,0,0,0,0c0,0,0,0,0,0.01c-0.01,0.03-0.47,1.3-1.12,2.94h-0.02c-0.79,1.8-1.87,3.77-3.17,5.8c-0.5-1.91-2.42-6.6-9.34-8.68
			c0,0,5.31,3.54,5.63,9.21c0.14,2.47-0.57,5.08-3.21,8.42c-1.59,1.72-3.23,3.3-4.85,4.65c-0.08,0.09-0.14,0.18-0.22,0.28
			c-1.44,1.7,1.36,3.46-3.21,12.03c-3.75,7.03,0.12,13.33,0,13.5c-2.82,3.96-0.19,11.53-0.19,11.53c-3.11-2.68-2.3-14.43-2.63-14.35
			c-0.17,0.04-0.96,2.24-1.21,5.14c-0.23,2.61,0.08,5.93-0.03,6.33c-0.13,0.45-0.69-1.96-0.76-4.91c-0.06-2.54,0.36-5.65,0.28-5.7
			c-0.08-0.05-0.88,2.33-1.14,4.42c-0.32,2.58,0.34,6.01,0.42,7.12c0,0-1.32-3.75-1.22-7.05c0.08-2.52,0.93-6.57,0.83-6.74
			c-0.22-0.4-2.09,2.14-4.15,11c-2.05,8.79-1.97,18.34-2.14,18.58c-0.19,0.26-1.4-9.76,0.45-18.58c1.78-8.47,4.94-16.93,5.38-18.73
			c0.9-3.68,1.5-9.57,1.2-9.58c-0.3-0.01-1,5.81-1.8,8.8c-0.81,2.98-3.75,11.82-6,14.38c-0.54,0.61,4.08-9.61,4.9-13.19
			s1.28-8.91,1.04-8.8c-0.24,0.11-0.64,2.92-1.16,5.11c-0.52,2.19-3.48,10.1-3.91,10.82c-0.43,0.73,3.2-12.04,3.12-11.84
			c-8.43,20.01-8.75,35.75-8.75,35.75s-2.01-8.94,6.69-33.73c0.05-0.14-2.63,3.73-4.9,9.44c-2.31,5.8-4.2,13.43-4.2,13.43
			C49.6,83.49,60.14,66.03,60.2,65.47c0.06-0.56-1.81,2.38-3.09,4.65c-1.27,2.27-4.89,8.98-5.67,10.69
			c-0.78,1.71,0.15-1.63,1.59-4.69c1.44-3.06,5.32-9.28,5.43-9.85c0.11-0.57-3.46,3.97-4.79,5.78c-1.32,1.81-3.98,5.73-4.57,6.52
			c-0.59,0.79,1-2.79,1.98-4.27s6.22-8.07,6.02-8.34c-0.2-0.27-4.86,6.25-6.07,7.16s-5.91,7.1-5.91,7.1
			c1.61-3.96,4.5-6.77,6.13-8.19c1.62-1.42,4.53-5.37,4.35-5.52c-0.19-0.15-2.19,2.42-3.36,3.7c-1.17,1.28-2.69,2.49-4.97,4.54
			s-4.35,5.54-4.35,5.54s1.84-4.73,6.39-8.12c2.42-1.8,6.71-7.19,6.6-7.43c-0.11-0.24-5.69,4.9-8.67,7.92
			c-2.97,3.02-6.1,7.52-6.17,7.24c-0.04-0.17,3.6-6.37,7.51-11.63c2.81-3.77,6.27-7.14,6.27-7.14s-4.46,2.55-8.01,7.27
			c-3.55,4.71-6.66,9.45-6.66,9.45s3.57-7.85,5.94-11.47c0.95-1.44,2.54-3.3,4.27-5.15c-1.84,1.27-3.84,2.29-5.08,3.31
			c-1.13,0.93-6.1,6.66-6.1,6.66c0.69-2.58,2.98-5.64,5.57-7.98c-7.16,4.11-11.07,12.05-12.64,14.78c-1.64,2.86-1.64,2.86-1.64,2.86
			s4.7-10.05,6.83-13.18c2.13-3.13,6.75-7.31,6.45-7.66s-6.53,5.36-9.46,9.6c-2.93,4.23-5.22,10.65-7.14,14.14
			c-1.91,3.48-4.2,11.99-4.5,15.1s-0.05-4.01,1.04-8.83s4.18-10.25,3.88-10.45c-0.3-0.2-5.82,10.25-6.22,13.13
			c-0.4,2.89-0.25-2.79,1.84-7.26c2.09-4.48,7.03-11.14,6.87-11.49c-0.15-0.35-6.82,9.25-7.02,9.2c-0.18-0.04,6.77-10.63,8.13-13.05
			c-0.33,0.89-0.31,1.17,0.12,0.3c1.23-2.53,6.24-8.44,10.44-11.23c4.2-2.79,8.13-6.49,7.94-6.69c0,0-8.7,5.58-13.1,9.48
			c-2.64,2.34-4.45,5.82-5.21,7.68c-0.53,0.3-6.49,8.58-6.8,8.36c-0.32-0.22,2.62-5.35,3.86-7.11c1.24-1.77,3.58-3.76,3.38-3.96
			c-0.2-0.2-6.28,6.17-7.25,7.56c-0.96,1.39,0.88-2.58,1.37-3.61c0.5-1.02-1.84,1.02-2.14,1c-0.3-0.03,3.78-6.1,4.98-7.39
			c1.19-1.29,2.77-3.43,2.33-3.18c-0.44,0.25-2.78,2.59-2.93,2.39c-0.15-0.2,5.95-6.92,5.93-7.21c-0.01-0.3-4.59,2.72-7.57,5.45
			s-5.2,5.84-5.2,5.84s2.83-4.68,5.98-8.36c3.15-3.68,12.07-11.29,11.84-11.44c-0.23-0.15-7.15,5.12-7.3,4.93
			c-0.15-0.2,8.81-11.65,8.71-11.89c-0.1-0.25-7.36,7.02-7.61,6.92s1.96-4.68,4.34-6.92c2.32-2.18,6.14-5.12,6.1-5.35
			c-0.16,0.03-0.31,0.06-0.43,0.08c-1.21,0.39-4.58,1.79-4.79,1.61c-0.04-0.04,0.15-0.19,0.49-0.42c-0.32,0.07-0.53,0.1-0.54,0.02
			c-0.03-0.24,3.07-1.66,4.98-2.61c0.48-0.26,0.93-0.51,1.33-0.73c0.08-0.06,0.14-0.11,0.14-0.13c-0.05-0.3-4.19,0.65-4.28,0.45
			c-0.09-0.2,6.02-2.51,5.98-2.77c-0.05-0.25-3.62,0.15-3.72,0s3.01-2.21,2.96-2.36c-0.05-0.15-2.59,0.2-2.68,0
			c-0.09-0.2,1.36-2.66,1.51-4.78c0.14-2.11-0.66-4.58-0.8-4.52s-0.33,2.36-0.52,2.41c-0.19,0.05-1.65-5.88-4.33-7.74
			c0,0,1.08,2.92,0.89,3.27c-0.19,0.35-1.55-2.71-3.34-4.22s-4.38-2.61-4.47-2.31c-0.09,0.3,2.92,3.32,2.64,3.57
			c-0.28,0.25-3.72-3.32-3.95-3.07c-0.24,0.25,1.51,2.36,1.27,2.51s-2.64-2.01-2.87-1.86c-0.24,0.15,1.69,3.92,1.46,4.02
			c-0.24,0.1-4.14-3.47-4.33-3.27c-0.19,0.2,1.41,5.23,2.02,6.84c0.61,1.61,1.32,2.97,1.08,2.92c-0.24-0.05-2.76-4.22-3.12-5.33
			c-0.36-1.11,0.06,2.56,1.14,5.43c1.08,2.87,1.65,3.97,1.22,3.77c-0.42-0.2-2.96-4.07-3.2-5.03s-0.38,2.51,1.08,5.33
			c1.46,2.82,3.06,4.37,2.82,4.47c-0.24,0.1-3.44-4.07-3.62-3.72c-0.19,0.35,1.13,3.32,2.78,5.28c1.65,1.96,4.14,3.22,4.05,3.47
			c-0.09,0.25-4.8-2.61-5.46-3.52c-0.66-0.9,0.61,1.91,2.64,4.52s4.05,4.22,3.91,4.42s-5.04-2.77-5.98-4.22
			c-0.94-1.46,1.84,1.51,2.16,1.21c0.33-0.3-4.33-4.63-5.79-6.49c-1.46-1.86-1.98-2.87-1.65-2.61c0.33,0.25,2.54,2.16,2.87,2.21
			s-4.61-6.44-5.04-10.51c0,0,1.84,3.07,2.21,2.82c0.38-0.25-0.56-4.27-0.99-5.28S19.81,15,19.95,14.7s1.84,0.45,2.16,0.25
			c0.33-0.2-1.55-1.66-1.55-1.66s2.73-0.5,2.73-0.65s-2.12-0.4-2.31-0.55c-0.19-0.15,3.67-1.46,3.67-1.71c0-0.25-1.51-0.6-1.55-0.8
			c-0.05-0.2,2.16,0.45,2.16,0c0-0.45,1.36-0.6,1.79-0.6c0.42,0-3.53-1.51-3.39-1.86s3.44,0.4,4.19,0c0.75-0.4-0.94-1.11-0.56-1.16
			c0.38-0.05,3.58,0.6,3.81,0.3s-2.4-1.16-2.26-1.36s3.09-0.05,4.28,0.15c1.18,0.2,3.4,1.46,3.63,1.21c0.24-0.25-1.6-1.15-1.32-1.45
			s3.53,1.85,3.95,1.75c0.42-0.1-1.13-1.66-0.8-1.56c0.33,0.1,4.33,2.16,5.79,3.47s2.59,3.27,2.82,3.07s-0.33-1.66,0-1.66
			s2.73,4.17,2.96,4.27c0.24,0.1-0.24-1.41,0-1.41c0.24,0,1.65,3.57,1.88,3.57c0.24,0,0.14-1.36,0.33-1.21s0.19,1.31,0.8,2.06
			c0.61,0.75,3.01,2.71,2.31,2.77c-0.71,0.05-4.89,0.9-5.65,1.61c-0.75,0.7,2.82-0.15,3.15-0.1c0.33,0.05-2.12,0.69-3.34,1.78
			c-1.22,1.09-2.21,4.41-2.35,6.27c-0.08,1.02-0.13,2.08-0.31,3.01c0.25-0.21,0.52-0.52,0.82-1.03c3.05-5.2,7.81-7.59,9.86-8.44
			c0.45-0.18,0.89-0.34,1.31-0.49c0.08-0.11,0.16-0.21,0.24-0.3c-2.13,0.45-5.1,1.2-6.74,2.18c-2.75,1.64,2.13-1.74,6.01-3.28
			c2.1-0.84,4-1.68,5.74-2.37c0.81-0.46,1.76-0.89,2.95-1.27c2.74-0.86,5.53-0.98,7.71-0.93c0-0.21-1.65-1.63-4.92-2.43
			c-0.25-0.06,3.44-0.5,8.49,1.69c-0.86-0.82-2.54-1.93-2.54-1.93c4.75-0.42,11.47,2.8,11.8,2.89c0.33,0.09-1.72-1.4-1.85-1.9
			c-0.1-0.39,4.49,1.45,10.09-0.43c3.26-1.1,0.8,0.9,1.13,1.6c0.13,0.28,1.25-0.45,2.51-0.85c1.38-0.44,2.88-0.56,2.34-0.17
			c-1.1,0.8-1.7,2.49-0.96,2.36c3.43-0.61,8.73-2.52,6.05-1.02c-3.71,2.08,2.41,1.84,2.41,1.84c1.1-0.51,6.62-0.85,7.55-0.59
			s-3.9,1.02-2.55,0.85c1.36-0.17,4.16,0.85,3.39,0.76c-0.76-0.08-2.72,0.68-2.72,0.68s2.8,0.42,4.5,0.68
			c1.7,0.25,5.1,1.03,3.91,1.2c-0.5,0.07-1.63,0.46-2.92,0.99c0.19,0.07,0.37,0.14,0.56,0.22c1.92,0.79,6.22,2.94,9.26,7.47
			c-0.16-1.73-0.44-3.78-1.23-4.9c-1.12-1.58-2.66-2.39-4.96-2.86c-0.33-0.07,4.99-0.49,4.24-1.2c-0.75-0.7-4.94-1.56-5.65-1.61
			c-0.71-0.05,1.69-2.01,2.31-2.77c0.61-0.75,0.61-1.91,0.8-2.06s0.09,1.21,0.33,1.21s1.65-3.57,1.88-3.57s-0.24,1.51,0,1.41
			c0.24-0.1,2.64-4.27,2.96-4.27s-0.24,1.46,0,1.66s1.36-1.76,2.82-3.07c1.46-1.31,5.46-3.37,5.79-3.47c0.33-0.1-1.22,1.46-0.8,1.56
			c0.42,0.1,3.67-2.06,3.95-1.75s-1.55,1.2-1.32,1.45c0.24,0.25,2.45-1.01,3.63-1.21s4.13-0.35,4.28-0.15
			c0.14,0.2-2.49,1.06-2.26,1.36s3.44-0.35,3.81-0.3c0.38,0.05-1.32,0.75-0.56,1.16c0.75,0.4,4.05-0.35,4.19,0s-3.81,1.86-3.39,1.86
			c0.42,0,1.79,0.15,1.79,0.6c0,0.45,2.21-0.2,2.16,0c-0.05,0.2-1.55,0.55-1.55,0.8c0,0.25,3.86,1.56,3.67,1.71
			c-0.19,0.15-2.31,0.4-2.31,0.55s2.73,0.65,2.73,0.65s-1.88,1.46-1.55,1.66s2.02-0.55,2.16-0.25c0.14,0.3-0.8,3.07-1.22,4.07
			s-1.36,5.03-0.99,5.28c0.38,0.25,2.21-2.82,2.21-2.82c-0.42,4.07-5.36,10.56-5.04,10.51c0.33-0.05,2.54-1.96,2.87-2.21
			c0.33-0.25-0.19,0.75-1.65,2.61c-1.46,1.86-6.12,6.18-5.79,6.49c0.33,0.3,3.11-2.66,2.16-1.21c-0.94,1.46-5.84,4.42-5.98,4.22
			s1.88-1.81,3.91-4.42s3.29-5.43,2.64-4.52c-0.66,0.9-5.36,3.77-5.46,3.52c-0.09-0.25,2.4-1.51,4.05-3.47
			c1.65-1.96,2.96-4.93,2.78-5.28s-3.39,3.82-3.62,3.72c-0.24-0.1,1.36-1.66,2.82-4.47c1.46-2.82,1.32-6.28,1.08-5.33
			c-0.24,0.96-2.78,4.83-3.2,5.03c-0.42,0.2,0.14-0.9,1.22-3.77c1.08-2.87,1.51-6.54,1.14-5.43c-0.36,1.11-2.89,5.28-3.12,5.33
			s0.47-1.31,1.08-2.92c0.61-1.61,2.21-6.64,2.02-6.84c-0.19-0.2-4.09,3.37-4.33,3.27c-0.24-0.1,1.69-3.87,1.46-4.02
			c-0.24-0.15-2.64,2.01-2.87,1.86s1.51-2.26,1.27-2.51c-0.24-0.25-3.67,3.32-3.95,3.07c-0.28-0.25,2.73-3.27,2.64-3.57
			c-0.09-0.3-2.68,0.8-4.47,2.31s-3.15,4.58-3.34,4.22s0.89-3.27,0.89-3.27c-2.68,1.86-4.14,7.79-4.33,7.74s-0.38-2.36-0.52-2.41
			s-0.94,2.41-0.8,4.52c0.14,2.11,1.6,4.58,1.51,4.78c-0.09,0.2-2.64-0.15-2.68,0c-0.05,0.15,3.06,2.21,2.96,2.36s-3.67-0.25-3.72,0
			c-0.05,0.25,6.07,2.56,5.98,2.77c-0.08,0.17-3.01-0.48-3.97-0.51c1.32,0.7,3.49,1.9,4.99,2.8c0.65,0.34,1.1,0.6,1.14,0.71
			c0.34,0.22,0.53,0.38,0.49,0.42c-0.18,0.16-2.72-0.87-4.19-1.4c-0.43-0.13-0.73-0.2-0.75-0.15c0,0-0.08-0.01-0.21-0.03
			c0.51,0.6,3.91,3.24,6.04,5.24c2.38,2.24,4.59,6.82,4.34,6.92c-0.25,0.1-7.51-7.16-7.61-6.92c-0.1,0.25,8.86,11.69,8.71,11.89
			c-0.15,0.2-7.06-5.07-7.3-4.93c-0.23,0.15,8.69,7.76,11.84,11.44c3.15,3.68,5.98,8.36,5.98,8.36s-2.21-3.11-5.2-5.84
			c-2.99-2.74-7.56-5.75-7.57-5.45c-0.01,0.3,6.08,7.01,5.93,7.21c-0.15,0.2-2.49-2.14-2.93-2.39c-0.44-0.25,1.13,1.89,2.33,3.18
			c1.19,1.29,5.27,7.36,4.98,7.39c-0.3,0.03-2.64-2.02-2.14-1c0.5,1.02,2.34,5,1.37,3.61s-7.05-7.76-7.25-7.56
			c-0.2,0.2,2.14,2.19,3.38,3.96c1.24,1.77,4.18,6.89,3.86,7.11s-6.65-8.58-6.85-8.39c-0.2,0.19,8.56,13.49,8.36,13.54
			c-0.2,0.05-6.87-9.55-7.02-9.2c-0.15,0.35,4.78,7.01,6.87,11.49C157.67,89.89,157.81,95.56,157.42,92.67z"/>
		<path d="M156.04,112.01c-0.24,0,0.44,6.16,0.16,9.9c-0.28,3.74-1.42,5.89-1.2,5.99s2.05-3.33,2.21-7.54
			C157.37,116.15,156.36,112.01,156.04,112.01z"/>
		<path d="M153.61,130.41c0.72,0,0-9.16-0.57-9.39C152.72,120.88,152.89,130.41,153.61,130.41z"/>
		<path d="M22.7,111.21c-0.32,0-1.32,4.14-1.17,8.35c0.16,4.21,1.99,7.64,2.21,7.54s-0.91-2.26-1.2-5.99
			C22.26,117.37,22.94,111.21,22.7,111.21z"/>
		<path d="M24.71,131.98c0.72,0,0.89-9.53,0.57-9.39C24.71,122.83,23.99,131.98,24.71,131.98z"/>
		<path class="st0" d="M78.59,91.4c0.36-0.18,0.65-0.44,1.07-0.52c0.49-0.1,0.59-0.08,0.84,0.17c0.25,0.25,0.23-0.67,0.45-0.56
			c0.21,0.12,0.66,0.31,1.42-0.12c0.76-0.42,2.15-1,2.32-0.81c0.18,0.19,0.21,0.37,0.31,0.13c0.1-0.23,0.43-0.42,0.66-0.71
			s0.47-0.77,0.57-1.17c0.1-0.4-0.04-1.13-0.1-1.71c-0.06-0.58-0.68-1.69-0.94-2.17c-0.25-0.48-2.09-1.48-2.09-1.48
			c0.04,0.21-0.14,0.56-0.14,0.56s0.04-0.33-0.27-0.63c-0.31-0.31-2.3-0.63-2.75-0.62c-0.45,0.02-1.44-0.6-1.56-0.96
			c-0.12-0.37-0.9-0.88-1.11-1.06c-0.21-0.17-0.84-0.17-0.8,0.12c0.04,0.29-0.29,0.77-0.29,0.77s0.04-0.37-0.06-0.77
			c-0.1-0.4-1-1.27-1.29-1.9s-0.31-2.25-0.16-3.17s0.78-2.69,1.17-3.23c0.39-0.54,0.94-2.42,0.86-2.29
			c-0.08,0.13-0.55,0.17-0.55,0.17s0.25-0.23,0.37-0.52c0.12-0.29-0.21-0.85,0-1.46s0.92-1.36,1.42-1.73
			c0.51-0.37,1.35-0.9,1.35-0.9c-0.2,0.02-0.51-0.12-0.51-0.12c0.29,0.02,1.33-0.86,1.7-1.08c0.38-0.21,1.75-0.5,2.22-0.32
			c0.47,0.18,1.29-0.06,1.41-0.18c0.12-0.12-0.43-0.27-0.25-0.29c0.18-0.02,1.09,0.19,1.41,0.37c0.31,0.17,1.03,0.1,1.44,0
			s1.92,0,1.92,0c-0.21-0.1,0.63-0.17,0.63-0.17s0.84,0.07,0.63,0.17c0,0,1.51-0.1,1.92,0s1.13,0.17,1.44,0
			c0.31-0.17,1.23-0.38,1.41-0.37c0.18,0.02-0.37,0.17-0.25,0.29c0.12,0.12,0.94,0.36,1.41,0.18c0.47-0.18,1.84,0.11,2.22,0.32
			c0.38,0.21,1.41,1.1,1.7,1.08c0,0-0.31,0.13-0.51,0.12c0,0,0.84,0.54,1.35,0.9c0.51,0.37,1.21,1.11,1.42,1.73
			c0.21,0.62-0.12,1.17,0,1.46c0.12,0.29,0.37,0.52,0.37,0.52s-0.47-0.04-0.55-0.17c-0.08-0.13,0.47,1.75,0.86,2.29
			c0.39,0.54,1.01,2.31,1.17,3.23s0.14,2.54-0.16,3.17s-1.19,1.5-1.29,1.9c-0.1,0.4-0.06,0.77-0.06,0.77s-0.33-0.48-0.29-0.77
			c0.04-0.29-0.59-0.29-0.8-0.12c-0.21,0.17-1,0.69-1.11,1.06s-1.11,0.98-1.56,0.96c-0.45-0.02-2.44,0.31-2.75,0.62
			c-0.31,0.31-0.27,0.63-0.27,0.63s-0.18-0.35-0.14-0.56c0,0-1.83,1-2.09,1.48c-0.25,0.48-0.88,1.6-0.94,2.17
			c-0.06,0.58-0.2,1.31-0.1,1.71c0.1,0.4,0.33,0.88,0.57,1.17c0.23,0.29,0.57,0.48,0.66,0.71c0.1,0.23,0.14,0.06,0.31-0.13
			c0.18-0.19,1.56,0.38,2.32,0.81c0.76,0.42,1.21,0.23,1.42,0.12c0.21-0.12,0.2,0.81,0.45,0.56c0.25-0.25,0.35-0.27,0.84-0.17
			c0.38,0.08,0.65,0.29,0.96,0.47c0.03-0.03,0.07-0.06,0.09-0.08c0.29-0.26,1.24-0.49,2.43-0.77c1.18-0.28,2.16-2.14,2.16-2.14
			c0.07,0.23,0.71,0.23,0.71,0.23s-0.44-0.23-0.47-1c-0.03-0.77,1.08-2.08,1.72-3.16c0.64-1.08,0.64-4.95,0.41-5.56
			c-0.24-0.61,0.3-1.44,0.54-1.27c0.24,0.17,0.24,0.8,0.24,0.8s0.34-0.68,0.3-2.22c-0.03-1.54-1.35-4.36-2.16-5.14
			c-0.81-0.79-2.03-4.25-2.03-4.25c0.27,0.31,1.25,0.2,1.25,0.2s-1.05-0.6-1.18-1.48c-0.14-0.88,0.34-2.31,0.07-3.36
			c-0.27-1.05-1.22-2.03-1.22-2.03c0.34,0.28,1.37,0,1.37,0s-0.71,0.02-1.37-1.12c-0.33-0.57-0.86-1.07-1.46-1.52l0.03,0.01
			c-2.2-1.76-4.18-4.69-5.02-6.9c-0.87-2.3-0.71-5.74-0.71-5.74c-1.44,1.88-1.28,5.99-1.28,5.99l0.02,0.04
			c-2.72-4.24-4.84-9.18-4.86-9.71c-0.03,0.56-1.7,5.14-4.87,9.67l0,0c0,0,0.16-4.1-1.28-5.99c0,0,0.16,3.45-0.71,5.74
			c-0.83,2.21-2.82,5.14-5.02,6.9c-0.78,0.55-1.46,1.09-1.72,1.51c-0.7,1.12-1.37,1.12-1.37,1.12s1.04,0.28,1.37,0
			c0,0-0.95,0.97-1.22,2.03c-0.27,1.05,0.2,2.48,0.07,3.36c-0.14,0.88-1.18,1.48-1.18,1.48s0.98,0.11,1.25-0.2
			c0,0-1.22,3.46-2.03,4.25c-0.81,0.79-2.13,3.61-2.16,5.14c-0.03,1.54,0.3,2.22,0.3,2.22s0-0.63,0.24-0.8
			c0.24-0.17,0.78,0.67,0.54,1.27c-0.24,0.61-0.24,4.48,0.41,5.56c0.64,1.08,1.76,2.39,1.72,3.16c-0.03,0.77-0.47,1-0.47,1
			s0.64,0,0.71-0.23c0,0,0.98,1.85,2.16,2.14c1.18,0.28,1.95,0.52,2.24,0.77C78.46,91.3,78.53,91.35,78.59,91.4z"/>
		<path class="st0" d="M86.65,96.1c0-0.26,0.74-0.31,0.95-0.11c0.2,0.2,0.71,0.34,1.11,0.26c0.41-0.09,0.72-0.09,1.13,0
			c0.41,0.09,0.91-0.06,1.11-0.26c0.2-0.2,0.95-0.14,0.95,0.11c0,0.26,0.44,0.71,0.44,0.71s-0.14-0.54,0.07-0.85
			c0.2-0.31,2.16-0.71,2.74-1.11c0.57-0.4,2.43-1.34,2.88-1.45c0.44-0.11,1.11-0.68,0.98-0.6c-0.14,0.09-0.64,0-0.64,0
			c0.55-0.55,0.97-0.95,1.28-1.24c-0.54-0.16-1.1-0.3-1.64-0.21c-0.62,0.1-0.94,0.13-1.56-0.12s-2.71-0.5-3.75-0.5
			s-3.41-0.04-3.41-0.04s-2.38,0.04-3.41,0.04s-3.12,0.25-3.75,0.5s-0.94,0.21-1.56,0.12c-0.57-0.09-1.16,0.07-1.74,0.24
			c0.36,0.28,0.85,0.68,1.38,1.21c0,0-0.51,0.09-0.64,0c-0.14-0.09,0.53,0.48,0.98,0.6c0.44,0.11,2.3,1.05,2.88,1.45
			s2.53,0.8,2.74,1.11s0.07,0.85,0.07,0.85S86.65,96.35,86.65,96.1z"/>
		<path class="st1" d="M76.51,48.55c-0.07-0.01-0.17-0.02-0.29-0.03C76.32,48.53,76.42,48.54,76.51,48.55z"/>
		<path class="st1" d="M76.65,48.56c0,0-0.02,0-0.04,0C76.62,48.56,76.64,48.56,76.65,48.56z"/>
		<path class="st1" d="M102.34,48.56c-0.01,0-0.04,0-0.04,0C102.31,48.56,102.33,48.56,102.34,48.56z"/>
		<path class="st1" d="M148.7,73.92c0.15-0.35,6.82,9.25,7.02,9.2c0.2-0.05-8.56-13.35-8.36-13.54c0.2-0.19,6.53,8.61,6.85,8.39
			s-2.62-5.35-3.86-7.11c-1.24-1.77-3.58-3.76-3.38-3.96c0.2-0.2,6.28,6.17,7.25,7.56s-0.88-2.58-1.37-3.61
			c-0.5-1.02,1.84,1.02,2.14,1c0.3-0.03-3.78-6.1-4.98-7.39c-1.19-1.29-2.77-3.43-2.33-3.18c0.44,0.25,2.78,2.59,2.93,2.39
			c0.15-0.2-5.95-6.92-5.93-7.21c0.01-0.3,4.59,2.72,7.57,5.45c2.99,2.74,5.2,5.84,5.2,5.84s-2.83-4.68-5.98-8.36
			c-3.15-3.68-12.07-11.29-11.84-11.44c0.23-0.15,7.15,5.12,7.3,4.93c0.15-0.2-8.81-11.65-8.71-11.89c0.1-0.25,7.36,7.02,7.61,6.92
			c0.25-0.1-1.96-4.68-4.34-6.92c-2.13-2.01-5.53-4.65-6.04-5.24c0.13,0.02,0.21,0.03,0.21,0.03c0.02-0.05,0.32,0.02,0.75,0.15
			c1.47,0.54,4.01,1.56,4.19,1.4c0.04-0.04-0.15-0.19-0.49-0.42c-0.03-0.11-0.48-0.37-1.14-0.71c-1.5-0.89-3.67-2.09-4.99-2.8
			c0.96,0.03,3.89,0.68,3.97,0.51c0.09-0.2-6.02-2.51-5.98-2.77c0.05-0.25,3.62,0.15,3.72,0s-3.01-2.21-2.96-2.36
			c0.05-0.15,2.59,0.2,2.68,0c0.09-0.2-1.36-2.66-1.51-4.78c-0.14-2.11,0.66-4.58,0.8-4.52s0.33,2.36,0.52,2.41s1.65-5.88,4.33-7.74
			c0,0-1.08,2.92-0.89,3.27s1.55-2.71,3.34-4.22s4.38-2.61,4.47-2.31c0.09,0.3-2.92,3.32-2.64,3.57c0.28,0.25,3.72-3.32,3.95-3.07
			c0.24,0.25-1.51,2.36-1.27,2.51s2.64-2.01,2.87-1.86c0.24,0.15-1.69,3.92-1.46,4.02c0.24,0.1,4.14-3.47,4.33-3.27
			c0.19,0.2-1.41,5.23-2.02,6.84c-0.61,1.61-1.32,2.97-1.08,2.92s2.76-4.22,3.12-5.33c0.36-1.11-0.06,2.56-1.14,5.43
			c-1.08,2.87-1.65,3.97-1.22,3.77c0.42-0.2,2.96-4.07,3.2-5.03c0.24-0.96,0.38,2.51-1.08,5.33c-1.46,2.82-3.06,4.37-2.82,4.47
			c0.24,0.1,3.44-4.07,3.62-3.72s-1.13,3.32-2.78,5.28c-1.65,1.96-4.14,3.22-4.05,3.47c0.09,0.25,4.8-2.61,5.46-3.52
			c0.66-0.9-0.61,1.91-2.64,4.52s-4.05,4.22-3.91,4.42s5.04-2.77,5.98-4.22c0.94-1.46-1.84,1.51-2.16,1.21
			c-0.33-0.3,4.33-4.63,5.79-6.49c1.46-1.86,1.98-2.87,1.65-2.61c-0.33,0.25-2.54,2.16-2.87,2.21c-0.33,0.05,4.61-6.44,5.04-10.51
			c0,0-1.84,3.07-2.21,2.82c-0.38-0.25,0.56-4.27,0.99-5.28s1.36-3.77,1.22-4.07c-0.14-0.3-1.84,0.45-2.16,0.25s1.55-1.66,1.55-1.66
			s-2.73-0.5-2.73-0.65s2.12-0.4,2.31-0.55c0.19-0.15-3.67-1.46-3.67-1.71c0-0.25,1.51-0.6,1.55-0.8c0.05-0.2-2.16,0.45-2.16,0
			c0-0.45-1.36-0.6-1.79-0.6c-0.42,0,3.53-1.51,3.39-1.86s-3.44,0.4-4.19,0C149.68,6.7,151.37,6,151,5.95
			c-0.38-0.05-3.58,0.6-3.81,0.3s2.4-1.16,2.26-1.36c-0.14-0.2-3.09-0.05-4.28,0.15s-3.4,1.46-3.63,1.21
			c-0.24-0.25,1.6-1.15,1.32-1.45s-3.53,1.85-3.95,1.75c-0.42-0.1,1.13-1.66,0.8-1.56c-0.33,0.1-4.33,2.16-5.79,3.47
			c-1.46,1.31-2.59,3.27-2.82,3.07s0.33-1.66,0-1.66s-2.73,4.17-2.96,4.27c-0.24,0.1,0.24-1.41,0-1.41s-1.65,3.57-1.88,3.57
			s-0.14-1.36-0.33-1.21s-0.19,1.31-0.8,2.06c-0.61,0.75-3.01,2.71-2.31,2.77c0.71,0.05,4.89,0.9,5.65,1.61
			c0.75,0.7-4.57,1.13-4.24,1.2c2.31,0.48,3.85,1.28,4.96,2.86c0.79,1.12,1.08,3.17,1.23,4.9c-3.04-4.53-7.34-6.68-9.26-7.47
			c-0.19-0.08-0.38-0.15-0.56-0.22c1.29-0.53,2.42-0.91,2.92-0.99c1.19-0.17-2.21-0.95-3.91-1.2c-1.7-0.25-4.5-0.68-4.5-0.68
			s1.95-0.76,2.72-0.68c0.76,0.08-2.04-0.93-3.39-0.76c-1.36,0.17,3.48-0.59,2.55-0.85s-6.45,0.08-7.55,0.59
			c0,0-6.13,0.24-2.41-1.84c2.67-1.5-2.62,0.41-6.05,1.02c-0.74,0.13-0.15-1.56,0.96-2.36c0.54-0.39-0.96-0.28-2.34,0.17
			c-1.25,0.4-2.37,1.14-2.51,0.85c-0.33-0.7,2.13-2.69-1.13-1.6c-5.6,1.88-10.19,0.04-10.09,0.43c0.13,0.5,2.18,1.99,1.85,1.9
			c-0.33-0.09-7.06-3.32-11.8-2.89c0,0,1.68,1.11,2.54,1.93c-5.04-2.2-8.74-1.76-8.49-1.69c3.26,0.8,4.92,2.22,4.92,2.43
			c-2.18-0.05-4.97,0.06-7.71,0.93c-1.18,0.37-2.14,0.81-2.95,1.27c-1.74,0.68-3.64,1.53-5.74,2.37c-3.88,1.54-8.76,4.93-6.01,3.28
			c1.64-0.98,4.61-1.73,6.74-2.18c-0.08,0.09-0.16,0.19-0.24,0.3c-0.42,0.14-0.86,0.3-1.31,0.49c-2.05,0.85-6.82,3.24-9.86,8.44
			c-0.3,0.5-0.57,0.82-0.82,1.03c0.18-0.93,0.24-1.99,0.31-3.01c0.14-1.86,1.13-5.18,2.35-6.27c1.22-1.09,3.67-1.73,3.34-1.78
			c-0.33-0.05-3.91,0.8-3.15,0.1c0.75-0.7,4.94-1.56,5.65-1.61c0.71-0.05-1.69-2.01-2.31-2.77c-0.61-0.75-0.61-1.91-0.8-2.06
			s-0.09,1.21-0.33,1.21c-0.24,0-1.65-3.57-1.88-3.57c-0.24,0,0.24,1.51,0,1.41c-0.24-0.1-2.64-4.27-2.96-4.27s0.24,1.46,0,1.66
			s-1.36-1.76-2.82-3.07s-5.46-3.37-5.79-3.47c-0.33-0.1,1.22,1.46,0.8,1.56c-0.42,0.1-3.67-2.06-3.95-1.75s1.55,1.2,1.32,1.45
			c-0.24,0.25-2.45-1.01-3.63-1.21c-1.18-0.2-4.13-0.35-4.28-0.15s2.49,1.06,2.26,1.36s-3.44-0.35-3.81-0.3
			C26.92,6,28.61,6.7,27.86,7.11c-0.75,0.4-4.05-0.35-4.19,0s3.81,1.86,3.39,1.86c-0.42,0-1.79,0.15-1.79,0.6
			c0,0.45-2.21-0.2-2.16,0c0.05,0.2,1.55,0.55,1.55,0.8c0,0.25-3.86,1.56-3.67,1.71c0.19,0.15,2.31,0.4,2.31,0.55
			s-2.73,0.65-2.73,0.65s1.88,1.46,1.55,1.66c-0.33,0.2-2.02-0.55-2.16-0.25s0.8,3.07,1.22,4.07s1.36,5.03,0.99,5.28
			c-0.38,0.25-2.21-2.82-2.21-2.82c0.42,4.07,5.36,10.56,5.04,10.51s-2.54-1.96-2.87-2.21c-0.33-0.25,0.19,0.75,1.65,2.61
			c1.46,1.86,6.12,6.18,5.79,6.49c-0.33,0.3-3.11-2.66-2.16-1.21c0.94,1.46,5.84,4.42,5.98,4.22s-1.88-1.81-3.91-4.42
			s-3.29-5.43-2.64-4.52c0.66,0.9,5.36,3.77,5.46,3.52c0.09-0.25-2.4-1.51-4.05-3.47c-1.65-1.96-2.96-4.93-2.78-5.28
			c0.19-0.35,3.39,3.82,3.62,3.72c0.24-0.1-1.36-1.66-2.82-4.47c-1.46-2.82-1.32-6.28-1.08-5.33s2.78,4.83,3.2,5.03
			c0.42,0.2-0.14-0.9-1.22-3.77c-1.08-2.87-1.51-6.54-1.14-5.43c0.36,1.11,2.89,5.28,3.12,5.33c0.24,0.05-0.47-1.31-1.08-2.92
			c-0.61-1.61-2.21-6.64-2.02-6.84c0.19-0.2,4.09,3.37,4.33,3.27c0.24-0.1-1.69-3.87-1.46-4.02c0.24-0.15,2.64,2.01,2.87,1.86
			s-1.51-2.26-1.27-2.51c0.24-0.25,3.67,3.32,3.95,3.07c0.28-0.25-2.73-3.27-2.64-3.57c0.09-0.3,2.68,0.8,4.47,2.31
			s3.15,4.58,3.34,4.22c0.19-0.35-0.89-3.27-0.89-3.27c2.68,1.86,4.14,7.79,4.33,7.74c0.19-0.05,0.38-2.36,0.52-2.41
			s0.94,2.41,0.8,4.52c-0.14,2.11-1.6,4.58-1.51,4.78c0.09,0.2,2.64-0.15,2.68,0c0.05,0.15-3.06,2.21-2.96,2.36s3.67-0.25,3.72,0
			c0.05,0.25-6.07,2.56-5.98,2.77c0.09,0.2,4.24-0.75,4.28-0.45c0,0.03-0.05,0.07-0.14,0.13c-0.4,0.21-0.85,0.46-1.33,0.73
			c-1.91,0.95-5.01,2.37-4.98,2.61c0.01,0.08,0.22,0.05,0.54-0.02c-0.34,0.23-0.53,0.38-0.49,0.42c0.21,0.18,3.57-1.22,4.79-1.61
			c0.12-0.02,0.27-0.05,0.43-0.08c0.04,0.23-3.78,3.17-6.1,5.35c-2.38,2.24-4.59,6.82-4.34,6.92s7.51-7.16,7.61-6.92
			c0.1,0.25-8.86,11.69-8.71,11.89c0.15,0.2,7.06-5.07,7.3-4.93c0.23,0.15-8.69,7.76-11.84,11.44c-3.15,3.68-5.98,8.36-5.98,8.36
			s2.21-3.11,5.2-5.84s7.56-5.75,7.57-5.45c0.01,0.3-6.08,7.01-5.93,7.21c0.15,0.2,2.49-2.14,2.93-2.39
			c0.44-0.25-1.13,1.89-2.33,3.18c-1.19,1.29-5.27,7.36-4.98,7.39c0.3,0.03,2.64-2.02,2.14-1c-0.5,1.02-2.34,5-1.37,3.61
			c0.96-1.39,7.05-7.76,7.25-7.56c0.2,0.2-2.14,2.19-3.38,3.96c-1.24,1.77-4.18,6.89-3.86,7.11c0.31,0.22,6.27-8.06,6.8-8.36
			c0.76-1.86,2.57-5.34,5.21-7.68c4.4-3.9,13.1-9.48,13.1-9.48c0.19,0.19-3.74,3.9-7.94,6.69c-4.2,2.79-9.21,8.7-10.44,11.23
			c-0.42,0.87-0.44,0.59-0.12-0.3c-1.36,2.42-8.31,13-8.13,13.05c0.2,0.05,6.87-9.55,7.02-9.2c0.15,0.35-4.78,7.01-6.87,11.49
			c-2.09,4.48-2.24,10.15-1.84,7.26c0.4-2.89,5.92-13.33,6.22-13.13c0.3,0.2-2.79,5.62-3.88,10.45s-1.34,11.94-1.04,8.83
			s2.59-11.62,4.5-15.1c1.91-3.48,4.21-9.9,7.14-14.14c2.93-4.23,9.16-9.94,9.46-9.6s-4.32,4.53-6.45,7.66
			c-2.13,3.13-6.83,13.18-6.83,13.18s0,0,1.64-2.86c1.57-2.74,5.47-10.67,12.64-14.78c-2.59,2.34-4.88,5.4-5.57,7.98
			c0,0,4.97-5.72,6.1-6.66c1.24-1.02,3.25-2.04,5.08-3.31c-1.73,1.85-3.32,3.71-4.27,5.15c-2.38,3.62-5.94,11.47-5.94,11.47
			s3.11-4.74,6.66-9.45c3.55-4.71,8.01-7.27,8.01-7.27s-3.46,3.37-6.27,7.14c-3.92,5.27-7.56,11.46-7.51,11.63
			c0.08,0.29,3.2-4.22,6.17-7.24c2.97-3.02,8.55-8.16,8.67-7.92c0.11,0.24-4.18,5.63-6.6,7.43c-4.56,3.39-6.39,8.12-6.39,8.12
			s2.08-3.49,4.35-5.54s3.79-3.25,4.97-4.54c1.17-1.28,3.18-3.85,3.36-3.7c0.19,0.15-2.72,4.1-4.35,5.52
			c-1.62,1.42-4.52,4.22-6.13,8.19c0,0,4.7-6.19,5.91-7.1s5.87-7.43,6.07-7.16c0.2,0.27-5.04,6.87-6.02,8.34s-2.57,5.06-1.98,4.27
			c0.59-0.79,3.25-4.71,4.57-6.52c1.32-1.81,4.89-6.34,4.79-5.78c-0.11,0.57-3.99,6.79-5.43,9.85c-1.44,3.06-2.38,6.4-1.59,4.69
			c0.78-1.71,4.4-8.41,5.67-10.69c1.27-2.27,3.15-5.21,3.09-4.65c-0.06,0.56-10.6,18.02-10.19,27.58c0,0,1.9-7.63,4.2-13.43
			c2.27-5.7,4.95-9.58,4.9-9.44c-8.7,24.78-6.69,33.73-6.69,33.73s0.33-15.74,8.75-35.75c0.08-0.2-3.54,12.57-3.12,11.84
			c0.43-0.73,3.4-8.64,3.91-10.82c0.52-2.19,0.92-5,1.16-5.11c0.24-0.11-0.21,5.21-1.04,8.8s-5.44,13.8-4.9,13.19
			c2.25-2.56,5.19-11.39,6-14.38c0.81-2.98,1.5-8.81,1.8-8.8c0.3,0.01-0.3,5.9-1.2,9.58c-0.44,1.8-3.61,10.26-5.38,18.73
			c-1.85,8.82-0.63,18.84-0.45,18.58c0.17-0.24,0.09-9.79,2.14-18.58c2.06-8.86,3.93-11.4,4.15-11c0.09,0.17-0.75,4.22-0.83,6.74
			c-0.11,3.3,1.22,7.05,1.22,7.05c-0.07-1.11-0.74-4.53-0.42-7.12c0.26-2.09,1.06-4.46,1.14-4.42c0.08,0.05-0.34,3.16-0.28,5.7
			c0.07,2.95,0.63,5.36,0.76,4.91c0.12-0.4-0.19-3.72,0.03-6.33c0.25-2.91,1.04-5.1,1.21-5.14c0.33-0.08-0.48,11.67,2.63,14.35
			c0,0-2.63-7.58,0.19-11.53c0.12-0.17-3.75-6.47,0-13.5c4.57-8.57,1.77-10.33,3.21-12.03c0.08-0.09,0.14-0.18,0.22-0.28
			c1.62-1.35,3.26-2.92,4.85-4.65c2.65-3.33,3.35-5.95,3.21-8.42c-0.31-5.67-5.63-9.21-5.63-9.21c6.92,2.08,8.83,6.78,9.34,8.68
			c1.3-2.03,2.38-4,3.17-5.8h0.02c0.64-1.64,1.1-2.91,1.12-2.94c0,0,0,0,0-0.01c0,0,0,0,0,0c0,0,0,0,0,0c0,0,0,0,0,0.01
			c0.03,0.07,2.63,7.26,4.13,9.58c0,0,0.73-6.88,9.51-9.52c0,0-5.31,3.54-5.63,9.21c-0.16,2.87,0.81,5.92,4.63,10.07
			c1.04,1.18,2.23,2.09,3.51,2.8c1.12,1.65-1.32,3.58,3.09,11.85c3.75,7.03-0.12,13.33,0,13.5c2.82,3.96,0.19,11.53,0.19,11.53
			c3.11-2.68,2.3-14.43,2.63-14.35c0.17,0.04,0.96,2.24,1.21,5.14c0.23,2.61-0.08,5.93,0.03,6.33c0.13,0.45,0.69-1.96,0.76-4.91
			c0.06-2.54-0.36-5.65-0.28-5.7c0.08-0.05,0.88,2.33,1.14,4.42c0.32,2.58-0.34,6.01-0.42,7.12c0,0,1.32-3.75,1.22-7.05
			c-0.08-2.52-0.93-6.57-0.83-6.74c0.22-0.4,2.09,2.14,4.15,11c2.05,8.79,1.97,18.34,2.14,18.58c0.19,0.26,1.4-9.76-0.45-18.58
			c-1.78-8.47-4.94-16.93-5.38-18.73c-0.9-3.68-1.5-9.57-1.2-9.58c0.3-0.01,1,5.81,1.8,8.8c0.81,2.98,3.75,11.82,6,14.38
			c0.54,0.61-4.08-9.61-4.9-13.19c-0.82-3.58-1.28-8.91-1.04-8.8c0.24,0.11,0.64,2.92,1.16,5.11c0.52,2.19,3.48,10.1,3.91,10.82
			c0.43,0.73-3.2-12.04-3.12-11.84c8.43,20.01,8.75,35.75,8.75,35.75s2.01-8.94-6.69-33.73c-0.05-0.14,2.63,3.73,4.9,9.44
			c2.31,5.8,4.2,13.43,4.2,13.43c0.41-9.56-10.12-27.02-10.19-27.58c-0.06-0.56,1.81,2.38,3.08,4.65c1.27,2.27,4.89,8.98,5.67,10.69
			c0.78,1.71-0.15-1.63-1.59-4.69c-1.44-3.06-5.32-9.28-5.43-9.85c-0.11-0.57,3.46,3.97,4.79,5.78c1.32,1.81,3.98,5.73,4.57,6.52
			c0.59,0.79-1-2.79-1.98-4.27s-6.22-8.07-6.02-8.34c0.2-0.27,4.86,6.25,6.07,7.16c1.22,0.9,5.91,7.1,5.91,7.1
			c-1.61-3.96-4.5-6.77-6.13-8.19c-1.62-1.42-4.53-5.37-4.35-5.52c0.19-0.15,2.19,2.42,3.36,3.7c1.17,1.28,2.69,2.49,4.97,4.54
			c2.28,2.05,4.35,5.54,4.35,5.54s-1.84-4.73-6.39-8.12c-2.42-1.8-6.71-7.19-6.6-7.43c0.11-0.24,5.69,4.9,8.67,7.92
			c2.97,3.02,6.1,7.52,6.17,7.24c0.04-0.17-3.6-6.37-7.51-11.63c-2.15-2.89-4.68-5.54-5.75-6.62c0.11,0,0.21,0.01,0.32,0.01
			c1.46,0.97,4.55,3.27,7.17,6.74c3.55,4.71,6.66,9.45,6.66,9.45s-3.57-7.85-5.94-11.47c-0.65-0.98-1.6-2.16-2.68-3.4
			c1.09,0.81,2.16,1.35,3.2,2.21c1.13,0.93,6.1,6.66,6.1,6.66c-0.59-2.2-2.17-5.04-4.14-7.43c6.59,4.23,10.24,11.62,11.74,14.24
			c1.64,2.86,1.64,2.86,1.64,2.86s-4.7-10.05-6.83-13.18s-6.75-7.31-6.45-7.66c0.29-0.35,6.53,5.36,9.46,9.6
			c2.93,4.23,5.22,10.65,7.14,14.14c1.91,3.48,4.2,11.99,4.5,15.1s0.05-4.01-1.04-8.83s-4.18-10.25-3.88-10.45
			c0.3-0.2,5.82,10.25,6.22,13.13c0.4,2.89,0.25-2.79-1.84-7.26C153.49,80.93,148.55,74.26,148.7,73.92z M148.57,63.88
			c2.47,2.66,4.25,5.65,3.52,5.06s-5.36-6.22-8.37-7.73c0,0,3.03,2.27,3.16,6.43c0.01,0.39-1.91-4.8-5.21-7.21
			c-3.3-2.4-9.4-7.73-9.27-7.99c0.13-0.26,5.37,3.38,8.24,5.19C143.51,59.46,146.11,61.22,148.57,63.88z M121.81,44.22
			c0.33-0.7,4.71,4.31,6.58,5.69c1.86,1.38,6.25,5.68,6.25,5.68c-0.25,0.17-3.85-3.02-5.21-3.76S121.48,44.92,121.81,44.22z
			 M105.76,28.25c0.01-0.22,4.53-1.02,7.38-0.49c2.85,0.53,4.52,1.59,3.66,1.48s-2.44,0.23-2.44,0.23c7.03,1.82,8.33,4.34,8.09,4.17
			c-4.21-2.91-9.52-3.29-11.6-3.32c-0.69-0.01,1.03-1.32,1.03-1.32C110.35,28.28,105.75,28.48,105.76,28.25z M103.23,27.59
			c-0.2-0.18,1.98-1.12,3.04-1.27c1.06-0.15,3.53,0.66,3.03,0.63C106.37,26.77,103.43,27.77,103.23,27.59z M113.17,37.31
			c0,0-6.07,2.35-7.25,3.27c-0.28,0.22,1.19-1.82,2.76-2.62C110.25,37.16,112.15,37.12,113.17,37.31z M110.9,32.71
			c0.28-0.09,1.65,0.51,3.48,0.78c1.83,0.27,4.06,0.86,5.51,1.67c1.45,0.81,3.89,3.63,3.89,3.63c-0.17,0.26-2.21-1.48-3.36-2.05
			s-2.6-1.3-2.31-0.92c0.29,0.38,2.42,2.12,2.19,2.34c-0.23,0.22-3.07-1.65-4.4-2.43C114.56,34.93,110.62,32.8,110.9,32.71z
			 M130.7,45.12c0,0.27-4.31-2.41-4.17-3.05C126.68,41.43,130.7,44.29,130.7,45.12z M129.86,41.83c0.69,0.05,4.01,1.83,5.81,3.29
			s3.41,3.28,3.41,3.28c-0.25,0.25-4.71-3.14-6.03-3.97S129.18,41.78,129.86,41.83z M131.77,49.57c0.16,0.32-3.82-1.57-5.79-2.94
			s-5.15-4.12-5-4.41c0.15-0.29,2.4,2.02,4.27,2.9C127.12,45.99,131.04,48.1,131.77,49.57z M120.06,42.85
			c0.02,0.42-4.27-2.75-4.12-3.38S120.01,41.87,120.06,42.85z M146.96,60.41c-0.04,0.19-8.07-6.33-11.65-9.07
			c-3.58-2.75-9.22-7.01-8.19-6.62c1.03,0.39,6.66,3.68,10.52,6.72C141.48,54.48,147.08,59.82,146.96,60.41z M147.3,56.29
			c-0.9-0.39-4-1.72-7.04-3.74s-7.45-5.68-7.85-6.17c-0.4-0.49,2.07,0.83,4.6,2.3C139.55,50.16,147.57,56.41,147.3,56.29z
			 M136.78,41.82c2.84,2.6,5.34,6.58,5.34,6.58c-0.34,0.18-6.42-5.75-8.87-8c-2.45-2.26-8.87-6.82-8.34-6.77
			C125.45,33.69,133.93,39.22,136.78,41.82z M123.15,26.65c2.01,1.18,2.84,2.97,2.67,3.1c-0.17,0.13-2.67-2.16-2.89-1.82
			c-0.22,0.33,3.06,2.74,2.89,3.13c-0.14,0.31-5.2-3.45-6.3-4.24c-1.09-0.79-2.75-1.84-2.58-2.01S121.14,25.47,123.15,26.65z
			 M118.88,23.62c0.31,0.21-4.2-0.7-5.73-0.87c-1.53-0.17-4.72-0.83-2.8-0.92C112.28,21.74,116.74,22.18,118.88,23.62z M72.22,26.32
			c1.06,0.15,3.24,1.09,3.04,1.27c-0.2,0.18-3.14-0.82-6.07-0.64C68.69,26.99,71.17,26.17,72.22,26.32z M51.76,42.07
			c0.15,0.64-4.17,3.32-4.17,3.05C47.59,44.29,51.61,41.43,51.76,42.07z M45.24,44.42c-1.32,0.83-5.79,4.22-6.03,3.97
			c0,0,1.62-1.81,3.41-3.28s5.12-3.24,5.81-3.29C49.11,41.78,46.56,43.59,45.24,44.42z M53.03,45.12c1.86-0.88,4.12-3.19,4.27-2.9
			c0.15,0.29-3.04,3.04-5,4.41s-5.94,3.26-5.79,2.94C47.25,48.1,51.17,45.99,53.03,45.12z M58.23,42.85
			c0.05-0.98,3.97-4.02,4.12-3.38S58.21,43.28,58.23,42.85z M58.27,38.15c-0.23-0.22,1.9-1.96,2.19-2.34
			c0.29-0.38-1.16,0.34-2.31,0.92s-3.2,2.31-3.36,2.05c0,0,2.45-2.82,3.89-3.63c1.45-0.81,3.68-1.39,5.51-1.67
			c1.83-0.27,3.21-0.87,3.48-0.78c0.28,0.09-3.67,2.22-5,3.01C61.34,36.5,58.5,38.37,58.27,38.15z M70.27,37.96
			c1.57,0.8,3.04,2.84,2.76,2.62c-1.18-0.92-7.25-3.27-7.25-3.27C66.8,37.12,68.7,37.16,70.27,37.96z M67.65,30.33
			c-2.08,0.03-7.39,0.41-11.6,3.32c-0.24,0.17,1.06-2.36,8.09-4.17c0,0-1.58-0.34-2.44-0.23s0.81-0.95,3.66-1.48
			c2.85-0.53,7.37,0.26,7.38,0.49c0.01,0.22-4.59,0.03-6.11,0.75C66.63,29.01,68.34,30.32,67.65,30.33z M59.41,23.62
			c2.14-1.44,6.6-1.88,8.52-1.79c1.92,0.09-1.27,0.74-2.8,0.92C63.61,22.92,59.1,23.83,59.41,23.62z M55.13,26.65
			c2.01-1.18,6.03-2.01,6.21-1.84s-1.49,1.22-2.58,2.01c-1.09,0.79-6.16,4.55-6.3,4.24c-0.17-0.39,3.1-2.8,2.89-3.13
			c-0.22-0.33-2.71,1.95-2.89,1.82C52.29,29.63,53.12,27.83,55.13,26.65z M36.17,48.41c0,0,2.5-3.98,5.34-6.58
			c2.84-2.6,11.33-8.14,11.87-8.19c0.54-0.05-5.88,4.51-8.34,6.77C42.59,42.66,36.51,48.59,36.17,48.41z M30.99,56.29
			c-0.27,0.12,7.75-6.13,10.29-7.6c2.54-1.47,5-2.79,4.6-2.3c-0.4,0.49-4.82,4.15-7.85,6.17S31.89,55.9,30.99,56.29z M40.66,51.44
			c3.85-3.04,9.49-6.33,10.52-6.72c1.03-0.39-4.61,3.87-8.19,6.62c-3.58,2.75-11.61,9.26-11.65,9.07
			C31.21,59.82,36.8,54.48,40.66,51.44z M32.41,66.82c0.13-4.16,3.16-6.43,3.16-6.43c-3.01,1.5-7.64,7.14-8.37,7.73
			s1.05-2.4,3.52-5.06c2.47-2.66,5.06-4.41,7.93-6.23c2.87-1.82,8.11-5.45,8.24-5.19c0.13,0.26-5.97,5.58-9.27,7.99
			C34.32,62.01,32.39,67.21,32.41,66.82z M48.87,51.83c-1.36,0.74-4.96,3.93-5.21,3.76c0,0,4.38-4.3,6.25-5.68
			c1.86-1.38,6.25-6.39,6.58-5.69C56.81,44.92,50.24,51.08,48.87,51.83z M79.84,46.27c0,0,0.62,2.15-0.4,4.52
			c-0.61,1.42-1.87,2.06-1.86,2.06c-1.1-0.41-2.27-0.72-3.47-0.95l0,0c-0.89-0.18-1.8-0.31-2.71-0.41c-0.53-0.06-1.06-0.1-1.58-0.14
			c0,0,0,0,0,0c-0.52-0.04-1.05-0.06-1.56-0.08c0,0,0,0,0,0c-0.95-0.03-1.88-0.03-2.77-0.01c-4.4,0.1-7.78,0.71-7.78,0.71
			c1.3-0.61,2.87-1.09,4.5-1.48c-0.99-1.85-0.47-4.13-0.08-5.31c-1.45,0.58-5.15,2.45-6.8,3.69c2.97-4.88,8.16-7.22,8.16-7.22
			s1.65,1.15,3.82,2.51c0.22,0.14,0.45,0.28,0.68,0.42c0.13,0.08,0.26,0.16,0.39,0.23c0.27,0.16,0.55,0.33,0.83,0.49
			c0.08,0.05,0.17,0.1,0.25,0.15c0.21,0.12,0.42,0.25,0.64,0.37c0.08,0.05,0.16,0.09,0.24,0.14c0.15,0.08,0.29,0.16,0.44,0.24
			c3.4,1.86,5.9,2.36,5.91,2.36c0.23,0.01,0.44-0.01,0.61-0.06C77.72,48.37,79.51,48.22,79.84,46.27z M76.48,41.85
			c-0.39,0.06-2.02-2.91-4.96-4.63c-0.5-0.29,2.7,0.47,3.52,1.32C75.86,39.38,76.87,41.79,76.48,41.85z M77.7,27.89
			c-0.15,0.06-1.81-1.4-3.65-2.09c-0.31-0.12,1.74-0.13,2.37,0.26C77.05,26.45,77.85,27.83,77.7,27.89z M85.66,41.41
			c0.63-5.77-1.33-10.01-1.33-10.01c-0.02,2.3-1.09,4.57-1.09,4.57c-0.87-13.35-13.76-13.13-13.76-13.13
			c9.37-2.03,13.23,5.36,13.23,5.36c0.53-2.72-1.26-6.76-1.26-6.76c3.65,3.7,4.04,7.92,4.04,7.92c1.12-1.63,1.29-5.18,1.29-5.18
			C89.45,32.35,85.66,41.41,85.66,41.41z M95.61,35.96c0,0-1.07-2.27-1.09-4.57c0,0-1.96,4.24-1.33,10.01c0,0-3.79-9.05-1.13-17.23
			c0,0,0.17,3.55,1.29,5.18c0,0,0.38-4.21,4.04-7.92c0,0-1.79,4.04-1.26,6.76c0,0,3.87-7.4,13.23-5.36
			C109.37,22.83,96.48,22.62,95.61,35.96z M102.08,26.06c0.63-0.39,2.68-0.38,2.37-0.26c-1.84,0.7-3.5,2.15-3.65,2.09
			C100.65,27.83,101.45,26.45,102.08,26.06z M103.91,38.53c0.82-0.85,4.02-1.61,3.52-1.32c-2.94,1.72-4.57,4.69-4.96,4.63
			C102.08,41.79,103.09,39.38,103.91,38.53z M101.37,52.85c0,0-1.25-0.64-1.86-2.06c-1.02-2.37-0.4-4.52-0.4-4.52
			c0.33,1.95,2.13,2.1,2.58,2.23c0.17,0.05,0.38,0.07,0.61,0.06c0.01,0,2.5-0.5,5.91-2.36c0.14-0.08,0.29-0.16,0.43-0.24
			c0.08-0.05,0.16-0.09,0.24-0.14c0.21-0.12,0.42-0.24,0.64-0.37c0.08-0.05,0.17-0.1,0.25-0.15c0.28-0.16,0.55-0.33,0.83-0.49
			c0.13-0.08,0.26-0.16,0.39-0.23c0.23-0.14,0.46-0.28,0.68-0.42c2.17-1.35,3.82-2.51,3.82-2.51s5.19,2.34,8.16,7.22
			c-1.65-1.24-5.35-3.12-6.8-3.69c0.39,1.18,0.91,3.46-0.08,5.31c1.63,0.38,3.2,0.86,4.5,1.48c0,0-3.39-0.61-7.78-0.71
			c-0.89-0.02-1.82-0.02-2.77,0.01c0,0,0,0,0,0c-0.52,0.02-1.04,0.04-1.56,0.08c0,0,0,0,0,0c-0.52,0.04-1.05,0.08-1.58,0.14
			c-0.91,0.1-1.82,0.23-2.71,0.41l0,0C103.64,52.13,102.47,52.44,101.37,52.85z M146.96,70.37c-1.23-2.53-6.24-8.44-10.44-11.23
			c-4.2-2.79-8.13-6.49-7.94-6.69c0,0,8.7,5.58,13.1,9.48C146.08,65.83,148.18,72.9,146.96,70.37z"/>
		<path class="st1" d="M34.32,87.53c-1.33,4.82-2.86,15.92-3.16,14.38c-0.3-1.54,0.44-8.38,0.44-8.38s-1.4,3.56-2.86,11.59
			c-1.47,8.03-0.42,14.17-0.42,14.17c-0.14-7.47,2.16-14.38,2.16-14.38s-0.56,5.52-0.7,11.73c-0.14,6.21,1.54,15.15,1.54,15.15
			s-0.63-8.87,0.42-20.88C32.78,98.91,34.41,87.19,34.32,87.53z"/>
		<path class="st1" d="M43.64,94.91c-0.73,4.44-1.06,14.53-1.47,13.19c-0.41-1.35-0.4-7.55-0.4-7.55s-0.91,3.32-1.47,10.66
			c-0.55,7.33,0.97,12.74,0.97,12.74c-0.83-6.68,0.58-13.09,0.58-13.09s0.02,4.99,0.49,10.58c0.46,5.58,2.81,13.43,2.81,13.43
			s-1.4-7.89-1.6-18.74C43.34,105.25,43.69,94.59,43.64,94.91z"/>
		<path class="st1" d="M33.85,116.82c-0.26-0.05-0.05-1.35,0-4.77c0.05-3.42,1.09-9.74,0.83-9.74c0,0-1.87,5.86-2.07,11.56
			c-0.21,5.7,0.52,14.41,0.67,14.3c0.16-0.1-0.05-2.38,0.44-6.43c0.49-4.04,2.2-11.35,1.99-11.51
			C35.5,110.08,34.1,116.87,33.85,116.82z"/>
		<path class="st1" d="M37.06,104.09c0.26-4.66,2.02-10.35,1.71-9.92C35.73,98.39,36.8,108.76,37.06,104.09z"/>
		<path class="st1" d="M38.39,71.85c0,0-4.84,4.49-7.65,14.07c-2.81,9.58-4.34,21.18-4.15,21.18s1.53-8.34,4.55-17.92
			C34.16,79.6,38.79,72.05,38.39,71.85z"/>
		<path class="st1" d="M38.54,77.1c1.43-3.21,4.84-8.69,4.3-8.25c-0.54,0.44-4.35,5.83-5.31,8.69c-0.96,2.86-2.05,10.39-2.05,10.39
			C35.93,87.91,37.11,80.31,38.54,77.1z"/>
		<path class="st1" d="M44.29,82.84c0,0-1.5,3.49-1.93,5.69c-0.44,2.2-0.95,8.37-0.84,8.33C41.63,96.81,44.68,82.92,44.29,82.84z"/>
		<path class="st1" d="M36.66,90.76c-0.4,2.52-0.3,5.58-0.3,5.58c0.1,0,3.01-13.03,2.81-13.48C38.98,82.42,37.06,88.24,36.66,90.76z
			"/>
		<path class="st1" d="M39.48,133.61c-0.68,2.46,0.12,7.65,0.12,7.65c0.05,0-0.08-4.13,0.76-7.76c0.91-3.91,0.45-7.92,0.35-8.14
			C40.51,124.93,40.36,130.43,39.48,133.61z"/>
		<path class="st1" d="M34.91,123.47c-0.56,0.92-0.66,6.08-0.26,7.16c0.41,1.07,0.41,3.17,0.51,3.12c0.1-0.05,0.36-2.61,0-4.24
			C34.81,127.86,35.05,123.25,34.91,123.47z"/>
		<path class="st1" d="M37.06,119.38c0,0-0.36,5.57-0.39,7.62c-0.04,2.04-0.07,10.99,0,10.27c0.07-0.72,0.65-5.72,1.07-9.35
			S37.41,119.28,37.06,119.38z"/>
		<path class="st1" d="M38.81,127.15c-0.09,3.83-1.19,7.67-1.07,7.87c0.12,0.2,0.91-1.84,1.07-2.91S38.82,126.7,38.81,127.15z"/>
		<path class="st1" d="M30.1,82.27c-0.36,1.12-2.66,5.98-4.34,9.56c-1.69,3.58-1.02,7.82-1.07,6.85c-0.05-0.97,0.77-4.45,2.25-7.36
			C28.42,88.4,30.2,81.96,30.1,82.27z"/>
		<path class="st1" d="M36.66,114.28c0.4-2.34,1.16-7.16,1.06-6.88c-2.11,5.71-1.85,12.08-1.37,11.98
			C36.84,119.28,36.26,116.61,36.66,114.28z"/>
		<path class="st1" d="M39.58,102.3c0.45,0.95,0.26,3.08,0.5,2.97c0.24-0.11,0.03-7.38,0-7.03C39.92,99.86,39.12,101.36,39.58,102.3
			z"/>
		<path d="M46.88,51.63c-0.13-0.26-5.37,3.38-8.24,5.19c-2.87,1.82-5.46,3.57-7.93,6.23c-2.47,2.66-4.25,5.65-3.52,5.06
			s5.36-6.22,8.37-7.73c0,0-3.03,2.27-3.16,6.43c-0.01,0.39,1.91-4.8,5.21-7.21C40.91,57.21,47.01,51.89,46.88,51.63z"/>
		<path d="M51.17,44.72c-1.03,0.39-6.66,3.68-10.52,6.72c-3.85,3.04-9.45,8.38-9.32,8.97c0.04,0.19,8.07-6.33,11.65-9.07
			C46.56,48.59,52.2,44.33,51.17,44.72z"/>
		<path d="M45.88,46.39c0.4-0.49-2.07,0.83-4.6,2.3c-2.54,1.47-10.56,7.72-10.29,7.6c0.9-0.39,4-1.72,7.04-3.74
			S45.48,46.88,45.88,46.39z"/>
		<path d="M48.43,41.83c-0.69,0.05-4.01,1.83-5.81,3.29s-3.41,3.28-3.41,3.28c0.25,0.25,4.71-3.14,6.03-3.97
			C46.56,43.59,49.11,41.78,48.43,41.83z"/>
		<path d="M51.76,42.07c-0.15-0.64-4.17,2.22-4.17,3.05C47.59,45.39,51.91,42.71,51.76,42.07z"/>
		<path d="M46.51,49.57c-0.16,0.32,3.82-1.57,5.79-2.94s5.15-4.12,5-4.41c-0.15-0.29-2.4,2.02-4.27,2.9S47.25,48.1,46.51,49.57z"/>
		<path d="M62.35,39.47c-0.15-0.64-4.07,2.4-4.12,3.38C58.21,43.28,62.5,40.11,62.35,39.47z"/>
		<path d="M53.38,33.64c-0.54,0.05-9.02,5.59-11.87,8.19c-2.84,2.6-5.34,6.58-5.34,6.58c0.34,0.18,6.42-5.75,8.87-8
			C47.49,38.15,53.92,33.59,53.38,33.64z"/>
		<path d="M55.35,27.94c0.22,0.33-3.06,2.74-2.89,3.13c0.14,0.31,5.2-3.45,6.3-4.24c1.09-0.79,2.75-1.84,2.58-2.01
			s-4.2,0.66-6.21,1.84c-2.01,1.18-2.84,2.97-2.67,3.1C52.64,29.89,55.13,27.6,55.35,27.94z"/>
		<path d="M67.93,21.83c-1.92-0.09-6.38,0.35-8.52,1.79c-0.31,0.21,4.2-0.7,5.73-0.87C66.67,22.57,69.86,21.91,67.93,21.83z"/>
		<path d="M56.48,44.22c-0.33-0.7-4.71,4.31-6.58,5.69c-1.86,1.38-6.25,5.68-6.25,5.68c0.25,0.17,3.85-3.02,5.21-3.76
			S56.81,44.92,56.48,44.22z"/>
		<path d="M72.74,28.25c-0.01-0.22-4.53-1.02-7.38-0.49c-2.85,0.53-4.52,1.59-3.66,1.48s2.44,0.23,2.44,0.23
			c-7.03,1.82-8.33,4.34-8.09,4.17c4.21-2.91,9.52-3.29,11.6-3.32c0.69-0.01-1.03-1.32-1.03-1.32
			C68.15,28.28,72.75,28.48,72.74,28.25z"/>
		<path d="M69.19,26.95c2.93-0.19,5.87,0.82,6.07,0.64c0.2-0.18-1.98-1.12-3.04-1.27C71.17,26.17,68.69,26.99,69.19,26.95z"/>
		<path d="M76.42,26.06c-0.63-0.39-2.68-0.38-2.37-0.26c1.84,0.7,3.5,2.15,3.65,2.09C77.85,27.83,77.05,26.45,76.42,26.06z"/>
		<path class="st1" d="M40.43,83.3c-0.56,1.6-1.24,5.58-0.99,5.59c0.25,0.01,2.85-8.37,2.48-8.45C41.92,80.44,40.99,81.7,40.43,83.3
			z"/>
		<path class="st1" d="M50.92,77.01c0,0-2.79,3.85-4.68,10.74c-1.89,6.88-0.68,15.64-0.68,15.64s0.22-10.41,2.03-16.6
			C49.41,80.6,50.92,77.01,50.92,77.01z"/>
		<path class="st1" d="M56.05,115.75c0,0-1.52-10.3-0.78-16.7c0.75-6.4,1.63-10.19,1.63-10.19s-2.11,4.27-2.81,11.37
			C53.39,107.33,56.05,115.75,56.05,115.75z"/>
		<path class="st1" d="M44.51,88.26l3.54-9.88C48.05,78.38,45.21,81.16,44.51,88.26z"/>
		<path class="st1" d="M49.43,94.14c0,0-3.21,3.89-2.13,17.07c0.93,11.38-1.07,13.2-1.47,13.42c0.51-0.17,3.76-1.38,2.97-14.06
			C47.97,97.29,50.02,94.19,49.43,94.14z"/>
		<path class="st1" d="M45.82,124.63c-0.02,0.01-0.04,0.01-0.06,0.02C45.73,124.66,45.76,124.67,45.82,124.63z"/>
		<path class="st1" d="M61.39,89.57c0,0-1.46,3.64,2.46,13.15c3.4,8.25,2.33,10.05,2.09,10.3c0.32-0.23,2.49-1.85-1.12-11.13
			C61.06,92.25,61.84,89.47,61.39,89.57z"/>
		<path class="st1" d="M65.94,113.02c-0.01,0.01-0.03,0.02-0.03,0.03C65.88,113.06,65.9,113.06,65.94,113.02z"/>
		<path class="st1" d="M112.95,101.89c-3.61,9.27-1.44,10.9-1.12,11.13c-0.24-0.25-1.31-2.05,2.09-10.3
			c3.92-9.51,2.46-13.15,2.46-13.15C115.92,89.47,116.7,92.25,112.95,101.89z"/>
		<path class="st1" d="M111.86,113.04c-0.01-0.01-0.02-0.02-0.03-0.03C111.86,113.06,111.88,113.06,111.86,113.04z"/>
		<path class="st1" d="M146.69,93.53c0,0,0.74,6.84,0.44,8.38c-0.3,1.54-1.84-9.57-3.16-14.38c-0.09-0.34,1.54,11.38,2.58,23.39
			c1.05,12.01,0.42,20.88,0.42,20.88s1.68-8.94,1.54-15.15c-0.14-6.21-0.7-11.73-0.7-11.73s2.3,6.91,2.16,14.38
			c0,0,1.05-6.14-0.42-14.17C148.09,97.09,146.69,93.53,146.69,93.53z"/>
		<path class="st1" d="M137.99,111.2c-0.55-7.33-1.47-10.66-1.47-10.66s0.01,6.2-0.4,7.55c-0.41,1.35-0.74-8.74-1.47-13.19
			c-0.05-0.32,0.3,10.34,0.1,21.2c-0.2,10.86-1.6,18.74-1.6,18.74s2.35-7.85,2.81-13.43c0.46-5.58,0.49-10.58,0.49-10.58
			s1.41,6.41,0.58,13.09C137.02,123.94,138.54,118.54,137.99,111.2z"/>
		<path class="st1" d="M143.61,102.3c-0.26,0,0.78,6.32,0.83,9.74s0.26,4.72,0,4.77c-0.26,0.05-1.66-6.74-1.87-6.58
			c-0.21,0.16,1.5,7.46,1.99,11.51c0.49,4.04,0.29,6.32,0.44,6.43c0.16,0.1,0.88-8.6,0.67-14.3
			C145.48,108.16,143.61,102.3,143.61,102.3z"/>
		<path class="st1" d="M141.23,104.09c0.26,4.66,1.33-5.71-1.71-9.92C139.21,93.74,140.97,99.43,141.23,104.09z"/>
		<path class="st1" d="M139.9,71.85c-0.39,0.2,4.23,7.75,7.25,17.33s4.35,17.92,4.55,17.92c0.2,0-1.33-11.6-4.15-21.18
			C144.74,76.35,139.9,71.85,139.9,71.85z"/>
		<path class="st1" d="M142.81,87.93c0,0-1.09-7.52-2.05-10.39s-4.77-8.25-5.31-8.69c-0.54-0.44,2.86,5.04,4.3,8.25
			C141.18,80.31,142.36,87.91,142.81,87.93z"/>
		<path class="st1" d="M133.99,82.84c-0.39,0.08,2.67,13.98,2.78,14.02c0.11,0.04-0.41-6.13-0.84-8.33S133.99,82.84,133.99,82.84z"
			/>
		<path class="st1" d="M141.62,90.76c-0.4-2.52-2.32-8.34-2.52-7.9c-0.2,0.44,2.72,13.48,2.81,13.48
			C141.92,96.34,142.02,93.28,141.62,90.76z"/>
		<path class="st1" d="M137.58,125.37c-0.1,0.22-0.56,4.23,0.35,8.14c0.85,3.63,0.72,7.76,0.76,7.76c0,0,0.8-5.2,0.12-7.65
			C137.93,130.43,137.77,124.93,137.58,125.37z"/>
		<path class="st1" d="M143.12,129.5c-0.36,1.64-0.1,4.19,0,4.24c0.1,0.05,0.1-2.04,0.51-3.12c0.41-1.07,0.31-6.24-0.26-7.16
			C143.24,123.25,143.48,127.86,143.12,129.5z"/>
		<path class="st1" d="M141.23,119.38c-0.36-0.1-1.1,4.91-0.68,8.54s1,8.64,1.07,9.35c0.07,0.72,0.04-8.23,0-10.27
			C141.59,124.95,141.23,119.38,141.23,119.38z"/>
		<path class="st1" d="M139.48,132.11c0.16,1.07,0.96,3.12,1.07,2.91c0.12-0.2-0.98-4.04-1.07-7.87
			C139.47,126.7,139.32,131.03,139.48,132.11z"/>
		<path class="st1" d="M148.18,82.27c-0.1-0.31,1.69,6.13,3.17,9.05c1.48,2.91,2.3,6.39,2.25,7.36c-0.05,0.97,0.61-3.27-1.07-6.85
			C150.84,88.25,148.54,83.39,148.18,82.27z"/>
		<path class="st1" d="M141.62,114.28c0.4,2.34-0.17,5.01,0.31,5.1c0.48,0.09,0.74-6.27-1.37-11.98
			C140.46,107.12,141.23,111.94,141.62,114.28z"/>
		<path class="st1" d="M138.21,105.27c0.24,0.11,0.04-2.02,0.5-2.97s-0.35-2.44-0.5-4.06C138.18,97.9,137.98,105.16,138.21,105.27z"
			/>
		<path class="st1" d="M102.44,48.55c0.09-0.01,0.19-0.02,0.29-0.03C102.61,48.53,102.51,48.54,102.44,48.55z"/>
		<path d="M141.68,61.93c-4.4-3.9-13.1-9.48-13.1-9.48c-0.19,0.19,3.74,3.9,7.94,6.69c4.2,2.79,9.21,8.7,10.44,11.23
			C148.18,72.9,146.08,65.83,141.68,61.93z"/>
		<path d="M132.41,52.45c-0.13,0.26,5.97,5.58,9.27,7.99c3.3,2.4,5.22,7.6,5.21,7.21c-0.13-4.16-3.16-6.43-3.16-6.43
			c3.01,1.5,7.64,7.14,8.37,7.73s-1.05-2.4-3.52-5.06s-5.06-4.41-7.93-6.23C137.78,55.83,132.54,52.19,132.41,52.45z"/>
		<path d="M127.12,44.72c-1.03-0.39,4.61,3.87,8.19,6.62c3.58,2.75,11.61,9.26,11.65,9.07c0.13-0.59-5.47-5.93-9.32-8.97
			C133.78,48.4,128.15,45.11,127.12,44.72z"/>
		<path d="M132.41,46.39c0.4,0.49,4.81,4.15,7.85,6.17s6.14,3.34,7.04,3.74c0.27,0.12-7.75-6.13-10.29-7.6
			C134.47,47.22,132.01,45.89,132.41,46.39z"/>
		<path d="M139.08,48.4c0,0-1.62-1.81-3.41-3.28s-5.12-3.24-5.81-3.29c-0.69-0.05,1.86,1.77,3.19,2.6S138.84,48.64,139.08,48.4z"/>
		<path d="M126.53,42.07c-0.15,0.64,4.17,3.32,4.17,3.05C130.7,44.29,126.68,41.43,126.53,42.07z"/>
		<path d="M120.99,42.22c-0.15,0.29,3.04,3.04,5,4.41s5.94,3.26,5.79,2.94c-0.74-1.47-4.66-3.58-6.52-4.46
			C123.39,44.24,121.13,41.92,120.99,42.22z"/>
		<path d="M120.06,42.85c-0.05-0.98-3.97-4.02-4.12-3.38S120.08,43.28,120.06,42.85z"/>
		<path d="M133.25,40.4c2.45,2.26,8.53,8.19,8.87,8c0,0-2.5-3.98-5.34-6.58c-2.84-2.6-11.33-8.14-11.87-8.19
			C124.37,33.59,130.79,38.15,133.25,40.4z"/>
		<path d="M116.95,24.82c-0.17,0.17,1.49,1.22,2.58,2.01c1.09,0.79,6.16,4.55,6.3,4.24c0.17-0.39-3.1-2.8-2.89-3.13
			c0.22-0.33,2.71,1.95,2.89,1.82c0.17-0.13-0.66-1.92-2.67-3.1C121.14,25.47,117.12,24.64,116.95,24.82z"/>
		<path d="M110.35,21.83c-1.92,0.09,1.27,0.74,2.8,0.92c1.53,0.17,6.04,1.08,5.73,0.87C116.74,22.18,112.28,21.74,110.35,21.83z"/>
		<path d="M134.63,55.59c0,0-4.38-4.3-6.25-5.68c-1.86-1.38-6.25-6.39-6.58-5.69c-0.33,0.7,6.25,6.87,7.61,7.61
			S134.38,55.76,134.63,55.59z"/>
		<path d="M111.87,29.01c0,0-1.71,1.31-1.03,1.32c2.08,0.03,7.39,0.41,11.6,3.32c0.24,0.17-1.06-2.36-8.09-4.17
			c0,0,1.58-0.34,2.44-0.23s-0.81-0.95-3.66-1.48c-2.85-0.53-7.37,0.26-7.38,0.49C105.75,28.48,110.35,28.28,111.87,29.01z"/>
		<path d="M109.31,26.95c0.5,0.03-1.98-0.78-3.03-0.63c-1.06,0.15-3.24,1.09-3.04,1.27C103.43,27.77,106.37,26.77,109.31,26.95z"/>
		<path d="M104.45,25.8c0.31-0.12-1.74-0.13-2.37,0.26c-0.63,0.39-1.43,1.77-1.28,1.83C100.95,27.95,102.61,26.49,104.45,25.8z"/>
		<path class="st1" d="M137.86,83.3c-0.56-1.6-1.49-2.87-1.49-2.87c-0.37,0.09,2.23,8.46,2.48,8.45
			C139.1,88.88,138.42,84.91,137.86,83.3z"/>
		<path class="st1" d="M130.69,86.79c1.81,6.19,2.03,16.6,2.03,16.6s1.21-8.75-0.68-15.64c-1.89-6.88-4.68-10.74-4.68-10.74
			S128.88,80.6,130.69,86.79z"/>
		<path class="st1" d="M124.19,100.23c-0.71-7.1-2.81-11.37-2.81-11.37s0.89,3.79,1.63,10.19c0.75,6.4-0.78,16.7-0.78,16.7
			S124.9,107.33,124.19,100.23z"/>
		<path class="st1" d="M130.23,78.38l3.54,9.88C133.08,81.16,130.23,78.38,130.23,78.38z"/>
		<path class="st1" d="M133.41,122.39c-0.01,0-0.03-0.01-0.06-0.02C133.41,122.41,133.44,122.4,133.41,122.39z"/>
		<path class="st1" d="M129.98,109.31c-0.39,11.67,2.86,12.89,3.37,13.06c-0.41-0.22-2.44-1.96-1.86-12.42
			c0.67-12.12-2.63-15.8-2.63-15.8C128.28,94.17,130.39,97.09,129.98,109.31z"/>
		<path class="st1" d="M60.37,96.02c-0.16,0.24,0.04,1.73-0.2,3.56c-0.23,1.83-0.28,4.14,0.11,5.75s2.43,4.73,2.43,4.73
			c0.29-0.09-0.82-2.53-1.06-3.8c-0.24-1.26-0.54-2.85-0.25-2.47c0.29,0.38,1.38,2.9,1.66,2.74c0.28-0.16-0.75-3.4-1.15-4.89
			C61.52,100.15,60.53,95.78,60.37,96.02z"/>
		<path class="st1" d="M67.83,100.44c0.22,0.19,1.32,1.94,1.41,1.62c0.09-0.32-1.14-2.79-1.68-3.98c-0.53-1.19-2.01-4.77-2.03-4.44
			c-0.02,0.33,0.42,1.63,0.74,3.51c0.32,1.89,0.84,4.11,1.39,5.42c0.56,1.31,2.24,3.06,2.24,3.06c0.12-0.26-0.97-1.92-1.38-2.98
			C68.12,101.58,67.61,100.25,67.83,100.44z"/>
		<path class="st1" d="M118.27,94.91c-0.12-0.18-1,3.24-1.35,4.4c-0.35,1.17-1.24,3.7-1.02,3.83c0.22,0.12,1.14-1.86,1.38-2.16
			c0.24-0.3-0.04,0.94-0.26,1.93c-0.22,0.99-1.16,2.91-0.93,2.97c0,0,1.7-2.47,2.04-3.73c0.34-1.26,0.36-3.05,0.21-4.47
			C118.2,96.25,118.39,95.09,118.27,94.91z"/>
		<path class="st1" d="M107.66,107.13c0,0,1.69-1.77,2.25-3.08c0.56-1.32,1.08-3.56,1.4-5.46c0.32-1.9,0.76-3.21,0.75-3.54
			c-0.02-0.33-1.51,3.28-2.05,4.48s-1.78,3.69-1.69,4.01s1.2-1.44,1.42-1.63c0.22-0.19-0.29,1.15-0.7,2.22
			C108.64,105.19,107.54,106.87,107.66,107.13z"/>
		<path class="st1" d="M70.58,93.58c-0.21,0.08,1.86,4.2,1.83,5.88c0,0-1.9-1.02-1.62-0.39c0.83,1.91,2.66,6.9,1.74,11.94
			c-0.05,0.29,1.71-1.93,0.48-9.09c0,0,0.96,1.3,1.21,2.13c0.25,0.83,0.53-1.12-0.16-3.94C73.37,97.29,70.79,93.5,70.58,93.58z"/>
		<path class="st1" d="M107.7,96.55c-0.21-0.08-2.79,3.71-3.48,6.53s-0.41,4.77-0.16,3.94s1.21-2.13,1.21-2.13
			c-1.23,7.15,0.54,9.38,0.48,9.09c-0.93-5.03,0.91-10.03,1.74-11.94c0.27-0.63-1.62,0.39-1.62,0.39
			C105.84,100.75,107.91,96.63,107.7,96.55z"/>
		<path d="M67.66,32.71c-0.28-0.09-1.65,0.51-3.48,0.78c-1.83,0.27-4.06,0.86-5.51,1.67c-1.45,0.81-3.89,3.63-3.89,3.63
			c0.17,0.26,2.21-1.48,3.36-2.05s2.6-1.3,2.31-0.92c-0.29,0.38-2.42,2.12-2.19,2.34c0.23,0.22,3.07-1.65,4.4-2.43
			C63.99,34.93,67.94,32.8,67.66,32.71z"/>
		<path d="M120.29,38.15c0.23-0.22-1.9-1.96-2.19-2.34c-0.29-0.38,1.16,0.34,2.31,0.92s3.2,2.31,3.36,2.05c0,0-2.45-2.82-3.89-3.63
			c-1.45-0.81-3.68-1.39-5.51-1.67c-1.83-0.27-3.21-0.87-3.48-0.78c-0.28,0.09,3.67,2.22,5,3.01
			C117.22,36.5,120.05,38.37,120.29,38.15z"/>
		<path d="M86.8,24.18c0,0-0.17,3.55-1.29,5.18c0,0-0.38-4.21-4.04-7.92c0,0,1.79,4.04,1.26,6.76c0,0-3.87-7.4-13.23-5.36
			c0,0,12.89-0.21,13.76,13.13c0,0,1.07-2.27,1.09-4.57c0,0,1.96,4.24,1.33,10.01C85.66,41.41,89.45,32.35,86.8,24.18z"/>
		<path d="M109.37,22.83C100,20.8,96.13,28.2,96.13,28.2c-0.53-2.72,1.26-6.76,1.26-6.76c-3.65,3.7-4.04,7.92-4.04,7.92
			c-1.12-1.63-1.29-5.18-1.29-5.18c-2.65,8.18,1.13,17.23,1.13,17.23c-0.63-5.77,1.33-10.01,1.33-10.01
			c0.02,2.3,1.09,4.57,1.09,4.57C96.48,22.62,109.37,22.83,109.37,22.83z"/>
		<path class="st0" d="M105.92,40.58c1.18-0.92,7.25-3.27,7.25-3.27c-1.03-0.19-2.92-0.15-4.5,0.65
			C107.11,38.76,105.64,40.8,105.92,40.58z"/>
		<path class="st0" d="M107.43,37.21c0.5-0.29-2.7,0.47-3.52,1.32c-0.82,0.85-1.83,3.25-1.44,3.31
			C102.85,41.9,104.49,38.94,107.43,37.21z"/>
		<path class="st2" d="M114.25,44.07c-0.47,0.32-0.93,0.61-1.39,0.88c0.86,0.94,1.39,2.2,1.39,3.58c0,1-0.29,1.93-0.78,2.73
			c0,0,0,0-0.01,0c4.4,0.1,7.78,0.71,7.78,0.71c-1.3-0.61-2.87-1.09-4.5-1.48c0.99-1.85,0.47-4.13,0.08-5.31
			c1.45,0.58,5.15,2.45,6.8,3.69c-2.97-4.88-8.16-7.22-8.16-7.22S116.21,42.73,114.25,44.07z"/>
		<polygon class="st2" points="110.7,51.27 110.7,51.27 110.7,51.27 		"/>
		<path class="st2" d="M109.14,51.35C109.14,51.35,109.13,51.35,109.14,51.35C109.13,51.35,109.14,51.35,109.14,51.35z"/>
		<path class="st2" d="M104.84,51.9c-0.76-0.92-1.23-2.08-1.23-3.37c0-0.05,0.01-0.1,0.01-0.15c-0.37,0.06-0.67,0.11-0.88,0.13
			c-0.1,0.02-0.2,0.03-0.29,0.03c-0.05,0-0.08,0.01-0.1,0.01c-0.01,0-0.03,0-0.04,0l0,0l0,0c-0.23,0.01-0.44-0.01-0.61-0.06
			c-0.45-0.13-2.25-0.28-2.58-2.23c0,0-0.62,2.15,0.4,4.52c0.61,1.42,1.87,2.06,1.86,2.06C102.47,52.44,103.64,52.13,104.84,51.9z"
			/>
		<path class="st3" d="M109.77,45.32c0.28-0.16,0.55-0.33,0.83-0.49C110.32,44.99,110.05,45.15,109.77,45.32z"/>
		<path class="st3" d="M110.98,44.59c0.23-0.14,0.46-0.28,0.68-0.42C111.43,44.31,111.21,44.45,110.98,44.59z"/>
		<path class="st3" d="M114.25,48.53c0-1.38-0.53-2.63-1.39-3.58c-0.64,0.38-1.28,0.73-1.9,1.03c0.07,0.05,0.14,0.11,0.2,0.16
			c0.46-0.01,0.88,0.28,0.99,0.74c0.06,0.25,0.01,0.49-0.1,0.7c0.09,0.3,0.15,0.61,0.15,0.94c0,1.15-0.6,2.16-1.5,2.74c0,0,0,0,0,0
			c0.95-0.03,1.88-0.03,2.77-0.01c0,0,0,0,0.01,0C113.95,50.46,114.25,49.53,114.25,48.53z"/>
		<path class="st3" d="M105.65,48.53c0-0.21,0.03-0.41,0.07-0.61c-0.83,0.22-1.54,0.36-2.1,0.46c-0.01,0.05-0.01,0.1-0.01,0.15
			c0,1.29,0.47,2.45,1.23,3.37l0,0c0.89-0.18,1.8-0.31,2.71-0.41C106.43,50.97,105.65,49.84,105.65,48.53z"/>
		<path class="st4" d="M112.15,46.89c-0.11-0.46-0.53-0.75-0.99-0.74c-0.07,0-0.13-0.01-0.2,0.01c-0.02,0-0.03,0.01-0.04,0.01
			c-0.51,0.14-0.82,0.66-0.69,1.18c0.13,0.53,0.66,0.86,1.19,0.74c0.07-0.02,0.13-0.04,0.19-0.06c0.2-0.09,0.35-0.25,0.45-0.43
			C112.16,47.38,112.2,47.14,112.15,46.89z"/>
		<path d="M102.3,48.56c0,0,0.02,0,0.04,0c0.02,0,0.05-0.01,0.1-0.01c0.07-0.01,0.17-0.02,0.29-0.03c0.22-0.03,0.52-0.07,0.88-0.13
			c0.56-0.1,1.27-0.24,2.1-0.46c-0.04,0.2-0.07,0.4-0.07,0.61c0,1.31,0.78,2.44,1.9,2.96c0.53-0.06,1.06-0.1,1.58-0.14c0,0,0,0,0,0
			c0.52-0.04,1.05-0.06,1.56-0.08c0,0,0,0,0,0c0.9-0.58,1.5-1.59,1.5-2.74c0-0.33-0.06-0.64-0.15-0.94
			c-0.1,0.19-0.25,0.34-0.45,0.43c-0.06,0.03-0.12,0.05-0.19,0.06c-0.53,0.13-1.07-0.2-1.19-0.74c-0.12-0.52,0.19-1.03,0.69-1.18
			c0.01,0,0.03-0.01,0.04-0.01c0.07-0.02,0.13-0.01,0.2-0.01c-0.06-0.06-0.13-0.11-0.2-0.16c0.62-0.3,1.26-0.65,1.9-1.03
			c0.46-0.28,0.93-0.56,1.39-0.88c1.96-1.34,1.22-2.4,1.22-2.4s-1.65,1.15-3.82,2.51c-0.22,0.14-0.45,0.28-0.68,0.42
			c-0.13,0.08-0.26,0.16-0.39,0.23c-0.27,0.16-0.55,0.33-0.83,0.49c-0.08,0.05-0.17,0.1-0.25,0.15c-0.21,0.12-0.42,0.25-0.64,0.37
			c-0.08,0.05-0.16,0.09-0.24,0.14c-0.14,0.08-0.29,0.16-0.43,0.24C104.8,48.06,102.31,48.56,102.3,48.56L102.3,48.56L102.3,48.56z"
			/>
		<path class="st0" d="M70.27,37.96c-1.57-0.8-3.47-0.84-4.5-0.65c0,0,6.07,2.35,7.25,3.27C73.31,40.8,71.84,38.76,70.27,37.96z"/>
		<path class="st0" d="M71.52,37.21c2.94,1.72,4.57,4.69,4.96,4.63c0.39-0.06-0.62-2.47-1.44-3.31
			C74.22,37.69,71.03,36.92,71.52,37.21z"/>
		<path class="st2" d="M64.7,48.53c0-1.38,0.53-2.63,1.39-3.58c-0.46-0.28-0.93-0.56-1.39-0.88c-1.96-1.34-1.22-2.4-1.22-2.4
			s-5.19,2.34-8.16,7.22c1.65-1.24,5.35-3.12,6.8-3.69c-0.39,1.18-0.91,3.46,0.08,5.31c-1.63,0.38-3.2,0.86-4.5,1.48
			c0,0,3.39-0.61,7.78-0.71c0,0,0,0-0.01,0C64.99,50.46,64.7,49.53,64.7,48.53z"/>
		<path class="st2" d="M76.65,48.56L76.65,48.56c-0.01,0-0.03,0-0.04,0c-0.02,0-0.05-0.01-0.1-0.01c-0.09-0.01-0.19-0.02-0.29-0.03
			c-0.22-0.03-0.52-0.07-0.88-0.13c0.01,0.05,0.01,0.1,0.01,0.15c0,1.29-0.47,2.45-1.23,3.37c1.2,0.24,2.37,0.55,3.47,0.95
			c0,0,1.25-0.64,1.86-2.06c1.02-2.37,0.4-4.52,0.4-4.52c-0.33,1.95-2.13,2.1-2.58,2.23C77.09,48.55,76.88,48.57,76.65,48.56
			L76.65,48.56z"/>
		<polygon class="st2" points="68.25,51.27 68.25,51.27 68.25,51.27 		"/>
		<path class="st2" d="M69.82,51.35C69.82,51.35,69.81,51.35,69.82,51.35C69.81,51.35,69.82,51.35,69.82,51.35z"/>
		<path class="st3" d="M68.36,44.82c0.27,0.16,0.55,0.33,0.83,0.49C68.9,45.15,68.63,44.99,68.36,44.82z"/>
		<path class="st3" d="M67.29,44.17c0.22,0.14,0.45,0.28,0.68,0.42C67.74,44.45,67.52,44.31,67.29,44.17z"/>
		<path class="st3" d="M66.75,48.53c0-0.33,0.06-0.64,0.15-0.94c-0.11-0.21-0.15-0.45-0.1-0.7c0.11-0.46,0.53-0.75,0.99-0.74
			c0.06-0.06,0.13-0.11,0.2-0.16c-0.62-0.3-1.26-0.65-1.9-1.03c-0.86,0.94-1.39,2.2-1.39,3.58c0,1,0.29,1.93,0.78,2.73
			c0,0,0,0,0.01,0c0.89-0.02,1.82-0.02,2.77,0.01c0,0,0,0,0,0C67.35,50.69,66.75,49.68,66.75,48.53z"/>
		<path class="st3" d="M75.33,48.38c-0.56-0.1-1.27-0.24-2.1-0.46c0.04,0.2,0.07,0.4,0.07,0.61c0,1.31-0.78,2.44-1.9,2.96
			c0.91,0.1,1.82,0.23,2.71,0.41l0,0c0.76-0.92,1.23-2.08,1.23-3.37C75.35,48.48,75.34,48.43,75.33,48.38z"/>
		<path d="M73.3,48.53c0-0.21-0.03-0.41-0.07-0.61c0.83,0.22,1.54,0.36,2.1,0.46c0.37,0.06,0.67,0.11,0.88,0.13
			c0.12,0.02,0.22,0.03,0.29,0.03c0.05,0,0.08,0.01,0.1,0.01c0.01,0,0.04,0,0.04,0l0,0l0,0c-0.01,0-2.5-0.5-5.91-2.36
			c-0.15-0.08-0.29-0.16-0.44-0.24c-0.08-0.05-0.16-0.09-0.24-0.14c-0.21-0.12-0.42-0.24-0.64-0.37c-0.08-0.05-0.17-0.1-0.25-0.15
			c-0.28-0.16-0.55-0.33-0.83-0.49c-0.13-0.08-0.26-0.16-0.39-0.23c-0.23-0.14-0.46-0.28-0.68-0.42c-2.17-1.35-3.82-2.51-3.82-2.51
			s-0.73,1.06,1.22,2.4c0.47,0.32,0.93,0.61,1.39,0.88c0.64,0.38,1.28,0.73,1.9,1.03c-0.07,0.05-0.14,0.11-0.2,0.16
			c0.07,0,0.13-0.01,0.2,0.01c0.02,0,0.03,0.01,0.04,0.01c0.51,0.14,0.82,0.66,0.69,1.18c-0.13,0.53-0.66,0.86-1.19,0.74
			c-0.07-0.02-0.13-0.04-0.19-0.06c-0.2-0.09-0.35-0.25-0.45-0.43c-0.09,0.3-0.15,0.61-0.15,0.94c0,1.15,0.6,2.16,1.5,2.74
			c0,0,0,0,0,0c0.52,0.02,1.04,0.04,1.56,0.08c0,0,0,0,0,0c0.52,0.04,1.05,0.08,1.58,0.14C72.52,50.97,73.3,49.84,73.3,48.53z"/>
		<path class="st4" d="M66.8,46.89c-0.06,0.25-0.01,0.49,0.1,0.7c0.1,0.19,0.25,0.34,0.45,0.43c0.06,0.03,0.12,0.05,0.19,0.06
			c0.53,0.13,1.07-0.2,1.19-0.74c0.12-0.52-0.19-1.03-0.69-1.18c-0.01,0-0.03-0.01-0.04-0.01c-0.07-0.02-0.13-0.01-0.2-0.01
			C67.33,46.14,66.91,46.43,66.8,46.89z"/>
		<path class="st1" d="M89.36,69c0.01,0,0.01,0,0.02-0.01C89.39,69,89.39,69,89.4,69c0.72,0,1.65-1.3,1.95-1.34
			c0.3-0.04,2.52-0.13,4.41,0.17c1.89,0.3,5.99,5.32,5.99,5.32s0.35-1.23-0.32-2.66c-0.68-1.42-4.06-4.39-5-4.51
			c-0.93-0.12-4.83-0.51-7.05-0.51s-6.12,0.39-7.05,0.51c-0.93,0.12-4.32,3.09-5,4.51c-0.68,1.42-0.32,2.66-0.32,2.66
			s4.1-5.02,5.99-5.32c1.89-0.3,4.11-0.22,4.41-0.17C87.71,67.7,88.64,69,89.36,69z M82.83,66.63c0,0,2.12-0.82,6.55-0.82
			s6.81,0.82,6.81,0.82s-2.34-0.2-6.81-0.2C84.92,66.43,82.83,66.63,82.83,66.63z"/>
		<path class="st1" d="M79.26,75.3c-0.4,0.53,0.22,2.11,2.51,2.11c2.29,0,3.52-1.79,3.44-2.11s-1.37,1.14-3.39,1.14
			S79.41,75.1,79.26,75.3z"/>
		<path class="st1" d="M96.95,76.43c-2.03,0-3.3-1.46-3.39-1.14s1.15,2.11,3.44,2.11c2.29,0,2.91-1.58,2.51-2.11
			C99.35,75.1,98.97,76.43,96.95,76.43z"/>
		<path class="st4" d="M96.19,66.63c0,0-2.37-0.82-6.81-0.82s-6.55,0.82-6.55,0.82s2.09-0.2,6.55-0.2
			C93.85,66.43,96.19,66.63,96.19,66.63z"/>
	</g>
	<g>
		<path d="M113.72,119.69c-2.16,4.61,1.46,8.05,2.51,8.53c1.52-2.21,4.69-8.56,6.84-8.56c2.16,0,0.68,4.51-0.42,6.94
			c4.52-1.05,5.06-3.42,5.26-4.97c0.21-1.55-0.56-3.57-1.66-4.45c-1.21-1.07-3.04-1.6-5.48-1.6
			C116.46,115.59,114.12,118.85,113.72,119.69z M116.59,121.08c0.06-0.09,0.53-0.83,1.43-1.45c-0.58,0.73-1.15,1.56-1.74,2.48
			C116.32,121.78,116.42,121.44,116.59,121.08z"/>
		<path d="M105.06,139.75c0.02,0.35,0.04,0.71,0.04,1.06c-0.02-0.23,0.13-0.6,0.4-1.06h-0.14H105.06z"/>
		<path d="M90.82,129.29c-1.42-1.83-3.2-3.29-5.32-4.35c-2.05-1.06-4.5-1.59-7.27-1.59c-0.76,0-1.46-0.03-2.1-0.1
			c-0.16-0.01-0.32-0.05-0.48-0.07c0.23,1.09,0.34,2.26,0.31,3.53c-0.06,1.84-0.44,3.69-1.15,5.52c-0.57,1.36-1.25,2.74-2.03,4.12
			c6.31,0.01,12.74,0.02,19.09,0.03v-0.01l2.35,0c-0.07-0.25-0.12-0.5-0.19-0.75C93.31,133.2,92.23,131.06,90.82,129.29z
			 M77.78,133.39c0.84-2.17,1.3-4.38,1.37-6.6c0-0.08,0-0.16,0.01-0.24c1.87,0.1,3.52,0.51,4.92,1.23c1.68,0.84,3.1,2,4.25,3.49
			c0.66,0.82,1.22,1.76,1.7,2.78l-12.54-0.02C77.58,133.83,77.68,133.61,77.78,133.39z"/>
		<path d="M173.34,138.63c0.04-0.31,0.06-0.64,0.06-1c0-0.25-0.02-0.49-0.07-0.72l3.29-3.86c0.58-0.69,0.72-1.66,0.34-2.48
			c-0.38-0.82-1.21-1.34-2.1-1.34h-5.82c-0.45,0-0.9,0.13-1.28,0.38l-0.08,0.06c-0.39-0.28-0.87-0.44-1.36-0.44h-5.83
			c-0.38,0-0.75,0.09-1.09,0.27c-0.33-0.18-0.71-0.27-1.08-0.27h-0.95c-0.55,0-1.08,0.19-1.5,0.55l-5.16,4.37l-19.37-0.03
			c-0.79-0.88-1.69-1.73-2.72-2.54c3.17-1.92,6.57-5.19,6.57-10.77c0-6.74-5.92-14.02-15.48-14.02c-14.62,0-17.61,12.39-17.61,15.71
			c0,0.01,0,0.03,0,0.04c-1.44-1.82-3.14-3.5-5.09-5.02c-1.88-1.44-5.49-3.2-9.76-4.77c0.11-0.76,0.24-1.63,0.37-2.54
			c1.11,0.01,2.23,0.01,3.3,0.02c1.62,0.01,3.11,0.02,4.23,0.02c0.13,0.14,0.33,0.4,0.47,0.59c0.53,0.71,1.27,1.69,2.54,2.2
			c1.68,0.67,3.63,0.07,4.66-1.46c0.52-0.8,3.78-8.58,3.95-9.29c0.48-1.96,0.13-3.72-1-4.97c-0.63-0.7-2.05-1.81-4.58-1.47
			c-0.8,0.11-1.45,0.36-2.03,0.58c-0.9,0.34-1.82,0.7-3.92,0.7c-0.64,0-1.59-0.01-2.71-0.02c-10.89-0.08-13.22,0.03-14.27,0.38
			c-2.25,0.7-3.86,2.4-4.42,4.66h0c-0.3,1.18-1.23,6.42-1.97,10.71c-1.19-0.72-2.49-1.31-3.9-1.76c-2.12-0.68-4.47-1.02-6.99-1.02
			c-2.27,0-4.45,0.39-6.47,1.17c-2.01,0.77-3.84,1.87-5.45,3.28c-1.61,1.41-2.89,3.1-3.75,4.95c-0.99,1.96-1.5,4.12-1.52,6.41
			c-0.07,1.22,0.1,2.45,0.52,3.65c0.8,2.29,2.78,3.66,5.32,3.66c1.76,0,3.36-0.84,4.37-2.29c0.48-0.69,0.9-1.48,1.26-2.37
			c0.29-0.7,0.61-1.43,0.94-2.15c0.28-0.52,0.61-1,1.05-1.5c0.24-0.28,0.59-0.54,1.11-0.79c0.33-0.16,0.95-0.36,2.05-0.36
			c0.3,0,0.68,0.1,1.08,0.28c0.47,0.21,0.86,0.48,1.19,0.82l0.18,0.17c0.32,0.28,0.59,0.65,0.84,1.15c0.15,0.28,0.22,0.54,0.22,0.8
			c0,0.48-0.14,1.55-1.07,3.44c-0.55,1.14-1.23,2.36-2.02,3.65l-40.56-0.06c0.69-1.29,1.11-2.58-0.07-3.71
			c-1.2-1.16-1.83-0.93-7.83,1.3c-3.19,1.18-6.6,2.52-8.69,3.42c-2.54,1.08-3.7,1.57-3.7,3.27c0,1.74,1.38,2.27,3.47,3.08
			c2.09,0.8,5.62,2.03,8.79,3.06c6.1,1.97,6.93,2.17,8.07,0.91c0.87-0.96,0.78-2,0.24-3.21h34.79c-0.09,0.12-0.18,0.25-0.27,0.37
			c-1.7,2.29-3.38,4.52-5.03,6.72c-1.6,2.15-3.14,4.26-4.59,6.34c-1.43,2.13-2.55,4.05-3.32,5.7c-0.23,0.49-0.34,1.03-0.34,1.56
			c0,1.87,1.03,3.52,2.65,4.26c0.57,0.3,1.19,0.48,1.84,0.62c0.44,1.85,1.46,3.93,3.77,5.12c0,0-1.42-2.54,0.62-4.29
			c0.31-0.27,0.58-0.46,0.82-0.61c0.62,0.01,1.28,0.02,1.98,0.03c0.34,0.2,0.72,0.45,1.24,0.66c1.93,0.81-2.1,6.04-2.61,6.3
			c0,0,6.09-2.78,6.66-6.24c0.04-0.24,0.05-0.45,0.04-0.65c1.49,0.02,3.02,0.04,4.5,0.06c-0.33,1.06-0.23,2.22,0.3,3.27
			c1.37,2.68,5.26,4.21,10.98,4.33c0.18,0,0.35,0,0.53,0c4.17,0,8.35-0.96,12.43-2.86c3.97-1.85,7.52-4.36,10.48-7.39
			c1.86-1.82,3.51-3.83,4.93-6.03c2.85,4.48,7.59,7.99,14.57,7.99c6.24,0,11.1-1.7,14.45-5.06c4.9-4.92,4.88-11.65,4.87-14.19v-0.24
			c0-0.55-0.07-2.85-0.99-5.77h14.88l5.51,4.42c0.41,0.33,0.92,0.51,1.45,0.51h5.64c0.37,0,0.73-0.09,1.05-0.25
			c0.32,0.17,0.68,0.25,1.05,0.25h9.89c0.92,0,1.79-0.57,2.16-1.41C178.12,144.15,177.89,143.54,173.34,138.63z M133.65,147.84
			c0,3.11,0.47,16.3-16.14,16.3c-11.76,0-14.13-11.73-14.28-12.32c-0.21,0.55-0.42,1.1-0.66,1.64c-1.69,3.64-3.98,6.88-6.79,9.63
			c-2.74,2.81-5.98,5.09-9.6,6.78c-3.64,1.7-7.53,2.64-11.55,2.56c-10.79-0.21-11.02-6.13-1.29-5.01c11.27,0,15.27-7.32,16.82-9.35
			c1.48-2.08,2.66-4.38,3.5-6.84c0.84-2.51,1.29-5.19,1.35-7.94c0.03-1.21-0.04-2.39-0.17-3.54h-2.98H70.58
			c-0.79,1.12-1.61,2.23-2.49,3.32c-1.39,1.79-2.82,3.57-4.24,5.28c-1.38,1.72-2.71,3.4-3.99,5.03c-0.92,1.26-1.75,2.52-2.47,3.74
			c0.37-0.08,10.07,0.26,15.51,0.26c14.8,0,10.24-6.72,9.71-7.24c-0.69-0.79-3.51-3.18-1.17-5.72c2.17-1.84,4.9-0.41,5.71,0.31
			c0.73,0.7,1.3,1.52,1.74,2.46c0.47,0.97,0.78,2.02,0.9,3.09c0.18,1.05,0.22,2,0.14,2.82l-0.03,0.33c-0.17,1.64-0.8,3.27-1.89,4.85
			c-1.13,1.69-2.42,3.07-3.84,4.07c-0.93,0.71-2.01,1.27-3.2,1.67c-1.23,0.33-2.45,0.6-3.69,0.8c-0.87,0.1-1.73,0.15-2.59,0.15
			c-0.45,0-26.92-0.32-27.44-0.38c-0.13-0.02-0.25-0.05-0.38-0.08l-0.87-0.61c0,0-0.01,0.11-0.02,0.3
			c-0.05-0.02-0.11-0.04-0.15-0.07c-0.28-0.11-0.85-0.48-0.85-1.39c0-0.08,0.02-0.15,0.05-0.22c0.7-1.49,1.73-3.26,3.08-5.26
			c1.39-1.99,2.9-4.07,4.49-6.21c1.65-2.19,3.33-4.43,5.04-6.72c1.16-1.55,2.25-3.09,3.27-4.59H16.44c0,0,2.51,3.6,2.17,3.97
			c-0.34,0.37-16.3-5.02-16.3-5.49c0-0.47,16.03-6.58,16.3-6.32c0.27,0.26-2.57,4.36-2.23,4.36c0.13,0,21.26,0.03,46.77,0.06
			c1.02-1.61,1.89-3.15,2.58-4.59c0.92-1.86,1.39-3.48,1.39-4.82c0-0.78-0.19-1.54-0.58-2.28c-0.4-0.81-0.92-1.5-1.56-2.06
			c-0.62-0.64-1.34-1.13-2.17-1.51c-0.83-0.37-1.63-0.56-2.39-0.56c-1.39,0-2.56,0.24-3.48,0.7c-0.89,0.43-1.6,0.97-2.13,1.61
			c-0.57,0.64-1.05,1.35-1.46,2.12c-0.36,0.78-0.7,1.57-1.02,2.33c-0.28,0.7-0.59,1.29-0.93,1.78c-0.42,0.61-1.03,0.93-1.76,0.93
			c-1.16,0-1.96-0.53-2.31-1.52c-0.29-0.83-0.41-1.67-0.35-2.5c0-1.82,0.39-3.54,1.17-5.08c0.71-1.52,1.73-2.87,3.01-3.98
			c1.33-1.16,2.84-2.07,4.49-2.7c1.66-0.63,3.45-0.96,5.33-0.96c2.18,0,4.21,0.29,6.02,0.87c1.83,0.58,3.43,1.44,4.76,2.55
			c0.87,0.73,1.61,1.6,2.25,2.58c0.29-1.8,2.6-15.27,2.92-16.34c0.29-1.17,1.08-2.01,2.28-2.38c1.23-0.41,13.27,2.95,22.41-1.53
			c1.84-0.9,2.4,1.11,2.06,2.52c-0.12,0.48-3.28,7.93-3.52,8.31c-0.18,0.26-0.52,0.37-0.81,0.25c-1.2-0.48-1.69-3.01-4.08-3.01
			c-2.47,0-6.89-0.06-10.4-0.06c0,0-1.1,7.45-1.14,7.88c5.06,1.68,9.44,3.7,11.33,5.15c3.46,2.71,6.04,5.97,7.68,9.69
			c0.92,2.1,1.57,4.33,1.95,6.67l2.72,0l0,0c0.2,0,0.39,0,0.59,0c1.1-1.28,2.18-2.4,2.56-2.65c0.53-0.35-5.29-3.33-5.29-11.25
			c0-1.02,1.27-12.53,14.42-12.53c7.57,0,12.3,5.61,12.3,10.84c0,8.01-9.8,9.79-10.11,10.48c3.16,1.37,5.49,3.19,7.2,5.14
			c13.4,0.02,22.45,0.03,22.45,0.03l5.81-4.92h0.95l-1.56,2.85l3.73-2.85h5.83l-0.95,2.42l3.67-2.42h5.82l-4.51,5.28
			c0,0,0.73-0.11,0.73,0.81s-0.05,1.48-0.46,1.48c0,0,5.22,5.57,4.71,5.57c-0.68,0-9.9,0-9.9,0l-3.32-2.41l1.21,2.41h-5.64
			l-6.15-4.93h-20.13C133.21,143.06,133.65,146.23,133.65,147.84z M80.03,152.04l0.21,0.23c0.11,0.17,0.22,0.42,0.25,0.58
			c-0.28,0.25-1.82,1.34-7.59,1.34c-2.67,0-6.34-0.08-9.51-0.15c0.95-1.21,1.93-2.43,2.9-3.65c1.44-1.73,2.89-3.54,4.28-5.33
			c0.78-0.98,1.53-1.97,2.27-2.99h6.45l-0.2,0.19C77.56,143.94,75.64,147.43,80.03,152.04z M91.81,142.07
			c0.01,0.38,0.02,0.76,0.02,1.15c-0.02,0.8-0.07,1.59-0.16,2.38c-0.59-1.2-1.37-2.28-2.39-3.25c-0.11-0.09-0.22-0.19-0.34-0.28
			H91.81z"/>
		<path d="M122.21,139.75h-8.02c-2.34,1.99-3.91,5.43-3.91,8.34c0,4.37,3.55,9.17,7.92,9.17c4.37,0,7.92-4.79,7.92-9.17
			C126.13,145.19,124.55,141.74,122.21,139.75z M122.94,148.1c0,2.91-2.43,5.98-4.73,5.98c-2.3,0-4.74-3.08-4.74-5.98
			c0-2.21,1.37-4.77,2.93-6.02h3.61C121.57,143.32,122.94,145.89,122.94,148.1z"/>
		<path class="st5" d="M63.16,136.34c-25.51-0.04-46.64-0.06-46.77-0.06c-0.34,0,2.5-4.1,2.23-4.36c-0.27-0.26-16.3,5.85-16.3,6.32
			c0,0.47,15.96,5.86,16.3,5.49c0.34-0.37-2.17-3.97-2.17-3.97h44.46c0.46-0.68,0.92-1.36,1.35-2.03
			C62.57,137.26,62.87,136.8,63.16,136.34z"/>
		<path class="st5" d="M151.54,139.75l6.15,4.93h5.64l-1.21-2.41l3.32,2.41c0,0,9.22,0,9.9,0c0.51,0-4.71-5.57-4.71-5.57
			c0.41,0,0.46-0.56,0.46-1.48s-0.73-0.81-0.73-0.81l4.51-5.28h-5.82l-3.67,2.42l0.95-2.42h-5.83l-3.73,2.85l1.56-2.85h-0.95
			l-5.81,4.92c0,0-9.05-0.01-22.45-0.03c0.95,1.09,1.71,2.21,2.31,3.32H151.54z"/>
		<path class="st5" d="M118.21,138.12c-1.46,0-2.83,0.64-4.01,1.64h8.02C121.04,138.75,119.67,138.12,118.21,138.12z"/>
		<path class="st3" d="M131.41,139.75c-0.61-1.11-1.36-2.23-2.31-3.32c-1.71-1.95-4.04-3.77-7.2-5.14
			c0.3-0.69,10.11-2.47,10.11-10.48c0-5.23-4.73-10.84-12.3-10.84c-13.15,0-14.42,11.51-14.42,12.53c0,7.93,5.82,10.9,5.29,11.25
			c-0.38,0.25-1.46,1.37-2.56,2.65c-0.98,1.14-1.98,2.42-2.51,3.35c-0.26,0.46-0.42,0.83-0.4,1.06c-0.01-0.36-0.03-0.71-0.04-1.06
			H94.85c0.13,1.15,0.19,2.33,0.17,3.54c-0.06,2.75-0.51,5.43-1.35,7.94c-0.84,2.46-2.02,4.76-3.5,6.84
			c-1.55,2.03-5.56,9.35-16.82,9.35c-9.72-1.12-9.49,4.8,1.29,5.01c4.02,0.08,7.91-0.86,11.55-2.56c3.63-1.69,6.86-3.98,9.6-6.78
			c2.81-2.75,5.1-5.99,6.79-9.63c0.24-0.54,0.45-1.09,0.66-1.64c0.15,0.59,2.52,12.32,14.28,12.32c16.61,0,16.14-13.19,16.14-16.3
			C133.65,146.23,133.21,143.06,131.41,139.75z M126.13,148.1c0,4.37-3.55,9.17-7.92,9.17c-4.37,0-7.92-4.79-7.92-9.17
			c0-2.91,1.57-6.35,3.91-8.34c1.18-1,2.54-1.64,4.01-1.64c1.46,0,2.83,0.64,4.01,1.64C124.55,141.74,126.13,145.19,126.13,148.1z
			 M120.77,115.59c2.44,0,4.27,0.53,5.48,1.6c1.1,0.88,1.87,2.9,1.66,4.45c-0.21,1.55-0.75,3.91-5.26,4.97
			c1.1-2.43,2.58-6.94,0.42-6.94c-2.15,0-5.32,6.35-6.84,8.56c-1.05-0.48-4.67-3.92-2.51-8.53
			C114.12,118.85,116.46,115.59,120.77,115.59z"/>
		<path class="st3" d="M72.78,136.36c0.78-1.38,1.46-2.76,2.03-4.12c0.71-1.83,1.1-3.68,1.15-5.52c0.03-1.27-0.08-2.44-0.31-3.53
			c0.16,0.02,0.32,0.05,0.48,0.07c0.64,0.06,1.34,0.1,2.1,0.1c2.77,0,5.22,0.53,7.27,1.59c2.11,1.06,3.9,2.52,5.32,4.35
			c1.42,1.77,2.5,3.91,3.21,6.34c0.07,0.24,0.12,0.5,0.19,0.75l10.49,0.02c-0.38-2.33-1.03-4.56-1.95-6.67
			c-1.64-3.72-4.22-6.98-7.68-9.69c-1.9-1.46-6.28-3.48-11.33-5.15c0.03-0.43,1.14-7.88,1.14-7.88c3.51,0,7.93,0.06,10.4,0.06
			c2.4,0,2.88,2.53,4.08,3.01c0.29,0.12,0.63,0.01,0.81-0.25c0.25-0.38,3.4-7.82,3.52-8.31c0.35-1.42-0.21-3.43-2.06-2.52
			c-9.14,4.48-21.18,1.12-22.41,1.53c-1.2,0.38-1.99,1.21-2.28,2.38c-0.32,1.07-2.63,14.55-2.92,16.34
			c-0.64-0.98-1.38-1.85-2.25-2.58c-1.33-1.11-2.93-1.97-4.76-2.55c-1.81-0.58-3.84-0.87-6.02-0.87c-1.88,0-3.67,0.32-5.33,0.96
			c-1.65,0.63-3.17,1.54-4.49,2.7c-1.28,1.12-2.29,2.46-3.01,3.98c-0.78,1.54-1.18,3.26-1.17,5.08c-0.06,0.83,0.06,1.67,0.35,2.5
			c0.35,0.99,1.14,1.52,2.31,1.52c0.73,0,1.34-0.32,1.76-0.93c0.34-0.49,0.65-1.08,0.93-1.78c0.32-0.76,0.66-1.54,1.02-2.33
			c0.4-0.77,0.89-1.48,1.46-2.12c0.53-0.64,1.25-1.18,2.13-1.61c0.92-0.46,2.09-0.7,3.48-0.7c0.76,0,1.56,0.19,2.39,0.56
			c0.83,0.38,1.55,0.87,2.17,1.51c0.63,0.56,1.16,1.25,1.56,2.06c0.39,0.74,0.58,1.5,0.58,2.28c0,1.34-0.47,2.96-1.39,4.82
			c-0.69,1.44-1.56,2.98-2.58,4.59c-0.29,0.46-0.59,0.92-0.9,1.38c-0.43,0.67-0.89,1.34-1.35,2.03c-1.02,1.5-2.11,3.04-3.27,4.59
			c-1.71,2.29-3.38,4.53-5.04,6.72c-1.6,2.14-3.11,4.22-4.49,6.21c-1.34,2-2.38,3.77-3.08,5.26c-0.03,0.07-0.05,0.14-0.05,0.22
			c0,0.91,0.57,1.28,0.85,1.39c0.05,0.03,0.1,0.04,0.15,0.07c0.01-0.19,0.02-0.3,0.02-0.3l0.87,0.61c0.13,0.03,0.25,0.07,0.38,0.08
			c0.52,0.06,27,0.38,27.44,0.38c0.85,0,1.71-0.05,2.59-0.15c1.23-0.2,2.46-0.47,3.69-0.8c1.19-0.4,2.28-0.96,3.2-1.67
			c1.42-1,2.71-2.38,3.84-4.07c1.09-1.58,1.72-3.21,1.89-4.85l0.03-0.33c0.09-0.82,0.04-1.77-0.14-2.82
			c-0.12-1.07-0.43-2.12-0.9-3.09c-0.44-0.94-1.02-1.77-1.74-2.46c-0.81-0.72-3.54-2.16-5.71-0.31c-2.33,2.54,0.48,4.93,1.17,5.72
			c0.53,0.52,5.09,7.24-9.71,7.24c-5.44,0-15.14-0.33-15.51-0.26c0.72-1.22,1.54-2.48,2.47-3.74c1.28-1.63,2.61-3.31,3.99-5.03
			c1.42-1.71,2.85-3.48,4.24-5.28c0.87-1.09,1.69-2.2,2.49-3.32c0.47-0.67,0.95-1.34,1.39-2.01
			C72.25,137.28,72.52,136.82,72.78,136.36z"/>
		<path class="st5" d="M105.06,139.75h0.3h0.14c0.54-0.93,1.53-2.21,2.51-3.35c-0.2,0-0.39,0-0.59,0l0,0l-2.72,0l-10.49-0.02
			l-2.35,0v0.01c-6.35-0.01-12.78-0.02-19.09-0.03c-0.26,0.46-0.53,0.93-0.82,1.39c-0.44,0.67-0.92,1.34-1.39,2.01h21.29h2.98
			H105.06z"/>
	</g>
</g>
</svg>
