<?xml version="1.0" encoding="utf-8"?>
<!-- Generator: Adobe Illustrator 27.2.0, SVG Export Plug-In . SVG Version: 6.00 Build 0)  -->
<svg version="1.1" id="Layer_1" xmlns="http://www.w3.org/2000/svg" xmlns:xlink="http://www.w3.org/1999/xlink" x="0px" y="0px"
	 viewBox="0 0 241.44 176.66" style="enable-background:new 0 0 241.44 176.66;" xml:space="preserve">
<style type="text/css">
	.st0{fill:#FFFFFF;}
	.st1{fill:#CE0E2D;}
	.st2{fill-rule:evenodd;clip-rule:evenodd;fill:#FFFFFF;}
	.st3{fill:#3D3935;}
	.st4{fill:#6F7271;}
	.st5{fill-rule:evenodd;clip-rule:evenodd;}
	.st6{fill-rule:evenodd;clip-rule:evenodd;fill:#3D3935;}
	.st7{fill-rule:evenodd;clip-rule:evenodd;fill:#BC955C;}
	.st8{fill:#BC955C;}
	.st9{fill:#010101;}
</style>
<g>
	<g>
		<circle class="st0" cx="121.45" cy="88.33" r="86.11"/>
		<path class="st0" d="M121.45,176.66c-48.71,0-88.33-39.62-88.33-88.33C33.12,39.62,72.74,0,121.45,0
			c48.7,0,88.33,39.62,88.33,88.33C209.78,137.03,170.15,176.66,121.45,176.66z M121.45,4.44c-46.26,0-83.89,37.63-83.89,83.89
			c0,46.26,37.63,83.89,83.89,83.89c46.26,0,83.89-37.63,83.89-83.89C205.34,42.07,167.71,4.44,121.45,4.44z"/>
	</g>
	<g>
		<circle class="st0" cx="121.45" cy="88.33" r="75.84"/>
		<path class="st0" d="M121.45,166.38c-43.04,0-78.05-35.01-78.05-78.05s35.01-78.05,78.05-78.05c43.04,0,78.05,35.01,78.05,78.05
			S164.49,166.38,121.45,166.38z M121.45,14.71c-40.59,0-73.62,33.03-73.62,73.62s33.03,73.62,73.62,73.62s73.62-33.03,73.62-73.62
			S162.04,14.71,121.45,14.71z"/>
	</g>
	<circle class="st1" cx="121.45" cy="88.33" r="75.84"/>
	<g>
		<g>
			<path class="st0" d="M225.13,107.6h-13.37c-0.51,0-1-0.14-1.42-0.41c-0.42,0.27-0.91,0.41-1.42,0.41h-7.63
				c-0.61,0-1.19-0.21-1.67-0.59l-7.58-6.08H45.28c1.04,2.03,1.11,3.35,0.08,4.49c-1.35,1.5-2.42,1.23-10.4-1.35
				c-4.26-1.38-9.01-3.03-11.84-4.12c-2.76-1.06-4.42-1.7-4.42-3.73c0-1.98,1.5-2.62,4.79-4.01c2.86-1.21,7.45-3.02,11.7-4.59
				c7.82-2.91,8.64-3.21,10.05-1.85c1.43,1.38,0.93,2.84-0.39,5.15c23.74,0.04,134.5,0.22,147.17,0.24l7.11-6.02
				c0.48-0.41,1.09-0.63,1.72-0.63h1.28c0.53,0,1.04,0.16,1.47,0.44c0.42-0.28,0.92-0.44,1.47-0.44h7.88c0.68,0,1.32,0.26,1.8,0.7
				l0.4-0.27c0.43-0.29,0.94-0.44,1.46-0.44h7.87c1.04,0,1.98,0.6,2.42,1.55c0.43,0.94,0.28,2.05-0.39,2.84l-4.6,5.4
				c0.08,0.32,0.14,0.69,0.14,1.1c0,0.57-0.04,1.07-0.11,1.51c0.6,0.65,1.34,1.47,2.09,2.3c3.19,3.57,4.39,4.91,3.59,6.76
				C227.19,106.94,226.19,107.6,225.13,107.6z M212.62,102.27h7c-0.9-1-1.88-2.07-2.8-3.05c-0.72-0.77-0.92-1.9-0.5-2.88
				c0.03-0.08,0.07-0.16,0.11-0.23c-0.14-0.15-0.26-0.32-0.36-0.5c-0.54-0.97-0.42-2.18,0.3-3.02l2.35-2.75h-1.3l-4.29,2.83
				c-0.97,0.64-2.24,0.58-3.14-0.16c-0.8-0.65-1.15-1.69-0.91-2.68h-4c-0.43,0-0.84-0.1-1.2-0.29l-1.51,2.75
				c-0.71,1.29-2.32,1.76-3.61,1.06c-0.22-0.12-0.41-0.26-0.58-0.43l-3.45,2.92c-0.08,0.07-0.17,0.14-0.26,0.2
				c0.07,0.04,0.13,0.09,0.19,0.14l7.58,6.08h2.45c-0.22-0.95,0.1-1.96,0.87-2.62c0.93-0.8,2.29-0.85,3.29-0.13L212.62,102.27z
				 M28.01,96.09c3.08,1.1,6.96,2.41,10.08,3.4c-0.4-0.76-0.4-1.68,0-2.46c0.25-0.47,0.62-0.85,1.07-1.1
				c-0.47-0.24-0.87-0.61-1.14-1.08c-0.5-0.88-0.48-1.61-0.06-2.6C34.84,93.42,31.03,94.88,28.01,96.09z M218.8,96.94
				C218.8,96.94,218.79,96.95,218.8,96.94C218.79,96.95,218.8,96.94,218.8,96.94z"/>
			<path class="st0" d="M225.13,109.81h-13.37c-0.49,0-0.97-0.07-1.42-0.21c-0.46,0.14-0.94,0.21-1.42,0.21h-7.63
				c-1.11,0-2.19-0.38-3.05-1.07l-6.97-5.59H48.3c0.1,1.19-0.17,2.52-1.3,3.77c-2.37,2.62-4.56,1.91-12.72-0.73
				c-4.28-1.38-9.09-3.06-11.95-4.16c-2.87-1.11-5.84-2.25-5.84-5.8c0-3.45,2.71-4.6,6.14-6.05c2.89-1.22,7.52-3.04,11.79-4.63
				c8.24-3.06,9.95-3.7,12.36-1.36c1.52,1.47,1.72,3.08,1.42,4.53c28.74,0.05,127.7,0.21,143.01,0.24l6.48-5.49
				c0.88-0.74,2-1.15,3.15-1.15h1.28c0.5,0,0.99,0.08,1.47,0.22c0.47-0.15,0.96-0.22,1.47-0.22h7.88c0.64,0,1.26,0.12,1.84,0.36
				c0.58-0.24,1.2-0.36,1.84-0.36h7.87c1.9,0,3.64,1.11,4.43,2.83c0.79,1.72,0.51,3.77-0.72,5.21l-3.95,4.63
				c0.01,0.14,0.01,0.29,0.01,0.43c0,0.25-0.01,0.5-0.02,0.74c0.45,0.49,0.94,1.04,1.44,1.59c3.44,3.85,5.33,5.97,3.97,9.12
				C228.88,108.62,227.06,109.81,225.13,109.81z M210.33,104.56l1.19,0.75c0.07,0.04,0.15,0.07,0.24,0.07h13.37
				c0.18,0,0.38-0.13,0.45-0.29c0.23-0.52-0.94-1.87-3.21-4.4c-0.74-0.83-1.48-1.64-2.07-2.28l-0.73-0.79l0.17-1.06
				c0.05-0.34,0.08-0.73,0.08-1.16c0-0.2-0.02-0.38-0.06-0.54l-0.29-1.12l5.35-6.28c0.11-0.13,0.14-0.32,0.07-0.47
				c-0.07-0.16-0.23-0.26-0.4-0.26h-7.87c-0.09,0-0.17,0.02-0.24,0.07l-1.85,1.22l-1.27-1.18c-0.08-0.08-0.19-0.12-0.3-0.12h-7.88
				c-0.09,0-0.17,0.02-0.24,0.07l-0.64,0.42l0.68,0.35c0.06,0.03,0.13,0.05,0.2,0.05h6.8l-0.64,2.73c-0.04,0.16,0.02,0.34,0.15,0.44
				c0.15,0.12,0.36,0.13,0.52,0.03l4.85-3.2h6.77l-5.46,6.41c-0.12,0.14-0.14,0.34-0.05,0.5c0.02,0.03,0.04,0.06,0.06,0.08
				l0.31,0.34l-0.04-0.17l0.23-0.05h0.23v0.68l0.35,0.38l-0.35,0.63v0.53l0.31,1.49c0.72,0.78,1.46,1.59,2.16,2.36l3.33,3.7h-12.7
				l-4.37-3.17c-0.17-0.12-0.39-0.11-0.55,0.02c-0.15,0.13-0.18,0.31-0.15,0.44l0.62,2.71h-6.01l-8.18-6.57l-2.8-1.85l2.77-1.87
				l5.04-4.26l1.44,1.4c0.03,0.03,0.06,0.05,0.09,0.07c0.14,0.07,0.26,0.06,0.34,0.04c0.08-0.02,0.19-0.08,0.26-0.21l2.3-4.21
				l-0.34-0.23c-0.05-0.03-0.13-0.07-0.24-0.07h-1.28c-0.1,0-0.21,0.04-0.29,0.1l-7.73,6.54l-0.81,0
				c-12.67-0.02-123.43-0.21-147.17-0.24l-3.82-0.01l1.9-3.31c0.94-1.64,0.98-2.1,0.96-2.22l0,0c0,0-0.03-0.08-0.19-0.23
				c-0.09-0.08-0.14-0.13-0.18-0.16c-0.76-0.01-3.63,1.03-7.56,2.49c-4.21,1.57-8.77,3.35-11.6,4.55c-2.86,1.21-3.44,1.54-3.44,1.97
				c0,0.41,0.56,0.72,3,1.66c2.8,1.08,7.51,2.72,11.72,4.08c3.51,1.14,7.14,2.3,7.91,2.15c0-0.01,0.06-0.06,0.16-0.18
				c0.15-0.16,0.39-0.43-0.41-2l-1.65-3.23h151.17l8.18,6.57c0.08,0.06,0.18,0.1,0.28,0.1h7.63c0.11,0,0.19-0.04,0.24-0.07
				L210.33,104.56z M213.34,100.06h1.33c-0.7-1.08-0.94-2.4-0.68-3.65c-0.22-0.47-0.36-0.96-0.43-1.46
				c-1.64,0.7-3.55,0.45-4.98-0.71c-0.71-0.58-1.23-1.34-1.53-2.18h-1.99c-0.01,0-0.03,0-0.04,0l-0.72,1.31
				c-0.63,1.14-1.66,1.97-2.91,2.34c-0.99,0.29-2.02,0.26-2.98-0.08l-0.45,0.38l4.78,3.84c0.29-0.71,0.75-1.36,1.36-1.88
				c1.72-1.46,4.2-1.56,6.02-0.24L213.34,100.06z M218.71,96.57l-0.34,0.62c-0.09,0.2-0.06,0.39,0.06,0.52
				c0.12,0.13,0.24,0.25,0.36,0.38v-1.14L218.71,96.57z M42.52,103.22l-5.1-1.62c-3.15-1-7.05-2.31-10.16-3.42l-5.5-1.96l5.41-2.18
				c2.91-1.17,6.75-2.65,10.02-3.85l4.79-1.77l-1.98,4.71c-0.18,0.42-0.16,0.45-0.05,0.65c0.04,0.08,0.12,0.14,0.21,0.19l3.75,1.89
				l-3.67,2.03c-0.05,0.03-0.13,0.08-0.18,0.18c-0.07,0.13-0.07,0.28,0,0.41L42.52,103.22z M34.43,95.96c0.5,0.17,1,0.33,1.5,0.5
				c0.06-0.15,0.13-0.3,0.21-0.45c-0.01-0.02-0.02-0.04-0.03-0.05c-0.1-0.18-0.19-0.36-0.26-0.53
				C35.37,95.61,34.9,95.78,34.43,95.96z"/>
		</g>
		<g>
			<path class="st0" d="M205.06,87.18h7.88l-1.29,3.27l4.96-3.27h7.87l-6.09,7.14c0,0,0.99-0.15,0.99,1.09c0,1.24-0.07,2-0.62,2
				c0,0,7.05,7.53,6.37,7.53c-0.92,0-13.37,0-13.37,0l-4.49-3.25l1.64,3.25h-7.63l-8.31-6.67H40.45c0,0,3.39,4.87,2.93,5.37
				c-0.45,0.5-22.02-6.78-22.02-7.42s21.65-8.89,22.02-8.54c0.37,0.35-3.47,5.89-3.01,5.89s152.62,0.25,152.62,0.25l7.85-6.65h1.28
				l-2.11,3.85"/>
			<path class="st0" d="M225.13,107.15H200.5l-8.31-6.67H44.53c1.38,2.43,1.43,3.62,0.5,4.64c-1.1,1.22-2.03,1.08-9.93-1.48
				c-4.25-1.37-9-3.03-11.81-4.11c-2.75-1.06-4.14-1.59-4.14-3.32c0-1.69,1.23-2.21,4.52-3.6c2.86-1.21,7.44-3.01,11.68-4.59
				c7.99-2.97,8.44-3.06,9.59-1.95c1.33,1.29,0.72,2.62-0.86,5.27c22.1,0.04,136.13,0.23,148.11,0.25l7.85-6.65l21.38,9.23
				c0.11,0.34,0.18,0.74,0.18,1.21c0,0.37,0,1-0.12,1.66c0.62,0.67,1.42,1.55,2.22,2.44c3.4,3.8,4.17,4.76,3.51,6.28l-0.58,1.34
				L225.13,107.15z M212.47,102.72h8.13c-1.06-1.2-2.31-2.56-3.47-3.8l-1.77-1.89l-2.54,0.39l1.38-1.62l-0.57-0.61h1.09l4.94-5.79
				h-2.4l-10.26,6.77l2.67-6.77h-4.62v-2.96l-3.1,5.65l-2.12-1.16l-6.04,5.12l-0.81,0c-1.52,0-152.06-0.25-152.61-0.25l-1.29,0
				l-0.67-1.14c-0.55-0.98-0.37-1.72,0.45-3.19c-3.67,1.34-8.61,3.25-12.08,4.67c3.59,1.31,8.72,3.04,12.36,4.17
				c-0.17-0.25-0.34-0.51-0.51-0.76l-2.42-3.48h157.55l8.31,6.67h3.24l-0.02-0.04l-4.11-8.15L212.47,102.72z"/>
		</g>
	</g>
	<g>
		<path class="st0" d="M237.25,147.55l-0.03-30.56c0-0.01,0.04-0.8,0.99-2.45c1.33-2.3,1.34-5.17,0.02-7.49
			c-1.27-2.22-3.53-3.56-6.04-3.58l-7.82-0.07c-0.86,0-1.71,0.16-2.49,0.46c-0.81-0.32-1.67-0.5-2.54-0.5l-7.81-0.06
			c-0.6,0-1.21,0.08-1.79,0.23c-1.05-0.57-2.21-0.87-3.45-0.87c-0.72,0-1.39,0.1-2.33,0.24c-0.74,0.11-1.85,0.27-2.48,0.27h0
			l-5.65-0.03c-0.06,0-0.12-0.01-0.18-0.01c-0.05,0-0.07,0-7.97-0.05c-1.23,0-2.44,0.33-3.5,0.93c-2.05-1.07-4.3-1.63-6.61-1.63
			l-0.2,0c-4.2,0.05-7.97,1.68-10.9,4.69c-0.09,0.09-0.18,0.19-0.27,0.28c-0.28-0.27-0.56-0.53-0.86-0.78
			c-1.53-1.31-3.32-2.36-5.36-3.12c-1.95-0.71-4.15-1.08-6.54-1.08c-1.57,0-3.15,0.13-4.65,0.38l-0.26,0.04
			c-0.79,0.12-0.92,0.14-2.13,0.17l-0.92,0c-0.47,0-0.94,0.05-1.4,0.14c-0.47-0.09-0.94-0.14-1.42-0.14l-7.77-0.01
			c-0.93,0-1.83,0.17-2.67,0.51c-0.85-0.34-1.76-0.52-2.7-0.52l-7.76,0c-0.29,0-0.58,0.02-0.86,0.05c-0.37-0.06-0.75-0.09-1.14-0.09
			l-7.76,0c-0.1,0-0.2,0-0.31,0.01l-5.74,0c-0.23,0-0.56-0.09-0.96-0.18c-0.65-0.16-1.54-0.39-2.61-0.39
			c-1.29,0-2.55,0.33-3.66,0.96c-0.7-0.22-1.45-0.34-2.2-0.34l-7.76,0.02c-0.93,0-1.84,0.18-2.69,0.53
			c-0.84-0.34-1.75-0.51-2.69-0.51l-7.76,0.03c-1.07,0-2.13,0.25-3.08,0.71c-0.63-0.42-1.28-0.73-1.96-0.93
			c-0.66-0.18-1.33-0.27-1.99-0.27c-1.19,0-2.14,0.29-2.74,0.52c-4.18,0.02-8.35,0.04-12.52,0.06c-0.61,0-1.21,0.08-1.79,0.23
			c-0.57-0.14-1.16-0.21-1.77-0.21l-7.75,0.05c-0.89,0-1.75,0.17-2.56,0.49c-0.8-0.3-1.66-0.46-2.55-0.46l-7.75,0.06
			c-0.89,0.01-1.77,0.19-2.6,0.52c-1.94-0.92-4.16-0.94-6.08-0.08c-0.96-0.23-1.93-0.34-2.92-0.34l-0.11,0
			c-1.89,0.02-3.73,0.44-5.52,1.26c-1.6,0.77-3.06,1.86-4.34,3.24c-0.07,0.08-0.14,0.16-0.22,0.25c-1.19,1.43-2.14,3.11-2.8,5
			c-0.68,1.94-1.03,4-1.03,6.12c0,8.92,5.21,13.7,8.66,16.87c2.7,2.48,3.43,3.34,3.43,4.64c-0.01,1.17-0.25,2.18-0.7,2.88
			c-0.29,0.45-0.56,0.69-0.81,0.83c-0.2-0.11-0.4-0.21-0.59-0.31c-0.84-0.58-2.39-1.63-4.6-1.63c-2.11,0-4.06,0.96-5.33,2.64
			c-0.74,0.97-1.87,3.03-1.15,5.84c0.59,2.53,1.45,5.72,1.86,7.25l0.08,0.31c0.97,3.64,4.02,5.27,6.62,5.27
			c1.78,0,3.38-0.65,4.68-1.88c0.87-0.11,1.9-0.29,2.91-0.62c1.87-0.6,5.65-2.64,8.98-6.69c1.13,0.21,2.33,0.14,3.43-0.22
			c2.4-0.77,4.82-1.51,7.22-2.22c0.9-0.27,1.74-0.71,2.48-1.3c0.92,0.12,1.89,0.06,2.79-0.19c2.41-0.66,4.85-1.29,7.25-1.89
			c0.63-0.16,1.24-0.4,1.81-0.73c0.66,0.03,1.32-0.03,1.96-0.18c0.14-0.03,0.29-0.07,0.42-0.11c1.61-0.39,10.42-2.25,11.73-2.47
			c0.13-0.02,0.26-0.04,0.39-0.06c0.33-0.06,0.53-0.07,0.62-0.07c0.03,0,0.05,0,0.03-0.01c0.05,0.02,0.1,0.04,0.15,0.06
			c0.54,0.21,1.54,0.6,2.9,0.6c1.88,0,3.65-0.78,4.92-2.11c0.23-0.01,0.46-0.04,0.68-0.07c2.42-0.37,4.88-0.72,7.31-1.04
			c0.97-0.13,1.9-0.45,2.74-0.94c0.67,0.21,1.38,0.31,2.09,0.31c0.23,0,0.57-0.02,0.79-0.04c2.44-0.27,4.91-0.51,7.33-0.71
			c0.31-0.03,0.62-0.07,0.93-0.14c0.13,0.01,0.26,0.01,0.38,0.01c0.16,0,0.4-0.01,0.56-0.02c2.42-0.19,4.89-0.35,7.33-0.47
			c1.12-0.06,2.22-0.38,3.19-0.93c0.92,0.42,1.93,0.63,2.97,0.63c0.07,0,0.17,0,0.22,0c2.44-0.07,4.91-0.11,7.34-0.12
			c0.35,0,0.69-0.03,1.03-0.08c0.41,0.07,0.84,0.11,1.26,0.11c2.44,0.01,4.91,0.05,7.35,0.12l0.21,0c0.9,0,1.79-0.17,2.62-0.49
			c0.87,0.42,1.82,0.66,2.8,0.71c0.77,0.04,1.54,0.08,2.31,0.12c0.56,0.6,1.15,1.14,1.77,1.62c0.91,0.73,1.95,1.35,3.1,1.86
			c0.09,0.04,0.18,0.08,0.27,0.11c0.81,0.32,1.64,0.61,2.46,0.87c0.09,0.03,0.17,0.05,0.26,0.08c0.95,0.26,1.92,0.47,2.88,0.61
			c0.83,0.15,1.62,0.27,2.34,0.36c3.82,0.46,7.15,0.16,9.97-0.87c2.72-0.97,5.04-2.46,6.93-4.44c2.56,2.77,5.77,4.61,9.41,5.39
			c2.4,0.52,4.8,0.43,6.98-0.24c0.92,0.88,2.07,1.5,3.34,1.8c2.41,0.56,4.85,1.16,7.24,1.78c1.09,0.28,2.23,0.3,3.31,0.06
			c0.84,0.79,1.86,1.38,2.98,1.69c2.4,0.68,4.83,1.4,7.2,2.13c0.4,0.13,0.82,0.22,1.23,0.27c0.37,0.19,0.76,0.36,1.15,0.48
			c2.38,0.76,4.8,1.56,7.17,2.38c0.91,0.32,1.87,0.44,2.82,0.37c0.7,0.65,1.53,1.17,2.42,1.5c2.37,0.87,4.77,1.78,7.12,2.71
			c0.82,0.33,1.69,0.49,2.57,0.49c2.31,0,4.46-1.16,5.75-3.1c1.37-2.06,1.58-4.7,0.59-7.05
			C237.31,148.99,237.26,147.77,237.25,147.55z"/>
		<path class="st0" d="M11.01,166.08c-3.44,0-7.48-2.14-8.76-6.91l-0.08-0.31c-0.41-1.54-1.28-4.75-1.87-7.32
			c-0.94-3.67,0.57-6.39,1.55-7.68c1.7-2.23,4.29-3.51,7.1-3.51c1.86,0,3.36,0.57,4.44,1.14c0.03-0.2,0.05-0.44,0.05-0.71
			c0-0.38-0.68-1.13-2.71-2.99c-3.51-3.22-9.38-8.61-9.38-18.5c0-2.38,0.39-4.69,1.16-6.86c0.75-2.14,1.83-4.06,3.19-5.69
			c0.1-0.12,0.19-0.22,0.28-0.32c1.47-1.6,3.16-2.85,5.01-3.74c2.09-0.97,4.25-1.46,6.46-1.48l0.12,0c0.92,0,10.74-0.09,11.59-0.1
			l7.75-0.06c0.88,0,1.73,0.11,2.54,0.34c0.83-0.25,1.69-0.37,2.57-0.38l7.75-0.05c0.6,0,1.19,0.05,1.76,0.16
			c0.59-0.12,1.19-0.18,1.79-0.18c4.03-0.02,8.08-0.04,12.13-0.06c1.85-0.63,3.82-0.69,5.71-0.18c0.54,0.15,1.05,0.36,1.55,0.61
			c0.93-0.31,1.92-0.47,2.89-0.47l7.76-0.03c0.93,0,1.83,0.13,2.69,0.38c0.87-0.26,1.77-0.4,2.69-0.4l7.76-0.02
			c0.66,0,1.32,0.07,1.96,0.2c1.23-0.54,2.56-0.83,3.91-0.83c1.35,0,2.44,0.27,3.16,0.46c0.19,0.05,0.35,0.09,0.49,0.12l5.61,0
			c0.12-0.01,0.24-0.01,0.35-0.01l7.76,0c0.4,0,0.79,0.03,1.18,0.07c0.27-0.02,0.55-0.04,0.82-0.04l7.77,0
			c0.92,0,1.83,0.13,2.7,0.39c0.86-0.25,1.76-0.38,2.67-0.38l7.78,0.01c0.48,0,0.95,0.04,1.42,0.11c0.46-0.07,0.93-0.1,1.39-0.1
			l0.93,0c1.01-0.03,1.05-0.03,1.79-0.14l0.27-0.04c1.6-0.27,3.29-0.41,4.98-0.41c2.66,0,5.11,0.41,7.31,1.21
			c2,0.76,3.8,1.76,5.38,2.99c3.15-2.7,6.99-4.14,11.21-4.19l0.21,0c2.31,0,4.53,0.47,6.63,1.39c1.11-0.45,2.3-0.69,3.5-0.69
			c7.94,0.04,7.95,0.04,8.04,0.05l0.17,0.01l5.6,0.03c0.46,0,1.6-0.17,2.15-0.25c0.99-0.15,1.77-0.26,2.65-0.26
			c1.32,0,2.57,0.26,3.73,0.76c0.5-0.08,1-0.12,1.51-0.12l7.83,0.06c0.87,0.01,1.72,0.13,2.55,0.38c0.8-0.22,1.63-0.34,2.47-0.34
			l7.84,0.07c3.31,0.02,6.28,1.78,7.95,4.7c1.72,3,1.71,6.72-0.02,9.7c-0.49,0.84-0.65,1.35-0.69,1.52l0.03,30.36
			c0,0.07,0.08,1.05,0.98,3.2c1.28,3.04,0.99,6.46-0.79,9.14c-1.7,2.56-4.54,4.09-7.59,4.09c-1.16,0-2.3-0.22-3.39-0.65
			c-2.34-0.92-4.72-1.82-7.06-2.68c-0.88-0.32-1.7-0.78-2.44-1.34c-0.94-0.03-1.86-0.2-2.76-0.51c-2.35-0.81-4.74-1.61-7.12-2.37
			c-0.39-0.13-0.78-0.28-1.15-0.45c-0.41-0.07-0.82-0.17-1.22-0.29c-2.37-0.73-4.77-1.45-7.15-2.12c-1.08-0.31-2.11-0.81-3.02-1.49
			c-1.08,0.1-2.17,0.02-3.23-0.26c-2.37-0.61-4.79-1.21-7.19-1.77c-1.21-0.28-2.36-0.81-3.36-1.53c-2.22,0.49-4.59,0.48-6.92-0.02
			c-3.33-0.71-6.39-2.25-8.97-4.5c-1.79,1.48-3.85,2.65-6.15,3.48c-3.15,1.15-6.85,1.48-10.99,0.98c-0.76-0.09-1.59-0.22-2.47-0.37
			c-0.99-0.15-2.04-0.37-3.08-0.66c-0.1-0.03-0.22-0.06-0.34-0.1c-0.87-0.28-1.74-0.58-2.59-0.92c-0.1-0.04-0.23-0.09-0.36-0.15
			c-1.32-0.58-2.52-1.31-3.58-2.16c-0.46-0.35-0.92-0.75-1.37-1.18c-0.48-0.03-0.96-0.05-1.44-0.07c-0.96-0.05-1.89-0.23-2.78-0.56
			c-0.82,0.23-1.67,0.35-2.53,0.35l-0.24,0c-2.45-0.07-4.9-0.11-7.32-0.12c-0.43,0-0.86-0.03-1.29-0.09
			c-0.33,0.04-0.66,0.05-0.99,0.06c-2.43,0.01-4.88,0.05-7.29,0.12c-0.06,0-0.19,0-0.28,0c-0.98,0-1.94-0.15-2.86-0.44
			c-1.01,0.42-2.09,0.67-3.18,0.73c-2.41,0.12-4.86,0.28-7.28,0.47c-0.21,0.02-0.53,0.03-0.73,0.03c-0.07,0-0.14,0-0.21,0
			c-0.31,0.06-0.62,0.1-0.92,0.12c-2.4,0.2-4.84,0.44-7.28,0.7c-0.3,0.03-0.73,0.06-1.03,0.06c-0.61,0-1.22-0.06-1.81-0.18
			c-0.87,0.4-1.78,0.66-2.73,0.79c-2.42,0.31-4.86,0.66-7.26,1.03c-0.01,0-0.03,0-0.04,0.01c-1.63,1.41-3.74,2.2-5.9,2.2
			c-1.48,0-2.63-0.35-3.34-0.61c-0.15,0.03-0.29,0.05-0.43,0.07c-1.39,0.24-9.8,2.02-11.48,2.42c-0.16,0.05-0.33,0.09-0.5,0.13
			c-0.64,0.15-1.28,0.23-1.93,0.24c-0.58,0.28-1.19,0.5-1.81,0.66c-2.4,0.59-4.83,1.23-7.2,1.88c-0.88,0.24-1.82,0.36-2.73,0.33
			c-0.77,0.51-1.61,0.9-2.49,1.16c-2.39,0.7-4.8,1.44-7.17,2.2c-1.02,0.33-2.1,0.48-3.18,0.44c-3.27,3.64-6.95,5.75-9.23,6.48
			c-0.8,0.26-1.66,0.46-2.62,0.61C15.04,165.39,13.11,166.08,11.01,166.08z M8.94,144.78c-1.42,0-2.72,0.64-3.57,1.76
			c-0.61,0.8-1.23,2.13-0.77,3.95c0.59,2.53,1.44,5.7,1.85,7.22l0.08,0.32c0.67,2.5,2.73,3.62,4.47,3.62c1.2,0,2.26-0.43,3.15-1.27
			l0.53-0.5l0.72-0.09c0.95-0.12,1.79-0.3,2.51-0.53c1.53-0.49,4.91-2.29,7.95-5.99l0.83-1.01l1.29,0.24
			c0.77,0.14,1.6,0.09,2.33-0.15c2.41-0.77,4.86-1.52,7.28-2.23c0.61-0.18,1.2-0.49,1.71-0.9l0.74-0.6l0.94,0.13
			c0.63,0.08,1.28,0.04,1.9-0.13c2.42-0.66,4.87-1.3,7.31-1.9c0.43-0.11,0.85-0.28,1.25-0.5l0.56-0.32l0.64,0.03
			c0.45,0.02,0.91-0.02,1.35-0.12c0.09-0.02,0.19-0.05,0.28-0.08l0.12-0.03c1.65-0.4,10.54-2.27,11.88-2.5l0.1-0.02
			c0.09-0.01,0.18-0.02,0.27-0.04c0.35-0.06,0.67-0.1,0.95-0.1l0.02,0c0.02,0,0.03,0,0.05,0l0.02,2.11l0.71-2
			c0.07,0.02,0.13,0.05,0.2,0.07l0.48,0.18c0.44,0.15,0.99,0.29,1.67,0.29c1.24,0,2.45-0.52,3.32-1.42l0.6-0.63l0.87-0.05
			c0.16-0.01,0.32-0.03,0.47-0.05c2.43-0.38,4.91-0.73,7.37-1.05c0.66-0.09,1.31-0.31,1.9-0.65l0.84-0.5l0.93,0.29
			c0.47,0.14,0.95,0.22,1.44,0.22c0.16,0,0.39-0.01,0.55-0.03c2.47-0.27,4.96-0.51,7.39-0.71c0.21-0.02,0.43-0.05,0.64-0.1l0.3-0.06
			l0.3,0.02c0.09,0.01,0.17,0.01,0.26,0.01c0.11,0,0.28-0.01,0.39-0.02c2.45-0.19,4.94-0.35,7.39-0.48
			c0.77-0.04,1.53-0.26,2.21-0.64l0.98-0.55l1.02,0.46c0.64,0.29,1.33,0.44,2.06,0.44l0.15,0c2.44-0.07,4.93-0.11,7.4-0.12
			c0.24,0,0.48-0.02,0.72-0.05l0.36-0.05l0.36,0.06c0.29,0.05,0.58,0.08,0.88,0.08c2.46,0.01,4.95,0.05,7.4,0.12l0.18,0
			c0.58,0,1.21-0.12,1.78-0.34l0.9-0.35l0.87,0.42c0.6,0.29,1.28,0.46,1.95,0.5c0.78,0.04,1.55,0.08,2.33,0.12l0.89,0.05l0.61,0.66
			c0.47,0.51,0.97,0.97,1.49,1.37c0.8,0.64,1.68,1.16,2.65,1.59c0.06,0.02,0.11,0.05,0.16,0.07c0.78,0.3,1.56,0.58,2.34,0.83
			c0.06,0.02,0.1,0.03,0.15,0.04c0.88,0.24,1.77,0.43,2.64,0.56c0.85,0.15,1.6,0.26,2.28,0.35c3.44,0.41,6.45,0.16,8.95-0.75
			c2.4-0.86,4.44-2.17,6.09-3.89l1.63-1.71l1.6,1.73c2.27,2.45,5.05,4.04,8.25,4.73c2.02,0.44,4.04,0.37,5.86-0.19l1.24-0.38
			l0.94,0.89c0.65,0.61,1.45,1.05,2.32,1.25c2.43,0.57,4.89,1.17,7.29,1.79c0.75,0.2,1.53,0.21,2.27,0.05l1.15-0.26l0.86,0.8
			c0.59,0.55,1.31,0.96,2.07,1.18c2.41,0.68,4.85,1.41,7.25,2.15c0.28,0.09,0.57,0.15,0.85,0.18l0.4,0.05l0.36,0.19
			c0.26,0.13,0.53,0.25,0.8,0.34c2.41,0.77,4.84,1.58,7.22,2.4c0.63,0.22,1.28,0.31,1.93,0.25l0.97-0.07l0.71,0.66
			c0.49,0.46,1.07,0.82,1.68,1.04c2.38,0.87,4.79,1.79,7.17,2.72c0.57,0.23,1.15,0.34,1.75,0.34c1.57,0,3.02-0.79,3.9-2.11
			c0.95-1.44,1.1-3.29,0.39-4.97c-1.15-2.74-1.33-4.25-1.33-4.9l-0.03-30.66c0.02-0.4,0.18-1.54,1.29-3.46
			c0.94-1.62,0.94-3.65,0.01-5.28c-0.88-1.53-2.42-2.45-4.13-2.46l-7.82-0.07c-0.57,0-1.14,0.1-1.69,0.31l-0.81,0.31l-0.81-0.32
			c-0.55-0.22-1.13-0.34-1.73-0.34l-7.82-0.06c-0.39,0-0.8,0.05-1.2,0.16l-0.86,0.23l-0.78-0.42c-0.73-0.4-1.53-0.6-2.39-0.6
			c-0.55,0-1.12,0.09-1.99,0.21c-1.07,0.16-2.08,0.3-2.82,0.3l-5.91-0.04c-0.07,0-0.73-0.01-7.9-0.04c-0.82,0-1.65,0.22-2.39,0.64
			l-1.05,0.6l-1.07-0.56c-1.75-0.91-3.63-1.38-5.58-1.38l-0.18,0c-3.58,0.05-6.81,1.44-9.33,4.02c-0.08,0.08-0.16,0.16-0.23,0.24
			l-1.55,1.67l-1.63-1.59c-0.24-0.24-0.49-0.47-0.75-0.69c-1.34-1.14-2.92-2.06-4.7-2.73c-1.68-0.62-3.63-0.93-5.76-0.93
			c-1.45,0-2.89,0.12-4.28,0.35l-0.3,0.05c-0.89,0.13-1.1,0.16-2.4,0.19l-0.99,0c-0.32,0-0.65,0.03-0.97,0.09l-0.43,0.09l-0.43-0.09
			c-0.32-0.06-0.66-0.1-0.99-0.1l-7.77-0.01c-0.64,0-1.26,0.12-1.85,0.35l-0.83,0.33l-0.82-0.33c-0.59-0.24-1.22-0.36-1.87-0.36
			l-7.77,0c-0.2,0-0.4,0.01-0.6,0.04l-0.31,0.04l-0.3-0.05c-0.26-0.04-0.53-0.06-0.8-0.06l-7.75,0c-0.07,0-0.13,0-0.2,0l-0.11,0
			l-5.74,0c-0.5,0-0.98-0.12-1.49-0.25c-0.57-0.14-1.28-0.32-2.08-0.32c-0.9,0-1.78,0.23-2.57,0.68l-0.84,0.47l-0.92-0.29
			c-0.49-0.16-1.01-0.23-1.53-0.23l-7.76,0.02c-0.65,0-1.27,0.12-1.86,0.36l-0.83,0.34l-0.83-0.33c-0.59-0.23-1.22-0.35-1.87-0.35
			l-7.75,0.03c-0.73,0-1.46,0.17-2.12,0.49l-1.15,0.56l-1.06-0.71c-0.43-0.29-0.88-0.51-1.33-0.63c-1.05-0.29-2.22-0.24-3.32,0.19
			l-0.38,0.15l-0.41,0c-4.18,0.02-8.35,0.04-12.52,0.06c-0.42,0-0.84,0.06-1.24,0.16l-0.55,0.14L51,105.52
			c-0.39-0.1-0.81-0.15-1.23-0.15l-7.74,0.05c-0.61,0-1.2,0.12-1.76,0.34l-0.8,0.32l-0.8-0.3c-0.56-0.21-1.15-0.32-1.76-0.32
			l-7.73,0.06c-0.61,0-1.2,0.12-1.78,0.36l-0.9,0.37l-0.88-0.42c-1.35-0.64-2.89-0.66-4.22-0.06l-0.69,0.31l-0.73-0.17
			c-0.79-0.19-1.6-0.28-2.4-0.28l-0.1,0c-1.56,0.01-3.11,0.37-4.6,1.06c-1.32,0.63-2.55,1.56-3.64,2.74
			c-0.04,0.05-0.09,0.1-0.15,0.17c-1.02,1.22-1.83,2.67-2.41,4.31c-0.6,1.7-0.91,3.51-0.91,5.39c0,7.94,4.59,12.15,7.95,15.23
			c2.73,2.51,4.16,3.93,4.14,6.29c-0.01,1.59-0.37,2.99-1.04,4.05c-0.47,0.72-0.98,1.23-1.59,1.58l-1.05,0.6l-1.9-1.01
			C11.62,145.55,10.49,144.78,8.94,144.78z M239.43,117.24L239.43,117.24L239.43,117.24z"/>
	</g>
	<g>
		<path class="st0" d="M207.61,91.01l-170.36-3.5l5.08-16.35l8.72-6.06c0.66-0.46,1.53-0.46,2.19-0.01l6.54,4.42l8.66-7
			c1.28-1.04,3.11-1.06,4.41-0.05l11.77,9.11l75.98-2.8l8.89-6.24c0.62-0.44,1.44-0.5,2.12-0.15l5.85,2.96l8.2-5.77
			c0.7-0.49,1.64-0.48,2.32,0.04l18.26,13.79L207.61,91.01z M42.24,83.92l161.37,3.31l-0.92-11.88l-15.93-12.03l-8.99,6.33
			l-6.95-3.52l-8.98,6.31l-78.41,2.89l-12.75-9.86l-10.7,8.65l-7.81-5.28l-6.69,4.65L42.24,83.92z"/>
	</g>
	<path d="M121.45,10.28c41.96,0,76.17,33.1,77.97,74.62c0.67-0.09,1.34-0.14,2.01-0.14c2.18,0,4.22,0.41,6.09,1.15
		c-1.28-46.44-39.33-83.69-86.08-83.69c-47.56,0-86.11,38.55-86.11,86.11c0,0.43,0.01,0.86,0.02,1.28c2.41-1.62,5.19-2.66,8.06-2.91
		C44.28,44.34,78.89,10.28,121.45,10.28z"/>
	<g>
		<path class="st2" d="M106.17,94.95c-0.61,0-1.17-0.24-1.6-0.68l-0.1-0.11l-4.39-4.47l6.09,1.67c0.21,0.06,0.42,0.11,0.63,0.15
			l0.12,0.03l-0.12,3.34C106.54,94.92,106.35,94.95,106.17,94.95L106.17,94.95z"/>
		<path class="st2" d="M106.75,95c-0.14-0.03-0.28-0.06-0.42-0.1l-0.19-0.05l0.11-3.34c0.15-0.02,0.3-0.04,0.45-0.04
			c0.57,0,1.11,0.21,1.54,0.59l4.64,4.19L106.75,95z"/>
		<path class="st2" d="M132.58,95.19c-0.45,0.12-0.9,0.19-1.38,0.19c-1.21,0-2.33-0.41-3.25-0.78l-0.04-0.01
			c-0.41-0.06-0.8-0.11-1.17-0.11c-0.53,0-1.21,0.1-2.16,0.83l-1,0.78l-1.03-0.74c-0.7-0.5-1.53-0.73-2.7-0.73
			c-0.76,0-1.56,0.09-2.41,0.19c-0.88,0.1-1.79,0.21-2.7,0.21c-1.27,0-3.15-0.17-4.8-1.69l-0.03-0.03c-0.9-0.53-1.87-0.97-2.89-1.41
			l4.23,4.36l-5.98-1.62c-4.73-1.28-9.47-4.02-13.08-7.3l-0.97,1.19c-6.88-3.27-11.71-10.18-13.6-19.47
			c-2.42-11.88,0.35-25.48,6.76-33.92c-4-3.2-5.37-10.09-3.75-14.91c2.05-6.11,7.37-9.9,13.88-9.9c0.16,0,0.32,0,0.48,0.01
			c2.88,0.08,4.55,1.83,5.9,3.23c1.36,1.42,2.2,2.22,3.75,2.22c0.53,0,1.13-0.1,1.8-0.3c0.42-0.12,0.86-0.27,1.35-0.43
			c2.74-0.89,6.87-2.23,13.19-2.23c4.51,0,9.58,0.69,15.08,2.06c0.59,0.15,1.12,0.22,1.59,0.22c1.58,0,2.29-0.78,3.52-2.28
			c1.21-1.48,2.72-3.32,5.65-3.51c0.38-0.03,0.76-0.04,1.14-0.04c6.2,0,11.36,3.6,13.46,9.39c1.72,4.76,0.51,11.7-3.42,15.05
			c6.48,8.07,9.58,21.39,7.57,33.23c-1.62,9.56-6.32,16.8-13.23,20.39l-0.5-0.57c-3.26,3.98-8.48,7.06-14.86,8.63l-6.18,1.53
			L132.58,95.19z"/>
	</g>
	<polygon points="39.14,71.89 36.31,124.45 208.83,126.29 206.05,74.37 	"/>
	<path d="M161.23,70.6l8.4-5.9c0.64-0.45,1.48-0.51,2.17-0.16l5.82,2.95l7.94-5.58c0.74-0.52,1.74-0.51,2.47,0.04l16.45,12.43
		l1.14,14.74l-165.87-3.4l4.16-13.39l7.29-5.07c0.58-0.4,1.35-0.41,1.93-0.01l6.75,4.57l9.1-7.35c0.98-0.8,2.39-0.81,3.39-0.04
		l11.66,9.02L161.23,70.6z"/>
	<g>
		<path d="M225.13,107.6h-13.37c-0.51,0-1-0.14-1.42-0.41c-0.42,0.27-0.91,0.41-1.42,0.41h-7.63c-0.61,0-1.19-0.21-1.67-0.59
			l-7.58-6.08H45.28c1.04,2.03,1.11,3.35,0.08,4.49c-1.35,1.5-2.42,1.23-10.4-1.35c-4.26-1.38-9.01-3.03-11.84-4.12
			c-2.76-1.06-4.42-1.7-4.42-3.73c0-1.98,1.5-2.62,4.79-4.01c2.86-1.21,7.45-3.02,11.7-4.59c7.82-2.91,8.64-3.21,10.05-1.85
			c1.43,1.38,0.93,2.84-0.39,5.15c23.74,0.04,134.5,0.22,147.17,0.24l7.11-6.02c0.48-0.41,1.09-0.63,1.72-0.63h1.28
			c0.53,0,1.04,0.16,1.47,0.44c0.42-0.28,0.92-0.44,1.47-0.44h7.88c0.68,0,1.32,0.26,1.8,0.7l0.4-0.27
			c0.43-0.29,0.94-0.44,1.46-0.44h7.87c1.04,0,1.98,0.6,2.42,1.55c0.43,0.94,0.28,2.05-0.39,2.84l-4.6,5.4
			c0.08,0.32,0.14,0.69,0.14,1.1c0,0.57-0.04,1.07-0.11,1.51c0.6,0.65,1.34,1.47,2.09,2.3c3.19,3.57,4.39,4.91,3.59,6.76
			C227.19,106.94,226.19,107.6,225.13,107.6z M212.62,102.27h7c-0.9-1-1.88-2.07-2.8-3.05c-0.72-0.77-0.92-1.9-0.5-2.88
			c0.03-0.08,0.07-0.16,0.11-0.23c-0.14-0.15-0.26-0.32-0.36-0.5c-0.54-0.97-0.42-2.18,0.3-3.02l2.35-2.75h-1.3l-4.29,2.83
			c-0.97,0.64-2.24,0.58-3.14-0.16c-0.8-0.65-1.15-1.69-0.91-2.68h-4c-0.43,0-0.84-0.1-1.2-0.29l-1.51,2.75
			c-0.71,1.29-2.32,1.76-3.61,1.06c-0.22-0.12-0.41-0.26-0.58-0.43l-3.45,2.92c-0.08,0.07-0.17,0.14-0.26,0.2
			c0.07,0.04,0.13,0.09,0.19,0.14l7.58,6.08h2.45c-0.22-0.95,0.1-1.96,0.87-2.62c0.93-0.8,2.29-0.85,3.29-0.13L212.62,102.27z
			 M28.01,96.09c3.08,1.1,6.96,2.41,10.08,3.4c-0.4-0.76-0.4-1.68,0-2.46c0.25-0.47,0.62-0.85,1.07-1.1
			c-0.47-0.24-0.87-0.61-1.14-1.08c-0.5-0.88-0.48-1.61-0.06-2.6C34.84,93.42,31.03,94.88,28.01,96.09z M218.8,96.94
			C218.8,96.94,218.79,96.95,218.8,96.94C218.79,96.95,218.8,96.94,218.8,96.94z"/>
		<path d="M205.06,87.18h7.88l-1.29,3.27l4.96-3.27h7.87l-6.09,7.14c0,0,0.99-0.15,0.99,1.09c0,1.24-0.07,2-0.62,2
			c0,0,7.05,7.53,6.37,7.53c-0.92,0-13.37,0-13.37,0l-4.49-3.25l1.64,3.25h-7.63l-8.31-6.67H40.45c0,0,3.39,4.87,2.93,5.37
			c-0.45,0.5-22.02-6.78-22.02-7.42s21.65-8.89,22.02-8.54c0.37,0.35-3.47,5.89-3.01,5.89s152.62,0.25,152.62,0.25l7.85-6.65h1.28
			l-2.11,3.85"/>
	</g>
	<path class="st0" d="M146.71,158.11v-0.1c0-2.45-0.78-4.94-2.18-7.08c0.96-1.45,1.45-3.11,1.45-4.96c0-4.88-4.12-10.14-10.79-10.14
		c-0.64,0-1.26,0.04-1.86,0.12c-0.17-1.05-0.59-2.05-1.24-2.88c-1.11-1.42-2.78-2.23-4.58-2.23c-0.93,0-1.84,0.22-2.71,0.64
		c-0.47,0.23-1.36,0.51-2.91,0.51c-1.08,0-2.09-0.13-2.9-0.24c-0.61-0.08-1.14-0.15-1.68-0.15c-0.64,0-1.24,0.09-1.74,0.26
		c-2.3,0.72-4.01,2.54-4.59,4.87c-0.02,0.08-0.06,0.24-0.14,0.66c-0.59-0.07-1.19-0.1-1.8-0.1c-1.49,0-2.93,0.26-4.27,0.78
		c-1.33,0.51-2.54,1.24-3.6,2.16c-1.11,0.97-2,2.14-2.61,3.43c-0.68,1.37-1.04,2.87-1.07,4.44c-0.05,1.02,0.11,2.04,0.45,3.02
		c0.67,1.92,2.15,3.33,4.01,3.93c-0.3,0.4-0.6,0.8-0.9,1.2c-0.76,1.01-1.46,1.98-2.16,2.98c-0.74,1.1-1.36,2.17-1.79,3.09
		c-0.13,0.28-0.23,0.56-0.31,0.85c-0.48,1.77-0.13,3.6,0.97,5.04c1.93,2.53,5.06,2.55,6.09,2.55c0.01,0,0.01,0,0.02,0
		c0.13,0,1.2,0.02,2.63,0.04l0.65,0.01c1.31,1.76,3.69,2.88,7.08,3.33c0.51,0.07,1.04,0.1,1.57,0.1c2.14,0,4.4-0.55,6.71-1.62
		c1.89-0.88,3.59-2.02,5.05-3.36c1.96,1.19,4.27,1.31,6.66,1.31c3.85,0,6.95-1.14,9.19-3.4
		C146.73,163.84,146.71,159.52,146.71,158.11z"/>
	<path d="M237.25,147.55l-0.03-30.56c0-0.01,0.04-0.8,0.99-2.45c1.33-2.3,1.34-5.17,0.02-7.49c-1.27-2.22-3.53-3.56-6.04-3.58
		l-7.82-0.07c-0.86,0-1.71,0.16-2.49,0.46c-0.81-0.32-1.67-0.5-2.54-0.5l-7.81-0.06c-0.6,0-1.21,0.08-1.79,0.23
		c-1.05-0.57-2.21-0.87-3.45-0.87c-0.72,0-1.39,0.1-2.33,0.24c-0.74,0.11-1.85,0.27-2.48,0.27h0l-5.65-0.03
		c-0.06,0-0.12-0.01-0.18-0.01c-0.05,0-0.07,0-7.97-0.05c-1.23,0-2.44,0.33-3.5,0.93c-2.05-1.07-4.3-1.63-6.61-1.63l-0.2,0
		c-4.2,0.05-7.97,1.68-10.9,4.69c-0.09,0.09-0.18,0.19-0.27,0.28c-0.28-0.27-0.56-0.53-0.86-0.78c-1.53-1.31-3.32-2.36-5.36-3.12
		c-1.95-0.71-4.15-1.08-6.54-1.08c-1.57,0-3.15,0.13-4.65,0.38l-0.26,0.04c-0.79,0.12-0.92,0.14-2.13,0.17l-0.92,0
		c-0.47,0-0.94,0.05-1.4,0.14c-0.47-0.09-0.94-0.14-1.42-0.14l-7.77-0.01c-0.93,0-1.83,0.17-2.67,0.51
		c-0.85-0.34-1.76-0.52-2.7-0.52l-7.76,0c-0.29,0-0.58,0.02-0.86,0.05c-0.37-0.06-0.75-0.09-1.14-0.09l-7.76,0
		c-0.1,0-0.2,0-0.31,0.01l-5.74,0c-0.23,0-0.56-0.09-0.96-0.18c-0.65-0.16-1.54-0.39-2.61-0.39c-1.29,0-2.55,0.33-3.66,0.96
		c-0.7-0.22-1.45-0.34-2.2-0.34l-7.76,0.02c-0.93,0-1.84,0.18-2.69,0.53c-0.84-0.34-1.75-0.51-2.69-0.51l-7.76,0.03
		c-1.07,0-2.13,0.25-3.08,0.71c-0.63-0.42-1.28-0.73-1.96-0.93c-0.66-0.18-1.33-0.27-1.99-0.27c-1.19,0-2.14,0.29-2.74,0.52
		c-4.18,0.02-8.35,0.04-12.52,0.06c-0.61,0-1.21,0.08-1.79,0.23c-0.57-0.14-1.16-0.21-1.77-0.21l-7.75,0.05
		c-0.89,0-1.75,0.17-2.56,0.49c-0.8-0.3-1.66-0.46-2.55-0.46c0,0-18.36,0.15-19.34,0.15l-0.11,0c-1.89,0.02-3.73,0.44-5.52,1.26
		c-1.6,0.77-3.06,1.86-4.34,3.24c-0.07,0.08-0.14,0.16-0.22,0.25c-1.19,1.43-2.14,3.11-2.8,5c-0.68,1.94-1.03,4-1.03,6.12
		c0,8.92,5.21,13.7,8.66,16.87c2.7,2.48,3.43,3.34,3.43,4.64c-0.01,1.17-0.25,2.18-0.7,2.88c-0.29,0.45-0.56,0.69-0.81,0.83
		c-0.2-0.11-0.4-0.21-0.59-0.31c-0.84-0.58-2.39-1.63-4.6-1.63c-2.11,0-4.06,0.96-5.33,2.64c-0.74,0.97-1.87,3.03-1.15,5.84
		c0.59,2.53,1.45,5.72,1.86,7.25l0.08,0.31c0.97,3.64,4.02,5.27,6.62,5.27c1.78,0,3.38-0.65,4.68-1.88c0.87-0.11,1.9-0.29,2.91-0.62
		c1.87-0.6,5.65-2.64,8.98-6.69c1.13,0.21,2.33,0.14,3.43-0.22c2.4-0.77,4.82-1.51,7.22-2.22c0.9-0.27,1.74-0.71,2.48-1.3
		c0.92,0.12,1.89,0.06,2.79-0.19c2.41-0.66,4.85-1.29,7.25-1.89c0.63-0.16,1.24-0.4,1.81-0.73c0.66,0.03,1.32-0.03,1.96-0.18
		c0.14-0.03,0.29-0.07,0.42-0.11c1.61-0.39,10.42-2.25,11.73-2.47c0.13-0.02,0.26-0.04,0.39-0.06c0.33-0.06,0.53-0.07,0.62-0.07
		c0.03,0,0.05,0,0.03-0.01c0.05,0.02,0.1,0.04,0.15,0.06c0.54,0.21,1.54,0.6,2.9,0.6c1.88,0,3.65-0.78,4.92-2.11
		c0.23-0.01,0.46-0.04,0.68-0.07c2.42-0.37,4.88-0.72,7.31-1.04c0.97-0.13,1.9-0.45,2.74-0.94c0.67,0.21,1.38,0.31,2.09,0.31
		c0.23,0,0.57-0.02,0.79-0.04c2.44-0.27,4.91-0.51,7.33-0.71c0.31-0.03,0.62-0.07,0.93-0.14c0.13,0.01,0.26,0.01,0.38,0.01
		c0.16,0,0.4-0.01,0.56-0.02c2.42-0.19,4.89-0.35,7.33-0.47c1.12-0.06,2.22-0.38,3.19-0.93c0.92,0.42,1.93,0.63,2.97,0.63
		c0.07,0,0.17,0,0.22,0c2.44-0.07,4.91-0.11,7.34-0.12c0.35,0,0.69-0.03,1.03-0.08c0.41,0.07,0.84,0.11,1.26,0.11
		c2.44,0.01,4.91,0.05,7.35,0.12l0.21,0c0.9,0,1.79-0.17,2.62-0.49c0.87,0.42,1.82,0.66,2.8,0.71c0.77,0.04,1.54,0.08,2.31,0.12
		c0.56,0.6,1.15,1.14,1.77,1.62c0.91,0.73,1.95,1.35,3.1,1.86c0.09,0.04,0.18,0.08,0.27,0.11c0.81,0.32,1.64,0.61,2.46,0.87
		c0.09,0.03,0.17,0.05,0.26,0.08c0.95,0.26,1.92,0.47,2.88,0.61c0.83,0.15,1.62,0.27,2.34,0.36c3.82,0.46,7.15,0.16,9.97-0.87
		c2.72-0.97,5.04-2.46,6.93-4.44c2.56,2.77,5.77,4.61,9.41,5.39c2.4,0.52,4.8,0.43,6.98-0.24c0.92,0.88,2.07,1.5,3.34,1.8
		c2.41,0.56,4.85,1.16,7.24,1.78c1.09,0.28,2.23,0.3,3.31,0.06c0.84,0.79,1.86,1.38,2.98,1.69c2.4,0.68,4.83,1.4,7.2,2.13
		c0.4,0.13,0.82,0.22,1.23,0.27c0.37,0.19,0.76,0.36,1.15,0.48c2.38,0.76,4.8,1.56,7.17,2.38c0.91,0.32,1.87,0.44,2.82,0.37
		c0.7,0.65,1.53,1.17,2.42,1.5c2.37,0.87,4.77,1.78,7.12,2.71c0.82,0.33,1.69,0.49,2.57,0.49c2.31,0,4.46-1.16,5.75-3.1
		c1.37-2.06,1.58-4.7,0.59-7.05C237.31,148.99,237.26,147.77,237.25,147.55z"/>
	<g>
		<path class="st1" d="M205.06,87.18h7.88l-1.29,3.27l4.96-3.27h7.87l-6.09,7.14c0,0,0.99-0.15,0.99,1.09c0,1.24-0.07,2-0.62,2
			c0,0,7.05,7.53,6.37,7.53c-0.92,0-13.37,0-13.37,0l-4.49-3.25l1.64,3.25h-7.63l-8.31-6.67H40.45c0,0,3.39,4.87,2.93,5.37
			c-0.45,0.5-22.02-6.78-22.02-7.42s21.65-8.89,22.02-8.54c0.37,0.35-3.47,5.89-3.01,5.89s152.62,0.25,152.62,0.25l7.85-6.65h1.28
			l-2.11,3.85"/>
	</g>
	<path d="M73.62,102.45c-0.39,0-0.68-0.02-0.93-0.07c-0.75-0.13-1.28-0.45-1.66-0.86c-0.64,0.49-1.61,0.9-3.04,0.9
		c-0.75,0-1.58-0.11-2.48-0.34c-3.37-0.84-5.75-4.15-6.61-7.06c-0.24-0.82-1.39-2.2-2.41-3.23c-0.24,0.33-0.49,0.68-0.71,1.01
		c-0.49,0.75-8.16,0.77-8.66,0.06c-0.5-0.71-0.62-1.62-0.32-2.44c0.08-0.21,1.9-5.08,6.06-8.43c1.21-0.97,2.55-1.66,3.97-2.06
		c0-0.15,0.01-0.31,0.03-0.46c0.19-1.15,1.1-2.05,2.26-2.21c0.17-0.02,4.13-0.57,8.92-0.57c5.84,0,10.33,0.81,13.36,2.4
		c5.4,2.84,7.74,7.97,7.64,11.53c-0.1,3.5-3.72,8.76-5.86,9.27c-0.2,0.05-0.46,0.08-0.67,0.08c-0.54,0-0.99-0.11-1.37-0.3
		c-0.34,0.5-0.73,0.93-1.15,1.27C78.23,102.38,74.37,102.45,73.62,102.45z"/>
	<path d="M115.79,172.04c-0.43,0-0.87-0.03-1.28-0.08c-4.04-0.53-5.56-1.99-6.07-3.33c-2.31-0.04-4.38-0.07-4.56-0.07
		c-1.32,0-3.22-0.17-4.36-1.67c-0.68-0.88-0.89-2.02-0.59-3.11c0.05-0.17,0.11-0.34,0.18-0.5c0.38-0.82,0.95-1.78,1.62-2.8
		c0.67-0.96,1.36-1.91,2.09-2.89c0.74-0.98,1.48-1.97,2.24-2.99c0.7-0.95,1.36-1.88,1.94-2.78c0.02-0.03,0.04-0.05,0.05-0.08
		c-0.77,0.9-1.87,1.42-3.08,1.42c-1.85,0-3.36-1.06-3.95-2.76c-0.25-0.73-0.36-1.48-0.33-2.23c0.01-1.25,0.29-2.44,0.83-3.52
		c0.5-1.05,1.2-1.98,2.09-2.75c0.86-0.76,1.85-1.35,2.93-1.76c1.09-0.42,2.26-0.63,3.48-0.63c1.27,0,2.47,0.17,3.57,0.52
		c0.22-1.22,0.42-2.32,0.53-2.77l0,0c0.39-1.59,1.52-2.78,3.1-3.27c0.3-0.1,0.67-0.16,1.07-0.16c0.4,0,0.82,0.05,1.4,0.13
		c0.83,0.11,1.96,0.25,3.19,0.25c1.58,0,2.89-0.25,3.88-0.73c0.56-0.28,1.15-0.42,1.74-0.42c1.11,0,2.14,0.5,2.83,1.38
		c0.77,0.98,1.04,2.36,0.72,3.68c-0.03,0.13-0.15,0.44-0.31,0.85c1.21-0.57,2.68-0.92,4.43-0.92c5.29,0,8.57,4.11,8.57,7.92
		c0,1.93-0.69,3.57-2.06,4.91c2,2.26,2.79,4.99,2.79,7.13v0.1c0,1.19,0.02,4.82-2.66,7.51c-1.82,1.82-4.38,2.75-7.62,2.75
		c-2.78,0-4.86-0.19-6.4-1.68c-0.34,0.4-0.74-0.04-1.11,0.33c-1.44,1.47-3.18,2.7-5.13,3.62
		C119.55,171.57,117.61,172.04,115.79,172.04z"/>
	<path d="M113.41,165.17c0.28,0,0.53-0.01,0.76-0.02c-0.24-0.55-0.36-1.07-0.4-1.56c-0.02,0.02-0.04,0.04-0.05,0.07
		c-0.39,0.5-0.79,1-1.2,1.51C112.83,165.17,113.13,165.17,113.41,165.17z"/>
	<path d="M136.17,162.73c-0.25,0.34-0.49,0.87-0.49,1.26c0,0.37,0.26,0.83,0.49,1.04c0.22-0.21,0.49-0.67,0.49-1.04
		C136.66,163.6,136.41,163.07,136.17,162.73z"/>
	<path d="M118.17,155.48c-0.13,0.61-0.32,1.21-0.55,1.81c-0.18,0.42-0.36,0.83-0.56,1.24c0.59-0.22,1.22-0.33,1.87-0.33
		c0.58,0,1.14,0.09,1.66,0.24c-0.23-0.68-0.53-1.25-0.9-1.72C119.25,156.18,118.77,155.78,118.17,155.48
		C118.17,155.48,118.17,155.48,118.17,155.48z"/>
	<path d="M106.71,153.93c-0.15,0.32-0.29,0.65-0.42,0.96c-0.06,0.15-0.12,0.29-0.19,0.43c0.21-0.37,0.4-0.72,0.56-1.05
		c0.13-0.27,0.22-0.47,0.27-0.62c-0.01,0-0.02,0-0.02,0C106.84,153.73,106.77,153.82,106.71,153.93z"/>
	<path d="M169.41,102.45c-0.76,0-4.61-0.07-6.37-1.51c-0.42-0.34-0.81-0.78-1.15-1.28c-0.38,0.2-0.83,0.3-1.37,0.3
		c-0.21,0-0.47-0.03-0.67-0.08c-2.14-0.51-5.76-5.77-5.86-9.27c-0.1-3.56,2.24-8.69,7.64-11.53c3.02-1.59,7.52-2.4,13.36-2.4
		c4.79,0,8.75,0.54,8.92,0.57c1.16,0.16,2.07,1.06,2.26,2.21c0.02,0.15,0.04,0.31,0.03,0.46c1.43,0.4,2.77,1.09,3.97,2.06
		c4.16,3.35,5.99,8.22,6.06,8.43c0.3,0.82-8.48,3.13-8.98,2.38c-0.22-0.33-0.47-0.69-0.71-1.01c-1.02,1.03-2.17,2.41-2.41,3.23
		c-0.86,2.91-3.24,6.22-6.61,7.06c-0.9,0.22-1.74,0.34-2.48,0.34c-1.43,0-2.39-0.41-3.04-0.9c-0.38,0.4-0.91,0.72-1.66,0.86
		C170.09,102.43,169.8,102.45,169.41,102.45z"/>
	<path d="M49.29,91.35h4.26c0,0,2.22-3.36,2.84-3.1c0.62,0.26,4.35,3.63,5.06,6.03c0.71,2.4,2.57,4.7,4.7,5.23s3.28,0.18,3.55-0.44
		s0.53-4.35,0-5.77c0,0,2.22,1.42,2.66,3.64c0.44,2.22,0.27,2.74,0.8,2.83c0.53,0.1,4.17-0.08,5.15-0.88
		c0.98-0.8,1.69-2.58,1.69-4.08s-0.8-3.37-0.8-3.37s1.77,0.36,2.22,2.58c0.44,2.21,0.71,3.4,1.15,3.3c0.44-0.11,3.74-3.92,3.82-6.76
		c0.08-2.84-1.94-6.85-6.22-9.09c-6.65-3.5-20.67-1.55-20.67-1.55c1.25,0.62,2.2,1.43,2.48,2.64c0,0-3.81-1.39-7.45,1.53
		C50.89,87,49.29,91.35,49.29,91.35z"/>
	<path d="M193.73,91.35h-4.26c0,0-2.22-3.36-2.84-3.1c-0.62,0.26-4.35,3.63-5.06,6.03s-2.57,4.7-4.7,5.23
		c-2.13,0.53-3.28,0.18-3.55-0.44s-0.53-4.35,0-5.77c0,0-2.22,1.42-2.66,3.64c-0.44,2.22-0.27,2.74-0.8,2.83
		c-0.53,0.1-4.17-0.08-5.15-0.88s-1.69-2.58-1.69-4.08s0.8-3.37,0.8-3.37s-1.77,0.36-2.22,2.58c-0.44,2.21-0.71,3.4-1.15,3.3
		s-3.74-3.92-3.82-6.76c-0.08-2.84,1.94-6.85,6.22-9.09c6.65-3.5,20.67-1.55,20.67-1.55c-1.25,0.62-2.2,1.43-2.48,2.64
		c0,0,3.81-1.39,7.45,1.53C192.14,87,193.73,91.35,193.73,91.35z"/>
	<path class="st3" d="M49.29,91.35h4.26c0,0,2.22-3.36,2.84-3.1c0.62,0.26,4.35,3.63,5.06,6.03c0.71,2.4,2.57,4.7,4.7,5.23
		s3.28,0.18,3.55-0.44s0.53-4.35,0-5.77c0,0,2.22,1.42,2.66,3.64c0.44,2.22,0.27,2.74,0.8,2.83c0.53,0.1,4.17-0.08,5.15-0.88
		c0.98-0.8,1.69-2.58,1.69-4.08s-0.8-3.37-0.8-3.37s1.77,0.36,2.22,2.58c0.44,2.21,0.71,3.4,1.15,3.3c0.44-0.11,3.74-3.92,3.82-6.76
		c0.08-2.84-1.94-6.85-6.22-9.09c-6.65-3.5-20.67-1.55-20.67-1.55c1.25,0.62,2.2,1.43,2.48,2.64c0,0-3.81-1.39-7.45,1.53
		C50.89,87,49.29,91.35,49.29,91.35z"/>
	<path class="st3" d="M193.73,91.35h-4.26c0,0-2.22-3.36-2.84-3.1c-0.62,0.26-4.35,3.63-5.06,6.03s-2.57,4.7-4.7,5.23
		c-2.13,0.53-3.28,0.18-3.55-0.44s-0.53-4.35,0-5.77c0,0-2.22,1.42-2.66,3.64c-0.44,2.22-0.27,2.74-0.8,2.83
		c-0.53,0.1-4.17-0.08-5.15-0.88s-1.69-2.58-1.69-4.08s0.8-3.37,0.8-3.37s-1.77,0.36-2.22,2.58c-0.44,2.21-0.71,3.4-1.15,3.3
		s-3.74-3.92-3.82-6.76c-0.08-2.84,1.94-6.85,6.22-9.09c6.65-3.5,20.67-1.55,20.67-1.55c-1.25,0.62-2.2,1.43-2.48,2.64
		c0,0,3.81-1.39,7.45,1.53C192.14,87,193.73,91.35,193.73,91.35z"/>
	<path d="M22.32,128.38c-0.66-0.53-7.51-5.29-7.5-9.7c0-1.36,0.38-2.48,1.04-3.34c0.63-0.82,1.43-1.24,2.4-1.28
		c1.25-0.05,2.41,0.15,3.47,0.6c1.03,0.41,2.63,1.14,3.23,1.42c0.6,0.28,0.68-0.05,0.57-0.45c-0.27-0.94-0.95-5.45-1.74-5.85
		c-0.79-0.39-1,0.59-2.03,0.84c-0.71,0.18-1.42-0.08-2.11-0.29c-0.69-0.24-1.39-0.37-2.11-0.36c-0.94,0.01-1.85,0.21-2.73,0.62
		c-0.85,0.41-1.63,1-2.35,1.78c-0.69,0.82-1.24,1.82-1.65,2.97c-0.41,1.16-0.66,2.47-0.66,3.93c0,11.46,12.15,12.27,12.09,21.55
		c-0.01,2.55-0.66,4.69-1.75,6.41c-1.12,1.73-2.6,2.95-4.45,3.6c-0.92,0.33-1.73,0.44-2.4,0.33c-0.68-0.11-1.29-0.27-1.84-0.48
		c-0.55-0.3-1.05-0.56-1.48-0.77c-0.43-0.21-1.7-1.34-1.45-0.43c0.61,2.61,1.57,6.16,1.9,7.41c0.34,1.26,0.96-0.94,1.52-1.15
		c0.56-0.22,2.66-0.11,4.33-0.65c1.32-0.42,6.71-3.44,9.26-10.61C29.65,134.06,24.11,130.19,22.32,128.38z M71.5,133.47
		c-0.27,0.24-0.63,0.4-0.95,0.64c-0.35,0.19-0.7,0.39-1.04,0.58c-0.35,0.2-0.76,0.33-1.23,0.41c-0.74,0.11-5.73,0.9-7.9,1.31
		c-0.54,0.1-1.01-0.08-1.12-0.61c-0.02-0.15-0.03-0.31-0.03-0.46c0-0.01,0-0.03,0-0.04c0.06-4.05,0.12-8.09,0.18-12.14
		c0-0.24,0.37-0.47,0.59-0.55c0.28-0.12,3.36-0.36,4.14-0.42c1.88-0.16,2.92,0.87,3.14,0.99c0.22,0.12,0.42,0.18,0.61,0.16
		c0.31-0.03,0.62-0.27,0.9-0.72c0.32-0.45,0.58-0.97,0.78-1.55c0.2-0.58,0.36-1.14,0.5-1.68c0.13-0.54,0.2-0.94,0.21-1.2
		c0.03-0.4-1.18,0.68-7.17,1.09c-1.01,0.07-2.03,0.14-3.04,0.21c-0.38,0.03-0.5-0.19-0.59-0.36c0.02-1.57,0.05-3.13,0.07-4.7
		c0.01-0.71,0.53-1.21,2.53-1.26c2.56-0.07,3.83-0.16,4.51-0.06c0.69,0.13,2.92,0.64,3.33,0.76c0.41,0.1,0.64,0.15,0.7,0.15
		c0.25-0.01,0.44-0.1,0.57-0.27c0.13-0.2,0.19-0.4,0.2-0.59c0-0.16-1.7-3.75-2.53-3.99c-0.76-0.21-0.82,0.47-2.59,0.48
		c-4.31,0.02-8.61,0.04-12.92,0.07c-0.41,0-0.66,0.47-0.43,0.81c0.73,1.06,1.87,2.87,1.85,4.12c-0.1,7.3-0.21,14.61-0.31,21.91
		c-0.02,1.41-1.07,3.14-1.82,4.24c-0.28,0.4-0.04,0.84,0.39,0.74c-0.01-0.08,12.25-2.68,12.86-2.71c3.89-0.71,4.83,1.01,5.13,0.3
		c0.1-0.2,1.97-5.07,2.01-5.2C73.16,133.34,73.03,132.14,71.5,133.47z M49.81,109.74c-2.59,0.02-5.17,0.03-7.76,0.05
		c-0.41,0-0.66,0.52-0.43,0.88c0.73,1.15,1.87,3.12,1.85,4.48c-0.02,1.78-0.04,3.55-0.07,5.33c-2.68-0.01-5.37,0.22-8.06,0.75
		c0.02-1.9,0.04-3.81,0.06-5.71c0.02-1.78,1.14-3.67,1.93-4.75c0.28-0.38,0.04-0.94-0.39-0.94c-2.59,0.02-5.17,0.04-7.76,0.06
		c-0.41,0-0.66,0.57-0.43,0.98c0.73,1.27,1.88,3.45,1.86,4.95c-0.08,8.78-0.15,17.56-0.23,26.34c-0.01,1.69-1.05,3.82-1.79,5.16
		c-0.27,0.49-0.04,1.02,0.39,0.88c2.45-0.79,4.9-1.54,7.36-2.26c0.41-0.12,0.66-0.73,0.42-1.04c-0.68-0.87-1.65-2.49-1.63-4.38
		c0.05-4.72,0.1-9.43,0.15-14.15c2.69-0.6,5.37-0.94,8.05-1.06c-0.06,4.55-0.11,9.11-0.17,13.66c-0.02,1.53-1.06,3.44-1.81,4.64
		c-0.27,0.44-0.04,0.92,0.39,0.8c2.46-0.68,4.93-1.32,7.4-1.93c0.42-0.1,0.67-0.65,0.42-0.94c-0.68-0.8-1.65-2.28-1.63-4
		c0.1-7.55,0.2-15.09,0.3-22.64c0.02-1.61,1.15-3.32,1.94-4.3C50.47,110.25,50.24,109.74,49.81,109.74z M165.05,117.85
		c-0.43-1.23-0.97-2.38-1.62-3.46c-0.65-1.08-1.44-2.02-2.36-2.81c-0.96-0.82-2.08-1.47-3.35-1.95c-1.24-0.45-2.66-0.68-4.28-0.68
		c-1.23,0-2.45,0.1-3.65,0.31c-1.2,0.18-1.45,0.24-3.36,0.29c-0.32,0-0.64,0-0.97,0c-0.41,0-0.65,0.37-0.41,0.64
		c0.75,0.83,1.93,2.33,1.94,3.34c0.06,5.87,0.12,11.74,0.18,17.61c0.01,1.14-1.01,2.27-1.75,2.93c-0.27,0.24-0.03,0.66,0.41,0.69
		c2.5,0.21,5,0.46,7.49,0.74c0.42,0.05,0.66-0.31,0.41-0.62c-0.71-0.85-1.73-2.29-1.75-3.62c-0.07-5.89-0.14-11.78-0.21-17.67
		c-0.01-0.61,0.12-0.98,0.28-1.18c1.02-1.01,2.81-0.36,3.7,0.05c0.89,0.41,1.66,0.96,2.3,1.67c0.67,0.71,1.22,1.49,1.65,2.36
		c0.42,0.9,0.75,1.82,0.99,2.77c0.3,0.95,0.48,1.91,0.56,2.85c0.11,0.92,0.17,1.77,0.18,2.55c-0.01,1.53-0.21,3.11-0.6,4.73
		c-0.39,1.59-1.04,3.03-1.94,4.3c-0.87,1.22-2.05,2.17-3.54,2.85c-1.49,0.68-3.35,0.88-5.58,0.64c-0.77-0.08-1.53-0.22-2.3-0.42
		c-0.77-0.23-1.46-0.52-2.06-0.87c-0.61-0.38-1.09-0.82-1.45-1.32c-0.39-0.51-0.58-1.09-0.59-1.77c0-0.45,0.22-0.8,0.66-1.04
		c0.41-0.27,1.74-0.97,0.89-1.93c-0.45-0.53-1.59-0.9-2.72-0.32c-0.41,0.22-0.76,0.51-1.04,0.87c-0.32,0.38-0.54,0.79-0.66,1.23
		c-0.16,0.44-0.23,0.83-0.23,1.18c0,0.05,0,0.1,0,0.15c0.01,0.69,0.27,1.42,0.78,2.17c0.55,0.83,1.19,1.53,1.93,2.09
		c0.48,0.39,1.04,0.73,1.68,1.01c0.67,0.26,1.36,0.51,2.07,0.73c0.74,0.2,1.47,0.36,2.21,0.46c0.73,0.13,1.42,0.24,2.06,0.32
		c2.71,0.33,5.04,0.17,6.97-0.53c1.9-0.68,3.46-1.71,4.68-3.1c1.22-1.42,2.11-3.09,2.69-5c0.54-1.91,0.82-3.88,0.82-5.89
		c0-0.19-0.01-0.39-0.01-0.58c-0.01-0.97-0.09-1.98-0.23-3.04C165.73,120.3,165.44,119.05,165.05,117.85z M232.53,111.24
		c0.27-0.47,0.03-1.19-0.4-1.19c-2.58-0.02-5.17-0.05-7.75-0.07c-0.41,0-0.66,0.61-0.41,1.07c0.75,1.4,1.92,3.95,1.93,5.67
		c0.01,1.81,0.01,3.61,0.02,5.42c-2.68-0.61-5.36-0.87-8.04-0.85c-0.01-1.7-0.02-3.41-0.03-5.11c-0.01-1.94,1.08-3.95,1.85-5.17
		c0.27-0.42,0.03-1.07-0.4-1.07c-2.59-0.02-5.17-0.04-7.76-0.06c-0.41,0-0.65,0.55-0.41,0.96c0.75,1.26,1.94,3.56,1.95,5.1
		c0.07,8.94,0.14,17.88,0.21,26.82c0.01,1.74-0.99,3.29-1.71,4.15c-0.26,0.32-0.02,0.99,0.4,1.12c2.45,0.78,4.9,1.59,7.34,2.44
		c0.41,0.14,0.65-0.38,0.4-0.9c-0.69-1.45-1.69-3.84-1.71-5.91c-0.03-5.19-0.07-10.37-0.1-15.56c2.68,0.17,5.35,0.6,8.02,1.32
		c0.02,5.7,0.03,11.4,0.05,17.11c0.01,1.93-1,3.64-1.72,4.6c-0.26,0.35-0.03,1.09,0.4,1.25c2.43,0.89,4.86,1.82,7.29,2.77
		c0.41,0.16,0.65-0.42,0.41-1c-0.68-1.62-1.66-4.29-1.67-6.59c-0.01-10.19-0.02-20.38-0.03-30.57
		C230.65,114.83,231.75,112.59,232.53,111.24z M96.53,109.55c-2.59,0.01-5.17,0.01-7.76,0.02c-0.41,0-0.66,0.38-0.43,0.66
		c0.73,0.86,1.88,2.35,1.87,3.37c-0.03,2.65-0.06,5.29-0.09,7.94c-0.92-1.06-6.22-4.94-7.18-6.29c-0.78-1.09-0.94-2.19-0.95-2.28
		c0.32-1.04,1.16-2.05,1.79-2.68c0.28-0.28,0.04-0.69-0.39-0.69c-2.59,0.01-5.17,0.02-7.76,0.03c-0.41,0-0.66,0.41-0.43,0.7
		c0.73,0.92,1.87,2.5,1.86,3.58c-0.09,6.35-0.18,12.69-0.27,19.04c-0.02,1.23-1.07,2.69-1.83,3.6c-0.28,0.33-0.04,0.73,0.39,0.66
		c2.49-0.39,4.98-0.74,7.48-1.06c0.42-0.05,0.67-0.48,0.43-0.73c-0.69-0.7-1.68-1.96-1.66-3.35c0.05-3.91,0.1-7.82,0.16-11.73
		c1.29,1.45,4.61,4.06,6.22,5.57c1.32,1.25,1.85,2.71,2.06,3.49c-0.01,0.7-0.02,1.41-0.02,2.11c-0.01,1.15-1.06,2.49-1.82,3.32
		c-0.28,0.3-0.04,0.68,0.39,0.64c2.5-0.27,5-0.52,7.49-0.73c0.42-0.04,0.67-0.43,0.42-0.68c-0.69-0.69-1.69-1.92-1.68-3.23
		c0.06-5.77,0.12-11.55,0.17-17.32c0.01-1.23,1.13-2.53,1.92-3.28C97.2,109.94,96.96,109.55,96.53,109.55z M119.75,109.49
		c-2.59,0-5.17,0-7.76,0c-0.01,0-0.02,0.01-0.03,0.01c-2.49,0-5.54,0-6,0c-1.7,0-2.92-0.57-3.58-0.57c-0.28,0-0.53,0.13-0.76,0.41
		c-0.25,0.27-1.24,2.74-1.29,2.88c-0.11,0.32,0.09,0.67,0.42,0.73c0.32,0.06,0.55-0.08,0.9-0.23c1.06-0.47,2.22-0.79,2.78-0.94
		c0.51-0.11,1.65-0.28,3.13-0.1c-0.64,0.79-1.74,2.37-3.54,5.63c-3.36,6.08-4.27,12.02-4.59,13.26c0,0.01,0.01,0.02,0.01,0.04
		c0,0,0,0-0.01,0c0,0-0.24,1.51-1.81,3.33c-0.26,0.3-0.04,0.66,0.4,0.63c2.5-0.19,5-0.35,7.5-0.48c0.42-0.02,0.67-0.4,0.42-0.65
		c-0.7-0.7-1.7-1.92-1.69-3.2c0-0.04,0-0.08,0-0.12c0,0-0.01,0-0.01,0c0-0.01,0.01-0.02,0.01-0.04c-0.1-0.89,1.12-5.77,1.41-6.33
		c0.3-0.56,1.44-0.84,3.42-0.29c1.97,0.55,4.36,0.46,4.36,0.46c-0.01,2.08-0.01,4.15-0.02,6.23c0,1.09-1.05,2.28-1.8,3
		c-0.28,0.26-0.03,0.64,0.4,0.62c2.5-0.07,5.01-0.12,7.51-0.13c0.42,0,0.67-0.36,0.42-0.62c-0.7-0.72-1.71-1.96-1.71-3.22
		c0.01-5.52,0.01-11.04,0.02-16.56c0-1.17,1.11-2.41,1.89-3.13C120.42,109.87,120.18,109.49,119.75,109.49z M113.45,120.23
		c-0.32,0.79-2.9,0.34-3.95,0.12c-1.05-0.22-2.53-0.54-2.53-0.54c0-0.02,3.51-7.72,5.39-7.74c0.81-0.01,1.03,0.61,1.06,0.71
		c0.03,0.16,0.05,0.33,0.05,0.52C113.46,115.6,113.45,117.92,113.45,120.23z M208.12,141.13
		C208.12,141.13,208.12,141.12,208.12,141.13c-0.01-0.02,0-0.04,0-0.06c-0.33-1.87-1.24-10.93-4.64-19.98
		c-1.83-4.85-2.94-7.11-3.59-8.25c1.48-0.23,3.88,0.38,4.38,0.56c0.57,0.23,1.73,0.74,2.78,1.46c0.35,0.24,0.57,0.46,0.9,0.37
		c0.32-0.08,0.53-0.6,0.41-1.08c-0.05-0.22-1.05-3.92-1.31-4.31c-0.22-0.4-0.48-0.6-0.76-0.6c-0.67,0-3.14,0.53-4.84,0.51
		c-0.46,0-3.5-0.02-6-0.03c-0.01,0-0.02-0.01-0.03-0.01c-2.59-0.02-5.17-0.03-7.76-0.04c-0.43,0-0.66,0.49-0.39,0.83
		c0.79,0.95,1.92,2.62,1.94,4.18c0.1,7.33,0.2,14.66,0.31,21.99c0.02,1.67-0.95,3.11-1.63,3.9c-0.24,0.28,0.01,0.81,0.43,0.91
		c2.47,0.58,4.95,1.18,7.41,1.82c0.43,0.11,0.66-0.36,0.39-0.78c-0.75-1.16-1.8-3-1.82-4.49c-0.04-2.85-0.08-5.69-0.11-8.54
		c0,0,2.37,0.45,4.32-0.08c1.95-0.54,3.09-0.02,3.39,0.83c0.3,0.82,1.55,8.04,1.46,9.32c0,0.02,0.01,0.04,0.01,0.06
		c0,0-0.01,0-0.01,0c0,0.06,0,0.11,0,0.17c0.02,1.85-0.95,3.43-1.63,4.29c-0.24,0.31,0.01,0.9,0.42,1.01
		c2.46,0.7,4.92,1.42,7.37,2.18c0.43,0.13,0.64-0.37,0.39-0.86C208.37,143.39,208.12,141.13,208.12,141.13z M198.06,124.96
		c-1.04,0.21-3.59,0.56-3.92-0.55c-0.04-3.17-0.08-6.33-0.13-9.5c0-0.25,0.01-0.48,0.04-0.7c0.03-0.14,0.25-0.99,1.05-0.95
		c1.89-0.02,5.47,11.09,5.47,11.18C200.57,124.43,199.1,124.76,198.06,124.96z M177.46,108.96c-5.64,0.07-10.14,5.1-10,14.53
		c0.13,9.42,4.81,15.18,10.46,16.39c5.65,1.22,10.14-3.55,9.99-14.34C187.75,114.76,183.1,108.87,177.46,108.96z M177.87,136.55
		c-2.89-0.55-5.3-4.99-5.41-12.63c-0.11-7.64,2.17-11.66,5.05-11.62c2.88,0.03,5.29,4.55,5.41,12.67
		C183.03,133.1,180.76,137.1,177.87,136.55z M139.4,132.73c0-0.41,0.08-0.86,0.26-1.35c0.13-0.47,0.39-0.95,0.76-1.39
		c0.24-0.31,0.55-0.57,0.89-0.8c-0.04-5.26-0.09-10.51-0.13-15.77c-0.01-1.21,1.09-2.47,1.86-3.22c0.27-0.26,0.03-0.66-0.4-0.66
		c-2.59,0-5.17-0.01-7.76-0.01c-0.41,0-0.66,0.36-0.42,0.62c0.75,0.81,1.92,2.26,1.93,3.24c0.02,2.53,0.03,5.05,0.05,7.58
		c-0.94-1.12-6.32-5.04-7.3-6.27c-0.8-1.02-0.98-2.02-0.99-2.11c0.31-0.94,1.13-1.84,1.75-2.42c0.27-0.26,0.03-0.64-0.4-0.64
		c-2.59,0-5.17,0-7.76,0c-0.41,0-0.66,0.35-0.42,0.61c0.74,0.8,1.91,2.22,1.91,3.18c0.01,5.6,0.01,11.2,0.02,16.81
		c0,1.08-1.04,2.24-1.78,2.93c-0.27,0.25-0.03,0.63,0.4,0.63c2.5,0.01,5.01,0.05,7.51,0.13c0.42,0.01,0.67-0.34,0.42-0.61
		c-0.71-0.75-1.72-2.03-1.72-3.28c-0.01-3.55-0.02-7.1-0.03-10.65c1.32,1.38,4.68,4.05,6.33,5.65c1.35,1.3,1.91,2.77,2.12,3.54
		c0,0.67,0.01,1.34,0.01,2.01c0.01,1.1-1.02,2.23-1.77,2.9c-0.27,0.25-0.03,0.64,0.41,0.66c1.52,0.07,3.05,0.16,4.57,0.26
		c-0.2-0.48-0.31-0.96-0.32-1.43C139.41,132.83,139.41,132.78,139.4,132.73z"/>
	<g>
		<path class="st1" d="M51.43,101.44c1.58,0,2.76,1.19,2.76,2.72c0,1.57-1.19,2.79-2.76,2.79c-1.58,0-2.76-1.22-2.76-2.79
			C48.66,102.63,49.85,101.44,51.43,101.44z M51.43,106.09c0.96,0,1.75-0.83,1.75-1.93c0-1.05-0.79-1.85-1.75-1.85
			c-0.96,0-1.75,0.8-1.75,1.85C49.68,105.25,50.47,106.09,51.43,106.09z"/>
		<path class="st1" d="M58.14,106.12h0.64v-3.85h-0.64v-0.74h2.35c0.39,0,0.71,0.02,1.01,0.11c0.59,0.2,0.98,0.68,0.98,1.43
			c0,0.74-0.39,1.27-1.01,1.48v0.01c0,0,0.16,0.08,0.26,0.28l0.62,1.11c0.08,0.14,0.18,0.17,0.36,0.17h0.17v0.74h-0.62
			c-0.44,0-0.58-0.09-0.74-0.4l-0.76-1.37c-0.11-0.2-0.21-0.27-0.52-0.27h-0.49v1.31h0.62v0.74h-2.24V106.12z M60.65,104.03
			c0.52,0,0.86-0.31,0.86-0.88c0-0.35-0.13-0.62-0.42-0.74c-0.15-0.07-0.35-0.1-0.6-0.1h-0.72v1.71H60.65z"/>
		<path class="st1" d="M66.79,106.12h0.64v-3.85h-0.64v-0.74h2.31c0.43,0,0.77,0.02,1.11,0.13c1.04,0.31,1.73,1.22,1.73,2.54
			c0,1.26-0.64,2.17-1.65,2.51c-0.36,0.13-0.74,0.16-1.18,0.16h-2.31V106.12z M69.06,106.07c0.34,0,0.61-0.03,0.87-0.14
			c0.61-0.25,0.99-0.87,0.99-1.74c0-0.9-0.41-1.52-1.03-1.76c-0.27-0.11-0.52-0.12-0.83-0.12h-0.65v3.75H69.06z"/>
		<path class="st1" d="M75.92,106.12h0.64v-3.85h-0.64v-0.74h3.96v1.37h-0.84v-0.59h-1.49v1.46h1.76v0.79h-1.76v1.5h1.61v-0.6h0.84
			v1.39h-4.07V106.12z"/>
		<path class="st1" d="M84.03,106.12h0.64v-3.85h-0.64v-0.74h2.35c0.39,0,0.71,0.02,1.01,0.11c0.59,0.2,0.98,0.68,0.98,1.43
			c0,0.74-0.39,1.27-1.01,1.48v0.01c0,0,0.16,0.08,0.26,0.28l0.62,1.11c0.08,0.14,0.18,0.17,0.36,0.17h0.17v0.74h-0.62
			c-0.44,0-0.58-0.09-0.74-0.4l-0.76-1.37c-0.11-0.2-0.21-0.27-0.52-0.27h-0.49v1.31h0.62v0.74h-2.24V106.12z M86.54,104.03
			c0.52,0,0.86-0.31,0.86-0.88c0-0.35-0.13-0.62-0.42-0.74c-0.15-0.07-0.35-0.1-0.6-0.1h-0.72v1.71H86.54z"/>
		<path class="st1" d="M100.61,101.44c1.58,0,2.76,1.19,2.76,2.72c0,1.57-1.19,2.79-2.76,2.79c-1.58,0-2.76-1.22-2.76-2.79
			C97.84,102.63,99.03,101.44,100.61,101.44z M100.61,106.09c0.96,0,1.75-0.83,1.75-1.93c0-1.05-0.79-1.85-1.75-1.85
			c-0.96,0-1.75,0.8-1.75,1.85C98.86,105.25,99.65,106.09,100.61,106.09z"/>
		<path class="st1" d="M107.32,106.12h0.64v-3.85h-0.64v-0.74h3.81v1.38h-0.84v-0.55h-1.34v1.53h1.73v0.79h-1.73v1.44h0.71v0.74
			h-2.33V106.12z"/>
		<path class="st1" d="M121.25,106.12h0.64v-3.81h-1.01v0.8h-0.83v-1.59h4.67v1.59h-0.83v-0.8h-1.01v3.81h0.65v0.74h-2.27V106.12z"
			/>
		<path class="st1" d="M128.6,106.12h0.64v-3.85h-0.64v-0.74h2.27v0.74h-0.65v1.54h2.43v-1.54H132v-0.74h2.27v0.74h-0.64v3.85h0.64
			v0.74H132v-0.74h0.65v-1.52h-2.43v1.52h0.65v0.74h-2.27V106.12z"/>
		<path class="st1" d="M138.33,106.12h0.64v-3.85h-0.64v-0.74h3.96v1.37h-0.84v-0.59h-1.49v1.46h1.76v0.79h-1.76v1.5h1.61v-0.6h0.84
			v1.39h-4.07V106.12z"/>
		<path class="st1" d="M151.33,106.12h0.49l1.6-4.6h1.12l1.6,4.6h0.49v0.74h-2v-0.74h0.53l-0.33-1h-1.68l-0.33,1h0.53v0.74h-2
			V106.12z M154.59,104.36l-0.5-1.51c-0.08-0.26-0.1-0.47-0.1-0.47h-0.02c0,0-0.02,0.2-0.1,0.47l-0.51,1.51H154.59z"/>
		<path class="st1" d="M160.4,106.12h0.64v-3.85h-0.64v-0.74h2.35c0.39,0,0.71,0.02,1.01,0.11c0.59,0.2,0.98,0.68,0.98,1.43
			c0,0.74-0.39,1.27-1.01,1.48v0.01c0,0,0.16,0.08,0.26,0.28l0.62,1.11c0.08,0.14,0.18,0.17,0.36,0.17h0.17v0.74h-0.62
			c-0.44,0-0.58-0.09-0.74-0.4l-0.76-1.37c-0.11-0.2-0.21-0.27-0.52-0.27h-0.49v1.31h0.62v0.74h-2.24V106.12z M162.9,104.03
			c0.52,0,0.86-0.31,0.86-0.88c0-0.35-0.13-0.62-0.42-0.74c-0.15-0.07-0.35-0.1-0.6-0.1h-0.72v1.71H162.9z"/>
		<path class="st1" d="M169.05,106.12h0.64v-3.85h-0.64v-0.74h2.35c0.39,0,0.71,0.02,1.01,0.11c0.59,0.2,0.98,0.68,0.98,1.43
			c0,0.74-0.39,1.27-1.01,1.48v0.01c0,0,0.16,0.08,0.26,0.28l0.62,1.11c0.08,0.14,0.18,0.17,0.36,0.17h0.17v0.74h-0.62
			c-0.44,0-0.58-0.09-0.74-0.4l-0.76-1.37c-0.11-0.2-0.21-0.27-0.52-0.27h-0.49v1.31h0.62v0.74h-2.24V106.12z M171.55,104.03
			c0.52,0,0.86-0.31,0.86-0.88c0-0.35-0.13-0.62-0.42-0.74c-0.15-0.07-0.35-0.1-0.6-0.1h-0.72v1.71H171.55z"/>
		<path class="st1" d="M180.39,101.44c1.58,0,2.76,1.19,2.76,2.72c0,1.57-1.19,2.79-2.76,2.79c-1.58,0-2.76-1.22-2.76-2.79
			C177.62,102.63,178.81,101.44,180.39,101.44z M180.39,106.09c0.96,0,1.75-0.83,1.75-1.93c0-1.05-0.79-1.85-1.75-1.85
			c-0.96,0-1.75,0.8-1.75,1.85C178.64,105.25,179.42,106.09,180.39,106.09z"/>
		<path class="st1" d="M186.81,101.53h2.08v0.74h-0.62l0.69,3.04c0.05,0.22,0.06,0.47,0.06,0.47h0.03c0,0,0.02-0.25,0.08-0.47
			l1-3.78h0.79l1,3.78c0.06,0.22,0.08,0.47,0.08,0.47h0.03c0,0,0.01-0.25,0.06-0.47l0.69-3.04h-0.62v-0.74h2.08v0.74h-0.49
			l-1.13,4.59h-1.1l-0.89-3.36c-0.06-0.22-0.08-0.49-0.08-0.49h-0.02c0,0-0.02,0.27-0.08,0.49l-0.89,3.36h-1.1l-1.13-4.59h-0.49
			V101.53z"/>
	</g>
	<path class="st0" d="M22.32,128.38c-0.66-0.53-7.51-5.29-7.5-9.7c0-1.36,0.38-2.48,1.04-3.34c0.63-0.82,1.43-1.24,2.4-1.28
		c1.25-0.05,2.41,0.15,3.47,0.6c1.03,0.41,2.63,1.14,3.23,1.42c0.6,0.28,0.68-0.05,0.57-0.45c-0.27-0.94-0.95-5.45-1.74-5.85
		c-0.79-0.39-1,0.59-2.03,0.84c-0.71,0.18-1.42-0.08-2.11-0.29c-0.69-0.24-1.39-0.37-2.11-0.36c-0.94,0.01-1.85,0.21-2.73,0.62
		c-0.85,0.41-1.63,1-2.35,1.78c-0.69,0.82-1.24,1.82-1.65,2.97c-0.41,1.16-0.66,2.47-0.66,3.93c0,11.46,12.15,12.27,12.09,21.55
		c-0.01,2.55-0.66,4.69-1.75,6.41c-1.12,1.73-2.6,2.95-4.45,3.6c-0.92,0.33-1.73,0.44-2.4,0.33c-0.68-0.11-1.29-0.27-1.84-0.48
		c-0.55-0.3-1.05-0.56-1.48-0.77c-0.43-0.21-1.7-1.34-1.45-0.43c0.61,2.61,1.57,6.16,1.9,7.41c0.34,1.26,0.96-0.94,1.52-1.15
		c0.56-0.22,2.66-0.11,4.33-0.65c1.32-0.42,6.71-3.44,9.26-10.61C29.65,134.06,24.11,130.19,22.32,128.38z M71.5,133.47
		c-0.27,0.24-0.63,0.4-0.95,0.64c-0.35,0.19-0.7,0.39-1.04,0.58c-0.35,0.2-0.76,0.33-1.23,0.41c-0.74,0.11-5.73,0.9-7.9,1.31
		c-0.54,0.1-1.01-0.08-1.12-0.61c-0.02-0.15-0.03-0.31-0.03-0.46c0-0.01,0-0.03,0-0.04c0.06-4.05,0.12-8.09,0.18-12.14
		c0-0.24,0.37-0.47,0.59-0.55c0.28-0.12,3.36-0.36,4.14-0.42c1.88-0.16,2.92,0.87,3.14,0.99c0.22,0.12,0.42,0.18,0.61,0.16
		c0.31-0.03,0.62-0.27,0.9-0.72c0.32-0.45,0.58-0.97,0.78-1.55c0.2-0.58,0.36-1.14,0.5-1.68c0.13-0.54,0.2-0.94,0.21-1.2
		c0.03-0.4-1.18,0.68-7.17,1.09c-1.01,0.07-2.03,0.14-3.04,0.21c-0.38,0.03-0.5-0.19-0.59-0.36c0.02-1.57,0.05-3.13,0.07-4.7
		c0.01-0.71,0.53-1.21,2.53-1.26c2.56-0.07,3.83-0.16,4.51-0.06c0.69,0.13,2.92,0.64,3.33,0.76c0.41,0.1,0.64,0.15,0.7,0.15
		c0.25-0.01,0.44-0.1,0.57-0.27c0.13-0.2,0.19-0.4,0.2-0.59c0-0.16-1.7-3.75-2.53-3.99c-0.76-0.21-0.82,0.47-2.59,0.48
		c-4.31,0.02-8.61,0.04-12.92,0.07c-0.41,0-0.66,0.47-0.43,0.81c0.73,1.06,1.87,2.87,1.85,4.12c-0.1,7.3-0.21,14.61-0.31,21.91
		c-0.02,1.41-1.07,3.14-1.82,4.24c-0.28,0.4-0.04,0.84,0.39,0.74c-0.01-0.08,12.25-2.68,12.86-2.71c3.89-0.71,4.83,1.01,5.13,0.3
		c0.1-0.2,1.97-5.07,2.01-5.2C73.16,133.34,73.03,132.14,71.5,133.47z M49.81,109.74c-2.59,0.02-5.17,0.03-7.76,0.05
		c-0.41,0-0.66,0.52-0.43,0.88c0.73,1.15,1.87,3.12,1.85,4.48c-0.02,1.78-0.04,3.55-0.07,5.33c-2.68-0.01-5.37,0.22-8.06,0.75
		c0.02-1.9,0.04-3.81,0.06-5.71c0.02-1.78,1.14-3.67,1.93-4.75c0.28-0.38,0.04-0.94-0.39-0.94c-2.59,0.02-5.17,0.04-7.76,0.06
		c-0.41,0-0.66,0.57-0.43,0.98c0.73,1.27,1.88,3.45,1.86,4.95c-0.08,8.78-0.15,17.56-0.23,26.34c-0.01,1.69-1.05,3.82-1.79,5.16
		c-0.27,0.49-0.04,1.02,0.39,0.88c2.45-0.79,4.9-1.54,7.36-2.26c0.41-0.12,0.66-0.73,0.42-1.04c-0.68-0.87-1.65-2.49-1.63-4.38
		c0.05-4.72,0.1-9.43,0.15-14.15c2.69-0.6,5.37-0.94,8.05-1.06c-0.06,4.55-0.11,9.11-0.17,13.66c-0.02,1.53-1.06,3.44-1.81,4.64
		c-0.27,0.44-0.04,0.92,0.39,0.8c2.46-0.68,4.93-1.32,7.4-1.93c0.42-0.1,0.67-0.65,0.42-0.94c-0.68-0.8-1.65-2.28-1.63-4
		c0.1-7.55,0.2-15.09,0.3-22.64c0.02-1.61,1.15-3.32,1.94-4.3C50.47,110.25,50.24,109.74,49.81,109.74z M165.05,117.85
		c-0.43-1.23-0.97-2.38-1.62-3.46c-0.65-1.08-1.44-2.02-2.36-2.81c-0.96-0.82-2.08-1.47-3.35-1.95c-1.24-0.45-2.66-0.68-4.28-0.68
		c-1.23,0-2.45,0.1-3.65,0.31c-1.2,0.18-1.45,0.24-3.36,0.29c-0.32,0-0.64,0-0.97,0c-0.41,0-0.65,0.37-0.41,0.64
		c0.75,0.83,1.93,2.33,1.94,3.34c0.06,5.87,0.12,11.74,0.18,17.61c0.01,1.14-1.01,2.27-1.75,2.93c-0.27,0.24-0.03,0.66,0.41,0.69
		c2.5,0.21,5,0.46,7.49,0.74c0.42,0.05,0.66-0.31,0.41-0.62c-0.71-0.85-1.73-2.29-1.75-3.62c-0.07-5.89-0.14-11.78-0.21-17.67
		c-0.01-0.61,0.12-0.98,0.28-1.18c1.02-1.01,2.81-0.36,3.7,0.05c0.89,0.41,1.66,0.96,2.3,1.67c0.67,0.71,1.22,1.49,1.65,2.36
		c0.42,0.9,0.75,1.82,0.99,2.77c0.3,0.95,0.48,1.91,0.56,2.85c0.11,0.92,0.17,1.77,0.18,2.55c-0.01,1.53-0.21,3.11-0.6,4.73
		c-0.39,1.59-1.04,3.03-1.94,4.3c-0.87,1.22-2.05,2.17-3.54,2.85c-1.49,0.68-3.35,0.88-5.58,0.64c-0.77-0.08-1.53-0.22-2.3-0.42
		c-0.77-0.23-1.46-0.52-2.06-0.87c-0.61-0.38-1.09-0.82-1.45-1.32c-0.39-0.51-0.58-1.09-0.59-1.77c0-0.45,0.22-0.8,0.66-1.04
		c0.41-0.27,1.74-0.97,0.89-1.93c-0.45-0.53-1.59-0.9-2.72-0.32c-0.41,0.22-0.76,0.51-1.04,0.87c-0.32,0.38-0.54,0.79-0.66,1.23
		c-0.16,0.44-0.23,0.83-0.23,1.18c0,0.05,0,0.1,0,0.15c0.01,0.69,0.27,1.42,0.78,2.17c0.55,0.83,1.19,1.53,1.93,2.09
		c0.48,0.39,1.04,0.73,1.68,1.01c0.67,0.26,1.36,0.51,2.07,0.73c0.74,0.2,1.47,0.36,2.21,0.46c0.73,0.13,1.42,0.24,2.06,0.32
		c2.71,0.33,5.04,0.17,6.97-0.53c1.9-0.68,3.46-1.71,4.68-3.1c1.22-1.42,2.11-3.09,2.69-5c0.54-1.91,0.82-3.88,0.82-5.89
		c0-0.19-0.01-0.39-0.01-0.58c-0.01-0.97-0.09-1.98-0.23-3.04C165.73,120.3,165.44,119.05,165.05,117.85z M232.53,111.24
		c0.27-0.47,0.03-1.19-0.4-1.19c-2.58-0.02-5.17-0.05-7.75-0.07c-0.41,0-0.66,0.61-0.41,1.07c0.75,1.4,1.92,3.95,1.93,5.67
		c0.01,1.81,0.01,3.61,0.02,5.42c-2.68-0.61-5.36-0.87-8.04-0.85c-0.01-1.7-0.02-3.41-0.03-5.11c-0.01-1.94,1.08-3.95,1.85-5.17
		c0.27-0.42,0.03-1.07-0.4-1.07c-2.59-0.02-5.17-0.04-7.76-0.06c-0.41,0-0.65,0.55-0.41,0.96c0.75,1.26,1.94,3.56,1.95,5.1
		c0.07,8.94,0.14,17.88,0.21,26.82c0.01,1.74-0.99,3.29-1.71,4.15c-0.26,0.32-0.02,0.99,0.4,1.12c2.45,0.78,4.9,1.59,7.34,2.44
		c0.41,0.14,0.65-0.38,0.4-0.9c-0.69-1.45-1.69-3.84-1.71-5.91c-0.03-5.19-0.07-10.37-0.1-15.56c2.68,0.17,5.35,0.6,8.02,1.32
		c0.02,5.7,0.03,11.4,0.05,17.11c0.01,1.93-1,3.64-1.72,4.6c-0.26,0.35-0.03,1.09,0.4,1.25c2.43,0.89,4.86,1.82,7.29,2.77
		c0.41,0.16,0.65-0.42,0.41-1c-0.68-1.62-1.66-4.29-1.67-6.59c-0.01-10.19-0.02-20.38-0.03-30.57
		C230.65,114.83,231.75,112.59,232.53,111.24z M96.53,109.55c-2.59,0.01-5.17,0.01-7.76,0.02c-0.41,0-0.66,0.38-0.43,0.66
		c0.73,0.86,1.88,2.35,1.87,3.37c-0.03,2.65-0.06,5.29-0.09,7.94c-0.92-1.06-6.22-4.94-7.18-6.29c-0.78-1.09-0.94-2.19-0.95-2.28
		c0.32-1.04,1.16-2.05,1.79-2.68c0.28-0.28,0.04-0.69-0.39-0.69c-2.59,0.01-5.17,0.02-7.76,0.03c-0.41,0-0.66,0.41-0.43,0.7
		c0.73,0.92,1.87,2.5,1.86,3.58c-0.09,6.35-0.18,12.69-0.27,19.04c-0.02,1.23-1.07,2.69-1.83,3.6c-0.28,0.33-0.04,0.73,0.39,0.66
		c2.49-0.39,4.98-0.74,7.48-1.06c0.42-0.05,0.67-0.48,0.43-0.73c-0.69-0.7-1.68-1.96-1.66-3.35c0.05-3.91,0.1-7.82,0.16-11.73
		c1.29,1.45,4.61,4.06,6.22,5.57c1.32,1.25,1.85,2.71,2.06,3.49c-0.01,0.7-0.02,1.41-0.02,2.11c-0.01,1.15-1.06,2.49-1.82,3.32
		c-0.28,0.3-0.04,0.68,0.39,0.64c2.5-0.27,5-0.52,7.49-0.73c0.42-0.04,0.67-0.43,0.42-0.68c-0.69-0.69-1.69-1.92-1.68-3.23
		c0.06-5.77,0.12-11.55,0.17-17.32c0.01-1.23,1.13-2.53,1.92-3.28C97.2,109.94,96.96,109.55,96.53,109.55z M119.75,109.49
		c-2.59,0-5.17,0-7.76,0c-0.01,0-0.02,0.01-0.03,0.01c-2.49,0-5.54,0-6,0c-1.7,0-2.92-0.57-3.58-0.57c-0.28,0-0.53,0.13-0.76,0.41
		c-0.25,0.27-1.24,2.74-1.29,2.88c-0.11,0.32,0.09,0.67,0.42,0.73c0.32,0.06,0.55-0.08,0.9-0.23c1.06-0.47,2.22-0.79,2.78-0.94
		c0.51-0.11,1.65-0.28,3.13-0.1c-0.64,0.79-1.74,2.37-3.54,5.63c-3.36,6.08-4.27,12.02-4.59,13.26c0,0.01,0.01,0.02,0.01,0.04
		c0,0,0,0-0.01,0c0,0-0.24,1.51-1.81,3.33c-0.26,0.3-0.04,0.66,0.4,0.63c2.5-0.19,5-0.35,7.5-0.48c0.42-0.02,0.67-0.4,0.42-0.65
		c-0.7-0.7-1.7-1.92-1.69-3.2c0-0.04,0-0.08,0-0.12c0,0-0.01,0-0.01,0c0-0.01,0.01-0.02,0.01-0.04c-0.1-0.89,1.12-5.77,1.41-6.33
		c0.3-0.56,1.44-0.84,3.42-0.29c1.97,0.55,4.36,0.46,4.36,0.46c-0.01,2.08-0.01,4.15-0.02,6.23c0,1.09-1.05,2.28-1.8,3
		c-0.28,0.26-0.03,0.64,0.4,0.62c2.5-0.07,5.01-0.12,7.51-0.13c0.42,0,0.67-0.36,0.42-0.62c-0.7-0.72-1.71-1.96-1.71-3.22
		c0.01-5.52,0.01-11.04,0.02-16.56c0-1.17,1.11-2.41,1.89-3.13C120.42,109.87,120.18,109.49,119.75,109.49z M113.45,120.23
		c-0.32,0.79-2.9,0.34-3.95,0.12c-1.05-0.22-2.53-0.54-2.53-0.54c0-0.02,3.51-7.72,5.39-7.74c0.81-0.01,1.03,0.61,1.06,0.71
		c0.03,0.16,0.05,0.33,0.05,0.52C113.46,115.6,113.45,117.92,113.45,120.23z M208.12,141.13
		C208.12,141.13,208.12,141.12,208.12,141.13c-0.01-0.02,0-0.04,0-0.06c-0.33-1.87-1.24-10.93-4.64-19.98
		c-1.83-4.85-2.94-7.11-3.59-8.25c1.48-0.23,3.88,0.38,4.38,0.56c0.57,0.23,1.73,0.74,2.78,1.46c0.35,0.24,0.57,0.46,0.9,0.37
		c0.32-0.08,0.53-0.6,0.41-1.08c-0.05-0.22-1.05-3.92-1.31-4.31c-0.22-0.4-0.48-0.6-0.76-0.6c-0.67,0-3.14,0.53-4.84,0.51
		c-0.46,0-3.5-0.02-6-0.03c-0.01,0-0.02-0.01-0.03-0.01c-2.59-0.02-5.17-0.03-7.76-0.04c-0.43,0-0.66,0.49-0.39,0.83
		c0.79,0.95,1.92,2.62,1.94,4.18c0.1,7.33,0.2,14.66,0.31,21.99c0.02,1.67-0.95,3.11-1.63,3.9c-0.24,0.28,0.01,0.81,0.43,0.91
		c2.47,0.58,4.95,1.18,7.41,1.82c0.43,0.11,0.66-0.36,0.39-0.78c-0.75-1.16-1.8-3-1.82-4.49c-0.04-2.85-0.08-5.69-0.11-8.54
		c0,0,2.37,0.45,4.32-0.08c1.95-0.54,3.09-0.02,3.39,0.83c0.3,0.82,1.55,8.04,1.46,9.32c0,0.02,0.01,0.04,0.01,0.06
		c0,0-0.01,0-0.01,0c0,0.06,0,0.11,0,0.17c0.02,1.85-0.95,3.43-1.63,4.29c-0.24,0.31,0.01,0.9,0.42,1.01
		c2.46,0.7,4.92,1.42,7.37,2.18c0.43,0.13,0.64-0.37,0.39-0.86C208.37,143.39,208.12,141.13,208.12,141.13z M198.06,124.96
		c-1.04,0.21-3.59,0.56-3.92-0.55c-0.04-3.17-0.08-6.33-0.13-9.5c0-0.25,0.01-0.48,0.04-0.7c0.03-0.14,0.25-0.99,1.05-0.95
		c1.89-0.02,5.47,11.09,5.47,11.18C200.57,124.43,199.1,124.76,198.06,124.96z M177.46,108.96c-5.64,0.07-10.14,5.1-10,14.53
		c0.13,9.42,4.81,15.18,10.46,16.39c5.65,1.22,10.14-3.55,9.99-14.34C187.75,114.76,183.1,108.87,177.46,108.96z M177.87,136.55
		c-2.89-0.55-5.3-4.99-5.41-12.63c-0.11-7.64,2.17-11.66,5.05-11.62c2.88,0.03,5.29,4.55,5.41,12.67
		C183.03,133.1,180.76,137.1,177.87,136.55z M139.4,132.73c0-0.41,0.08-0.86,0.26-1.35c0.13-0.47,0.39-0.95,0.76-1.39
		c0.24-0.31,0.55-0.57,0.89-0.8c-0.04-5.26-0.09-10.51-0.13-15.77c-0.01-1.21,1.09-2.47,1.86-3.22c0.27-0.26,0.03-0.66-0.4-0.66
		c-2.59,0-5.17-0.01-7.76-0.01c-0.41,0-0.66,0.36-0.42,0.62c0.75,0.81,1.92,2.26,1.93,3.24c0.02,2.53,0.03,5.05,0.05,7.58
		c-0.94-1.12-6.32-5.04-7.3-6.27c-0.8-1.02-0.98-2.02-0.99-2.11c0.31-0.94,1.13-1.84,1.75-2.42c0.27-0.26,0.03-0.64-0.4-0.64
		c-2.59,0-5.17,0-7.76,0c-0.41,0-0.66,0.35-0.42,0.61c0.74,0.8,1.91,2.22,1.91,3.18c0.01,5.6,0.01,11.2,0.02,16.81
		c0,1.08-1.04,2.24-1.78,2.93c-0.27,0.25-0.03,0.63,0.4,0.63c2.5,0.01,5.01,0.05,7.51,0.13c0.42,0.01,0.67-0.34,0.42-0.61
		c-0.71-0.75-1.72-2.03-1.72-3.28c-0.01-3.55-0.02-7.1-0.03-10.65c1.32,1.38,4.68,4.05,6.33,5.65c1.35,1.3,1.91,2.77,2.12,3.54
		c0,0.67,0.01,1.34,0.01,2.01c0.01,1.1-1.02,2.23-1.77,2.9c-0.27,0.25-0.03,0.64,0.41,0.66c1.52,0.07,3.05,0.16,4.57,0.26
		c-0.2-0.48-0.31-0.96-0.32-1.43C139.41,132.83,139.41,132.78,139.4,132.73z"/>
	<path d="M178.41,141.67c-14.24,15.2-34.49,24.71-56.96,24.71c-22,0-41.88-9.11-56.07-23.76c-2.43,1.31-5.15,2.06-7.9,2.06
		c-0.4,0-0.79-0.02-1.18-0.05c15.79,18.25,39.12,29.8,65.15,29.8c26.17,0,49.61-11.69,65.4-30.12c-0.41-0.14-0.82-0.29-1.22-0.46
		C183.08,143.68,180.67,142.95,178.41,141.67z"/>
	<path class="st4" d="M136.16,150.64c0.13-0.31,4.5-1.1,4.5-4.67c0-2.33-2.11-4.83-5.48-4.83c-5.86,0-6.42,5.13-6.42,5.58
		c0,3.53,2.59,4.85,2.36,5.01c-0.4,0.26-2.48,2.6-2.44,3.15c-0.03-1.76-0.38-3.42-1.05-4.94c-0.73-1.66-1.88-3.11-3.42-4.31
		c-0.85-0.65-2.8-1.55-5.05-2.3c0.02-0.19,0.51-3.51,0.51-3.51c1.56,0,3.53,0.03,4.63,0.03c1.07,0,1.28,1.13,1.82,1.34
		c0.13,0.05,0.28,0.01,0.36-0.11c0.11-0.17,1.52-3.48,1.57-3.7c0.15-0.63-0.09-1.53-0.92-1.12c-4.07,1.99-9.43,0.5-9.98,0.68
		c-0.53,0.17-0.89,0.54-1.02,1.06c-0.14,0.48-1.17,6.48-1.3,7.28c-0.28-0.44-0.62-0.82-1-1.15c-0.59-0.49-1.3-0.88-2.12-1.14
		c-0.81-0.26-1.71-0.39-2.68-0.39c-0.84,0-1.64,0.14-2.38,0.43c-0.74,0.28-1.41,0.69-2,1.2c-0.57,0.5-1.02,1.1-1.34,1.77
		c-0.35,0.69-0.52,1.45-0.52,2.26c-0.03,0.37,0.03,0.74,0.15,1.11c0.15,0.44,0.51,0.68,1.03,0.68c0.32,0,0.6-0.14,0.78-0.42
		c0.15-0.22,0.29-0.48,0.42-0.79c0.14-0.34,0.29-0.69,0.45-1.04c0.18-0.34,0.4-0.66,0.65-0.95c0.24-0.29,0.55-0.53,0.95-0.72
		c0.41-0.21,0.93-0.31,1.55-0.31c0.34,0,0.7,0.08,1.06,0.25c0.37,0.17,0.69,0.39,0.97,0.67c0.28,0.25,0.51,0.56,0.69,0.92
		c0.17,0.33,0.26,0.67,0.26,1.02c0,0.6-0.21,1.32-0.62,2.15c-0.4,0.82-0.92,1.72-1.55,2.66c-0.62,0.95-1.31,1.94-2.06,2.95
		c-0.76,1.02-1.51,2.02-2.24,2.99c-0.71,0.95-1.38,1.88-2,2.76c-0.6,0.89-1.08,1.72-1.39,2.39c-0.05,0.18-0.22,0.87,1.98,0.87
		c0.23,0,11.06,0.17,11.25,0.17c0.38,0,0.76-0.02,1.15-0.07c0.55-0.09,1.09-0.21,1.64-0.36c0.53-0.18,1.01-0.43,1.43-0.74
		c0.63-0.45,1.21-1.06,1.71-1.81c0.48-0.7,0.77-1.43,0.84-2.16l0.01-0.14c0.04-0.37,0.02-0.79-0.06-1.26
		c-0.05-0.48-0.19-0.94-0.4-1.38c-0.19-0.42-0.45-0.79-0.78-1.1c-0.36-0.32-1.58-0.96-2.55-0.14c-1.04,1.13,0.22,2.2,0.52,2.55
		c0.24,0.23,2.27,3.22-4.32,3.22c-2.42,0-6.74-0.15-6.91-0.11c0.32-0.54,0.69-1.1,1.1-1.67c0.57-0.73,1.16-1.47,1.78-2.24
		c0.63-0.76,1.27-1.55,1.89-2.35c0.62-0.77,1.2-1.57,1.73-2.37c0.5-0.82,0.93-1.65,1.27-2.45c0.32-0.81,0.49-1.64,0.51-2.46
		c0.01-0.57-0.04-1.09-0.14-1.57c0.07,0.01,0.14,0.02,0.21,0.03c0.28,0.03,0.6,0.04,0.94,0.04c1.23,0,2.32,0.24,3.24,0.71
		c0.94,0.47,1.74,1.12,2.37,1.94c0.63,0.79,1.11,1.74,1.43,2.83c0.32,1.06,0.47,2.21,0.44,3.41c-0.03,1.23-0.23,2.42-0.6,3.54
		c-0.37,1.09-0.9,2.12-1.56,3.05c-0.69,0.9-2.48,4.17-7.49,4.17c-4.33-0.5-4.39,1.54,0.38,2.16c1.82,0.24,3.72-0.31,5.34-1.07
		c1.62-0.75,3.06-1.77,4.28-3.02c1.25-1.23,2.27-2.67,3.02-4.29c0.11-0.24,0.2-0.48,0.29-0.73c0.07,0.26,1.12,5.49,6.36,5.49
		c7.4,0,7.19-5.87,7.19-7.26S140.68,152.6,136.16,150.64z M132.52,145.47c0.18-0.38,1.22-1.83,3.14-1.83c1.09,0,1.9,0.24,2.44,0.71
		c0.49,0.39,0.83,1.29,0.74,1.98c-0.09,0.69-0.33,1.74-2.34,2.21c0.49-1.08,1.15-3.09,0.19-3.09c-0.96,0-2.37,2.83-3.05,3.81
		C133.17,149.06,131.56,147.52,132.52,145.47z M134.52,162.2c-1.95,0-3.53-2.13-3.53-4.08c0-1.95,1.58-4.44,3.53-4.44
		c1.95,0,3.53,2.5,3.53,4.44C138.05,160.07,136.47,162.2,134.52,162.2z"/>
	<g>
		<path class="st0" d="M68.87,100.36c0,0-0.84,2.4-2.25,3.71c-1.41,1.31-1.67,1.09-1.67,1.09c0.66-1.84,1.21-3.59,1.04-4.8
			C66.9,100.59,67.86,100.59,68.87,100.36z"/>
		<path class="st0" d="M84.8,95.84c0,0-1.25,3.91-2.36,5.22c-1.11,1.31-1.33,1.47-1.33,1.47c0.52-1.84,0.95-3.59,0.83-4.8
			C82.44,98.65,83.73,97.22,84.8,95.84z"/>
		<path class="st0" d="M77.77,99.8c0,0-0.63,2.51-2.04,4.01c-1.41,1.5-1.73,1.33-1.73,1.33c0.5-1.92,0.94-3.51,0.6-4.7
			C75.84,100.36,76.67,100.17,77.77,99.8z"/>
	</g>
	<g>
		<path class="st0" d="M174.12,100.36c0,0,0.84,2.4,2.25,3.71c1.41,1.31,1.67,1.09,1.67,1.09c-0.66-1.84-1.21-3.59-1.04-4.8
			C176.09,100.59,175.13,100.59,174.12,100.36z"/>
		<path class="st0" d="M158.19,95.84c0,0,1.25,3.91,2.36,5.22c1.11,1.31,1.33,1.47,1.33,1.47c-0.52-1.84-0.95-3.59-0.83-4.8
			C160.55,98.65,159.26,97.22,158.19,95.84z"/>
		<path class="st0" d="M165.21,99.8c0,0,0.63,2.51,2.04,4.01c1.41,1.5,1.73,1.33,1.73,1.33c-0.5-1.92-0.94-3.51-0.6-4.7
			C167.15,100.36,166.32,100.17,165.21,99.8z"/>
	</g>
	<g>
		<g>
			<path class="st5" d="M102.76,84.73c2.82,3.24,5.37,5.49,8,7.1l0.18,0.11l0.16,0.15c3.34,3.07,8.64-1.49,12.49,1.28
				c3.79-2.92,5.63,1.49,8.91-1.71l0.15-0.15l0.18-0.12c2.6-1.71,5.09-4.06,7.84-7.41l3.62,2.54c-0.17,0.42-0.36,0.83-0.55,1.24
				c4.53-3.16,8.28-7.56,9.45-11l4.23,0.74c2.16-3.17,3.66-7.15,4.37-11.75c1.75-11.25-1.5-23.86-7.91-30.67l-2.33-2.47l3-1.42
				c3.26-1.54,4.51-7.46,3.21-11.05c-1.57-4.33-5.34-6.86-10.09-6.77c-0.21,0-0.42,0.01-0.63,0.03c-1.82,0.12-2.58,0.81-3.95,2.06
				c-1.55,1.42-3.49,3.18-7.36,4.29l-0.7,0.2l-0.67-0.29c-4.03-1.74-8.35-1.73-12.6,0.04l-0.74,0.31l-0.75-0.28
				c-4.29-1.61-8.6-1.44-12.6,0.46L107,20.5l-0.7-0.17c-3.9-0.96-5.87-2.65-7.45-4c-1.4-1.2-2.17-1.86-3.99-1.91
				c-0.21-0.01-0.42-0.01-0.63,0c-4.75,0.09-8.46,2.77-9.94,7.16c-1.22,3.64,0.16,9.51,3.45,10.92l3.03,1.3l-2.27,2.56
				c-6.26,7.07-9.24,19.8-7.24,30.97c0.82,4.58,2.4,8.49,4.63,11.58l4.21-0.9c1.25,3.39,5.09,7.64,9.68,10.62
				c-0.21-0.4-0.4-0.81-0.58-1.22L102.76,84.73z"/>
			<path class="st5" d="M106.91,17.13c-6.79,2.02-6.9-4.94-11.98-5.09c-6.1-0.17-10.86,3.28-12.7,8.73c-1.6,4.76,0.16,12,4.69,13.94
				C75.04,48.13,74.73,78.82,91.95,87c-2.54-3.38-3.89-6.11-3.89-8.09c2.12,5.76,10.56,12.68,19.03,14.43
				c-0.45-0.41-0.89,0.17-1.3-0.26c-2.04-2.09-3.57-4.33-4.62-6.71c2.54,2.91,6.53,3.59,9.77,5.56c3.94,3.61,7.44-1.88,11.74,1.07
				c4.23-3.12,7.41,3.2,11.27-0.57c3.2-2.1,5.88-3.87,8.35-6.87c-1.2,2.91-3.1,5.64-5.75,8.18c8.43-2.08,14.6-6.88,16.59-12.72
				c0.05,1.98,0.85,1.32-1.62,4.8c17.03-8.86,16.05-39.52,3.88-52.46c4.48-2.12,6.08-9.42,4.38-14.12
				c-1.95-5.38-6.79-8.64-12.88-8.23c-5.07,0.34-4.43,7.23-11.28,5.53C118.69,12.35,111.22,15.84,106.91,17.13z"/>
			<path class="st6" d="M120.26,19.73c-5.89-1.57-12.54-1.27-19.24,2.95c0.34-0.89,1.49-1.7,2.23-2.55c-4.91-1.93-5.66-5-9.31-4.7
				c-3.69,0.3-5.69,1.84-7.72,3.12c1.27-0.06,2.18,0.13,2.86,0.48c-3.61,0.99-4.19,3.19-4.32,5.91c-0.13,2.98,1.26,6.1,4.42,7.11
				c0.78-0.81,1.57-1.62,2.35-2.43c-0.87-0.38-1.87-0.65-2.23-1.46c1.35,0.4,2.73-0.33,4.09-0.5c0.77-0.28,2.26-1.56,3.89-2.32
				c-2.08-0.84-4.14-1.78-6.57-0.61c0.33-1.59,1.43-2.77,2.97-3.72c-3.79,0.56-6.54,2.15-6.05,6.96c-2.99-4.23,0.11-7.56,3.41-8.51
				c2.44-0.7,4.97,0.97,7.46,1.45c-1.57,0.86-3.83,0.11-5.25,2.15c2.38-0.62,4.41-0.15,6.21,1.08c0.2-0.08,0.41-0.16,0.61-0.23
				c-10.82,8.94-19.1,22.53-14.6,39.3c0.26-3.04,1.28-6.1,3.46-9.18c-0.99,7.4,1.7,14.89,6.5,22.44c-0.92-3.46-1.07-6.87-0.29-10.23
				c0.59,6.68,3.04-7,2.73-10.88c-0.55,1.28-0.73,2.42-0.91,3.56c-1.01-3.65-0.33-7.28,3-10.89c-0.86,2.81-0.87,5.66-0.04,8.56
				c0.76-0.99,1.6-1.95,2.73-2.81c0.44,3.21,1.21,6.26,2.5,9.05c2.7-2.65-1.62-10.45-0.8-15.44c-0.73,0.5-1.31,1.08-1.79,1.71
				c0.55-3.29,3.8-6.51,5.95-6.17c1.86,0.5,2.13-7.12,0.39-7.66c-1.81,0.16-3.46,0.83-5.02,1.77c0.86,0.68,1.57,1.46,1.95,2.47
				c-3.97,0.16-5.83,2.11-6.02,5.48c-1.2-2.5-0.88-4.81,2.28-6.74c-0.33-0.12-1.13-0.24-2.06-0.35c2.1-2.39,5.13-4.03,9.17-4.88
				c4.28,1.51,7.17,5.56,9.85,10c0.81-1.32,1.34-2.52,1.79-3.7c-0.06,2.16,0.88,2.14,0.78-0.02c0.47,1.16,1.03,2.35,1.87,3.63
				c2.58-4.54,5.38-8.71,9.62-10.39c4.06,0.69,7.13,2.21,9.28,4.52c-0.93,0.15-1.73,0.3-2.05,0.43c3.19,1.81,3.56,4.1,2.42,6.64
				c-0.27-3.36-2.17-5.24-6.14-5.24c0.36-1.03,1.05-1.84,1.89-2.55c-1.58-0.88-3.24-1.49-5.06-1.57c-1.73,0.6-1.29,8.21,0.56,7.64
				c2.14-0.43,5.45,2.67,6.08,5.93c-0.5-0.61-1.09-1.16-1.83-1.64c0.92,4.95-3.22,12.92-0.46,15.46c1.22-2.85,1.93-5.92,2.3-9.15
				c1.14,0.82,2.01,1.74,2.79,2.7c0.76-2.93,0.69-5.79-0.23-8.56c3.41,3.47,4.17,7.07,3.24,10.76c-0.21-1.13-0.41-2.27-0.99-3.52
				c-0.23,3.89,2.52,17.47,2.97,10.77c0.85,3.33,0.77,6.74-0.07,10.24c4.64-7.73,7.16-15.33,6.01-22.69
				c2.25,2.99,3.34,6.01,3.66,9.04c4.13-16.93-4.44-30.19-15.45-38.7c0.2,0.07,0.41,0.14,0.61,0.21c1.77-1.3,3.79-1.85,6.18-1.33
				c-1.46-1.98-3.71-1.14-5.29-1.94c2.47-0.58,4.96-2.35,7.42-1.75c3.32,0.81,6.5,4.02,3.6,8.37c0.38-4.83-2.4-6.31-6.2-6.72
				c1.56,0.89,2.68,2.03,3.05,3.61c-2.45-1.07-4.49-0.06-6.55,0.87c1.64,0.69,3.16,1.91,3.94,2.16c1.37,0.11,2.76,0.79,4.1,0.34
				c-0.34,0.82-1.34,1.13-2.2,1.54c0.8,0.78,1.6,1.56,2.4,2.34c3.14-1.14,4.47-4.32,4.27-7.29c-0.18-2.72-0.81-4.89-4.44-5.74
				c0.67-0.38,1.57-0.6,2.84-0.6c-2.06-1.2-4.09-2.66-7.78-2.81c-3.65-0.16-4.34,2.95-9.2,5.07c0.76,0.82,1.93,1.59,2.29,2.46
				c-6.78-3.96-14.37-5.03-21.75-4.21C120.17,18.83,120.21,18.86,120.26,19.73z"/>
			<g>
				<path class="st6" d="M153.77,36.12c1.6,4.11,2.34,9.18,2.73,16.59c-1.96-2.78-4.23-3.89-4.23-3.89s0.25,7.71-2.36,13.67
					c0.26-6.66-0.72-12.36-4.97-17.83c0.47-3.01-0.99-6.54-0.99-6.54s0,0,1.42-0.12c-2.48-4.59-4.91-6.46-13.05-8.12
					c-8.12,1.55-8.67,8.85-8.67,8.85l-2.49-1.76l-2.69,1.9c0,0-0.43-8.67-8.89-9.09c-7.39,0.3-10.16,4.48-12.54,9.17
					c1.42,0.06,1.42,0.06,1.42,0.06s-1.38,3.58-0.85,6.57c-4.12,5.64-4.98,11.38-4.57,18.02c-2.74-5.86-2.66-13.57-2.66-13.57
					s-2.25,1.21-4.14,4.06c0.23-7.42,0.86-12.51,2.37-16.69c-4.04,7.33-5.77,16.03-3.14,25.81c0.26-3.04,1.28-6.1,3.46-9.18
					c-0.99,7.4,1.7,14.89,6.5,22.44c-0.92-3.46-1.07-6.87-0.29-10.23c0.59,6.68,8.54,17.66,13.12,19.51
					c-3.34-6.28-7.52-17.84-7.38-24.25c0.29,2.14,5.02,15.53,20.74,15.22c15.72-0.31,19.88-14.08,20.4-16.03
					c0.04,6.47-3.64,18.66-6.79,25.01c4.54-2.03,12.18-13.8,12.63-20.5c0.85,3.33,0.77,6.74-0.07,10.24
					c4.64-7.73,7.16-15.33,6.01-22.69c2.25,2.99,3.34,6.01,3.66,9.04C159.89,51.92,157.97,43.29,153.77,36.12z"/>
				<path class="st6" d="M154.55,26.66c0.38-4.83-2.4-6.31-6.2-6.72c1.56,0.89,2.68,2.03,3.05,3.61c-2.45-1.07-4.49-0.06-6.55,0.87
					c1.64,0.69,3.16,1.91,3.94,2.16c1.37,0.11,2.76,0.79,4.1,0.34c-0.34,0.82-1.34,1.13-2.2,1.54c0.41,0.39,0.81,0.79,1.22,1.18
					c0.5-0.32,1.45-1.02,2.41-2.16c0.38-0.45,0.59-1.01,0.7-1.59C154.87,26.15,154.72,26.4,154.55,26.66z"/>
				<path class="st6" d="M89.32,28.17c1.35,0.4,2.73-0.33,4.09-0.5c0.77-0.28,2.26-1.56,3.89-2.32c-2.08-0.84-4.14-1.78-6.57-0.61
					c0.33-1.59,1.43-2.77,2.97-3.72c-3.79,0.56-6.54,2.15-6.05,6.96c-0.18-0.25-0.33-0.5-0.47-0.74c0.12,0.58,0.34,1.13,0.73,1.56
					c0.99,1.1,1.95,1.76,2.46,2.06c0.4-0.41,0.79-0.82,1.19-1.23C90.68,29.25,89.68,28.98,89.32,28.17z"/>
			</g>
			<path class="st5" d="M110.32,84.77c-0.17-0.01-0.34-0.03-0.51-0.08c-0.6-0.17-1.1-0.6-1.41-1.18
				c-5.09-9.78,2.54-25.42,3.95-28.98c4.15-10.46,5.88-11.42,8.76-11.48c0.04,0,0.11,0,0.15,0c2.54,0.1,4.42,0.3,9.58,12.1
				c1.33,3.05,7.88,16.63,4.16,27.83c-0.21,0.63-0.79,1.04-1.38,1.23c-0.24,0.08-0.5,0.12-0.75,0.11c-0.36-0.01-0.71-0.12-1.03-0.31
				c-3.38-2.02-6.23-2.96-9.24-3.08c-0.31-0.01-0.62-0.01-0.93-0.01c-3.39,0.07-6.41,1.11-10.1,3.49
				C111.19,84.66,110.76,84.78,110.32,84.77z"/>
			<path class="st5" d="M132.71,64.42c1.91,2.18,4.75,8.21,0.26,17.39c-3.38-2.02-6.94-3.48-11.32-3.39
				c-4.38,0.09-7.9,1.69-11.24,3.84c-4.69-9-3.41-12.81-0.12-17.39c2.66-3.71,8.21-22.26,10.97-22.31
				C123.7,42.51,130.8,62.24,132.71,64.42z"/>
			<path class="st7" d="M132.9,77.37c0,0-2.86,4.15-11.55,4.18c-8.55,0.02-11-3.74-11-3.74c-4.67-7.98,8.15-35.19,10.92-35.25
				C123.7,42.51,137.41,69.21,132.9,77.37z"/>
			<path class="st5" d="M129.43,61.8c-0.03-2.58-3.2-4.34-7.86-4.25c-4.66,0.09-7.99,1.72-7.96,4.56c0.07,6.37,6.36,9.1,8.1,9.07
				C123.24,71.15,129.49,67.41,129.43,61.8z"/>
			<g>
				<g>
					<path d="M136.37,31.04c0,0-6.97-3.02-10.25,4.92c0,0-0.11-1.62,0.37-3.03c0,0-1.96,2.14-2.83,5.81c0,0-0.16-6.37,3.01-10.76
						c0,0-0.65,2.2-0.38,3.45c0,0,1.1-2.48,3.86-3.92c0,0-1.82,2.06-2.11,3.84C128.04,31.34,131.7,27.7,136.37,31.04z"/>
				</g>
				<g>
					<path d="M106.42,30.23c0,0,7.18-2.48,9.83,5.69c0,0,0.23-1.61-0.13-3.05c0,0,1.79,2.29,2.36,6.01c0,0,0.66-6.34-2.15-10.96
						c0,0,0.48,2.25,0.11,3.47c0,0-0.9-2.56-3.54-4.21c0,0,1.66,2.2,1.8,3.99C114.7,31.17,111.33,27.26,106.42,30.23z"/>
				</g>
				<g>
					<g>
						<g>
							<path class="st8" d="M136.27,39.19c-0.71-0.13-2.01-0.07-3.08,0.57c-1.07,0.64-2.06,2.22-1.87,2.05
								C132.13,41.09,136.27,39.19,136.27,39.19z"/>
							<path class="st8" d="M132.33,39.21c0.34-0.23-1.85,0.41-2.4,1.07c-0.56,0.66-1.22,2.52-0.95,2.56S130.33,40.58,132.33,39.21z
								"/>
						</g>
					</g>
					<g>
						<g>
							<path class="st9" d="M128.32,51.29c0,0-0.87-0.47-1.3-1.55c-0.72-1.8-0.69-3.41-0.69-3.41c0.25,1.49,1.86,1.53,2.17,1.62
								c1.94,0.59,9.4-5.46,9.4-5.46s3.59,1.71,5.68,5.39c-1.15-0.93-3.7-2.3-4.71-2.72c0.28,0.9,0.66,2.64,0,4.07
								c1.12,0.27,2.2,0.61,3.1,1.06C141.97,50.29,133.88,48.86,128.32,51.29z"/>
							<g>
								<path class="st4" d="M135.72,47.8c-0.02-1.18-0.76-2.14-1.75-2.39c0.5-0.34,0.99-0.69,1.44-1.02
									c1.01,0.7,1.7,1.94,1.71,3.38c0.01,0.77-0.18,1.48-0.51,2.11c-0.61,0-1.25,0.01-1.9,0.05
									C135.33,49.46,135.73,48.68,135.72,47.8z"/>
								<path class="st4" d="M129.83,47.76c0.46-0.17,0.98-0.42,1.53-0.72c-0.08,0.27-0.14,0.56-0.13,0.86
									c0.01,1.01,0.56,1.86,1.33,2.24c-0.62,0.09-1.25,0.21-1.86,0.36c-0.53-0.69-0.87-1.58-0.88-2.56
									C129.81,47.88,129.83,47.82,129.83,47.76z"/>
								<path d="M131.22,47.9c0-0.3,0.05-0.59,0.13-0.86c0.84-0.46,1.75-1.04,2.61-1.64c0.99,0.24,1.73,1.21,1.75,2.39
									c0.01,0.88-0.39,1.66-1,2.13c-0.71,0.04-1.43,0.11-2.16,0.22C131.78,49.76,131.24,48.91,131.22,47.9z"/>
							</g>
							<g>
								<path class="st0" d="M134.35,46.93c0.09,0.41,0.46,0.65,0.83,0.55c0.04-0.01,0.09-0.03,0.13-0.05
									c0.29-0.15,0.45-0.52,0.37-0.87c-0.09-0.41-0.46-0.65-0.83-0.55c-0.01,0-0.02,0.01-0.03,0.01
									C134.46,46.13,134.26,46.53,134.35,46.93z"/>
							</g>
						</g>
						<path d="M128.92,47.99c0,0,4.15-0.44,8.16-3.64c1.33-1.06,0.81-1.86,0.81-1.86s-2.38,1.93-4.76,3.48
							C130.72,47.55,128.92,47.99,128.92,47.99z"/>
					</g>
				</g>
				<g>
					<g>
						<g>
							<path class="st8" d="M106.24,39.93c0.7-0.16,2.01-0.16,3.09,0.42c1.09,0.58,2.11,2.12,1.92,1.96
								C110.43,41.63,106.24,39.93,106.24,39.93z"/>
							<path class="st8" d="M110.18,39.76c-0.34-0.21,1.86,0.32,2.43,0.95c0.57,0.63,1.29,2.46,1.02,2.51
								C113.37,43.28,112.21,41.04,110.18,39.76z"/>
						</g>
					</g>
					<g>
						<g>
							<path class="st9" d="M114.5,51.64c0,0,0.85-0.51,1.26-1.61c0.68-1.83,0.23-3.47,0.23-3.47c-0.21,1.5-1.44,1.64-1.75,1.75
								c-1.92,0.68-9.54-5.01-9.54-5.01s-3.54,1.88-5.53,5.66c1.12-0.98,3.64-2.47,4.63-2.94c-0.26,0.91-0.59,2.67,0.11,4.07
								c-1.11,0.32-2.19,0.71-3.07,1.2C100.84,51.3,108.88,49.48,114.5,51.64z"/>
							<g>
								<path class="st4" d="M107.02,48.51c-0.02-1.18,0.7-2.18,1.68-2.47c-0.51-0.32-1.01-0.64-1.47-0.95
									c-0.99,0.75-1.64,2.02-1.62,3.46c0.01,0.77,0.22,1.48,0.56,2.08c0.61-0.03,1.25-0.05,1.9-0.04
									C107.45,50.15,107.03,49.39,107.02,48.51z"/>
								<path class="st4" d="M112.9,48.19c-0.46-0.14-0.99-0.37-1.55-0.65c0.09,0.27,0.15,0.55,0.15,0.85
									c0.01,1.01-0.51,1.88-1.27,2.3c0.63,0.06,1.25,0.15,1.87,0.27c0.51-0.72,0.83-1.62,0.81-2.6
									C112.92,48.31,112.91,48.25,112.9,48.19z"/>
								<path d="M111.51,48.4c0-0.3-0.06-0.59-0.15-0.85c-0.85-0.42-1.77-0.96-2.66-1.51c-0.98,0.29-1.7,1.29-1.68,2.47
									c0.01,0.88,0.43,1.65,1.06,2.08c0.71,0.01,1.44,0.04,2.16,0.11C111,50.28,111.53,49.41,111.51,48.4z"/>
							</g>
							<g>
								<path class="st0" d="M108.37,47.57c-0.08,0.41-0.44,0.67-0.81,0.58c-0.05-0.01-0.09-0.03-0.13-0.05
									c-0.29-0.14-0.46-0.5-0.39-0.86c0.08-0.41,0.44-0.67,0.81-0.58c0.01,0,0.02,0.01,0.03,0.01
									C108.23,46.78,108.45,47.17,108.37,47.57z"/>
							</g>
						</g>
						<path d="M113.82,48.37c0,0-4.15-0.25-8.25-3.25c-1.36-0.99-0.86-1.82-0.86-1.82s2.43,1.81,4.85,3.25
							C112.01,48.02,113.82,48.37,113.82,48.37z"/>
					</g>
				</g>
				<path d="M119.92,41.57c0.66-1.33,1.14-4.04,1.24-4.59c0.01-0.03,0.01-0.03,0.02,0c0.11,0.54,0.66,3.24,1.36,4.53
					c0,0,5.25-6.11,10.79-3.52c0,0-9.68-0.31-11.05,8.54c0,0-0.61-2.03-1.03-3.47c-0.39,1.46-0.94,3.52-0.94,3.52
					c-1.6-8.77-11.27-8-11.27-8C114.51,35.71,119.92,41.57,119.92,41.57z"/>
			</g>
			<g>
				<g>
					<path class="st3" d="M127.82,61.52c-0.37-0.84-2.21-2.56-2.7-2.62c-0.5-0.06-2.58-0.24-3.77-0.22
						c-1.19,0.03-3.26,0.31-3.76,0.4c-0.5,0.08-2.28,1.89-2.63,2.75c-0.35,0.86-0.15,1.59-0.15,1.59s2.15-3.04,3.16-3.25
						c1.01-0.2,2.19-0.18,2.35-0.16c0.16,0.02,0.67,0.78,1.05,0.77c0,0,0.01,0,0.01,0c0,0,0.01,0,0.01,0
						c0.38-0.01,0.87-0.79,1.03-0.82c0.16-0.03,1.34-0.11,2.36,0.05c1.01,0.16,3.24,3.09,3.24,3.09S128.19,62.36,127.82,61.52z"/>
					<g>
						<path class="st3" d="M116.02,64.66c0.08-0.12,0.29,0.67,1.37,0.64c1.08-0.03,1.75-0.91,1.8-0.72s-0.59,1.27-1.82,1.3
							C116.15,65.91,115.81,64.98,116.02,64.66z"/>
						<path class="st3" d="M126.83,64.4c-0.08-0.12-0.27,0.68-1.36,0.71c-1.08,0.03-1.78-0.83-1.82-0.63
							c-0.04,0.19,0.63,1.24,1.85,1.21C126.73,65.66,127.04,64.71,126.83,64.4z"/>
					</g>
				</g>
				<path class="st0" d="M117.85,59.45c0,0,1.11-0.15,3.5-0.2s3.64,0.03,3.64,0.03s-1.27-0.46-3.64-0.4
					C118.98,58.94,117.85,59.45,117.85,59.45z"/>
			</g>
			<path d="M123.73,75.9l-3.49,0.07c0.38-2.11,0.29-4.41-0.07-6.83l3.49-0.07C123.04,71.37,123.05,73.65,123.73,75.9z"/>
		</g>
		<path class="st5" d="M107.07,72.82c0,0,7.88,2.04,14.93,2.13c10.25,0.12,14.49-4.09,14.49-4.09s-4.43,5.37-12.99,5.67
			C111.82,76.91,107.07,72.82,107.07,72.82z"/>
	</g>
</g>
</svg>
