<?xml version="1.0" encoding="utf-8"?>
<!-- Generator: Adobe Illustrator 27.2.0, SVG Export Plug-In . SVG Version: 6.00 Build 0)  -->
<svg version="1.1" id="Layer_1" xmlns="http://www.w3.org/2000/svg" xmlns:xlink="http://www.w3.org/1999/xlink" x="0px" y="0px"
	 viewBox="0 0 191.8 234.71" style="enable-background:new 0 0 191.8 234.71;" xml:space="preserve">
<style type="text/css">
	.st0{fill:#CE0E2D;}
	.st1{fill:#F89520;}
	.st2{fill:#FFCD00;}
	.st3{fill:#81B2D1;}
	.st4{fill:#345B9E;}
	.st5{fill:#20407E;}
	.st6{fill:#1A325D;}
	.st7{fill:#FFFFFF;}
	.st8{fill:#6F7271;}
	.st9{fill:#BC955C;}
</style>
<g>
	<path class="st0" d="M177.24,107.37c-12.81-28.82-16.44-39.74-17.99-44.41c-1.93-5.8-6.45-10.44-10.82-14.91
		c-0.87-0.89-1.75-1.79-2.6-2.7c-3.96-4.2-8.84-13.42-11.82-20.04c-2.42-5.37-8.01-8.16-13.93-11.1l-1-0.5
		c-1.6-0.8-3.52-2.58-5.54-4.45C109.09,5.13,103.55,0,95.9,0c-7.65,0-13.19,5.13-17.64,9.26c-2.03,1.88-3.94,3.65-5.54,4.45l-1,0.5
		c-5.92,2.95-11.51,5.73-13.93,11.1c-2.98,6.62-7.86,15.84-11.82,20.04c-0.86,0.91-1.73,1.8-2.6,2.7
		c-4.37,4.48-8.89,9.11-10.82,14.91c-1.55,4.66-5.18,15.59-17.99,44.41C2.18,135.22,0,144.64,0,154.14
		c0,11.82,8.49,24.39,24.22,24.39h20.14c0.18,0,0.67,0,0.87,0c1.07,0,5.55-0.23,8.08,1.94c1.86,1.6,2.81,4.23,2.81,7.84
		c0,6.09-2.41,7.9-5.74,10.42c-3.8,2.86-8.52,6.42-8.52,16.07c0,19.92,17.76,19.92,24.44,19.92H95.9h29.58
		c6.69,0,24.44,0,24.44-19.92c0-9.64-4.72-13.2-8.52-16.07c-3.33-2.51-5.74-4.33-5.74-10.42c0-3.59,1.06-6.09,2.79-7.82
		c2.4-2.4,8.41-2.02,8.45-2.01c0.18,0.03,0.36,0.04,0.54,0.04h20.14c15.73,0,24.22-12.56,24.22-24.39
		C191.8,144.64,189.62,135.22,177.24,107.37z M167.58,171.73h-19.92c-1.67,0-8.52-0.75-13.59,3.57c-3.45,2.94-5.2,7.32-5.2,13.01
		c0,9.47,4.68,13,8.44,15.84c3.38,2.55,5.82,4.39,5.82,10.64c0,10.98-6.47,13.13-17.65,13.13H95.9H66.32
		c-11.18,0-17.65-2.15-17.65-13.13c0-6.26,2.44-8.1,5.82-10.64c3.76-2.84,8.44-6.36,8.44-15.84c0-5.69-1.75-10.07-5.2-13.01
		c-5.06-4.32-11.96-3.57-13.59-3.57H24.22c-12.79,0-17.43-10.52-17.43-17.6c0-8.52,2.09-17.28,13.97-44.01
		c11.41-25.66,15.61-37.16,18.23-45.02c1.44-4.32,5.23-8.2,9.24-12.31c0.9-0.92,1.8-1.85,2.68-2.78
		c5.85-6.2,11.92-19.34,13.08-21.91c1.42-3.16,5.75-5.32,10.76-7.81l1.01-0.5c2.47-1.24,4.73-3.33,7.12-5.55
		c3.95-3.66,8.03-7.45,13.02-7.45c4.99,0,9.07,3.79,13.02,7.45c2.39,2.22,4.65,4.31,7.12,5.55l1.01,0.5
		c5.01,2.5,9.34,4.65,10.76,7.81c1.16,2.57,7.22,15.71,13.07,21.91c0.88,0.93,1.78,1.86,2.68,2.78c4.01,4.11,7.8,7.99,9.24,12.31
		c2.61,7.86,6.82,19.36,18.23,45.02c11.88,26.73,13.97,35.48,13.97,44.01C185.01,161.21,180.36,171.73,167.58,171.73z"/>
	<g>
		<path class="st1" d="M88.06,9.8c5.81-0.02,11.15,0.1,16.1,0.32c-2.54-1.92-5.23-3.32-8.26-3.32C93.04,6.79,90.47,8.04,88.06,9.8z"
			/>
		<path class="st1" d="M60.24,35.76c-0.21,0.4-0.43,0.81-0.65,1.23c7.36,0.25,15.85,0.47,23.48,0.64c-0.03,0.12-0.04,0.24-0.04,0.36
			c0,0.35,0.15,0.63,0.33,0.86c-0.1,0.01-0.19,0.01-0.29,0.02c-0.27,0.04-0.55,0.12-0.84,0.23c-0.33,0.12-0.58,0.4-0.66,0.75
			c-0.08,0.34,0.02,0.7,0.27,0.96c0.18,0.18,0.38,0.35,0.52,0.44c0.13,0.1,0.26,0.21,0.45,0.38c0.02,0.01,0.04,0.04,0.06,0.05
			c-0.48,0-0.95,0.01-1.38,0.02c-1.77,0.03-3.86,0.03-6.09,0.01c0.15-0.13,0.29-0.25,0.43-0.38c0.32-0.32,0.53-0.72,0.6-1.17
			c0.09-0.56-0.28-1.09-0.84-1.19c-1.22-0.22-2.72-0.22-4.06-0.14c-0.56,0.02-1.11,0-1.64-0.05c-0.43-0.05-0.85,0.2-1.04,0.6
			c-0.04,0.09-0.08,0.18-0.12,0.29c-0.11,0.23-0.17,0.47-0.17,0.72c0,0.53,0.34,0.9,0.6,1.13c0.04,0.03,0.08,0.08,0.12,0.12
			c-2.98-0.05-5.89-0.09-8.29-0.1c-1.51,0-2.78,0-3.97,0.03c-1.91,3.17-4.01,6.26-6.09,8.46c-0.79,0.84-1.6,1.67-2.41,2.5
			c7.56-0.06,14.48,0.09,20.05,0.64c-2.35,0.65-11.17,0.9-21.61,0.96c-2.13,2.2-4.11,4.35-5.64,6.56c0.71-0.01,1.43-0.02,2.13-0.04
			c9.37-0.26,14.84-1.45,24.26-1.46c5.72-0.01,12.28,0.22,19.03,0.46c0.11,0.12,0.24,0.21,0.41,0.27c0.63,0.21,1.34,0.31,2.11,0.31
			h0.14c1.39-0.04,2.34-0.02,3.61-0.07c0.52-0.02,0.98-0.11,1.41-0.24c1.22,0.04,2.44,0.08,3.65,0.11c0.17,0.05,0.31,0.09,0.42,0.12
			c0.12,0.04,0.24,0.05,0.36,0.04c0.93-0.06,1.88-0.07,2.83-0.03c0.35,0.02,0.71,0,1.07-0.01c2.32,0.05,4.6,0.08,6.81,0.08
			c5.57,0,8.77,0.08,14.2-0.16c6.27-0.28,13.74,0.01,20.05,0.01c2.09,0,4.19-0.02,6.28-0.03c-1.78-2.43-4.08-4.8-6.48-7.25
			c-0.9-0.92-1.8-1.85-2.68-2.78c-1.32-1.4-2.65-3.15-3.93-5.05c-6.44-0.09-11.45-0.34-12.83-0.92c1.16-0.54,5.59-0.91,11.48-1.17
			c-0.75-1.2-1.47-2.42-2.15-3.63c-0.98,0.2-2.93,0.35-6.27,0.41c-4.01,0.07-3.65,0.99-4.49,1.65c0.22-0.27,0.4-0.58,0.51-0.93
			c0.16-0.52-0.11-1.07-0.61-1.27c-0.28-0.11-0.58-0.19-0.86-0.24c-0.26-0.04-0.52-0.06-0.78-0.06h-2.93
			c-0.26,0-0.52,0.02-0.78,0.06c-0.27,0.04-0.54,0.12-0.84,0.23c-0.33,0.12-0.58,0.4-0.66,0.75c-0.08,0.34,0.02,0.7,0.27,0.96
			c0.18,0.19,0.38,0.35,0.52,0.44c0.13,0.1,0.26,0.21,0.45,0.38c0.05,0.04,0.09,0.08,0.14,0.13c-0.01,0.05-0.02,0.11-0.03,0.19
			c-3.54-0.08,1.16-0.39-4.37-0.25c-0.97,0.02-2.04,0.04-3.21,0.05c0.16-0.14,0.32-0.28,0.48-0.43c0.32-0.32,0.53-0.73,0.6-1.18
			c0.09-0.56-0.29-1.09-0.84-1.19c-0.35-0.06-0.72-0.11-1.1-0.14c0.18-0.28,0.33-0.58,0.43-0.91c0.01-0.03,0-0.06,0.01-0.09
			c4.92-0.43,11.07-1.28,14.79-0.94c3.14,0.28,7,0.83,9,1.36c-0.78-1.41-1.5-2.78-2.14-4.05c-6.12,0.38-13.41,1.92-19.1,1.7
			C106.48,35.68,79.54,35.73,60.24,35.76z M100.26,38.33c0.22,0.23,0.46,0.43,0.65,0.55c0.18,0.14,0.35,0.29,0.59,0.49
			c0.11,0.09,0.2,0.18,0.32,0.33c-0.01,0.12-0.05,0.39-0.16,0.96c-0.05,0.33-0.11,0.69-0.18,1.09c-1.58-0.01-3.19-0.02-4.8-0.03
			c-0.31-0.17-0.67-0.17-0.98-0.01c-1.7-0.01-3.39-0.02-5.02-0.03c-0.07-0.37-0.15-0.73-0.22-1.1c-0.01-0.03-0.02-0.06-0.02-0.08
			l0.01-0.13c0.2-0.2,0.43-0.4,0.69-0.61c0.29-0.24,0.57-0.49,0.84-0.75c0.33-0.33,0.53-0.72,0.64-1.17c2.9,0.06,5.45,0.1,7.44,0.14
			C100.09,38.1,100.16,38.22,100.26,38.33z M107.52,39.8c0.74,0,1.43,0.06,2.06,0.17c-0.04,0.23-0.14,0.43-0.31,0.6
			c-0.19,0.18-0.38,0.36-0.59,0.52c-0.22,0.18-0.42,0.36-0.59,0.52c-0.17,0.17-0.25,0.36-0.25,0.57c0,0.08,0,0.15,0,0.2
			c0.02,0.05,0.04,0.11,0.06,0.17c0.26,1.31,0.54,2.68,0.84,4.09c0.3,1.41,0.51,2.79,0.64,4.12c0.08,0,0.18,0,0.31,0
			c0.09-0.22,0.21-0.52,0.36-0.9c0.15-0.38,0.32-0.8,0.5-1.25c0.2-0.47,0.43-0.95,0.67-1.45c0.22-0.52,0.44-0.99,0.64-1.42
			c0.24-0.45,0.46-0.83,0.67-1.15c0.2-0.33,0.38-0.57,0.53-0.7c0.39,0.37,0.73,0.88,1.03,1.55c0.3,0.67,0.57,1.37,0.81,2.12
			c0.26,0.72,0.51,1.38,0.75,2c0.26,0.63,0.53,1.08,0.81,1.35c0.06-0.18,0.14-0.52,0.25-1c0.09-0.48,0.2-1.04,0.33-1.67
			c0.13-0.65,0.26-1.33,0.39-2.05c0.13-0.72,0.24-1.39,0.33-2.02c0.11-0.63,0.2-1.18,0.28-1.65c0.09-0.47,0.14-0.77,0.14-0.92
			c0-0.15-0.06-0.29-0.17-0.42c-0.11-0.15-0.24-0.28-0.39-0.4c-0.15-0.13-0.3-0.26-0.45-0.37c-0.15-0.1-0.29-0.22-0.42-0.35
			c0.22-0.08,0.44-0.14,0.64-0.17c0.2-0.03,0.41-0.05,0.61-0.05c0.65,0,1.63,0,2.93,0c0.2,0,0.41,0.02,0.61,0.05
			c0.22,0.03,0.44,0.09,0.64,0.17c-0.11,0.37-0.32,0.67-0.61,0.9c-0.28,0.25-0.57,0.48-0.86,0.7c-0.06,0.13-0.16,0.53-0.31,1.2
			c-0.15,0.65-0.32,1.42-0.5,2.32c-0.19,0.91-0.38,1.89-0.59,2.92c-0.2,1.02-0.39,1.98-0.56,2.89c-0.15,0.9-0.28,1.67-0.39,2.32
			c-0.11,0.65-0.17,1.03-0.17,1.15c0,0.1,0.06,0.23,0.17,0.4c0.11,0.18,0.24,0.37,0.39,0.55c0.15,0.17,0.3,0.34,0.45,0.52
			c0.17,0.18,0.29,0.34,0.36,0.47c-0.76,0.13-1.52,0.18-2.29,0.15c-0.76-0.03-1.51-0.02-2.26,0.02c-0.11-0.03-0.26-0.07-0.45-0.12
			c-0.19-0.05-0.28-0.14-0.28-0.27c0-0.1,0.06-0.2,0.17-0.3c0.13-0.12,0.26-0.24,0.39-0.37c0.13-0.15,0.25-0.3,0.36-0.45
			c0.11-0.17,0.18-0.34,0.19-0.52c-0.19-0.45-0.38-0.93-0.58-1.45c-0.19-0.53-0.39-1.06-0.61-1.6c-0.2-0.55-0.41-1.08-0.61-1.6
			c-0.21-0.53-0.39-1.02-0.56-1.47c-0.06,0-0.16,0-0.31,0c-0.11,0.22-0.3,0.63-0.56,1.25c-0.26,0.62-0.53,1.27-0.81,1.97
			c-0.26,0.7-0.5,1.35-0.72,1.95c-0.22,0.58-0.33,0.95-0.33,1.1c0,0.05,0.01,0.12,0.03,0.2c0.2,0.28,0.46,0.52,0.75,0.7
			c0.3,0.17,0.52,0.41,0.67,0.72c-0.33,0.15-0.73,0.23-1.2,0.25c-0.47,0.02-0.89,0.02-1.28,0.02c-0.43,0-0.92,0.01-1.48,0.02
			c-0.02,0-0.05,0-0.08,0c-0.5,0-0.96-0.07-1.37-0.2c0.04-0.22,0.13-0.41,0.28-0.57c0.15-0.17,0.3-0.32,0.45-0.45
			c0.17-0.15,0.32-0.31,0.47-0.47c0.15-0.17,0.22-0.36,0.22-0.57c0-0.15-0.06-0.52-0.17-1.12c-0.11-0.6-0.25-1.25-0.42-1.95
			c-0.13-0.72-0.26-1.39-0.39-2.02c-0.13-0.65-0.22-1.09-0.28-1.32c-0.21-0.91-0.4-1.84-0.59-2.77c-0.15-0.83-0.32-1.65-0.5-2.48
			c-0.11,0.49-0.22,1.02-0.33,1.59c-0.24,1.19-0.5,2.46-0.76,3.81c-0.27,1.32-0.51,2.58-0.73,3.78c-0.19,1.17-0.36,2.18-0.51,3.03
			c-0.15,0.85-0.22,1.35-0.22,1.5c0,0.13,0.07,0.3,0.22,0.52c0.14,0.24,0.31,0.48,0.51,0.72c0.19,0.22,0.39,0.45,0.58,0.68
			c0.22,0.24,0.38,0.44,0.47,0.62c-1,0.17-1.99,0.24-2.98,0.2s-1.98-0.03-2.95,0.03c-0.14-0.04-0.34-0.1-0.58-0.16
			c-0.24-0.07-0.36-0.18-0.36-0.36c0-0.13,0.07-0.26,0.22-0.39c0.17-0.15,0.34-0.31,0.51-0.49c0.17-0.2,0.33-0.39,0.47-0.59
			c0.14-0.22,0.23-0.44,0.25-0.68c-0.24-0.59-0.5-1.22-0.76-1.89c-0.24-0.69-0.51-1.39-0.8-2.08c-0.27-0.72-0.53-1.41-0.8-2.08
			c-0.27-0.69-0.51-1.33-0.73-1.92c-0.07,0-0.21,0-0.4,0c-0.15,0.28-0.39,0.82-0.73,1.63c-0.34,0.8-0.69,1.66-1.05,2.57
			c-0.34,0.91-0.65,1.76-0.95,2.54c-0.29,0.76-0.44,1.24-0.44,1.43c0,0.07,0.01,0.15,0.04,0.26c0.27,0.37,0.59,0.67,0.98,0.91
			c0.39,0.22,0.68,0.53,0.87,0.94c-0.44,0.19-0.96,0.3-1.56,0.33c-0.61,0.02-1.16,0.03-1.67,0.03c-0.56,0-1.2,0.01-1.93,0.03
			c-0.02,0-0.06,0-0.11,0c-0.65,0-1.25-0.09-1.78-0.26c0.05-0.28,0.17-0.53,0.36-0.75c0.19-0.22,0.39-0.41,0.58-0.59
			c0.22-0.2,0.42-0.4,0.62-0.62c0.19-0.22,0.29-0.47,0.29-0.75c0-0.2-0.07-0.68-0.22-1.46c-0.14-0.78-0.33-1.63-0.55-2.54
			c-0.17-0.93-0.34-1.81-0.51-2.64c-0.17-0.85-0.29-1.42-0.36-1.73c-0.27-1.19-0.52-2.4-0.76-3.61c-0.14-0.75-0.3-1.5-0.46-2.25
			c-0.06,0.21-0.12,0.49-0.21,0.88c-0.15,0.65-0.32,1.42-0.5,2.32c-0.19,0.91-0.38,1.89-0.59,2.92c-0.2,1.02-0.39,1.98-0.56,2.89
			c-0.15,0.9-0.28,1.67-0.39,2.32c-0.11,0.65-0.17,1.03-0.17,1.15c0,0.1,0.06,0.23,0.17,0.4c0.11,0.18,0.24,0.37,0.39,0.55
			c0.15,0.17,0.3,0.34,0.45,0.52c0.17,0.18,0.29,0.34,0.36,0.47c-0.76,0.13-1.52,0.18-2.29,0.15c-0.76-0.03-1.51-0.02-2.26,0.02
			c-0.11-0.03-0.26-0.07-0.45-0.12c-0.19-0.05-0.28-0.14-0.28-0.27c0-0.1,0.06-0.2,0.17-0.3c0.13-0.12,0.26-0.24,0.39-0.37
			c0.13-0.15,0.25-0.3,0.36-0.45c0.11-0.17,0.18-0.34,0.19-0.52c-0.19-0.45-0.38-0.93-0.58-1.45c-0.19-0.53-0.39-1.06-0.61-1.6
			c-0.2-0.55-0.41-1.08-0.61-1.6c-0.21-0.53-0.39-1.02-0.56-1.47c-0.06,0-0.16,0-0.31,0c-0.11,0.22-0.3,0.63-0.56,1.25
			c-0.26,0.62-0.53,1.27-0.81,1.97c-0.26,0.7-0.5,1.35-0.72,1.95c-0.22,0.58-0.33,0.95-0.33,1.1c0,0.05,0.01,0.12,0.03,0.2
			c0.2,0.28,0.46,0.52,0.75,0.7c0.3,0.17,0.52,0.41,0.67,0.72c-0.33,0.15-0.73,0.23-1.2,0.25c-0.47,0.02-0.89,0.02-1.28,0.02
			c-0.43,0-0.92,0.01-1.48,0.02c-0.02,0-0.05,0-0.08,0c-0.5,0-0.96-0.07-1.37-0.2c0.04-0.22,0.13-0.41,0.28-0.57
			c0.15-0.17,0.3-0.32,0.45-0.45c0.17-0.15,0.32-0.31,0.47-0.47c0.15-0.17,0.22-0.36,0.22-0.57c0-0.15-0.06-0.52-0.17-1.12
			c-0.11-0.6-0.25-1.25-0.42-1.95c-0.13-0.72-0.26-1.39-0.39-2.02c-0.13-0.65-0.22-1.09-0.28-1.32c-0.21-0.91-0.4-1.84-0.59-2.77
			c-0.17-0.91-0.35-1.83-0.56-2.74c-0.06-0.22-0.17-0.42-0.33-0.62c-0.19-0.2-0.37-0.39-0.56-0.57c-0.17-0.2-0.32-0.37-0.47-0.5
			c-0.17-0.15-0.25-0.27-0.25-0.35c0-0.1,0.03-0.2,0.08-0.3c0.04-0.1,0.07-0.19,0.11-0.27c0.58,0.05,1.16,0.07,1.76,0.05
			c0.59-0.03,1.19-0.05,1.78-0.05c0.74,0,1.43,0.06,2.06,0.17c-0.04,0.23-0.14,0.43-0.31,0.6c-0.19,0.18-0.38,0.36-0.59,0.52
			c-0.22,0.18-0.42,0.36-0.59,0.52c-0.17,0.17-0.25,0.36-0.25,0.57c0,0.08,0,0.15,0,0.2c0.02,0.05,0.04,0.11,0.06,0.17
			c0.26,1.31,0.54,2.68,0.84,4.09c0.3,1.41,0.51,2.79,0.64,4.12c0.08,0,0.18,0,0.31,0c0.09-0.22,0.21-0.52,0.36-0.9
			c0.15-0.38,0.32-0.8,0.5-1.25c0.2-0.47,0.43-0.95,0.67-1.45c0.22-0.52,0.44-0.99,0.64-1.42c0.24-0.45,0.46-0.83,0.67-1.15
			c0.2-0.33,0.38-0.57,0.53-0.7c0.39,0.37,0.73,0.88,1.03,1.55c0.3,0.67,0.57,1.37,0.81,2.12c0.26,0.72,0.51,1.38,0.75,2
			c0.26,0.63,0.53,1.08,0.81,1.35c0.06-0.18,0.14-0.52,0.25-1c0.09-0.48,0.2-1.04,0.33-1.67c0.13-0.65,0.26-1.33,0.39-2.05
			c0.13-0.72,0.24-1.39,0.33-2.02c0.11-0.63,0.2-1.18,0.28-1.65c0.09-0.47,0.14-0.77,0.14-0.92c0-0.15-0.06-0.29-0.17-0.42
			c-0.11-0.15-0.24-0.28-0.39-0.4c-0.15-0.13-0.3-0.26-0.45-0.37c-0.15-0.1-0.29-0.22-0.42-0.35c0.22-0.08,0.44-0.14,0.64-0.17
			c0.2-0.03,0.41-0.05,0.61-0.05c0.47,0,1.11,0,1.91,0c0,0,0,0,0-0.01c-0.24-0.26-0.48-0.51-0.73-0.75
			c-0.22-0.26-0.42-0.48-0.62-0.65c-0.22-0.19-0.33-0.35-0.33-0.46c0-0.13,0.04-0.26,0.11-0.39c0.05-0.13,0.1-0.25,0.15-0.36
			c0.75,0.07,1.51,0.09,2.29,0.07c0.78-0.04,1.55-0.07,2.33-0.07c0.97,0,1.87,0.08,2.69,0.23c-0.05,0.3-0.18,0.56-0.4,0.78
			c-0.24,0.24-0.5,0.47-0.76,0.68c-0.29,0.24-0.55,0.47-0.76,0.68c-0.22,0.22-0.33,0.47-0.33,0.75c0,0.11,0,0.2,0,0.26
			c0.02,0.07,0.05,0.14,0.07,0.23c0.34,1.71,0.7,3.49,1.09,5.34c0.39,1.85,0.67,3.64,0.84,5.37c0.1,0,0.23,0,0.4,0
			c0.12-0.28,0.28-0.67,0.47-1.17c0.19-0.5,0.41-1.04,0.65-1.63c0.27-0.61,0.56-1.24,0.87-1.89c0.29-0.67,0.57-1.29,0.84-1.86
			c0.31-0.59,0.61-1.09,0.87-1.5c0.27-0.43,0.5-0.74,0.69-0.91c0.51,0.48,0.96,1.15,1.35,2.02c0.39,0.87,0.74,1.79,1.05,2.77
			c0.34,0.93,0.67,1.8,0.98,2.6c0.34,0.83,0.69,1.41,1.05,1.76c0.07-0.24,0.18-0.67,0.33-1.3c0.12-0.63,0.27-1.36,0.44-2.18
			c0.17-0.85,0.34-1.74,0.51-2.67c0.17-0.93,0.32-1.81,0.44-2.64c0.15-0.82,0.27-1.54,0.36-2.15c0.12-0.61,0.18-1.01,0.18-1.2
			s-0.07-0.38-0.22-0.55c-0.14-0.2-0.31-0.37-0.51-0.52c-0.19-0.17-0.39-0.34-0.58-0.49c-0.2-0.13-0.38-0.28-0.55-0.46
			c0.29-0.11,0.57-0.18,0.84-0.23c0.27-0.04,0.53-0.06,0.8-0.06c0.85,0,2.12,0,3.82,0c0.27,0,0.53,0.02,0.8,0.06
			c0.29,0.04,0.57,0.12,0.84,0.23c-0.14,0.48-0.41,0.87-0.8,1.17c-0.36,0.33-0.74,0.63-1.13,0.91c-0.01,0.04-0.03,0.09-0.05,0.16
			C106.59,39.82,107.05,39.8,107.52,39.8z"/>
		<path class="st1" d="M45.66,66.13c-1.82-0.02-3.65-0.04-5.47-0.06c-0.51-0.01-1.01-0.01-1.52-0.02c-0.09,0.27-0.19,0.55-0.28,0.83
			c0.9-0.01,1.79-0.03,2.62-0.06C42.16,66.77,43.81,66.5,45.66,66.13z"/>
		<path class="st2" d="M136.96,44.96c-0.46-0.68-0.91-1.38-1.35-2.09c-5.89,0.26-10.32,0.62-11.48,1.17
			C125.51,44.62,130.53,44.88,136.96,44.96z"/>
		<path class="st2" d="M91.96,38.99c-0.26,0.26-0.55,0.51-0.84,0.75c-0.26,0.21-0.49,0.42-0.69,0.61l-0.01,0.13
			c0.01,0.03,0.02,0.05,0.02,0.08c0.07,0.37,0.15,0.73,0.22,1.1c1.63,0.01,3.32,0.02,5.02,0.03c0.31-0.17,0.67-0.16,0.98,0.01
			c1.61,0.01,3.22,0.02,4.8,0.03c0.07-0.4,0.13-0.76,0.18-1.09c0.11-0.57,0.15-0.84,0.16-0.96c-0.12-0.15-0.21-0.24-0.32-0.33
			c-0.23-0.2-0.41-0.35-0.59-0.49c-0.19-0.12-0.43-0.32-0.65-0.55c-0.1-0.11-0.17-0.23-0.22-0.37c-2-0.04-4.54-0.08-7.44-0.14
			C92.49,38.27,92.29,38.67,91.96,38.99z"/>
		<path class="st2" d="M88.06,9.8c-1.79,1.3-3.5,2.88-5.18,4.44c-2.39,2.22-4.65,4.31-7.12,5.55l-1.01,0.5
			c-5.01,2.5-9.34,4.65-10.76,7.81c-0.49,1.09-1.87,4.1-3.74,7.66c19.3-0.03,46.24-0.08,51.41,0.12c5.68,0.22,12.98-1.32,19.1-1.7
			c-1.45-2.85-2.51-5.16-2.93-6.08c-1.42-3.16-5.75-5.32-10.76-7.81l-1.01-0.5c-2.47-1.24-4.73-3.33-7.12-5.55
			c-1.55-1.44-3.12-2.89-4.76-4.13C99.21,9.89,93.87,9.78,88.06,9.8z M95.88,11.25c0.83,2.98,3.7,5,4,8.25
			c0.87-0.74,2.45-0.84,3.65-0.54c1.51,0.64,2.65,2.15,2.62,3.85c0.13,2.01-0.87,3.59-2.48,4.52c-0.2,0.27-0.57,0.31-0.87,0.54
			c0.17-0.64,0.2-1.68-0.07-2.35c-0.4-0.6-0.9-1-1.74-1c-0.87,0-1.47,0.61-1.88,1.24c-0.2,0.57-0.43,1.01-0.51,1.64
			c0.35,0.13,0.73,0.38,0.66,0.99c-0.04,0.84-0.8,1.02-0.8,1.02c0.1,0.4,0.42,0.7,0.8,0.8c0.41,0.07,0.74-0.07,1.01-0.27
			c0.3-0.33,0.37-0.84,0.34-1.34c0.81,0.51,1.51,1.24,1.71,2.21c0.07,0.57-0.04,1.14-0.34,1.54c-0.4,0.63-1.24,0.85-1.98,0.84
			c-0.77-0.07-1.47-0.44-1.98-0.94c-0.54,1.03-1.3,1.84-2.14,2.72c-0.84-0.88-1.61-1.68-2.14-2.72c-0.51,0.5-1.21,0.87-1.98,0.94
			c-0.74,0.01-1.57-0.2-1.98-0.84c-0.3-0.4-0.4-0.97-0.33-1.54c0.2-0.97,0.9-1.71,1.71-2.21c-0.04,0.5,0.03,1.01,0.33,1.34
			c0.27,0.2,0.61,0.34,1.01,0.27c0.38-0.1,0.71-0.4,0.81-0.8c0,0-0.76-0.18-0.8-1.02c-0.06-0.61,0.31-0.86,0.66-0.99
			c-0.07-0.64-0.3-1.07-0.51-1.64c-0.41-0.63-1-1.24-1.87-1.24c-0.84,0-1.34,0.41-1.74,1c-0.27,0.67-0.23,1.71-0.07,2.35
			c-0.3-0.23-0.66-0.27-0.87-0.54c-1.61-0.94-2.61-2.52-2.48-4.52c-0.03-1.71,1.11-3.22,2.62-3.86c1.21-0.3,2.78-0.2,3.65,0.54
			C92.21,16.25,95.05,14.23,95.88,11.25z"/>
		<path class="st2" d="M60.97,41.52c2.4,0.01,5.31,0.05,8.29,0.1c-0.04-0.04-0.08-0.08-0.12-0.12c-0.25-0.23-0.6-0.59-0.6-1.13
			c0-0.25,0.06-0.49,0.17-0.72c0.04-0.1,0.08-0.2,0.12-0.29c0.18-0.4,0.6-0.65,1.04-0.6c0.53,0.05,1.08,0.06,1.64,0.05
			c1.35-0.07,2.84-0.08,4.06,0.14c0.56,0.1,0.93,0.63,0.84,1.19c-0.07,0.45-0.28,0.85-0.6,1.17c-0.14,0.14-0.28,0.26-0.43,0.38
			c2.23,0.02,4.32,0.02,6.09-0.01c0.44-0.01,0.9-0.01,1.38-0.02c-0.02-0.02-0.04-0.04-0.06-0.05c-0.19-0.16-0.32-0.27-0.45-0.38
			c-0.15-0.09-0.34-0.26-0.52-0.44c-0.25-0.25-0.35-0.61-0.27-0.96c0.08-0.34,0.33-0.62,0.66-0.75c0.3-0.11,0.57-0.18,0.84-0.23
			c0.09-0.02,0.19-0.01,0.29-0.02c-0.18-0.23-0.33-0.51-0.33-0.86c0-0.12,0.02-0.24,0.04-0.36c-7.62-0.17-16.12-0.38-23.48-0.64
			c-0.8,1.48-1.67,3.03-2.59,4.56C58.18,41.52,59.45,41.51,60.97,41.52z"/>
		<path class="st2" d="M109.11,37.81c-0.01,0.03,0,0.06-0.01,0.09c-0.1,0.33-0.25,0.64-0.43,0.91c0.38,0.03,0.75,0.07,1.1,0.14
			c0.56,0.1,0.93,0.63,0.84,1.19c-0.07,0.45-0.28,0.86-0.6,1.18c-0.15,0.15-0.32,0.29-0.48,0.43c1.16-0.01,2.24-0.03,3.21-0.05
			c5.53-0.14,0.83,0.17,4.37,0.25c0.01-0.07,0.02-0.14,0.03-0.19c-0.05-0.06-0.09-0.1-0.14-0.13c-0.19-0.16-0.32-0.27-0.45-0.38
			c-0.14-0.09-0.34-0.26-0.52-0.44c-0.25-0.25-0.35-0.61-0.27-0.96c0.08-0.34,0.33-0.62,0.66-0.75c0.3-0.11,0.57-0.18,0.84-0.23
			c0.25-0.04,0.52-0.06,0.78-0.06h2.93c0.26,0,0.52,0.02,0.78,0.06c0.28,0.04,0.58,0.12,0.86,0.24c0.5,0.2,0.77,0.75,0.61,1.27
			c-0.11,0.35-0.29,0.65-0.51,0.93c0.83-0.66,0.47-1.58,4.49-1.65c3.33-0.06,5.29-0.21,6.27-0.41c-0.19-0.34-0.38-0.68-0.57-1.01
			c-2-0.53-5.86-1.08-9-1.36C120.18,36.53,114.03,37.38,109.11,37.81z"/>
		<path class="st2" d="M123.72,60.07c-5.43,0.24-8.63,0.16-14.2,0.16c-2.2,0-4.49-0.03-6.81-0.08c-0.36,0.01-0.71,0.03-1.07,0.01
			c-0.95-0.04-1.9-0.03-2.83,0.03c-0.12,0.01-0.25-0.01-0.36-0.04c-0.11-0.03-0.26-0.07-0.42-0.12c-1.21-0.04-2.43-0.07-3.65-0.11
			c-0.43,0.13-0.9,0.22-1.41,0.24c-1.27,0.05-2.21,0.02-3.61,0.07h-0.14c-0.77,0-1.47-0.1-2.11-0.31c-0.16-0.05-0.29-0.15-0.41-0.27
			c-6.74-0.24-13.31-0.47-19.03-0.46c-9.42,0.01-14.89,1.19-24.26,1.46c-0.71,0.02-1.42,0.03-2.13,0.04c-1,1.44-1.8,2.9-2.31,4.43
			c-0.1,0.31-0.21,0.62-0.32,0.94c0.51,0.01,1.01,0.01,1.52,0.02c1.82,0.02,3.65,0.04,5.47,0.06c5.2-1.04,12.03-2.9,14.21-2.9
			c2.96,0,10.03,0.85,11.35,0c1.32-0.85,11.28-3.07,12.66-3.07s3.39,1.2,6.41,1.37c3.01,0.17,7.37-0.68,12.06,0.17
			c4.69,0.85,7.7,2.22,10.72,2.22s7.7-1.71,10.72-1.88c3.01-0.17,4.69-0.51,7.03-0.17s7.03-0.17,8.37-0.51
			c0.68-0.17,6.48,0.44,12.49,1.22c-0.47-0.85-1.01-1.69-1.62-2.53c-2.09,0.01-4.19,0.03-6.28,0.03
			C137.46,60.08,129.99,59.78,123.72,60.07z"/>
		<path class="st2" d="M48.49,52.51c-0.09,0.09-0.18,0.19-0.27,0.28c-0.43,0.44-0.86,0.88-1.29,1.32
			c10.44-0.06,19.26-0.31,21.61-0.96C62.97,52.6,56.05,52.46,48.49,52.51z"/>
		<path class="st3" d="M139.18,61.35c-1.34,0.34-6.03,0.85-8.37,0.51s-4.02,0-7.03,0.17c-3.01,0.17-7.7,1.88-10.72,1.88
			s-6.03-1.37-10.72-2.22c-4.69-0.85-9.04,0-12.06-0.17c-3.01-0.17-5.02-1.37-6.41-1.37s-11.34,2.22-12.66,3.07
			c-1.32,0.85-8.39,0-11.35,0c-2.18,0-9.01,1.86-14.21,2.9c-1.85,0.37-3.5,0.64-4.65,0.69c-0.83,0.03-1.72,0.05-2.62,0.06
			c-1.87,5.49-4.58,12.84-9.69,24.95c6.46,0,11.18,0.51,16.34-0.12c5.72-0.7,10.6,0.54,13.53-0.71c2.94-1.25,7.01-2.09,16.76-2.79
			s22.58-1.54,26.39-2.24c3.81-0.7,14.91,0,18.37,0s38.83,4.06,41.6,4.34c0.22,0.02,0.49,0.05,0.79,0.07
			c-5.26-12.55-7.85-19.8-9.67-25.27c-0.29-0.86-0.69-1.7-1.15-2.53C145.66,61.79,139.86,61.18,139.18,61.35z"/>
		<path class="st4" d="M120.1,85.97c-3.47,0-14.56-0.7-18.37,0c-3.81,0.7-16.64,1.54-26.39,2.24S61.51,89.75,58.57,91
			c-2.94,1.25-7.81,0.01-13.53,0.71c-5.15,0.63-9.88,0.13-16.34,0.12c-1.33,3.16-2.83,6.65-4.51,10.51
			c14.59-1.13,35.6-2.54,47.03-1.75c17.05,1.17,64.44,10.15,75.08,11.91c3.53,0.58,13.21,2.78,24.69,5.47
			c1.05-0.29,2.2-0.59,3.13-0.79c-0.95-2.2-1.97-4.54-3.08-7.04c-3.46-7.8-6.26-14.28-8.55-19.75c-0.3-0.02-0.57-0.05-0.79-0.07
			C158.92,90.03,123.56,85.97,120.1,85.97z"/>
		<path class="st5" d="M14.78,137.6c2.15-0.36,5.01-1.21,7.16-1.2s5.73,0.47,6.44,0c0.72-0.47,3.22-0.87,5.01-1.68
			c1.79-0.81,9.66-0.1,11.1-1.17c1.43-1.07,3.22-3.46,4.65-3.1c1.43,0.36,5.37-0.07,6.44-0.04c1.07,0.04,1.43,1.71,3.58,1.59
			s6.08-0.91,7.52-1.59c1.43-0.68,5.01-2.71,6.08-2.11c1.07,0.6,3.22,0.86,5.01-0.11c1.79-0.97,6.44-2.64,7.52-2.28
			c1.07,0.36,7.06,0.21,8.49-0.05c1.43-0.25,2.58-2.36,4.01-2.17s3.73,0.96,5.16,1.05c1.43,0.1,3.73-1.46,5.73-1.06
			s4.59,0.49,7.45,0.49c2.87,0,7.74-0.06,9.17-0.55c1.43-0.5,3.44-2.5,6.31-2.31s5.73,0.76,8.03,0.76s4.3-3.54,6.31-3.44
			c2.01,0.1,1.43,0.86,3.44,0.67s2.58-0.57,4.59,0s4.01,0.96,5.73,0.76c1.72-0.19,4.01-2.2,4.87-2.01s2.58,0.76,3.44,0.67
			c0.37-0.04,1.58-0.38,2.95-0.75c-11.48-2.69-21.16-4.89-24.69-5.47c-10.64-1.76-58.02-10.74-75.08-11.91
			c-11.43-0.79-32.44,0.62-47.03,1.75c-1.07,2.45-2.21,5.03-3.43,7.79c-5.37,12.08-8.73,20.48-10.81,26.86
			C11.53,137.39,13.44,137.83,14.78,137.6z"/>
		<path class="st6" d="M168.05,118.72c-0.86,0.1-2.58-0.48-3.44-0.67s-3.15,1.82-4.87,2.01c-1.72,0.19-3.73-0.19-5.73-0.76
			s-2.58-0.19-4.59,0s-1.43-0.57-3.44-0.67c-2.01-0.1-4.01,3.44-6.31,3.44s-5.16-0.57-8.03-0.76s-4.87,1.82-6.31,2.31
			c-1.43,0.5-6.31,0.55-9.17,0.55c-2.87,0-5.45-0.1-7.45-0.49s-4.3,1.16-5.73,1.06c-1.43-0.1-3.73-0.86-5.16-1.05
			s-2.58,1.91-4.01,2.17c-1.43,0.25-7.42,0.41-8.49,0.05c-1.07-0.36-5.73,1.31-7.52,2.28c-1.79,0.97-3.94,0.71-5.01,0.11
			c-1.07-0.6-4.65,1.43-6.08,2.11c-1.43,0.68-5.37,1.47-7.52,1.59s-2.51-1.55-3.58-1.59c-1.07-0.04-5.01,0.39-6.44,0.04
			c-1.43-0.36-3.22,2.03-4.65,3.1c-1.43,1.07-9.31,0.36-11.1,1.17c-1.79,0.81-4.3,1.21-5.01,1.68c-0.72,0.47-4.3,0.01-6.44,0
			s-5.01,0.84-7.16,1.2c-1.34,0.22-3.25-0.21-4.84-0.62c-0.55,1.68-1.01,3.22-1.39,4.64c2.07-0.1,3.82-0.17,4.82-0.24
			c3.16-0.21,35.68-1.74,39.8-2.27c4.12-0.53,7.04-0.44,13.01,0.31c5.97,0.75,25.62,0.89,28.37,0.71c2.75-0.19,15.09-1.01,20.2-0.12
			c5.11,0.89,33.64-2.67,42.71-3.89c6.05-0.82,16.05,0,24.48,1.15c-1.65-5.1-4.13-11.52-7.83-20.11c-0.93,0.2-2.07,0.5-3.13,0.79
			C169.63,118.33,168.42,118.68,168.05,118.72z"/>
		<ellipse cx="137.5" cy="154.99" rx="3.77" ry="8.96"/>
		<path d="M90.52,146.37c-1.36,0.02-3.86,6.89-3.86,6.89s1.07,0.32,1.82,0.53c0.76,0.21,2.61,0.65,2.84-0.05c0-2.99,0-5.69,0-6.25
			c0-0.17-0.01-0.32-0.03-0.47C91.26,146.92,91.1,146.36,90.52,146.37z"/>
		<path d="M150.2,146.37c-0.58-0.01-0.75,0.55-0.77,0.65c-0.02,0.15-0.03,0.3-0.03,0.47c0,0.56,0,3.27,0,6.25
			c0.23,0.71,2.08,0.27,2.84,0.05c0.76-0.21,1.82-0.53,1.82-0.53S151.56,146.39,150.2,146.37z"/>
		<path d="M157.47,136.13c-9.07,1.23-37.61,4.79-42.71,3.89c-5.11-0.89-17.45-0.07-20.2,0.12c-2.75,0.19-22.4,0.05-28.37-0.71
			c-5.97-0.75-8.88-0.85-13.01-0.31c-4.12,0.53-36.64,2.06-39.8,2.27c-1,0.07-2.75,0.14-4.82,0.24c-1.38,5.14-1.77,8.85-1.77,12.51
			c0,7.07,4.64,17.6,17.43,17.6h19.92c1.63,0,8.52-0.75,13.59,3.57c3.45,2.94,5.2,7.32,5.2,13.01c0,9.47-4.68,13-8.44,15.84
			c-3.38,2.55-5.82,4.39-5.82,10.64c0,10.98,6.47,13.13,17.65,13.13H95.9h29.58c11.18,0,17.65-2.15,17.65-13.13
			c0-6.26-2.44-8.1-5.82-10.64c-3.76-2.84-8.44-6.36-8.44-15.84c0-5.69,1.75-10.07,5.2-13.01c5.07-4.32,11.92-3.57,13.59-3.57h19.92
			c12.79,0,17.43-10.52,17.43-17.6c0-4.61-0.62-9.3-3.06-16.85C173.52,136.13,163.52,135.31,157.47,136.13z M110.12,165.96h-3.27
			c-0.31,0-0.48-0.34-0.29-0.57c0.53-0.63,1.28-1.68,1.28-2.66v-1.79c-0.15-0.68-0.55-1.96-1.51-3.09
			c-1.17-1.38-3.58-3.73-4.52-4.97v9.61c0,1.13,0.72,2.27,1.22,2.92c0.18,0.23,0,0.56-0.3,0.56h-5.36c-0.31,0-0.48-0.34-0.29-0.57
			c0.53-0.63,1.28-1.68,1.28-2.66v-15.21c0-0.87-0.84-2.15-1.38-2.88c-0.17-0.23,0-0.55,0.3-0.55h5.6c0.31,0,0.48,0.34,0.29,0.57
			c-0.45,0.52-1.04,1.34-1.27,2.19c0.01,0.08,0.14,0.98,0.71,1.9c0.7,1.12,4.56,4.56,5.23,5.52v-6.75c0-0.87-0.84-2.15-1.38-2.88
			c-0.17-0.23,0-0.55,0.3-0.55h5.6c0.31,0,0.48,0.34,0.29,0.57c-0.56,0.66-1.36,1.77-1.36,2.84v13.87
			c-0.24,0.22-0.47,0.46-0.65,0.75c-0.27,0.41-0.45,0.84-0.55,1.27c-0.13,0.44-0.19,0.85-0.19,1.21v0.13
			C109.9,165.13,109.98,165.55,110.12,165.96z M95.99,165.37c0.18,0.23,0,0.56-0.3,0.56h-5.36c-0.31,0-0.48-0.34-0.29-0.57
			c0.53-0.63,1.28-1.68,1.28-2.66c0-0.61,0-2.95,0-5.62c0,0-1.71,0.05-3.13-0.49c-1.42-0.54-2.24-0.32-2.45,0.18
			c-0.21,0.5-1.06,4.8-0.98,5.59c0,0.01-0.01,0.02-0.01,0.03c0,0,0,0,0.01,0v0.1c0,1.13,0.72,2.27,1.22,2.92
			c0.18,0.23,0,0.56-0.3,0.56h-5.36c-0.31,0-0.47-0.33-0.29-0.57c1.11-1.49,1.28-2.81,1.28-2.81c0,0,0,0,0,0
			c0-0.01-0.01-0.02,0-0.03c0.22-1.08,0.83-6.22,3.22-11.56c1.29-2.87,2.07-4.29,2.53-4.99c-1.07-0.17-1.89-0.02-2.26,0.07
			c-0.41,0.13-1.24,0.41-2,0.81c-0.25,0.13-0.41,0.26-0.64,0.2s-0.38-0.37-0.31-0.65c0.04-0.13,0.73-2.3,0.92-2.54
			c0.16-0.24,0.34-0.36,0.54-0.36c0.48,0,1.37,0.51,2.59,0.51c0.33,0,2.53,0,4.33,0.01c0.01,0,0.01-0.01,0.02-0.01h5.6
			c0.31,0,0.48,0.34,0.29,0.57c-0.56,0.66-1.36,1.77-1.36,2.84c0,1.64,0,13.26,0,14.99C94.77,163.59,95.49,164.72,95.99,165.37z
			 M79.23,165.41c0.18,0.23,0,0.56-0.3,0.56h-5.36c-0.31,0-0.48-0.34-0.29-0.57c0.53-0.63,1.28-1.68,1.28-2.66c0-0.28,0-0.92,0-1.79
			c-0.15-0.68-0.55-1.96-1.51-3.09c-1.17-1.38-3.58-3.73-4.52-4.97c0,3.89,0,8.55,0,9.61c0,1.13,0.72,2.27,1.22,2.92
			c0.18,0.23,0,0.56-0.3,0.56h-5.36c-0.31,0-0.48-0.34-0.29-0.57c0.53-0.63,1.28-1.68,1.28-2.66c0-1.53,0-13.94,0-15.21
			c0-0.87-0.84-2.15-1.38-2.88c-0.17-0.23,0-0.55,0.3-0.55h5.6c0.31,0,0.48,0.34,0.29,0.57c-0.45,0.52-1.04,1.34-1.27,2.19
			c0.01,0.08,0.14,0.98,0.71,1.9c0.7,1.12,4.56,4.56,5.23,5.52c0-3.18,0-6.16,0-6.75c0-0.87-0.84-2.15-1.38-2.88
			c-0.17-0.23,0-0.55,0.3-0.55h5.6c0.31,0,0.48,0.34,0.29,0.57c-0.56,0.66-1.36,1.77-1.36,2.84c0,1.64,0,13.26,0,14.99
			C78.01,163.62,78.73,164.75,79.23,165.41z M28.26,163.33c-1.83,3.6-5.78,4.05-6.75,4c-1.23-0.06-2.78-0.53-3.19-0.53
			s-0.87,0.95-1.12,0.27c-0.25-0.69-0.96-2.6-1.41-3.96c-0.18-0.48,0.75,0.28,1.07,0.45c0.32,0.18,0.68,0.39,1.09,0.63
			c0.41,0.2,0.86,0.39,1.36,0.57c0.5,0.18,1.09,0.27,1.76,0.27c1.36,0,2.44-0.37,3.26-1.1c0.79-0.73,1.26-1.79,1.26-3.17
			c0-5.12-8.86-6.7-8.86-12.17c0-0.71,0.18-1.35,0.48-1.9c0.29-0.56,0.69-1.03,1.19-1.43c0.52-0.38,1.09-0.67,1.7-0.87
			c0.63-0.2,1.29-0.3,1.97-0.3c0.52,0,1.03,0.07,1.53,0.2c0.5,0.11,1.01,0.26,1.53,0.17c0.74-0.13,0.89-0.66,1.46-0.45
			c0.57,0.22,1.08,2.71,1.29,3.25c0.09,0.23,0.03,0.41-0.41,0.23c-0.44-0.18-1.59-0.62-2.34-0.87c-0.77-0.27-1.61-0.4-2.51-0.4
			c-0.7,0-1.28,0.2-1.73,0.6c-0.47,0.42-0.75,0.98-0.75,1.67c0,2.17,4.99,5.16,5.48,5.56C26.9,155.1,30.96,158,28.26,163.33z
			 M45.65,144.66c-0.56,0.66-1.36,1.77-1.36,2.84c0,1.64,0,13.26,0,14.99c0,1.13,0.72,2.27,1.22,2.92c0.18,0.23,0,0.56-0.3,0.56
			h-5.36c-0.31,0-0.48-0.34-0.29-0.57c0.53-0.63,1.28-1.68,1.28-2.66c0-0.84,0-4.97,0-8.73c-1.94-0.14-3.88-0.13-5.83,0
			c0,3.62,0,7.54,0,8.49c0,1.13,0.72,2.27,1.22,2.92c0.18,0.23,0,0.56-0.3,0.56h-5.36c-0.31,0-0.48-0.34-0.29-0.57
			c0.53-0.63,1.28-1.68,1.28-2.66c0-1.53,0-13.94,0-15.21c0-0.87-0.84-2.15-1.38-2.88c-0.17-0.23,0-0.55,0.3-0.55h5.6
			c0.31,0,0.48,0.34,0.29,0.57c-0.56,0.66-1.36,1.77-1.36,2.84c0,0.41,0,2.08,0,3.43c1.94-0.16,3.89-0.16,5.83,0c0-1.4,0-3.08,0-3.4
			c0-0.87-0.84-2.15-1.38-2.88c-0.17-0.23,0-0.55,0.3-0.55h5.6C45.68,144.08,45.85,144.43,45.65,144.66z M62.36,163.1
			c-0.03,0.11-1.32,3.67-1.39,3.8c-0.21,0.51-0.9-0.94-3.7-0.94c-0.43,0-9.27,0-9.27,0c-0.31,0-0.48-0.34-0.29-0.57
			c0.53-0.63,1.28-1.68,1.28-2.66c0-1.53,0-13.94,0-15.21c0-0.87-0.84-2.15-1.38-2.88c-0.17-0.23,0-0.55,0.3-0.55h5.6
			c0.84,0,2.67,0,3.72,0c1.28,0,1.32-0.51,1.86-0.36c0.6,0.17,1.87,2.96,1.87,3.09c0,0.15-0.05,0.3-0.14,0.46
			c-0.09,0.13-0.23,0.2-0.41,0.2c-0.05,0-0.22-0.04-0.51-0.13c-0.29-0.11-1.91-0.54-2.41-0.65c-0.5-0.09-1.41-0.05-3.26-0.05
			c-1.44,0-1.81,0.35-1.81,0.86c0,0.68,0,1.91,0,3.37c0.07,0.13,0.16,0.29,0.43,0.29c0.52,0,1.17,0,2.19,0
			c4.31,0,5.18-0.8,5.16-0.49c0,0.2-0.05,0.5-0.14,0.91c-0.09,0.41-0.2,0.83-0.34,1.27c-0.14,0.43-0.32,0.81-0.54,1.14
			c-0.2,0.33-0.42,0.49-0.64,0.49c-0.14,0-0.28-0.05-0.44-0.16c-0.16-0.11-0.92-0.95-2.28-0.95c-0.57,0-2.78-0.03-2.99,0.04
			c-0.16,0.04-0.42,0.18-0.42,0.36c0,3.96,0,8.25,0,8.71c0,0.01,0,0.02,0,0.03c0,0.11,0.01,0.22,0.03,0.34
			c0.09,0.4,0.42,0.59,0.81,0.59c1.57,0,5.16,0.04,5.69,0.04c0.34,0,0.63-0.05,0.88-0.16c0.25-0.11,0.5-0.22,0.75-0.33
			c0.23-0.15,0.48-0.23,0.68-0.39C62.36,161.71,62.47,162.66,62.36,163.1z M129.17,156.42c-0.02,1.6-0.24,3.18-0.65,4.75
			c-0.43,1.57-1.1,3.01-1.99,4.3c-0.89,1.27-2.02,2.3-3.39,3.08c-1.39,0.81-3.06,1.21-5,1.21c-0.46,0-0.95-0.02-1.47-0.07
			c-0.53-0.02-1.05-0.09-1.57-0.2c-0.5-0.13-0.99-0.28-1.47-0.46c-0.46-0.2-0.86-0.45-1.2-0.75c-0.53-0.44-0.98-1.01-1.37-1.7
			c-0.37-0.63-0.55-1.26-0.55-1.87v-0.13c0-0.31,0.06-0.66,0.17-1.05c0.09-0.39,0.25-0.76,0.48-1.11c0.21-0.33,0.46-0.6,0.75-0.82
			c0.82-0.57,1.63-0.3,1.95,0.13c0.61,0.78-0.35,1.48-0.65,1.74c-0.32,0.24-0.48,0.56-0.48,0.95c0,0.59,0.14,1.09,0.41,1.51
			c0.25,0.42,0.59,0.76,1.03,1.05c0.43,0.26,0.92,0.46,1.47,0.59c0.55,0.11,1.1,0.16,1.64,0.16c1.6,0,2.93-0.36,4-1.08
			c1.07-0.72,1.93-1.63,2.57-2.72c0.66-1.14,1.14-2.37,1.44-3.71c0.3-1.35,0.46-2.66,0.48-3.9c0-0.63-0.03-1.32-0.1-2.07
			c-0.05-0.76-0.17-1.53-0.38-2.3c-0.16-0.76-0.39-1.51-0.68-2.23c-0.3-0.7-0.68-1.33-1.16-1.9c-0.46-0.57-1-1.02-1.64-1.34
			c-0.64-0.33-1.92-0.86-2.66,0c-0.12,0.17-0.21,0.48-0.21,1v14.99c0,1.13,0.72,2.27,1.22,2.92c0.18,0.23,0,0.56-0.3,0.56h-5.36
			c-0.31,0-0.48-0.34-0.29-0.57c0.53-0.63,1.28-1.68,1.28-2.66v-15.21c0-0.87-0.84-2.15-1.38-2.88c-0.17-0.23,0-0.55,0.3-0.55h0.7
			c1.38-0.05,1.56-0.1,2.43-0.25c0.87-0.18,1.75-0.26,2.64-0.26c1.16,0,2.19,0.19,3.08,0.56c0.91,0.39,1.71,0.92,2.4,1.57
			c0.66,0.63,1.22,1.38,1.68,2.23c0.46,0.85,0.83,1.76,1.13,2.72c0.27,0.94,0.47,1.91,0.58,2.92c0.09,0.83,0.14,1.63,0.14,2.39
			V156.42z M137.5,166.42c-4.07,0-7.37-3.95-7.37-11.42s3.3-11.42,7.37-11.42s7.37,4.07,7.37,11.42S141.57,166.42,137.5,166.42z
			 M160.4,165.96h-5.36c-0.3,0-0.48-0.33-0.3-0.56c0.5-0.65,1.22-1.79,1.22-2.92v-0.1c0,0,0,0,0.01,0c0-0.01-0.01-0.02-0.01-0.03
			c0.07-0.79-0.77-5.09-0.98-5.59c-0.21-0.5-1.03-0.71-2.45-0.18c-1.42,0.54-3.13,0.49-3.13,0.49c0,2.67,0,5.01,0,5.62
			c0,0.98,0.74,2.03,1.28,2.66c0.2,0.23,0.02,0.57-0.29,0.57h-5.36c-0.3,0-0.48-0.33-0.3-0.56c0.5-0.65,1.22-1.79,1.22-2.92
			c0-1.74,0-13.35,0-14.99c0-1.06-0.8-2.18-1.36-2.84c-0.2-0.23-0.02-0.57,0.29-0.57h5.6c0.01,0,0.02,0.01,0.02,0.01
			c1.8,0,4-0.01,4.33-0.01c1.22,0,3.02-0.32,3.5-0.32c0.2,0,0.39,0.12,0.54,0.36c0.18,0.24,0.88,2.41,0.92,2.54
			c0.08,0.28-0.07,0.59-0.31,0.65c-0.23,0.06-0.4-0.06-0.64-0.2c-0.76-0.4-1.59-0.68-2-0.81c-0.36-0.1-2.09-0.43-3.16-0.26
			c0.46,0.7,1.24,2.11,2.53,4.99c2.39,5.34,3,10.48,3.22,11.56c0,0.01,0,0.02,0,0.03c0,0,0,0,0,0c0,0,0.16,1.32,1.28,2.81
			C160.87,165.63,160.71,165.96,160.4,165.96z M177.25,144.66c-0.56,0.66-1.36,1.77-1.36,2.84c0,1.64,0,13.26,0,14.99
			c0,1.13,0.72,2.27,1.22,2.92c0.18,0.23,0,0.56-0.3,0.56h-5.36c-0.31,0-0.48-0.34-0.29-0.57c0.53-0.63,1.28-1.68,1.28-2.66
			c0-0.84,0-4.97,0-8.73c-1.94-0.14-3.88-0.13-5.83,0c0,3.62,0,7.54,0,8.49c0,1.13,0.72,2.27,1.22,2.92c0.18,0.23,0,0.56-0.3,0.56
			h-5.36c-0.31,0-0.48-0.34-0.29-0.57c0.53-0.63,1.28-1.68,1.28-2.66c0-1.53,0-13.94,0-15.21c0-0.87-0.84-2.15-1.38-2.88
			c-0.17-0.23,0-0.55,0.3-0.55h5.6c0.31,0,0.48,0.34,0.29,0.57c-0.56,0.66-1.36,1.77-1.36,2.84c0,0.41,0,1.44,0,2.79
			c1.94-0.16,3.89-0.16,5.83,0c0-1.4,0-2.44,0-2.76c0-0.87-0.84-2.15-1.38-2.88c-0.17-0.23,0-0.55,0.3-0.55h5.6
			C177.28,144.08,177.45,144.43,177.25,144.66z"/>
		<path class="st2" d="M107.3,38.77c0.39-0.3,0.65-0.69,0.8-1.17c-0.27-0.11-0.55-0.18-0.84-0.23c-0.27-0.04-0.53-0.06-0.8-0.06
			c-1.7,0-2.97,0-3.82,0c-0.27,0-0.53,0.02-0.8,0.06c-0.27,0.04-0.55,0.12-0.84,0.23c0.17,0.17,0.35,0.33,0.55,0.46
			c0.19,0.15,0.39,0.31,0.58,0.49c0.19,0.15,0.36,0.33,0.51,0.52c0.15,0.17,0.22,0.36,0.22,0.55s-0.06,0.6-0.18,1.2
			c-0.1,0.61-0.22,1.32-0.36,2.15c-0.12,0.83-0.27,1.7-0.44,2.64c-0.17,0.93-0.34,1.82-0.51,2.67c-0.17,0.82-0.31,1.55-0.44,2.18
			c-0.14,0.63-0.25,1.06-0.33,1.3c-0.36-0.35-0.72-0.93-1.05-1.76c-0.32-0.8-0.64-1.67-0.98-2.6c-0.32-0.98-0.67-1.9-1.05-2.77
			c-0.39-0.87-0.84-1.54-1.35-2.02c-0.19,0.17-0.43,0.48-0.69,0.91c-0.27,0.41-0.56,0.91-0.87,1.5c-0.27,0.56-0.55,1.18-0.84,1.86
			c-0.32,0.65-0.61,1.28-0.87,1.89c-0.24,0.59-0.46,1.13-0.65,1.63c-0.19,0.5-0.35,0.89-0.47,1.17c-0.17,0-0.3,0-0.4,0
			c-0.17-1.74-0.45-3.53-0.84-5.37c-0.39-1.84-0.75-3.62-1.09-5.34c-0.02-0.09-0.05-0.16-0.07-0.23c0-0.07,0-0.15,0-0.26
			c0-0.28,0.11-0.53,0.33-0.75c0.22-0.22,0.47-0.44,0.76-0.68c0.27-0.22,0.52-0.44,0.76-0.68c0.22-0.22,0.35-0.48,0.4-0.78
			c-0.83-0.15-1.72-0.23-2.69-0.23c-0.78,0-1.55,0.02-2.33,0.07c-0.78,0.02-1.54,0-2.29-0.07c-0.05,0.11-0.1,0.23-0.15,0.36
			c-0.07,0.13-0.11,0.26-0.11,0.39c0,0.11,0.11,0.26,0.33,0.46c0.19,0.17,0.4,0.39,0.62,0.65c0.24,0.24,0.48,0.49,0.73,0.75
			c0,0,0,0,0,0.01c-0.8,0-1.44,0-1.91,0c-0.2,0-0.41,0.02-0.61,0.05c-0.21,0.03-0.42,0.09-0.64,0.17c0.13,0.13,0.27,0.25,0.42,0.35
			c0.15,0.12,0.3,0.24,0.45,0.37c0.15,0.12,0.28,0.25,0.39,0.4c0.11,0.13,0.17,0.27,0.17,0.42c0,0.15-0.05,0.46-0.14,0.92
			c-0.08,0.47-0.17,1.02-0.28,1.65c-0.09,0.63-0.2,1.31-0.33,2.02c-0.13,0.72-0.26,1.4-0.39,2.05c-0.13,0.63-0.24,1.19-0.33,1.67
			c-0.11,0.48-0.19,0.82-0.25,1c-0.28-0.27-0.55-0.71-0.81-1.35c-0.24-0.62-0.49-1.28-0.75-2c-0.24-0.75-0.51-1.46-0.81-2.12
			c-0.3-0.67-0.64-1.18-1.03-1.55c-0.15,0.13-0.33,0.37-0.53,0.7c-0.2,0.32-0.43,0.7-0.67,1.15c-0.21,0.43-0.42,0.91-0.64,1.42
			c-0.24,0.5-0.47,0.98-0.67,1.45c-0.19,0.45-0.35,0.87-0.5,1.25c-0.15,0.38-0.27,0.68-0.36,0.9c-0.13,0-0.23,0-0.31,0
			c-0.13-1.33-0.34-2.7-0.64-4.12c-0.3-1.41-0.58-2.78-0.84-4.09c-0.02-0.07-0.04-0.12-0.06-0.17c0-0.05,0-0.12,0-0.2
			c0-0.22,0.08-0.41,0.25-0.57c0.17-0.17,0.36-0.34,0.59-0.52c0.2-0.17,0.4-0.34,0.59-0.52c0.17-0.17,0.27-0.37,0.31-0.6
			c-0.63-0.12-1.32-0.17-2.06-0.17c-0.6,0-1.19,0.02-1.78,0.05c-0.6,0.02-1.18,0-1.76-0.05c-0.04,0.08-0.07,0.17-0.11,0.27
			c-0.06,0.1-0.08,0.2-0.08,0.3c0,0.08,0.08,0.2,0.25,0.35c0.15,0.13,0.31,0.3,0.47,0.5c0.19,0.18,0.37,0.37,0.56,0.57
			c0.17,0.2,0.28,0.41,0.33,0.62c0.2,0.92,0.39,1.83,0.56,2.74c0.19,0.93,0.38,1.86,0.59,2.77c0.06,0.23,0.15,0.67,0.28,1.32
			c0.13,0.63,0.26,1.31,0.39,2.02c0.17,0.7,0.31,1.35,0.42,1.95c0.11,0.6,0.17,0.97,0.17,1.12c0,0.22-0.07,0.41-0.22,0.57
			c-0.15,0.17-0.31,0.32-0.47,0.47c-0.15,0.13-0.3,0.28-0.45,0.45c-0.15,0.17-0.24,0.36-0.28,0.57c0.41,0.13,0.86,0.2,1.37,0.2
			c0.04,0,0.07,0,0.08,0c0.56-0.02,1.05-0.02,1.48-0.02c0.39,0,0.82-0.01,1.28-0.02c0.46-0.02,0.86-0.1,1.2-0.25
			c-0.15-0.32-0.37-0.56-0.67-0.72c-0.3-0.18-0.55-0.42-0.75-0.7c-0.02-0.08-0.03-0.15-0.03-0.2c0-0.15,0.11-0.52,0.33-1.1
			c0.22-0.6,0.46-1.25,0.72-1.95c0.28-0.7,0.55-1.36,0.81-1.97c0.26-0.62,0.45-1.03,0.56-1.25c0.15,0,0.25,0,0.31,0
			c0.17,0.45,0.35,0.94,0.56,1.47c0.2,0.52,0.41,1.05,0.61,1.6c0.22,0.53,0.43,1.06,0.61,1.6c0.2,0.52,0.4,1,0.58,1.45
			c-0.02,0.18-0.08,0.36-0.19,0.52c-0.11,0.15-0.23,0.3-0.36,0.45c-0.13,0.13-0.26,0.26-0.39,0.37c-0.11,0.1-0.17,0.2-0.17,0.3
			c0,0.13,0.09,0.22,0.28,0.27c0.19,0.05,0.33,0.09,0.45,0.12c0.74-0.05,1.5-0.06,2.26-0.02c0.76,0.03,1.52-0.02,2.29-0.15
			c-0.07-0.13-0.2-0.29-0.36-0.47c-0.15-0.18-0.3-0.36-0.45-0.52c-0.15-0.18-0.28-0.37-0.39-0.55c-0.11-0.17-0.17-0.3-0.17-0.4
			c0-0.12,0.06-0.5,0.17-1.15c0.11-0.65,0.24-1.42,0.39-2.32c0.17-0.91,0.35-1.88,0.56-2.89c0.2-1.03,0.4-2,0.59-2.92
			c0.18-0.9,0.35-1.67,0.5-2.32c0.09-0.39,0.16-0.67,0.21-0.88c0.16,0.75,0.32,1.5,0.46,2.25c0.24,1.22,0.5,2.42,0.76,3.61
			c0.07,0.3,0.19,0.88,0.36,1.73c0.17,0.83,0.34,1.7,0.51,2.64c0.22,0.91,0.4,1.76,0.55,2.54c0.15,0.78,0.22,1.27,0.22,1.46
			c0,0.28-0.1,0.53-0.29,0.75c-0.19,0.22-0.4,0.42-0.62,0.62c-0.19,0.17-0.39,0.37-0.58,0.59c-0.19,0.22-0.31,0.47-0.36,0.75
			c0.53,0.17,1.13,0.26,1.78,0.26c0.05,0,0.09,0,0.11,0c0.73-0.02,1.37-0.03,1.93-0.03c0.51,0,1.07-0.01,1.67-0.03
			c0.61-0.02,1.13-0.13,1.56-0.33c-0.19-0.41-0.49-0.73-0.87-0.94c-0.39-0.24-0.72-0.54-0.98-0.91c-0.02-0.11-0.04-0.2-0.04-0.26
			c0-0.2,0.14-0.67,0.44-1.43c0.29-0.78,0.61-1.63,0.95-2.54c0.36-0.91,0.71-1.77,1.05-2.57c0.34-0.8,0.58-1.35,0.73-1.63
			c0.19,0,0.33,0,0.4,0c0.22,0.59,0.46,1.23,0.73,1.92c0.27,0.67,0.53,1.37,0.8,2.08c0.29,0.69,0.56,1.39,0.8,2.08
			c0.27,0.67,0.52,1.3,0.76,1.89c-0.02,0.24-0.11,0.47-0.25,0.68c-0.15,0.2-0.3,0.39-0.47,0.59c-0.17,0.17-0.34,0.34-0.51,0.49
			c-0.14,0.13-0.22,0.26-0.22,0.39c0,0.17,0.12,0.29,0.36,0.36c0.24,0.07,0.44,0.12,0.58,0.16c0.97-0.06,1.95-0.08,2.95-0.03
			s1.99-0.02,2.98-0.2c-0.1-0.17-0.26-0.38-0.47-0.62c-0.19-0.24-0.39-0.47-0.58-0.68c-0.19-0.24-0.36-0.48-0.51-0.72
			c-0.15-0.22-0.22-0.39-0.22-0.52c0-0.15,0.07-0.65,0.22-1.5c0.14-0.85,0.31-1.86,0.51-3.03c0.22-1.19,0.46-2.45,0.73-3.78
			c0.27-1.35,0.52-2.62,0.76-3.81c0.12-0.57,0.23-1.1,0.33-1.59c0.18,0.83,0.35,1.65,0.5,2.48c0.19,0.93,0.38,1.86,0.59,2.77
			c0.06,0.23,0.15,0.67,0.28,1.32c0.13,0.63,0.26,1.31,0.39,2.02c0.17,0.7,0.31,1.35,0.42,1.95c0.11,0.6,0.17,0.97,0.17,1.12
			c0,0.22-0.07,0.41-0.22,0.57c-0.15,0.17-0.31,0.32-0.47,0.47c-0.15,0.13-0.3,0.28-0.45,0.45c-0.15,0.17-0.24,0.36-0.28,0.57
			c0.41,0.13,0.86,0.2,1.37,0.2c0.04,0,0.07,0,0.08,0c0.56-0.02,1.05-0.02,1.48-0.02c0.39,0,0.82-0.01,1.28-0.02
			c0.46-0.02,0.86-0.1,1.2-0.25c-0.15-0.32-0.37-0.56-0.67-0.72c-0.3-0.18-0.55-0.42-0.75-0.7c-0.02-0.08-0.03-0.15-0.03-0.2
			c0-0.15,0.11-0.52,0.33-1.1c0.22-0.6,0.46-1.25,0.72-1.95c0.28-0.7,0.55-1.36,0.81-1.97c0.26-0.62,0.45-1.03,0.56-1.25
			c0.15,0,0.25,0,0.31,0c0.17,0.45,0.35,0.94,0.56,1.47c0.2,0.52,0.41,1.05,0.61,1.6c0.22,0.53,0.43,1.06,0.61,1.6
			c0.2,0.52,0.4,1,0.58,1.45c-0.02,0.18-0.08,0.36-0.19,0.52c-0.11,0.15-0.23,0.3-0.36,0.45c-0.13,0.13-0.26,0.26-0.39,0.37
			c-0.11,0.1-0.17,0.2-0.17,0.3c0,0.13,0.09,0.22,0.28,0.27c0.19,0.05,0.33,0.09,0.45,0.12c0.74-0.05,1.5-0.06,2.26-0.02
			c0.76,0.03,1.52-0.02,2.29-0.15c-0.08-0.13-0.2-0.29-0.36-0.47c-0.15-0.18-0.3-0.36-0.45-0.52c-0.15-0.18-0.28-0.37-0.39-0.55
			c-0.11-0.17-0.17-0.3-0.17-0.4c0-0.12,0.06-0.5,0.17-1.15c0.11-0.65,0.24-1.42,0.39-2.32c0.17-0.91,0.35-1.88,0.56-2.89
			c0.2-1.03,0.4-2,0.59-2.92c0.18-0.9,0.35-1.67,0.5-2.32c0.15-0.67,0.25-1.06,0.31-1.2c0.3-0.22,0.58-0.45,0.86-0.7
			c0.3-0.23,0.5-0.53,0.61-0.9c-0.2-0.08-0.42-0.14-0.64-0.17c-0.2-0.03-0.41-0.05-0.61-0.05c-1.3,0-2.28,0-2.93,0
			c-0.2,0-0.41,0.02-0.61,0.05c-0.21,0.03-0.42,0.09-0.64,0.17c0.13,0.13,0.27,0.25,0.42,0.35c0.15,0.12,0.3,0.24,0.45,0.37
			c0.15,0.12,0.28,0.25,0.39,0.4c0.11,0.13,0.17,0.27,0.17,0.42c0,0.15-0.05,0.46-0.14,0.92c-0.08,0.47-0.17,1.02-0.28,1.65
			c-0.09,0.63-0.2,1.31-0.33,2.02c-0.13,0.72-0.26,1.4-0.39,2.05c-0.13,0.63-0.24,1.19-0.33,1.67c-0.11,0.48-0.19,0.82-0.25,1
			c-0.28-0.27-0.55-0.71-0.81-1.35c-0.24-0.62-0.49-1.28-0.75-2c-0.24-0.75-0.51-1.46-0.81-2.12c-0.3-0.67-0.64-1.18-1.03-1.55
			c-0.15,0.13-0.33,0.37-0.53,0.7c-0.2,0.32-0.43,0.7-0.67,1.15c-0.21,0.43-0.42,0.91-0.64,1.42c-0.24,0.5-0.47,0.98-0.67,1.45
			c-0.19,0.45-0.35,0.87-0.5,1.25c-0.15,0.38-0.27,0.68-0.36,0.9c-0.13,0-0.23,0-0.31,0c-0.13-1.33-0.34-2.7-0.64-4.12
			c-0.3-1.41-0.58-2.78-0.84-4.09c-0.02-0.07-0.04-0.12-0.06-0.17c0-0.05,0-0.12,0-0.2c0-0.22,0.08-0.41,0.25-0.57
			c0.17-0.17,0.36-0.34,0.59-0.52c0.2-0.17,0.4-0.34,0.59-0.52c0.17-0.17,0.27-0.37,0.31-0.6c-0.63-0.12-1.32-0.17-2.06-0.17
			c-0.47,0-0.93,0.02-1.4,0.04c0.02-0.06,0.04-0.12,0.05-0.16C106.56,39.4,106.94,39.1,107.3,38.77z"/>
		<path class="st1" d="M88.26,18.96c-1.51,0.64-2.65,2.15-2.62,3.86c-0.13,2.01,0.87,3.58,2.48,4.52c0.2,0.27,0.57,0.3,0.87,0.54
			c-0.16-0.64-0.2-1.68,0.07-2.35c0.41-0.6,0.91-1,1.74-1c0.88,0,1.47,0.61,1.87,1.24c0.2,0.57,0.44,1.01,0.51,1.64
			c-0.35,0.13-0.72,0.38-0.66,0.99c0.04,0.84,0.8,1.02,0.8,1.02c-0.1,0.4-0.43,0.7-0.81,0.8c-0.4,0.07-0.74-0.07-1.01-0.27
			c-0.3-0.33-0.37-0.84-0.33-1.34c-0.81,0.5-1.51,1.24-1.71,2.21c-0.07,0.57,0.03,1.14,0.33,1.54c0.41,0.64,1.24,0.85,1.98,0.84
			c0.77-0.07,1.47-0.44,1.98-0.94c0.53,1.03,1.31,1.84,2.14,2.72c0.84-0.88,1.61-1.68,2.14-2.72c0.51,0.5,1.21,0.87,1.98,0.94
			c0.74,0.01,1.58-0.21,1.98-0.84c0.3-0.4,0.4-0.97,0.34-1.54c-0.2-0.97-0.9-1.71-1.71-2.21c0.03,0.51-0.04,1.01-0.34,1.34
			c-0.27,0.2-0.6,0.34-1.01,0.27c-0.38-0.1-0.7-0.4-0.8-0.8c0,0,0.76-0.18,0.8-1.02c0.06-0.61-0.31-0.86-0.66-0.99
			c0.07-0.64,0.3-1.08,0.51-1.64c0.41-0.64,1.01-1.24,1.88-1.24c0.84,0,1.34,0.41,1.74,1c0.27,0.67,0.24,1.71,0.07,2.35
			c0.3-0.23,0.67-0.27,0.87-0.54c1.61-0.94,2.62-2.51,2.48-4.52c0.03-1.71-1.11-3.22-2.62-3.85c-1.2-0.3-2.78-0.2-3.65,0.54
			c-0.3-3.25-3.17-5.27-4-8.25c-0.84,2.98-3.67,5-3.97,8.25C91.04,18.76,89.47,18.66,88.26,18.96z"/>
		<path class="st7" d="M25.59,154.04c-0.49-0.39-5.48-3.39-5.48-5.56c0-0.69,0.27-1.24,0.75-1.67c0.45-0.4,1.03-0.6,1.73-0.6
			c0.9,0,1.74,0.13,2.51,0.4c0.75,0.24,1.9,0.69,2.34,0.87c0.44,0.18,0.49,0,0.41-0.23c-0.2-0.53-0.71-3.03-1.29-3.25
			c-0.57-0.22-0.72,0.32-1.46,0.45c-0.51,0.09-1.03-0.06-1.53-0.17c-0.5-0.13-1.01-0.2-1.53-0.2c-0.68,0-1.34,0.1-1.97,0.3
			c-0.61,0.2-1.18,0.49-1.7,0.87c-0.5,0.4-0.89,0.88-1.19,1.43c-0.29,0.56-0.48,1.19-0.48,1.9c0,5.47,8.86,7.06,8.86,12.17
			c0,1.38-0.46,2.43-1.26,3.17c-0.81,0.73-1.9,1.1-3.26,1.1c-0.68,0-1.27-0.09-1.76-0.27c-0.5-0.18-0.95-0.37-1.36-0.57
			c-0.41-0.24-0.77-0.46-1.09-0.63c-0.32-0.18-1.25-0.93-1.07-0.45c0.45,1.36,1.16,3.27,1.41,3.96c0.25,0.69,0.71-0.27,1.12-0.27
			s1.96,0.47,3.19,0.53c0.97,0.05,4.92-0.4,6.75-4C30.96,158,26.9,155.1,25.59,154.04z"/>
		<path class="st7" d="M61.28,162.58c-0.19,0.16-0.45,0.24-0.68,0.39c-0.25,0.11-0.5,0.22-0.75,0.33c-0.25,0.11-0.54,0.16-0.88,0.16
			c-0.53,0-4.12-0.04-5.69-0.04c-0.39,0-0.73-0.19-0.81-0.59c-0.01-0.11-0.02-0.22-0.03-0.34c0-0.01,0-0.02,0-0.03
			c0-0.46,0-4.75,0-8.71c0-0.17,0.26-0.31,0.42-0.36c0.2-0.06,2.42-0.04,2.99-0.04c1.36,0,2.12,0.84,2.28,0.95
			c0.16,0.11,0.31,0.16,0.44,0.16c0.23,0,0.44-0.16,0.64-0.49c0.23-0.33,0.41-0.7,0.54-1.14c0.14-0.43,0.25-0.86,0.34-1.27
			c0.09-0.41,0.14-0.72,0.14-0.91c0.02-0.31-0.85,0.49-5.16,0.49c-1.02,0-1.67,0-2.19,0c-0.27,0-0.36-0.16-0.43-0.29
			c0-1.47,0-2.69,0-3.37c0-0.51,0.37-0.86,1.81-0.86c1.85,0,2.76-0.04,3.26,0.05c0.5,0.11,2.12,0.54,2.41,0.65
			c0.29,0.09,0.46,0.13,0.51,0.13c0.18,0,0.32-0.07,0.41-0.2c0.09-0.15,0.14-0.3,0.14-0.46c0-0.13-1.27-2.92-1.87-3.09
			c-0.55-0.16-0.59,0.36-1.86,0.36c-1.05,0-2.89,0-3.72,0h-5.6c-0.3,0-0.48,0.32-0.3,0.55c0.54,0.73,1.38,2,1.38,2.88
			c0,1.28,0,13.68,0,15.21c0,0.98-0.74,2.03-1.28,2.66c-0.2,0.23-0.02,0.57,0.29,0.57c0,0,8.84,0,9.27,0c2.8,0,3.49,1.45,3.7,0.94
			c0.07-0.13,1.37-3.7,1.39-3.8C62.47,162.66,62.36,161.71,61.28,162.58z"/>
		<path class="st7" d="M45.36,144.08h-5.6c-0.3,0-0.48,0.32-0.3,0.55c0.54,0.73,1.38,2,1.38,2.88c0,0.32,0,2.01,0,3.4
			c-1.94-0.16-3.89-0.16-5.83,0c0-1.35,0-3.02,0-3.43c0-1.06,0.8-2.18,1.36-2.84c0.2-0.23,0.02-0.57-0.29-0.57h-5.6
			c-0.3,0-0.48,0.32-0.3,0.55c0.54,0.73,1.38,2,1.38,2.88c0,1.28,0,13.68,0,15.21c0,0.98-0.74,2.03-1.28,2.66
			c-0.2,0.23-0.02,0.57,0.29,0.57h5.36c0.3,0,0.48-0.33,0.3-0.56c-0.5-0.65-1.22-1.79-1.22-2.92c0-0.95,0-4.87,0-8.49
			c1.95-0.14,3.89-0.14,5.83,0c0,3.76,0,7.89,0,8.73c0,0.98-0.74,2.03-1.28,2.66c-0.2,0.23-0.02,0.57,0.29,0.57h5.36
			c0.3,0,0.48-0.33,0.3-0.56c-0.5-0.65-1.22-1.79-1.22-2.92c0-1.74,0-13.35,0-14.99c0-1.06,0.8-2.18,1.36-2.84
			C45.85,144.43,45.68,144.08,45.36,144.08z"/>
		<path class="st7" d="M128.45,150.65c-0.3-0.96-0.67-1.87-1.13-2.72c-0.46-0.85-1.02-1.6-1.68-2.23c-0.68-0.66-1.48-1.18-2.4-1.57
			c-0.89-0.37-1.92-0.56-3.08-0.56c-0.89,0-1.77,0.09-2.64,0.26c-0.87,0.15-1.05,0.21-2.43,0.25h-0.7c-0.3,0-0.48,0.32-0.3,0.55
			c0.54,0.73,1.38,2,1.38,2.88v15.21c0,0.98-0.74,2.03-1.28,2.66c-0.2,0.23-0.02,0.57,0.29,0.57h5.36c0.3,0,0.48-0.33,0.3-0.56
			c-0.5-0.65-1.22-1.79-1.22-2.92v-14.99c0-0.52,0.09-0.83,0.21-1c0.74-0.87,2.03-0.33,2.66,0c0.64,0.33,1.19,0.78,1.64,1.34
			c0.48,0.57,0.87,1.2,1.16,1.9c0.3,0.72,0.52,1.46,0.68,2.23c0.21,0.77,0.33,1.53,0.38,2.3c0.07,0.74,0.1,1.43,0.1,2.07
			c-0.02,1.25-0.18,2.55-0.48,3.9c-0.3,1.33-0.78,2.57-1.44,3.71c-0.64,1.09-1.49,2-2.57,2.72c-1.07,0.72-2.41,1.08-4,1.08
			c-0.55,0-1.1-0.05-1.64-0.16c-0.55-0.13-1.04-0.33-1.47-0.59c-0.43-0.28-0.78-0.63-1.03-1.05c-0.27-0.41-0.41-0.92-0.41-1.51
			c0-0.39,0.16-0.71,0.48-0.95c0.3-0.26,1.26-0.96,0.65-1.74c-0.32-0.43-1.13-0.7-1.95-0.13c-0.3,0.22-0.55,0.49-0.75,0.82
			c-0.23,0.35-0.39,0.72-0.48,1.11c-0.11,0.39-0.17,0.74-0.17,1.05v0.13c0,0.61,0.18,1.23,0.55,1.87c0.39,0.7,0.84,1.27,1.37,1.7
			c0.34,0.31,0.74,0.56,1.2,0.75c0.48,0.18,0.97,0.33,1.47,0.46c0.52,0.11,1.05,0.18,1.57,0.2c0.52,0.04,1.02,0.07,1.47,0.07
			c1.94,0,3.61-0.4,5-1.21c1.37-0.79,2.5-1.81,3.39-3.08c0.89-1.29,1.55-2.72,1.99-4.3c0.41-1.57,0.63-3.16,0.65-4.75v-0.46
			c0-0.76-0.05-1.56-0.14-2.39C128.92,152.56,128.72,151.59,128.45,150.65z"/>
		<path class="st7" d="M176.97,144.08h-5.6c-0.3,0-0.48,0.32-0.3,0.55c0.54,0.73,1.38,2,1.38,2.88c0,0.32,0,1.37,0,2.76
			c-1.94-0.16-3.89-0.16-5.83,0c0-1.35,0-2.38,0-2.79c0-1.06,0.8-2.18,1.36-2.84c0.2-0.23,0.02-0.57-0.29-0.57h-5.6
			c-0.3,0-0.48,0.32-0.3,0.55c0.54,0.73,1.38,2,1.38,2.88c0,1.28,0,13.68,0,15.21c0,0.98-0.74,2.03-1.28,2.66
			c-0.2,0.23-0.02,0.57,0.29,0.57h5.36c0.3,0,0.48-0.33,0.3-0.56c-0.5-0.65-1.22-1.79-1.22-2.92c0-0.95,0-4.87,0-8.49
			c1.95-0.14,3.89-0.14,5.83,0c0,3.76,0,7.89,0,8.73c0,0.98-0.74,2.03-1.28,2.66c-0.2,0.23-0.02,0.57,0.29,0.57h5.36
			c0.3,0,0.48-0.33,0.3-0.56c-0.5-0.65-1.22-1.79-1.22-2.92c0-1.74,0-13.35,0-14.99c0-1.06,0.8-2.18,1.36-2.84
			C177.45,144.43,177.28,144.08,176.97,144.08z"/>
		<path class="st7" d="M79.37,144.66c0.2-0.23,0.02-0.57-0.29-0.57h-5.6c-0.3,0-0.48,0.32-0.3,0.55c0.54,0.73,1.38,2,1.38,2.88
			c0,0.59,0,3.57,0,6.75c-0.67-0.96-4.52-4.4-5.23-5.52c-0.57-0.91-0.7-1.82-0.71-1.9c0.22-0.85,0.82-1.67,1.27-2.19
			c0.2-0.23,0.02-0.57-0.29-0.57H64c-0.3,0-0.48,0.32-0.3,0.55c0.54,0.73,1.38,2,1.38,2.88c0,1.28,0,13.68,0,15.21
			c0,0.98-0.74,2.03-1.28,2.66c-0.2,0.23-0.02,0.57,0.29,0.57h5.36c0.3,0,0.48-0.33,0.3-0.56c-0.5-0.65-1.22-1.79-1.22-2.92
			c0-1.05,0-5.72,0-9.61c0.95,1.24,3.35,3.59,4.52,4.97c0.96,1.13,1.36,2.41,1.51,3.09c0,0.87,0,1.51,0,1.79
			c0,0.98-0.74,2.03-1.28,2.66c-0.2,0.23-0.02,0.57,0.29,0.57h5.36c0.3,0,0.48-0.33,0.3-0.56c-0.5-0.65-1.22-1.79-1.22-2.92
			c0-1.74,0-13.35,0-14.99C78.01,146.43,78.81,145.31,79.37,144.66z"/>
		<path class="st7" d="M96.13,144.62c0.2-0.23,0.02-0.57-0.29-0.57h-5.6c-0.01,0-0.02,0.01-0.02,0.01c-1.8,0-4-0.01-4.33-0.01
			c-1.22,0-2.11-0.51-2.59-0.51c-0.2,0-0.38,0.12-0.54,0.36c-0.18,0.24-0.88,2.41-0.92,2.54c-0.08,0.28,0.07,0.59,0.31,0.65
			s0.4-0.06,0.64-0.2c0.76-0.4,1.59-0.68,2-0.81c0.36-0.1,1.19-0.24,2.26-0.07c-0.46,0.7-1.24,2.11-2.53,4.99
			c-2.39,5.34-3,10.48-3.22,11.56c0,0.01,0,0.02,0,0.03c0,0,0,0,0,0c0,0-0.16,1.32-1.28,2.81c-0.18,0.24-0.02,0.57,0.29,0.57h5.36
			c0.3,0,0.48-0.33,0.3-0.56c-0.5-0.65-1.22-1.79-1.22-2.92v-0.1c0,0,0,0-0.01,0c0-0.01,0.01-0.02,0.01-0.03
			c-0.07-0.79,0.77-5.09,0.98-5.59c0.21-0.5,1.03-0.71,2.45-0.18c1.42,0.54,3.13,0.49,3.13,0.49c0,2.67,0,5.01,0,5.62
			c0,0.98-0.74,2.03-1.28,2.66c-0.2,0.23-0.02,0.57,0.29,0.57h5.36c0.3,0,0.48-0.33,0.3-0.56c-0.5-0.65-1.22-1.79-1.22-2.92
			c0-1.74,0-13.35,0-14.99C94.77,146.4,95.57,145.28,96.13,144.62z M91.32,153.73c-0.23,0.71-2.08,0.27-2.84,0.05
			c-0.76-0.21-1.82-0.53-1.82-0.53s2.49-6.87,3.86-6.89c0.58-0.01,0.75,0.55,0.77,0.65c0.02,0.15,0.03,0.3,0.03,0.47
			C91.32,148.04,91.32,150.75,91.32,153.73z"/>
		<path class="st7" d="M159.41,162.58C159.41,162.58,159.41,162.58,159.41,162.58c0-0.01,0-0.02,0-0.03
			c-0.22-1.08-0.83-6.22-3.22-11.56c-1.29-2.87-2.07-4.29-2.53-4.99c1.07-0.17,2.8,0.16,3.16,0.26c0.41,0.13,1.24,0.41,2,0.81
			c0.25,0.13,0.41,0.26,0.64,0.2c0.23-0.06,0.38-0.37,0.31-0.65c-0.04-0.13-0.73-2.3-0.92-2.54c-0.16-0.24-0.34-0.36-0.54-0.36
			c-0.48,0-2.27,0.32-3.5,0.32c-0.33,0-2.53,0-4.33,0.01c-0.01,0-0.01-0.01-0.02-0.01h-5.6c-0.31,0-0.48,0.34-0.29,0.57
			c0.56,0.66,1.36,1.77,1.36,2.84c0,1.64,0,13.26,0,14.99c0,1.13-0.72,2.27-1.22,2.92c-0.18,0.23,0,0.56,0.3,0.56h5.36
			c0.31,0,0.48-0.34,0.29-0.57c-0.53-0.63-1.28-1.68-1.28-2.66c0-0.61,0-2.95,0-5.62c0,0,1.71,0.05,3.13-0.49
			c1.42-0.54,2.24-0.32,2.45,0.18c0.21,0.5,1.06,4.8,0.98,5.59c0,0.01,0.01,0.02,0.01,0.03c0,0,0,0-0.01,0v0.1
			c0,1.13-0.72,2.27-1.22,2.92c-0.18,0.23,0,0.56,0.3,0.56h5.36c0.31,0,0.47-0.33,0.29-0.57
			C159.58,163.9,159.41,162.58,159.41,162.58z M152.23,153.79c-0.76,0.21-2.61,0.65-2.84-0.05c0-2.99,0-5.69,0-6.25
			c0-0.17,0.01-0.32,0.03-0.47c0.02-0.1,0.19-0.66,0.77-0.65c1.36,0.02,3.86,6.89,3.86,6.89S152.99,153.58,152.23,153.79z"/>
		<path class="st7" d="M137.5,143.57c-4.07,0-7.37,3.95-7.37,11.42s3.3,11.42,7.37,11.42s7.37-4.07,7.37-11.42
			S141.57,143.57,137.5,143.57z M137.5,163.95c-2.08,0-3.77-3.1-3.77-8.96s1.69-8.96,3.77-8.96s3.77,3.19,3.77,8.96
			S139.58,163.95,137.5,163.95z"/>
		<path class="st7" d="M110.09,163.38c0.1-0.43,0.29-0.86,0.55-1.27c0.18-0.28,0.4-0.53,0.65-0.75v-13.87c0-1.06,0.8-2.18,1.36-2.84
			c0.2-0.23,0.02-0.57-0.29-0.57h-5.6c-0.3,0-0.48,0.32-0.3,0.55c0.54,0.73,1.38,2,1.38,2.88v6.75c-0.67-0.96-4.52-4.4-5.23-5.52
			c-0.57-0.91-0.7-1.82-0.71-1.9c0.22-0.85,0.82-1.67,1.27-2.19c0.2-0.23,0.02-0.57-0.29-0.57h-5.6c-0.3,0-0.48,0.32-0.3,0.55
			c0.54,0.73,1.38,2,1.38,2.88v15.21c0,0.98-0.74,2.03-1.28,2.66c-0.2,0.23-0.02,0.57,0.29,0.57h5.36c0.3,0,0.48-0.33,0.3-0.56
			c-0.5-0.65-1.22-1.79-1.22-2.92v-9.61c0.95,1.24,3.35,3.59,4.52,4.97c0.96,1.13,1.36,2.41,1.51,3.09v1.79
			c0,0.98-0.74,2.03-1.28,2.66c-0.2,0.23-0.02,0.57,0.29,0.57h3.27c-0.14-0.42-0.22-0.83-0.22-1.25v-0.13
			C109.9,164.23,109.97,163.82,110.09,163.38z"/>
	</g>
	<path class="st0" d="M189.38,201.79c-1.06,0-15.38,0-15.38,0l-5.16-3.74l1.89,3.74h-8.77l-9.56-7.67H24.33c0,0,3.9,5.6,3.37,6.18
		c-0.52,0.58-25.34-7.8-25.34-8.53c0-0.74,24.92-10.23,25.34-9.82c0.42,0.41-3.47,7.07-3.47,7.07h128.17l9.03-7.65h1.48l-2.43,4.43
		h1.48l4.32-4.43h9.07l-1.48,3.76l5.71-3.76h9.05l-7,8.21c0,0,1.13-0.17,1.13,1.25s-0.08,2.3-0.71,2.3
		C182.06,193.12,190.17,201.79,189.38,201.79z"/>
	<path class="st8" d="M117.24,189.73c0.21-0.47,6.86-1.68,6.86-7.11c0-3.54-3.21-7.35-8.34-7.35c-8.92,0-9.78,7.81-9.78,8.5
		c0,5.38,3.95,7.39,3.59,7.63c-0.6,0.4-3.78,3.97-3.71,4.79c-0.05-2.68-0.58-5.21-1.59-7.52c-1.11-2.52-2.86-4.73-5.21-6.57
		c-1.29-0.99-4.26-2.36-7.69-3.5c0.02-0.29,0.77-5.35,0.77-5.35c2.38,0,5.38,0.04,7.05,0.04c1.62,0,1.95,1.72,2.77,2.04
		c0.2,0.08,0.43,0.01,0.55-0.17c0.17-0.26,2.31-5.31,2.39-5.64c0.24-0.96-0.01-1.9-1.39-1.71c-0.92,0.13-1.64,0.89-4.33,0.89
		c-2.23,0-10.04-0.13-10.87,0.15c-0.81,0.26-1.35,0.82-1.55,1.62c-0.21,0.73-1.79,9.87-1.98,11.09c-0.43-0.66-0.94-1.26-1.53-1.75
		c-0.9-0.75-1.99-1.34-3.23-1.73c-1.23-0.39-2.6-0.59-4.08-0.59c-1.28,0-2.49,0.22-3.62,0.65c-1.12,0.43-2.15,1.05-3.05,1.83
		c-0.87,0.76-1.55,1.67-2.04,2.7c-0.53,1.05-0.8,2.21-0.8,3.45c-0.04,0.56,0.04,0.7,0.24,1.27c0.23,0.67,0.78,1.03,1.57,1.03
		c0.49,0,1.08-0.11,1.37-0.52c0.23-0.33,0.26-0.41,0.46-0.89c0.22-0.51,0.45-1.05,0.69-1.58c0.27-0.52,0.6-1.01,0.99-1.44
		c0.36-0.44,0.84-0.8,1.45-1.09c0.63-0.31,1.42-0.47,2.36-0.47c0.51,0,1.06,0.13,1.62,0.38c0.57,0.25,1.05,0.59,1.47,1.02
		c0.43,0.38,0.78,0.85,1.06,1.4c0.26,0.5,0.39,1.02,0.39,1.55c0,0.91-0.32,2.01-0.94,3.27c-0.6,1.26-1.4,2.62-2.36,4.05
		c-0.94,1.45-1.99,2.96-3.13,4.49c-1.16,1.55-2.3,3.07-3.42,4.56c-1.08,1.45-2.11,2.86-3.05,4.21c-0.91,1.36-1.61,2.56-2.09,3.57
		c-0.02,0.05-0.03,0.1-0.03,0.15c0,0.62,0.39,0.87,0.57,0.94c0.3,0.16,0.62,0.27,0.97,0.31c0.35,0.04,18.32,0.26,18.62,0.26
		c0.58,0,1.16-0.03,1.75-0.1c0.84-0.14,1.67-0.32,2.5-0.54c0.81-0.27,1.55-0.65,2.17-1.13c0.96-0.68,1.84-1.61,2.6-2.76
		c0.74-1.07,1.17-2.18,1.28-3.29l0.02-0.22c0.06-0.56,0.03-1.2-0.09-1.92c-0.08-0.73-0.29-1.44-0.61-2.1
		c-0.3-0.64-0.69-1.2-1.18-1.67c-0.55-0.49-2.4-1.46-3.88-0.21c-1.58,1.73,0.33,3.35,0.8,3.88c0.36,0.35,3.45,4.91-6.59,4.91
		c-3.69,0-10.27-0.22-10.52-0.17c0.49-0.83,1.05-1.68,1.67-2.54c0.87-1.1,1.77-2.24,2.7-3.41c0.96-1.16,1.93-2.36,2.88-3.58
		c0.94-1.18,1.83-2.39,2.63-3.61c0.77-1.25,1.41-2.51,1.93-3.74c0.48-1.24,0.75-2.5,0.78-3.74c0.02-0.86-0.06-1.66-0.21-2.4
		c0.11,0.01,0.21,0.04,0.32,0.05c0.43,0.04,0.91,0.07,1.42,0.07c1.88,0,3.54,0.36,4.93,1.08c1.43,0.72,2.65,1.71,3.61,2.95
		c0.96,1.2,1.69,2.65,2.18,4.3c0.48,1.62,0.71,3.36,0.67,5.19c-0.04,1.87-0.35,3.68-0.92,5.39c-0.57,1.67-1.37,3.23-2.38,4.64
		c-1.05,1.38-3.77,6.34-11.41,6.34c-6.6-0.76-6.44,3.26,0.88,3.4c2.73,0.05,5.36-0.58,7.84-1.74c2.46-1.15,4.65-2.7,6.51-4.6
		c1.91-1.87,3.46-4.07,4.61-6.54c0.16-0.37,0.31-0.74,0.45-1.11c0.1,0.4,1.71,8.36,9.69,8.36c11.27,0,10.95-8.95,10.95-11.06
		C125.21,198.84,124.12,192.72,117.24,189.73z M111.69,181.86c0.27-0.58,1.86-2.79,4.78-2.79c1.65,0,2.9,0.36,3.72,1.09
		c0.75,0.6,1.27,1.97,1.13,3.02c-0.14,1.05-0.51,2.65-3.57,3.37c0.75-1.65,1.75-4.71,0.29-4.71c-1.46,0-3.61,4.31-4.64,5.81
		C112.68,187.32,110.22,184.98,111.69,181.86z M114.73,207.34c-2.97,0-5.37-3.25-5.37-6.22c0-2.97,2.41-6.77,5.37-6.77
		c2.97,0,5.37,3.8,5.37,6.77C120.1,204.09,117.7,207.34,114.73,207.34z"/>
	<rect x="86.92" y="189.01" class="st0" width="19.41" height="5.11"/>
	<g>
		<path d="M161.82,100.22c-0.81-2.13-5.05-5.86-6.43-8.35c-1.38-2.49-2.22-4.2-4.48-6.25c-1.45-1.32-3.89-2.7-6.17-3.91
			c0.03-0.37-0.01-0.75-0.04-0.95c-0.05-0.32-0.18,0.83-0.23,0.66c-0.05-0.17,0.03-0.78,0.04-1.1c0.01-0.33-0.08-1.34-0.17-1.55
			c-0.1-0.22-0.02,0.61-0.1,0.42c-0.08-0.19-0.1-0.92-0.13-1.14c-0.03-0.22-0.08-0.59-0.16-0.63c-0.09-0.04,0.09,0.74-0.02,0.43
			c-0.11-0.31-0.32-1.14-0.43-1.38s0.04,0.49-0.05,0.38c-0.09-0.11-0.18-0.64-0.25-0.75c-0.07-0.1-0.07,0.27-0.08,0.26
			c-0.03-0.14-0.04-0.47-0.1-0.57c-0.06-0.09-0.06,0.33-0.13,0.31c-0.06-0.02-0.02-0.26-0.06-0.32c-0.04-0.07-0.08,0.19-0.14,0.12
			c-0.05-0.07,0.06-0.44,0.06-0.53c0.01-0.08-0.2,0.38-0.24,0.35c-0.04-0.02,0.01-0.22,0-0.27c-0.01-0.05-0.17,0.14-0.21,0.14
			c-0.04,0,0.12-0.23,0.07-0.24c-0.05-0.01-0.25,0.23-0.31,0.22c-0.06-0.01,0.08-0.26,0.08-0.28c-0.23,0.08-0.52,0.46-0.65,0.57
			c-0.13,0.12,0.05-0.17,0-0.19c-0.05-0.02-0.41,0.3-0.5,0.44c-0.09,0.14-0.24,0.68-0.34,0.79s0.04-0.38-0.08-0.3
			c-0.11,0.08-0.18,0.48-0.18,0.68c0,0.21-0.24-0.32-0.26-0.29c-0.14,0.24-0.24,0.47-0.31,0.69c-0.01,0-0.02-0.01-0.03-0.03
			c-0.06-0.2,0.27-0.97,0.17-1.17c-0.1-0.2-0.11,0.51-0.21,0.29c-0.1-0.22,0.06-1.13,0.07-1.42c0-0.29-0.11-1-0.28-1.06
			c-0.17-0.06,0,1.1-0.18,0.91c-0.18-0.19-0.33-1.62-0.45-1.95c-0.13-0.34-0.44-1.21-0.62-1.24c-0.18-0.03,0.23,0.98,0.04,0.85
			c-0.2-0.12-0.53-0.86-0.69-1.01c-0.16-0.14-0.53-0.58-0.61-0.54c-0.08,0.05,0.04,0.41-0.06,0.38c-0.1-0.03-0.19-0.44-0.31-0.42
			c-0.12,0.01,0,0.43-0.14,0.43c-0.15,0-0.51-0.51-0.64-0.48s0.02,0.45-0.07,0.47c-0.09,0.02-0.25-0.32-0.32-0.25
			c-0.07,0.07,0.24,0.5,0.12,0.53c-0.11,0.03-0.23-0.34-0.34-0.33c-0.11,0.01-0.02,0.27-0.08,0.25c-0.06-0.02-0.08-0.22-0.16-0.18
			c-0.08,0.04-0.08,0.23-0.15,0.24c-0.07,0.02,0-0.27-0.11-0.16c-0.11,0.1-0.27,0.66-0.38,0.72c-0.11,0.06,0.07-0.26-0.03-0.22
			c-0.09,0.04-0.1,0.2-0.2,0.24c-0.09,0.04,0.1-0.18-0.07-0.11c-0.17,0.07-0.62,0.58-0.7,0.8c-0.08,0.21-0.2,0.64-0.32,0.71
			c-0.12,0.07,0.15-0.39-0.01-0.28c-0.16,0.11-0.33,0.73-0.39,0.89c-0.06,0.17-0.01-0.32-0.14-0.17c-0.09,0.1-0.18,0.41-0.23,0.68
			c-1.84-1-1.15-0.97-2.42-2.09c0,0.39-0.15,0.68-0.05,1.06c-0.93-0.2-1.56-0.37-2.38-1.03c-0.82-0.67-1.9-1.73-2.84-2.31
			c0,0.26,0.72,1.12-0.21,0.92c-0.93-0.19-2.26-0.66-3.11-1.51c-0.84-0.85-1.89-1.85-2.9-2.49c0.01,0.3,0.43,0.7-0.38,0.54
			c-0.81-0.16-1.72-0.64-2.87-0.82c-1.16-0.18-2.89-0.48-4.25-0.76c-1.36-0.28-3.16-0.33-4.53-0.16c0.03,0.25,1.17,0.59-0.17,0.61
			c-1.34,0.02-3.16,0.14-4.98,0.52c-1.81,0.38-2.63,0.47-5.3,0.48c-2.67,0.01-8.1-0.22-11.4-0.47c-3.3-0.25-9.4-0.23-11.91-0.67
			c-2.52-0.44-1.48-0.44-3.28-0.84c0.14,0.14,1.37,0.74,0.64,0.96c-0.73,0.22-2.56-0.19-3.41-0.23c-0.85-0.04-1.46,0.04-2.2,0.27
			c0.06,0.03,1.36,0.22,0.57,0.44c-0.79,0.21-2.58,0.32-3.36,0.66c-0.77,0.34-1.1,1-1.79,1.08c-0.7,0.08-1.31,0.34-1.9,0.63
			c-0.1,0.07,1.05-0.11,0.42,0.29c-0.63,0.4-2.77,0.3-3.7,0.44c-0.93,0.14-1.81,0.46-2.64,0.85c0.28,0.11,1.29,0.27,0.37,0.62
			c-0.92,0.35-2.37,0.84-3.33,1.3c-0.96,0.46-1.79,0.96-2.63,1.53c0.06,0.08,1.69-0.13,0.68,0.34c-1.01,0.47-2.86,1.72-3.98,2.16
			c-1.12,0.44-1.8,0.85-2.71,1.47c0.2,0.01,1.12-0.14,0.72,0.4c-0.4,0.54-1.58,0.9-2.13,1.33c-0.55,0.43-0.84,0.92-1.24,1.43
			c0.17-0.08,1.56-0.65,0.89,0.04c-0.66,0.7-1.82,1.23-2.4,2.15c-0.58,0.92-1.07,2.58-1.6,3.34c-0.53,0.76-0.82,0.67-1.47,0.9
			c0.45,0.33,1.13,0.39,0.94,1.27c-0.19,0.88-1.15,2.19-1.7,3.01c0.92-0.25,0.99,0.29,0.8,1.3c-0.2,1.02-0.76,3.73-1.4,4.4
			c-0.64,0.67-0.61,0.4-1.18,0.72c0.39-0.01,1.1-0.22,1.27,0.3c0.17,0.52,0.06,1.19-0.31,1.69c-0.37,0.5-0.96,1.03-1.41,1.46
			c-0.45,0.43-0.7,1.01-0.96,1.51c0.33,0.22,0.87-1.42,1.29-0.28c0.42,1.14,0.47,3.25-0.32,4.92c-0.79,1.67-1.84,4.08-2.26,6.18
			c-0.42,2.11-1.03,5.9-1.59,7.61c-0.56,1.71-1.18,1.59-2.27,2.03c0.3,0.59,0.77,1.45,0.8,2.14c0.03,0.69-0.56,1-1.01,1.3
			c0.16,0.52,0.48,0.64,0.33,1.35c-0.15,0.71-0.29,2.15,0.01,2.91c0.31,0.76,0.17,1.57,0.09,2.18c-0.08,0.61-0.07,1.24-0.63,1
			c0.17,0.69,0.24,1,0.82,1.6c0.57,0.6,0.97,1.89,1.65,2.54c0.68,0.65,1.47,0.84,2.32,1.19c0.85,0.35,1.77,0.34,2.65,0.34
			c0.85,0,1.84,0,2.51,0c0.68,0,0.71-0.72,1.2-0.86c0.49-0.14,0.6,0.06,0.96,0.25c0.15-0.34,0.12-0.66-0.09-0.96
			c0.4-0.05,0.79-0.07,1.17,0.12c-0.42-0.81-1.02-1.18-1.84-1.63c-0.81-0.45-2.58-0.83-3.36-0.8c-0.43,0.02-0.45-0.06-0.9-0.45
			c-0.45-0.39-0.6-1.28-0.44-1.69c0.16-0.41,0.45,0.02,0.56,0.18c0.43-0.53,0.58-0.96,0.57-1.73c-0.01-0.76-0.1-1.84-0.13-2.67
			c0.39,0.61,0.74,1.27,0.89,1.99c0.31-0.69,0.51-1.4,0.47-2.17c-0.03-0.77,1.15-1.23,1.65-0.91c0.5,0.32,0.37,0.91,0.59,1.34
			c0.08-0.63,0.09-1.43,0.47-1.96c0.39-0.53,1-0.7,1.25-1.36c0.24-0.66,0.87-1.38,1.45-1.5c0.58-0.12,0.58,0.15,0.71,0.52
			c0.36-0.43,0.72-0.75,0.81-1.39c0.1-0.64,0.25-1.49,0.84-2.01c0.59-0.52,1.37-1.65,1.59-2.38c0.22-0.74,0.14,1.18,0.12,1.32
			c0.55-0.6,1.08-1.24,1.46-1.99s0.58-1.97,0.82-2.67c0.24-0.7,0.36-0.69,0.92-1.05c0.56-0.36,1.31-1.08,1.82-1.62
			c-0.32,0.66-0.46,1.4-0.47,2.13c0.31-0.19,1.01-1.03,1.41-0.68c0.4,0.35-0.8,1.99-0.89,2.48c0.51-0.27,1.21-0.62,1.68-0.07
			c0.47,0.55,0.5,1.58,0.28,2.17c-0.22,0.59-0.44,0.8-0.68,1.27c0.36-0.26,1.17-0.98,1.53-0.38c0.36,0.59-0.19,1.62-0.44,2.2
			c0.65-0.24,1.59-0.53,2.09,0.14c0.5,0.66,0.7,1.41,0.49,2.19c-0.21,0.78-0.38,1.48-0.48,2.26c0.33-0.18,0.73-0.71,1.12-0.22
			c0.39,0.49,0.53,1.53,0.29,2.18c-0.23,0.65,0.76,2.54,0.88,3.26c0.12,0.72,0.48,2.01,0.3,2.82c-0.18,0.81,0.31,1.62,0.8,2.07
			c0.49,0.44-0.34,0.36-0.57,0.41c0.61,0.37,0.45,0.41,1.34,0.59c0.9,0.18,1.28,1.32,2.61,1.32c1.37,0,3.54,0,5.25,0
			c1.74,0,5.43,0.04,7-0.05c1.57-0.09,1.54-0.71,2.16-1.59c0.32,0.08,0.69,0.25,0.85,0.62c-0.05-0.55-0.05-1.08-0.5-1.48
			c-0.44-0.4-0.79-0.78-1.48-0.94c-0.69-0.16-1.8-0.09-2.56-0.07c-0.75,0.02-1.47,0-2.2-0.11c-1.64-0.24-1.72-1.69-2.32-2.09
			c0.24-0.06,0.47-0.1,0.7,0.01c-0.26-0.57-0.43-0.74-0.83-1.31c-0.41-0.57-0.62-2.27-0.7-3.12c-0.08-0.85-0.17-1.65-0.35-2.66
			c-0.18-1.01-0.03-3.41,0.21-4.29c0.23-0.88,0.31,0.46,0.36,0.4c0.23-0.61,0.31-0.94,0.35-1.72c0.04-0.78,0.2-2.14-0.08-2.99
			c0.21,0.05,0.37,0.18,0.48,0.38c0.1-0.98,0.26-2.02,0.07-3.01c-0.19-0.99-0.42-2.35-0.2-3.23c0.22-0.88,0.41-1.23,0.37-2.03
			c-0.04-0.81-0.41-1.58-0.65-2.34c0.35,0.01,0.84,0.28,1.03,0.49c0.19,0.21,0.66-0.77,0.97-0.87c0.31-0.1,1.14-0.06,1.32,0.32
			c0.18,0.39-0.09,0.59-0.24,0.88c0.58-0.04,1.13-0.22,1.63-0.56c0.5-0.34,1.08-0.42,1.53-0.13c0.45,0.29,0.17,0.6,0.13,0.95
			c0.86-0.05,1.85-0.16,2.66-0.41c0.81-0.25,1.49-0.27,2.28-0.16c0.79,0.11,1.75,0.33,2.45,0.34c0.71,0.01,1.02-0.15,1.54-0.51
			c-0.36,0.58-0.74,1.13-1.26,1.57c1.19-0.65,2.53-1.31,3.41-2.39c-0.05,0.74-0.11,1.55-0.58,2.15c0.65-0.41,1.02-0.81,1.6-1.39
			c0.58-0.58,1.88-0.37,2.64,0.01c0.75,0.38,1.77,0.1,2.48-0.36c0.71-0.46,1.36-0.99,2.04-1.5c-0.16,0.42-0.34,0.83-0.58,1.21
			c0.47-0.35,1.09-0.83,1.48-1.22c0.39-0.39,0.7-0.78,1.18-0.84c0.48-0.06,0.96,0.31,0.94,0.74s-0.32,0.7-0.49,1.04
			c0.38-0.09,0.64-0.06,0.75,0.43c0.11,0.49-0.16,1.57-0.46,1.89c-0.3,0.33,0.48-0.17,0.67,0.2c0.19,0.37,0.16,1.67-0.21,1.98
			c-0.37,0.31-0.65,0.04-0.99-0.03c0.34,0.36,1,0.51,0.98,1.19c-0.02,0.68-1.21,1.47-1.74,1.85c0.67,0.27,1.7,0.48,2.09,1.16
			c0.38,0.68-0.52,1.19-0.94,1.5c0.67,0.39,2,1.07,1.98,1.96c-0.02,0.89-1.15,0.99-1.73,1.19c0.43,0.42,1.64,1.26,1.37,1.99
			c-0.27,0.73-1.55,0.47-2.12,0.47c0.69,0.54,1.78,0.82,2.06,1.87c0.28,1.05,0.18,2.64,0.83,3.57c0.65,0.93,0.92,1.26,1.26,2.35
			c0.34,1.09,1.15,3.71,1.68,4.66c0.53,0.95,0.49,1.55,1.01,2.37c0.52,0.81,1.29,1.69,2.27,1.69c0.99,0,2.4,0.02,3.37,0.02
			c0.98,0,2.23,0.02,2.99,0.02c0.76,0,0.91-0.04,1.46-0.11c0.56-0.07,1.04-0.23,1.41-0.67c0.28-0.09,0.58-0.12,0.83,0.07
			c0.1-0.41-0.01-0.75-0.25-1.08c0.3-0.13,0.59-0.21,0.9-0.05c-0.13-0.75-0.35-1.05-1.05-1.54c-0.7-0.49-2.48-0.9-3.24-1.01
			c-0.76-0.1-0.83,0.39-1.41,0.09c-0.58-0.3-0.74-1.09-1.28-1.75c-0.54-0.65-1.18-2.63-1.17-3.72c0.01-1.09-0.05-2.96,0-4.02
			c0.05-1.07-0.09-1.35,0.36-2.29c0.45-0.93,0.93-2.17,0.9-3.3c0.2,0.24,0.3,0.53,0.37,0.84c0.35-0.82,0.73-1.74,0.81-2.61
			c0.07-0.78,0.02-1.49-0.01-2.24c0.05-0.02,0.1-0.03,0.15-0.05c0.22,0.32,0.41,0.66,0.5,1.04c0.06-0.41,0.11-0.82,0.12-1.23
			c0.43-0.12,0.86-0.19,1.24-0.14c0.84,0.12-0.76,0.85-0.55,0.93c0.21,0.08,1.2-0.88,1.56-0.46c0.36,0.42-0.82,1.43-1.13,1.71
			c0.51-0.33,1.19-0.83,1.77-0.89c0.58-0.06,0.42,0.3,0.61,0.66c0.44-0.09,0.96-0.23,1.39-0.12c0.43,0.1,0.43,0.29,0.92,0.43
			c0.48,0.13,1.19-0.44,1.75-0.35c0.56,0.09-0.29,1.74-0.59,1.95c0.59-0.33,1.62-0.67,2.2-0.74c0.58-0.07,0.65-0.05,1.13-0.15
			c-0.77,0.51-1.5,0.98-2.33,1.33c0.8-0.12,1.57-0.3,2.33-0.58c-0.58,0.49-1.17,0.98-1.79,1.38c0.41-0.03,2.04,0.09,1.84,0.28
			c0.35,0.27,0.65,0.33,1.09,0.4c0.44,0.07,0.33,0.92,0.51,1.16c0.19,0.24,1.85-0.01,1.57,0.28c-0.28,0.29-0.94,0.69-1.18,0.98
			c-0.06,0.07,0.38-0.19,0.4,0.04c0.02,0.23-0.43,0.47-0.42,0.58c0.01,0.14,0.28-0.03,0.26,0.29c-0.02,0.32-0.12,0.64-0.05,1.02
			s0.48,0.61,0.57,1.06c0.09,0.45-0.14,0.63,0.13,1.19c0.28,0.57,0.65,1.48,1.19,2.09c0.54,0.61,0.92,0.76,1.51,0.95
			c0.59,0.18,0.17,0.38,0.34,0.66c0.4-0.02,0.54-0.16,0.96-0.34c0.42-0.18,1.42,0.75,1.45,1.23c0.35-0.35,0.62-0.29,0.77-0.86
			c0.15-0.57,0.26-1.09,0-1.78c-0.27-0.69,0.18-1.07,0.01-2.01c-0.18-0.94-0.11-2,0.1-3.12c0.21-1.13-0.54-1.03,0.22-2.54
			c0.76-1.51,0.86-4.71,0.71-6.75c-0.15-2.04-1.55-4.07-2.52-5.28c-0.97-1.21-1.2-1.28-2.08-2.23c0.45,0.2,0.86,0.25,1.31,0.34
			c-0.97-0.56-2.03-1.03-2.91-1.73c-0.64-0.5-1.38-1.11-1.98-1.73c3.88-2.54,5.98-5.89,6.23-6.29c0.32-0.52,0.38-0.45,0.78-0.62
			c0.4-0.17,1,0.08,0.94,0.58c0.55-0.15,0.62-0.35,1.31-0.19c0.69,0.16,1.6,0.24,2.45-0.17c0.85-0.41,2.77,0.32,3.54,0.36
			c0.77,0.04,0.76-0.04,1.37-0.08c-0.18,0.31-0.31,0.65-0.6,0.86c0.56,0.04,1,0.11,1.59-0.07c0.59-0.18,1.77-0.12,2.22,0.28
			c0.44,0.4,0.32,0.71,0.44,1.17c0.19-0.22,0.59-0.66,0.9-0.53c0.31,0.13,0.24,0.57,0.25,0.82c0.33-0.25,0.83-0.76,1.28-0.6
			c0.45,0.16,0.41,0.88,0.44,1.28c0.29-0.19,0.54-0.45,0.9-0.53c0.68-0.16,0.87,0.48,0.81,1.1c0.92-0.53,1.34-1.02,2.58-1.06
			c1.24-0.04,3.61,0.39,4.84,0.72c1.22,0.33,2.64,0.59,3.55,0.65c0.9,0.05,2.15,0.07,2.27-0.72c0.54,0.05,1.32-0.01,1.78-0.29
			c0.46-0.27,0.53-0.65,0.75-1.02C160.3,101.45,162.64,102.35,161.82,100.22z M149.72,92.11c0.12,0.52,0.29,0.97,0.95,1.3
			c-0.24-0.05-0.41-0.09-0.62-0.26c-0.37-0.32-0.51-0.65-0.47-0.88C149.6,92.11,149.7,92.04,149.72,92.11z M150.82,91.45
			c0.25-0.04,0.42,0.3,0.22,0.34c0,0,0,0,0,0c0.03,0.02,0.06,0.05,0.07,0.09c0.07,0.24-0.17,0.35-0.36,0.42
			c0,0.04-0.01,0.08-0.01,0.12c-0.01,0.31,0.38,0.37,0.63,0.36c0.25-0.02,0.03,0.37-0.23,0.43c-0.04,0.01-0.1,0.01-0.16,0
			c-0.5-0.05-0.78-0.48-0.8-0.94C150.15,91.81,150.45,91.51,150.82,91.45z M152.83,93.61c0,0.01-0.27-0.08-0.31-0.12
			c-0.04-0.04,0.06-0.19,0.08-0.2c0.02-0.02,0.04-0.02,0.06,0.02C152.68,93.34,152.8,93.55,152.83,93.61z M152.34,92.89
			c0.2-0.18,0.17,0.1,0.13,0.2c-0.03,0.16-0.29,0.35-0.44,0.36c-0.15,0.01-0.6,0.04-0.8-0.01c0,0,0-0.01,0.01-0.04
			C151.86,93.27,152.09,93.13,152.34,92.89z M153.53,91.69c0.01,0.07,0.05,0.84-0.13,0.7c-0.18-0.15-0.16-1.03-0.31-1.34
			C153.06,90.99,153.53,91.62,153.53,91.69z M152.76,90.99c0.09,0.1,0.33,0.92,0.18,0.75c-0.15-0.17-0.59-1.09-0.85-1.34
			C152.33,90.41,152.67,90.9,152.76,90.99z M158.99,102.78c-0.35,0.26-0.69,0.33-1.22,0.29c-0.53-0.04-1.34-0.14-1.94-0.28
			c-0.6-0.14-1.55-0.25-2.02-0.57c-0.47-0.32-0.52-0.57-0.77-0.99c0.05,0.15,0.05,0.44-0.09,0.51s-0.2-0.3-0.23-0.39
			c-0.03-0.09-0.17-0.45-0.29-0.37c-0.12,0.08-0.01,0.26-0.01,0.37c-0.13-0.15-0.2-0.24-0.3-0.45c-0.1-0.21-0.42-0.14-0.5,0.03
			c-0.05,0.1-0.02,0.31-0.01,0.46c0.1,0.11,0.21,0.22,0.31,0.25c0.21,0.07,0.26,0.07,0.45,0.08c0,0.25,0.02,0.51,0.21,0.69
			c0.19,0.18,0.42,0.02,0.62,0.18c0.17,0.12,0.32,0.38,0.63,0.49c0.31,0.12,1.1,0.45,1.38,0.48c0.28,0.04,0.3,0.04,0.46,0.06
			c0.15,0.03,0.8-0.09,0.74,0.11c-0.06,0.21-0.77,0.31-1.05,0.3c-0.27-0.01-0.68,0-0.96,0.01c-0.02-0.21-0.17-0.23-0.42-0.21
			c-0.26,0.01-0.85-0.05-1.09-0.26c-0.24-0.21-0.43-0.28-0.67-0.42c0.11-0.07,0.26-0.07,0.16-0.3c-0.1-0.23-0.56-0.48-0.8-0.65
			c-0.19-0.13-0.4-0.54-0.47-0.8c-0.13,0.01-0.26,0.01-0.37-0.11c-0.17-0.2-0.25-0.61-0.08-0.9c0.18-0.29,0.57-0.28,0.89-0.37
			c0.32-0.09,0.35-0.52,0.28-0.98c-0.07-0.46,0.44-1.06,1.01-1.15c0.57-0.09,0.24-0.65,0.54-0.94c0.3-0.29,0.72-0.85,0.75-1.13
			c0.1-0.87-0.34-1.07-0.97-1.25c0.34-0.59,1.08-0.9,1.66-0.94s0.5-0.48,0.56-0.89c1.49,1.77,3.01,3.54,4.46,5.34
			c-0.48,0.55-0.71,0.96-0.74,1.75c-0.03,0.79-0.47,0.65,0.18,1.62C159.41,101.7,159.34,102.52,158.99,102.78z M160.46,101.67
			c-0.37,0.22-0.9-0.17-1.01-0.37c-0.11-0.2-0.1-0.4-0.02-0.45c0.2-0.13,0.58,0.03,0.72-0.31c0.15-0.33-0.01-0.57-0.51-0.65
			c-0.5-0.09,0.08-1.41,0.39-1.6c0.45,0.55,1.4,1.42,1.5,2.11C161.64,101.09,160.83,101.46,160.46,101.67z"/>
		<path class="st9" d="M159.07,99.84c0.03-0.79,0.26-1.21,0.74-1.75c-1.45-1.8-2.97-3.57-4.46-5.34c-0.06,0.42,0.02,0.85-0.56,0.89
			s-1.31,0.35-1.66,0.94c0.63,0.19,1.07,0.38,0.97,1.25c-0.03,0.28-0.45,0.84-0.75,1.13c-0.3,0.29,0.03,0.85-0.54,0.94
			c-0.57,0.09-1.08,0.69-1.01,1.15c0.07,0.46,0.04,0.88-0.28,0.98c-0.32,0.09-0.71,0.08-0.89,0.37c-0.18,0.29-0.1,0.7,0.08,0.9
			c0.1,0.12,0.24,0.12,0.37,0.11c0.06,0.27,0.28,0.67,0.47,0.8c0.24,0.17,0.7,0.42,0.8,0.65c0.1,0.23-0.05,0.23-0.16,0.3
			c0.24,0.14,0.43,0.21,0.67,0.42c0.24,0.21,0.83,0.28,1.09,0.26c0.26-0.01,0.4,0.01,0.42,0.21c0.28-0.01,0.69-0.02,0.96-0.01
			c0.27,0.01,0.99-0.1,1.05-0.3c0.06-0.21-0.58-0.09-0.74-0.11c-0.15-0.03-0.17-0.03-0.46-0.06c-0.28-0.04-1.07-0.37-1.38-0.48
			c-0.31-0.12-0.46-0.37-0.63-0.49c-0.21-0.15-0.44,0-0.62-0.18c-0.19-0.18-0.21-0.44-0.21-0.69c-0.18-0.02-0.24-0.01-0.45-0.08
			c-0.1-0.03-0.21-0.14-0.31-0.25c-0.01-0.15-0.04-0.36,0.01-0.46c0.08-0.17,0.4-0.24,0.5-0.03c0.1,0.21,0.17,0.29,0.3,0.45
			c-0.01-0.11-0.11-0.29,0.01-0.37c0.12-0.08,0.26,0.28,0.29,0.37c0.03,0.09,0.09,0.45,0.23,0.39s0.14-0.35,0.09-0.51
			c0.25,0.42,0.3,0.67,0.77,0.99c0.47,0.32,1.42,0.43,2.02,0.57c0.6,0.14,1.41,0.23,1.94,0.28c0.53,0.04,0.87-0.03,1.22-0.29
			c0.35-0.26,0.42-1.09,0.26-1.32C158.6,100.49,159.04,100.64,159.07,99.84z"/>
		<path class="st8" d="M159.64,99.89c0.5,0.09,0.66,0.32,0.51,0.65c-0.15,0.33-0.52,0.18-0.72,0.31c-0.08,0.05-0.09,0.25,0.02,0.45
			c0.11,0.2,0.63,0.59,1.01,0.37c0.37-0.22,1.18-0.58,1.08-1.27c-0.11-0.69-1.06-1.56-1.5-2.11
			C159.73,98.48,159.15,99.81,159.64,99.89z"/>
		<path class="st8" d="M150.97,93.21c0.06,0.01,0.13,0,0.16,0c0.26-0.06,0.48-0.44,0.23-0.43c-0.25,0.02-0.64-0.05-0.63-0.36
			c0-0.04,0.01-0.08,0.01-0.12c0,0-0.01,0-0.01,0c-0.19,0.06-0.39-0.06-0.3-0.32c0.08-0.21,0.44-0.31,0.6-0.19c0,0,0,0,0,0
			c0.2-0.04,0.03-0.38-0.22-0.34c-0.37,0.05-0.67,0.36-0.65,0.82C150.19,92.74,150.47,93.16,150.97,93.21z"/>
		<path class="st7" d="M150.44,91.99c-0.09,0.26,0.11,0.38,0.3,0.32c0,0,0.01,0,0.01,0c0.19-0.06,0.43-0.18,0.36-0.42
			c-0.01-0.04-0.04-0.07-0.07-0.09C150.88,91.68,150.52,91.78,150.44,91.99z"/>
		<path class="st7" d="M150.67,93.41c-0.66-0.33-0.84-0.78-0.95-1.3c-0.01-0.06-0.12,0.01-0.14,0.16c-0.03,0.23,0.1,0.56,0.47,0.88
			C150.26,93.33,150.43,93.36,150.67,93.41z"/>
		<path class="st7" d="M151.23,93.4c-0.01,0.03-0.01,0.04-0.01,0.04c0.2,0.05,0.66,0.02,0.8,0.01c0.15-0.01,0.4-0.2,0.44-0.36
			c0.04-0.1,0.07-0.38-0.13-0.2C152.09,93.13,151.86,93.27,151.23,93.4z"/>
		<path class="st7" d="M152.6,93.29c-0.02,0.02-0.11,0.17-0.08,0.2c0.04,0.04,0.31,0.13,0.31,0.12c-0.03-0.06-0.15-0.27-0.17-0.31
			C152.64,93.27,152.62,93.27,152.6,93.29z"/>
		<path class="st9" d="M152.94,91.74c0.15,0.17-0.09-0.65-0.18-0.75c-0.09-0.1-0.43-0.58-0.67-0.59
			C152.35,90.65,152.79,91.58,152.94,91.74z"/>
		<path class="st9" d="M153.4,92.39c0.18,0.15,0.14-0.63,0.13-0.7c-0.01-0.07-0.47-0.7-0.44-0.64
			C153.24,91.36,153.22,92.24,153.4,92.39z"/>
	</g>
</g>
</svg>
