<?xml version="1.0" encoding="utf-8"?>
<!-- Generator: Adobe Illustrator 27.2.0, SVG Export Plug-In . SVG Version: 6.00 Build 0)  -->
<svg version="1.1" id="Layer_1" xmlns="http://www.w3.org/2000/svg" xmlns:xlink="http://www.w3.org/1999/xlink" x="0px" y="0px"
	 viewBox="0 0 239.35 169.49" style="enable-background:new 0 0 239.35 169.49;" xml:space="preserve">
<style type="text/css">
	.st0{fill:#CE0E2D;}
	.st1{fill:#6F7271;}
</style>
<g>
	<g>
		<path d="M149.01,63.42c1.7-2.48,5.26-9.61,7.68-9.61c2.43,0,0.76,5.07-0.47,7.8c5.07-1.18,5.68-3.84,5.91-5.58
			c0.23-1.74-0.63-4.01-1.87-5c-1.36-1.2-3.42-1.8-6.16-1.8c-4.84,0-7.47,3.66-7.92,4.61C143.76,59.02,147.83,62.88,149.01,63.42z"
			/>
		<path d="M215.32,73.19c0.07-0.43,0.1-0.92,0.1-1.47c0-0.37-0.04-0.73-0.13-1.07l4.55-5.33c0.69-0.81,0.85-1.95,0.4-2.92
			c-0.45-0.97-1.41-1.59-2.48-1.59h-7.83c-0.53,0-1.06,0.16-1.5,0.45l-0.35,0.23c-0.49-0.43-1.13-0.68-1.8-0.68h-7.85
			c-0.52,0-1.03,0.15-1.46,0.42c-0.43-0.27-0.93-0.42-1.46-0.42h-1.28c-0.65,0-1.28,0.23-1.78,0.66l-6.95,5.95
			c-2.17,0-7.44-0.01-14.73-0.03c-0.2-0.18-0.42-0.37-0.66-0.59c-0.58-0.51-1.24-1.15-1.83-1.88c0.74-0.6,1.42-1.28,2.01-2.04
			c0.04-0.05,0.08-0.11,0.12-0.16c1.28-1.8,1.98-4.18,2.08-7.07c0-0.05,0-0.11,0-0.16c0-2.33-0.6-4.57-1.79-6.68
			c-0.21-0.38-0.45-0.74-0.69-1.1c0.73-1.07-0.14,0.42,0.74-0.34c1.06-0.92,1.12,0.39,1.42,0.65c0.82-0.13,0.88-0.43,1.91-0.24
			c1.03,0.19,2.21,0.22,3.45-0.28c1.24-0.5,3.74,0.32,4.86,0.44c1.12,0.12,1.15-0.1,2.06-0.1c-0.28,0.45-0.44,0.89-0.85,1.22
			c0.83,0.03,1.42,0.11,2.28-0.13c0.86-0.23,2.37-0.21,3.07,0.35c0.7,0.56,0.45,0.99,0.72,1.67c0.27-0.34,0.75-0.92,1.24-0.75
			c0.48,0.17,0.34,0.75,0.4,1.13c0.51-0.36,1.08-1.07,1.78-0.83c0.7,0.24,0.6,1.17,0.67,1.76c0.42-0.24,0.74-0.67,1.26-0.75
			c0.98-0.15,1.22,0.69,1.16,1.53c1.41-0.72,1.9-1.44,3.72-1.52c1.82-0.08,4.92,0.48,6.71,0.93c0.18,0.05,0.36,0.08,0.54,0.13
			c-0.05,0.03-0.11,0.05-0.16,0.09c0.35,0.19,0.61,0.3,0.95,0.6c0.34,0.3,1.18,0.39,1.55,0.37c0.36-0.02,0.57,0.01,0.6,0.3
			c0.4-0.01,0.98-0.03,1.36-0.02c0.39,0.01,1.4-0.14,1.49-0.43c0.01-0.05-0.01-0.08-0.04-0.11c0.78-0.01,1.41-0.2,1.88-0.85
			c0.04,0,0.1,0.01,0.14,0.01c0.73,0.06,1.2-0.04,1.68-0.38c0.3-0.06,0.58-0.15,0.8-0.32c0.54-0.41,0.73-0.65,0.96-1.21
			c0.13,0,0.26-0.02,0.38-0.09c0.41-0.24,1.18-0.61,1.45-1.21c0.84-0.15,1.47-0.34,0.59-2.34c-1.55-3.5-6.8-7.95-9.07-11.52
			c-2.27-3.57-3.34-6.01-6.71-8.94c-2.14-1.87-5.44-3.7-8.58-5.32c-0.01-0.14-0.03-0.27-0.04-0.37c-0.03-0.2-0.08,0.01-0.14,0.27
			c-0.06-0.03-0.13-0.07-0.19-0.1c0.02-0.28,0.05-0.58,0.06-0.8c0.02-0.46-0.11-1.9-0.25-2.21c-0.14-0.31-0.03,0.86-0.14,0.59
			c-0.11-0.27-0.14-1.31-0.19-1.62c-0.04-0.31-0.11-0.84-0.23-0.89c-0.12-0.06,0.12,1.05-0.03,0.61s-0.46-1.62-0.61-1.96
			s0.06,0.69-0.07,0.54c-0.13-0.15-0.25-0.91-0.35-1.06s-0.1,0.39-0.12,0.37c-0.05-0.19-0.05-0.67-0.14-0.81s-0.09,0.47-0.18,0.44
			c-0.09-0.03-0.03-0.37-0.08-0.46c-0.05-0.09-0.12,0.27-0.19,0.17c-0.07-0.1,0.08-0.63,0.09-0.75c0.01-0.12-0.28,0.54-0.34,0.5
			c-0.06-0.03,0.01-0.31,0-0.38s-0.24,0.2-0.3,0.19c-0.06,0,0.17-0.32,0.1-0.34c-0.08-0.02-0.36,0.33-0.45,0.32s0.11-0.36,0.12-0.4
			c-0.33,0.11-0.74,0.65-0.93,0.81c-0.19,0.16,0.07-0.24,0-0.27c-0.07-0.03-0.59,0.43-0.72,0.63c-0.13,0.2-0.35,0.96-0.49,1.12
			c-0.14,0.16,0.05-0.54-0.11-0.43c-0.16,0.11-0.26,0.67-0.26,0.97c0,0.3-0.34-0.45-0.36-0.41c-0.2,0.34-0.34,0.66-0.43,0.99
			c-0.01,0-0.03-0.01-0.04-0.04c-0.09-0.28,0.38-1.38,0.24-1.66c-0.14-0.28-0.15,0.72-0.29,0.41c-0.15-0.31,0.09-1.61,0.09-2.02
			c0.01-0.41-0.16-1.42-0.4-1.5c-0.24-0.08,0,1.56-0.26,1.29c-0.26-0.27-0.46-2.3-0.65-2.77c-0.18-0.48-0.63-1.72-0.89-1.76
			s0.33,1.39,0.05,1.21c-0.28-0.18-0.75-1.23-0.98-1.43s-0.75-0.83-0.87-0.77s0.06,0.59-0.09,0.54c-0.15-0.04-0.26-0.62-0.44-0.6
			c-0.17,0.02,0,0.61-0.2,0.61c-0.21,0-0.72-0.72-0.91-0.68c-0.19,0.04,0.02,0.64-0.1,0.67c-0.13,0.03-0.36-0.46-0.46-0.36
			s0.34,0.72,0.18,0.75c-0.16,0.04-0.33-0.48-0.48-0.47c-0.15,0.01-0.02,0.38-0.11,0.35s-0.11-0.31-0.23-0.26
			c-0.12,0.05-0.11,0.32-0.21,0.35c-0.1,0.02,0-0.38-0.15-0.23c-0.15,0.15-0.38,0.93-0.54,1.03s0.1-0.36-0.04-0.31
			c-0.13,0.06-0.15,0.29-0.28,0.35c-0.13,0.05,0.14-0.26-0.1-0.16s-0.88,0.83-0.99,1.13c-0.11,0.31-0.28,0.91-0.45,1.01
			c-0.17,0.1,0.22-0.55-0.01-0.39c-0.22,0.16-0.47,1.03-0.56,1.27c-0.09,0.24-0.01-0.45-0.2-0.24c-0.06,0.06-0.11,0.19-0.16,0.34
			c-2.81-1.5-1.85-1.57-3.93-3.15c0.11,0.58-0.13,1,0.02,1.54c-1.36-0.36-2.23-0.53-3.44-1.47c-1.2-0.94-2.68-2.33-4.04-3.18
			c0.01,0.53,1.06,1.52-0.35,1.26c-1.41-0.26-3.15-0.93-4.38-2.08c-1.24-1.14-2.72-2.53-4.16-3.45c-0.09,0.56,0.63,0.97-0.62,0.74
			s-2.45-0.85-4.12-1.1c-1.67-0.25-4.03-0.65-5.99-1c-1.95-0.35-4.38-0.39-6.37-0.15c0.02,0.67,1.71,0.77-0.39,0.87
			c-2.1,0.11-4.36,0.31-7.03,0.82s-3.95,0.71-7.78,0.76c-3.82,0.04-11.27-0.25-15.93-0.52c-4.65-0.27-12.92-0.3-16.56-0.79
			s-2.52-0.68-5.22-1.14c0.38,0.25,2.07,0.92,0.92,1.31s-3.45-0.14-4.7-0.17c-1.25-0.03-2.05,0.13-3.15,0.45
			c0.21,0.07,1.9,0.23,0.74,0.6c-1.15,0.37-3.47,0.59-4.56,1.15c-1.09,0.57-1.51,1.41-2.53,1.69s-1.84,0.53-2.62,1.09
			c-0.14,0.1,1.64-0.28,0.47,0.39c-1.17,0.66-3.64,0.69-5.06,0.98c-1.42,0.29-2.49,0.88-3.71,1.48c0.51,0.21,1.73,0.23,0.47,0.88
			s-3.23,1.45-4.55,2.23c-1.32,0.78-2.49,1.61-3.66,2.51c0.3,0.13,2.3-0.45,0.87,0.46c-1.43,0.91-3.84,2.63-5.41,3.45
			s-2.55,1.42-3.86,2.39c0.39-0.01,1.55-0.32,0.98,0.52c-0.57,0.84-2.13,1.41-2.91,2.07c-0.78,0.66-1.18,1.37-1.75,2.13
			c0.27-0.14,2.11-1.04,1.22,0.02c-0.89,1.05-2.53,1.89-3.32,3.2s-1.45,3.5-2.2,4.64c-0.76,1.14-1.13,0.95-2.13,1.42
			c0.72,0.56,1.62,0.43,1.32,1.73c-0.3,1.3-1.57,2.89-2.38,4.04c1.36-0.08,1.36,0.39,1.13,1.83s-1.06,4.54-1.96,5.54
			c-0.9,1-0.96,0.51-1.8,1.08c0.62-0.05,1.52-0.35,1.81,0.38c0.28,0.73,0.09,1.53-0.46,2.16c-0.55,0.63-1.42,1.25-2.03,1.84
			c-0.61,0.59-0.99,1.32-1.41,1.98c0.81,0.48,1.15-2.33,1.84-0.21s0.5,4.29-0.3,7.37c-0.12,0.46-0.25,0.98-0.38,1.51
			c-4.01,1.5-8.16,3.13-10.77,4.25c-3.1,1.32-4.66,1.98-4.66,4c0,2.07,1.63,2.7,4.34,3.75c2.09,0.81,5.29,1.94,8.57,3.04
			c-0.69,3.51-1.79,7.36-2.87,9.55c-1.62,3.27-1.98,2.52-4.28,4.24c0.35,1.04,0.69,2.35,0.53,3.49s-0.86,1.65-1.59,2.37
			c0.13,1,0.37,1.18,0.16,2.36s0.13,3.5,0.79,4.56c0.66,1.06,0.92,2.36,1.16,3.29c0.24,0.93,0.58,1.62-0.39,1.65
			c0.67,1,0.91,1.49,2.02,2.3c1.11,0.81,2.3,2.54,3.57,3.35c1.26,0.81,2.71,0.99,4.14,1.31c1.43,0.33,3.22,0.13,4.55-0.03
			s2.73-0.25,3.79-0.35s0.87-1.04,1.55-1.32s0.75,0.06,1.3,0.26c0.13-0.52,0.09-0.94-0.2-1.41c0.55-0.09,1-0.13,1.54,0.09
			c-0.82-1.12-1.22-1.58-2.62-2.29c-1.39-0.7-3.92-0.88-5.55-0.7c-0.89,0.1-1.15-0.13-1.92-0.49s-1.78-1.49-1.74-2.31
			c0.04-0.83,0.83-0.03,1.09,0.1c0.44-1.08,0.4-1.63,0.02-2.84c-0.39-1.21-0.95-2.84-1.11-4.19c0.82,0.93,1.53,1.87,2.14,2.97
			c0.25-1.23,0.46-2.38,0.48-3.66c0.01-1.28,1.86-2.25,2.87-1.89c1.01,0.36,0.53,1.28,0.99,1.95c0.17-1.13,0.29-2.28,1.04-3.19
			c0.75-0.91,1.84-1.39,2.45-2.4s1.8-2.14,2.78-2.44c0.99-0.3,0.74,0.01,1.06,0.58c0.64-0.71,1.28-1.11,1.62-2.12
			s0.73-2.01,1.61-2.89c0.88-0.88,1.84-2.56,2.11-3.65c0.27-1.09,0.21,1.71,0.24,1.86c0.69-1.07,1.32-2.04,1.7-3.33
			c0.38-1.29,0.36-3.35,0.51-4.55c0.15-1.2,0.26-1.22,1.02-1.95c0.1-0.1,0.2-0.21,0.31-0.31h1.64c0.02,0.43,0.05,0.86,0.12,1.29
			c0.49-0.29,1.1-1.69,1.82-0.89c0.72,0.8-0.38,2.83-0.54,3.83c0.89-0.49,1.68-0.8,2.58-0.1c0.89,0.7,1.4,2.19,1.4,3.15
			c0,0.96-0.29,1.26-0.42,2.07c0.56-0.57,1.29-1.55,2.12-0.75s0.48,2.2,0.28,3.23c1.08-0.5,2.26-0.93,3.3-0.15
			c0.69,0.52,1.17,1.16,1.45,1.9c-0.62,0.87-1.25,1.74-1.84,2.59c-0.02,0.02-0.03,0.05-0.05,0.07c-1.63,2.43-2.91,4.62-3.81,6.55
			c-0.32,0.7-0.48,1.45-0.48,2.22c0,2.56,1.42,4.82,3.64,5.84c0.97,0.5,2.02,0.81,3.15,0.95c0.81,0.09,1.65,0.1,2.42,0.03h1.01
			c1.68,0,3.39-0.05,5.09-0.13c0.09,0.24,0.14,0.48,0.12,0.72c-0.14,1.4,1.66,2.6,2.36,3.46c0.7,0.86-0.34,0.51-0.76,0.68
			c0.94,0.54,0.74,0.59,2.02,0.99c1.28,0.4,2.59,3.26,4.62,3.26c2.06,0,4.5-0.02,7.06-0.02c2.53,0,6.64,0.06,9.08-0.02
			c0.97-0.03,1.49-0.17,1.84-0.4c3.82-0.41,7.53-1.45,11.06-3.09c4.33-2.02,8.2-4.72,11.55-8.01c0.82,1.34,1.67,2.65,2.19,3.55
			c1.02,1.76,2.46,3.18,3.32,4.55c0.87,1.37,1.9,2.57,3.46,2.74c1.57,0.17,3.36,0.08,4.79,0.15c1.43,0.07,3.11,0.08,4.23,0.12
			c1.11,0.04,1.32-0.05,2.2-0.12s1.36-0.43,2.02-0.93c0.35-0.26,0.82-0.09,1.16,0.08c0.12-0.59-0.01-1.07-0.33-1.58
			c0.46-0.17,0.82-0.26,1.3-0.04c-0.31-1.12-0.47-1.54-1.53-2.31c-1.06-0.76-3.36-1.31-4.57-1.6c-1.21-0.3-1.43-0.29-2.4-0.95
			c-0.97-0.66-0.96-0.68-1.97-2.04c-0.55-0.74-1.13-1.85-1.62-3.08c0.17,0.08,0.32,0.17,0.49,0.24c2.62,1.18,5.53,1.78,8.63,1.78
			c2.87,0,5.68-0.5,8.33-1.48c2.67-0.98,5.07-2.41,7.14-4.25c2.15-1.86,3.89-4.09,5.15-6.59c0.15-0.29,0.29-0.59,0.43-0.89
			c0.45,0.24,0.85,0.3,1.41,0.34c0.63,0.04,0.58,1.25,0.88,1.58s2.61-0.25,2.26,0.19c-0.36,0.45-1.24,1.1-1.54,1.53
			c-0.07,0.1,0.51-0.32,0.56,0c0.06,0.33-0.55,0.72-0.52,0.87c0.04,0.2,0.4-0.07,0.41,0.38s-0.08,0.92,0.06,1.45
			c0.14,0.53,0.76,0.8,0.94,1.43c0.18,0.63-0.12,0.9,0.34,1.67c0.46,0.77,1.11,2.01,1.95,2.81c0.84,0.8,1.41,0.96,2.26,1.15
			c0.86,0.18,0.3,0.52,0.57,0.89c0.56-0.09,0.75-0.3,1.31-0.6c0.56-0.31,2.11,0.87,2.21,1.56c0.44-0.53,0.84-0.48,0.98-1.31
			c0.14-0.83,0.23-1.58-0.23-2.52c-0.46-0.94,0.12-1.54-0.25-2.84c-0.37-1.3-0.42-2.81-0.27-4.42c0.15-1.62-0.9-1.39-0.02-3.62
			c0.87-2.23,0.61-6.77,0.13-9.63s-2.71-5.56-4.24-7.14c-0.13-0.13-0.24-0.24-0.35-0.36h4.98l6.92,5.96
			c0.5,0.43,1.13,0.66,1.78,0.66h7.59c0.51,0,1-0.14,1.42-0.4c0.43,0.26,0.92,0.4,1.42,0.4h13.31c1.09,0,2.12-0.67,2.55-1.67
			c0.82-1.89-0.29-3.13-3.59-6.81C216.64,74.62,215.91,73.82,215.32,73.19z M218.41,81.19c-0.91,0-13.31,0-13.31,0l-4.47-3.23
			l1.63,3.23h-7.59l-7.68-6.62h-22.05c2.97,4.32,3.63,8.79,3.63,10.89c0,3.5,0.53,18.31-18.12,18.31
			c-13.21,0-15.87-13.18-16.04-13.84c-0.23,0.62-0.47,1.23-0.74,1.84c-1.9,4.09-4.46,7.73-7.63,10.82
			c-3.08,3.15-6.71,5.72-10.79,7.62c-4.09,1.91-8.46,2.96-12.97,2.87c-12.12-0.24-12.37-6.89-1.45-5.63
			c12.65,0,17.16-8.22,18.9-10.5c1.66-2.33,2.99-4.92,3.93-7.68c0.94-2.82,1.45-5.83,1.52-8.92c0.04-2-0.12-3.93-0.46-5.78h-17.53
			h-8.21c-1.25,1.87-2.6,3.73-4.04,5.53c-1.57,2.01-3.17,4.01-4.77,5.93c-1.55,1.93-3.04,3.82-4.48,5.65
			c-1.04,1.42-1.97,2.83-2.77,4.21c0.42-0.09,11.32,0.29,17.42,0.29c16.62,0,11.5-7.55,10.91-8.13c-0.78-0.89-3.94-3.57-1.32-6.43
			c2.44-2.07,5.51-0.46,6.42,0.35c0.82,0.78,1.47,1.71,1.96,2.77c0.53,1.09,0.88,2.27,1.01,3.47c0.2,1.18,0.25,2.25,0.15,3.17
			l-0.04,0.37c-0.19,1.84-0.9,3.67-2.13,5.44c-1.27,1.9-2.72,3.45-4.31,4.57c-1.04,0.79-2.26,1.43-3.6,1.88
			c-1.38,0.37-2.76,0.67-4.14,0.9c-0.98,0.11-1.95,0.17-2.9,0.17c-0.5,0-30.24-0.36-30.83-0.43c-0.57-0.07-1.11-0.24-1.6-0.51
			c-0.31-0.12-0.95-0.53-0.95-1.56c0-0.08,0.02-0.17,0.05-0.25c0.79-1.67,1.95-3.66,3.46-5.91c1.56-2.23,3.25-4.57,5.05-6.97
			c1.86-2.46,3.74-4.98,5.66-7.55c1.77-2.37,3.4-4.71,4.88-6.96h-48.2c0,0,3.37,4.84,2.92,5.34c-0.45,0.5-21.92-6.73-21.92-7.37
			s21.56-8.84,21.92-8.48c0.36,0.35-3.45,5.85-3,5.85c0.18,0,23.3,0.04,51.13,0.09c0.5-0.89,0.97-1.76,1.37-2.6
			c1.03-2.09,1.56-3.9,1.56-5.41c0-0.87-0.22-1.74-0.65-2.56c-0.45-0.91-1.04-1.68-1.75-2.31c-0.69-0.72-1.5-1.27-2.44-1.7
			c-0.93-0.42-1.83-0.63-2.68-0.63c-1.56,0-2.88,0.26-3.91,0.79c-1,0.48-1.8,1.08-2.4,1.81c-0.64,0.72-1.18,1.52-1.64,2.38
			c-0.4,0.88-0.79,1.76-1.15,2.61c-0.32,0.79-0.66,1.45-1.05,2c-0.48,0.68-1.16,1.05-1.98,1.05c-1.31,0-2.2-0.59-2.59-1.71
			c-0.32-0.93-0.46-1.87-0.39-2.8c0-2.05,0.44-3.98,1.32-5.71c0.8-1.71,1.94-3.22,3.38-4.47c1.49-1.3,3.19-2.32,5.05-3.03
			c1.86-0.71,3.88-1.07,5.99-1.07c2.45,0,4.73,0.33,6.76,0.98c2.05,0.66,3.85,1.62,5.34,2.87c0.98,0.82,1.81,1.79,2.53,2.9
			c0.32-2.02,2.92-17.16,3.28-18.36c0.33-1.32,1.22-2.26,2.57-2.68c1.38-0.46,14.32-0.25,18-0.25c4.44,0,5.65-1.26,7.17-1.47
			c2.28-0.31,2.7,1.25,2.31,2.84c-0.13,0.54-3.68,8.91-3.96,9.33c-0.2,0.3-0.58,0.41-0.91,0.28c-1.35-0.54-1.89-3.39-4.58-3.39
			c-2.77,0-7.73-0.06-11.68-0.06c0,0-1.24,8.37-1.28,8.85c5.68,1.88,10.6,4.15,12.73,5.79c3.89,3.04,6.79,6.7,8.63,10.88
			c0.69,1.59,1.24,3.24,1.67,4.94c2.24,0,4.44,0.01,6.61,0.01c0.22-0.21,0.4-0.36,0.51-0.44c0.6-0.4-5.94-3.73-5.94-12.64
			c0-1.14,1.43-14.07,16.2-14.07c8.5,0,13.81,6.31,13.81,12.17c0,9-11.01,11-11.35,11.77c2.13,0.92,3.92,2.03,5.43,3.23
			c15.3,0.03,25.73,0.04,25.73,0.04l7.72-6.61h1.28l-2.1,3.82h1.28l3.74-3.82h7.85L205,66.79l4.94-3.25h7.83l-6.06,7.09
			c0,0,0.98-0.15,0.98,1.08s-0.07,1.99-0.62,1.99C212.07,73.7,219.1,81.19,218.41,81.19z"/>
		<path d="M120.46,64.62c-1.59-2.06-3.6-3.7-5.97-4.89c-2.31-1.19-5.05-1.79-8.17-1.79c-0.86,0-1.65-0.04-2.36-0.11
			c-0.18-0.02-0.36-0.05-0.54-0.07c0.26,1.23,0.38,2.54,0.35,3.97c-0.06,2.06-0.5,4.15-1.3,6.2c-0.29,0.69-0.61,1.38-0.94,2.07
			c7.26,0.01,14.67,0.03,21.95,0.04C122.71,68.01,121.71,66.18,120.46,64.62z"/>
		<path d="M137.01,74.56h-0.7c0.1,0.99,0.17,1.99,0.19,3c-0.04-0.52,0.7-1.71,1.69-3H137.01z"/>
		<path d="M151.61,74.56h-0.78c-4.73,0.32-8.5,6.4-8.5,11.18c0,4.91,3.98,10.3,8.9,10.3s8.9-5.38,8.9-10.3
			C160.12,80.96,156.34,74.89,151.61,74.56z"/>
		<path class="st0" d="M212.69,71.72c0-1.23-0.98-1.08-0.98-1.08l6.06-7.09h-7.83L205,66.79l1.28-3.25h-7.85l-3.74,3.82h-1.28
			l2.1-3.82h-1.28l-7.72,6.61c0,0-10.43-0.02-25.73-0.04c1.74,1.39,3.08,2.91,4.14,4.46h22.05l7.68,6.62h7.59l-1.63-3.23l4.47,3.23
			c0,0,12.4,0,13.31,0c0.68,0-6.34-7.48-6.34-7.48C212.62,73.7,212.69,72.95,212.69,71.72z"/>
		<path class="st0" d="M151.61,74.56c-0.13-0.01-0.26-0.03-0.39-0.03s-0.26,0.02-0.39,0.03H151.61z"/>
		<path class="st0" d="M90.92,69.98c-27.83-0.05-50.95-0.09-51.13-0.09c-0.46,0,3.36-5.5,3-5.85c-0.36-0.35-21.92,7.85-21.92,8.48
			s21.47,7.87,21.92,7.37c0.45-0.5-2.92-5.34-2.92-5.34h48.2c0.1-0.16,0.21-0.31,0.31-0.47C89.33,72.68,90.18,71.31,90.92,69.98z"/>
		<path class="st1" d="M160.79,70.1c-1.51-1.21-3.3-2.31-5.43-3.23c0.34-0.78,11.35-2.77,11.35-11.77c0-5.87-5.31-12.17-13.81-12.17
			c-14.77,0-16.2,12.93-16.2,14.07c0,8.9,6.54,12.24,5.94,12.64c-0.12,0.08-0.3,0.23-0.51,0.44c-0.93,0.88-2.65,2.78-3.95,4.49
			c-0.99,1.3-1.73,2.48-1.69,3c-0.02-1.02-0.09-2.02-0.19-3h-11.6c0.34,1.86,0.5,3.79,0.46,5.78c-0.07,3.09-0.58,6.09-1.52,8.92
			c-0.94,2.76-2.27,5.35-3.93,7.68c-1.74,2.28-6.24,10.5-18.9,10.5c-10.92-1.26-10.66,5.39,1.45,5.63
			c4.52,0.09,8.88-0.97,12.97-2.87c4.07-1.9,7.71-4.47,10.79-7.62c3.16-3.09,5.72-6.73,7.63-10.82c0.27-0.61,0.51-1.22,0.74-1.84
			c0.17,0.66,2.84,13.84,16.04,13.84c18.65,0,18.12-14.82,18.12-18.31c0-2.1-0.66-6.57-3.63-10.89
			C163.87,73.02,162.53,71.49,160.79,70.1z M160.12,85.74c0,4.91-3.98,10.3-8.9,10.3s-8.9-5.38-8.9-10.3
			c0-4.78,3.77-10.85,8.5-11.18c0.13-0.01,0.26-0.03,0.39-0.03s0.26,0.02,0.39,0.03C156.34,74.89,160.12,80.96,160.12,85.74z
			 M154.1,49.23c2.74,0,4.8,0.6,6.16,1.8c1.24,0.99,2.1,3.26,1.87,5c-0.23,1.74-0.84,4.4-5.91,5.58c1.23-2.73,2.9-7.8,0.47-7.8
			c-2.42,0-5.98,7.13-7.68,9.61c-1.18-0.54-5.25-4.4-2.82-9.58C146.63,52.89,149.26,49.23,154.1,49.23z"/>
		<path class="st1" d="M101.53,70c0.34-0.69,0.66-1.39,0.94-2.07c0.8-2.05,1.23-4.14,1.3-6.2c0.03-1.43-0.09-2.74-0.35-3.97
			c0.18,0.02,0.36,0.06,0.54,0.07c0.71,0.07,1.5,0.11,2.36,0.11c3.11,0,5.86,0.6,8.17,1.79c2.37,1.19,4.38,2.83,5.97,4.89
			c1.25,1.57,2.26,3.39,3.02,5.42c0,0,0,0.01,0,0.01l12.05,0.02c0,0,0,0,0-0.01c-0.42-1.71-0.97-3.36-1.67-4.94
			c-1.84-4.18-4.74-7.84-8.63-10.88c-2.13-1.64-7.05-3.91-12.73-5.79c0.04-0.48,1.28-8.85,1.28-8.85c3.94,0,8.91,0.06,11.68,0.06
			c2.69,0,3.23,2.84,4.58,3.39c0.33,0.13,0.71,0.01,0.91-0.28c0.28-0.42,3.82-8.79,3.96-9.33c0.39-1.59-0.02-3.15-2.31-2.84
			c-1.52,0.21-2.72,1.47-7.17,1.47c-3.68,0-16.62-0.21-18,0.25c-1.35,0.42-2.24,1.36-2.57,2.68c-0.35,1.2-2.96,16.34-3.28,18.36
			c-0.72-1.1-1.55-2.08-2.53-2.9c-1.49-1.25-3.29-2.21-5.34-2.87c-2.04-0.65-4.31-0.98-6.76-0.98c-2.11,0-4.13,0.36-5.99,1.07
			c-1.86,0.71-3.56,1.73-5.05,3.03c-1.44,1.25-2.57,2.76-3.38,4.47c-0.88,1.73-1.32,3.67-1.32,5.71c-0.07,0.93,0.07,1.87,0.39,2.8
			c0.39,1.12,1.29,1.71,2.59,1.71c0.82,0,1.5-0.36,1.98-1.05c0.39-0.55,0.73-1.21,1.05-2c0.36-0.85,0.74-1.73,1.15-2.61
			c0.45-0.87,1-1.66,1.64-2.38c0.6-0.72,1.4-1.33,2.4-1.81c1.04-0.52,2.35-0.79,3.91-0.79c0.85,0,1.76,0.21,2.68,0.63
			c0.94,0.42,1.75,0.98,2.44,1.7c0.71,0.63,1.3,1.4,1.75,2.31c0.43,0.83,0.65,1.69,0.65,2.56c0,1.51-0.52,3.32-1.56,5.41
			c-0.4,0.84-0.87,1.71-1.37,2.6c-0.75,1.32-1.59,2.69-2.54,4.11c-0.1,0.15-0.21,0.31-0.31,0.47c-1.48,2.25-3.11,4.59-4.88,6.96
			c-1.92,2.57-3.8,5.09-5.66,7.55c-1.79,2.4-3.49,4.74-5.05,6.97c-1.51,2.25-2.67,4.24-3.46,5.91c-0.04,0.08-0.05,0.16-0.05,0.25
			c0,1.02,0.64,1.43,0.95,1.56c0.49,0.27,1.03,0.44,1.6,0.51c0.59,0.06,30.33,0.43,30.83,0.43c0.96,0,1.92-0.06,2.9-0.17
			c1.38-0.23,2.76-0.53,4.14-0.9c1.34-0.45,2.56-1.08,3.6-1.88c1.59-1.13,3.04-2.67,4.31-4.57c1.22-1.77,1.94-3.61,2.13-5.44
			l0.04-0.37c0.1-0.92,0.04-1.99-0.15-3.17c-0.14-1.2-0.48-2.38-1.01-3.47c-0.49-1.06-1.14-1.99-1.96-2.77
			c-0.91-0.81-3.98-2.42-6.42-0.35c-2.62,2.86,0.54,5.54,1.32,6.43c0.59,0.58,5.72,8.13-10.91,8.13c-6.11,0-17.01-0.37-17.42-0.29
			c0.8-1.37,1.73-2.79,2.77-4.21c1.43-1.83,2.93-3.71,4.48-5.65c1.59-1.92,3.2-3.91,4.77-5.93c1.45-1.81,2.79-3.66,4.04-5.53
			c0.1-0.15,0.21-0.3,0.31-0.45C100.12,72.74,100.87,71.37,101.53,70z"/>
		<path class="st0" d="M136.32,74.56h0.7h1.18c1.3-1.71,3.01-3.61,3.95-4.49c-2.17,0-4.37-0.01-6.61-0.01c0,0,0,0,0,0.01
			l-12.05-0.02c0,0,0-0.01,0-0.01c-7.28-0.01-14.69-0.03-21.95-0.04c-0.66,1.36-1.41,2.74-2.25,4.11c-0.1,0.15-0.21,0.3-0.31,0.45
			h8.21h17.53H136.32z"/>
	</g>
	<g>
		<path d="M9.31,120c0.77,0,1.52,0.1,2.26,0.31c0.74,0.17,1.5,0.4,2.26,0.26c1.1-0.2,1.32-1.02,2.17-0.69
			c0.85,0.33,1.6,4.2,1.9,5.02c0.13,0.35,0.04,0.63-0.6,0.36c-0.65-0.27-2.36-0.96-3.47-1.34c-1.14-0.41-2.38-0.62-3.72-0.62
			c-1.04,0-1.89,0.31-2.56,0.93c-0.7,0.65-1.11,1.51-1.11,2.58c0,3.36,7.4,7.99,8.12,8.59c1.94,1.63,7.96,6.12,3.95,14.36
			c-2.71,5.57-8.57,6.26-10,6.19c-1.82-0.09-4.12-0.83-4.73-0.83s-1.29,1.47-1.66,0.41c-0.37-1.06-1.42-4.02-2.08-6.12
			c-0.27-0.74,1.11,0.43,1.58,0.7c0.47,0.28,1.01,0.6,1.61,0.98c0.6,0.31,1.27,0.6,2.01,0.88c0.74,0.28,1.61,0.41,2.61,0.41
			c2.01,0,3.62-0.57,4.83-1.7c1.17-1.13,1.86-2.77,1.86-4.9c0-7.91-13.12-10.36-13.12-18.82c0-1.1,0.27-2.08,0.7-2.94
			c0.43-0.86,1.02-1.6,1.76-2.22c0.77-0.58,1.61-1.03,2.51-1.34C7.33,120.15,8.3,120,9.31,120z"/>
		<path d="M67.42,148.6c-0.29,0.24-0.67,0.37-1.01,0.6c-0.37,0.17-0.74,0.34-1.11,0.5c-0.37,0.17-0.8,0.25-1.31,0.25
			c-0.78,0-6.11-0.06-8.42-0.06c-0.58,0-1.08-0.3-1.21-0.92c-0.02-0.17-0.04-0.35-0.04-0.52c0-0.02,0-0.03,0-0.05
			c0-0.71,0-7.34,0-13.47c0-0.27,0.39-0.48,0.62-0.55c0.3-0.1,3.59-0.06,4.42-0.06c2.01,0,3.14,1.3,3.37,1.47
			c0.23,0.17,0.45,0.25,0.65,0.25c0.33,0,0.65-0.25,0.96-0.75c0.33-0.5,0.6-1.09,0.8-1.76c0.2-0.67,0.37-1.32,0.5-1.96
			c0.13-0.64,0.2-1.11,0.2-1.41c0.03-0.48-1.25,0.75-7.64,0.75c-1.51,0-2.48,0-3.25,0c-0.4,0-0.54-0.25-0.64-0.45
			c0-2.27,0-4.16,0-5.22c0-0.78,0.55-1.32,2.68-1.32c2.74,0,4.09-0.06,4.83,0.07c0.74,0.17,3.13,0.84,3.57,1.01
			c0.44,0.13,0.69,0.2,0.75,0.2c0.27,0,0.47-0.1,0.6-0.3c0.13-0.23,0.2-0.47,0.2-0.7c0-0.2-1.88-4.51-2.76-4.78
			c-0.81-0.24-0.87,0.55-2.76,0.55c-1.56,0-4.28,0-5.52,0h-8.3c-0.44,0-0.7,0.5-0.45,0.86c0.79,1.12,2.04,3.1,2.04,4.45
			c0,1.97,0,21.15,0,23.52c0,1.52-1.1,3.15-1.89,4.12c-0.29,0.36-0.03,0.89,0.43,0.89c0,0,13.09,0,13.73,0
			c4.15,0,5.18,2.25,5.48,1.46c0.1-0.2,2.02-5.72,2.06-5.88C69.19,148.72,69.03,147.25,67.42,148.6z"/>
		<path d="M44.27,120.89c0.29-0.36,0.04-0.89-0.43-0.89h-8.3c-0.44,0-0.7,0.5-0.45,0.86c0.79,1.12,2.04,3.1,2.04,4.45
			c0,0.5,0,3.1,0,5.26c-2.88-0.25-5.76-0.24-8.64,0c0-2.08,0-4.66,0-5.3c0-1.64,1.18-3.37,2.02-4.38c0.29-0.36,0.04-0.89-0.43-0.89
			h-8.3c-0.44,0-0.7,0.5-0.45,0.86c0.79,1.12,2.04,3.1,2.04,4.45c0,1.97,0,21.15,0,23.52c0,1.52-1.1,3.15-1.89,4.12
			c-0.29,0.36-0.03,0.89,0.43,0.89h7.95c0.45,0,0.71-0.51,0.44-0.86c-0.74-1.01-1.81-2.76-1.81-4.51c0-1.47,0-7.53,0-13.12
			c2.88-0.21,5.76-0.21,8.64,0c0,5.81,0,12.2,0,13.5c0,1.52-1.1,3.15-1.89,4.12c-0.29,0.36-0.03,0.89,0.43,0.89h7.95
			c0.45,0,0.71-0.51,0.44-0.86c-0.74-1.01-1.81-2.76-1.81-4.51c0-2.69,0-20.65,0-23.18C42.26,123.63,43.44,121.9,44.27,120.89z"/>
		<path d="M167.79,134.67c-0.17-1.55-0.46-3.06-0.86-4.51c-0.44-1.49-1-2.89-1.67-4.21c-0.68-1.32-1.5-2.47-2.48-3.45
			c-1.01-1.01-2.2-1.83-3.55-2.43c-1.32-0.57-2.84-0.86-4.56-0.86c-1.32,0-2.62,0.14-3.9,0.41c-1.29,0.24-1.55,0.32-3.59,0.39h-1.03
			c-0.44,0-0.7,0.5-0.45,0.86c0.79,1.12,2.04,3.1,2.04,4.45v23.52c0,1.52-1.1,3.15-1.89,4.12c-0.29,0.36-0.03,0.89,0.43,0.89h7.95
			c0.45,0,0.71-0.51,0.44-0.86c-0.74-1.01-1.81-2.76-1.81-4.51v-23.18c0-0.8,0.14-1.29,0.31-1.55c1.1-1.34,3-0.51,3.95-0.01
			c0.95,0.51,1.76,1.2,2.43,2.08c0.71,0.88,1.28,1.86,1.72,2.94c0.44,1.12,0.78,2.26,1.01,3.45c0.3,1.18,0.49,2.37,0.56,3.55
			c0.1,1.15,0.15,2.21,0.15,3.19c-0.03,1.93-0.27,3.94-0.71,6.03c-0.44,2.06-1.15,3.97-2.13,5.73c-0.95,1.69-2.21,3.09-3.8,4.21
			c-1.59,1.12-3.57,1.67-5.93,1.67c-0.81,0-1.62-0.08-2.43-0.25c-0.81-0.2-1.54-0.51-2.18-0.91c-0.64-0.44-1.15-0.98-1.52-1.62
			c-0.41-0.64-0.61-1.42-0.61-2.33c0-0.61,0.24-1.1,0.71-1.47c0.44-0.41,1.86-1.48,0.96-2.69c-0.48-0.67-1.68-1.08-2.89-0.2
			c-0.44,0.34-0.81,0.76-1.12,1.27c-0.34,0.54-0.58,1.12-0.71,1.72c-0.17,0.61-0.25,1.15-0.25,1.62v0.2c0,0.95,0.27,1.91,0.81,2.89
			c0.57,1.08,1.25,1.96,2.03,2.64c0.51,0.47,1.1,0.86,1.77,1.17c0.71,0.27,1.44,0.51,2.18,0.71c0.78,0.17,1.55,0.27,2.33,0.3
			c0.78,0.07,1.5,0.1,2.18,0.1c2.87,0,5.34-0.63,7.4-1.88c2.03-1.22,3.7-2.81,5.02-4.77c1.32-1.99,2.3-4.21,2.94-6.64
			c0.61-2.43,0.93-4.88,0.96-7.35v-0.71C168,137.19,167.93,135.95,167.79,134.67z"/>
		<path d="M239.23,120.89c0.29-0.36,0.04-0.89-0.43-0.89h-8.3c-0.44,0-0.7,0.5-0.45,0.86c0.79,1.12,2.04,3.1,2.04,4.45
			c0,0.5,0,2.11,0,4.27c-2.88-0.25-5.76-0.24-8.64,0c0-2.08,0-3.68,0-4.31c0-1.64,1.18-3.37,2.02-4.38
			c0.29-0.36,0.04-0.89-0.43-0.89h-8.3c-0.44,0-0.7,0.5-0.45,0.86c0.79,1.12,2.04,3.1,2.04,4.45c0,1.97,0,21.15,0,23.52
			c0,1.52-1.1,3.15-1.89,4.12c-0.29,0.36-0.03,0.89,0.43,0.89h7.95c0.45,0,0.71-0.51,0.44-0.86c-0.74-1.01-1.81-2.76-1.81-4.51
			c0-1.47,0-7.53,0-13.12c2.88-0.21,5.76-0.21,8.64,0c0,5.81,0,12.2,0,13.5c0,1.52-1.1,3.15-1.89,4.12
			c-0.29,0.36-0.03,0.89,0.43,0.89h7.95c0.45,0,0.71-0.51,0.44-0.86c-0.74-1.01-1.81-2.76-1.81-4.51c0-2.69,0-20.65,0-23.18
			C237.21,123.63,238.4,121.9,239.23,120.89z"/>
		<path d="M94.23,120.89c0.29-0.36,0.04-0.89-0.43-0.89h-8.3c-0.44,0-0.7,0.5-0.45,0.86c0.79,1.12,2.04,3.1,2.04,4.45
			c0,0.91,0,5.52,0,10.44c-0.99-1.48-6.7-6.81-7.74-8.54c-0.85-1.41-1.04-2.81-1.05-2.93c0.33-1.31,1.21-2.58,1.88-3.39
			c0.29-0.36,0.04-0.89-0.43-0.89h-8.3c-0.44,0-0.7,0.5-0.45,0.86c0.79,1.12,2.04,3.1,2.04,4.45c0,1.97,0,21.15,0,23.52
			c0,1.52-1.1,3.15-1.89,4.12c-0.29,0.36-0.03,0.89,0.43,0.89h7.95c0.45,0,0.71-0.51,0.44-0.86c-0.74-1.01-1.81-2.76-1.81-4.51
			c0-1.63,0-8.84,0-14.85c1.4,1.91,4.97,5.55,6.7,7.68c1.42,1.75,2.01,3.73,2.23,4.78c0,1.34,0,2.34,0,2.77
			c0,1.52-1.1,3.15-1.89,4.12c-0.29,0.36-0.03,0.89,0.43,0.89h7.95c0.45,0,0.71-0.51,0.44-0.86c-0.74-1.01-1.81-2.76-1.81-4.51
			c0-2.69,0-20.65,0-23.18C92.21,123.63,93.39,121.9,94.23,120.89z"/>
		<path d="M119.05,120.84c0.29-0.36,0.04-0.89-0.43-0.89h-8.3c-0.01,0-0.02,0.01-0.04,0.01c-2.66,0-5.92-0.01-6.41-0.01
			c-1.81,0-3.13-0.79-3.84-0.79c-0.3,0-0.57,0.18-0.8,0.55c-0.27,0.37-1.3,3.73-1.36,3.92c-0.12,0.44,0.11,0.91,0.45,1.01
			c0.35,0.09,0.59-0.1,0.96-0.3c1.12-0.62,2.36-1.06,2.97-1.26c0.54-0.15,1.76-0.38,3.34-0.11c-0.68,1.08-1.84,3.27-3.74,7.71
			c-3.54,8.25-4.44,16.21-4.77,17.87c0,0.02,0.01,0.03,0.01,0.05c0,0,0,0-0.01,0c0,0-0.24,2.04-1.89,4.34
			c-0.27,0.37-0.03,0.89,0.43,0.89h7.95c0.45,0,0.71-0.51,0.44-0.86c-0.74-1.01-1.81-2.76-1.81-4.51v-0.16c0,0-0.01,0-0.01,0
			c0-0.02,0.01-0.03,0.01-0.05c-0.11-1.22,1.14-7.87,1.46-8.64c0.31-0.77,1.53-1.1,3.63-0.28c2.1,0.83,4.64,0.75,4.64,0.75
			c0,4.13,0,7.75,0,8.69c0,1.52-1.1,3.15-1.89,4.12c-0.29,0.36-0.03,0.89,0.43,0.89h7.95c0.45,0,0.71-0.51,0.44-0.86
			c-0.74-1.01-1.81-2.76-1.81-4.51c0-2.69,0-20.65,0-23.18C117.03,123.58,118.22,121.85,119.05,120.84z M107.72,135.01
			c-1.12-0.33-2.7-0.82-2.7-0.82s3.69-10.63,5.71-10.66c0.86-0.01,1.1,0.85,1.14,1c0.03,0.23,0.05,0.46,0.05,0.72
			c0,0.87,0,5.05,0,9.67C111.59,136.01,108.84,135.34,107.72,135.01z"/>
		<path d="M192.85,125.22c0,2.53,0,20.49,0,23.18c0,1.75-1.07,3.51-1.81,4.51c-0.26,0.36,0,0.86,0.44,0.86h7.95
			c0.46,0,0.72-0.53,0.43-0.89c-0.79-0.97-1.89-2.6-1.89-4.12c0-0.94,0-4.56,0-8.69c0,0,2.54,0.08,4.64-0.75
			c2.1-0.83,3.32-0.49,3.63,0.28c0.31,0.77,1.57,7.41,1.46,8.64c0,0.02,0.01,0.03,0.01,0.05c0,0-0.01,0-0.01,0v0.16
			c0,1.75-1.07,3.51-1.81,4.51c-0.26,0.36,0,0.86,0.44,0.86h7.95c0.46,0,0.69-0.51,0.43-0.89c-1.65-2.3-1.89-4.34-1.89-4.34
			c0,0,0,0-0.01,0c0-0.02,0.01-0.03,0.01-0.05c-0.33-1.67-1.23-9.62-4.77-17.87c-1.9-4.44-3.07-6.63-3.74-7.71
			c1.59-0.26,4.15,0.25,4.68,0.4c0.6,0.2,1.84,0.63,2.97,1.26c0.37,0.2,0.61,0.39,0.96,0.3c0.35-0.09,0.57-0.57,0.45-1.01
			c-0.05-0.19-1.09-3.55-1.36-3.92c-0.23-0.37-0.5-0.55-0.8-0.55c-0.71,0-3.37,0.5-5.18,0.5c-0.49,0-3.75,0.01-6.41,0.01
			c-0.01,0-0.02-0.01-0.04-0.01h-8.3c-0.46,0-0.72,0.53-0.43,0.89C191.66,121.85,192.85,123.58,192.85,125.22z M197.96,134.92
			c0-4.62,0-8.8,0-9.67c0-0.26,0.02-0.49,0.05-0.72c0.04-0.15,0.28-1.02,1.14-1c2.02,0.03,5.71,10.66,5.71,10.66
			s-1.58,0.49-2.7,0.82C201.04,135.34,198.3,136.01,197.96,134.92z"/>
		<path d="M180.34,154.53c-6.03,0-10.92-6.11-10.92-17.66s4.89-17.66,10.92-17.66s10.92,6.3,10.92,17.66
			C191.26,148.23,186.37,154.53,180.34,154.53z M185.92,136.87c0-8.91-2.5-13.85-5.58-13.85c-3.08,0-5.58,4.79-5.58,13.85
			s2.5,13.85,5.58,13.85C183.42,150.72,185.92,145.78,185.92,136.87z"/>
		<path d="M139.45,151.91v-0.2c0-0.56,0.1-1.19,0.29-1.87c0.14-0.66,0.42-1.34,0.82-1.96c0.26-0.44,0.59-0.81,0.96-1.16v-21.45
			c0-1.64,1.18-3.37,2.02-4.38c0.29-0.36,0.04-0.89-0.43-0.89h-8.3c-0.44,0-0.7,0.5-0.45,0.86c0.79,1.12,2.04,3.1,2.04,4.45v10.44
			c-0.99-1.48-6.7-6.81-7.74-8.54c-0.85-1.41-1.04-2.81-1.05-2.93c0.33-1.31,1.21-2.58,1.88-3.39c0.29-0.36,0.04-0.89-0.43-0.89
			h-8.3c-0.44,0-0.7,0.5-0.45,0.86c0.79,1.12,2.04,3.1,2.04,4.45v23.52c0,1.52-1.1,3.15-1.89,4.12c-0.29,0.36-0.03,0.89,0.43,0.89
			h7.95c0.45,0,0.71-0.51,0.44-0.86c-0.74-1.01-1.81-2.76-1.81-4.51V133.6c1.4,1.91,4.97,5.55,6.7,7.68
			c1.42,1.75,2.01,3.73,2.23,4.78v2.77c0,1.52-1.1,3.15-1.89,4.12c-0.29,0.36-0.03,0.89,0.43,0.89h4.84
			C139.57,153.19,139.45,152.54,139.45,151.91z"/>
	</g>
	<g>
		<path class="st0" d="M26.23,162.13c2.1,0,3.69,1.59,3.69,3.63c0,2.09-1.58,3.73-3.69,3.73s-3.69-1.63-3.69-3.73
			C22.54,163.73,24.12,162.13,26.23,162.13z M26.23,168.34c1.28,0,2.34-1.11,2.34-2.58c0-1.4-1.05-2.48-2.34-2.48
			s-2.33,1.07-2.33,2.48C23.89,167.22,24.95,168.34,26.23,168.34z"/>
		<path class="st0" d="M35.19,168.39h0.85v-5.14h-0.85v-0.99h3.14c0.52,0,0.95,0.03,1.35,0.15c0.79,0.26,1.31,0.9,1.31,1.9
			c0,0.99-0.52,1.69-1.34,1.97v0.02c0,0,0.21,0.11,0.35,0.37l0.82,1.48c0.1,0.18,0.24,0.23,0.48,0.23h0.23v0.98H40.7
			c-0.59,0-0.77-0.12-0.99-0.53L38.7,167c-0.15-0.27-0.28-0.36-0.69-0.36h-0.65v1.74h0.82v0.98h-2.99V168.39z M38.54,165.59
			c0.69,0,1.14-0.41,1.14-1.17c0-0.46-0.17-0.82-0.56-0.98c-0.2-0.09-0.47-0.13-0.8-0.13h-0.96v2.28H38.54z"/>
		<path class="st0" d="M46.73,168.39h0.85v-5.14h-0.85v-0.99h3.08c0.57,0,1.02,0.03,1.48,0.17c1.38,0.41,2.3,1.63,2.3,3.39
			c0,1.68-0.85,2.9-2.2,3.35c-0.48,0.17-0.98,0.21-1.57,0.21h-3.09V168.39z M49.76,168.31c0.45,0,0.81-0.04,1.16-0.18
			c0.81-0.33,1.32-1.16,1.32-2.33c0-1.2-0.54-2.02-1.37-2.35c-0.36-0.14-0.69-0.16-1.11-0.16H48.9v5.01H49.76z"/>
		<path class="st0" d="M58.92,168.39h0.85v-5.14h-0.85v-0.99h5.28v1.83h-1.12v-0.78h-1.99v1.95h2.35v1.05h-2.35v2h2.14v-0.8h1.12
			v1.85h-5.43V168.39z"/>
		<path class="st0" d="M69.74,168.39h0.85v-5.14h-0.85v-0.99h3.14c0.52,0,0.95,0.03,1.35,0.15c0.79,0.26,1.31,0.9,1.31,1.9
			c0,0.99-0.52,1.69-1.34,1.97v0.02c0,0,0.21,0.11,0.35,0.37l0.82,1.48c0.1,0.18,0.24,0.23,0.48,0.23h0.23v0.98h-0.83
			c-0.59,0-0.77-0.12-0.99-0.53L73.25,167c-0.15-0.27-0.28-0.36-0.69-0.36h-0.65v1.74h0.82v0.98h-2.99V168.39z M73.09,165.59
			c0.69,0,1.14-0.41,1.14-1.17c0-0.46-0.17-0.82-0.56-0.98c-0.2-0.09-0.47-0.13-0.8-0.13h-0.96v2.28H73.09z"/>
		<path class="st0" d="M91.86,162.13c2.1,0,3.69,1.59,3.69,3.63c0,2.09-1.58,3.73-3.69,3.73c-2.1,0-3.69-1.63-3.69-3.73
			C88.17,163.73,89.76,162.13,91.86,162.13z M91.86,168.34c1.28,0,2.34-1.11,2.34-2.58c0-1.4-1.05-2.48-2.34-2.48
			c-1.28,0-2.33,1.07-2.33,2.48C89.53,167.22,90.58,168.34,91.86,168.34z"/>
		<path class="st0" d="M100.82,168.39h0.85v-5.14h-0.85v-0.99h5.08v1.84h-1.12v-0.73h-1.79v2.04h2.32v1.05h-2.32v1.92h0.94v0.98
			h-3.11V168.39z"/>
		<path class="st0" d="M119.41,168.39h0.85v-5.08h-1.34v1.07h-1.11v-2.12h6.23v2.12h-1.11v-1.07h-1.35v5.08h0.86v0.98h-3.03V168.39z
			"/>
		<path class="st0" d="M129.22,168.39h0.85v-5.14h-0.85v-0.99h3.03v0.99h-0.86v2.05h3.24v-2.05h-0.86v-0.99h3.03v0.99h-0.85v5.14
			h0.85v0.98h-3.03v-0.98h0.86v-2.03h-3.24v2.03h0.86v0.98h-3.03V168.39z"/>
		<path class="st0" d="M142.2,168.39h0.85v-5.14h-0.85v-0.99h5.28v1.83h-1.12v-0.78h-1.99v1.95h2.35v1.05h-2.35v2h2.14v-0.8h1.12
			v1.85h-5.43V168.39z"/>
		<path class="st0" d="M159.56,168.39h0.65l2.13-6.13h1.49l2.13,6.13h0.65v0.98h-2.68v-0.98h0.7l-0.44-1.33h-2.24l-0.44,1.33h0.7
			v0.98h-2.67V168.39z M163.91,166.03l-0.67-2.01c-0.11-0.35-0.13-0.62-0.13-0.62h-0.03c0,0-0.03,0.27-0.13,0.62l-0.68,2.01H163.91z
			"/>
		<path class="st0" d="M171.65,168.39h0.85v-5.14h-0.85v-0.99h3.14c0.52,0,0.95,0.03,1.35,0.15c0.79,0.26,1.31,0.9,1.31,1.9
			c0,0.99-0.52,1.69-1.34,1.97v0.02c0,0,0.21,0.11,0.35,0.37l0.82,1.48c0.1,0.18,0.24,0.23,0.48,0.23H178v0.98h-0.83
			c-0.59,0-0.77-0.12-0.99-0.53l-1.01-1.83c-0.15-0.27-0.28-0.36-0.69-0.36h-0.65v1.74h0.82v0.98h-2.99V168.39z M175,165.59
			c0.69,0,1.14-0.41,1.14-1.17c0-0.46-0.17-0.82-0.56-0.98c-0.2-0.09-0.47-0.13-0.8-0.13h-0.96v2.28H175z"/>
		<path class="st0" d="M183.2,168.39h0.85v-5.14h-0.85v-0.99h3.14c0.52,0,0.95,0.03,1.35,0.15c0.79,0.26,1.31,0.9,1.31,1.9
			c0,0.99-0.52,1.69-1.34,1.97v0.02c0,0,0.21,0.11,0.35,0.37l0.82,1.48c0.1,0.18,0.24,0.23,0.48,0.23h0.23v0.98h-0.83
			c-0.59,0-0.77-0.12-0.99-0.53l-1.01-1.83c-0.15-0.27-0.28-0.36-0.69-0.36h-0.65v1.74h0.82v0.98h-2.99V168.39z M186.55,165.59
			c0.69,0,1.14-0.41,1.14-1.17c0-0.46-0.17-0.82-0.56-0.98c-0.2-0.09-0.47-0.13-0.8-0.13h-0.96v2.28H186.55z"/>
		<path class="st0" d="M198.33,162.13c2.1,0,3.69,1.59,3.69,3.63c0,2.09-1.58,3.73-3.69,3.73c-2.1,0-3.69-1.63-3.69-3.73
			C194.64,163.73,196.23,162.13,198.33,162.13z M198.33,168.34c1.28,0,2.34-1.11,2.34-2.58c0-1.4-1.05-2.48-2.34-2.48
			c-1.28,0-2.34,1.07-2.34,2.48C196,167.22,197.05,168.34,198.33,168.34z"/>
		<path class="st0" d="M206.9,162.25h2.78v0.99h-0.83l0.92,4.06c0.06,0.29,0.08,0.62,0.08,0.62h0.04c0,0,0.03-0.33,0.11-0.62
			l1.33-5.05h1.05l1.33,5.05c0.08,0.29,0.11,0.62,0.11,0.62h0.04c0,0,0.02-0.33,0.08-0.62l0.92-4.06h-0.83v-0.99h2.78v0.99h-0.65
			l-1.51,6.12h-1.47l-1.19-4.49c-0.08-0.29-0.11-0.65-0.11-0.65h-0.03c0,0-0.03,0.36-0.11,0.65l-1.19,4.49h-1.47l-1.51-6.12h-0.65
			V162.25z"/>
	</g>
</g>
</svg>
