<?xml version="1.0" encoding="utf-8"?>
<!-- Generator: Adobe Illustrator 27.2.0, SVG Export Plug-In . SVG Version: 6.00 Build 0)  -->
<svg version="1.1" id="Layer_1" xmlns="http://www.w3.org/2000/svg" xmlns:xlink="http://www.w3.org/1999/xlink" x="0px" y="0px"
	 viewBox="0 0 253.97 164.69" style="enable-background:new 0 0 253.97 164.69;" xml:space="preserve">
<style type="text/css">
	.st0{fill:#FFFFFF;}
</style>
<g>
	<g>
		<g>
			<path class="st0" d="M38.82,157.99c1.92,0,3.36,1.45,3.36,3.3c0,1.91-1.44,3.39-3.36,3.39c-1.92,0-3.36-1.49-3.36-3.39
				C35.47,159.44,36.91,157.99,38.82,157.99z M38.82,163.64c1.17,0,2.13-1.01,2.13-2.34c0-1.28-0.96-2.25-2.13-2.25
				s-2.13,0.98-2.13,2.25C36.7,162.63,37.65,163.64,38.82,163.64z"/>
			<path class="st0" d="M46.98,163.69h0.78v-4.68h-0.78v-0.9h2.86c0.47,0,0.87,0.03,1.23,0.14c0.72,0.24,1.2,0.82,1.2,1.73
				c0,0.9-0.47,1.54-1.22,1.8v0.02c0,0,0.19,0.1,0.32,0.34l0.75,1.35c0.09,0.16,0.22,0.21,0.44,0.21h0.21v0.89H52
				c-0.54,0-0.7-0.11-0.9-0.48l-0.92-1.67c-0.14-0.25-0.26-0.33-0.63-0.33h-0.59v1.59h0.75v0.89h-2.72V163.69z M50.03,161.14
				c0.63,0,1.04-0.37,1.04-1.07c0-0.42-0.16-0.75-0.51-0.89c-0.18-0.08-0.43-0.12-0.73-0.12h-0.88v2.08H50.03z"/>
			<path class="st0" d="M57.49,163.69h0.78v-4.68h-0.78v-0.9h2.8c0.52,0,0.93,0.03,1.35,0.16c1.26,0.37,2.1,1.49,2.1,3.08
				c0,1.53-0.78,2.64-2.01,3.05c-0.44,0.16-0.89,0.19-1.43,0.19h-2.81V163.69z M60.24,163.62c0.41,0,0.74-0.04,1.06-0.16
				c0.74-0.3,1.2-1.06,1.2-2.12c0-1.09-0.49-1.84-1.25-2.13c-0.33-0.13-0.63-0.15-1.01-0.15h-0.78v4.56H60.24z"/>
			<path class="st0" d="M68.58,163.69h0.78v-4.68h-0.78v-0.9h4.81v1.67h-1.02v-0.71h-1.82v1.78h2.13v0.96h-2.13v1.82h1.95v-0.73
				h1.02v1.69h-4.94V163.69z"/>
			<path class="st0" d="M78.43,163.69h0.78v-4.68h-0.78v-0.9h2.86c0.47,0,0.87,0.03,1.23,0.14c0.72,0.24,1.2,0.82,1.2,1.73
				c0,0.9-0.47,1.54-1.22,1.8v0.02c0,0,0.19,0.1,0.32,0.34l0.75,1.35c0.09,0.16,0.22,0.21,0.44,0.21h0.21v0.89h-0.76
				c-0.54,0-0.7-0.11-0.9-0.48l-0.92-1.67c-0.14-0.25-0.26-0.33-0.63-0.33h-0.59v1.59h0.75v0.89h-2.72V163.69z M81.48,161.14
				c0.63,0,1.04-0.37,1.04-1.07c0-0.42-0.16-0.75-0.51-0.89c-0.18-0.08-0.43-0.12-0.73-0.12h-0.88v2.08H81.48z"/>
			<path class="st0" d="M98.57,157.99c1.92,0,3.36,1.45,3.36,3.3c0,1.91-1.44,3.39-3.36,3.39c-1.92,0-3.36-1.49-3.36-3.39
				C95.21,159.44,96.65,157.99,98.57,157.99z M98.57,163.64c1.17,0,2.13-1.01,2.13-2.34c0-1.28-0.96-2.25-2.13-2.25
				c-1.17,0-2.13,0.98-2.13,2.25C96.44,162.63,97.4,163.64,98.57,163.64z"/>
			<path class="st0" d="M106.73,163.69h0.78v-4.68h-0.78v-0.9h4.63v1.68h-1.02v-0.67h-1.63v1.86h2.11v0.96h-2.11v1.75h0.86v0.89
				h-2.83V163.69z"/>
			<path class="st0" d="M123.65,163.69h0.78v-4.63h-1.22v0.98h-1.01v-1.93h5.67v1.93h-1.01v-0.98h-1.23v4.63h0.78v0.89h-2.76V163.69
				z"/>
			<path class="st0" d="M132.58,163.69h0.78v-4.68h-0.78v-0.9h2.76v0.9h-0.78v1.87h2.95v-1.87h-0.78v-0.9h2.76v0.9h-0.78v4.68h0.78
				v0.89h-2.76v-0.89h0.78v-1.85h-2.95v1.85h0.78v0.89h-2.76V163.69z"/>
			<path class="st0" d="M144.39,163.69h0.78v-4.68h-0.78v-0.9h4.81v1.67h-1.02v-0.71h-1.82v1.78h2.13v0.96h-2.13v1.82h1.95v-0.73
				h1.02v1.69h-4.94V163.69z"/>
			<path class="st0" d="M160.2,163.69h0.59l1.94-5.58h1.36l1.94,5.58h0.59v0.89h-2.44v-0.89h0.64l-0.4-1.21h-2.04l-0.4,1.21h0.64
				v0.89h-2.43V163.69z M164.15,161.54l-0.61-1.83c-0.1-0.32-0.12-0.57-0.12-0.57h-0.03c0,0-0.03,0.25-0.12,0.57l-0.62,1.83H164.15z
				"/>
			<path class="st0" d="M171.21,163.69h0.78v-4.68h-0.78v-0.9h2.86c0.47,0,0.87,0.03,1.23,0.14c0.72,0.24,1.2,0.82,1.2,1.73
				c0,0.9-0.47,1.54-1.22,1.8v0.02c0,0,0.19,0.1,0.32,0.34l0.75,1.35c0.09,0.16,0.22,0.21,0.44,0.21h0.21v0.89h-0.76
				c-0.54,0-0.7-0.11-0.9-0.48l-0.92-1.67c-0.14-0.25-0.26-0.33-0.63-0.33h-0.59v1.59h0.75v0.89h-2.72V163.69z M174.25,161.14
				c0.63,0,1.04-0.37,1.04-1.07c0-0.42-0.15-0.75-0.51-0.89c-0.18-0.08-0.43-0.12-0.73-0.12h-0.88v2.08H174.25z"/>
			<path class="st0" d="M181.72,163.69h0.78v-4.68h-0.78v-0.9h2.86c0.47,0,0.87,0.03,1.23,0.14c0.72,0.24,1.2,0.82,1.2,1.73
				c0,0.9-0.47,1.54-1.22,1.8v0.02c0,0,0.19,0.1,0.32,0.34l0.75,1.35c0.09,0.16,0.22,0.21,0.44,0.21h0.21v0.89h-0.76
				c-0.54,0-0.7-0.11-0.9-0.48l-0.92-1.67c-0.14-0.25-0.26-0.33-0.63-0.33h-0.59v1.59h0.75v0.89h-2.72V163.69z M184.76,161.14
				c0.63,0,1.04-0.37,1.04-1.07c0-0.42-0.16-0.75-0.51-0.89c-0.18-0.08-0.43-0.12-0.73-0.12h-0.88v2.08H184.76z"/>
			<path class="st0" d="M195.49,157.99c1.92,0,3.36,1.45,3.36,3.3c0,1.91-1.44,3.39-3.36,3.39c-1.92,0-3.36-1.49-3.36-3.39
				C192.14,159.44,193.58,157.99,195.49,157.99z M195.49,163.64c1.17,0,2.13-1.01,2.13-2.34c0-1.28-0.96-2.25-2.13-2.25
				s-2.13,0.98-2.13,2.25C193.37,162.63,194.32,163.64,195.49,163.64z"/>
			<path class="st0" d="M203.29,158.1h2.53v0.9h-0.76l0.84,3.69c0.05,0.26,0.07,0.57,0.07,0.57h0.04c0,0,0.03-0.3,0.1-0.57l1.21-4.6
				h0.96l1.21,4.6c0.07,0.26,0.1,0.57,0.1,0.57h0.04c0,0,0.02-0.3,0.07-0.57l0.84-3.69h-0.76v-0.9h2.53v0.9h-0.59l-1.38,5.57H209
				l-1.09-4.09c-0.07-0.26-0.1-0.59-0.1-0.59h-0.03c0,0-0.03,0.33-0.1,0.59l-1.09,4.09h-1.34l-1.38-5.57h-0.59V158.1z"/>
		</g>
		<g>
			<path class="st0" d="M42.34,126.75c0.57,0,1.13,0.08,1.67,0.23c0.54,0.13,1.11,0.29,1.67,0.19c0.81-0.15,0.97-0.76,1.6-0.51
				s1.18,3.1,1.41,3.71c0.09,0.26,0.03,0.47-0.45,0.27c-0.48-0.2-1.75-0.71-2.56-0.99c-0.84-0.3-1.76-0.46-2.75-0.46
				c-0.77,0-1.4,0.23-1.89,0.69c-0.52,0.48-0.82,1.12-0.82,1.91c0,2.48,5.47,5.9,6,6.35c1.43,1.21,5.88,4.52,2.92,10.61
				c-2,4.11-6.33,4.63-7.39,4.57c-1.35-0.07-3.04-0.61-3.49-0.61s-0.95,1.09-1.23,0.3s-1.05-2.97-1.54-4.52
				c-0.2-0.55,0.82,0.32,1.17,0.52c0.35,0.2,0.74,0.44,1.19,0.72c0.45,0.23,0.94,0.44,1.49,0.65c0.54,0.2,1.19,0.31,1.93,0.31
				c1.49,0,2.67-0.42,3.57-1.26c0.87-0.84,1.37-2.04,1.37-3.62c0-5.84-9.69-7.66-9.69-13.91c0-0.81,0.2-1.54,0.52-2.17
				c0.32-0.63,0.75-1.18,1.3-1.64c0.57-0.43,1.19-0.76,1.86-0.99C40.88,126.86,41.6,126.75,42.34,126.75z"/>
			<path class="st0" d="M85.28,147.88c-0.21,0.18-0.5,0.27-0.74,0.45c-0.27,0.12-0.55,0.25-0.82,0.37
				c-0.27,0.12-0.59,0.19-0.97,0.19c-0.58,0-4.51-0.04-6.22-0.04c-0.43,0-0.8-0.22-0.89-0.68c-0.01-0.13-0.03-0.26-0.03-0.38
				c0-0.01,0-0.02,0-0.03c0-0.52,0-5.43,0-9.95c0-0.2,0.28-0.36,0.46-0.41c0.22-0.07,2.65-0.04,3.27-0.04
				c1.48,0,2.32,0.96,2.49,1.08c0.17,0.12,0.33,0.19,0.48,0.19c0.25,0,0.48-0.19,0.71-0.56c0.25-0.37,0.45-0.8,0.59-1.3
				c0.15-0.5,0.27-0.98,0.37-1.45c0.1-0.47,0.15-0.82,0.15-1.04c0.02-0.36-0.93,0.56-5.65,0.56c-1.11,0-1.83,0-2.4,0
				c-0.3,0-0.4-0.18-0.47-0.33c0-1.67,0-3.07,0-3.85c0-0.58,0.41-0.98,1.98-0.98c2.03,0,3.02-0.04,3.57,0.05
				c0.54,0.12,2.32,0.62,2.64,0.74c0.32,0.1,0.51,0.15,0.56,0.15c0.2,0,0.35-0.07,0.45-0.22c0.1-0.17,0.15-0.35,0.15-0.52
				c0-0.15-1.39-3.33-2.04-3.53c-0.6-0.18-0.64,0.41-2.04,0.41c-1.15,0-3.16,0-4.08,0h-6.13c-0.33,0-0.52,0.37-0.33,0.63
				c0.59,0.83,1.51,2.29,1.51,3.29c0,1.46,0,15.63,0,17.38c0,1.12-0.81,2.32-1.4,3.04c-0.21,0.26-0.02,0.66,0.31,0.66
				c0,0,9.67,0,10.15,0c3.07,0,3.82,1.66,4.05,1.08c0.07-0.15,1.49-4.22,1.52-4.35C86.59,147.97,86.47,146.88,85.28,147.88z"/>
			<path class="st0" d="M68.18,127.4c0.22-0.26,0.03-0.66-0.31-0.66h-6.13c-0.33,0-0.52,0.37-0.33,0.63
				c0.59,0.83,1.51,2.29,1.51,3.29c0,0.37,0,2.29,0,3.89c-2.13-0.18-4.25-0.18-6.38,0c0-1.54,0-3.45,0-3.91
				c0-1.21,0.88-2.49,1.49-3.24c0.22-0.26,0.03-0.66-0.31-0.66h-6.13c-0.33,0-0.52,0.37-0.33,0.63c0.59,0.83,1.51,2.29,1.51,3.29
				c0,1.46,0,15.63,0,17.38c0,1.12-0.81,2.32-1.4,3.04c-0.21,0.26-0.02,0.66,0.31,0.66h5.87c0.33,0,0.52-0.37,0.33-0.64
				c-0.55-0.75-1.34-2.04-1.34-3.34c0-1.09,0-5.56,0-9.7c2.13-0.16,4.26-0.16,6.38,0c0,4.29,0,9.01,0,9.97
				c0,1.12-0.81,2.32-1.4,3.04c-0.21,0.26-0.02,0.66,0.31,0.66h5.87c0.33,0,0.52-0.37,0.33-0.64c-0.55-0.75-1.34-2.04-1.34-3.34
				c0-1.99,0-15.26,0-17.13C66.69,129.43,67.56,128.15,68.18,127.4z"/>
			<path class="st0" d="M159.44,137.58c-0.13-1.15-0.34-2.26-0.64-3.33c-0.33-1.1-0.74-2.14-1.24-3.11
				c-0.5-0.97-1.11-1.82-1.84-2.55c-0.75-0.75-1.62-1.35-2.62-1.8c-0.97-0.42-2.1-0.64-3.37-0.64c-0.97,0-1.94,0.1-2.88,0.3
				c-0.95,0.18-1.15,0.24-2.65,0.29h-0.76c-0.33,0-0.52,0.37-0.33,0.63c0.59,0.83,1.51,2.29,1.51,3.29v17.38
				c0,1.12-0.81,2.32-1.4,3.04c-0.21,0.26-0.02,0.66,0.31,0.66h5.87c0.33,0,0.52-0.37,0.33-0.64c-0.55-0.75-1.34-2.04-1.34-3.34
				v-17.13c0-0.59,0.1-0.95,0.23-1.14c0.82-0.99,2.22-0.38,2.92-0.01c0.7,0.37,1.3,0.89,1.8,1.54c0.52,0.65,0.95,1.37,1.27,2.17
				c0.32,0.82,0.57,1.67,0.75,2.55c0.22,0.87,0.36,1.75,0.41,2.62c0.08,0.85,0.11,1.64,0.11,2.36c-0.03,1.42-0.2,2.91-0.52,4.46
				c-0.33,1.52-0.85,2.93-1.57,4.23c-0.7,1.25-1.64,2.29-2.81,3.11c-1.17,0.82-2.64,1.24-4.38,1.24c-0.6,0-1.2-0.06-1.8-0.19
				c-0.6-0.15-1.14-0.38-1.61-0.67c-0.47-0.33-0.85-0.72-1.12-1.2c-0.3-0.47-0.45-1.05-0.45-1.72c0-0.45,0.17-0.81,0.52-1.09
				c0.32-0.3,1.37-1.09,0.71-1.99c-0.35-0.5-1.24-0.8-2.14-0.15c-0.32,0.25-0.6,0.56-0.82,0.94c-0.25,0.4-0.43,0.82-0.52,1.27
				c-0.13,0.45-0.19,0.85-0.19,1.2v0.15c0,0.7,0.2,1.41,0.6,2.14c0.42,0.8,0.92,1.45,1.5,1.95c0.37,0.35,0.81,0.64,1.31,0.86
				c0.52,0.2,1.06,0.38,1.61,0.52c0.57,0.13,1.15,0.2,1.72,0.23c0.57,0.05,1.11,0.08,1.61,0.08c2.12,0,3.95-0.46,5.47-1.39
				c1.5-0.9,2.73-2.07,3.71-3.52c0.97-1.47,1.7-3.11,2.17-4.91c0.45-1.8,0.69-3.61,0.71-5.43v-0.52
				C159.59,139.44,159.54,138.53,159.44,137.58z"/>
			<path class="st0" d="M212.22,127.4c0.22-0.26,0.03-0.66-0.31-0.66h-6.13c-0.33,0-0.52,0.37-0.33,0.63
				c0.59,0.83,1.51,2.29,1.51,3.29c0,0.37,0,1.56,0,3.16c-2.13-0.18-4.25-0.18-6.38,0c0-1.54,0-2.72,0-3.18
				c0-1.21,0.88-2.49,1.49-3.24c0.22-0.26,0.03-0.66-0.31-0.66h-6.13c-0.33,0-0.52,0.37-0.33,0.63c0.59,0.83,1.51,2.29,1.51,3.29
				c0,1.46,0,15.63,0,17.38c0,1.12-0.81,2.32-1.4,3.04c-0.21,0.26-0.02,0.66,0.31,0.66h5.87c0.33,0,0.52-0.37,0.33-0.64
				c-0.55-0.75-1.34-2.04-1.34-3.34c0-1.09,0-5.56,0-9.7c2.13-0.16,4.26-0.16,6.38,0c0,4.29,0,9.01,0,9.97
				c0,1.12-0.81,2.32-1.4,3.04c-0.21,0.26-0.02,0.66,0.31,0.66h5.87c0.33,0,0.52-0.37,0.33-0.64c-0.55-0.75-1.34-2.04-1.34-3.34
				c0-1.99,0-15.26,0-17.13C210.73,129.43,211.61,128.15,212.22,127.4z"/>
			<path class="st0" d="M105.09,127.4c0.22-0.26,0.03-0.66-0.31-0.66h-6.13c-0.33,0-0.52,0.37-0.33,0.63
				c0.59,0.83,1.51,2.29,1.51,3.29c0,0.68,0,4.08,0,7.71c-0.73-1.09-4.95-5.03-5.72-6.31c-0.63-1.04-0.77-2.07-0.78-2.17
				c0.25-0.97,0.89-1.9,1.39-2.5c0.22-0.26,0.03-0.66-0.31-0.66h-6.13c-0.33,0-0.52,0.37-0.33,0.63c0.59,0.83,1.51,2.29,1.51,3.29
				c0,1.46,0,15.63,0,17.38c0,1.12-0.81,2.32-1.4,3.04c-0.21,0.26-0.02,0.66,0.31,0.66h5.87c0.33,0,0.52-0.37,0.33-0.64
				c-0.55-0.75-1.34-2.04-1.34-3.34c0-1.2,0-6.53,0-10.97c1.04,1.41,3.67,4.1,4.95,5.67c1.05,1.29,1.48,2.75,1.65,3.53
				c0,0.99,0,1.73,0,2.05c0,1.12-0.81,2.32-1.4,3.04c-0.21,0.26-0.02,0.66,0.31,0.66h5.87c0.33,0,0.52-0.37,0.33-0.64
				c-0.55-0.75-1.34-2.04-1.34-3.34c0-1.99,0-15.26,0-17.13C103.6,129.43,104.47,128.15,105.09,127.4z"/>
			<path class="st0" d="M123.43,127.36c0.22-0.26,0.03-0.66-0.31-0.66h-6.13c-0.01,0-0.02,0.01-0.03,0.01
				c-1.97,0-4.38-0.01-4.74-0.01c-1.34,0-2.31-0.58-2.83-0.58c-0.22,0-0.42,0.14-0.59,0.41c-0.2,0.27-0.96,2.75-1,2.9
				c-0.09,0.32,0.08,0.67,0.33,0.74c0.26,0.07,0.43-0.07,0.71-0.22c0.83-0.46,1.75-0.78,2.19-0.93c0.4-0.11,1.3-0.28,2.47-0.08
				c-0.5,0.8-1.36,2.42-2.77,5.7c-2.61,6.1-3.28,11.97-3.52,13.21c0,0.01,0.01,0.02,0.01,0.04c0,0,0,0-0.01,0
				c0,0-0.18,1.51-1.4,3.21c-0.2,0.28-0.02,0.66,0.31,0.66h5.87c0.33,0,0.52-0.37,0.33-0.64c-0.55-0.75-1.34-2.04-1.34-3.34v-0.12
				c0,0,0,0-0.01,0c0-0.01,0.01-0.02,0.01-0.04c-0.08-0.9,0.85-5.82,1.08-6.38c0.23-0.57,1.13-0.82,2.68-0.2
				c1.55,0.61,3.43,0.56,3.43,0.56c0,3.05,0,5.73,0,6.42c0,1.12-0.81,2.32-1.4,3.04c-0.21,0.26-0.02,0.66,0.31,0.66h5.87
				c0.33,0,0.52-0.37,0.33-0.64c-0.55-0.75-1.34-2.04-1.34-3.34c0-1.99,0-15.26,0-17.13C121.94,129.39,122.81,128.11,123.43,127.36z
				 M115.06,137.83c-0.83-0.24-2-0.6-2-0.6s2.73-7.85,4.22-7.88c0.64-0.01,0.82,0.63,0.84,0.74c0.02,0.17,0.04,0.34,0.04,0.53
				c0,0.64,0,3.73,0,7.14C117.91,138.58,115.89,138.08,115.06,137.83z"/>
			<path class="st0" d="M177.95,130.6c0,1.87,0,15.14,0,17.13c0,1.29-0.79,2.59-1.34,3.34c-0.2,0.27,0,0.64,0.33,0.64h5.87
				c0.34,0,0.53-0.39,0.31-0.66c-0.58-0.72-1.4-1.92-1.4-3.04c0-0.7,0-3.37,0-6.42c0,0,1.87,0.06,3.43-0.56
				c1.55-0.61,2.45-0.36,2.68,0.2c0.23,0.57,1.16,5.48,1.08,6.38c0,0.01,0.01,0.03,0.01,0.04c0,0,0,0-0.01,0v0.12
				c0,1.29-0.79,2.59-1.34,3.34c-0.2,0.27,0,0.64,0.33,0.64h5.87c0.34,0,0.51-0.38,0.31-0.66c-1.22-1.7-1.4-3.21-1.4-3.21
				c0,0,0,0-0.01,0c0-0.01,0.01-0.02,0.01-0.04c-0.25-1.23-0.91-7.11-3.52-13.21c-1.41-3.28-2.27-4.9-2.77-5.7
				c1.17-0.19,3.06,0.19,3.46,0.3c0.45,0.15,1.36,0.47,2.19,0.93c0.27,0.15,0.45,0.29,0.71,0.22c0.26-0.07,0.42-0.42,0.33-0.74
				c-0.04-0.14-0.8-2.62-1-2.9c-0.17-0.27-0.37-0.41-0.59-0.41c-0.53,0-2.49,0.37-3.83,0.37c-0.36,0-2.77,0-4.74,0.01
				c-0.01,0-0.02-0.01-0.03-0.01h-6.13c-0.34,0-0.53,0.39-0.31,0.66C177.08,128.11,177.95,129.39,177.95,130.6z M181.73,137.77
				c0-3.41,0-6.5,0-7.14c0-0.19,0.02-0.36,0.04-0.53c0.03-0.11,0.2-0.75,0.84-0.74c1.49,0.02,4.22,7.88,4.22,7.88s-1.17,0.36-2,0.6
				S181.98,138.58,181.73,137.77z"/>
			<path class="st0" d="M168.71,152.26c-4.46,0-8.07-4.51-8.07-13.05c0-8.54,3.61-13.05,8.07-13.05s8.07,4.65,8.07,13.05
				C176.78,147.61,173.17,152.26,168.71,152.26z M172.84,139.21c0-6.59-1.85-10.24-4.12-10.24s-4.12,3.54-4.12,10.24
				s1.85,10.24,4.12,10.24S172.84,145.8,172.84,139.21z"/>
			<path class="st0" d="M138.5,150.32v-0.15c0-0.41,0.07-0.88,0.21-1.38c0.11-0.49,0.31-0.99,0.6-1.45c0.19-0.32,0.44-0.6,0.71-0.85
				v-15.85c0-1.21,0.88-2.49,1.49-3.24c0.22-0.26,0.03-0.66-0.31-0.66h-6.13c-0.33,0-0.52,0.37-0.33,0.63
				c0.59,0.83,1.51,2.29,1.51,3.29v7.71c-0.73-1.09-4.95-5.03-5.72-6.31c-0.63-1.04-0.77-2.07-0.78-2.17
				c0.25-0.97,0.89-1.9,1.39-2.5c0.22-0.26,0.03-0.66-0.31-0.66h-6.13c-0.33,0-0.52,0.37-0.33,0.63c0.59,0.83,1.51,2.29,1.51,3.29
				v17.38c0,1.12-0.81,2.32-1.4,3.04c-0.21,0.26-0.02,0.66,0.31,0.66h5.87c0.33,0,0.52-0.37,0.33-0.64
				c-0.55-0.75-1.34-2.04-1.34-3.34V136.8c1.04,1.41,3.67,4.1,4.95,5.67c1.05,1.29,1.48,2.75,1.65,3.53v2.05
				c0,1.12-0.81,2.32-1.4,3.04c-0.21,0.26-0.02,0.66,0.31,0.66h3.58C138.59,151.27,138.5,150.79,138.5,150.32z"/>
		</g>
	</g>
	<path class="st0" d="M245.76,120.86c0.7,0,0.79-0.97,0.79-2.55c0-1.58-1.26-1.39-1.26-1.39l7.79-9.12h-10.07l-6.35,4.18l1.65-4.18
		h-10.08l-4.81,4.91h-1.64l2.7-4.91h-1.64l-9.92,8.49c0,0-21.24-0.04-49.46-0.09c0.83-0.01,1.11-0.08,1.86-0.18
		c0.86-0.11,1.61-0.35,2.17-1.03c0.44-0.15,0.89-0.19,1.28,0.1c0.16-0.63-0.02-1.16-0.38-1.67c0.46-0.19,0.91-0.33,1.39-0.08
		c-0.2-1.16-0.54-1.63-1.62-2.38c-1.08-0.76-3.83-1.39-5.01-1.56c-1.18-0.16-1.28,0.6-2.17,0.14s-1.14-1.69-1.97-2.7
		s-1.83-4.06-1.81-5.74c0.02-1.68-0.08-4.57,0.01-6.21c0.08-1.65-0.13-2.09,0.55-3.53c0.69-1.44,1.43-3.35,1.4-5.09
		c0.31,0.38,0.47,0.82,0.57,1.3c0.54-1.26,1.13-2.68,1.26-4.04c0.11-1.21,0.02-2.3-0.02-3.46c0.08-0.02,0.16-0.05,0.23-0.07
		c0.34,0.49,0.63,1.01,0.77,1.61c0.1-0.63,0.17-1.26,0.19-1.9c0.67-0.18,1.33-0.3,1.91-0.22c1.3,0.18-1.17,1.31-0.85,1.44
		c0.32,0.12,1.85-1.36,2.41-0.71s-1.26,2.21-1.74,2.64c0.78-0.51,1.84-1.29,2.74-1.37c0.9-0.09,0.65,0.46,0.94,1.03
		c0.68-0.14,1.48-0.35,2.15-0.19s0.67,0.45,1.42,0.66s1.84-0.68,2.7-0.55c0.86,0.14-0.45,2.69-0.91,3.02
		c0.92-0.5,2.51-1.04,3.39-1.15c0.89-0.11,1-0.07,1.74-0.23c-1.18,0.78-2.31,1.51-3.6,2.05c1.23-0.19,2.42-0.47,3.6-0.89
		c-0.89,0.76-1.8,1.51-2.77,2.13c0.63-0.04,3.15,0.13,2.84,0.44c0.53,0.41,1,0.52,1.68,0.62c0.68,0.11,0.5,1.42,0.79,1.79
		c0.29,0.38,2.86-0.02,2.43,0.43c-0.43,0.45-1.45,1.07-1.82,1.51c-0.09,0.1,0.58-0.3,0.61,0.06c0.03,0.36-0.67,0.72-0.65,0.89
		c0.02,0.21,0.44-0.04,0.41,0.46c-0.03,0.5-0.18,0.99-0.08,1.58s0.74,0.95,0.88,1.64s-0.22,0.97,0.2,1.84
		c0.43,0.88,1,2.29,1.83,3.24s1.43,1.18,2.34,1.46c0.91,0.28,0.27,0.59,0.53,1.02c0.62-0.04,0.84-0.25,1.48-0.52
		c0.64-0.28,2.2,1.15,2.24,1.9c0.53-0.53,0.96-0.44,1.19-1.33c0.23-0.89,0.41-1.69,0-2.76s0.29-1.65,0.01-3.1
		c-0.28-1.45-0.17-3.08,0.15-4.82c0.32-1.74-0.83-1.59,0.33-3.93c1.17-2.33,1.33-7.28,1.09-10.42c-0.24-3.15-2.39-6.29-3.89-8.16
		s-1.85-1.98-3.21-3.44c0.7,0.31,1.33,0.39,2.02,0.52c-1.5-0.87-3.13-1.59-4.5-2.67c-0.98-0.77-2.13-1.71-3.05-2.67
		c5.99-3.93,9.24-9.1,9.61-9.71c0.49-0.81,0.59-0.69,1.21-0.96c0.62-0.27,1.55,0.13,1.46,0.89c0.84-0.24,0.96-0.55,2.02-0.3
		c1.06,0.25,2.47,0.37,3.78-0.26c1.31-0.63,4.29,0.49,5.47,0.55c1.19,0.06,1.17-0.06,2.11-0.12c-0.27,0.49-0.48,1-0.93,1.33
		c0.87,0.06,1.55,0.17,2.45-0.11c0.9-0.27,2.74-0.19,3.42,0.43c0.69,0.62,0.49,1.1,0.68,1.81c0.3-0.34,0.92-1.02,1.39-0.83
		c0.47,0.19,0.37,0.88,0.39,1.27c0.52-0.39,1.28-1.17,1.98-0.92s0.64,1.36,0.68,1.97c0.44-0.29,0.83-0.7,1.38-0.83
		c1.06-0.24,1.35,0.74,1.26,1.69c1.43-0.82,2.07-1.57,3.98-1.63c1.91-0.06,5.58,0.6,7.47,1.11c1.89,0.51,4.08,0.92,5.48,1
		c1.39,0.08,3.33,0.11,3.5-1.11c0.83,0.08,2.03-0.02,2.75-0.44c0.72-0.42,0.82-1.01,1.15-1.58c0.45-1.55,4.07-0.16,2.81-3.45
		c-1.26-3.29-7.8-9.06-9.93-12.9c-2.13-3.84-3.43-6.48-6.92-9.66c-2.24-2.04-6-4.16-9.53-6.04c0.04-0.58-0.01-1.16-0.06-1.47
		c-0.08-0.49-0.28,1.29-0.36,1.02c-0.08-0.26,0.04-1.2,0.06-1.7c0.02-0.5-0.12-2.06-0.27-2.4c-0.15-0.34-0.04,0.93-0.15,0.64
		c-0.12-0.29-0.16-1.42-0.2-1.76s-0.12-0.91-0.25-0.97c-0.13-0.06,0.14,1.14-0.03,0.67c-0.17-0.47-0.5-1.76-0.67-2.13
		s0.06,0.76-0.08,0.59c-0.14-0.17-0.27-0.99-0.38-1.15c-0.11-0.16-0.11,0.42-0.13,0.4c-0.05-0.21-0.06-0.73-0.16-0.88
		c-0.1-0.15-0.1,0.51-0.2,0.48c-0.1-0.03-0.03-0.4-0.09-0.5c-0.06-0.1-0.13,0.29-0.21,0.18s0.09-0.69,0.1-0.81
		c0.01-0.13-0.31,0.58-0.37,0.55s0.01-0.34,0-0.41c-0.02-0.08-0.26,0.21-0.32,0.21c-0.06,0,0.19-0.35,0.1-0.37
		c-0.08-0.02-0.39,0.36-0.49,0.35c-0.1-0.01,0.12-0.39,0.13-0.43c-0.36,0.12-0.8,0.71-1.01,0.89c-0.21,0.18,0.08-0.26,0-0.29
		c-0.08-0.03-0.64,0.47-0.78,0.68c-0.14,0.22-0.38,1.04-0.53,1.22c-0.15,0.18,0.06-0.59-0.12-0.46c-0.17,0.12-0.28,0.73-0.28,1.06
		c0,0.32-0.36-0.49-0.39-0.44c-0.22,0.37-0.37,0.72-0.47,1.07c-0.02,0-0.03-0.01-0.04-0.05c-0.1-0.3,0.41-1.51,0.26-1.81
		c-0.15-0.3-0.16,0.78-0.32,0.45c-0.16-0.33,0.1-1.75,0.1-2.2c0.01-0.45-0.17-1.54-0.43-1.64c-0.26-0.09,0,1.7-0.29,1.4
		c-0.28-0.29-0.5-2.5-0.7-3.02s-0.68-1.87-0.96-1.92c-0.28-0.05,0.36,1.51,0.06,1.32c-0.3-0.19-0.82-1.33-1.06-1.56
		c-0.24-0.22-0.82-0.9-0.95-0.83s0.07,0.64-0.09,0.59c-0.16-0.05-0.29-0.68-0.48-0.65s0,0.66-0.22,0.66s-0.78-0.78-0.98-0.74
		s0.03,0.7-0.11,0.73c-0.14,0.03-0.39-0.5-0.5-0.39c-0.1,0.11,0.37,0.78,0.19,0.82c-0.17,0.04-0.36-0.52-0.52-0.51
		c-0.16,0.01-0.03,0.41-0.12,0.38c-0.1-0.03-0.12-0.34-0.25-0.28c-0.13,0.06-0.12,0.35-0.23,0.38s0-0.41-0.16-0.25
		c-0.16,0.16-0.41,1.02-0.58,1.12c-0.17,0.1,0.1-0.4-0.04-0.33c-0.15,0.06-0.16,0.32-0.3,0.38c-0.14,0.06,0.16-0.28-0.11-0.18
		c-0.26,0.1-0.96,0.9-1.08,1.23c-0.12,0.33-0.3,0.98-0.49,1.1c-0.19,0.11,0.23-0.6-0.01-0.43c-0.24,0.17-0.51,1.12-0.61,1.38
		c-0.1,0.26-0.01-0.49-0.22-0.27c-0.14,0.15-0.27,0.63-0.35,1.05c-2.84-1.55-1.77-1.5-3.73-3.23c-0.01,0.61-0.23,1.05-0.08,1.64
		c-1.44-0.31-2.4-0.57-3.67-1.6c-1.27-1.03-2.93-2.67-4.39-3.57c0.01,0.4,1.11,1.73-0.32,1.43c-1.43-0.3-3.49-1.03-4.8-2.34
		c-1.3-1.31-2.92-2.86-4.49-3.85c0.02,0.47,0.67,1.08-0.59,0.84c-1.25-0.24-2.65-0.99-4.44-1.26s-4.46-0.74-6.56-1.17
		c-2.1-0.43-4.88-0.51-7-0.24c0.04,0.39,1.81,0.91-0.26,0.95c-2.07,0.03-4.88,0.21-7.68,0.8c-2.8,0.59-4.06,0.73-8.18,0.74
		c-4.12,0.01-12.51-0.34-17.6-0.73c-5.1-0.39-14.51-0.36-18.4-1.04c-3.89-0.68-2.28-0.68-5.06-1.3c0.22,0.21,2.11,1.14,0.99,1.48
		c-1.12,0.33-3.95-0.29-5.27-0.35c-1.32-0.06-2.25,0.06-3.4,0.41c0.09,0.05,2.09,0.34,0.88,0.67c-1.22,0.33-3.99,0.49-5.18,1.02
		c-1.19,0.53-1.69,1.55-2.77,1.67c-1.08,0.12-2.02,0.52-2.93,0.97c-0.16,0.11,1.63-0.17,0.65,0.45c-0.97,0.62-4.27,0.47-5.71,0.68
		c-1.44,0.22-2.8,0.72-4.08,1.31c0.43,0.17,1.99,0.42,0.57,0.96c-1.42,0.55-3.66,1.29-5.14,2.01c-1.48,0.71-2.76,1.49-4.07,2.36
		c0.09,0.12,2.61-0.2,1.05,0.52c-1.57,0.73-4.42,2.65-6.15,3.33c-1.73,0.68-2.78,1.32-4.19,2.26c0.31,0.02,1.73-0.21,1.11,0.62
		c-0.62,0.83-2.45,1.4-3.29,2.06c-0.84,0.66-1.3,1.42-1.92,2.21c0.26-0.12,2.4-1.01,1.38,0.07c-1.02,1.08-2.81,1.9-3.71,3.33
		c-0.9,1.42-1.66,3.98-2.47,5.15c-0.82,1.17-1.26,1.04-2.27,1.39c0.7,0.51,1.75,0.6,1.46,1.96c-0.3,1.36-1.78,3.39-2.63,4.64
		c1.42-0.38,1.54,0.44,1.23,2.01c-0.31,1.57-1.17,5.76-2.16,6.79c-0.98,1.03-0.95,0.61-1.83,1.11c0.6-0.02,1.7-0.35,1.96,0.46
		c0.26,0.81,0.09,1.84-0.48,2.6c-0.57,0.77-1.48,1.59-2.18,2.26c-0.69,0.67-1.08,1.56-1.48,2.33c0.51,0.34,1.34-2.19,1.99-0.44
		c0.64,1.76,0.73,5.02-0.49,7.6c-1.22,2.58-2.83,6.3-3.49,9.55c-0.65,3.25-1.59,9.11-2.45,11.76c-0.86,2.65-1.82,2.45-3.51,3.14
		c0.47,0.91,1.18,2.24,1.23,3.31c0.05,1.07-0.87,1.54-1.56,2.01c0.25,0.81,0.74,0.99,0.51,2.08c-0.23,1.09-0.45,3.32,0.02,4.5
		s0.26,2.43,0.14,3.36c-0.12,0.94-0.11,1.91-0.98,1.54c0.26,1.07,0.37,1.55,1.26,2.47c0.89,0.92,1.5,2.92,2.54,3.92
		c1.05,1,2.26,1.29,3.58,1.83c1.32,0.54,2.73,0.53,4.1,0.53c1.32,0,2.85,0,3.88,0c1.05,0,1.09-1.12,1.85-1.33
		c0.76-0.22,0.93,0.09,1.48,0.38c0.23-0.52,0.19-1.01-0.14-1.49c0.61-0.07,1.23-0.1,1.8,0.19c-0.66-1.25-1.58-1.82-2.84-2.51
		c-1.25-0.69-3.98-1.29-5.19-1.23c-0.66,0.03-0.69-0.09-1.39-0.7s-0.92-1.97-0.68-2.6c0.24-0.63,0.69,0.03,0.87,0.28
		c0.67-0.81,0.9-1.49,0.89-2.67c-0.02-1.18-0.15-2.85-0.2-4.12c0.6,0.94,1.15,1.96,1.38,3.08c0.48-1.07,0.78-2.16,0.73-3.35
		c-0.05-1.19,1.78-1.9,2.55-1.4s0.56,1.41,0.9,2.08c0.12-0.97,0.14-2.21,0.73-3.03c0.59-0.81,1.55-1.08,1.92-2.1
		s1.35-2.14,2.24-2.32s0.89,0.23,1.1,0.8c0.56-0.67,1.11-1.15,1.26-2.15c0.15-1,0.38-2.3,1.29-3.11s2.11-2.54,2.46-3.68
		c0.35-1.14,0.21,1.82,0.18,2.03c0.85-0.92,1.67-1.91,2.25-3.08c0.58-1.17,0.9-3.04,1.27-4.12c0.37-1.08,0.56-1.07,1.43-1.62
		c0.87-0.55,2.03-1.67,2.81-2.51c-0.5,1.02-0.71,2.16-0.72,3.28c0.49-0.29,1.56-1.59,2.18-1.06c0.62,0.54-1.23,3.08-1.37,3.83
		c0.79-0.42,1.87-0.96,2.6-0.11c0.73,0.85,0.77,2.44,0.43,3.35c-0.34,0.91-0.67,1.24-1.06,1.97c0.55-0.41,1.81-1.51,2.37-0.59
		c0.56,0.91-0.3,2.5-0.68,3.4c1.01-0.37,2.46-0.82,3.23,0.21c0.77,1.03,1.09,2.18,0.76,3.39c-0.32,1.21-0.59,2.29-0.73,3.49
		c0.5-0.28,1.12-1.1,1.73-0.34c0.6,0.76,0.81,2.36,0.45,3.37c-0.36,1.01,1.18,3.92,1.36,5.03c0.19,1.11,0.75,3.11,0.46,4.36
		c-0.29,1.25,0.48,2.51,1.24,3.19c0.76,0.68-0.52,0.56-0.87,0.64c0.94,0.57,0.69,0.63,2.07,0.91c1.38,0.28,1.98,2.03,4.03,2.03
		c2.12,0,5.47,0,8.1,0c2.69,0,8.39,0.06,10.81-0.07c2.42-0.14,2.38-1.1,3.33-2.46c0.49,0.13,1.07,0.38,1.32,0.95
		c-0.08-0.84-0.08-1.66-0.77-2.29c-0.68-0.63-1.22-1.2-2.28-1.44c-1.06-0.25-2.79-0.14-3.95-0.11c-1.17,0.03-2.27-0.01-3.4-0.17
		c-2.53-0.38-2.65-2.61-3.58-3.23c0.37-0.09,0.72-0.15,1.09,0.01c-0.41-0.88-0.66-1.14-1.29-2.02c-0.63-0.88-0.96-3.51-1.09-4.81
		c-0.12-1.31-0.25-2.54-0.53-4.1c-0.28-1.56-0.04-5.27,0.32-6.62s0.48,0.7,0.56,0.62c0.36-0.94,0.48-1.46,0.55-2.66
		c0.07-1.2,0.3-3.31-0.12-4.61c0.32,0.08,0.57,0.28,0.74,0.58c0.15-1.52,0.4-3.13,0.11-4.65c-0.29-1.52-0.65-3.63-0.31-4.99
		c0.34-1.36,0.63-1.89,0.57-3.14c-0.06-1.25-0.63-2.44-1.01-3.61c0.54,0.02,1.3,0.43,1.59,0.76c0.29,0.33,1.02-1.19,1.5-1.34
		c0.49-0.15,1.76-0.1,2.04,0.5c0.27,0.6-0.14,0.91-0.36,1.36c0.9-0.05,1.75-0.34,2.52-0.86c0.77-0.52,1.67-0.65,2.36-0.2
		c0.69,0.45,0.27,0.92,0.2,1.47c1.33-0.07,2.85-0.25,4.1-0.64s2.31-0.41,3.52-0.25c1.22,0.17,2.7,0.51,3.79,0.53
		c1.09,0.02,1.58-0.23,2.37-0.79c-0.56,0.9-1.15,1.75-1.94,2.43c1.84-1,3.91-2.02,5.27-3.69c-0.08,1.15-0.17,2.39-0.89,3.32
		c1.01-0.64,1.57-1.26,2.47-2.14c0.9-0.89,2.91-0.58,4.08,0.01c1.17,0.59,2.73,0.16,3.83-0.56c1.1-0.72,2.1-1.53,3.15-2.31
		c-0.25,0.64-0.53,1.29-0.89,1.87c0.73-0.54,1.68-1.28,2.28-1.89c0.6-0.61,1.08-1.2,1.82-1.3c0.73-0.1,1.48,0.48,1.45,1.15
		s-0.49,1.08-0.76,1.61c0.59-0.14,0.99-0.09,1.16,0.67c0.18,0.76-0.24,2.42-0.7,2.93c-0.46,0.5,0.75-0.26,1.04,0.32
		c0.29,0.58,0.25,2.58-0.32,3.07c-0.57,0.48-1.01,0.07-1.53-0.04c0.52,0.56,1.55,0.79,1.51,1.84c-0.04,1.05-1.87,2.27-2.7,2.86
		c1.03,0.41,2.63,0.75,3.22,1.79c0.59,1.05-0.8,1.84-1.44,2.32c1.03,0.6,3.1,1.65,3.06,3.03c-0.03,1.38-1.77,1.53-2.67,1.84
		c0.67,0.65,2.54,1.95,2.12,3.08c-0.42,1.13-2.4,0.73-3.27,0.72c1.07,0.83,2.75,1.27,3.18,2.89c0.43,1.62,0.28,4.08,1.28,5.51
		c1.01,1.43,1.42,1.95,1.94,3.63c0.52,1.68,1.77,5.74,2.59,7.2c0.82,1.46,0.75,2.4,1.56,3.66c0.81,1.26,2,2.61,3.51,2.61
		c1.53,0,3.7,0.03,5.2,0.03c1.4,0,3.14,0.02,4.32,0.03c-55.74-0.1-138.04-0.24-138.43-0.24c-0.59,0,4.32-7.07,3.85-7.52
		S0,118.54,0,119.35s27.6,10.11,28.18,9.47c0.58-0.64-3.75-6.86-3.75-6.86h189.1l9.88,8.51h9.76l-2.1-4.15l5.74,4.15
		c0,0,15.93,0,17.11,0C254.78,130.48,245.76,120.86,245.76,120.86z"/>
</g>
</svg>
